  0
SECTION
  2
HEADER
  9
$ANGBASE
  50
0.0
  9
$ANGDIR
  70
1
  9
$MEASUREMENT
  70
0
  0
ENDSEC
  0
SECTION
  2
TABLES
  0
TABLE
  2
LTYPE
  70
4
  0
LTYPE
  5
40F
  2
CONTINUOUS
  70
0
  3
Solid line
  72
65
  73
0
  40
0.0
  0
LTYPE
  5
410
  2
DASHDOT
 70
0
  3
Dash Dot ____ _ ____ _
 72
65
 73
4
 40
2.0
 49
1.25
 49
-0.25
 49
0.25
 49
-0.25
  0
LTYPE
  5
411
  2
DASHED
 70
0
  3
Dashed __ __ __ __ __
 72
65
 73
2
 40
0.75
 49
0.5
 49
-0.25
  0
LTYPE
  5
43B
  2
DOTTED
 70
0
  3
Dotted .  .  .  .
 72
65
 73
2
 40
0.2
 49
0.0
 49
-0.2
  0
ENDTAB
  0
TABLE
  2
STYLE
  70
4
  0
STYLE
  2
KICAD
  70
0
  40
0
  41
1
  42
1
  50
0
  71
0
  3
isocp.shx
  0
STYLE
  2
KICADB
  70
0
  40
0
  41
1
  42
1
  50
0
  71
0
  3
isocp.shx
  0
STYLE
  2
KICADI
  70
0
  40
0
  41
1
  42
1
  50
15
  71
0
  3
isocp.shx
  0
STYLE
  2
KICADBI
  70
0
  40
0
  41
1
  42
1
  50
15
  71
0
  3
isocp.shx
  0
ENDTAB
  0
TABLE
  2
LAYER
  70
1
  0
LAYER
  2
BLACK
  70
0
  62
7
  6
CONTINUOUS
  0
ENDTAB
  0
ENDSEC
  0
SECTION
  2
ENTITIES
0
LINE
8
BLACK
6
CONTINUOUS
10
6.9371210629921256
20
-3.5420568897637796
11
6.9376976377952753
21
-3.5434488188976379
0
LINE
8
BLACK
6
CONTINUOUS
10
6.9376976377952753
20
-3.5434488188976379
11
6.9371210629921256
21
-3.5448407480314961
0
LINE
8
BLACK
6
CONTINUOUS
10
6.9371210629921256
20
-3.5448407480314961
11
6.9357291338582678
21
-3.5454173228346457
0
LINE
8
BLACK
6
CONTINUOUS
10
6.9357291338582678
20
-3.5454173228346457
11
6.9158857480314957
21
-3.5454173228346457
0
LINE
8
BLACK
6
CONTINUOUS
10
6.9158857480314957
20
-3.5454173228346457
11
6.9374752362204726
21
-3.5868903937007874
0
LINE
8
BLACK
6
CONTINUOUS
10
6.9374752362204726
20
-3.5868903937007874
11
6.9376065354330709
21
-3.5883912992125984
0
LINE
8
BLACK
6
CONTINUOUS
10
6.9376065354330709
20
-3.5883912992125984
11
6.9366381102362205
21
-3.589545433070866
0
LINE
8
BLACK
6
CONTINUOUS
10
6.9366381102362205
20
-3.589545433070866
11
6.9351372440944878
21
-3.5896767322834644
0
LINE
8
BLACK
6
CONTINUOUS
10
6.9351372440944878
20
-3.5896767322834644
11
6.9339830708661419
21
-3.5887083070866139
0
LINE
8
BLACK
6
CONTINUOUS
10
6.9339830708661419
20
-3.5887083070866139
11
6.9146102362204722
21
-3.5514934251968504
0
LINE
8
BLACK
6
CONTINUOUS
10
6.9146102362204722
20
-3.5514934251968504
11
6.9146102362204722
21
-4.7259553543307087
0
LINE
8
BLACK
6
CONTINUOUS
10
6.9146102362204722
20
-4.7259553543307087
11
6.9339830708661419
21
-4.6887405118110239
0
LINE
8
BLACK
6
CONTINUOUS
10
6.9339830708661419
20
-4.6887405118110239
11
6.9351372440944878
21
-4.6877720866141734
0
LINE
8
BLACK
6
CONTINUOUS
10
6.9351372440944878
20
-4.6877720866141734
11
6.9366381102362205
21
-4.6879033858267718
0
LINE
8
BLACK
6
CONTINUOUS
10
6.9366381102362205
20
-4.6879033858267718
11
6.9376065354330709
21
-4.689057519685039
0
LINE
8
BLACK
6
CONTINUOUS
10
6.9376065354330709
20
-4.689057519685039
11
6.9374752362204726
21
-4.6905584251968504
0
LINE
8
BLACK
6
CONTINUOUS
10
6.9374752362204726
20
-4.6905584251968504
11
6.9158857480314957
21
-4.7320314960629917
0
LINE
8
BLACK
6
CONTINUOUS
10
6.9158857480314957
20
-4.7320314960629917
11
6.9357291338582678
21
-4.7320314960629917
0
LINE
8
BLACK
6
CONTINUOUS
10
6.9357291338582678
20
-4.7320314960629917
11
6.9371210629921256
21
-4.7326080708661413
0
LINE
8
BLACK
6
CONTINUOUS
10
6.9371210629921256
20
-4.7326080708661413
11
6.9376976377952753
21
-4.734
0
LINE
8
BLACK
6
CONTINUOUS
10
6.9376976377952753
20
-4.734
11
6.9371210629921256
21
-4.7353919291338578
0
LINE
8
BLACK
6
CONTINUOUS
10
6.9371210629921256
20
-4.7353919291338578
11
6.9357291338582678
21
-4.7359685039370074
0
LINE
8
BLACK
6
CONTINUOUS
10
6.9357291338582678
20
-4.7359685039370074
11
6.9126417322834648
21
-4.7359685039370074
0
LINE
8
BLACK
6
CONTINUOUS
10
6.9126417322834648
20
-4.7359685039370074
11
6.6445314960629922
21
-4.7359685039370074
0
LINE
8
BLACK
6
CONTINUOUS
10
6.6445314960629922
20
-4.7359685039370074
11
6.6445314960629922
21
-5.0700795275590549
0
LINE
8
BLACK
6
CONTINUOUS
10
6.6445314960629922
20
-5.0700795275590549
11
6.6439549212598425
21
-5.0714714566929135
0
LINE
8
BLACK
6
CONTINUOUS
10
6.6439549212598425
20
-5.0714714566929135
11
6.6425629921259839
21
-5.0720480314960632
0
LINE
8
BLACK
6
CONTINUOUS
10
6.6425629921259839
20
-5.0720480314960632
11
6.6411710629921261
21
-5.0714714566929135
0
LINE
8
BLACK
6
CONTINUOUS
10
6.6411710629921261
20
-5.0714714566929135
11
6.6405944881889765
21
-5.0700795275590549
0
LINE
8
BLACK
6
CONTINUOUS
10
6.6405944881889765
20
-5.0700795275590549
11
6.6405944881889765
21
-5.0502361023622049
0
LINE
8
BLACK
6
CONTINUOUS
10
6.6405944881889765
20
-5.0502361023622049
11
6.5991213779527556
21
-5.0718256692913384
0
LINE
8
BLACK
6
CONTINUOUS
10
6.5991213779527556
20
-5.0718256692913384
11
6.5976205118110238
21
-5.071956929133858
0
LINE
8
BLACK
6
CONTINUOUS
10
6.5976205118110238
20
-5.071956929133858
11
6.5964663385826769
21
-5.0709885039370075
0
LINE
8
BLACK
6
CONTINUOUS
10
6.5964663385826769
20
-5.0709885039370075
11
6.5963350787401573
21
-5.0694876377952758
0
LINE
8
BLACK
6
CONTINUOUS
10
6.5963350787401573
20
-5.0694876377952758
11
6.5973035039370078
21
-5.0683334645669289
0
LINE
8
BLACK
6
CONTINUOUS
10
6.5973035039370078
20
-5.0683334645669289
11
6.6345183858267713
21
-5.0489606299212602
0
LINE
8
BLACK
6
CONTINUOUS
10
6.6345183858267713
20
-5.0489606299212602
11
5.058481653543307
21
-5.0489606299212602
0
LINE
8
BLACK
6
CONTINUOUS
10
5.058481653543307
20
-5.0489606299212602
11
5.0956964960629918
21
-5.0683334645669289
0
LINE
8
BLACK
6
CONTINUOUS
10
5.0956964960629918
20
-5.0683334645669289
11
5.0966649212598423
21
-5.0694876377952758
0
LINE
8
BLACK
6
CONTINUOUS
10
5.0966649212598423
20
-5.0694876377952758
11
5.0965336220472439
21
-5.0709885039370075
0
LINE
8
BLACK
6
CONTINUOUS
10
5.0965336220472439
20
-5.0709885039370075
11
5.0953794881889767
21
-5.071956929133858
0
LINE
8
BLACK
6
CONTINUOUS
10
5.0953794881889767
20
-5.071956929133858
11
5.0938785826771653
21
-5.0718256299212596
0
LINE
8
BLACK
6
CONTINUOUS
10
5.0938785826771653
20
-5.0718256299212596
11
5.0524055118110232
21
-5.0502361023622049
0
LINE
8
BLACK
6
CONTINUOUS
10
5.0524055118110232
20
-5.0502361023622049
11
5.0524055118110232
21
-5.0700795275590549
0
LINE
8
BLACK
6
CONTINUOUS
10
5.0524055118110232
20
-5.0700795275590549
11
5.0518289370078735
21
-5.0714714566929135
0
LINE
8
BLACK
6
CONTINUOUS
10
5.0518289370078735
20
-5.0714714566929135
11
5.0504370078740157
21
-5.0720480314960632
0
LINE
8
BLACK
6
CONTINUOUS
10
5.0504370078740157
20
-5.0720480314960632
11
5.0490450787401571
21
-5.0714714566929135
0
LINE
8
BLACK
6
CONTINUOUS
10
5.0490450787401571
20
-5.0714714566929135
11
5.0484685039370074
21
-5.0700795275590549
0
LINE
8
BLACK
6
CONTINUOUS
10
5.0484685039370074
20
-5.0700795275590549
11
5.0484685039370074
21
-4.7300629921259842
0
LINE
8
BLACK
6
CONTINUOUS
10
5.0484685039370074
20
-4.7300629921259842
11
5.0490450787401571
21
-4.7286710629921256
0
LINE
8
BLACK
6
CONTINUOUS
10
5.0490450787401571
20
-4.7286710629921256
11
5.0504370078740157
21
-4.7280944881889759
0
LINE
8
BLACK
6
CONTINUOUS
10
5.0504370078740157
20
-4.7280944881889759
11
5.0518289370078735
21
-4.7286710629921256
0
LINE
8
BLACK
6
CONTINUOUS
10
5.0518289370078735
20
-4.7286710629921256
11
5.0524055118110232
21
-4.7300629921259842
0
LINE
8
BLACK
6
CONTINUOUS
10
5.0524055118110232
20
-4.7300629921259842
11
5.0524055118110232
21
-5.0437481102362201
0
LINE
8
BLACK
6
CONTINUOUS
10
5.0524055118110232
20
-5.0437481102362201
11
5.0938785826771653
21
-5.0221586220472441
0
LINE
8
BLACK
6
CONTINUOUS
10
5.0938785826771653
20
-5.0221586220472441
11
5.0953794881889767
21
-5.0220273228346457
0
LINE
8
BLACK
6
CONTINUOUS
10
5.0953794881889767
20
-5.0220273228346457
11
5.0965336220472439
21
-5.0229957480314962
0
LINE
8
BLACK
6
CONTINUOUS
10
5.0965336220472439
20
-5.0229957480314962
11
5.0966649212598423
21
-5.0244966141732279
0
LINE
8
BLACK
6
CONTINUOUS
10
5.0966649212598423
20
-5.0244966141732279
11
5.0956964960629918
21
-5.0256507874015748
0
LINE
8
BLACK
6
CONTINUOUS
10
5.0956964960629918
20
-5.0256507874015748
11
5.058481653543307
21
-5.0450236220472444
0
LINE
8
BLACK
6
CONTINUOUS
10
5.058481653543307
20
-5.0450236220472444
11
6.6345183858267713
21
-5.0450236220472444
0
LINE
8
BLACK
6
CONTINUOUS
10
6.6345183858267713
20
-5.0450236220472444
11
6.5973035039370078
21
-5.0256507874015748
0
LINE
8
BLACK
6
CONTINUOUS
10
6.5973035039370078
20
-5.0256507874015748
11
6.5963350787401573
21
-5.0244966141732279
0
LINE
8
BLACK
6
CONTINUOUS
10
6.5963350787401573
20
-5.0244966141732279
11
6.5964663385826769
21
-5.0229957480314962
0
LINE
8
BLACK
6
CONTINUOUS
10
6.5964663385826769
20
-5.0229957480314962
11
6.5976205118110238
21
-5.0220273228346457
0
LINE
8
BLACK
6
CONTINUOUS
10
6.5976205118110238
20
-5.0220273228346457
11
6.5991213779527556
21
-5.0221585826771653
0
LINE
8
BLACK
6
CONTINUOUS
10
6.5991213779527556
20
-5.0221585826771653
11
6.6405944881889765
21
-5.0437481102362201
0
LINE
8
BLACK
6
CONTINUOUS
10
6.6405944881889765
20
-5.0437481102362201
11
6.6405944881889765
21
-4.7300629921259842
0
LINE
8
BLACK
6
CONTINUOUS
10
6.6405944881889765
20
-4.7300629921259842
11
6.6411710629921261
21
-4.7286710629921256
0
LINE
8
BLACK
6
CONTINUOUS
10
6.6411710629921261
20
-4.7286710629921256
11
6.6425629921259839
21
-4.7280944881889759
0
LINE
8
BLACK
6
CONTINUOUS
10
6.6425629921259839
20
-4.7280944881889759
11
6.6439549212598425
21
-4.7286710629921256
0
LINE
8
BLACK
6
CONTINUOUS
10
6.6439549212598425
20
-4.7286710629921256
11
6.6445314960629922
21
-4.7300629921259842
0
LINE
8
BLACK
6
CONTINUOUS
10
6.6445314960629922
20
-4.7300629921259842
11
6.6445314960629922
21
-4.7320314960629917
0
LINE
8
BLACK
6
CONTINUOUS
10
6.6445314960629922
20
-4.7320314960629917
11
6.909397716535433
21
-4.7320314960629917
0
LINE
8
BLACK
6
CONTINUOUS
10
6.909397716535433
20
-4.7320314960629917
11
6.8878081889763774
21
-4.6905583858267716
0
LINE
8
BLACK
6
CONTINUOUS
10
6.8878081889763774
20
-4.6905583858267716
11
6.8876769291338578
21
-4.689057519685039
0
LINE
8
BLACK
6
CONTINUOUS
10
6.8876769291338578
20
-4.689057519685039
11
6.8886453543307082
21
-4.687903346456693
0
LINE
8
BLACK
6
CONTINUOUS
10
6.8886453543307082
20
-4.687903346456693
11
6.8901462204724409
21
-4.6877720866141734
0
LINE
8
BLACK
6
CONTINUOUS
10
6.8901462204724409
20
-4.6877720866141734
11
6.8913003937007868
21
-4.6887405118110239
0
LINE
8
BLACK
6
CONTINUOUS
10
6.8913003937007868
20
-4.6887405118110239
11
6.9106732283464565
21
-4.7259553937007874
0
LINE
8
BLACK
6
CONTINUOUS
10
6.9106732283464565
20
-4.7259553937007874
11
6.9106732283464565
21
-3.5514933858267717
0
LINE
8
BLACK
6
CONTINUOUS
10
6.9106732283464565
20
-3.5514933858267717
11
6.8913003937007868
21
-3.5887083070866139
0
LINE
8
BLACK
6
CONTINUOUS
10
6.8913003937007868
20
-3.5887083070866139
11
6.8901462204724409
21
-3.5896767322834644
0
LINE
8
BLACK
6
CONTINUOUS
10
6.8901462204724409
20
-3.5896767322834644
11
6.8886453543307082
21
-3.5895454724409448
0
LINE
8
BLACK
6
CONTINUOUS
10
6.8886453543307082
20
-3.5895454724409448
11
6.8876769291338578
21
-3.5883912992125984
0
LINE
8
BLACK
6
CONTINUOUS
10
6.8876769291338578
20
-3.5883912992125984
11
6.8878081889763774
21
-3.5868904330708662
0
LINE
8
BLACK
6
CONTINUOUS
10
6.8878081889763774
20
-3.5868904330708662
11
6.909397716535433
21
-3.5454173228346457
0
LINE
8
BLACK
6
CONTINUOUS
10
6.909397716535433
20
-3.5454173228346457
11
6.6425629921259839
21
-3.5454173228346457
0
LINE
8
BLACK
6
CONTINUOUS
10
6.6425629921259839
20
-3.5454173228346457
11
6.6411710629921261
21
-3.5448407480314961
0
LINE
8
BLACK
6
CONTINUOUS
10
6.6411710629921261
20
-3.5448407480314961
11
6.6405944881889765
21
-3.5434488188976379
0
LINE
8
BLACK
6
CONTINUOUS
10
6.6405944881889765
20
-3.5434488188976379
11
6.6411710629921261
21
-3.5420568897637796
0
LINE
8
BLACK
6
CONTINUOUS
10
6.6411710629921261
20
-3.5420568897637796
11
6.6425629921259839
21
-3.54148031496063
0
LINE
8
BLACK
6
CONTINUOUS
10
6.6425629921259839
20
-3.54148031496063
11
6.9357291338582678
21
-3.54148031496063
0
LINE
8
BLACK
6
CONTINUOUS
10
6.9357291338582678
20
-3.54148031496063
11
6.9371210629921256
21
-3.5420568897637796
0
LINE
8
BLACK
6
CONTINUOUS
10
5.7132775590551184
20
-4.9795685039370081
11
5.7133843700787397
21
-4.9810713385826775
0
LINE
8
BLACK
6
CONTINUOUS
10
5.7133843700787397
20
-4.9810713385826775
11
5.7048742125984253
21
-5.0066017716535436
0
LINE
8
BLACK
6
CONTINUOUS
10
5.7048742125984253
20
-5.0066017716535436
11
5.718922204724409
21
-5.0066017716535436
0
LINE
8
BLACK
6
CONTINUOUS
10
5.718922204724409
20
-5.0066017716535436
11
5.718922204724409
21
-4.9954469291338581
0
LINE
8
BLACK
6
CONTINUOUS
10
5.718922204724409
20
-4.9954469291338581
11
5.7194987795275587
21
-4.9940549999999995
0
LINE
8
BLACK
6
CONTINUOUS
10
5.7194987795275587
20
-4.9940549999999995
11
5.7208907086614174
21
-4.9934784251968507
0
LINE
8
BLACK
6
CONTINUOUS
10
5.7208907086614174
20
-4.9934784251968507
11
5.7222826377952751
21
-4.9940549999999995
0
LINE
8
BLACK
6
CONTINUOUS
10
5.7222826377952751
20
-4.9940549999999995
11
5.7228592125984248
21
-4.9954469291338581
0
LINE
8
BLACK
6
CONTINUOUS
10
5.7228592125984248
20
-4.9954469291338581
11
5.7228592125984248
21
-5.0066017716535436
0
LINE
8
BLACK
6
CONTINUOUS
10
5.7228592125984248
20
-5.0066017716535436
11
5.726515
21
-5.0066017716535436
0
LINE
8
BLACK
6
CONTINUOUS
10
5.726515
20
-5.0066017716535436
11
5.7279069291338578
21
-5.0071783464566932
0
LINE
8
BLACK
6
CONTINUOUS
10
5.7279069291338578
20
-5.0071783464566932
11
5.7284835039370074
21
-5.008570275590551
0
LINE
8
BLACK
6
CONTINUOUS
10
5.7284835039370074
20
-5.008570275590551
11
5.7279069291338578
21
-5.0099622047244097
0
LINE
8
BLACK
6
CONTINUOUS
10
5.7279069291338578
20
-5.0099622047244097
11
5.726515
21
-5.0105387795275593
0
LINE
8
BLACK
6
CONTINUOUS
10
5.726515
20
-5.0105387795275593
11
5.7228592125984248
21
-5.0105387795275593
0
LINE
8
BLACK
6
CONTINUOUS
10
5.7228592125984248
20
-5.0105387795275593
11
5.7228592125984248
21
-5.0216936614173227
0
LINE
8
BLACK
6
CONTINUOUS
10
5.7228592125984248
20
-5.0216936614173227
11
5.7222826377952751
21
-5.0230855905511813
0
LINE
8
BLACK
6
CONTINUOUS
10
5.7222826377952751
20
-5.0230855905511813
11
5.7208907086614174
21
-5.023662165354331
0
LINE
8
BLACK
6
CONTINUOUS
10
5.7208907086614174
20
-5.023662165354331
11
5.7194987795275587
21
-5.0230855905511813
0
LINE
8
BLACK
6
CONTINUOUS
10
5.7194987795275587
20
-5.0230855905511813
11
5.718922204724409
21
-5.0216936614173227
0
LINE
8
BLACK
6
CONTINUOUS
10
5.718922204724409
20
-5.0216936614173227
11
5.718922204724409
21
-5.0105387795275593
0
LINE
8
BLACK
6
CONTINUOUS
10
5.718922204724409
20
-5.0105387795275593
11
5.7021430708661418
21
-5.0105387795275593
0
LINE
8
BLACK
6
CONTINUOUS
10
5.7021430708661418
20
-5.0105387795275593
11
5.7018437007874017
21
-5.0104147637795275
0
LINE
8
BLACK
6
CONTINUOUS
10
5.7018437007874017
20
-5.0104147637795275
11
5.7015205905511808
21
-5.010437755905512
0
LINE
8
BLACK
6
CONTINUOUS
10
5.7015205905511808
20
-5.010437755905512
11
5.7011744488188976
21
-5.0101375196850393
0
LINE
8
BLACK
6
CONTINUOUS
10
5.7011744488188976
20
-5.0101375196850393
11
5.7007511417322831
21
-5.0099622047244097
0
LINE
8
BLACK
6
CONTINUOUS
10
5.7007511417322831
20
-5.0099622047244097
11
5.7006271259842523
21
-5.0096628346456695
0
LINE
8
BLACK
6
CONTINUOUS
10
5.7006271259842523
20
-5.0096628346456695
11
5.700382401574803
21
-5.0094505905511806
0
LINE
8
BLACK
6
CONTINUOUS
10
5.700382401574803
20
-5.0094505905511806
11
5.7003499212598427
21
-5.0089935826771654
0
LINE
8
BLACK
6
CONTINUOUS
10
5.7003499212598427
20
-5.0089935826771654
11
5.7001745669291335
21
-5.008570275590551
0
LINE
8
BLACK
6
CONTINUOUS
10
5.7001745669291335
20
-5.008570275590551
11
5.7002985433070865
21
-5.0082709055118109
0
LINE
8
BLACK
6
CONTINUOUS
10
5.7002985433070865
20
-5.0082709055118109
11
5.7002755905511808
21
-5.0079477952755909
0
LINE
8
BLACK
6
CONTINUOUS
10
5.7002755905511808
20
-5.0079477952755909
11
5.7096494094488186
21
-4.9798263385826766
0
LINE
8
BLACK
6
CONTINUOUS
10
5.7096494094488186
20
-4.9798263385826766
11
5.7106365354330704
21
-4.9786881889763777
0
LINE
8
BLACK
6
CONTINUOUS
10
5.7106365354330704
20
-4.9786881889763777
11
5.7121393700787397
21
-4.9785813385826767
0
LINE
8
BLACK
6
CONTINUOUS
10
5.7121393700787397
20
-4.9785813385826767
11
5.7132775590551184
21
-4.9795685039370081
0
LINE
8
BLACK
6
CONTINUOUS
10
5.753185039370079
20
-4.9805303937007874
11
5.7536420866141729
21
-4.9805629133858265
0
LINE
8
BLACK
6
CONTINUOUS
10
5.7536420866141729
20
-4.9805629133858265
11
5.7573915748031492
21
-4.9824376377952753
0
LINE
8
BLACK
6
CONTINUOUS
10
5.7573915748031492
20
-4.9824376377952753
11
5.757603858267716
21
-4.9826824015748032
0
LINE
8
BLACK
6
CONTINUOUS
10
5.757603858267716
20
-4.9826824015748032
11
5.7579031889763774
21
-4.9828064173228341
0
LINE
8
BLACK
6
CONTINUOUS
10
5.7579031889763774
20
-4.9828064173228341
11
5.759777952755905
21
-4.9846811417322829
0
LINE
8
BLACK
6
CONTINUOUS
10
5.759777952755905
20
-4.9846811417322829
11
5.759901929133858
21
-4.9849804724409443
0
LINE
8
BLACK
6
CONTINUOUS
10
5.759901929133858
20
-4.9849804724409443
11
5.760146692913386
21
-4.985192755905512
0
LINE
8
BLACK
6
CONTINUOUS
10
5.760146692913386
20
-4.985192755905512
11
5.7620214566929135
21
-4.9889422834645671
0
LINE
8
BLACK
6
CONTINUOUS
10
5.7620214566929135
20
-4.9889422834645671
11
5.7620372834645668
21
-4.9891654330708661
0
LINE
8
BLACK
6
CONTINUOUS
10
5.7620372834645668
20
-4.9891654330708661
11
5.7621705118110231
21
-4.9893451968503939
0
LINE
8
BLACK
6
CONTINUOUS
10
5.7621705118110231
20
-4.9893451968503939
11
5.7640452755905507
21
-4.9968442519685041
0
LINE
8
BLACK
6
CONTINUOUS
10
5.7640452755905507
20
-4.9968442519685041
11
5.7640085039370081
21
-4.9970911023622042
0
LINE
8
BLACK
6
CONTINUOUS
10
5.7640085039370081
20
-4.9970911023622042
11
5.7641040551181097
21
-4.9973216929133857
0
LINE
8
BLACK
6
CONTINUOUS
10
5.7641040551181097
20
-4.9973216929133857
11
5.7641040551181097
21
-5.0066955118110235
0
LINE
8
BLACK
6
CONTINUOUS
10
5.7641040551181097
20
-5.0066955118110235
11
5.7640085039370081
21
-5.0069260629921262
0
LINE
8
BLACK
6
CONTINUOUS
10
5.7640085039370081
20
-5.0069260629921262
11
5.7640452755905507
21
-5.007172952755905
0
LINE
8
BLACK
6
CONTINUOUS
10
5.7640452755905507
20
-5.007172952755905
11
5.7621705118110231
21
-5.0146720078740152
0
LINE
8
BLACK
6
CONTINUOUS
10
5.7621705118110231
20
-5.0146720078740152
11
5.7620372834645668
21
-5.0148517322834643
0
LINE
8
BLACK
6
CONTINUOUS
10
5.7620372834645668
20
-5.0148517322834643
11
5.7620214566929135
21
-5.015074921259842
0
LINE
8
BLACK
6
CONTINUOUS
10
5.7620214566929135
20
-5.015074921259842
11
5.760146692913386
21
-5.0188244488188971
0
LINE
8
BLACK
6
CONTINUOUS
10
5.760146692913386
20
-5.0188244488188971
11
5.759901929133858
21
-5.0190366929133861
0
LINE
8
BLACK
6
CONTINUOUS
10
5.759901929133858
20
-5.0190366929133861
11
5.7597779921259837
21
-5.0193360236220474
0
LINE
8
BLACK
6
CONTINUOUS
10
5.7597779921259837
20
-5.0193360236220474
11
5.7579032283464562
21
-5.0212108267716538
0
LINE
8
BLACK
6
CONTINUOUS
10
5.7579032283464562
20
-5.0212108267716538
11
5.7576038188976373
21
-5.0213348031496059
0
LINE
8
BLACK
6
CONTINUOUS
10
5.7576038188976373
20
-5.0213348031496059
11
5.7573915748031492
21
-5.0215796062992126
0
LINE
8
BLACK
6
CONTINUOUS
10
5.7573915748031492
20
-5.0215796062992126
11
5.7536420866141729
21
-5.0234543307086614
0
LINE
8
BLACK
6
CONTINUOUS
10
5.7536420866141729
20
-5.0234543307086614
11
5.753185039370079
21
-5.0234868110236217
0
LINE
8
BLACK
6
CONTINUOUS
10
5.753185039370079
20
-5.0234868110236217
11
5.7527617322834645
21
-5.023662165354331
0
LINE
8
BLACK
6
CONTINUOUS
10
5.7527617322834645
20
-5.023662165354331
11
5.7490122047244094
21
-5.023662165354331
0
LINE
8
BLACK
6
CONTINUOUS
10
5.7490122047244094
20
-5.023662165354331
11
5.7485888582677163
21
-5.0234868110236217
0
LINE
8
BLACK
6
CONTINUOUS
10
5.7485888582677163
20
-5.0234868110236217
11
5.7481318503937002
21
-5.0234543307086614
0
LINE
8
BLACK
6
CONTINUOUS
10
5.7481318503937002
20
-5.0234543307086614
11
5.7443823228346451
21
-5.0215795669291339
0
LINE
8
BLACK
6
CONTINUOUS
10
5.7443823228346451
20
-5.0215795669291339
11
5.7441700393700783
21
-5.0213348031496059
0
LINE
8
BLACK
6
CONTINUOUS
10
5.7441700393700783
20
-5.0213348031496059
11
5.7438707086614169
21
-5.0212108267716538
0
LINE
8
BLACK
6
CONTINUOUS
10
5.7438707086614169
20
-5.0212108267716538
11
5.7419959448818894
21
-5.0193360236220474
0
LINE
8
BLACK
6
CONTINUOUS
10
5.7419959448818894
20
-5.0193360236220474
11
5.7418719291338585
21
-5.0190366535433073
0
LINE
8
BLACK
6
CONTINUOUS
10
5.7418719291338585
20
-5.0190366535433073
11
5.7416272047244092
21
-5.0188244094488184
0
LINE
8
BLACK
6
CONTINUOUS
10
5.7416272047244092
20
-5.0188244094488184
11
5.7397524803149604
21
-5.015074921259842
0
LINE
8
BLACK
6
CONTINUOUS
10
5.7397524803149604
20
-5.015074921259842
11
5.7397366141732284
21
-5.0148517322834643
0
LINE
8
BLACK
6
CONTINUOUS
10
5.7397366141732284
20
-5.0148517322834643
11
5.73960342519685
21
-5.0146720078740152
0
LINE
8
BLACK
6
CONTINUOUS
10
5.73960342519685
20
-5.0146720078740152
11
5.7377286614173224
21
-5.007172952755905
0
LINE
8
BLACK
6
CONTINUOUS
10
5.7377286614173224
20
-5.007172952755905
11
5.7377653937007871
21
-5.0069260629921262
0
LINE
8
BLACK
6
CONTINUOUS
10
5.7377653937007871
20
-5.0069260629921262
11
5.7376698818897633
21
-5.0066955118110235
0
LINE
8
BLACK
6
CONTINUOUS
10
5.7376698818897633
20
-5.0066955118110235
11
5.7376698818897633
21
-4.9973216929133857
0
LINE
8
BLACK
6
CONTINUOUS
10
5.7376698818897633
20
-4.9973216929133857
11
5.7377653937007871
21
-4.9970911023622042
0
LINE
8
BLACK
6
CONTINUOUS
10
5.7377653937007871
20
-4.9970911023622042
11
5.7377286614173224
21
-4.9968442519685041
0
LINE
8
BLACK
6
CONTINUOUS
10
5.7377286614173224
20
-4.9968442519685041
11
5.73960342519685
21
-4.9893451968503939
0
LINE
8
BLACK
6
CONTINUOUS
10
5.73960342519685
20
-4.9893451968503939
11
5.7397366141732284
21
-4.9891654330708661
0
LINE
8
BLACK
6
CONTINUOUS
10
5.7397366141732284
20
-4.9891654330708661
11
5.7397524803149604
21
-4.9889422834645671
0
LINE
8
BLACK
6
CONTINUOUS
10
5.7397524803149604
20
-4.9889422834645671
11
5.7416272047244092
21
-4.9851927952755908
0
LINE
8
BLACK
6
CONTINUOUS
10
5.7416272047244092
20
-4.9851927952755908
11
5.7418719685039372
21
-4.9849804724409443
0
LINE
8
BLACK
6
CONTINUOUS
10
5.7418719685039372
20
-4.9849804724409443
11
5.7419959842519681
21
-4.9846811811023617
0
LINE
8
BLACK
6
CONTINUOUS
10
5.7419959842519681
20
-4.9846811811023617
11
5.7438707086614169
21
-4.9828064173228341
0
LINE
8
BLACK
6
CONTINUOUS
10
5.7438707086614169
20
-4.9828064173228341
11
5.7441700393700783
21
-4.9826824015748032
0
LINE
8
BLACK
6
CONTINUOUS
10
5.7441700393700783
20
-4.9826824015748032
11
5.7443823228346451
21
-4.982437677165354
0
LINE
8
BLACK
6
CONTINUOUS
10
5.7443823228346451
20
-4.982437677165354
11
5.7481318503937002
21
-4.9805629133858265
0
LINE
8
BLACK
6
CONTINUOUS
10
5.7481318503937002
20
-4.9805629133858265
11
5.7485888582677163
21
-4.9805303937007874
0
LINE
8
BLACK
6
CONTINUOUS
10
5.7485888582677163
20
-4.9805303937007874
11
5.7490122047244094
21
-4.9803550787401569
0
LINE
8
BLACK
6
CONTINUOUS
10
5.7490122047244094
20
-4.9803550787401569
11
5.7527617322834645
21
-4.9803550787401569
0
LINE
8
BLACK
6
CONTINUOUS
10
5.7527617322834645
20
-4.9803550787401569
11
5.753185039370079
21
-4.9805303937007874
0
LINE
8
BLACK
6
CONTINUOUS
10
5.7464287401574801
20
-4.9858161417322835
11
5.7450057086614175
21
-4.9872391338582673
0
LINE
8
BLACK
6
CONTINUOUS
10
5.7450057086614175
20
-4.9872391338582673
11
5.7433704724409447
21
-4.9905096850393695
0
LINE
8
BLACK
6
CONTINUOUS
10
5.7433704724409447
20
-4.9905096850393695
11
5.7416068897637791
21
-4.997564015748031
0
LINE
8
BLACK
6
CONTINUOUS
10
5.7416068897637791
20
-4.997564015748031
11
5.7416068897637791
21
-5.0064531889763781
0
LINE
8
BLACK
6
CONTINUOUS
10
5.7416068897637791
20
-5.0064531889763781
11
5.7433704724409447
21
-5.0135075196850396
0
LINE
8
BLACK
6
CONTINUOUS
10
5.7433704724409447
20
-5.0135075196850396
11
5.7450057086614175
21
-5.0167779921259843
0
LINE
8
BLACK
6
CONTINUOUS
10
5.7450057086614175
20
-5.0167779921259843
11
5.7464287795275588
21
-5.0182011023622044
0
LINE
8
BLACK
6
CONTINUOUS
10
5.7464287795275588
20
-5.0182011023622044
11
5.7494769291338583
21
-5.0197251574803152
0
LINE
8
BLACK
6
CONTINUOUS
10
5.7494769291338583
20
-5.0197251574803152
11
5.7522970472440944
21
-5.0197251574803152
0
LINE
8
BLACK
6
CONTINUOUS
10
5.7522970472440944
20
-5.0197251574803152
11
5.7553451181102364
21
-5.0182011023622044
0
LINE
8
BLACK
6
CONTINUOUS
10
5.7553451181102364
20
-5.0182011023622044
11
5.7567681889763778
21
-5.0167779921259843
0
LINE
8
BLACK
6
CONTINUOUS
10
5.7567681889763778
20
-5.0167779921259843
11
5.7584034645669293
21
-5.0135074409448821
0
LINE
8
BLACK
6
CONTINUOUS
10
5.7584034645669293
20
-5.0135074409448821
11
5.760167047244094
21
-5.0064531889763781
0
LINE
8
BLACK
6
CONTINUOUS
10
5.760167047244094
20
-5.0064531889763781
11
5.760167047244094
21
-4.997564015748031
0
LINE
8
BLACK
6
CONTINUOUS
10
5.760167047244094
20
-4.997564015748031
11
5.7584034645669293
21
-4.9905097244094483
0
LINE
8
BLACK
6
CONTINUOUS
10
5.7584034645669293
20
-4.9905097244094483
11
5.7567681889763778
21
-4.9872391732283461
0
LINE
8
BLACK
6
CONTINUOUS
10
5.7567681889763778
20
-4.9872391732283461
11
5.7553451968503939
21
-4.9858161417322835
0
LINE
8
BLACK
6
CONTINUOUS
10
5.7553451968503939
20
-4.9858161417322835
11
5.7522970472440944
21
-4.9842920866141736
0
LINE
8
BLACK
6
CONTINUOUS
10
5.7522970472440944
20
-4.9842920866141736
11
5.7494769291338583
21
-4.9842920866141736
0
LINE
8
BLACK
6
CONTINUOUS
10
5.7494769291338583
20
-4.9842920866141736
11
5.7464287401574801
21
-4.9858161417322835
0
LINE
8
BLACK
6
CONTINUOUS
10
5.7800626377952753
20
-5.0164122440944885
11
5.7804003937007868
21
-5.0165521259842523
0
LINE
8
BLACK
6
CONTINUOUS
10
5.7804003937007868
20
-5.0165521259842523
11
5.7804004330708656
21
-5.016552165354331
0
LINE
8
BLACK
6
CONTINUOUS
10
5.7804004330708656
20
-5.016552165354331
11
5.7822751968503932
21
-5.0184269685039373
0
LINE
8
BLACK
6
CONTINUOUS
10
5.7822751968503932
20
-5.0184269685039373
11
5.7826516929133858
21
-5.0193360236220474
0
LINE
8
BLACK
6
CONTINUOUS
10
5.7826516929133858
20
-5.0193360236220474
11
5.7828516929133853
21
-5.0198188976377951
0
LINE
8
BLACK
6
CONTINUOUS
10
5.7828516929133853
20
-5.0198188976377951
11
5.7822751574803144
21
-5.0212108661417325
0
LINE
8
BLACK
6
CONTINUOUS
10
5.7822751574803144
20
-5.0212108661417325
11
5.7804003937007868
21
-5.0230855905511813
0
LINE
8
BLACK
6
CONTINUOUS
10
5.7804003937007868
20
-5.0230855905511813
11
5.7790084645669291
21
-5.023662165354331
0
LINE
8
BLACK
6
CONTINUOUS
10
5.7790084645669291
20
-5.023662165354331
11
5.7780241732283466
21
-5.0232544488188973
0
LINE
8
BLACK
6
CONTINUOUS
10
5.7780241732283466
20
-5.0232544488188973
11
5.7776164960629917
21
-5.0230855905511813
0
LINE
8
BLACK
6
CONTINUOUS
10
5.7776164960629917
20
-5.0230855905511813
11
5.7757418110236216
21
-5.0212108661417325
0
LINE
8
BLACK
6
CONTINUOUS
10
5.7757418110236216
20
-5.0212108661417325
11
5.7757417716535429
21
-5.0212108661417325
0
LINE
8
BLACK
6
CONTINUOUS
10
5.7757417716535429
20
-5.0212108661417325
11
5.7751651968503932
21
-5.0198189370078738
0
LINE
8
BLACK
6
CONTINUOUS
10
5.7751651968503932
20
-5.0198189370078738
11
5.775168267716535
21
-5.019811535433071
0
LINE
8
BLACK
6
CONTINUOUS
10
5.775168267716535
20
-5.019811535433071
11
5.7753651968503936
21
-5.0193360236220474
0
LINE
8
BLACK
6
CONTINUOUS
10
5.7753651968503936
20
-5.0193360236220474
11
5.7757417322834641
21
-5.0184269685039373
0
LINE
8
BLACK
6
CONTINUOUS
10
5.7757417322834641
20
-5.0184269685039373
11
5.7776164960629917
21
-5.016552165354331
0
LINE
8
BLACK
6
CONTINUOUS
10
5.7776164960629917
20
-5.016552165354331
11
5.7776164960629917
21
-5.0165521259842523
0
LINE
8
BLACK
6
CONTINUOUS
10
5.7776164960629917
20
-5.0165521259842523
11
5.7776165354330704
21
-5.0165521259842523
0
LINE
8
BLACK
6
CONTINUOUS
10
5.7776165354330704
20
-5.0165521259842523
11
5.7786977559055117
21
-5.0161042913385829
0
LINE
8
BLACK
6
CONTINUOUS
10
5.7786977559055117
20
-5.0161042913385829
11
5.7790084645669291
21
-5.0159755905511814
0
LINE
8
BLACK
6
CONTINUOUS
10
5.7790084645669291
20
-5.0159755905511814
11
5.7790085039370078
21
-5.0159755905511814
0
LINE
8
BLACK
6
CONTINUOUS
10
5.7790085039370078
20
-5.0159755905511814
11
5.7800626377952753
21
-5.0164122440944885
0
LINE
8
BLACK
6
CONTINUOUS
10
5.8070158267716536
20
-4.9795685039370081
11
5.8071226377952758
21
-4.9810713385826775
0
LINE
8
BLACK
6
CONTINUOUS
10
5.8071226377952758
20
-4.9810713385826775
11
5.7986124803149606
21
-5.0066017716535436
0
LINE
8
BLACK
6
CONTINUOUS
10
5.7986124803149606
20
-5.0066017716535436
11
5.8126604724409452
21
-5.0066017716535436
0
LINE
8
BLACK
6
CONTINUOUS
10
5.8126604724409452
20
-5.0066017716535436
11
5.8126604724409452
21
-4.9954469291338581
0
LINE
8
BLACK
6
CONTINUOUS
10
5.8126604724409452
20
-4.9954469291338581
11
5.813237047244094
21
-4.9940549999999995
0
LINE
8
BLACK
6
CONTINUOUS
10
5.813237047244094
20
-4.9940549999999995
11
5.8146289763779526
21
-4.9934784251968507
0
LINE
8
BLACK
6
CONTINUOUS
10
5.8146289763779526
20
-4.9934784251968507
11
5.8160209055118113
21
-4.9940549999999995
0
LINE
8
BLACK
6
CONTINUOUS
10
5.8160209055118113
20
-4.9940549999999995
11
5.8165974803149609
21
-4.9954469291338581
0
LINE
8
BLACK
6
CONTINUOUS
10
5.8165974803149609
20
-4.9954469291338581
11
5.8165974803149609
21
-5.0066017716535436
0
LINE
8
BLACK
6
CONTINUOUS
10
5.8165974803149609
20
-5.0066017716535436
11
5.8202532677165353
21
-5.0066017716535436
0
LINE
8
BLACK
6
CONTINUOUS
10
5.8202532677165353
20
-5.0066017716535436
11
5.8216451968503939
21
-5.0071783464566932
0
LINE
8
BLACK
6
CONTINUOUS
10
5.8216451968503939
20
-5.0071783464566932
11
5.8222217716535436
21
-5.008570275590551
0
LINE
8
BLACK
6
CONTINUOUS
10
5.8222217716535436
20
-5.008570275590551
11
5.8216451968503939
21
-5.0099622047244097
0
LINE
8
BLACK
6
CONTINUOUS
10
5.8216451968503939
20
-5.0099622047244097
11
5.8202532677165353
21
-5.0105387795275593
0
LINE
8
BLACK
6
CONTINUOUS
10
5.8202532677165353
20
-5.0105387795275593
11
5.8165974803149609
21
-5.0105387795275593
0
LINE
8
BLACK
6
CONTINUOUS
10
5.8165974803149609
20
-5.0105387795275593
11
5.8165974803149609
21
-5.0216936614173227
0
LINE
8
BLACK
6
CONTINUOUS
10
5.8165974803149609
20
-5.0216936614173227
11
5.8160209055118113
21
-5.0230855905511813
0
LINE
8
BLACK
6
CONTINUOUS
10
5.8160209055118113
20
-5.0230855905511813
11
5.8146289763779526
21
-5.023662165354331
0
LINE
8
BLACK
6
CONTINUOUS
10
5.8146289763779526
20
-5.023662165354331
11
5.813237047244094
21
-5.0230855905511813
0
LINE
8
BLACK
6
CONTINUOUS
10
5.813237047244094
20
-5.0230855905511813
11
5.8126604724409452
21
-5.0216936614173227
0
LINE
8
BLACK
6
CONTINUOUS
10
5.8126604724409452
20
-5.0216936614173227
11
5.8126604724409452
21
-5.0105387795275593
0
LINE
8
BLACK
6
CONTINUOUS
10
5.8126604724409452
20
-5.0105387795275593
11
5.7958813385826771
21
-5.0105387795275593
0
LINE
8
BLACK
6
CONTINUOUS
10
5.7958813385826771
20
-5.0105387795275593
11
5.7955819685039369
21
-5.0104147637795275
0
LINE
8
BLACK
6
CONTINUOUS
10
5.7955819685039369
20
-5.0104147637795275
11
5.795258858267716
21
-5.010437755905512
0
LINE
8
BLACK
6
CONTINUOUS
10
5.795258858267716
20
-5.010437755905512
11
5.7949127165354328
21
-5.0101375196850393
0
LINE
8
BLACK
6
CONTINUOUS
10
5.7949127165354328
20
-5.0101375196850393
11
5.7944894094488184
21
-5.0099622047244097
0
LINE
8
BLACK
6
CONTINUOUS
10
5.7944894094488184
20
-5.0099622047244097
11
5.7943653937007875
21
-5.0096628346456695
0
LINE
8
BLACK
6
CONTINUOUS
10
5.7943653937007875
20
-5.0096628346456695
11
5.7941206692913383
21
-5.0094505905511806
0
LINE
8
BLACK
6
CONTINUOUS
10
5.7941206692913383
20
-5.0094505905511806
11
5.794088188976378
21
-5.0089935826771654
0
LINE
8
BLACK
6
CONTINUOUS
10
5.794088188976378
20
-5.0089935826771654
11
5.7939128346456688
21
-5.008570275590551
0
LINE
8
BLACK
6
CONTINUOUS
10
5.7939128346456688
20
-5.008570275590551
11
5.7940368110236218
21
-5.0082709055118109
0
LINE
8
BLACK
6
CONTINUOUS
10
5.7940368110236218
20
-5.0082709055118109
11
5.7940138582677161
21
-5.0079477952755909
0
LINE
8
BLACK
6
CONTINUOUS
10
5.7940138582677161
20
-5.0079477952755909
11
5.8033876771653539
21
-4.9798263385826766
0
LINE
8
BLACK
6
CONTINUOUS
10
5.8033876771653539
20
-4.9798263385826766
11
5.8043748031496065
21
-4.9786881889763777
0
LINE
8
BLACK
6
CONTINUOUS
10
5.8043748031496065
20
-4.9786881889763777
11
5.8058776377952759
21
-4.9785813385826767
0
LINE
8
BLACK
6
CONTINUOUS
10
5.8058776377952759
20
-4.9785813385826767
11
5.8070158267716536
21
-4.9795685039370081
0
LINE
8
BLACK
6
CONTINUOUS
10
5.8445111417322835
20
-4.9795685039370081
11
5.8446179527559057
21
-4.9810713385826775
0
LINE
8
BLACK
6
CONTINUOUS
10
5.8446179527559057
20
-4.9810713385826775
11
5.8361077952755904
21
-5.0066017716535436
0
LINE
8
BLACK
6
CONTINUOUS
10
5.8361077952755904
20
-5.0066017716535436
11
5.850155787401575
21
-5.0066017716535436
0
LINE
8
BLACK
6
CONTINUOUS
10
5.850155787401575
20
-5.0066017716535436
11
5.850155787401575
21
-4.9954469291338581
0
LINE
8
BLACK
6
CONTINUOUS
10
5.850155787401575
20
-4.9954469291338581
11
5.8507323622047247
21
-4.9940549999999995
0
LINE
8
BLACK
6
CONTINUOUS
10
5.8507323622047247
20
-4.9940549999999995
11
5.8521242913385825
21
-4.9934784251968507
0
LINE
8
BLACK
6
CONTINUOUS
10
5.8521242913385825
20
-4.9934784251968507
11
5.8535162204724411
21
-4.9940549999999995
0
LINE
8
BLACK
6
CONTINUOUS
10
5.8535162204724411
20
-4.9940549999999995
11
5.8540927952755908
21
-4.9954469291338581
0
LINE
8
BLACK
6
CONTINUOUS
10
5.8540927952755908
20
-4.9954469291338581
11
5.8540927952755908
21
-5.0066017716535436
0
LINE
8
BLACK
6
CONTINUOUS
10
5.8540927952755908
20
-5.0066017716535436
11
5.8577485826771651
21
-5.0066017716535436
0
LINE
8
BLACK
6
CONTINUOUS
10
5.8577485826771651
20
-5.0066017716535436
11
5.8591405118110238
21
-5.0071783464566932
0
LINE
8
BLACK
6
CONTINUOUS
10
5.8591405118110238
20
-5.0071783464566932
11
5.8597170866141735
21
-5.008570275590551
0
LINE
8
BLACK
6
CONTINUOUS
10
5.8597170866141735
20
-5.008570275590551
11
5.8591405118110238
21
-5.0099622047244097
0
LINE
8
BLACK
6
CONTINUOUS
10
5.8591405118110238
20
-5.0099622047244097
11
5.8577485826771651
21
-5.0105387795275593
0
LINE
8
BLACK
6
CONTINUOUS
10
5.8577485826771651
20
-5.0105387795275593
11
5.8540927952755908
21
-5.0105387795275593
0
LINE
8
BLACK
6
CONTINUOUS
10
5.8540927952755908
20
-5.0105387795275593
11
5.8540927952755908
21
-5.0216936614173227
0
LINE
8
BLACK
6
CONTINUOUS
10
5.8540927952755908
20
-5.0216936614173227
11
5.8535162204724411
21
-5.0230855905511813
0
LINE
8
BLACK
6
CONTINUOUS
10
5.8535162204724411
20
-5.0230855905511813
11
5.8521242913385825
21
-5.023662165354331
0
LINE
8
BLACK
6
CONTINUOUS
10
5.8521242913385825
20
-5.023662165354331
11
5.8507323622047247
21
-5.0230855905511813
0
LINE
8
BLACK
6
CONTINUOUS
10
5.8507323622047247
20
-5.0230855905511813
11
5.850155787401575
21
-5.0216936614173227
0
LINE
8
BLACK
6
CONTINUOUS
10
5.850155787401575
20
-5.0216936614173227
11
5.850155787401575
21
-5.0105387795275593
0
LINE
8
BLACK
6
CONTINUOUS
10
5.850155787401575
20
-5.0105387795275593
11
5.8333766535433069
21
-5.0105387795275593
0
LINE
8
BLACK
6
CONTINUOUS
10
5.8333766535433069
20
-5.0105387795275593
11
5.8330772834645668
21
-5.0104147637795275
0
LINE
8
BLACK
6
CONTINUOUS
10
5.8330772834645668
20
-5.0104147637795275
11
5.8327541732283459
21
-5.010437755905512
0
LINE
8
BLACK
6
CONTINUOUS
10
5.8327541732283459
20
-5.010437755905512
11
5.8324080314960627
21
-5.0101375196850393
0
LINE
8
BLACK
6
CONTINUOUS
10
5.8324080314960627
20
-5.0101375196850393
11
5.8319847244094483
21
-5.0099622047244097
0
LINE
8
BLACK
6
CONTINUOUS
10
5.8319847244094483
20
-5.0099622047244097
11
5.8318607086614174
21
-5.0096628346456695
0
LINE
8
BLACK
6
CONTINUOUS
10
5.8318607086614174
20
-5.0096628346456695
11
5.8316159842519681
21
-5.0094505905511806
0
LINE
8
BLACK
6
CONTINUOUS
10
5.8316159842519681
20
-5.0094505905511806
11
5.8315835039370079
21
-5.0089935826771654
0
LINE
8
BLACK
6
CONTINUOUS
10
5.8315835039370079
20
-5.0089935826771654
11
5.8314081496062995
21
-5.008570275590551
0
LINE
8
BLACK
6
CONTINUOUS
10
5.8314081496062995
20
-5.008570275590551
11
5.8315321259842516
21
-5.0082709055118109
0
LINE
8
BLACK
6
CONTINUOUS
10
5.8315321259842516
20
-5.0082709055118109
11
5.8315091732283459
21
-5.0079477952755909
0
LINE
8
BLACK
6
CONTINUOUS
10
5.8315091732283459
20
-5.0079477952755909
11
5.8408829921259837
21
-4.9798263385826766
0
LINE
8
BLACK
6
CONTINUOUS
10
5.8408829921259837
20
-4.9798263385826766
11
5.8418701181102364
21
-4.9786881889763777
0
LINE
8
BLACK
6
CONTINUOUS
10
5.8418701181102364
20
-4.9786881889763777
11
5.8433729527559057
21
-4.9785813385826767
0
LINE
8
BLACK
6
CONTINUOUS
10
5.8433729527559057
20
-4.9785813385826767
11
5.8445111417322835
21
-4.9795685039370081
0
LINE
8
BLACK
6
CONTINUOUS
10
5.9144148818897637
20
-4.9936537401574803
11
5.9148719291338585
21
-4.9936862598425193
0
LINE
8
BLACK
6
CONTINUOUS
10
5.9148719291338585
20
-4.9936862598425193
11
5.9186214173228349
21
-4.9955609842519682
0
LINE
8
BLACK
6
CONTINUOUS
10
5.9186214173228349
20
-4.9955609842519682
11
5.9190302362204719
21
-4.9960323622047245
0
LINE
8
BLACK
6
CONTINUOUS
10
5.9190302362204719
20
-4.9960323622047245
11
5.9195017716535432
21
-4.9964413385826774
0
LINE
8
BLACK
6
CONTINUOUS
10
5.9195017716535432
20
-4.9964413385826774
11
5.9196158267716532
21
-4.9966694881889762
0
LINE
8
BLACK
6
CONTINUOUS
10
5.9196158267716532
20
-4.9966694881889762
11
5.919729921259842
21
-4.9964413779527561
0
LINE
8
BLACK
6
CONTINUOUS
10
5.919729921259842
20
-4.9964413779527561
11
5.9202012992125983
21
-4.9960325196850395
0
LINE
8
BLACK
6
CONTINUOUS
10
5.9202012992125983
20
-4.9960325196850395
11
5.9206102755905512
21
-4.9955610236220469
0
LINE
8
BLACK
6
CONTINUOUS
10
5.9206102755905512
20
-4.9955610236220469
11
5.9243598031496063
21
-4.9936862598425193
0
LINE
8
BLACK
6
CONTINUOUS
10
5.9243598031496063
20
-4.9936862598425193
11
5.9248168110236223
21
-4.9936537401574803
0
LINE
8
BLACK
6
CONTINUOUS
10
5.9248168110236223
20
-4.9936537401574803
11
5.9252401574803146
21
-4.9934784251968507
0
LINE
8
BLACK
6
CONTINUOUS
10
5.9252401574803146
20
-4.9934784251968507
11
5.9308644488188973
21
-4.9934784251968507
0
LINE
8
BLACK
6
CONTINUOUS
10
5.9308644488188973
20
-4.9934784251968507
11
5.9312877559055117
21
-4.9936537795275591
0
LINE
8
BLACK
6
CONTINUOUS
10
5.9312877559055117
20
-4.9936537795275591
11
5.9317447637795278
21
-4.9936862598425193
0
LINE
8
BLACK
6
CONTINUOUS
10
5.9317447637795278
20
-4.9936862598425193
11
5.9354943307086616
21
-4.9955609842519682
0
LINE
8
BLACK
6
CONTINUOUS
10
5.9354943307086616
20
-4.9955609842519682
11
5.9359031889763783
21
-4.996032440944882
0
LINE
8
BLACK
6
CONTINUOUS
10
5.9359031889763783
20
-4.996032440944882
11
5.9363746850393699
21
-4.9964413385826774
0
LINE
8
BLACK
6
CONTINUOUS
10
5.9363746850393699
20
-4.9964413385826774
11
5.9382494488188975
21
-5.0001908661417325
0
LINE
8
BLACK
6
CONTINUOUS
10
5.9382494488188975
20
-5.0001908661417325
11
5.9382819291338578
21
-5.0006478740157476
0
LINE
8
BLACK
6
CONTINUOUS
10
5.9382819291338578
20
-5.0006478740157476
11
5.938457283464567
21
-5.0010712204724408
0
LINE
8
BLACK
6
CONTINUOUS
10
5.938457283464567
20
-5.0010712204724408
11
5.938457283464567
21
-5.0216936614173227
0
LINE
8
BLACK
6
CONTINUOUS
10
5.938457283464567
20
-5.0216936614173227
11
5.9378807086614174
21
-5.0230855905511813
0
LINE
8
BLACK
6
CONTINUOUS
10
5.9378807086614174
20
-5.0230855905511813
11
5.9364887795275587
21
-5.023662165354331
0
LINE
8
BLACK
6
CONTINUOUS
10
5.9364887795275587
20
-5.023662165354331
11
5.9350968503937009
21
-5.0230855905511813
0
LINE
8
BLACK
6
CONTINUOUS
10
5.9350968503937009
20
-5.0230855905511813
11
5.9345202755905513
21
-5.0216936614173227
0
LINE
8
BLACK
6
CONTINUOUS
10
5.9345202755905513
20
-5.0216936614173227
11
5.9345202755905513
21
-5.0015359055118109
0
LINE
8
BLACK
6
CONTINUOUS
10
5.9345202755905513
20
-5.0015359055118109
11
5.9331467716535435
21
-4.9987888976377954
0
LINE
8
BLACK
6
CONTINUOUS
10
5.9331467716535435
20
-4.9987888976377954
11
5.9303998031496059
21
-4.9974154330708664
0
LINE
8
BLACK
6
CONTINUOUS
10
5.9303998031496059
20
-4.9974154330708664
11
5.9257048818897635
21
-4.9974154330708664
0
LINE
8
BLACK
6
CONTINUOUS
10
5.9257048818897635
20
-4.9974154330708664
11
5.9229578346456693
21
-4.9987888976377954
0
LINE
8
BLACK
6
CONTINUOUS
10
5.9229578346456693
20
-4.9987888976377954
11
5.9215843700787403
21
-5.0015359055118109
0
LINE
8
BLACK
6
CONTINUOUS
10
5.9215843700787403
20
-5.0015359055118109
11
5.9215843700787403
21
-5.0216936614173227
0
LINE
8
BLACK
6
CONTINUOUS
10
5.9215843700787403
20
-5.0216936614173227
11
5.9210077952755906
21
-5.0230855905511813
0
LINE
8
BLACK
6
CONTINUOUS
10
5.9210077952755906
20
-5.0230855905511813
11
5.919615866141732
21
-5.023662165354331
0
LINE
8
BLACK
6
CONTINUOUS
10
5.919615866141732
20
-5.023662165354331
11
5.9182239370078742
21
-5.0230855905511813
0
LINE
8
BLACK
6
CONTINUOUS
10
5.9182239370078742
20
-5.0230855905511813
11
5.9176473622047245
21
-5.0216936614173227
0
LINE
8
BLACK
6
CONTINUOUS
10
5.9176473622047245
20
-5.0216936614173227
11
5.9176473622047245
21
-5.0015359055118109
0
LINE
8
BLACK
6
CONTINUOUS
10
5.9176473622047245
20
-5.0015359055118109
11
5.9162738582677168
21
-4.9987888976377954
0
LINE
8
BLACK
6
CONTINUOUS
10
5.9162738582677168
20
-4.9987888976377954
11
5.9135268897637792
21
-4.9974154330708664
0
LINE
8
BLACK
6
CONTINUOUS
10
5.9135268897637792
20
-4.9974154330708664
11
5.9088320078740155
21
-4.9974154330708664
0
LINE
8
BLACK
6
CONTINUOUS
10
5.9088320078740155
20
-4.9974154330708664
11
5.9057838188976373
21
-4.9989394881889764
0
LINE
8
BLACK
6
CONTINUOUS
10
5.9057838188976373
20
-4.9989394881889764
11
5.9047114960629923
21
-5.0000118110236222
0
LINE
8
BLACK
6
CONTINUOUS
10
5.9047114960629923
20
-5.0000118110236222
11
5.9047114960629923
21
-5.0216936614173227
0
LINE
8
BLACK
6
CONTINUOUS
10
5.9047114960629923
20
-5.0216936614173227
11
5.9041349212598426
21
-5.0230855905511813
0
LINE
8
BLACK
6
CONTINUOUS
10
5.9041349212598426
20
-5.0230855905511813
11
5.902742992125984
21
-5.023662165354331
0
LINE
8
BLACK
6
CONTINUOUS
10
5.902742992125984
20
-5.023662165354331
11
5.9013510629921262
21
-5.0230855905511813
0
LINE
8
BLACK
6
CONTINUOUS
10
5.9013510629921262
20
-5.0230855905511813
11
5.9007744881889765
21
-5.0216936614173227
0
LINE
8
BLACK
6
CONTINUOUS
10
5.9007744881889765
20
-5.0216936614173227
11
5.9007744881889765
21
-4.9954469291338581
0
LINE
8
BLACK
6
CONTINUOUS
10
5.9007744881889765
20
-4.9954469291338581
11
5.9013510629921262
21
-4.9940549999999995
0
LINE
8
BLACK
6
CONTINUOUS
10
5.9013510629921262
20
-4.9940549999999995
11
5.902742992125984
21
-4.9934784251968507
0
LINE
8
BLACK
6
CONTINUOUS
10
5.902742992125984
20
-4.9934784251968507
11
5.9041349212598426
21
-4.9940549999999995
0
LINE
8
BLACK
6
CONTINUOUS
10
5.9041349212598426
20
-4.9940549999999995
11
5.9045835039370074
21
-4.995137952755905
0
LINE
8
BLACK
6
CONTINUOUS
10
5.9045835039370074
20
-4.995137952755905
11
5.9074869291338583
21
-4.9936862598425193
0
LINE
8
BLACK
6
CONTINUOUS
10
5.9074869291338583
20
-4.9936862598425193
11
5.9079439370078735
21
-4.9936537401574803
0
LINE
8
BLACK
6
CONTINUOUS
10
5.9079439370078735
20
-4.9936537401574803
11
5.9083672834645666
21
-4.9934784251968507
0
LINE
8
BLACK
6
CONTINUOUS
10
5.9083672834645666
20
-4.9934784251968507
11
5.9139915748031493
21
-4.9934784251968507
0
LINE
8
BLACK
6
CONTINUOUS
10
5.9139915748031493
20
-4.9934784251968507
11
5.9144148818897637
21
-4.9936537401574803
0
LINE
8
BLACK
6
CONTINUOUS
10
5.966908307086614
20
-4.9936537401574803
11
5.9673653543307088
21
-4.9936862598425193
0
LINE
8
BLACK
6
CONTINUOUS
10
5.9673653543307088
20
-4.9936862598425193
11
5.9711148425196852
21
-4.9955609842519682
0
LINE
8
BLACK
6
CONTINUOUS
10
5.9711148425196852
20
-4.9955609842519682
11
5.971523661417323
21
-4.9960323622047245
0
LINE
8
BLACK
6
CONTINUOUS
10
5.971523661417323
20
-4.9960323622047245
11
5.9719951968503935
21
-4.9964413385826774
0
LINE
8
BLACK
6
CONTINUOUS
10
5.9719951968503935
20
-4.9964413385826774
11
5.9721092519685035
21
-4.9966694881889762
0
LINE
8
BLACK
6
CONTINUOUS
10
5.9721092519685035
20
-4.9966694881889762
11
5.9722233464566932
21
-4.9964413779527561
0
LINE
8
BLACK
6
CONTINUOUS
10
5.9722233464566932
20
-4.9964413779527561
11
5.9726947244094486
21
-4.9960325196850395
0
LINE
8
BLACK
6
CONTINUOUS
10
5.9726947244094486
20
-4.9960325196850395
11
5.9731037007874015
21
-4.9955610236220469
0
LINE
8
BLACK
6
CONTINUOUS
10
5.9731037007874015
20
-4.9955610236220469
11
5.9768532283464566
21
-4.9936862598425193
0
LINE
8
BLACK
6
CONTINUOUS
10
5.9768532283464566
20
-4.9936862598425193
11
5.9773102362204726
21
-4.9936537401574803
0
LINE
8
BLACK
6
CONTINUOUS
10
5.9773102362204726
20
-4.9936537401574803
11
5.9777335826771649
21
-4.9934784251968507
0
LINE
8
BLACK
6
CONTINUOUS
10
5.9777335826771649
20
-4.9934784251968507
11
5.9833578740157476
21
-4.9934784251968507
0
LINE
8
BLACK
6
CONTINUOUS
10
5.9833578740157476
20
-4.9934784251968507
11
5.983781181102362
21
-4.9936537795275591
0
LINE
8
BLACK
6
CONTINUOUS
10
5.983781181102362
20
-4.9936537795275591
11
5.984238188976378
21
-4.9936862598425193
0
LINE
8
BLACK
6
CONTINUOUS
10
5.984238188976378
20
-4.9936862598425193
11
5.9879877559055119
21
-4.9955609842519682
0
LINE
8
BLACK
6
CONTINUOUS
10
5.9879877559055119
20
-4.9955609842519682
11
5.9883966141732285
21
-4.996032440944882
0
LINE
8
BLACK
6
CONTINUOUS
10
5.9883966141732285
20
-4.996032440944882
11
5.9888681102362202
21
-4.9964413385826774
0
LINE
8
BLACK
6
CONTINUOUS
10
5.9888681102362202
20
-4.9964413385826774
11
5.9907428740157478
21
-5.0001908661417325
0
LINE
8
BLACK
6
CONTINUOUS
10
5.9907428740157478
20
-5.0001908661417325
11
5.990775354330709
21
-5.0006478740157476
0
LINE
8
BLACK
6
CONTINUOUS
10
5.990775354330709
20
-5.0006478740157476
11
5.9909507086614173
21
-5.0010712204724408
0
LINE
8
BLACK
6
CONTINUOUS
10
5.9909507086614173
20
-5.0010712204724408
11
5.9909507086614173
21
-5.0216936614173227
0
LINE
8
BLACK
6
CONTINUOUS
10
5.9909507086614173
20
-5.0216936614173227
11
5.9903741338582677
21
-5.0230855905511813
0
LINE
8
BLACK
6
CONTINUOUS
10
5.9903741338582677
20
-5.0230855905511813
11
5.988982204724409
21
-5.023662165354331
0
LINE
8
BLACK
6
CONTINUOUS
10
5.988982204724409
20
-5.023662165354331
11
5.9875902755905512
21
-5.0230855905511813
0
LINE
8
BLACK
6
CONTINUOUS
10
5.9875902755905512
20
-5.0230855905511813
11
5.9870137007874016
21
-5.0216936614173227
0
LINE
8
BLACK
6
CONTINUOUS
10
5.9870137007874016
20
-5.0216936614173227
11
5.9870137007874016
21
-5.0015359055118109
0
LINE
8
BLACK
6
CONTINUOUS
10
5.9870137007874016
20
-5.0015359055118109
11
5.9856401968503938
21
-4.9987888976377954
0
LINE
8
BLACK
6
CONTINUOUS
10
5.9856401968503938
20
-4.9987888976377954
11
5.9828932283464562
21
-4.9974154330708664
0
LINE
8
BLACK
6
CONTINUOUS
10
5.9828932283464562
20
-4.9974154330708664
11
5.9781983070866138
21
-4.9974154330708664
0
LINE
8
BLACK
6
CONTINUOUS
10
5.9781983070866138
20
-4.9974154330708664
11
5.9754512598425196
21
-4.9987888976377954
0
LINE
8
BLACK
6
CONTINUOUS
10
5.9754512598425196
20
-4.9987888976377954
11
5.9740777952755906
21
-5.0015359055118109
0
LINE
8
BLACK
6
CONTINUOUS
10
5.9740777952755906
20
-5.0015359055118109
11
5.9740777952755906
21
-5.0216936614173227
0
LINE
8
BLACK
6
CONTINUOUS
10
5.9740777952755906
20
-5.0216936614173227
11
5.9735012204724409
21
-5.0230855905511813
0
LINE
8
BLACK
6
CONTINUOUS
10
5.9735012204724409
20
-5.0230855905511813
11
5.9721092913385823
21
-5.023662165354331
0
LINE
8
BLACK
6
CONTINUOUS
10
5.9721092913385823
20
-5.023662165354331
11
5.9707173622047245
21
-5.0230855905511813
0
LINE
8
BLACK
6
CONTINUOUS
10
5.9707173622047245
20
-5.0230855905511813
11
5.9701407874015748
21
-5.0216936614173227
0
LINE
8
BLACK
6
CONTINUOUS
10
5.9701407874015748
20
-5.0216936614173227
11
5.9701407874015748
21
-5.0015359055118109
0
LINE
8
BLACK
6
CONTINUOUS
10
5.9701407874015748
20
-5.0015359055118109
11
5.9687672834645671
21
-4.9987888976377954
0
LINE
8
BLACK
6
CONTINUOUS
10
5.9687672834645671
20
-4.9987888976377954
11
5.9660203149606295
21
-4.9974154330708664
0
LINE
8
BLACK
6
CONTINUOUS
10
5.9660203149606295
20
-4.9974154330708664
11
5.9613254330708658
21
-4.9974154330708664
0
LINE
8
BLACK
6
CONTINUOUS
10
5.9613254330708658
20
-4.9974154330708664
11
5.9582772440944884
21
-4.9989394881889764
0
LINE
8
BLACK
6
CONTINUOUS
10
5.9582772440944884
20
-4.9989394881889764
11
5.9572049212598426
21
-5.0000118110236222
0
LINE
8
BLACK
6
CONTINUOUS
10
5.9572049212598426
20
-5.0000118110236222
11
5.9572049212598426
21
-5.0216936614173227
0
LINE
8
BLACK
6
CONTINUOUS
10
5.9572049212598426
20
-5.0216936614173227
11
5.9566283464566929
21
-5.0230855905511813
0
LINE
8
BLACK
6
CONTINUOUS
10
5.9566283464566929
20
-5.0230855905511813
11
5.9552364173228343
21
-5.023662165354331
0
LINE
8
BLACK
6
CONTINUOUS
10
5.9552364173228343
20
-5.023662165354331
11
5.9538444881889765
21
-5.0230855905511813
0
LINE
8
BLACK
6
CONTINUOUS
10
5.9538444881889765
20
-5.0230855905511813
11
5.9532679133858268
21
-5.0216936614173227
0
LINE
8
BLACK
6
CONTINUOUS
10
5.9532679133858268
20
-5.0216936614173227
11
5.9532679133858268
21
-4.9954469291338581
0
LINE
8
BLACK
6
CONTINUOUS
10
5.9532679133858268
20
-4.9954469291338581
11
5.9538444881889765
21
-4.9940549999999995
0
LINE
8
BLACK
6
CONTINUOUS
10
5.9538444881889765
20
-4.9940549999999995
11
5.9552364173228343
21
-4.9934784251968507
0
LINE
8
BLACK
6
CONTINUOUS
10
5.9552364173228343
20
-4.9934784251968507
11
5.9566283464566929
21
-4.9940549999999995
0
LINE
8
BLACK
6
CONTINUOUS
10
5.9566283464566929
20
-4.9940549999999995
11
5.9570769291338586
21
-4.995137952755905
0
LINE
8
BLACK
6
CONTINUOUS
10
5.9570769291338586
20
-4.995137952755905
11
5.9599803543307086
21
-4.9936862598425193
0
LINE
8
BLACK
6
CONTINUOUS
10
5.9599803543307086
20
-4.9936862598425193
11
5.9604373622047246
21
-4.9936537401574803
0
LINE
8
BLACK
6
CONTINUOUS
10
5.9604373622047246
20
-4.9936537401574803
11
5.9608607086614169
21
-4.9934784251968507
0
LINE
8
BLACK
6
CONTINUOUS
10
5.9608607086614169
20
-4.9934784251968507
11
5.9664849999999996
21
-4.9934784251968507
0
LINE
8
BLACK
6
CONTINUOUS
10
5.9664849999999996
20
-4.9934784251968507
11
5.966908307086614
21
-4.9936537401574803
0
LINE
8
BLACK
6
CONTINUOUS
10
6.8802674803149602
20
-4.2587909448818895
11
6.8807245275590549
21
-4.2588234645669294
0
LINE
8
BLACK
6
CONTINUOUS
10
6.8807245275590549
20
-4.2588234645669294
11
6.8844740157480313
21
-4.2606981889763782
0
LINE
8
BLACK
6
CONTINUOUS
10
6.8844740157480313
20
-4.2606981889763782
11
6.8846862598425194
21
-4.2609429133858265
0
LINE
8
BLACK
6
CONTINUOUS
10
6.8846862598425194
20
-4.2609429133858265
11
6.8849856299212595
21
-4.2610669291338583
0
LINE
8
BLACK
6
CONTINUOUS
10
6.8849856299212595
20
-4.2610669291338583
11
6.8868604330708658
21
-4.2629416929133859
0
LINE
8
BLACK
6
CONTINUOUS
10
6.8868604330708658
20
-4.2629416929133859
11
6.8869844094488188
21
-4.2632410236220473
0
LINE
8
BLACK
6
CONTINUOUS
10
6.8869844094488188
20
-4.2632410236220473
11
6.8872291732283459
21
-4.2634533070866141
0
LINE
8
BLACK
6
CONTINUOUS
10
6.8872291732283459
20
-4.2634533070866141
11
6.8891039370078735
21
-4.2672028346456692
0
LINE
8
BLACK
6
CONTINUOUS
10
6.8891039370078735
20
-4.2672028346456692
11
6.8891364173228347
21
-4.2676598425196852
0
LINE
8
BLACK
6
CONTINUOUS
10
6.8891364173228347
20
-4.2676598425196852
11
6.889311771653543
21
-4.2680831889763775
0
LINE
8
BLACK
6
CONTINUOUS
10
6.889311771653543
20
-4.2680831889763775
11
6.889311771653543
21
-4.2793317716535428
0
LINE
8
BLACK
6
CONTINUOUS
10
6.889311771653543
20
-4.2793317716535428
11
6.8891364173228347
21
-4.2797550787401573
0
LINE
8
BLACK
6
CONTINUOUS
10
6.8891364173228347
20
-4.2797550787401573
11
6.8891039370078735
21
-4.280212125984252
0
LINE
8
BLACK
6
CONTINUOUS
10
6.8891039370078735
20
-4.280212125984252
11
6.8872291732283459
21
-4.2839616535433072
0
LINE
8
BLACK
6
CONTINUOUS
10
6.8872291732283459
20
-4.2839616535433072
11
6.8869844094488188
21
-4.2841738976377952
0
LINE
8
BLACK
6
CONTINUOUS
10
6.8869844094488188
20
-4.2841738976377952
11
6.8868604330708658
21
-4.2844732677165354
0
LINE
8
BLACK
6
CONTINUOUS
10
6.8868604330708658
20
-4.2844732677165354
11
6.8849856299212595
21
-4.2863480314960629
0
LINE
8
BLACK
6
CONTINUOUS
10
6.8849856299212595
20
-4.2863480314960629
11
6.883593661417323
21
-4.2869245669291338
0
LINE
8
BLACK
6
CONTINUOUS
10
6.883593661417323
20
-4.2869245669291338
11
6.8822017322834643
21
-4.2863479921259842
0
LINE
8
BLACK
6
CONTINUOUS
10
6.8822017322834643
20
-4.2863479921259842
11
6.8816251968503934
21
-4.2849560236220468
0
LINE
8
BLACK
6
CONTINUOUS
10
6.8816251968503934
20
-4.2849560236220468
11
6.8822017716535431
21
-4.283564094488189
0
LINE
8
BLACK
6
CONTINUOUS
10
6.8822017716535431
20
-4.283564094488189
11
6.8838507086614174
21
-4.2819151574803147
0
LINE
8
BLACK
6
CONTINUOUS
10
6.8838507086614174
20
-4.2819151574803147
11
6.8853747637795273
21
-4.2788670472440948
0
LINE
8
BLACK
6
CONTINUOUS
10
6.8853747637795273
20
-4.2788670472440948
11
6.8853747637795273
21
-4.2685478740157476
0
LINE
8
BLACK
6
CONTINUOUS
10
6.8853747637795273
20
-4.2685478740157476
11
6.8838507086614174
21
-4.2654997637795278
0
LINE
8
BLACK
6
CONTINUOUS
10
6.8838507086614174
20
-4.2654997637795278
11
6.8824275984251964
21
-4.2640766929133855
0
LINE
8
BLACK
6
CONTINUOUS
10
6.8824275984251964
20
-4.2640766929133855
11
6.8793794881889765
21
-4.2625526377952756
0
LINE
8
BLACK
6
CONTINUOUS
10
6.8793794881889765
20
-4.2625526377952756
11
6.8709350787401577
21
-4.2625526377952756
0
LINE
8
BLACK
6
CONTINUOUS
10
6.8709350787401577
20
-4.2625526377952756
11
6.8678868897637795
21
-4.2640766929133855
0
LINE
8
BLACK
6
CONTINUOUS
10
6.8678868897637795
20
-4.2640766929133855
11
6.866463858267716
21
-4.2654996850393703
0
LINE
8
BLACK
6
CONTINUOUS
10
6.866463858267716
20
-4.2654996850393703
11
6.8649398031496061
21
-4.2685478740157476
0
LINE
8
BLACK
6
CONTINUOUS
10
6.8649398031496061
20
-4.2685478740157476
11
6.8649398031496061
21
-4.2737074803149602
0
LINE
8
BLACK
6
CONTINUOUS
10
6.8649398031496061
20
-4.2737074803149602
11
6.8646746850393701
21
-4.2743474015748033
0
LINE
8
BLACK
6
CONTINUOUS
10
6.8646746850393701
20
-4.2743474015748033
11
6.8644527559055115
21
-4.2750037401574801
0
LINE
8
BLACK
6
CONTINUOUS
10
6.8644527559055115
20
-4.2750037401574801
11
6.8643900000000002
21
-4.2750347637795274
0
LINE
8
BLACK
6
CONTINUOUS
10
6.8643900000000002
20
-4.2750347637795274
11
6.8643632283464564
21
-4.2750994094488188
0
LINE
8
BLACK
6
CONTINUOUS
10
6.8643632283464564
20
-4.2750994094488188
11
6.8637232283464567
21
-4.2753644881889761
0
LINE
8
BLACK
6
CONTINUOUS
10
6.8637232283464567
20
-4.2753644881889761
11
6.8631022440944882
21
-4.2756716141732278
0
LINE
8
BLACK
6
CONTINUOUS
10
6.8631022440944882
20
-4.2756716141732278
11
6.8630359448818892
21
-4.2756491732283459
0
LINE
8
BLACK
6
CONTINUOUS
10
6.8630359448818892
20
-4.2756491732283459
11
6.8629712992125986
21
-4.2756759842519685
0
LINE
8
BLACK
6
CONTINUOUS
10
6.8629712992125986
20
-4.2756759842519685
11
6.8623313385826767
21
-4.2754108661417325
0
LINE
8
BLACK
6
CONTINUOUS
10
6.8623313385826767
20
-4.2754108661417325
11
6.8616750393700787
21
-4.2751889370078739
0
LINE
8
BLACK
6
CONTINUOUS
10
6.8616750393700787
20
-4.2751889370078739
11
6.8499416929133856
21
-4.2649222440944881
0
LINE
8
BLACK
6
CONTINUOUS
10
6.8499416929133856
20
-4.2649222440944881
11
6.8499416929133856
21
-4.2849560629921255
0
LINE
8
BLACK
6
CONTINUOUS
10
6.8499416929133856
20
-4.2849560629921255
11
6.849365118110236
21
-4.2863479921259842
0
LINE
8
BLACK
6
CONTINUOUS
10
6.849365118110236
20
-4.2863479921259842
11
6.8479731889763782
21
-4.2869245669291338
0
LINE
8
BLACK
6
CONTINUOUS
10
6.8479731889763782
20
-4.2869245669291338
11
6.8465812598425195
21
-4.2863479921259842
0
LINE
8
BLACK
6
CONTINUOUS
10
6.8465812598425195
20
-4.2863479921259842
11
6.8460046850393699
21
-4.2849560629921255
0
LINE
8
BLACK
6
CONTINUOUS
10
6.8460046850393699
20
-4.2849560629921255
11
6.8460046850393699
21
-4.2605841338582673
0
LINE
8
BLACK
6
CONTINUOUS
10
6.8460046850393699
20
-4.2605841338582673
11
6.8462697637795271
21
-4.2599441732283463
0
LINE
8
BLACK
6
CONTINUOUS
10
6.8462697637795271
20
-4.2599441732283463
11
6.8464917322834644
21
-4.2592878740157483
0
LINE
8
BLACK
6
CONTINUOUS
10
6.8464917322834644
20
-4.2592878740157483
11
6.8465544488188979
21
-4.2592568110236222
0
LINE
8
BLACK
6
CONTINUOUS
10
6.8465544488188979
20
-4.2592568110236222
11
6.8465812598425195
21
-4.2591922047244095
0
LINE
8
BLACK
6
CONTINUOUS
10
6.8465812598425195
20
-4.2591922047244095
11
6.8472212204724405
21
-4.2589270866141735
0
LINE
8
BLACK
6
CONTINUOUS
10
6.8472212204724405
20
-4.2589270866141735
11
6.8478422440944877
21
-4.2586199999999996
0
LINE
8
BLACK
6
CONTINUOUS
10
6.8478422440944877
20
-4.2586199999999996
11
6.847908503937008
21
-4.2586424015748028
0
LINE
8
BLACK
6
CONTINUOUS
10
6.847908503937008
20
-4.2586424015748028
11
6.8479731889763782
21
-4.2586156299212599
0
LINE
8
BLACK
6
CONTINUOUS
10
6.8479731889763782
20
-4.2586156299212599
11
6.8486131102362204
21
-4.2588807086614171
0
LINE
8
BLACK
6
CONTINUOUS
10
6.8486131102362204
20
-4.2588807086614171
11
6.8492694488188972
21
-4.2591026771653544
0
LINE
8
BLACK
6
CONTINUOUS
10
6.8492694488188972
20
-4.2591026771653544
11
6.8610027952755903
21
-4.2693693307086615
0
LINE
8
BLACK
6
CONTINUOUS
10
6.8610027952755903
20
-4.2693693307086615
11
6.8610027952755903
21
-4.2680831889763775
0
LINE
8
BLACK
6
CONTINUOUS
10
6.8610027952755903
20
-4.2680831889763775
11
6.8611781102362199
21
-4.2676598425196852
0
LINE
8
BLACK
6
CONTINUOUS
10
6.8611781102362199
20
-4.2676598425196852
11
6.8612106299212599
21
-4.2672028346456692
0
LINE
8
BLACK
6
CONTINUOUS
10
6.8612106299212599
20
-4.2672028346456692
11
6.8630853543307087
21
-4.2634533464566928
0
LINE
8
BLACK
6
CONTINUOUS
10
6.8630853543307087
20
-4.2634533464566928
11
6.8633301181102357
21
-4.2632410236220473
0
LINE
8
BLACK
6
CONTINUOUS
10
6.8633301181102357
20
-4.2632410236220473
11
6.8634541338582675
21
-4.2629417322834646
0
LINE
8
BLACK
6
CONTINUOUS
10
6.8634541338582675
20
-4.2629417322834646
11
6.8653288582677163
21
-4.2610669685039371
0
LINE
8
BLACK
6
CONTINUOUS
10
6.8653288582677163
20
-4.2610669685039371
11
6.8656281889763777
21
-4.2609429527559053
0
LINE
8
BLACK
6
CONTINUOUS
10
6.8656281889763777
20
-4.2609429527559053
11
6.8658404724409445
21
-4.260698228346457
0
LINE
8
BLACK
6
CONTINUOUS
10
6.8658404724409445
20
-4.260698228346457
11
6.8695899999999996
21
-4.2588234645669294
0
LINE
8
BLACK
6
CONTINUOUS
10
6.8695899999999996
20
-4.2588234645669294
11
6.8700470078740157
21
-4.2587909448818895
0
LINE
8
BLACK
6
CONTINUOUS
10
6.8700470078740157
20
-4.2587909448818895
11
6.8704703543307089
21
-4.2586156299212599
0
LINE
8
BLACK
6
CONTINUOUS
10
6.8704703543307089
20
-4.2586156299212599
11
6.8798441732283466
21
-4.2586156299212599
0
LINE
8
BLACK
6
CONTINUOUS
10
6.8798441732283466
20
-4.2586156299212599
11
6.8802674803149602
21
-4.2587909448818895
0
LINE
8
BLACK
6
CONTINUOUS
10
6.8725756692913382
20
-4.2212158267716537
11
6.872822559055118
21
-4.2211790944881891
0
LINE
8
BLACK
6
CONTINUOUS
10
6.872822559055118
20
-4.2211790944881891
11
6.8803216141732282
21
-4.2230538582677166
0
LINE
8
BLACK
6
CONTINUOUS
10
6.8803216141732282
20
-4.2230538582677166
11
6.8805013385826772
21
-4.2231870472440942
0
LINE
8
BLACK
6
CONTINUOUS
10
6.8805013385826772
20
-4.2231870472440942
11
6.8807245275590549
21
-4.2232029133858271
0
LINE
8
BLACK
6
CONTINUOUS
10
6.8807245275590549
20
-4.2232029133858271
11
6.8844740157480313
21
-4.2250776377952759
0
LINE
8
BLACK
6
CONTINUOUS
10
6.8844740157480313
20
-4.2250776377952759
11
6.8846862598425194
21
-4.2253223622047242
0
LINE
8
BLACK
6
CONTINUOUS
10
6.8846862598425194
20
-4.2253223622047242
11
6.8849856299212595
21
-4.225446377952756
0
LINE
8
BLACK
6
CONTINUOUS
10
6.8849856299212595
20
-4.225446377952756
11
6.8868604330708658
21
-4.2273211417322836
0
LINE
8
BLACK
6
CONTINUOUS
10
6.8868604330708658
20
-4.2273211417322836
11
6.8869844094488188
21
-4.227620472440945
0
LINE
8
BLACK
6
CONTINUOUS
10
6.8869844094488188
20
-4.227620472440945
11
6.8872291732283459
21
-4.2278327559055118
0
LINE
8
BLACK
6
CONTINUOUS
10
6.8872291732283459
20
-4.2278327559055118
11
6.8891039370078735
21
-4.2315822834645669
0
LINE
8
BLACK
6
CONTINUOUS
10
6.8891039370078735
20
-4.2315822834645669
11
6.8891364173228347
21
-4.2320392913385829
0
LINE
8
BLACK
6
CONTINUOUS
10
6.8891364173228347
20
-4.2320392913385829
11
6.889311771653543
21
-4.2324626377952752
0
LINE
8
BLACK
6
CONTINUOUS
10
6.889311771653543
20
-4.2324626377952752
11
6.889311771653543
21
-4.2362121653543303
0
LINE
8
BLACK
6
CONTINUOUS
10
6.889311771653543
20
-4.2362121653543303
11
6.8891364173228347
21
-4.2366354724409447
0
LINE
8
BLACK
6
CONTINUOUS
10
6.8891364173228347
20
-4.2366354724409447
11
6.8891039370078735
21
-4.2370925196850395
0
LINE
8
BLACK
6
CONTINUOUS
10
6.8891039370078735
20
-4.2370925196850395
11
6.8872291732283459
21
-4.2408420472440946
0
LINE
8
BLACK
6
CONTINUOUS
10
6.8872291732283459
20
-4.2408420472440946
11
6.8869844094488188
21
-4.2410542913385827
0
LINE
8
BLACK
6
CONTINUOUS
10
6.8869844094488188
20
-4.2410542913385827
11
6.8868604330708658
21
-4.2413536614173228
0
LINE
8
BLACK
6
CONTINUOUS
10
6.8868604330708658
20
-4.2413536614173228
11
6.8849856299212595
21
-4.2432284251968504
0
LINE
8
BLACK
6
CONTINUOUS
10
6.8849856299212595
20
-4.2432284251968504
11
6.8846862598425194
21
-4.2433524015748034
0
LINE
8
BLACK
6
CONTINUOUS
10
6.8846862598425194
20
-4.2433524015748034
11
6.8844740157480313
21
-4.2435971653543305
0
LINE
8
BLACK
6
CONTINUOUS
10
6.8844740157480313
20
-4.2435971653543305
11
6.8807245275590549
21
-4.2454718897637793
0
LINE
8
BLACK
6
CONTINUOUS
10
6.8807245275590549
20
-4.2454718897637793
11
6.8805013385826772
21
-4.2454877165354326
0
LINE
8
BLACK
6
CONTINUOUS
10
6.8805013385826772
20
-4.2454877165354326
11
6.8803216141732282
21
-4.2456209448818898
0
LINE
8
BLACK
6
CONTINUOUS
10
6.8803216141732282
20
-4.2456209448818898
11
6.872822559055118
21
-4.2474957086614173
0
LINE
8
BLACK
6
CONTINUOUS
10
6.872822559055118
20
-4.2474957086614173
11
6.8725756692913382
21
-4.2474589370078739
0
LINE
8
BLACK
6
CONTINUOUS
10
6.8725756692913382
20
-4.2474589370078739
11
6.8723451181102364
21
-4.2475544881889764
0
LINE
8
BLACK
6
CONTINUOUS
10
6.8723451181102364
20
-4.2475544881889764
11
6.8629712992125986
21
-4.2475544881889764
0
LINE
8
BLACK
6
CONTINUOUS
10
6.8629712992125986
20
-4.2475544881889764
11
6.8627407086614172
21
-4.2474589370078739
0
LINE
8
BLACK
6
CONTINUOUS
10
6.8627407086614172
20
-4.2474589370078739
11
6.8624938582677162
21
-4.2474957086614173
0
LINE
8
BLACK
6
CONTINUOUS
10
6.8624938582677162
20
-4.2474957086614173
11
6.854994803149606
21
-4.2456209448818898
0
LINE
8
BLACK
6
CONTINUOUS
10
6.854994803149606
20
-4.2456209448818898
11
6.8548150393700782
21
-4.2454877165354326
0
LINE
8
BLACK
6
CONTINUOUS
10
6.8548150393700782
20
-4.2454877165354326
11
6.8545918897637792
21
-4.2454718897637793
0
LINE
8
BLACK
6
CONTINUOUS
10
6.8545918897637792
20
-4.2454718897637793
11
6.8508423622047241
21
-4.2435971259842518
0
LINE
8
BLACK
6
CONTINUOUS
10
6.8508423622047241
20
-4.2435971259842518
11
6.8506300787401573
21
-4.2433523622047247
0
LINE
8
BLACK
6
CONTINUOUS
10
6.8506300787401573
20
-4.2433523622047247
11
6.8503307480314959
21
-4.2432283858267716
0
LINE
8
BLACK
6
CONTINUOUS
10
6.8503307480314959
20
-4.2432283858267716
11
6.8484560236220471
21
-4.2413536220472441
0
LINE
8
BLACK
6
CONTINUOUS
10
6.8484560236220471
20
-4.2413536220472441
11
6.8483320078740153
21
-4.2410542913385827
0
LINE
8
BLACK
6
CONTINUOUS
10
6.8483320078740153
20
-4.2410542913385827
11
6.8480872440944882
21
-4.2408420078740159
0
LINE
8
BLACK
6
CONTINUOUS
10
6.8480872440944882
20
-4.2408420078740159
11
6.8462125196850394
21
-4.2370925196850395
0
LINE
8
BLACK
6
CONTINUOUS
10
6.8462125196850394
20
-4.2370925196850395
11
6.8461799999999995
21
-4.2366354724409447
0
LINE
8
BLACK
6
CONTINUOUS
10
6.8461799999999995
20
-4.2366354724409447
11
6.8460046850393699
21
-4.2362121653543303
0
LINE
8
BLACK
6
CONTINUOUS
10
6.8460046850393699
20
-4.2362121653543303
11
6.8460046850393699
21
-4.2324626377952752
0
LINE
8
BLACK
6
CONTINUOUS
10
6.8460046850393699
20
-4.2324626377952752
11
6.8461799999999995
21
-4.2320392913385829
0
LINE
8
BLACK
6
CONTINUOUS
10
6.8461799999999995
20
-4.2320392913385829
11
6.8462125196850394
21
-4.2315822834645669
0
LINE
8
BLACK
6
CONTINUOUS
10
6.8462125196850394
20
-4.2315822834645669
11
6.8480872440944882
21
-4.2278327952755905
0
LINE
8
BLACK
6
CONTINUOUS
10
6.8480872440944882
20
-4.2278327952755905
11
6.8483320078740153
21
-4.227620472440945
0
LINE
8
BLACK
6
CONTINUOUS
10
6.8483320078740153
20
-4.227620472440945
11
6.8484560236220471
21
-4.2273211811023623
0
LINE
8
BLACK
6
CONTINUOUS
10
6.8484560236220471
20
-4.2273211811023623
11
6.8503307480314959
21
-4.2254464173228348
0
LINE
8
BLACK
6
CONTINUOUS
10
6.8503307480314959
20
-4.2254464173228348
11
6.8506300787401573
21
-4.225322401574803
0
LINE
8
BLACK
6
CONTINUOUS
10
6.8506300787401573
20
-4.225322401574803
11
6.8508423622047241
21
-4.2250776771653547
0
LINE
8
BLACK
6
CONTINUOUS
10
6.8508423622047241
20
-4.2250776771653547
11
6.8545918897637792
21
-4.2232029133858271
0
LINE
8
BLACK
6
CONTINUOUS
10
6.8545918897637792
20
-4.2232029133858271
11
6.8548150393700782
21
-4.2231870472440942
0
LINE
8
BLACK
6
CONTINUOUS
10
6.8548150393700782
20
-4.2231870472440942
11
6.854994803149606
21
-4.2230538582677166
0
LINE
8
BLACK
6
CONTINUOUS
10
6.854994803149606
20
-4.2230538582677166
11
6.8624938582677162
21
-4.2211790944881891
0
LINE
8
BLACK
6
CONTINUOUS
10
6.8624938582677162
20
-4.2211790944881891
11
6.8627407086614172
21
-4.2212158267716537
0
LINE
8
BLACK
6
CONTINUOUS
10
6.8627407086614172
20
-4.2212158267716537
11
6.8629712992125986
21
-4.22112031496063
0
LINE
8
BLACK
6
CONTINUOUS
10
6.8629712992125986
20
-4.22112031496063
11
6.8723451181102364
21
-4.22112031496063
0
LINE
8
BLACK
6
CONTINUOUS
10
6.8723451181102364
20
-4.22112031496063
11
6.8725756692913382
21
-4.2212158267716537
0
LINE
8
BLACK
6
CONTINUOUS
10
6.8561593307086612
20
-4.2268208661417326
11
6.852888779527559
21
-4.2284561417322832
0
LINE
8
BLACK
6
CONTINUOUS
10
6.852888779527559
20
-4.2284561417322832
11
6.8514657480314956
21
-4.229879133858268
0
LINE
8
BLACK
6
CONTINUOUS
10
6.8514657480314956
20
-4.229879133858268
11
6.8499416929133856
21
-4.2329273228346453
0
LINE
8
BLACK
6
CONTINUOUS
10
6.8499416929133856
20
-4.2329273228346453
11
6.8499416929133856
21
-4.2357474803149602
0
LINE
8
BLACK
6
CONTINUOUS
10
6.8499416929133856
20
-4.2357474803149602
11
6.8514657480314956
21
-4.2387956299212597
0
LINE
8
BLACK
6
CONTINUOUS
10
6.8514657480314956
20
-4.2387956299212597
11
6.852888779527559
21
-4.2402186220472444
0
LINE
8
BLACK
6
CONTINUOUS
10
6.852888779527559
20
-4.2402186220472444
11
6.8561593307086612
21
-4.2418538976377951
0
LINE
8
BLACK
6
CONTINUOUS
10
6.8561593307086612
20
-4.2418538976377951
11
6.8632136220472439
21
-4.2436174803149607
0
LINE
8
BLACK
6
CONTINUOUS
10
6.8632136220472439
20
-4.2436174803149607
11
6.8721027952755902
21
-4.2436174803149607
0
LINE
8
BLACK
6
CONTINUOUS
10
6.8721027952755902
20
-4.2436174803149607
11
6.8791571259842517
21
-4.2418538976377951
0
LINE
8
BLACK
6
CONTINUOUS
10
6.8791571259842517
20
-4.2418538976377951
11
6.8824275984251964
21
-4.2402186220472444
0
LINE
8
BLACK
6
CONTINUOUS
10
6.8824275984251964
20
-4.2402186220472444
11
6.8838507086614174
21
-4.2387955511811022
0
LINE
8
BLACK
6
CONTINUOUS
10
6.8838507086614174
20
-4.2387955511811022
11
6.8853747637795273
21
-4.2357474409448814
0
LINE
8
BLACK
6
CONTINUOUS
10
6.8853747637795273
20
-4.2357474409448814
11
6.8853747637795273
21
-4.2329273228346453
0
LINE
8
BLACK
6
CONTINUOUS
10
6.8853747637795273
20
-4.2329273228346453
11
6.8838507086614174
21
-4.2298792125984255
0
LINE
8
BLACK
6
CONTINUOUS
10
6.8838507086614174
20
-4.2298792125984255
11
6.8824275984251964
21
-4.2284561417322832
0
LINE
8
BLACK
6
CONTINUOUS
10
6.8824275984251964
20
-4.2284561417322832
11
6.8791571259842517
21
-4.2268209055118113
0
LINE
8
BLACK
6
CONTINUOUS
10
6.8791571259842517
20
-4.2268209055118113
11
6.8721027952755902
21
-4.2250573228346457
0
LINE
8
BLACK
6
CONTINUOUS
10
6.8721027952755902
20
-4.2250573228346457
11
6.8632136220472439
21
-4.2250573228346457
0
LINE
8
BLACK
6
CONTINUOUS
10
6.8632136220472439
20
-4.2250573228346457
11
6.8561593307086612
21
-4.2268208661417326
0
LINE
8
BLACK
6
CONTINUOUS
10
6.8864527559055118
20
-4.2027803149606298
11
6.8868604724409446
21
-4.2029492125984254
0
LINE
8
BLACK
6
CONTINUOUS
10
6.8868604724409446
20
-4.2029492125984254
11
6.8868604724409446
21
-4.2029492519685041
0
LINE
8
BLACK
6
CONTINUOUS
10
6.8868604724409446
20
-4.2029492519685041
11
6.8887351968503934
21
-4.2048239370078742
0
LINE
8
BLACK
6
CONTINUOUS
10
6.8887351968503934
20
-4.2048239370078742
11
6.8887351968503934
21
-4.2048239763779529
0
LINE
8
BLACK
6
CONTINUOUS
10
6.8887351968503934
20
-4.2048239763779529
11
6.889311771653543
21
-4.2062159055118107
0
LINE
8
BLACK
6
CONTINUOUS
10
6.889311771653543
20
-4.2062159055118107
11
6.8889040551181102
21
-4.2072001574803153
0
LINE
8
BLACK
6
CONTINUOUS
10
6.8889040551181102
20
-4.2072001574803153
11
6.8887351968503934
21
-4.2076078740157481
0
LINE
8
BLACK
6
CONTINUOUS
10
6.8887351968503934
20
-4.2076078740157481
11
6.8868604724409446
21
-4.2094825196850394
0
LINE
8
BLACK
6
CONTINUOUS
10
6.8868604724409446
20
-4.2094825196850394
11
6.8868604724409446
21
-4.2094825984251969
0
LINE
8
BLACK
6
CONTINUOUS
10
6.8868604724409446
20
-4.2094825984251969
11
6.8864527559055118
21
-4.2096514566929129
0
LINE
8
BLACK
6
CONTINUOUS
10
6.8864527559055118
20
-4.2096514566929129
11
6.885468503937008
21
-4.2100591732283466
0
LINE
8
BLACK
6
CONTINUOUS
10
6.885468503937008
20
-4.2100591732283466
11
6.8847725196850389
21
-4.2097708661417323
0
LINE
8
BLACK
6
CONTINUOUS
10
6.8847725196850389
20
-4.2097708661417323
11
6.8840765748031494
21
-4.2094826377952757
0
LINE
8
BLACK
6
CONTINUOUS
10
6.8840765748031494
20
-4.2094826377952757
11
6.8822017716535431
21
-4.2076078740157481
0
LINE
8
BLACK
6
CONTINUOUS
10
6.8822017716535431
20
-4.2076078740157481
11
6.8822017322834643
21
-4.2076078346456693
0
LINE
8
BLACK
6
CONTINUOUS
10
6.8822017322834643
20
-4.2076078346456693
11
6.8818251968503938
21
-4.2066987401574805
0
LINE
8
BLACK
6
CONTINUOUS
10
6.8818251968503938
20
-4.2066987401574805
11
6.8816251968503934
21
-4.2062159448818894
0
LINE
8
BLACK
6
CONTINUOUS
10
6.8816251968503934
20
-4.2062159448818894
11
6.8816252362204722
21
-4.2062158661417319
0
LINE
8
BLACK
6
CONTINUOUS
10
6.8816252362204722
20
-4.2062158661417319
11
6.8818251968503938
21
-4.2057331102362205
0
LINE
8
BLACK
6
CONTINUOUS
10
6.8818251968503938
20
-4.2057331102362205
11
6.8819629133858262
21
-4.2054005118110238
0
LINE
8
BLACK
6
CONTINUOUS
10
6.8819629133858262
20
-4.2054005118110238
11
6.8822017322834643
21
-4.2048239763779529
0
LINE
8
BLACK
6
CONTINUOUS
10
6.8822017322834643
20
-4.2048239763779529
11
6.8822017322834643
21
-4.2048239370078742
0
LINE
8
BLACK
6
CONTINUOUS
10
6.8822017322834643
20
-4.2048239370078742
11
6.8822017716535431
21
-4.2048239370078742
0
LINE
8
BLACK
6
CONTINUOUS
10
6.8822017716535431
20
-4.2048239370078742
11
6.8840765748031494
21
-4.2029491732283466
0
LINE
8
BLACK
6
CONTINUOUS
10
6.8840765748031494
20
-4.2029491732283466
11
6.8847725196850389
21
-4.2026609055118112
0
LINE
8
BLACK
6
CONTINUOUS
10
6.8847725196850389
20
-4.2026609055118112
11
6.885468503937008
21
-4.2023726377952757
0
LINE
8
BLACK
6
CONTINUOUS
10
6.885468503937008
20
-4.2023726377952757
11
6.8864527559055118
21
-4.2027803149606298
0
LINE
8
BLACK
6
CONTINUOUS
10
6.8595211023622049
20
-4.1650013385826767
11
6.8598442519685037
21
-4.1649783858267719
0
LINE
8
BLACK
6
CONTINUOUS
10
6.8598442519685037
20
-4.1649783858267719
11
6.8654685433070863
21
-4.1668531496062995
0
LINE
8
BLACK
6
CONTINUOUS
10
6.8654685433070863
20
-4.1668531496062995
11
6.8658146456692908
21
-4.1671533464566926
0
LINE
8
BLACK
6
CONTINUOUS
10
6.8658146456692908
20
-4.1671533464566926
11
6.866237992125984
21
-4.1673287007874018
0
LINE
8
BLACK
6
CONTINUOUS
10
6.866237992125984
20
-4.1673287007874018
11
6.8853747637795273
21
-4.1864654330708664
0
LINE
8
BLACK
6
CONTINUOUS
10
6.8853747637795273
20
-4.1864654330708664
11
6.8853747637795273
21
-4.166845866141732
0
LINE
8
BLACK
6
CONTINUOUS
10
6.8853747637795273
20
-4.166845866141732
11
6.8859513385826769
21
-4.1654539370078743
0
LINE
8
BLACK
6
CONTINUOUS
10
6.8859513385826769
20
-4.1654539370078743
11
6.8873432677165356
21
-4.1648773622047246
0
LINE
8
BLACK
6
CONTINUOUS
10
6.8873432677165356
20
-4.1648773622047246
11
6.8887351968503934
21
-4.1654539370078743
0
LINE
8
BLACK
6
CONTINUOUS
10
6.8887351968503934
20
-4.1654539370078743
11
6.889311771653543
21
-4.166845866141732
0
LINE
8
BLACK
6
CONTINUOUS
10
6.889311771653543
20
-4.166845866141732
11
6.889311771653543
21
-4.1912177952755902
0
LINE
8
BLACK
6
CONTINUOUS
10
6.889311771653543
20
-4.1912177952755902
11
6.8887351968503934
21
-4.1926097244094489
0
LINE
8
BLACK
6
CONTINUOUS
10
6.8887351968503934
20
-4.1926097244094489
11
6.8873432677165356
21
-4.1931862992125986
0
LINE
8
BLACK
6
CONTINUOUS
10
6.8873432677165356
20
-4.1931862992125986
11
6.8859513385826769
21
-4.1926097244094489
0
LINE
8
BLACK
6
CONTINUOUS
10
6.8859513385826769
20
-4.1926097244094489
11
6.8637827165354333
21
-4.1704411417322831
0
LINE
8
BLACK
6
CONTINUOUS
10
6.8637827165354333
20
-4.1704411417322831
11
6.8589023622047245
21
-4.1688143700787403
0
LINE
8
BLACK
6
CONTINUOUS
10
6.8589023622047245
20
-4.1688143700787403
11
6.8559369685039364
21
-4.1688143700787403
0
LINE
8
BLACK
6
CONTINUOUS
10
6.8559369685039364
20
-4.1688143700787403
11
6.852888779527559
21
-4.1703384251968503
0
LINE
8
BLACK
6
CONTINUOUS
10
6.852888779527559
20
-4.1703384251968503
11
6.8514657480314956
21
-4.1717614173228341
0
LINE
8
BLACK
6
CONTINUOUS
10
6.8514657480314956
20
-4.1717614173228341
11
6.8499416929133856
21
-4.1748096062992124
0
LINE
8
BLACK
6
CONTINUOUS
10
6.8499416929133856
20
-4.1748096062992124
11
6.8499416929133856
21
-4.1832540551181099
0
LINE
8
BLACK
6
CONTINUOUS
10
6.8499416929133856
20
-4.1832540551181099
11
6.8514657480314956
21
-4.1863022047244094
0
LINE
8
BLACK
6
CONTINUOUS
10
6.8514657480314956
20
-4.1863022047244094
11
6.8531146456692911
21
-4.1879510629921262
0
LINE
8
BLACK
6
CONTINUOUS
10
6.8531146456692911
20
-4.1879510629921262
11
6.853691181102362
21
-4.1893430314960627
0
LINE
8
BLACK
6
CONTINUOUS
10
6.853691181102362
20
-4.1893430314960627
11
6.8531146456692911
21
-4.1907349606299213
0
LINE
8
BLACK
6
CONTINUOUS
10
6.8531146456692911
20
-4.1907349606299213
11
6.8517227165354333
21
-4.1913114960629922
0
LINE
8
BLACK
6
CONTINUOUS
10
6.8517227165354333
20
-4.1913114960629922
11
6.8503307480314959
21
-4.1907349606299213
0
LINE
8
BLACK
6
CONTINUOUS
10
6.8503307480314959
20
-4.1907349606299213
11
6.8484560236220471
21
-4.1888601968503938
0
LINE
8
BLACK
6
CONTINUOUS
10
6.8484560236220471
20
-4.1888601968503938
11
6.8483320078740153
21
-4.1885608661417324
0
LINE
8
BLACK
6
CONTINUOUS
10
6.8483320078740153
20
-4.1885608661417324
11
6.8480872440944882
21
-4.1883485826771656
0
LINE
8
BLACK
6
CONTINUOUS
10
6.8480872440944882
20
-4.1883485826771656
11
6.8462125196850394
21
-4.1845990944881892
0
LINE
8
BLACK
6
CONTINUOUS
10
6.8462125196850394
20
-4.1845990944881892
11
6.8461799999999995
21
-4.1841420472440944
0
LINE
8
BLACK
6
CONTINUOUS
10
6.8461799999999995
20
-4.1841420472440944
11
6.8460046850393699
21
-4.18371874015748
0
LINE
8
BLACK
6
CONTINUOUS
10
6.8460046850393699
20
-4.18371874015748
11
6.8460046850393699
21
-4.1743449212598422
0
LINE
8
BLACK
6
CONTINUOUS
10
6.8460046850393699
20
-4.1743449212598422
11
6.8461799999999995
21
-4.1739215748031491
0
LINE
8
BLACK
6
CONTINUOUS
10
6.8461799999999995
20
-4.1739215748031491
11
6.8462125196850394
21
-4.1734645669291339
0
LINE
8
BLACK
6
CONTINUOUS
10
6.8462125196850394
20
-4.1734645669291339
11
6.8480872440944882
21
-4.1697150787401576
0
LINE
8
BLACK
6
CONTINUOUS
10
6.8480872440944882
20
-4.1697150787401576
11
6.8483320078740153
21
-4.169502755905512
0
LINE
8
BLACK
6
CONTINUOUS
10
6.8483320078740153
20
-4.169502755905512
11
6.8484560236220471
21
-4.1692034645669294
0
LINE
8
BLACK
6
CONTINUOUS
10
6.8484560236220471
20
-4.1692034645669294
11
6.8503307480314959
21
-4.1673287007874018
0
LINE
8
BLACK
6
CONTINUOUS
10
6.8503307480314959
20
-4.1673287007874018
11
6.8506300787401573
21
-4.16720468503937
0
LINE
8
BLACK
6
CONTINUOUS
10
6.8506300787401573
20
-4.16720468503937
11
6.8508423622047241
21
-4.1669599606299208
0
LINE
8
BLACK
6
CONTINUOUS
10
6.8508423622047241
20
-4.1669599606299208
11
6.8545918897637792
21
-4.1650851968503932
0
LINE
8
BLACK
6
CONTINUOUS
10
6.8545918897637792
20
-4.1650851968503932
11
6.8550488976377952
21
-4.1650526771653542
0
LINE
8
BLACK
6
CONTINUOUS
10
6.8550488976377952
20
-4.1650526771653542
11
6.8554722440944884
21
-4.1648773622047246
0
LINE
8
BLACK
6
CONTINUOUS
10
6.8554722440944884
20
-4.1648773622047246
11
6.8592217716535435
21
-4.1648773622047246
0
LINE
8
BLACK
6
CONTINUOUS
10
6.8592217716535435
20
-4.1648773622047246
11
6.8595211023622049
21
-4.1650013385826767
0
LINE
8
BLACK
6
CONTINUOUS
10
6.8756118110236217
20
-4.1260838582677168
11
6.8761883858267714
21
-4.1274757874015746
0
LINE
8
BLACK
6
CONTINUOUS
10
6.8761883858267714
20
-4.1274757874015746
11
6.8761883858267714
21
-4.1311315748031499
0
LINE
8
BLACK
6
CONTINUOUS
10
6.8761883858267714
20
-4.1311315748031499
11
6.8873432677165356
21
-4.1311315748031499
0
LINE
8
BLACK
6
CONTINUOUS
10
6.8873432677165356
20
-4.1311315748031499
11
6.8887351968503934
21
-4.1317081496062995
0
LINE
8
BLACK
6
CONTINUOUS
10
6.8887351968503934
20
-4.1317081496062995
11
6.889311771653543
21
-4.1331000787401573
0
LINE
8
BLACK
6
CONTINUOUS
10
6.889311771653543
20
-4.1331000787401573
11
6.8887351968503934
21
-4.1344920078740159
0
LINE
8
BLACK
6
CONTINUOUS
10
6.8887351968503934
20
-4.1344920078740159
11
6.8873432677165356
21
-4.1350685826771656
0
LINE
8
BLACK
6
CONTINUOUS
10
6.8873432677165356
20
-4.1350685826771656
11
6.8761883858267714
21
-4.1350685826771656
0
LINE
8
BLACK
6
CONTINUOUS
10
6.8761883858267714
20
-4.1350685826771656
11
6.8761883858267714
21
-4.1518477165354328
0
LINE
8
BLACK
6
CONTINUOUS
10
6.8761883858267714
20
-4.1518477165354328
11
6.8760643700787396
21
-4.1521470472440942
0
LINE
8
BLACK
6
CONTINUOUS
10
6.8760643700787396
20
-4.1521470472440942
11
6.8760873622047241
21
-4.1524701968503939
0
LINE
8
BLACK
6
CONTINUOUS
10
6.8760873622047241
20
-4.1524701968503939
11
6.8757871259842522
21
-4.1528162992125983
0
LINE
8
BLACK
6
CONTINUOUS
10
6.8757871259842522
20
-4.1528162992125983
11
6.8756118110236217
21
-4.1532396456692915
0
LINE
8
BLACK
6
CONTINUOUS
10
6.8756118110236217
20
-4.1532396456692915
11
6.8753124409448816
21
-4.1533636220472436
0
LINE
8
BLACK
6
CONTINUOUS
10
6.8753124409448816
20
-4.1533636220472436
11
6.8751001968503935
21
-4.1536083858267716
0
LINE
8
BLACK
6
CONTINUOUS
10
6.8751001968503935
20
-4.1536083858267716
11
6.8746431889763775
21
-4.1536408267716531
0
LINE
8
BLACK
6
CONTINUOUS
10
6.8746431889763775
20
-4.1536408267716531
11
6.874219881889764
21
-4.1538162204724411
0
LINE
8
BLACK
6
CONTINUOUS
10
6.874219881889764
20
-4.1538162204724411
11
6.8739205118110238
21
-4.1536922047244094
0
LINE
8
BLACK
6
CONTINUOUS
10
6.8739205118110238
20
-4.1536922047244094
11
6.8735973622047242
21
-4.1537151968503938
0
LINE
8
BLACK
6
CONTINUOUS
10
6.8735973622047242
20
-4.1537151968503938
11
6.8454759448818896
21
-4.144341377952756
0
LINE
8
BLACK
6
CONTINUOUS
10
6.8454759448818896
20
-4.144341377952756
11
6.8443377559055119
21
-4.1433542125984255
0
LINE
8
BLACK
6
CONTINUOUS
10
6.8443377559055119
20
-4.1433542125984255
11
6.8442309448818897
21
-4.1418514173228349
0
LINE
8
BLACK
6
CONTINUOUS
10
6.8442309448818897
20
-4.1418514173228349
11
6.8452181102362202
21
-4.1407132283464563
0
LINE
8
BLACK
6
CONTINUOUS
10
6.8452181102362202
20
-4.1407132283464563
11
6.8467209055118108
21
-4.140606417322835
0
LINE
8
BLACK
6
CONTINUOUS
10
6.8467209055118108
20
-4.140606417322835
11
6.8722513779527556
21
-4.1491165748031493
0
LINE
8
BLACK
6
CONTINUOUS
10
6.8722513779527556
20
-4.1491165748031493
11
6.8722513779527556
21
-4.1350685826771656
0
LINE
8
BLACK
6
CONTINUOUS
10
6.8722513779527556
20
-4.1350685826771656
11
6.8610965354330711
21
-4.1350685826771656
0
LINE
8
BLACK
6
CONTINUOUS
10
6.8610965354330711
20
-4.1350685826771656
11
6.8597046062992124
21
-4.1344920078740159
0
LINE
8
BLACK
6
CONTINUOUS
10
6.8597046062992124
20
-4.1344920078740159
11
6.8591280314960628
21
-4.1331000787401573
0
LINE
8
BLACK
6
CONTINUOUS
10
6.8591280314960628
20
-4.1331000787401573
11
6.8597046062992124
21
-4.1317081496062995
0
LINE
8
BLACK
6
CONTINUOUS
10
6.8597046062992124
20
-4.1317081496062995
11
6.8610965354330711
21
-4.1311315748031499
0
LINE
8
BLACK
6
CONTINUOUS
10
6.8610965354330711
20
-4.1311315748031499
11
6.8722513779527556
21
-4.1311315748031499
0
LINE
8
BLACK
6
CONTINUOUS
10
6.8722513779527556
20
-4.1311315748031499
11
6.8722513779527556
21
-4.1274757874015746
0
LINE
8
BLACK
6
CONTINUOUS
10
6.8722513779527556
20
-4.1274757874015746
11
6.8728279527559053
21
-4.1260838582677168
0
LINE
8
BLACK
6
CONTINUOUS
10
6.8728279527559053
20
-4.1260838582677168
11
6.874219881889764
21
-4.1255072834645672
0
LINE
8
BLACK
6
CONTINUOUS
10
6.874219881889764
20
-4.1255072834645672
11
6.8756118110236217
21
-4.1260838582677168
0
LINE
8
BLACK
6
CONTINUOUS
10
6.8887351968503934
20
-4.0473436614173224
11
6.889311771653543
21
-4.048735590551181
0
LINE
8
BLACK
6
CONTINUOUS
10
6.889311771653543
20
-4.048735590551181
11
6.8887351968503934
21
-4.0501275196850397
0
LINE
8
BLACK
6
CONTINUOUS
10
6.8887351968503934
20
-4.0501275196850397
11
6.8873432677165356
21
-4.0507040944881885
0
LINE
8
BLACK
6
CONTINUOUS
10
6.8873432677165356
20
-4.0507040944881885
11
6.8671855511811026
21
-4.0507040944881885
0
LINE
8
BLACK
6
CONTINUOUS
10
6.8671855511811026
20
-4.0507040944881885
11
6.8644385039370075
21
-4.0520775590551183
0
LINE
8
BLACK
6
CONTINUOUS
10
6.8644385039370075
20
-4.0520775590551183
11
6.8630650393700785
21
-4.0548245669291338
0
LINE
8
BLACK
6
CONTINUOUS
10
6.8630650393700785
20
-4.0548245669291338
11
6.8630650393700785
21
-4.059519527559055
0
LINE
8
BLACK
6
CONTINUOUS
10
6.8630650393700785
20
-4.059519527559055
11
6.8644385039370075
21
-4.0622664960629917
0
LINE
8
BLACK
6
CONTINUOUS
10
6.8644385039370075
20
-4.0622664960629917
11
6.8671855511811026
21
-4.0636399999999995
0
LINE
8
BLACK
6
CONTINUOUS
10
6.8671855511811026
20
-4.0636399999999995
11
6.8873432677165356
21
-4.0636399999999995
0
LINE
8
BLACK
6
CONTINUOUS
10
6.8873432677165356
20
-4.0636399999999995
11
6.8887351968503934
21
-4.0642165748031491
0
LINE
8
BLACK
6
CONTINUOUS
10
6.8887351968503934
20
-4.0642165748031491
11
6.889311771653543
21
-4.0656085039370078
0
LINE
8
BLACK
6
CONTINUOUS
10
6.889311771653543
20
-4.0656085039370078
11
6.8887351968503934
21
-4.0670004330708664
0
LINE
8
BLACK
6
CONTINUOUS
10
6.8887351968503934
20
-4.0670004330708664
11
6.8873432677165356
21
-4.0675770078740152
0
LINE
8
BLACK
6
CONTINUOUS
10
6.8873432677165356
20
-4.0675770078740152
11
6.8671855511811026
21
-4.0675770078740152
0
LINE
8
BLACK
6
CONTINUOUS
10
6.8671855511811026
20
-4.0675770078740152
11
6.8644385039370075
21
-4.0689504724409451
0
LINE
8
BLACK
6
CONTINUOUS
10
6.8644385039370075
20
-4.0689504724409451
11
6.8630650393700785
21
-4.0716974803149606
0
LINE
8
BLACK
6
CONTINUOUS
10
6.8630650393700785
20
-4.0716974803149606
11
6.8630650393700785
21
-4.076392401574803
0
LINE
8
BLACK
6
CONTINUOUS
10
6.8630650393700785
20
-4.076392401574803
11
6.8645890944881884
21
-4.0794405511811025
0
LINE
8
BLACK
6
CONTINUOUS
10
6.8645890944881884
20
-4.0794405511811025
11
6.8656614566929131
21
-4.0805128740157484
0
LINE
8
BLACK
6
CONTINUOUS
10
6.8656614566929131
20
-4.0805128740157484
11
6.8873432677165356
21
-4.0805128740157484
0
LINE
8
BLACK
6
CONTINUOUS
10
6.8873432677165356
20
-4.0805128740157484
11
6.8887351968503934
21
-4.0810894488188971
0
LINE
8
BLACK
6
CONTINUOUS
10
6.8887351968503934
20
-4.0810894488188971
11
6.889311771653543
21
-4.0824813779527558
0
LINE
8
BLACK
6
CONTINUOUS
10
6.889311771653543
20
-4.0824813779527558
11
6.8887351968503934
21
-4.0838733070866144
0
LINE
8
BLACK
6
CONTINUOUS
10
6.8887351968503934
20
-4.0838733070866144
11
6.8873432677165356
21
-4.0844498818897641
0
LINE
8
BLACK
6
CONTINUOUS
10
6.8873432677165356
20
-4.0844498818897641
11
6.8610965354330711
21
-4.0844498818897641
0
LINE
8
BLACK
6
CONTINUOUS
10
6.8610965354330711
20
-4.0844498818897641
11
6.8597046062992124
21
-4.0838733070866144
0
LINE
8
BLACK
6
CONTINUOUS
10
6.8597046062992124
20
-4.0838733070866144
11
6.8591280314960628
21
-4.0824813779527558
0
LINE
8
BLACK
6
CONTINUOUS
10
6.8591280314960628
20
-4.0824813779527558
11
6.8597046062992124
21
-4.0810894488188971
0
LINE
8
BLACK
6
CONTINUOUS
10
6.8597046062992124
20
-4.0810894488188971
11
6.8607875590551179
21
-4.0806408267716536
0
LINE
8
BLACK
6
CONTINUOUS
10
6.8607875590551179
20
-4.0806408267716536
11
6.8593358661417323
21
-4.0777374409448814
0
LINE
8
BLACK
6
CONTINUOUS
10
6.8593358661417323
20
-4.0777374409448814
11
6.8593033464566924
21
-4.0772803937007875
0
LINE
8
BLACK
6
CONTINUOUS
10
6.8593033464566924
20
-4.0772803937007875
11
6.8591280314960628
21
-4.0768570866141731
0
LINE
8
BLACK
6
CONTINUOUS
10
6.8591280314960628
20
-4.0768570866141731
11
6.8591280314960628
21
-4.0712327952755905
0
LINE
8
BLACK
6
CONTINUOUS
10
6.8591280314960628
20
-4.0712327952755905
11
6.8593033464566924
21
-4.0708094488188973
0
LINE
8
BLACK
6
CONTINUOUS
10
6.8593033464566924
20
-4.0708094488188973
11
6.8593358661417323
21
-4.0703524409448821
0
LINE
8
BLACK
6
CONTINUOUS
10
6.8593358661417323
20
-4.0703524409448821
11
6.8612105905511811
21
-4.0666029527559058
0
LINE
8
BLACK
6
CONTINUOUS
10
6.8612105905511811
20
-4.0666029527559058
11
6.8616819685039365
21
-4.0661940944881891
0
LINE
8
BLACK
6
CONTINUOUS
10
6.8616819685039365
20
-4.0661940944881891
11
6.8620909448818894
21
-4.0657225984251966
0
LINE
8
BLACK
6
CONTINUOUS
10
6.8620909448818894
20
-4.0657225984251966
11
6.8623191338582679
21
-4.0656085039370078
0
LINE
8
BLACK
6
CONTINUOUS
10
6.8623191338582679
20
-4.0656085039370078
11
6.8620909448818894
21
-4.065494409448819
0
LINE
8
BLACK
6
CONTINUOUS
10
6.8620909448818894
20
-4.065494409448819
11
6.8616819685039365
21
-4.0650228740157477
0
LINE
8
BLACK
6
CONTINUOUS
10
6.8616819685039365
20
-4.0650228740157477
11
6.8612105905511811
21
-4.0646140551181098
0
LINE
8
BLACK
6
CONTINUOUS
10
6.8612105905511811
20
-4.0646140551181098
11
6.8593358661417323
21
-4.0608645669291334
0
LINE
8
BLACK
6
CONTINUOUS
10
6.8593358661417323
20
-4.0608645669291334
11
6.8593033464566924
21
-4.0604075196850395
0
LINE
8
BLACK
6
CONTINUOUS
10
6.8593033464566924
20
-4.0604075196850395
11
6.8591280314960628
21
-4.0599842125984251
0
LINE
8
BLACK
6
CONTINUOUS
10
6.8591280314960628
20
-4.0599842125984251
11
6.8591280314960628
21
-4.0543599212598425
0
LINE
8
BLACK
6
CONTINUOUS
10
6.8591280314960628
20
-4.0543599212598425
11
6.8593033858267711
21
-4.0539365748031493
0
LINE
8
BLACK
6
CONTINUOUS
10
6.8593033858267711
20
-4.0539365748031493
11
6.8593358661417323
21
-4.0534796062992129
0
LINE
8
BLACK
6
CONTINUOUS
10
6.8593358661417323
20
-4.0534796062992129
11
6.8612105905511811
21
-4.049730039370079
0
LINE
8
BLACK
6
CONTINUOUS
10
6.8612105905511811
20
-4.049730039370079
11
6.861682047244094
21
-4.0493211417322836
0
LINE
8
BLACK
6
CONTINUOUS
10
6.861682047244094
20
-4.0493211417322836
11
6.8620909448818894
21
-4.0488496850393698
0
LINE
8
BLACK
6
CONTINUOUS
10
6.8620909448818894
20
-4.0488496850393698
11
6.8658404724409445
21
-4.0469749212598423
0
LINE
8
BLACK
6
CONTINUOUS
10
6.8658404724409445
20
-4.0469749212598423
11
6.8662974803149606
21
-4.0469424015748032
0
LINE
8
BLACK
6
CONTINUOUS
10
6.8662974803149606
20
-4.0469424015748032
11
6.8667208267716537
21
-4.0467670866141727
0
LINE
8
BLACK
6
CONTINUOUS
10
6.8667208267716537
20
-4.0467670866141727
11
6.8873432677165356
21
-4.0467670866141727
0
LINE
8
BLACK
6
CONTINUOUS
10
6.8873432677165356
20
-4.0467670866141727
11
6.8887351968503934
21
-4.0473436614173224
0
LINE
8
BLACK
6
CONTINUOUS
10
6.8887351968503934
20
-3.9948502362204725
11
6.889311771653543
21
-3.9962421653543307
0
LINE
8
BLACK
6
CONTINUOUS
10
6.889311771653543
20
-3.9962421653543307
11
6.8887351968503934
21
-3.997634094488189
0
LINE
8
BLACK
6
CONTINUOUS
10
6.8887351968503934
20
-3.997634094488189
11
6.8873432677165356
21
-3.9982106692913386
0
LINE
8
BLACK
6
CONTINUOUS
10
6.8873432677165356
20
-3.9982106692913386
11
6.8671855511811026
21
-3.9982106692913386
0
LINE
8
BLACK
6
CONTINUOUS
10
6.8671855511811026
20
-3.9982106692913386
11
6.8644385039370075
21
-3.9995841338582676
0
LINE
8
BLACK
6
CONTINUOUS
10
6.8644385039370075
20
-3.9995841338582676
11
6.8630650393700785
21
-4.0023311417322835
0
LINE
8
BLACK
6
CONTINUOUS
10
6.8630650393700785
20
-4.0023311417322835
11
6.8630650393700785
21
-4.0070261023622047
0
LINE
8
BLACK
6
CONTINUOUS
10
6.8630650393700785
20
-4.0070261023622047
11
6.8644385039370075
21
-4.0097730708661414
0
LINE
8
BLACK
6
CONTINUOUS
10
6.8644385039370075
20
-4.0097730708661414
11
6.8671855511811026
21
-4.0111465748031492
0
LINE
8
BLACK
6
CONTINUOUS
10
6.8671855511811026
20
-4.0111465748031492
11
6.8873432677165356
21
-4.0111465748031492
0
LINE
8
BLACK
6
CONTINUOUS
10
6.8873432677165356
20
-4.0111465748031492
11
6.8887351968503934
21
-4.0117231496062988
0
LINE
8
BLACK
6
CONTINUOUS
10
6.8887351968503934
20
-4.0117231496062988
11
6.889311771653543
21
-4.0131150787401575
0
LINE
8
BLACK
6
CONTINUOUS
10
6.889311771653543
20
-4.0131150787401575
11
6.8887351968503934
21
-4.0145070078740153
0
LINE
8
BLACK
6
CONTINUOUS
10
6.8887351968503934
20
-4.0145070078740153
11
6.8873432677165356
21
-4.0150835826771649
0
LINE
8
BLACK
6
CONTINUOUS
10
6.8873432677165356
20
-4.0150835826771649
11
6.8671855511811026
21
-4.0150835826771649
0
LINE
8
BLACK
6
CONTINUOUS
10
6.8671855511811026
20
-4.0150835826771649
11
6.8644385039370075
21
-4.0164570472440948
0
LINE
8
BLACK
6
CONTINUOUS
10
6.8644385039370075
20
-4.0164570472440948
11
6.8630650393700785
21
-4.0192040551181103
0
LINE
8
BLACK
6
CONTINUOUS
10
6.8630650393700785
20
-4.0192040551181103
11
6.8630650393700785
21
-4.0238989763779527
0
LINE
8
BLACK
6
CONTINUOUS
10
6.8630650393700785
20
-4.0238989763779527
11
6.8645890944881884
21
-4.0269471259842522
0
LINE
8
BLACK
6
CONTINUOUS
10
6.8645890944881884
20
-4.0269471259842522
11
6.8656614566929131
21
-4.0280194488188972
0
LINE
8
BLACK
6
CONTINUOUS
10
6.8656614566929131
20
-4.0280194488188972
11
6.8873432677165356
21
-4.0280194488188972
0
LINE
8
BLACK
6
CONTINUOUS
10
6.8873432677165356
20
-4.0280194488188972
11
6.8887351968503934
21
-4.0285960236220468
0
LINE
8
BLACK
6
CONTINUOUS
10
6.8887351968503934
20
-4.0285960236220468
11
6.889311771653543
21
-4.0299879527559055
0
LINE
8
BLACK
6
CONTINUOUS
10
6.889311771653543
20
-4.0299879527559055
11
6.8887351968503934
21
-4.0313798818897633
0
LINE
8
BLACK
6
CONTINUOUS
10
6.8887351968503934
20
-4.0313798818897633
11
6.8873432677165356
21
-4.0319564566929129
0
LINE
8
BLACK
6
CONTINUOUS
10
6.8873432677165356
20
-4.0319564566929129
11
6.8610965354330711
21
-4.0319564566929129
0
LINE
8
BLACK
6
CONTINUOUS
10
6.8610965354330711
20
-4.0319564566929129
11
6.8597046062992124
21
-4.0313798818897633
0
LINE
8
BLACK
6
CONTINUOUS
10
6.8597046062992124
20
-4.0313798818897633
11
6.8591280314960628
21
-4.0299879527559055
0
LINE
8
BLACK
6
CONTINUOUS
10
6.8591280314960628
20
-4.0299879527559055
11
6.8597046062992124
21
-4.0285960236220468
0
LINE
8
BLACK
6
CONTINUOUS
10
6.8597046062992124
20
-4.0285960236220468
11
6.8607875590551179
21
-4.0281474015748033
0
LINE
8
BLACK
6
CONTINUOUS
10
6.8607875590551179
20
-4.0281474015748033
11
6.8593358661417323
21
-4.0252440157480311
0
LINE
8
BLACK
6
CONTINUOUS
10
6.8593358661417323
20
-4.0252440157480311
11
6.8593033464566924
21
-4.0247869685039372
0
LINE
8
BLACK
6
CONTINUOUS
10
6.8593033464566924
20
-4.0247869685039372
11
6.8591280314960628
21
-4.0243636614173228
0
LINE
8
BLACK
6
CONTINUOUS
10
6.8591280314960628
20
-4.0243636614173228
11
6.8591280314960628
21
-4.0187393700787402
0
LINE
8
BLACK
6
CONTINUOUS
10
6.8591280314960628
20
-4.0187393700787402
11
6.8593033464566924
21
-4.018316023622047
0
LINE
8
BLACK
6
CONTINUOUS
10
6.8593033464566924
20
-4.018316023622047
11
6.8593358661417323
21
-4.0178590157480318
0
LINE
8
BLACK
6
CONTINUOUS
10
6.8593358661417323
20
-4.0178590157480318
11
6.8612105905511811
21
-4.0141095275590546
0
LINE
8
BLACK
6
CONTINUOUS
10
6.8612105905511811
20
-4.0141095275590546
11
6.8616819685039365
21
-4.0137006692913388
0
LINE
8
BLACK
6
CONTINUOUS
10
6.8616819685039365
20
-4.0137006692913388
11
6.8620909448818894
21
-4.0132291732283463
0
LINE
8
BLACK
6
CONTINUOUS
10
6.8620909448818894
20
-4.0132291732283463
11
6.8623191338582679
21
-4.0131150787401575
0
LINE
8
BLACK
6
CONTINUOUS
10
6.8623191338582679
20
-4.0131150787401575
11
6.8620909448818894
21
-4.0130009842519687
0
LINE
8
BLACK
6
CONTINUOUS
10
6.8620909448818894
20
-4.0130009842519687
11
6.8616819685039365
21
-4.0125294488188974
0
LINE
8
BLACK
6
CONTINUOUS
10
6.8616819685039365
20
-4.0125294488188974
11
6.8612105905511811
21
-4.0121206299212595
0
LINE
8
BLACK
6
CONTINUOUS
10
6.8612105905511811
20
-4.0121206299212595
11
6.8593358661417323
21
-4.0083711417322831
0
LINE
8
BLACK
6
CONTINUOUS
10
6.8593358661417323
20
-4.0083711417322831
11
6.8593033464566924
21
-4.0079140944881892
0
LINE
8
BLACK
6
CONTINUOUS
10
6.8593033464566924
20
-4.0079140944881892
11
6.8591280314960628
21
-4.0074907874015748
0
LINE
8
BLACK
6
CONTINUOUS
10
6.8591280314960628
20
-4.0074907874015748
11
6.8591280314960628
21
-4.0018664960629922
0
LINE
8
BLACK
6
CONTINUOUS
10
6.8591280314960628
20
-4.0018664960629922
11
6.8593033858267711
21
-4.001443149606299
0
LINE
8
BLACK
6
CONTINUOUS
10
6.8593033858267711
20
-4.001443149606299
11
6.8593358661417323
21
-4.0009861811023617
0
LINE
8
BLACK
6
CONTINUOUS
10
6.8593358661417323
20
-4.0009861811023617
11
6.8612105905511811
21
-3.9972366141732283
0
LINE
8
BLACK
6
CONTINUOUS
10
6.8612105905511811
20
-3.9972366141732283
11
6.861682047244094
21
-3.9968277165354329
0
LINE
8
BLACK
6
CONTINUOUS
10
6.861682047244094
20
-3.9968277165354329
11
6.8620909448818894
21
-3.9963562598425195
0
LINE
8
BLACK
6
CONTINUOUS
10
6.8620909448818894
20
-3.9963562598425195
11
6.8658404724409445
21
-3.994481496062992
0
LINE
8
BLACK
6
CONTINUOUS
10
6.8658404724409445
20
-3.994481496062992
11
6.8662974803149606
21
-3.9944489763779525
0
LINE
8
BLACK
6
CONTINUOUS
10
6.8662974803149606
20
-3.9944489763779525
11
6.8667208267716537
21
-3.9942736614173229
0
LINE
8
BLACK
6
CONTINUOUS
10
6.8667208267716537
20
-3.9942736614173229
11
6.8873432677165356
21
-3.9942736614173229
0
LINE
8
BLACK
6
CONTINUOUS
10
6.8873432677165356
20
-3.9942736614173229
11
6.8887351968503934
21
-3.9948502362204725
  0
ENDSEC
  0
EOF
