  0
SECTION
  2
HEADER
  9
$ANGBASE
  50
0.0
  9
$ANGDIR
  70
1
  9
$MEASUREMENT
  70
0
  0
ENDSEC
  0
SECTION
  2
TABLES
  0
TABLE
  2
LTYPE
  70
4
  0
LTYPE
  5
40F
  2
CONTINUOUS
  70
0
  3
Solid line
  72
65
  73
0
  40
0.0
  0
LTYPE
  5
410
  2
DASHDOT
 70
0
  3
Dash Dot ____ _ ____ _
 72
65
 73
4
 40
2.0
 49
1.25
 49
-0.25
 49
0.25
 49
-0.25
  0
LTYPE
  5
411
  2
DASHED
 70
0
  3
Dashed __ __ __ __ __
 72
65
 73
2
 40
0.75
 49
0.5
 49
-0.25
  0
LTYPE
  5
43B
  2
DOTTED
 70
0
  3
Dotted .  .  .  .
 72
65
 73
2
 40
0.2
 49
0.0
 49
-0.2
  0
ENDTAB
  0
TABLE
  2
STYLE
  70
4
  0
STYLE
  2
KICAD
  70
0
  40
0
  41
1
  42
1
  50
0
  71
0
  3
isocp.shx
  0
STYLE
  2
KICADB
  70
0
  40
0
  41
1
  42
1
  50
0
  71
0
  3
isocp.shx
  0
STYLE
  2
KICADI
  70
0
  40
0
  41
1
  42
1
  50
15
  71
0
  3
isocp.shx
  0
STYLE
  2
KICADBI
  70
0
  40
0
  41
1
  42
1
  50
15
  71
0
  3
isocp.shx
  0
ENDTAB
  0
TABLE
  2
LAYER
  70
1
  0
LAYER
  2
BLACK
  70
0
  62
7
  6
CONTINUOUS
  0
ENDTAB
  0
ENDSEC
  0
SECTION
  2
ENTITIES
0
LINE
8
BLACK
6
CONTINUOUS
10
6.6425629921259839
20
-3.5369527559055118
11
6.643258976377953
21
-3.5372410236220473
0
LINE
8
BLACK
6
CONTINUOUS
10
6.643258976377953
20
-3.5372410236220473
11
6.6435472440944876
21
-3.5379370078740155
0
LINE
8
BLACK
6
CONTINUOUS
10
6.6435472440944876
20
-3.5379370078740155
11
6.6435472440944876
21
-4.7300629921259842
0
LINE
8
BLACK
6
CONTINUOUS
10
6.6435472440944876
20
-4.7300629921259842
11
6.643258976377953
21
-4.7307589763779525
0
LINE
8
BLACK
6
CONTINUOUS
10
6.643258976377953
20
-4.7307589763779525
11
6.6425629921259839
21
-4.731047244094488
0
LINE
8
BLACK
6
CONTINUOUS
10
6.6425629921259839
20
-4.731047244094488
11
5.0504370078740157
21
-4.731047244094488
0
LINE
8
BLACK
6
CONTINUOUS
10
5.0504370078740157
20
-4.731047244094488
11
5.0497410236220475
21
-4.7307589763779525
0
LINE
8
BLACK
6
CONTINUOUS
10
5.0497410236220475
20
-4.7307589763779525
11
5.049452755905512
21
-4.7300629921259842
0
LINE
8
BLACK
6
CONTINUOUS
10
5.049452755905512
20
-4.7300629921259842
11
5.049452755905512
21
-3.5379370078740155
0
LINE
8
BLACK
6
CONTINUOUS
10
5.049452755905512
20
-3.5379370078740155
11
5.0497410236220475
21
-3.5372410236220473
0
LINE
8
BLACK
6
CONTINUOUS
10
5.0497410236220475
20
-3.5372410236220473
11
5.0504370078740157
21
-3.5369527559055118
0
LINE
8
BLACK
6
CONTINUOUS
10
5.0504370078740157
20
-3.5369527559055118
11
6.6425629921259839
21
-3.5369527559055118
0
LINE
8
BLACK
6
CONTINUOUS
10
5.0514212598425194
20
-3.5389212598425197
11
5.0514212598425194
21
-4.7290787401574805
0
LINE
8
BLACK
6
CONTINUOUS
10
5.0514212598425194
20
-4.7290787401574805
11
6.6415787401574802
21
-4.7290787401574805
0
LINE
8
BLACK
6
CONTINUOUS
10
6.6415787401574802
20
-4.7290787401574805
11
6.6415787401574802
21
-3.5389212598425197
0
LINE
8
BLACK
6
CONTINUOUS
10
6.6415787401574802
20
-3.5389212598425197
11
5.0514212598425194
21
-3.5389212598425197
  0
ENDSEC
  0
EOF
