  0
SECTION
  2
HEADER
  9
$ANGBASE
  50
0.0
  9
$ANGDIR
  70
1
  9
$MEASUREMENT
  70
0
  0
ENDSEC
  0
SECTION
  2
TABLES
  0
TABLE
  2
LTYPE
  70
4
  0
LTYPE
  5
40F
  2
CONTINUOUS
  70
0
  3
Solid line
  72
65
  73
0
  40
0.0
  0
LTYPE
  5
410
  2
DASHDOT
 70
0
  3
Dash Dot ____ _ ____ _
 72
65
 73
4
 40
2.0
 49
1.25
 49
-0.25
 49
0.25
 49
-0.25
  0
LTYPE
  5
411
  2
DASHED
 70
0
  3
Dashed __ __ __ __ __
 72
65
 73
2
 40
0.75
 49
0.5
 49
-0.25
  0
LTYPE
  5
43B
  2
DOTTED
 70
0
  3
Dotted .  .  .  .
 72
65
 73
2
 40
0.2
 49
0.0
 49
-0.2
  0
ENDTAB
  0
TABLE
  2
STYLE
  70
4
  0
STYLE
  2
KICAD
  70
0
  40
0
  41
1
  42
1
  50
0
  71
0
  3
isocp.shx
  0
STYLE
  2
KICADB
  70
0
  40
0
  41
1
  42
1
  50
0
  71
0
  3
isocp.shx
  0
STYLE
  2
KICADI
  70
0
  40
0
  41
1
  42
1
  50
15
  71
0
  3
isocp.shx
  0
STYLE
  2
KICADBI
  70
0
  40
0
  41
1
  42
1
  50
15
  71
0
  3
isocp.shx
  0
ENDTAB
  0
TABLE
  2
LAYER
  70
1
  0
LAYER
  2
BLACK
  70
0
  62
7
  6
CONTINUOUS
  0
ENDTAB
  0
ENDSEC
  0
SECTION
  2
ENTITIES
0
LINE
8
BLACK
6
CONTINUOUS
10
5.6227007874015751
20
-4.6165000000000003
11
5.5577007874015747
21
-4.6165000000000003
0
LINE
8
BLACK
6
CONTINUOUS
10
5.5577007874015747
20
-4.6165000000000003
11
5.5577007874015747
21
-4.5514999999999999
0
LINE
8
BLACK
6
CONTINUOUS
10
5.5577007874015747
20
-4.5514999999999999
11
5.6227007874015751
21
-4.5514999999999999
0
LINE
8
BLACK
6
CONTINUOUS
10
5.6227007874015751
20
-4.5514999999999999
11
5.6227007874015751
21
-4.6165000000000003
0
LINE
8
BLACK
6
CONTINUOUS
10
5.9538031496062986
20
-4.6165000000000003
11
5.8888031496062991
21
-4.6165000000000003
0
LINE
8
BLACK
6
CONTINUOUS
10
5.8888031496062991
20
-4.6165000000000003
11
5.8888031496062991
21
-4.5514999999999999
0
LINE
8
BLACK
6
CONTINUOUS
10
5.8888031496062991
20
-4.5514999999999999
11
5.9538031496062986
21
-4.5514999999999999
0
LINE
8
BLACK
6
CONTINUOUS
10
5.9538031496062986
20
-4.5514999999999999
11
5.9538031496062986
21
-4.6165000000000003
0
LINE
8
BLACK
6
CONTINUOUS
10
5.7227007874015747
20
-4.6165000000000003
11
5.6577007874015743
21
-4.6165000000000003
0
LINE
8
BLACK
6
CONTINUOUS
10
5.6577007874015743
20
-4.6165000000000003
11
5.6577007874015743
21
-4.5514999999999999
0
LINE
8
BLACK
6
CONTINUOUS
10
5.6577007874015743
20
-4.5514999999999999
11
5.7227007874015747
21
-4.5514999999999999
0
LINE
8
BLACK
6
CONTINUOUS
10
5.7227007874015747
20
-4.5514999999999999
11
5.7227007874015747
21
-4.6165000000000003
0
LINE
8
BLACK
6
CONTINUOUS
10
5.6227007874015751
20
-4.5164999999999997
11
5.5577007874015747
21
-4.5164999999999997
0
LINE
8
BLACK
6
CONTINUOUS
10
5.5577007874015747
20
-4.5164999999999997
11
5.5577007874015747
21
-4.4515000000000002
0
LINE
8
BLACK
6
CONTINUOUS
10
5.5577007874015747
20
-4.4515000000000002
11
5.6227007874015751
21
-4.4515000000000002
0
LINE
8
BLACK
6
CONTINUOUS
10
5.6227007874015751
20
-4.4515000000000002
11
5.6227007874015751
21
-4.5164999999999997
0
LINE
8
BLACK
6
CONTINUOUS
10
5.7227007874015747
20
-4.5164999999999997
11
5.6577007874015743
21
-4.5164999999999997
0
LINE
8
BLACK
6
CONTINUOUS
10
5.6577007874015743
20
-4.5164999999999997
11
5.6577007874015743
21
-4.4515000000000002
0
LINE
8
BLACK
6
CONTINUOUS
10
5.6577007874015743
20
-4.4515000000000002
11
5.7227007874015747
21
-4.4515000000000002
0
LINE
8
BLACK
6
CONTINUOUS
10
5.7227007874015747
20
-4.4515000000000002
11
5.7227007874015747
21
-4.5164999999999997
0
LINE
8
BLACK
6
CONTINUOUS
10
5.9538031496062986
20
-4.5164999999999997
11
5.8888031496062991
21
-4.5164999999999997
0
LINE
8
BLACK
6
CONTINUOUS
10
5.8888031496062991
20
-4.5164999999999997
11
5.8888031496062991
21
-4.4515000000000002
0
LINE
8
BLACK
6
CONTINUOUS
10
5.8888031496062991
20
-4.4515000000000002
11
5.9538031496062986
21
-4.4515000000000002
0
LINE
8
BLACK
6
CONTINUOUS
10
5.9538031496062986
20
-4.4515000000000002
11
5.9538031496062986
21
-4.5164999999999997
0
LINE
8
BLACK
6
CONTINUOUS
10
5.5862258661417323
20
-4.1608611417322834
11
5.5909695275590554
21
-4.1639097244094483
0
LINE
8
BLACK
6
CONTINUOUS
10
5.5909695275590554
20
-4.1639097244094483
11
5.5946621653543307
21
-4.16817125984252
0
LINE
8
BLACK
6
CONTINUOUS
10
5.5946621653543307
20
-4.16817125984252
11
5.5970046062992127
21
-4.1733004724409444
0
LINE
8
BLACK
6
CONTINUOUS
10
5.5970046062992127
20
-4.1733004724409444
11
5.5978070866141731
21
-4.1788818897637796
0
LINE
8
BLACK
6
CONTINUOUS
10
5.5978070866141731
20
-4.1788818897637796
11
5.5970046062992127
21
-4.184463307086614
0
LINE
8
BLACK
6
CONTINUOUS
10
5.5970046062992127
20
-4.184463307086614
11
5.5962072440944883
21
-4.1862091732283462
0
LINE
8
BLACK
6
CONTINUOUS
10
5.5962072440944883
20
-4.1862091732283462
11
5.5970148425196848
21
-4.1872218503937004
0
LINE
8
BLACK
6
CONTINUOUS
10
5.5970148425196848
20
-4.1872218503937004
11
5.5971160629921259
21
-4.1876653937007875
0
LINE
8
BLACK
6
CONTINUOUS
10
5.5971160629921259
20
-4.1876653937007875
11
5.5973581496062987
21
-4.1880506692913384
0
LINE
8
BLACK
6
CONTINUOUS
10
5.5973581496062987
20
-4.1880506692913384
11
5.5975083858267718
21
-4.1893843307086609
0
LINE
8
BLACK
6
CONTINUOUS
10
5.5975083858267718
20
-4.1893843307086609
11
5.5978070866141731
21
-4.1906929133858268
0
LINE
8
BLACK
6
CONTINUOUS
10
5.5978070866141731
20
-4.1906929133858268
11
5.5978070866141731
21
-4.3737637795275592
0
LINE
8
BLACK
6
CONTINUOUS
10
5.5978070866141731
20
-4.3737637795275592
11
5.5975083858267718
21
-4.3750723228346455
0
LINE
8
BLACK
6
CONTINUOUS
10
5.5975083858267718
20
-4.3750723228346455
11
5.5973581496062987
21
-4.3764060236220468
0
LINE
8
BLACK
6
CONTINUOUS
10
5.5973581496062987
20
-4.3764060236220468
11
5.5971160629921259
21
-4.3767912598425198
0
LINE
8
BLACK
6
CONTINUOUS
10
5.5971160629921259
20
-4.3767912598425198
11
5.5970148425196848
21
-4.3772348425196848
0
LINE
8
BLACK
6
CONTINUOUS
10
5.5970148425196848
20
-4.3772348425196848
11
5.596177992125984
21
-4.3782841732283462
0
LINE
8
BLACK
6
CONTINUOUS
10
5.596177992125984
20
-4.3782841732283462
11
5.5954639370078736
21
-4.3794206299212597
0
LINE
8
BLACK
6
CONTINUOUS
10
5.5954639370078736
20
-4.3794206299212597
11
5.5600308661417319
21
-4.4148537007874014
0
LINE
8
BLACK
6
CONTINUOUS
10
5.5600308661417319
20
-4.4148537007874014
11
5.5588944094488184
21
-4.4155677559055118
0
LINE
8
BLACK
6
CONTINUOUS
10
5.5588944094488184
20
-4.4155677559055118
11
5.557845078740157
21
-4.4164046062992126
0
LINE
8
BLACK
6
CONTINUOUS
10
5.557845078740157
20
-4.4164046062992126
11
5.5574014960629921
21
-4.4165058267716537
0
LINE
8
BLACK
6
CONTINUOUS
10
5.5574014960629921
20
-4.4165058267716537
11
5.5570162598425199
21
-4.4167479133858265
0
LINE
8
BLACK
6
CONTINUOUS
10
5.5570162598425199
20
-4.4167479133858265
11
5.5556825590551178
21
-4.4168981496062987
0
LINE
8
BLACK
6
CONTINUOUS
10
5.5556825590551178
20
-4.4168981496062987
11
5.5543740157480315
21
-4.4171968503937009
0
LINE
8
BLACK
6
CONTINUOUS
10
5.5543740157480315
20
-4.4171968503937009
11
5.4619725196850393
21
-4.4171968503937009
0
LINE
8
BLACK
6
CONTINUOUS
10
5.4619725196850393
20
-4.4171968503937009
11
5.4610482677165351
21
-4.4182635039370082
0
LINE
8
BLACK
6
CONTINUOUS
10
5.4610482677165351
20
-4.4182635039370082
11
5.4563046062992129
21
-4.4213120866141731
0
LINE
8
BLACK
6
CONTINUOUS
10
5.4563046062992129
20
-4.4213120866141731
11
5.450894212598425
21
-4.4229007086614169
0
LINE
8
BLACK
6
CONTINUOUS
10
5.450894212598425
20
-4.4229007086614169
11
5.445255393700787
21
-4.4229007086614169
0
LINE
8
BLACK
6
CONTINUOUS
10
5.445255393700787
20
-4.4229007086614169
11
5.439845
21
-4.4213120866141731
0
LINE
8
BLACK
6
CONTINUOUS
10
5.439845
20
-4.4213120866141731
11
5.435101338582677
21
-4.4182635039370082
0
LINE
8
BLACK
6
CONTINUOUS
10
5.435101338582677
20
-4.4182635039370082
11
5.4314087007874017
21
-4.4140019685039373
0
LINE
8
BLACK
6
CONTINUOUS
10
5.4314087007874017
20
-4.4140019685039373
11
5.4290662598425197
21
-4.4088727559055121
0
LINE
8
BLACK
6
CONTINUOUS
10
5.4290662598425197
20
-4.4088727559055121
11
5.4282637795275592
21
-4.4032913385826769
0
LINE
8
BLACK
6
CONTINUOUS
10
5.4282637795275592
20
-4.4032913385826769
11
5.4290662598425197
21
-4.3977099212598425
0
LINE
8
BLACK
6
CONTINUOUS
10
5.4290662598425197
20
-4.3977099212598425
11
5.4314087007874017
21
-4.3925807086614173
0
LINE
8
BLACK
6
CONTINUOUS
10
5.4314087007874017
20
-4.3925807086614173
11
5.435101338582677
21
-4.3883191732283464
0
LINE
8
BLACK
6
CONTINUOUS
10
5.435101338582677
20
-4.3883191732283464
11
5.439845
21
-4.3852705905511806
0
LINE
8
BLACK
6
CONTINUOUS
10
5.439845
20
-4.3852705905511806
11
5.445255393700787
21
-4.3836819685039368
0
LINE
8
BLACK
6
CONTINUOUS
10
5.445255393700787
20
-4.3836819685039368
11
5.450894212598425
21
-4.3836819685039368
0
LINE
8
BLACK
6
CONTINUOUS
10
5.450894212598425
20
-4.3836819685039368
11
5.4563046062992129
21
-4.3852705905511806
0
LINE
8
BLACK
6
CONTINUOUS
10
5.4563046062992129
20
-4.3852705905511806
11
5.4610482677165351
21
-4.3883191732283464
0
LINE
8
BLACK
6
CONTINUOUS
10
5.4610482677165351
20
-4.3883191732283464
11
5.4647409055118112
21
-4.3925807086614173
0
LINE
8
BLACK
6
CONTINUOUS
10
5.4647409055118112
20
-4.3925807086614173
11
5.4670833464566924
21
-4.3977099212598425
0
LINE
8
BLACK
6
CONTINUOUS
10
5.4670833464566924
20
-4.3977099212598425
11
5.4675846850393697
21
-4.4011968503937009
0
LINE
8
BLACK
6
CONTINUOUS
10
5.4675846850393697
20
-4.4011968503937009
11
5.5510603149606297
21
-4.4011968503937009
0
LINE
8
BLACK
6
CONTINUOUS
10
5.5510603149606297
20
-4.4011968503937009
11
5.5818070866141731
21
-4.3704500787401575
0
LINE
8
BLACK
6
CONTINUOUS
10
5.5818070866141731
20
-4.3704500787401575
11
5.5818070866141731
21
-4.1982000787401574
0
LINE
8
BLACK
6
CONTINUOUS
10
5.5818070866141731
20
-4.1982000787401574
11
5.5808154724409444
21
-4.1984912598425197
0
LINE
8
BLACK
6
CONTINUOUS
10
5.5808154724409444
20
-4.1984912598425197
11
5.5751766535433074
21
-4.1984912598425197
0
LINE
8
BLACK
6
CONTINUOUS
10
5.5751766535433074
20
-4.1984912598425197
11
5.5697662598425195
21
-4.1969026377952758
0
LINE
8
BLACK
6
CONTINUOUS
10
5.5697662598425195
20
-4.1969026377952758
11
5.5650225984251964
21
-4.19385405511811
0
LINE
8
BLACK
6
CONTINUOUS
10
5.5650225984251964
20
-4.19385405511811
11
5.5613299606299211
21
-4.1895925196850392
0
LINE
8
BLACK
6
CONTINUOUS
10
5.5613299606299211
20
-4.1895925196850392
11
5.5589875196850391
21
-4.184463307086614
0
LINE
8
BLACK
6
CONTINUOUS
10
5.5589875196850391
20
-4.184463307086614
11
5.5581850393700787
21
-4.1788818897637796
0
LINE
8
BLACK
6
CONTINUOUS
10
5.5581850393700787
20
-4.1788818897637796
11
5.5589875196850391
21
-4.1733004724409444
0
LINE
8
BLACK
6
CONTINUOUS
10
5.5589875196850391
20
-4.1733004724409444
11
5.5613299606299211
21
-4.16817125984252
0
LINE
8
BLACK
6
CONTINUOUS
10
5.5613299606299211
20
-4.16817125984252
11
5.5650225984251964
21
-4.1639097244094483
0
LINE
8
BLACK
6
CONTINUOUS
10
5.5650225984251964
20
-4.1639097244094483
11
5.5697662598425195
21
-4.1608611417322834
0
LINE
8
BLACK
6
CONTINUOUS
10
5.5697662598425195
20
-4.1608611417322834
11
5.5751766535433074
21
-4.1592725196850395
0
LINE
8
BLACK
6
CONTINUOUS
10
5.5751766535433074
20
-4.1592725196850395
11
5.5808154724409444
21
-4.1592725196850395
0
LINE
8
BLACK
6
CONTINUOUS
10
5.5808154724409444
20
-4.1592725196850395
11
5.5862258661417323
21
-4.1608611417322834
0
LINE
8
BLACK
6
CONTINUOUS
10
6.4290000000000003
20
-4.2609881889763779
11
6.3639999999999999
21
-4.2609881889763779
0
LINE
8
BLACK
6
CONTINUOUS
10
6.3639999999999999
20
-4.2609881889763779
11
6.3639999999999999
21
-4.1959881889763775
0
LINE
8
BLACK
6
CONTINUOUS
10
6.3639999999999999
20
-4.1959881889763775
11
6.4290000000000003
21
-4.1959881889763775
0
LINE
8
BLACK
6
CONTINUOUS
10
6.4290000000000003
20
-4.1959881889763775
11
6.4290000000000003
21
-4.2609881889763779
0
LINE
8
BLACK
6
CONTINUOUS
10
6.5289999999999999
20
-4.2609881889763779
11
6.4639999999999995
21
-4.2609881889763779
0
LINE
8
BLACK
6
CONTINUOUS
10
6.4639999999999995
20
-4.2609881889763779
11
6.4639999999999995
21
-4.1959881889763775
0
LINE
8
BLACK
6
CONTINUOUS
10
6.4639999999999995
20
-4.1959881889763775
11
6.5289999999999999
21
-4.1959881889763775
0
LINE
8
BLACK
6
CONTINUOUS
10
6.5289999999999999
20
-4.1959881889763775
11
6.5289999999999999
21
-4.2609881889763779
0
LINE
8
BLACK
6
CONTINUOUS
10
6.4290000000000003
20
-4.0145314960629923
11
6.3639999999999999
21
-4.0145314960629923
0
LINE
8
BLACK
6
CONTINUOUS
10
6.3639999999999999
20
-4.0145314960629923
11
6.3639999999999999
21
-3.9495314960629919
0
LINE
8
BLACK
6
CONTINUOUS
10
6.3639999999999999
20
-3.9495314960629919
11
6.4290000000000003
21
-3.9495314960629919
0
LINE
8
BLACK
6
CONTINUOUS
10
6.4290000000000003
20
-3.9495314960629919
11
6.4290000000000003
21
-4.0145314960629923
0
LINE
8
BLACK
6
CONTINUOUS
10
6.5289999999999999
20
-4.0145314960629923
11
6.4639999999999995
21
-4.0145314960629923
0
LINE
8
BLACK
6
CONTINUOUS
10
6.4639999999999995
20
-4.0145314960629923
11
6.4639999999999995
21
-3.9495314960629919
0
LINE
8
BLACK
6
CONTINUOUS
10
6.4639999999999995
20
-3.9495314960629919
11
6.5289999999999999
21
-3.9495314960629919
0
LINE
8
BLACK
6
CONTINUOUS
10
6.5289999999999999
20
-3.9495314960629919
11
6.5289999999999999
21
-4.0145314960629923
0
LINE
8
BLACK
6
CONTINUOUS
10
5.3426544488188972
20
-3.9112399606299211
11
5.3435557480314957
21
-3.9112399606299211
0
LINE
8
BLACK
6
CONTINUOUS
10
5.3435557480314957
20
-3.9112399606299211
11
5.3443677952755904
21
-3.9116309842519685
0
LINE
8
BLACK
6
CONTINUOUS
10
5.3443677952755904
20
-3.9116309842519685
11
5.345246653543307
21
-3.9118316141732281
0
LINE
8
BLACK
6
CONTINUOUS
10
5.345246653543307
20
-3.9118316141732281
11
5.3459513779527557
21
-3.9123936220472442
0
LINE
8
BLACK
6
CONTINUOUS
10
5.3459513779527557
20
-3.9123936220472442
11
5.3467635039370078
21
-3.9127847244094487
0
LINE
8
BLACK
6
CONTINUOUS
10
5.3467635039370078
20
-3.9127847244094487
11
5.3473254724409447
21
-3.9134894488188974
0
LINE
8
BLACK
6
CONTINUOUS
10
5.3473254724409447
20
-3.9134894488188974
11
5.3480302362204721
21
-3.9140514566929134
0
LINE
8
BLACK
6
CONTINUOUS
10
5.3480302362204721
20
-3.9140514566929134
11
5.3484212992125979
21
-3.9148635433070864
0
LINE
8
BLACK
6
CONTINUOUS
10
5.3484212992125979
20
-3.9148635433070864
11
5.3489833464566932
21
-3.9155683070866143
0
LINE
8
BLACK
6
CONTINUOUS
10
5.3489833464566932
20
-3.9155683070866143
11
5.349183937007874
21
-3.9164471259842517
0
LINE
8
BLACK
6
CONTINUOUS
10
5.349183937007874
20
-3.9164471259842517
11
5.3495749999999997
21
-3.9172592125984251
0
LINE
8
BLACK
6
CONTINUOUS
10
5.3495749999999997
20
-3.9172592125984251
11
5.3495749999999997
21
-3.9181605118110236
0
LINE
8
BLACK
6
CONTINUOUS
10
5.3495749999999997
20
-3.9181605118110236
11
5.3497755905511806
21
-3.9190393700787403
0
LINE
8
BLACK
6
CONTINUOUS
10
5.3497755905511806
20
-3.9190393700787403
11
5.3497755905511806
21
-3.93085031496063
0
LINE
8
BLACK
6
CONTINUOUS
10
5.3497755905511806
20
-3.93085031496063
11
5.3497755905511806
21
-3.9308503937007875
0
LINE
8
BLACK
6
CONTINUOUS
10
5.3497755905511806
20
-3.9308503937007875
11
5.3497755905511806
21
-3.9367558267716536
0
LINE
8
BLACK
6
CONTINUOUS
10
5.3497755905511806
20
-3.9367558267716536
11
5.3497755905511806
21
-3.9367559055118111
0
LINE
8
BLACK
6
CONTINUOUS
10
5.3497755905511806
20
-3.9367559055118111
11
5.3497755905511806
21
-3.9485668503937008
0
LINE
8
BLACK
6
CONTINUOUS
10
5.3497755905511806
20
-3.9485668503937008
11
5.3497755905511806
21
-3.9485669291338583
0
LINE
8
BLACK
6
CONTINUOUS
10
5.3497755905511806
20
-3.9485669291338583
11
5.3497755905511806
21
-3.9603779527559055
0
LINE
8
BLACK
6
CONTINUOUS
10
5.3497755905511806
20
-3.9603779527559055
11
5.3497755905511806
21
-3.9958109448818897
0
LINE
8
BLACK
6
CONTINUOUS
10
5.3497755905511806
20
-3.9958109448818897
11
5.3497755905511806
21
-3.9958110236220472
0
LINE
8
BLACK
6
CONTINUOUS
10
5.3497755905511806
20
-3.9958110236220472
11
5.3497755905511806
21
-4.0017165354330704
0
LINE
8
BLACK
6
CONTINUOUS
10
5.3497755905511806
20
-4.0017165354330704
11
5.3495749999999997
21
-4.0025953543307082
0
LINE
8
BLACK
6
CONTINUOUS
10
5.3495749999999997
20
-4.0025953543307082
11
5.3495749999999997
21
-4.0034966929133855
0
LINE
8
BLACK
6
CONTINUOUS
10
5.3495749999999997
20
-4.0034966929133855
11
5.349183937007874
21
-4.0043087401574802
0
LINE
8
BLACK
6
CONTINUOUS
10
5.349183937007874
20
-4.0043087401574802
11
5.3489833464566932
21
-4.0051875984251968
0
LINE
8
BLACK
6
CONTINUOUS
10
5.3489833464566932
20
-4.0051875984251968
11
5.3484212992125979
21
-4.0058923228346455
0
LINE
8
BLACK
6
CONTINUOUS
10
5.3484212992125979
20
-4.0058923228346455
11
5.3480302362204721
21
-4.0067044488188976
0
LINE
8
BLACK
6
CONTINUOUS
10
5.3480302362204721
20
-4.0067044488188976
11
5.3473254724409447
21
-4.0072664173228345
0
LINE
8
BLACK
6
CONTINUOUS
10
5.3473254724409447
20
-4.0072664173228345
11
5.3467635039370078
21
-4.0079711811023619
0
LINE
8
BLACK
6
CONTINUOUS
10
5.3467635039370078
20
-4.0079711811023619
11
5.3459513779527557
21
-4.0083622440944877
0
LINE
8
BLACK
6
CONTINUOUS
10
5.3459513779527557
20
-4.0083622440944877
11
5.345246653543307
21
-4.008924291338583
0
LINE
8
BLACK
6
CONTINUOUS
10
5.345246653543307
20
-4.008924291338583
11
5.3443677952755904
21
-4.0091248818897638
0
LINE
8
BLACK
6
CONTINUOUS
10
5.3443677952755904
20
-4.0091248818897638
11
5.3435557480314957
21
-4.0095159448818896
0
LINE
8
BLACK
6
CONTINUOUS
10
5.3435557480314957
20
-4.0095159448818896
11
5.3426544488188972
21
-4.0095159448818896
0
LINE
8
BLACK
6
CONTINUOUS
10
5.3426544488188972
20
-4.0095159448818896
11
5.3417755905511806
21
-4.0097165354330704
0
LINE
8
BLACK
6
CONTINUOUS
10
5.3417755905511806
20
-4.0097165354330704
11
5.099649606299212
21
-4.0097165354330704
0
LINE
8
BLACK
6
CONTINUOUS
10
5.099649606299212
20
-4.0097165354330704
11
5.0987707480314963
21
-4.0095159448818896
0
LINE
8
BLACK
6
CONTINUOUS
10
5.0987707480314963
20
-4.0095159448818896
11
5.0978694488188978
21
-4.0095159448818896
0
LINE
8
BLACK
6
CONTINUOUS
10
5.0978694488188978
20
-4.0095159448818896
11
5.0970573622047244
21
-4.0091248818897638
0
LINE
8
BLACK
6
CONTINUOUS
10
5.0970573622047244
20
-4.0091248818897638
11
5.0961785433070865
21
-4.008924291338583
0
LINE
8
BLACK
6
CONTINUOUS
10
5.0961785433070865
20
-4.008924291338583
11
5.0954737795275591
21
-4.0083622440944877
0
LINE
8
BLACK
6
CONTINUOUS
10
5.0954737795275591
20
-4.0083622440944877
11
5.0946616929133857
21
-4.0079711811023619
0
LINE
8
BLACK
6
CONTINUOUS
10
5.0946616929133857
20
-4.0079711811023619
11
5.0940996850393701
21
-4.0072664173228345
0
LINE
8
BLACK
6
CONTINUOUS
10
5.0940996850393701
20
-4.0072664173228345
11
5.0933949606299214
21
-4.0067044488188976
0
LINE
8
BLACK
6
CONTINUOUS
10
5.0933949606299214
20
-4.0067044488188976
11
5.0930038582677168
21
-4.0058923228346455
0
LINE
8
BLACK
6
CONTINUOUS
10
5.0930038582677168
20
-4.0058923228346455
11
5.0924418503937003
21
-4.0051875984251968
0
LINE
8
BLACK
6
CONTINUOUS
10
5.0924418503937003
20
-4.0051875984251968
11
5.0922412204724408
21
-4.0043087401574802
0
LINE
8
BLACK
6
CONTINUOUS
10
5.0922412204724408
20
-4.0043087401574802
11
5.0918501968503938
21
-4.0034966929133855
0
LINE
8
BLACK
6
CONTINUOUS
10
5.0918501968503938
20
-4.0034966929133855
11
5.0918501968503938
21
-4.0025953543307082
0
LINE
8
BLACK
6
CONTINUOUS
10
5.0918501968503938
20
-4.0025953543307082
11
5.091649606299212
21
-4.0017165354330704
0
LINE
8
BLACK
6
CONTINUOUS
10
5.091649606299212
20
-4.0017165354330704
11
5.091649606299212
21
-3.9958110236220472
0
LINE
8
BLACK
6
CONTINUOUS
10
5.091649606299212
20
-3.9958110236220472
11
5.091649606299212
21
-3.9958109448818897
0
LINE
8
BLACK
6
CONTINUOUS
10
5.091649606299212
20
-3.9958109448818897
11
5.091649606299212
21
-3.9721889763779528
0
LINE
8
BLACK
6
CONTINUOUS
10
5.091649606299212
20
-3.9721889763779528
11
5.091649606299212
21
-3.9662834645669292
0
LINE
8
BLACK
6
CONTINUOUS
10
5.091649606299212
20
-3.9662834645669292
11
5.091649606299212
21
-3.9662833858267716
0
LINE
8
BLACK
6
CONTINUOUS
10
5.091649606299212
20
-3.9662833858267716
11
5.091649606299212
21
-3.9544724409448819
0
LINE
8
BLACK
6
CONTINUOUS
10
5.091649606299212
20
-3.9544724409448819
11
5.091649606299212
21
-3.9544723622047244
0
LINE
8
BLACK
6
CONTINUOUS
10
5.091649606299212
20
-3.9544723622047244
11
5.091649606299212
21
-3.9485669291338583
0
LINE
8
BLACK
6
CONTINUOUS
10
5.091649606299212
20
-3.9485669291338583
11
5.091649606299212
21
-3.9485668503937008
0
LINE
8
BLACK
6
CONTINUOUS
10
5.091649606299212
20
-3.9485668503937008
11
5.091649606299212
21
-3.9367559055118111
0
LINE
8
BLACK
6
CONTINUOUS
10
5.091649606299212
20
-3.9367559055118111
11
5.091649606299212
21
-3.9367558267716536
0
LINE
8
BLACK
6
CONTINUOUS
10
5.091649606299212
20
-3.9367558267716536
11
5.091649606299212
21
-3.9190393700787403
0
LINE
8
BLACK
6
CONTINUOUS
10
5.091649606299212
20
-3.9190393700787403
11
5.0918501968503938
21
-3.9181605118110236
0
LINE
8
BLACK
6
CONTINUOUS
10
5.0918501968503938
20
-3.9181605118110236
11
5.0918501968503938
21
-3.9172592125984251
0
LINE
8
BLACK
6
CONTINUOUS
10
5.0918501968503938
20
-3.9172592125984251
11
5.0922412204724408
21
-3.9164471259842517
0
LINE
8
BLACK
6
CONTINUOUS
10
5.0922412204724408
20
-3.9164471259842517
11
5.0924418503937003
21
-3.9155683070866143
0
LINE
8
BLACK
6
CONTINUOUS
10
5.0924418503937003
20
-3.9155683070866143
11
5.0930038582677168
21
-3.9148635433070864
0
LINE
8
BLACK
6
CONTINUOUS
10
5.0930038582677168
20
-3.9148635433070864
11
5.0933949606299214
21
-3.9140514566929134
0
LINE
8
BLACK
6
CONTINUOUS
10
5.0933949606299214
20
-3.9140514566929134
11
5.0940996850393701
21
-3.9134894488188974
0
LINE
8
BLACK
6
CONTINUOUS
10
5.0940996850393701
20
-3.9134894488188974
11
5.0946616929133857
21
-3.9127847244094487
0
LINE
8
BLACK
6
CONTINUOUS
10
5.0946616929133857
20
-3.9127847244094487
11
5.0954737795275591
21
-3.9123936220472442
0
LINE
8
BLACK
6
CONTINUOUS
10
5.0954737795275591
20
-3.9123936220472442
11
5.0961785433070865
21
-3.9118316141732281
0
LINE
8
BLACK
6
CONTINUOUS
10
5.0961785433070865
20
-3.9118316141732281
11
5.0970573622047244
21
-3.9116309842519685
0
LINE
8
BLACK
6
CONTINUOUS
10
5.0970573622047244
20
-3.9116309842519685
11
5.0978694488188978
21
-3.9112399606299211
0
LINE
8
BLACK
6
CONTINUOUS
10
5.0978694488188978
20
-3.9112399606299211
11
5.0987707480314963
21
-3.9112399606299211
0
LINE
8
BLACK
6
CONTINUOUS
10
5.0987707480314963
20
-3.9112399606299211
11
5.099649606299212
21
-3.9110393700787403
0
LINE
8
BLACK
6
CONTINUOUS
10
5.099649606299212
20
-3.9110393700787403
11
5.3417755905511806
21
-3.9110393700787403
0
LINE
8
BLACK
6
CONTINUOUS
10
5.3417755905511806
20
-3.9110393700787403
11
5.3426544488188972
21
-3.9112399606299211
0
LINE
8
BLACK
6
CONTINUOUS
10
6.6399264173228341
20
-3.5396973622047243
11
6.6413651968503933
21
-3.5416776771653544
0
LINE
8
BLACK
6
CONTINUOUS
10
6.6413651968503933
20
-3.5416776771653544
11
6.6415590551181101
21
-3.5429015748031496
0
LINE
8
BLACK
6
CONTINUOUS
10
6.6415590551181101
20
-3.5429015748031496
11
6.6415590551181101
21
-4.7250984251968502
0
LINE
8
BLACK
6
CONTINUOUS
10
6.6415590551181101
20
-4.7250984251968502
11
6.6408026377952751
21
-4.7274264173228344
0
LINE
8
BLACK
6
CONTINUOUS
10
6.6408026377952751
20
-4.7274264173228344
11
6.6388223228346455
21
-4.7288651968503936
0
LINE
8
BLACK
6
CONTINUOUS
10
6.6388223228346455
20
-4.7288651968503936
11
6.6375984251968498
21
-4.7290590551181104
0
LINE
8
BLACK
6
CONTINUOUS
10
6.6375984251968498
20
-4.7290590551181104
11
5.0554015748031498
21
-4.7290590551181104
0
LINE
8
BLACK
6
CONTINUOUS
10
5.0554015748031498
20
-4.7290590551181104
11
5.0530735826771656
21
-4.7283026377952755
0
LINE
8
BLACK
6
CONTINUOUS
10
5.0530735826771656
20
-4.7283026377952755
11
5.0516348031496063
21
-4.7263223228346458
0
LINE
8
BLACK
6
CONTINUOUS
10
5.0516348031496063
20
-4.7263223228346458
11
5.0514409448818895
21
-4.7250984251968502
0
LINE
8
BLACK
6
CONTINUOUS
10
5.0514409448818895
20
-4.7250984251968502
11
5.0514409448818895
21
-4.5429842519685035
0
LINE
8
BLACK
6
CONTINUOUS
10
5.0514409448818895
20
-4.5429842519685035
11
5.0514409448818895
21
-4.0603070866141735
0
LINE
8
BLACK
6
CONTINUOUS
10
5.0514409448818895
20
-4.0603070866141735
11
5.0514409448818895
21
-4.0017166141732279
0
LINE
8
BLACK
6
CONTINUOUS
10
5.0514409448818895
20
-4.0017166141732279
11
5.0514409448818895
21
-3.7429842519685037
0
LINE
8
BLACK
6
CONTINUOUS
10
5.0514409448818895
20
-3.7429842519685037
11
5.0514409448818895
21
-3.5429015748031496
0
LINE
8
BLACK
6
CONTINUOUS
10
5.0514409448818895
20
-3.5429015748031496
11
5.0521973622047245
21
-3.5405735826771654
0
LINE
8
BLACK
6
CONTINUOUS
10
5.0521973622047245
20
-3.5405735826771654
11
5.0541776771653542
21
-3.5391348031496062
0
LINE
8
BLACK
6
CONTINUOUS
10
5.0541776771653542
20
-3.5391348031496062
11
5.0554015748031498
21
-3.5389409448818898
0
LINE
8
BLACK
6
CONTINUOUS
10
5.0554015748031498
20
-3.5389409448818898
11
6.6375984251968498
21
-3.5389409448818898
0
LINE
8
BLACK
6
CONTINUOUS
10
6.6375984251968498
20
-3.5389409448818898
11
6.6399264173228341
21
-3.5396973622047243
0
LINE
8
BLACK
6
CONTINUOUS
10
5.3729954724409446
20
-4.5429842519685035
11
5.372701456692913
21
-4.5482194881889759
0
LINE
8
BLACK
6
CONTINUOUS
10
5.372701456692913
20
-4.5482194881889759
11
5.3703158267716535
21
-4.5622601574803152
0
LINE
8
BLACK
6
CONTINUOUS
10
5.3703158267716535
20
-4.5622601574803152
11
5.3663731889763779
21
-4.5759454330708662
0
LINE
8
BLACK
6
CONTINUOUS
10
5.3663731889763779
20
-4.5759454330708662
11
5.3609230314960632
21
-4.589103228346457
0
LINE
8
BLACK
6
CONTINUOUS
10
5.3609230314960632
20
-4.589103228346457
11
5.354033976377953
21
-4.6015680708661417
0
LINE
8
BLACK
6
CONTINUOUS
10
5.354033976377953
20
-4.6015680708661417
11
5.3457925984251968
21
-4.6131831889763779
0
LINE
8
BLACK
6
CONTINUOUS
10
5.3457925984251968
20
-4.6131831889763779
11
5.3363025590551176
21
-4.6238025590551182
0
LINE
8
BLACK
6
CONTINUOUS
10
5.3363025590551176
20
-4.6238025590551182
11
5.3256831889763783
21
-4.6332925984251965
0
LINE
8
BLACK
6
CONTINUOUS
10
5.3256831889763783
20
-4.6332925984251965
11
5.3140680708661412
21
-4.6415339763779526
0
LINE
8
BLACK
6
CONTINUOUS
10
5.3140680708661412
20
-4.6415339763779526
11
5.3016032283464565
21
-4.6484230314960628
0
LINE
8
BLACK
6
CONTINUOUS
10
5.3016032283464565
20
-4.6484230314960628
11
5.2884454330708657
21
-4.6538731889763776
0
LINE
8
BLACK
6
CONTINUOUS
10
5.2884454330708657
20
-4.6538731889763776
11
5.2747601574803147
21
-4.6578158267716532
0
LINE
8
BLACK
6
CONTINUOUS
10
5.2747601574803147
20
-4.6578158267716532
11
5.2607194881889763
21
-4.6602014566929135
0
LINE
8
BLACK
6
CONTINUOUS
10
5.2607194881889763
20
-4.6602014566929135
11
5.2554842519685039
21
-4.6604954330708663
0
LINE
8
BLACK
6
CONTINUOUS
10
5.2554842519685039
20
-4.6604954330708663
11
5.2554842519685039
21
-4.6786965354330707
0
LINE
8
BLACK
6
CONTINUOUS
10
5.2554842519685039
20
-4.6786965354330707
11
5.2554842913385826
21
-4.6786965748031495
0
LINE
8
BLACK
6
CONTINUOUS
10
5.2554842913385826
20
-4.6786965748031495
11
5.2616744881889765
21
-4.6783721653543306
0
LINE
8
BLACK
6
CONTINUOUS
10
5.2616744881889765
20
-4.6783721653543306
11
5.2766816141732278
21
-4.675995236220472
0
LINE
8
BLACK
6
CONTINUOUS
10
5.2766816141732278
20
-4.675995236220472
11
5.2766824803149603
21
-4.6759950393700782
0
LINE
8
BLACK
6
CONTINUOUS
10
5.2766824803149603
20
-4.6759950393700782
11
5.2913592519685038
21
-4.6720624015748031
0
LINE
8
BLACK
6
CONTINUOUS
10
5.2913592519685038
20
-4.6720624015748031
11
5.3055445669291341
21
-4.6666171653543307
0
LINE
8
BLACK
6
CONTINUOUS
10
5.3055445669291341
20
-4.6666171653543307
11
5.3055453543307083
21
-4.6666168110236219
0
LINE
8
BLACK
6
CONTINUOUS
10
5.3055453543307083
20
-4.6666168110236219
11
5.3190834251968502
21
-4.6597188582677163
0
LINE
8
BLACK
6
CONTINUOUS
10
5.3190834251968502
20
-4.6597188582677163
11
5.3190837007874014
21
-4.6597187007874012
0
LINE
8
BLACK
6
CONTINUOUS
10
5.3190837007874014
20
-4.6597187007874012
11
5.3318271653543308
21
-4.6514429527559056
0
LINE
8
BLACK
6
CONTINUOUS
10
5.3318271653543308
20
-4.6514429527559056
11
5.3318273622047245
21
-4.6514427952755906
0
LINE
8
BLACK
6
CONTINUOUS
10
5.3318273622047245
20
-4.6514427952755906
11
5.3436360236220475
21
-4.6418803543307083
0
LINE
8
BLACK
6
CONTINUOUS
10
5.3436360236220475
20
-4.6418803543307083
11
5.3543803543307087
21
-4.6311360236220471
0
LINE
8
BLACK
6
CONTINUOUS
10
5.3543803543307087
20
-4.6311360236220471
11
5.36394279527559
21
-4.6193273622047242
0
LINE
8
BLACK
6
CONTINUOUS
10
5.36394279527559
20
-4.6193273622047242
11
5.363942952755905
21
-4.6193271653543304
0
LINE
8
BLACK
6
CONTINUOUS
10
5.363942952755905
20
-4.6193271653543304
11
5.3652659842519688
21
-4.6172898818897634
0
LINE
8
BLACK
6
CONTINUOUS
10
5.3652659842519688
20
-4.6172898818897634
11
5.3722187007874016
21
-4.6065837007874011
0
LINE
8
BLACK
6
CONTINUOUS
10
5.3722187007874016
20
-4.6065837007874011
11
5.3722188582677166
21
-4.6065834251968507
0
LINE
8
BLACK
6
CONTINUOUS
10
5.3722188582677166
20
-4.6065834251968507
11
5.3791168110236223
21
-4.5930453543307088
0
LINE
8
BLACK
6
CONTINUOUS
10
5.3791168110236223
20
-4.5930453543307088
11
5.3791171653543302
21
-4.5930445669291338
0
LINE
8
BLACK
6
CONTINUOUS
10
5.3791171653543302
20
-4.5930445669291338
11
5.3845624015748026
21
-4.5788592519685034
0
LINE
8
BLACK
6
CONTINUOUS
10
5.3845624015748026
20
-4.5788592519685034
11
5.3884950393700786
21
-4.5641824803149609
0
LINE
8
BLACK
6
CONTINUOUS
10
5.3884950393700786
20
-4.5641824803149609
11
5.3884952362204723
21
-4.5641816141732283
0
LINE
8
BLACK
6
CONTINUOUS
10
5.3884952362204723
20
-4.5641816141732283
11
5.390872165354331
21
-4.5491745275590549
0
LINE
8
BLACK
6
CONTINUOUS
10
5.390872165354331
20
-4.5491745275590549
11
5.390872165354331
21
-4.5491744488188974
0
LINE
8
BLACK
6
CONTINUOUS
10
5.390872165354331
20
-4.5491744488188974
11
5.3911965748031498
21
-4.5429842519685035
0
LINE
8
BLACK
6
CONTINUOUS
10
5.3911965748031498
20
-4.5429842519685035
11
5.3729954724409446
21
-4.5429842519685035
0
LINE
8
BLACK
6
CONTINUOUS
10
6.3018033858267719
20
-4.5429842519685035
11
6.3021277952755907
21
-4.5491744488188974
0
LINE
8
BLACK
6
CONTINUOUS
10
6.3021277952755907
20
-4.5491744488188974
11
6.3021277952755907
21
-4.5491745275590549
0
LINE
8
BLACK
6
CONTINUOUS
10
6.3021277952755907
20
-4.5491745275590549
11
6.3045047244094485
21
-4.5641816141732283
0
LINE
8
BLACK
6
CONTINUOUS
10
6.3045047244094485
20
-4.5641816141732283
11
6.3045049212598423
21
-4.5641824803149609
0
LINE
8
BLACK
6
CONTINUOUS
10
6.3045049212598423
20
-4.5641824803149609
11
6.3084375590551183
21
-4.5788592519685034
0
LINE
8
BLACK
6
CONTINUOUS
10
6.3084375590551183
20
-4.5788592519685034
11
6.3138827952755907
21
-4.5930445669291338
0
LINE
8
BLACK
6
CONTINUOUS
10
6.3138827952755907
20
-4.5930445669291338
11
6.3138831496062995
21
-4.5930453543307088
0
LINE
8
BLACK
6
CONTINUOUS
10
6.3138831496062995
20
-4.5930453543307088
11
6.3207811023622043
21
-4.6065834251968507
0
LINE
8
BLACK
6
CONTINUOUS
10
6.3207811023622043
20
-4.6065834251968507
11
6.3207812598425193
21
-4.6065837007874011
0
LINE
8
BLACK
6
CONTINUOUS
10
6.3207812598425193
20
-4.6065837007874011
11
6.3290570078740158
21
-4.6193271653543304
0
LINE
8
BLACK
6
CONTINUOUS
10
6.3290570078740158
20
-4.6193271653543304
11
6.3290571653543308
21
-4.6193273622047242
0
LINE
8
BLACK
6
CONTINUOUS
10
6.3290571653543308
20
-4.6193273622047242
11
6.3386196062992122
21
-4.6311360236220471
0
LINE
8
BLACK
6
CONTINUOUS
10
6.3386196062992122
20
-4.6311360236220471
11
6.3493639370078743
21
-4.6418803543307083
0
LINE
8
BLACK
6
CONTINUOUS
10
6.3493639370078743
20
-4.6418803543307083
11
6.3611725984251963
21
-4.6514427952755906
0
LINE
8
BLACK
6
CONTINUOUS
10
6.3611725984251963
20
-4.6514427952755906
11
6.3611727952755901
21
-4.6514429527559056
0
LINE
8
BLACK
6
CONTINUOUS
10
6.3611727952755901
20
-4.6514429527559056
11
6.3739162598425194
21
-4.6597187007874012
0
LINE
8
BLACK
6
CONTINUOUS
10
6.3739162598425194
20
-4.6597187007874012
11
6.3739165354330707
21
-4.6597188582677163
0
LINE
8
BLACK
6
CONTINUOUS
10
6.3739165354330707
20
-4.6597188582677163
11
6.3874546062992126
21
-4.6666168110236219
0
LINE
8
BLACK
6
CONTINUOUS
10
6.3874546062992126
20
-4.6666168110236219
11
6.3874553937007876
21
-4.6666171653543307
0
LINE
8
BLACK
6
CONTINUOUS
10
6.3874553937007876
20
-4.6666171653543307
11
6.4016407086614171
21
-4.6720624015748031
0
LINE
8
BLACK
6
CONTINUOUS
10
6.4016407086614171
20
-4.6720624015748031
11
6.4163174803149605
21
-4.6759950393700782
0
LINE
8
BLACK
6
CONTINUOUS
10
6.4163174803149605
20
-4.6759950393700782
11
6.4163183464566931
21
-4.675995236220472
0
LINE
8
BLACK
6
CONTINUOUS
10
6.4163183464566931
20
-4.675995236220472
11
6.4313255511811018
21
-4.6783721653543306
0
LINE
8
BLACK
6
CONTINUOUS
10
6.4313255511811018
20
-4.6783721653543306
11
6.431325354330709
21
-4.6783721653543306
0
LINE
8
BLACK
6
CONTINUOUS
10
6.431325354330709
20
-4.6783721653543306
11
6.4375156692913382
21
-4.6786965748031495
0
LINE
8
BLACK
6
CONTINUOUS
10
6.4375156692913382
20
-4.6786965748031495
11
6.4375157480314957
21
-4.6786965354330707
0
LINE
8
BLACK
6
CONTINUOUS
10
6.4375157480314957
20
-4.6786965354330707
11
6.4375157480314957
21
-4.6604954330708663
0
LINE
8
BLACK
6
CONTINUOUS
10
6.4375157480314957
20
-4.6604954330708663
11
6.4322805118110233
21
-4.6602014566929135
0
LINE
8
BLACK
6
CONTINUOUS
10
6.4322805118110233
20
-4.6602014566929135
11
6.4182398425196849
21
-4.6578158267716532
0
LINE
8
BLACK
6
CONTINUOUS
10
6.4182398425196849
20
-4.6578158267716532
11
6.4045545669291339
21
-4.6538731889763776
0
LINE
8
BLACK
6
CONTINUOUS
10
6.4045545669291339
20
-4.6538731889763776
11
6.3913967716535431
21
-4.6484230314960628
0
LINE
8
BLACK
6
CONTINUOUS
10
6.3913967716535431
20
-4.6484230314960628
11
6.3789319291338584
21
-4.6415339763779526
0
LINE
8
BLACK
6
CONTINUOUS
10
6.3789319291338584
20
-4.6415339763779526
11
6.3673168110236222
21
-4.6332925984251965
0
LINE
8
BLACK
6
CONTINUOUS
10
6.3673168110236222
20
-4.6332925984251965
11
6.356697440944882
21
-4.6238025590551182
0
LINE
8
BLACK
6
CONTINUOUS
10
6.356697440944882
20
-4.6238025590551182
11
6.3472074015748028
21
-4.6131831889763779
0
LINE
8
BLACK
6
CONTINUOUS
10
6.3472074015748028
20
-4.6131831889763779
11
6.3389660236220475
21
-4.6015680708661417
0
LINE
8
BLACK
6
CONTINUOUS
10
6.3389660236220475
20
-4.6015680708661417
11
6.3320769685039364
21
-4.589103228346457
0
LINE
8
BLACK
6
CONTINUOUS
10
6.3320769685039364
20
-4.589103228346457
11
6.3266268110236217
21
-4.5759454330708662
0
LINE
8
BLACK
6
CONTINUOUS
10
6.3266268110236217
20
-4.5759454330708662
11
6.3226841732283461
21
-4.5622601574803152
0
LINE
8
BLACK
6
CONTINUOUS
10
6.3226841732283461
20
-4.5622601574803152
11
6.3202985433070866
21
-4.5482194881889759
0
LINE
8
BLACK
6
CONTINUOUS
10
6.3202985433070866
20
-4.5482194881889759
11
6.3200045275590551
21
-4.5429842519685035
0
LINE
8
BLACK
6
CONTINUOUS
10
6.3200045275590551
20
-4.5429842519685035
11
6.3018033858267719
21
-4.5429842519685035
0
LINE
8
BLACK
6
CONTINUOUS
10
6.5727014566929132
20
-4.5482194881889759
11
6.5703158267716537
21
-4.5622601574803152
0
LINE
8
BLACK
6
CONTINUOUS
10
6.5703158267716537
20
-4.5622601574803152
11
6.5663731889763781
21
-4.5759454330708662
0
LINE
8
BLACK
6
CONTINUOUS
10
6.5663731889763781
20
-4.5759454330708662
11
6.5609230314960625
21
-4.589103228346457
0
LINE
8
BLACK
6
CONTINUOUS
10
6.5609230314960625
20
-4.589103228346457
11
6.5540339763779523
21
-4.6015680708661417
0
LINE
8
BLACK
6
CONTINUOUS
10
6.5540339763779523
20
-4.6015680708661417
11
6.545792598425197
21
-4.6131831889763779
0
LINE
8
BLACK
6
CONTINUOUS
10
6.545792598425197
20
-4.6131831889763779
11
6.5363025590551178
21
-4.6238025590551182
0
LINE
8
BLACK
6
CONTINUOUS
10
6.5363025590551178
20
-4.6238025590551182
11
6.5256831889763776
21
-4.6332925984251965
0
LINE
8
BLACK
6
CONTINUOUS
10
6.5256831889763776
20
-4.6332925984251965
11
6.5140680708661414
21
-4.6415339763779526
0
LINE
8
BLACK
6
CONTINUOUS
10
6.5140680708661414
20
-4.6415339763779526
11
6.5016032283464567
21
-4.6484230314960628
0
LINE
8
BLACK
6
CONTINUOUS
10
6.5016032283464567
20
-4.6484230314960628
11
6.4884454330708659
21
-4.6538731889763776
0
LINE
8
BLACK
6
CONTINUOUS
10
6.4884454330708659
20
-4.6538731889763776
11
6.4747601574803149
21
-4.6578158267716532
0
LINE
8
BLACK
6
CONTINUOUS
10
6.4747601574803149
20
-4.6578158267716532
11
6.4607194881889765
21
-4.6602014566929135
0
LINE
8
BLACK
6
CONTINUOUS
10
6.4607194881889765
20
-4.6602014566929135
11
6.4554842519685041
21
-4.6604954330708663
0
LINE
8
BLACK
6
CONTINUOUS
10
6.4554842519685041
20
-4.6604954330708663
11
6.4554842519685041
21
-4.6786965354330707
0
LINE
8
BLACK
6
CONTINUOUS
10
6.4554842519685041
20
-4.6786965354330707
11
6.4554842913385828
21
-4.6786965748031495
0
LINE
8
BLACK
6
CONTINUOUS
10
6.4554842913385828
20
-4.6786965748031495
11
6.4616744881889758
21
-4.6783721653543306
0
LINE
8
BLACK
6
CONTINUOUS
10
6.4616744881889758
20
-4.6783721653543306
11
6.476681614173228
21
-4.675995236220472
0
LINE
8
BLACK
6
CONTINUOUS
10
6.476681614173228
20
-4.675995236220472
11
6.4766824803149605
21
-4.6759950393700782
0
LINE
8
BLACK
6
CONTINUOUS
10
6.4766824803149605
20
-4.6759950393700782
11
6.4913592519685039
21
-4.6720624015748031
0
LINE
8
BLACK
6
CONTINUOUS
10
6.4913592519685039
20
-4.6720624015748031
11
6.5055445669291334
21
-4.6666171653543307
0
LINE
8
BLACK
6
CONTINUOUS
10
6.5055445669291334
20
-4.6666171653543307
11
6.5055453543307085
21
-4.6666168110236219
0
LINE
8
BLACK
6
CONTINUOUS
10
6.5055453543307085
20
-4.6666168110236219
11
6.5190834251968504
21
-4.6597188582677163
0
LINE
8
BLACK
6
CONTINUOUS
10
6.5190834251968504
20
-4.6597188582677163
11
6.5190837007874016
21
-4.6597187007874012
0
LINE
8
BLACK
6
CONTINUOUS
10
6.5190837007874016
20
-4.6597187007874012
11
6.5318271653543309
21
-4.6514429527559056
0
LINE
8
BLACK
6
CONTINUOUS
10
6.5318271653543309
20
-4.6514429527559056
11
6.5318273622047238
21
-4.6514427952755906
0
LINE
8
BLACK
6
CONTINUOUS
10
6.5318273622047238
20
-4.6514427952755906
11
6.5436360236220468
21
-4.6418803543307083
0
LINE
8
BLACK
6
CONTINUOUS
10
6.5436360236220468
20
-4.6418803543307083
11
6.5543803543307089
21
-4.6311360236220471
0
LINE
8
BLACK
6
CONTINUOUS
10
6.5543803543307089
20
-4.6311360236220471
11
6.5639427952755902
21
-4.6193273622047242
0
LINE
8
BLACK
6
CONTINUOUS
10
6.5639427952755902
20
-4.6193273622047242
11
6.5639429527559052
21
-4.6193271653543304
0
LINE
8
BLACK
6
CONTINUOUS
10
6.5639429527559052
20
-4.6193271653543304
11
6.5722187007874018
21
-4.6065837007874011
0
LINE
8
BLACK
6
CONTINUOUS
10
6.5722187007874018
20
-4.6065837007874011
11
6.5722188582677168
21
-4.6065834251968507
0
LINE
8
BLACK
6
CONTINUOUS
10
6.5722188582677168
20
-4.6065834251968507
11
6.5791168110236216
21
-4.5930453543307088
0
LINE
8
BLACK
6
CONTINUOUS
10
6.5791168110236216
20
-4.5930453543307088
11
6.5791171653543303
21
-4.5930445669291338
0
LINE
8
BLACK
6
CONTINUOUS
10
6.5791171653543303
20
-4.5930445669291338
11
6.5845624015748028
21
-4.5788592519685034
0
LINE
8
BLACK
6
CONTINUOUS
10
6.5845624015748028
20
-4.5788592519685034
11
6.5884950393700787
21
-4.5641824803149609
0
LINE
8
BLACK
6
CONTINUOUS
10
6.5884950393700787
20
-4.5641824803149609
11
6.5884952362204725
21
-4.5641816141732283
0
LINE
8
BLACK
6
CONTINUOUS
10
6.5884952362204725
20
-4.5641816141732283
11
6.5908721653543303
21
-4.5491745275590549
0
LINE
8
BLACK
6
CONTINUOUS
10
6.5908721653543303
20
-4.5491745275590549
11
6.5908721653543303
21
-4.5491744488188974
0
LINE
8
BLACK
6
CONTINUOUS
10
6.5908721653543303
20
-4.5491744488188974
11
6.5911965748031491
21
-4.5429842519685035
0
LINE
8
BLACK
6
CONTINUOUS
10
6.5911965748031491
20
-4.5429842519685035
11
6.5729954724409447
21
-4.5429842519685035
0
LINE
8
BLACK
6
CONTINUOUS
10
6.5729954724409447
20
-4.5429842519685035
11
6.5727014566929132
21
-4.5482194881889759
0
LINE
8
BLACK
6
CONTINUOUS
10
5.5565227559055117
20
-4.5435574803149601
11
5.5545716535433067
21
-4.5439455905511812
0
LINE
8
BLACK
6
CONTINUOUS
10
5.5545716535433067
20
-4.5439455905511812
11
5.5519188976377949
21
-4.5457181102362201
0
LINE
8
BLACK
6
CONTINUOUS
10
5.5519188976377949
20
-4.5457181102362201
11
5.550146377952756
21
-4.5483708661417319
0
LINE
8
BLACK
6
CONTINUOUS
10
5.550146377952756
20
-4.5483708661417319
11
5.5496811023622046
21
-4.5507100787401571
0
LINE
8
BLACK
6
CONTINUOUS
10
5.5496811023622046
20
-4.5507100787401571
11
5.5496811023622046
21
-4.6172898818897634
0
LINE
8
BLACK
6
CONTINUOUS
10
5.5496811023622046
20
-4.6172898818897634
11
5.550146377952756
21
-4.6196290944881886
0
LINE
8
BLACK
6
CONTINUOUS
10
5.550146377952756
20
-4.6196290944881886
11
5.5501464173228348
21
-4.6196291338582673
0
LINE
8
BLACK
6
CONTINUOUS
10
5.5501464173228348
20
-4.6196291338582673
11
5.5519188976377949
21
-4.6222818897637792
0
LINE
8
BLACK
6
CONTINUOUS
10
5.5519188976377949
20
-4.6222818897637792
11
5.5545716535433067
21
-4.6240543700787402
0
LINE
8
BLACK
6
CONTINUOUS
10
5.5545716535433067
20
-4.6240543700787402
11
5.5569108661417319
21
-4.6245196850393704
0
LINE
8
BLACK
6
CONTINUOUS
10
5.5569108661417319
20
-4.6245196850393704
11
5.5569109055118107
21
-4.6245196850393704
0
LINE
8
BLACK
6
CONTINUOUS
10
5.5569109055118107
20
-4.6245196850393704
11
5.6234906692913382
21
-4.6245196850393704
0
LINE
8
BLACK
6
CONTINUOUS
10
5.6234906692913382
20
-4.6245196850393704
11
5.623490708661417
21
-4.6245196850393704
0
LINE
8
BLACK
6
CONTINUOUS
10
5.623490708661417
20
-4.6245196850393704
11
5.6258299212598422
21
-4.6240543700787402
0
LINE
8
BLACK
6
CONTINUOUS
10
5.6258299212598422
20
-4.6240543700787402
11
5.628482677165354
21
-4.6222818897637792
0
LINE
8
BLACK
6
CONTINUOUS
10
5.628482677165354
20
-4.6222818897637792
11
5.630255157480315
21
-4.6196291338582673
0
LINE
8
BLACK
6
CONTINUOUS
10
5.630255157480315
20
-4.6196291338582673
11
5.6307204724409443
21
-4.6172899212598422
0
LINE
8
BLACK
6
CONTINUOUS
10
5.6307204724409443
20
-4.6172899212598422
11
5.6307204724409443
21
-4.6172898818897634
0
LINE
8
BLACK
6
CONTINUOUS
10
5.6307204724409443
20
-4.6172898818897634
11
5.6307204724409443
21
-4.5507100787401571
0
LINE
8
BLACK
6
CONTINUOUS
10
5.6307204724409443
20
-4.5507100787401571
11
5.630255157480315
21
-4.5483708661417319
0
LINE
8
BLACK
6
CONTINUOUS
10
5.630255157480315
20
-4.5483708661417319
11
5.628482677165354
21
-4.5457181102362201
0
LINE
8
BLACK
6
CONTINUOUS
10
5.628482677165354
20
-4.5457181102362201
11
5.6258299212598422
21
-4.5439456299212599
0
LINE
8
BLACK
6
CONTINUOUS
10
5.6258299212598422
20
-4.5439456299212599
11
5.6258298818897634
21
-4.5439455905511812
0
LINE
8
BLACK
6
CONTINUOUS
10
5.6258298818897634
20
-4.5439455905511812
11
5.6239559842519684
21
-4.5435728346456692
0
LINE
8
BLACK
6
CONTINUOUS
10
5.6239559842519684
20
-4.5435728346456692
11
5.623490708661417
21
-4.5434803149606298
0
LINE
8
BLACK
6
CONTINUOUS
10
5.623490708661417
20
-4.5434803149606298
11
5.5569108661417319
21
-4.5434803149606298
0
LINE
8
BLACK
6
CONTINUOUS
10
5.5569108661417319
20
-4.5434803149606298
11
5.5565227559055117
21
-4.5435574803149601
0
LINE
8
BLACK
6
CONTINUOUS
10
5.8876251181102361
20
-4.5435574803149601
11
5.8856740157480312
21
-4.5439455905511812
0
LINE
8
BLACK
6
CONTINUOUS
10
5.8856740157480312
20
-4.5439455905511812
11
5.8830212598425193
21
-4.5457181102362201
0
LINE
8
BLACK
6
CONTINUOUS
10
5.8830212598425193
20
-4.5457181102362201
11
5.8812487401574804
21
-4.5483708661417319
0
LINE
8
BLACK
6
CONTINUOUS
10
5.8812487401574804
20
-4.5483708661417319
11
5.880783464566929
21
-4.5507100787401571
0
LINE
8
BLACK
6
CONTINUOUS
10
5.880783464566929
20
-4.5507100787401571
11
5.880783464566929
21
-4.6172898818897634
0
LINE
8
BLACK
6
CONTINUOUS
10
5.880783464566929
20
-4.6172898818897634
11
5.8812487401574804
21
-4.6196290944881886
0
LINE
8
BLACK
6
CONTINUOUS
10
5.8812487401574804
20
-4.6196290944881886
11
5.8812487795275592
21
-4.6196291338582673
0
LINE
8
BLACK
6
CONTINUOUS
10
5.8812487795275592
20
-4.6196291338582673
11
5.8830212598425193
21
-4.6222818897637792
0
LINE
8
BLACK
6
CONTINUOUS
10
5.8830212598425193
20
-4.6222818897637792
11
5.8856740157480312
21
-4.6240543700787402
0
LINE
8
BLACK
6
CONTINUOUS
10
5.8856740157480312
20
-4.6240543700787402
11
5.8880132283464564
21
-4.6245196850393704
0
LINE
8
BLACK
6
CONTINUOUS
10
5.8880132283464564
20
-4.6245196850393704
11
5.8880132677165351
21
-4.6245196850393704
0
LINE
8
BLACK
6
CONTINUOUS
10
5.8880132677165351
20
-4.6245196850393704
11
5.9545930314960627
21
-4.6245196850393704
0
LINE
8
BLACK
6
CONTINUOUS
10
5.9545930314960627
20
-4.6245196850393704
11
5.9545930708661414
21
-4.6245196850393704
0
LINE
8
BLACK
6
CONTINUOUS
10
5.9545930708661414
20
-4.6245196850393704
11
5.9569322834645666
21
-4.6240543700787402
0
LINE
8
BLACK
6
CONTINUOUS
10
5.9569322834645666
20
-4.6240543700787402
11
5.9595850393700784
21
-4.6222818897637792
0
LINE
8
BLACK
6
CONTINUOUS
10
5.9595850393700784
20
-4.6222818897637792
11
5.9613575196850395
21
-4.6196291338582673
0
LINE
8
BLACK
6
CONTINUOUS
10
5.9613575196850395
20
-4.6196291338582673
11
5.9618228346456688
21
-4.6172899212598422
0
LINE
8
BLACK
6
CONTINUOUS
10
5.9618228346456688
20
-4.6172899212598422
11
5.9618228346456688
21
-4.5507100787401571
0
LINE
8
BLACK
6
CONTINUOUS
10
5.9618228346456688
20
-4.5507100787401571
11
5.9613575196850395
21
-4.5483708661417319
0
LINE
8
BLACK
6
CONTINUOUS
10
5.9613575196850395
20
-4.5483708661417319
11
5.9595850393700784
21
-4.5457181102362201
0
LINE
8
BLACK
6
CONTINUOUS
10
5.9595850393700784
20
-4.5457181102362201
11
5.9569322834645666
21
-4.5439456299212599
0
LINE
8
BLACK
6
CONTINUOUS
10
5.9569322834645666
20
-4.5439456299212599
11
5.9569322440944878
21
-4.5439455905511812
0
LINE
8
BLACK
6
CONTINUOUS
10
5.9569322440944878
20
-4.5439455905511812
11
5.9550583464566929
21
-4.5435728346456692
0
LINE
8
BLACK
6
CONTINUOUS
10
5.9550583464566929
20
-4.5435728346456692
11
5.9545930708661414
21
-4.5434803149606298
0
LINE
8
BLACK
6
CONTINUOUS
10
5.9545930708661414
20
-4.5434803149606298
11
5.8880132283464564
21
-4.5434803149606298
0
LINE
8
BLACK
6
CONTINUOUS
10
5.8880132283464564
20
-4.5434803149606298
11
5.8876251181102361
21
-4.5435574803149601
0
LINE
8
BLACK
6
CONTINUOUS
10
5.6501463779527556
20
-4.6196290944881886
11
5.6501464173228344
21
-4.6196291338582673
0
LINE
8
BLACK
6
CONTINUOUS
10
5.6501464173228344
20
-4.6196291338582673
11
5.6519188976377954
21
-4.6222818897637792
0
LINE
8
BLACK
6
CONTINUOUS
10
5.6519188976377954
20
-4.6222818897637792
11
5.6545716535433073
21
-4.6240543700787402
0
LINE
8
BLACK
6
CONTINUOUS
10
5.6545716535433073
20
-4.6240543700787402
11
5.6569108661417324
21
-4.6245196850393704
0
LINE
8
BLACK
6
CONTINUOUS
10
5.6569108661417324
20
-4.6245196850393704
11
5.6569109055118112
21
-4.6245196850393704
0
LINE
8
BLACK
6
CONTINUOUS
10
5.6569109055118112
20
-4.6245196850393704
11
5.7234906692913388
21
-4.6245196850393704
0
LINE
8
BLACK
6
CONTINUOUS
10
5.7234906692913388
20
-4.6245196850393704
11
5.7234907086614175
21
-4.6245196850393704
0
LINE
8
BLACK
6
CONTINUOUS
10
5.7234907086614175
20
-4.6245196850393704
11
5.7258299212598427
21
-4.6240543700787402
0
LINE
8
BLACK
6
CONTINUOUS
10
5.7258299212598427
20
-4.6240543700787402
11
5.7284826771653545
21
-4.6222818897637792
0
LINE
8
BLACK
6
CONTINUOUS
10
5.7284826771653545
20
-4.6222818897637792
11
5.7302551574803147
21
-4.6196291338582673
0
LINE
8
BLACK
6
CONTINUOUS
10
5.7302551574803147
20
-4.6196291338582673
11
5.7307204724409448
21
-4.6172899212598422
0
LINE
8
BLACK
6
CONTINUOUS
10
5.7307204724409448
20
-4.6172899212598422
11
5.7307204724409448
21
-4.6172898818897634
0
LINE
8
BLACK
6
CONTINUOUS
10
5.7307204724409448
20
-4.6172898818897634
11
5.7307204724409448
21
-4.5507100787401571
0
LINE
8
BLACK
6
CONTINUOUS
10
5.7307204724409448
20
-4.5507100787401571
11
5.7302551574803147
21
-4.5483708661417319
0
LINE
8
BLACK
6
CONTINUOUS
10
5.7302551574803147
20
-4.5483708661417319
11
5.7284826771653545
21
-4.5457181102362201
0
LINE
8
BLACK
6
CONTINUOUS
10
5.7284826771653545
20
-4.5457181102362201
11
5.7258299212598427
21
-4.5439456299212599
0
LINE
8
BLACK
6
CONTINUOUS
10
5.7258299212598427
20
-4.5439456299212599
11
5.7258298818897639
21
-4.5439455905511812
0
LINE
8
BLACK
6
CONTINUOUS
10
5.7258298818897639
20
-4.5439455905511812
11
5.7239559842519681
21
-4.5435728346456692
0
LINE
8
BLACK
6
CONTINUOUS
10
5.7239559842519681
20
-4.5435728346456692
11
5.7234907086614175
21
-4.5434803149606298
0
LINE
8
BLACK
6
CONTINUOUS
10
5.7234907086614175
20
-4.5434803149606298
11
5.6569108661417324
21
-4.5434803149606298
0
LINE
8
BLACK
6
CONTINUOUS
10
5.6569108661417324
20
-4.5434803149606298
11
5.6565227559055113
21
-4.5435574803149601
0
LINE
8
BLACK
6
CONTINUOUS
10
5.6565227559055113
20
-4.5435574803149601
11
5.6545716535433073
21
-4.5439455905511812
0
LINE
8
BLACK
6
CONTINUOUS
10
5.6545716535433073
20
-4.5439455905511812
11
5.6519188976377954
21
-4.5457181102362201
0
LINE
8
BLACK
6
CONTINUOUS
10
5.6519188976377954
20
-4.5457181102362201
11
5.6501463779527556
21
-4.5483708661417319
0
LINE
8
BLACK
6
CONTINUOUS
10
5.6501463779527556
20
-4.5483708661417319
11
5.6496811023622042
21
-4.5507100787401571
0
LINE
8
BLACK
6
CONTINUOUS
10
5.6496811023622042
20
-4.5507100787401571
11
5.6496811023622042
21
-4.6172898818897634
0
LINE
8
BLACK
6
CONTINUOUS
10
5.6496811023622042
20
-4.6172898818897634
11
5.6501463779527556
21
-4.6196290944881886
0
LINE
8
BLACK
6
CONTINUOUS
10
6.4554842519685041
20
-4.4075045275590554
11
6.4607194881889765
21
-4.4077985433070861
0
LINE
8
BLACK
6
CONTINUOUS
10
6.4607194881889765
20
-4.4077985433070861
11
6.4747601574803149
21
-4.4101841732283464
0
LINE
8
BLACK
6
CONTINUOUS
10
6.4747601574803149
20
-4.4101841732283464
11
6.4884454330708659
21
-4.414126811023622
0
LINE
8
BLACK
6
CONTINUOUS
10
6.4884454330708659
20
-4.414126811023622
11
6.5016032283464567
21
-4.4195769685039368
0
LINE
8
BLACK
6
CONTINUOUS
10
6.5016032283464567
20
-4.4195769685039368
11
6.5140680708661414
21
-4.426466023622047
0
LINE
8
BLACK
6
CONTINUOUS
10
6.5140680708661414
20
-4.426466023622047
11
6.5256831889763776
21
-4.4347074015748031
0
LINE
8
BLACK
6
CONTINUOUS
10
6.5256831889763776
20
-4.4347074015748031
11
6.5363025590551178
21
-4.4441974409448814
0
LINE
8
BLACK
6
CONTINUOUS
10
6.5363025590551178
20
-4.4441974409448814
11
6.545792598425197
21
-4.4548168110236217
0
LINE
8
BLACK
6
CONTINUOUS
10
6.545792598425197
20
-4.4548168110236217
11
6.5540339763779523
21
-4.4664319291338579
0
LINE
8
BLACK
6
CONTINUOUS
10
6.5540339763779523
20
-4.4664319291338579
11
6.5609230314960625
21
-4.4788967716535435
0
LINE
8
BLACK
6
CONTINUOUS
10
6.5609230314960625
20
-4.4788967716535435
11
6.5663731889763781
21
-4.4920545669291334
0
LINE
8
BLACK
6
CONTINUOUS
10
6.5663731889763781
20
-4.4920545669291334
11
6.5703158267716537
21
-4.5057398425196853
0
LINE
8
BLACK
6
CONTINUOUS
10
6.5703158267716537
20
-4.5057398425196853
11
6.5727014566929132
21
-4.5197805118110237
0
LINE
8
BLACK
6
CONTINUOUS
10
6.5727014566929132
20
-4.5197805118110237
11
6.5729954724409447
21
-4.5250157480314961
0
LINE
8
BLACK
6
CONTINUOUS
10
6.5729954724409447
20
-4.5250157480314961
11
6.5911965748031491
21
-4.5250157480314961
0
LINE
8
BLACK
6
CONTINUOUS
10
6.5911965748031491
20
-4.5250157480314961
11
6.5911965748031491
21
-4.5250157086614173
0
LINE
8
BLACK
6
CONTINUOUS
10
6.5911965748031491
20
-4.5250157086614173
11
6.5908721653543303
21
-4.5188255118110234
0
LINE
8
BLACK
6
CONTINUOUS
10
6.5908721653543303
20
-4.5188255118110234
11
6.5908721653543303
21
-4.5188254330708659
0
LINE
8
BLACK
6
CONTINUOUS
10
6.5908721653543303
20
-4.5188254330708659
11
6.5884952362204725
21
-4.5038183464566925
0
LINE
8
BLACK
6
CONTINUOUS
10
6.5884952362204725
20
-4.5038183464566925
11
6.5884950393700787
21
-4.5038174803149609
0
LINE
8
BLACK
6
CONTINUOUS
10
6.5884950393700787
20
-4.5038174803149609
11
6.5845624015748028
21
-4.4891407086614175
0
LINE
8
BLACK
6
CONTINUOUS
10
6.5845624015748028
20
-4.4891407086614175
11
6.5791171653543303
21
-4.4749553937007871
0
LINE
8
BLACK
6
CONTINUOUS
10
6.5791171653543303
20
-4.4749553937007871
11
6.5791168110236216
21
-4.4749546062992129
0
LINE
8
BLACK
6
CONTINUOUS
10
6.5791168110236216
20
-4.4749546062992129
11
6.5722188582677168
21
-4.4614165748031498
0
LINE
8
BLACK
6
CONTINUOUS
10
6.5722188582677168
20
-4.4614165748031498
11
6.5722187007874018
21
-4.4614162992125985
0
LINE
8
BLACK
6
CONTINUOUS
10
6.5722187007874018
20
-4.4614162992125985
11
6.5639430708661415
21
-4.4486729527559055
0
LINE
8
BLACK
6
CONTINUOUS
10
6.5639430708661415
20
-4.4486729527559055
11
6.5543803543307089
21
-4.4368639370078737
0
LINE
8
BLACK
6
CONTINUOUS
10
6.5543803543307089
20
-4.4368639370078737
11
6.5436360236220468
21
-4.4261196062992125
0
LINE
8
BLACK
6
CONTINUOUS
10
6.5436360236220468
20
-4.4261196062992125
11
6.5318273622047238
21
-4.4165571653543303
0
LINE
8
BLACK
6
CONTINUOUS
10
6.5318273622047238
20
-4.4165571653543303
11
6.5318271653543309
21
-4.4165570078740153
0
LINE
8
BLACK
6
CONTINUOUS
10
6.5318271653543309
20
-4.4165570078740153
11
6.5190837007874016
21
-4.4082812598425196
0
LINE
8
BLACK
6
CONTINUOUS
10
6.5190837007874016
20
-4.4082812598425196
11
6.5190834251968504
21
-4.4082811023622046
0
LINE
8
BLACK
6
CONTINUOUS
10
6.5190834251968504
20
-4.4082811023622046
11
6.5055453543307085
21
-4.401383149606299
0
LINE
8
BLACK
6
CONTINUOUS
10
6.5055453543307085
20
-4.401383149606299
11
6.5055445669291334
21
-4.4013827952755902
0
LINE
8
BLACK
6
CONTINUOUS
10
6.5055445669291334
20
-4.4013827952755902
11
6.4913592519685039
21
-4.3959375590551177
0
LINE
8
BLACK
6
CONTINUOUS
10
6.4913592519685039
20
-4.3959375590551177
11
6.4766824803149605
21
-4.3920049212598427
0
LINE
8
BLACK
6
CONTINUOUS
10
6.4766824803149605
20
-4.3920049212598427
11
6.476681614173228
21
-4.3920047244094489
0
LINE
8
BLACK
6
CONTINUOUS
10
6.476681614173228
20
-4.3920047244094489
11
6.4616744881889758
21
-4.3896277952755902
0
LINE
8
BLACK
6
CONTINUOUS
10
6.4616744881889758
20
-4.3896277952755902
11
6.4554842519685041
21
-4.3893033858267714
0
LINE
8
BLACK
6
CONTINUOUS
10
6.4554842519685041
20
-4.3893033858267714
11
6.4554842519685041
21
-4.4075045275590554
0
LINE
8
BLACK
6
CONTINUOUS
10
6.4313255118110231
20
-4.3896277952755902
11
6.4313254330708656
21
-4.3896277952755902
0
LINE
8
BLACK
6
CONTINUOUS
10
6.4313254330708656
20
-4.3896277952755902
11
6.4163183464566931
21
-4.3920047244094489
0
LINE
8
BLACK
6
CONTINUOUS
10
6.4163183464566931
20
-4.3920047244094489
11
6.4163174803149605
21
-4.3920049212598427
0
LINE
8
BLACK
6
CONTINUOUS
10
6.4163174803149605
20
-4.3920049212598427
11
6.4016407086614171
21
-4.3959375590551177
0
LINE
8
BLACK
6
CONTINUOUS
10
6.4016407086614171
20
-4.3959375590551177
11
6.3874553937007876
21
-4.4013827952755902
0
LINE
8
BLACK
6
CONTINUOUS
10
6.3874553937007876
20
-4.4013827952755902
11
6.3874546062992126
21
-4.401383149606299
0
LINE
8
BLACK
6
CONTINUOUS
10
6.3874546062992126
20
-4.401383149606299
11
6.3739165748031494
21
-4.4082811023622046
0
LINE
8
BLACK
6
CONTINUOUS
10
6.3739165748031494
20
-4.4082811023622046
11
6.3739162992125982
21
-4.4082812598425196
0
LINE
8
BLACK
6
CONTINUOUS
10
6.3739162992125982
20
-4.4082812598425196
11
6.3611729527559051
21
-4.416556889763779
0
LINE
8
BLACK
6
CONTINUOUS
10
6.3611729527559051
20
-4.416556889763779
11
6.3493639370078743
21
-4.4261196062992125
0
LINE
8
BLACK
6
CONTINUOUS
10
6.3493639370078743
20
-4.4261196062992125
11
6.3386196062992122
21
-4.4368639370078737
0
LINE
8
BLACK
6
CONTINUOUS
10
6.3386196062992122
20
-4.4368639370078737
11
6.3290568897637796
21
-4.4486729527559055
0
LINE
8
BLACK
6
CONTINUOUS
10
6.3290568897637796
20
-4.4486729527559055
11
6.3207812598425193
21
-4.4614162992125985
0
LINE
8
BLACK
6
CONTINUOUS
10
6.3207812598425193
20
-4.4614162992125985
11
6.3207811023622043
21
-4.4614165748031498
0
LINE
8
BLACK
6
CONTINUOUS
10
6.3207811023622043
20
-4.4614165748031498
11
6.3138831496062995
21
-4.4749546062992129
0
LINE
8
BLACK
6
CONTINUOUS
10
6.3138831496062995
20
-4.4749546062992129
11
6.3138827952755907
21
-4.4749553937007871
0
LINE
8
BLACK
6
CONTINUOUS
10
6.3138827952755907
20
-4.4749553937007871
11
6.3084375590551183
21
-4.4891407086614175
0
LINE
8
BLACK
6
CONTINUOUS
10
6.3084375590551183
20
-4.4891407086614175
11
6.3045049212598423
21
-4.5038174803149609
0
LINE
8
BLACK
6
CONTINUOUS
10
6.3045049212598423
20
-4.5038174803149609
11
6.3045047244094485
21
-4.5038183464566925
0
LINE
8
BLACK
6
CONTINUOUS
10
6.3045047244094485
20
-4.5038183464566925
11
6.3021277952755907
21
-4.5188254330708659
0
LINE
8
BLACK
6
CONTINUOUS
10
6.3021277952755907
20
-4.5188254330708659
11
6.3021277952755907
21
-4.5188255118110234
0
LINE
8
BLACK
6
CONTINUOUS
10
6.3021277952755907
20
-4.5188255118110234
11
6.3018033858267719
21
-4.5250157086614173
0
LINE
8
BLACK
6
CONTINUOUS
10
6.3018033858267719
20
-4.5250157086614173
11
6.3018034251968507
21
-4.5250157480314961
0
LINE
8
BLACK
6
CONTINUOUS
10
6.3018034251968507
20
-4.5250157480314961
11
6.3200045275590551
21
-4.5250157480314961
0
LINE
8
BLACK
6
CONTINUOUS
10
6.3200045275590551
20
-4.5250157480314961
11
6.3202985433070866
21
-4.5197805118110237
0
LINE
8
BLACK
6
CONTINUOUS
10
6.3202985433070866
20
-4.5197805118110237
11
6.3226841732283461
21
-4.5057398425196853
0
LINE
8
BLACK
6
CONTINUOUS
10
6.3226841732283461
20
-4.5057398425196853
11
6.3266268110236217
21
-4.4920545669291334
0
LINE
8
BLACK
6
CONTINUOUS
10
6.3266268110236217
20
-4.4920545669291334
11
6.3320769685039364
21
-4.4788967716535435
0
LINE
8
BLACK
6
CONTINUOUS
10
6.3320769685039364
20
-4.4788967716535435
11
6.3389660236220475
21
-4.4664319291338579
0
LINE
8
BLACK
6
CONTINUOUS
10
6.3389660236220475
20
-4.4664319291338579
11
6.3472074015748028
21
-4.4548168110236217
0
LINE
8
BLACK
6
CONTINUOUS
10
6.3472074015748028
20
-4.4548168110236217
11
6.356697440944882
21
-4.4441974409448814
0
LINE
8
BLACK
6
CONTINUOUS
10
6.356697440944882
20
-4.4441974409448814
11
6.3673168110236222
21
-4.4347074015748031
0
LINE
8
BLACK
6
CONTINUOUS
10
6.3673168110236222
20
-4.4347074015748031
11
6.3789319291338584
21
-4.426466023622047
0
LINE
8
BLACK
6
CONTINUOUS
10
6.3789319291338584
20
-4.426466023622047
11
6.3913967716535431
21
-4.4195769685039368
0
LINE
8
BLACK
6
CONTINUOUS
10
6.3913967716535431
20
-4.4195769685039368
11
6.4045545669291339
21
-4.414126811023622
0
LINE
8
BLACK
6
CONTINUOUS
10
6.4045545669291339
20
-4.414126811023622
11
6.4182398425196849
21
-4.4101841732283464
0
LINE
8
BLACK
6
CONTINUOUS
10
6.4182398425196849
20
-4.4101841732283464
11
6.4322805118110233
21
-4.4077985433070861
0
LINE
8
BLACK
6
CONTINUOUS
10
6.4322805118110233
20
-4.4077985433070861
11
6.4375157480314957
21
-4.4075045275590554
0
LINE
8
BLACK
6
CONTINUOUS
10
6.4375157480314957
20
-4.4075045275590554
11
6.4375157480314957
21
-4.3893033858267714
0
LINE
8
BLACK
6
CONTINUOUS
10
6.4375157480314957
20
-4.3893033858267714
11
6.4313255118110231
21
-4.3896277952755902
0
LINE
8
BLACK
6
CONTINUOUS
10
5.3055453543307083
20
-4.401383149606299
11
5.3055445669291341
21
-4.4013827952755902
0
LINE
8
BLACK
6
CONTINUOUS
10
5.3055445669291341
20
-4.4013827952755902
11
5.2913592519685038
21
-4.3959375590551177
0
LINE
8
BLACK
6
CONTINUOUS
10
5.2913592519685038
20
-4.3959375590551177
11
5.2766824803149603
21
-4.3920049212598427
0
LINE
8
BLACK
6
CONTINUOUS
10
5.2766824803149603
20
-4.3920049212598427
11
5.2766816141732278
21
-4.3920047244094489
0
LINE
8
BLACK
6
CONTINUOUS
10
5.2766816141732278
20
-4.3920047244094489
11
5.2616744881889765
21
-4.3896277952755902
0
LINE
8
BLACK
6
CONTINUOUS
10
5.2616744881889765
20
-4.3896277952755902
11
5.2554842519685039
21
-4.3893033858267714
0
LINE
8
BLACK
6
CONTINUOUS
10
5.2554842519685039
20
-4.3893033858267714
11
5.2554842519685039
21
-4.4075045275590554
0
LINE
8
BLACK
6
CONTINUOUS
10
5.2554842519685039
20
-4.4075045275590554
11
5.2607194881889763
21
-4.4077985433070861
0
LINE
8
BLACK
6
CONTINUOUS
10
5.2607194881889763
20
-4.4077985433070861
11
5.2747601574803147
21
-4.4101841732283464
0
LINE
8
BLACK
6
CONTINUOUS
10
5.2747601574803147
20
-4.4101841732283464
11
5.2884454330708657
21
-4.414126811023622
0
LINE
8
BLACK
6
CONTINUOUS
10
5.2884454330708657
20
-4.414126811023622
11
5.3016032283464565
21
-4.4195769685039368
0
LINE
8
BLACK
6
CONTINUOUS
10
5.3016032283464565
20
-4.4195769685039368
11
5.3140680708661412
21
-4.426466023622047
0
LINE
8
BLACK
6
CONTINUOUS
10
5.3140680708661412
20
-4.426466023622047
11
5.3256831889763783
21
-4.4347074015748031
0
LINE
8
BLACK
6
CONTINUOUS
10
5.3256831889763783
20
-4.4347074015748031
11
5.3363025590551176
21
-4.4441974409448814
0
LINE
8
BLACK
6
CONTINUOUS
10
5.3363025590551176
20
-4.4441974409448814
11
5.3457925984251968
21
-4.4548168110236217
0
LINE
8
BLACK
6
CONTINUOUS
10
5.3457925984251968
20
-4.4548168110236217
11
5.354033976377953
21
-4.4664319291338579
0
LINE
8
BLACK
6
CONTINUOUS
10
5.354033976377953
20
-4.4664319291338579
11
5.3609230314960632
21
-4.4788967716535435
0
LINE
8
BLACK
6
CONTINUOUS
10
5.3609230314960632
20
-4.4788967716535435
11
5.3663731889763779
21
-4.4920545669291334
0
LINE
8
BLACK
6
CONTINUOUS
10
5.3663731889763779
20
-4.4920545669291334
11
5.3703158267716535
21
-4.5057398425196853
0
LINE
8
BLACK
6
CONTINUOUS
10
5.3703158267716535
20
-4.5057398425196853
11
5.372701456692913
21
-4.5197805118110237
0
LINE
8
BLACK
6
CONTINUOUS
10
5.372701456692913
20
-4.5197805118110237
11
5.3729954724409446
21
-4.5250157480314961
0
LINE
8
BLACK
6
CONTINUOUS
10
5.3729954724409446
20
-4.5250157480314961
11
5.3911965748031498
21
-4.5250157480314961
0
LINE
8
BLACK
6
CONTINUOUS
10
5.3911965748031498
20
-4.5250157480314961
11
5.3911965748031498
21
-4.5250157086614173
0
LINE
8
BLACK
6
CONTINUOUS
10
5.3911965748031498
20
-4.5250157086614173
11
5.390872165354331
21
-4.5188255118110234
0
LINE
8
BLACK
6
CONTINUOUS
10
5.390872165354331
20
-4.5188255118110234
11
5.390872165354331
21
-4.5188254330708659
0
LINE
8
BLACK
6
CONTINUOUS
10
5.390872165354331
20
-4.5188254330708659
11
5.3906289370078735
21
-4.5172898818897638
0
LINE
8
BLACK
6
CONTINUOUS
10
5.3906289370078735
20
-4.5172898818897638
11
5.3884952362204723
21
-4.5038183464566925
0
LINE
8
BLACK
6
CONTINUOUS
10
5.3884952362204723
20
-4.5038183464566925
11
5.3884950393700786
21
-4.5038174803149609
0
LINE
8
BLACK
6
CONTINUOUS
10
5.3884950393700786
20
-4.5038174803149609
11
5.3845624015748026
21
-4.4891407086614175
0
LINE
8
BLACK
6
CONTINUOUS
10
5.3845624015748026
20
-4.4891407086614175
11
5.3791171653543302
21
-4.4749553937007871
0
LINE
8
BLACK
6
CONTINUOUS
10
5.3791171653543302
20
-4.4749553937007871
11
5.3791168110236223
21
-4.4749546062992129
0
LINE
8
BLACK
6
CONTINUOUS
10
5.3791168110236223
20
-4.4749546062992129
11
5.3722188582677166
21
-4.4614165748031498
0
LINE
8
BLACK
6
CONTINUOUS
10
5.3722188582677166
20
-4.4614165748031498
11
5.3722187007874016
21
-4.4614162992125985
0
LINE
8
BLACK
6
CONTINUOUS
10
5.3722187007874016
20
-4.4614162992125985
11
5.3639430708661413
21
-4.4486729527559055
0
LINE
8
BLACK
6
CONTINUOUS
10
5.3639430708661413
20
-4.4486729527559055
11
5.3543803543307087
21
-4.4368639370078737
0
LINE
8
BLACK
6
CONTINUOUS
10
5.3543803543307087
20
-4.4368639370078737
11
5.3436360236220475
21
-4.4261196062992125
0
LINE
8
BLACK
6
CONTINUOUS
10
5.3436360236220475
20
-4.4261196062992125
11
5.3318273622047245
21
-4.4165571653543303
0
LINE
8
BLACK
6
CONTINUOUS
10
5.3318273622047245
20
-4.4165571653543303
11
5.3318271653543308
21
-4.4165570078740153
0
LINE
8
BLACK
6
CONTINUOUS
10
5.3318271653543308
20
-4.4165570078740153
11
5.3190837007874014
21
-4.4082812598425196
0
LINE
8
BLACK
6
CONTINUOUS
10
5.3190837007874014
20
-4.4082812598425196
11
5.3190834251968502
21
-4.4082811023622046
0
LINE
8
BLACK
6
CONTINUOUS
10
5.3190834251968502
20
-4.4082811023622046
11
5.3092903937007874
21
-4.4032913385826769
0
LINE
8
BLACK
6
CONTINUOUS
10
5.3092903937007874
20
-4.4032913385826769
11
5.3055453543307083
21
-4.401383149606299
0
LINE
8
BLACK
6
CONTINUOUS
10
5.2313255118110238
20
-4.3896277952755902
11
5.2313254330708663
21
-4.3896277952755902
0
LINE
8
BLACK
6
CONTINUOUS
10
5.2313254330708663
20
-4.3896277952755902
11
5.2163183464566929
21
-4.3920047244094489
0
LINE
8
BLACK
6
CONTINUOUS
10
5.2163183464566929
20
-4.3920047244094489
11
5.2163174803149603
21
-4.3920049212598427
0
LINE
8
BLACK
6
CONTINUOUS
10
5.2163174803149603
20
-4.3920049212598427
11
5.2016407086614169
21
-4.3959375590551177
0
LINE
8
BLACK
6
CONTINUOUS
10
5.2016407086614169
20
-4.3959375590551177
11
5.1874553937007875
21
-4.4013827952755902
0
LINE
8
BLACK
6
CONTINUOUS
10
5.1874553937007875
20
-4.4013827952755902
11
5.1874546062992124
21
-4.401383149606299
0
LINE
8
BLACK
6
CONTINUOUS
10
5.1874546062992124
20
-4.401383149606299
11
5.1739165748031493
21
-4.4082811023622046
0
LINE
8
BLACK
6
CONTINUOUS
10
5.1739165748031493
20
-4.4082811023622046
11
5.173916299212598
21
-4.4082812598425196
0
LINE
8
BLACK
6
CONTINUOUS
10
5.173916299212598
20
-4.4082812598425196
11
5.1611729527559058
21
-4.416556889763779
0
LINE
8
BLACK
6
CONTINUOUS
10
5.1611729527559058
20
-4.416556889763779
11
5.1493639370078741
21
-4.4261196062992125
0
LINE
8
BLACK
6
CONTINUOUS
10
5.1493639370078741
20
-4.4261196062992125
11
5.1386196062992129
21
-4.4368639370078737
0
LINE
8
BLACK
6
CONTINUOUS
10
5.1386196062992129
20
-4.4368639370078737
11
5.1290568897637794
21
-4.4486729527559055
0
LINE
8
BLACK
6
CONTINUOUS
10
5.1290568897637794
20
-4.4486729527559055
11
5.12078125984252
21
-4.4614162992125985
0
LINE
8
BLACK
6
CONTINUOUS
10
5.12078125984252
20
-4.4614162992125985
11
5.120781102362205
21
-4.4614165748031498
0
LINE
8
BLACK
6
CONTINUOUS
10
5.120781102362205
20
-4.4614165748031498
11
5.1138831496062993
21
-4.4749546062992129
0
LINE
8
BLACK
6
CONTINUOUS
10
5.1138831496062993
20
-4.4749546062992129
11
5.1138827952755905
21
-4.4749553937007871
0
LINE
8
BLACK
6
CONTINUOUS
10
5.1138827952755905
20
-4.4749553937007871
11
5.1084375590551181
21
-4.4891407086614175
0
LINE
8
BLACK
6
CONTINUOUS
10
5.1084375590551181
20
-4.4891407086614175
11
5.1045049212598421
21
-4.5038174803149609
0
LINE
8
BLACK
6
CONTINUOUS
10
5.1045049212598421
20
-4.5038174803149609
11
5.1045047244094484
21
-4.5038183464566925
0
LINE
8
BLACK
6
CONTINUOUS
10
5.1045047244094484
20
-4.5038183464566925
11
5.1021277952755906
21
-4.5188254330708659
0
LINE
8
BLACK
6
CONTINUOUS
10
5.1021277952755906
20
-4.5188254330708659
11
5.1021277952755906
21
-4.5188255118110234
0
LINE
8
BLACK
6
CONTINUOUS
10
5.1021277952755906
20
-4.5188255118110234
11
5.1018033858267717
21
-4.5250157086614173
0
LINE
8
BLACK
6
CONTINUOUS
10
5.1018033858267717
20
-4.5250157086614173
11
5.1018034251968505
21
-4.5250157480314961
0
LINE
8
BLACK
6
CONTINUOUS
10
5.1018034251968505
20
-4.5250157480314961
11
5.1200045275590549
21
-4.5250157480314961
0
LINE
8
BLACK
6
CONTINUOUS
10
5.1200045275590549
20
-4.5250157480314961
11
5.1202985433070864
21
-4.5197805118110237
0
LINE
8
BLACK
6
CONTINUOUS
10
5.1202985433070864
20
-4.5197805118110237
11
5.1226841732283459
21
-4.5057398425196853
0
LINE
8
BLACK
6
CONTINUOUS
10
5.1226841732283459
20
-4.5057398425196853
11
5.1266268110236215
21
-4.4920545669291334
0
LINE
8
BLACK
6
CONTINUOUS
10
5.1266268110236215
20
-4.4920545669291334
11
5.1320769685039371
21
-4.4788967716535435
0
LINE
8
BLACK
6
CONTINUOUS
10
5.1320769685039371
20
-4.4788967716535435
11
5.1389660236220474
21
-4.4664319291338579
0
LINE
8
BLACK
6
CONTINUOUS
10
5.1389660236220474
20
-4.4664319291338579
11
5.1472074015748026
21
-4.4548168110236217
0
LINE
8
BLACK
6
CONTINUOUS
10
5.1472074015748026
20
-4.4548168110236217
11
5.1566974409448818
21
-4.4441974409448814
0
LINE
8
BLACK
6
CONTINUOUS
10
5.1566974409448818
20
-4.4441974409448814
11
5.1673168110236221
21
-4.4347074015748031
0
LINE
8
BLACK
6
CONTINUOUS
10
5.1673168110236221
20
-4.4347074015748031
11
5.1789319291338582
21
-4.426466023622047
0
LINE
8
BLACK
6
CONTINUOUS
10
5.1789319291338582
20
-4.426466023622047
11
5.191396771653543
21
-4.4195769685039368
0
LINE
8
BLACK
6
CONTINUOUS
10
5.191396771653543
20
-4.4195769685039368
11
5.2045545669291338
21
-4.414126811023622
0
LINE
8
BLACK
6
CONTINUOUS
10
5.2045545669291338
20
-4.414126811023622
11
5.2182398425196848
21
-4.4101841732283464
0
LINE
8
BLACK
6
CONTINUOUS
10
5.2182398425196848
20
-4.4101841732283464
11
5.2322805118110232
21
-4.4077985433070861
0
LINE
8
BLACK
6
CONTINUOUS
10
5.2322805118110232
20
-4.4077985433070861
11
5.2375157480314956
21
-4.4075045275590554
0
LINE
8
BLACK
6
CONTINUOUS
10
5.2375157480314956
20
-4.4075045275590554
11
5.2375157480314956
21
-4.3893033858267714
0
LINE
8
BLACK
6
CONTINUOUS
10
5.2375157480314956
20
-4.3893033858267714
11
5.2375157086614168
21
-4.3893033858267714
0
LINE
8
BLACK
6
CONTINUOUS
10
5.2375157086614168
20
-4.3893033858267714
11
5.2313255118110238
21
-4.3896277952755902
0
LINE
8
BLACK
6
CONTINUOUS
10
5.5565227559055117
20
-4.4435574803149605
11
5.5545716535433067
21
-4.4439455905511807
0
LINE
8
BLACK
6
CONTINUOUS
10
5.5545716535433067
20
-4.4439455905511807
11
5.5519188976377949
21
-4.4457181102362204
0
LINE
8
BLACK
6
CONTINUOUS
10
5.5519188976377949
20
-4.4457181102362204
11
5.550146377952756
21
-4.4483708661417323
0
LINE
8
BLACK
6
CONTINUOUS
10
5.550146377952756
20
-4.4483708661417323
11
5.5496811023622046
21
-4.4507100787401574
0
LINE
8
BLACK
6
CONTINUOUS
10
5.5496811023622046
20
-4.4507100787401574
11
5.5496811023622046
21
-4.5172898818897638
0
LINE
8
BLACK
6
CONTINUOUS
10
5.5496811023622046
20
-4.5172898818897638
11
5.550146377952756
21
-4.5196290944881889
0
LINE
8
BLACK
6
CONTINUOUS
10
5.550146377952756
20
-4.5196290944881889
11
5.5501464173228348
21
-4.5196291338582677
0
LINE
8
BLACK
6
CONTINUOUS
10
5.5501464173228348
20
-4.5196291338582677
11
5.5519188976377949
21
-4.5222818897637795
0
LINE
8
BLACK
6
CONTINUOUS
10
5.5519188976377949
20
-4.5222818897637795
11
5.5545716535433067
21
-4.5240543700787397
0
LINE
8
BLACK
6
CONTINUOUS
10
5.5545716535433067
20
-4.5240543700787397
11
5.5569108661417319
21
-4.5245196850393699
0
LINE
8
BLACK
6
CONTINUOUS
10
5.5569108661417319
20
-4.5245196850393699
11
5.5569109055118107
21
-4.5245196850393699
0
LINE
8
BLACK
6
CONTINUOUS
10
5.5569109055118107
20
-4.5245196850393699
11
5.6234906692913382
21
-4.5245196850393699
0
LINE
8
BLACK
6
CONTINUOUS
10
5.6234906692913382
20
-4.5245196850393699
11
5.623490708661417
21
-4.5245196850393699
0
LINE
8
BLACK
6
CONTINUOUS
10
5.623490708661417
20
-4.5245196850393699
11
5.6258299212598422
21
-4.5240543700787397
0
LINE
8
BLACK
6
CONTINUOUS
10
5.6258299212598422
20
-4.5240543700787397
11
5.628482677165354
21
-4.5222818897637795
0
LINE
8
BLACK
6
CONTINUOUS
10
5.628482677165354
20
-4.5222818897637795
11
5.630255157480315
21
-4.5196291338582677
0
LINE
8
BLACK
6
CONTINUOUS
10
5.630255157480315
20
-4.5196291338582677
11
5.6307204724409443
21
-4.5172899212598425
0
LINE
8
BLACK
6
CONTINUOUS
10
5.6307204724409443
20
-4.5172899212598425
11
5.6307204724409443
21
-4.5172898818897638
0
LINE
8
BLACK
6
CONTINUOUS
10
5.6307204724409443
20
-4.5172898818897638
11
5.6307204724409443
21
-4.4507100787401574
0
LINE
8
BLACK
6
CONTINUOUS
10
5.6307204724409443
20
-4.4507100787401574
11
5.630255157480315
21
-4.4483708661417323
0
LINE
8
BLACK
6
CONTINUOUS
10
5.630255157480315
20
-4.4483708661417323
11
5.628482677165354
21
-4.4457181102362204
0
LINE
8
BLACK
6
CONTINUOUS
10
5.628482677165354
20
-4.4457181102362204
11
5.6258299212598422
21
-4.4439456299212594
0
LINE
8
BLACK
6
CONTINUOUS
10
5.6258299212598422
20
-4.4439456299212594
11
5.6258298818897634
21
-4.4439455905511807
0
LINE
8
BLACK
6
CONTINUOUS
10
5.6258298818897634
20
-4.4439455905511807
11
5.6239559842519684
21
-4.4435728346456695
0
LINE
8
BLACK
6
CONTINUOUS
10
5.6239559842519684
20
-4.4435728346456695
11
5.623490708661417
21
-4.4434803149606301
0
LINE
8
BLACK
6
CONTINUOUS
10
5.623490708661417
20
-4.4434803149606301
11
5.5569108661417319
21
-4.4434803149606301
0
LINE
8
BLACK
6
CONTINUOUS
10
5.5569108661417319
20
-4.4434803149606301
11
5.5565227559055117
21
-4.4435574803149605
0
LINE
8
BLACK
6
CONTINUOUS
10
5.6501463779527556
20
-4.5196290944881889
11
5.6501464173228344
21
-4.5196291338582677
0
LINE
8
BLACK
6
CONTINUOUS
10
5.6501464173228344
20
-4.5196291338582677
11
5.6519188976377954
21
-4.5222818897637795
0
LINE
8
BLACK
6
CONTINUOUS
10
5.6519188976377954
20
-4.5222818897637795
11
5.6545716535433073
21
-4.5240543700787397
0
LINE
8
BLACK
6
CONTINUOUS
10
5.6545716535433073
20
-4.5240543700787397
11
5.6569108661417324
21
-4.5245196850393699
0
LINE
8
BLACK
6
CONTINUOUS
10
5.6569108661417324
20
-4.5245196850393699
11
5.6569109055118112
21
-4.5245196850393699
0
LINE
8
BLACK
6
CONTINUOUS
10
5.6569109055118112
20
-4.5245196850393699
11
5.7234906692913388
21
-4.5245196850393699
0
LINE
8
BLACK
6
CONTINUOUS
10
5.7234906692913388
20
-4.5245196850393699
11
5.7234907086614175
21
-4.5245196850393699
0
LINE
8
BLACK
6
CONTINUOUS
10
5.7234907086614175
20
-4.5245196850393699
11
5.7258299212598427
21
-4.5240543700787397
0
LINE
8
BLACK
6
CONTINUOUS
10
5.7258299212598427
20
-4.5240543700787397
11
5.7284826771653545
21
-4.5222818897637795
0
LINE
8
BLACK
6
CONTINUOUS
10
5.7284826771653545
20
-4.5222818897637795
11
5.7302551574803147
21
-4.5196291338582677
0
LINE
8
BLACK
6
CONTINUOUS
10
5.7302551574803147
20
-4.5196291338582677
11
5.7307204724409448
21
-4.5172899212598425
0
LINE
8
BLACK
6
CONTINUOUS
10
5.7307204724409448
20
-4.5172899212598425
11
5.7307204724409448
21
-4.5172898818897638
0
LINE
8
BLACK
6
CONTINUOUS
10
5.7307204724409448
20
-4.5172898818897638
11
5.7307204724409448
21
-4.4507100787401574
0
LINE
8
BLACK
6
CONTINUOUS
10
5.7307204724409448
20
-4.4507100787401574
11
5.7302551574803147
21
-4.4483708661417323
0
LINE
8
BLACK
6
CONTINUOUS
10
5.7302551574803147
20
-4.4483708661417323
11
5.7284826771653545
21
-4.4457181102362204
0
LINE
8
BLACK
6
CONTINUOUS
10
5.7284826771653545
20
-4.4457181102362204
11
5.7258299212598427
21
-4.4439456299212594
0
LINE
8
BLACK
6
CONTINUOUS
10
5.7258299212598427
20
-4.4439456299212594
11
5.7258298818897639
21
-4.4439455905511807
0
LINE
8
BLACK
6
CONTINUOUS
10
5.7258298818897639
20
-4.4439455905511807
11
5.7239559842519681
21
-4.4435728346456695
0
LINE
8
BLACK
6
CONTINUOUS
10
5.7239559842519681
20
-4.4435728346456695
11
5.7234907086614175
21
-4.4434803149606301
0
LINE
8
BLACK
6
CONTINUOUS
10
5.7234907086614175
20
-4.4434803149606301
11
5.6569108661417324
21
-4.4434803149606301
0
LINE
8
BLACK
6
CONTINUOUS
10
5.6569108661417324
20
-4.4434803149606301
11
5.6565227559055113
21
-4.4435574803149605
0
LINE
8
BLACK
6
CONTINUOUS
10
5.6565227559055113
20
-4.4435574803149605
11
5.6545716535433073
21
-4.4439455905511807
0
LINE
8
BLACK
6
CONTINUOUS
10
5.6545716535433073
20
-4.4439455905511807
11
5.6519188976377954
21
-4.4457181102362204
0
LINE
8
BLACK
6
CONTINUOUS
10
5.6519188976377954
20
-4.4457181102362204
11
5.6501463779527556
21
-4.4483708661417323
0
LINE
8
BLACK
6
CONTINUOUS
10
5.6501463779527556
20
-4.4483708661417323
11
5.6496811023622042
21
-4.4507100787401574
0
LINE
8
BLACK
6
CONTINUOUS
10
5.6496811023622042
20
-4.4507100787401574
11
5.6496811023622042
21
-4.5172898818897638
0
LINE
8
BLACK
6
CONTINUOUS
10
5.6496811023622042
20
-4.5172898818897638
11
5.6501463779527556
21
-4.5196290944881889
0
LINE
8
BLACK
6
CONTINUOUS
10
5.8812487401574804
20
-4.5196290944881889
11
5.8812487795275592
21
-4.5196291338582677
0
LINE
8
BLACK
6
CONTINUOUS
10
5.8812487795275592
20
-4.5196291338582677
11
5.8830212598425193
21
-4.5222818897637795
0
LINE
8
BLACK
6
CONTINUOUS
10
5.8830212598425193
20
-4.5222818897637795
11
5.8856740157480312
21
-4.5240543700787397
0
LINE
8
BLACK
6
CONTINUOUS
10
5.8856740157480312
20
-4.5240543700787397
11
5.8880132283464564
21
-4.5245196850393699
0
LINE
8
BLACK
6
CONTINUOUS
10
5.8880132283464564
20
-4.5245196850393699
11
5.8880132677165351
21
-4.5245196850393699
0
LINE
8
BLACK
6
CONTINUOUS
10
5.8880132677165351
20
-4.5245196850393699
11
5.9545930314960627
21
-4.5245196850393699
0
LINE
8
BLACK
6
CONTINUOUS
10
5.9545930314960627
20
-4.5245196850393699
11
5.9545930708661414
21
-4.5245196850393699
0
LINE
8
BLACK
6
CONTINUOUS
10
5.9545930708661414
20
-4.5245196850393699
11
5.9569322834645666
21
-4.5240543700787397
0
LINE
8
BLACK
6
CONTINUOUS
10
5.9569322834645666
20
-4.5240543700787397
11
5.9595850393700784
21
-4.5222818897637795
0
LINE
8
BLACK
6
CONTINUOUS
10
5.9595850393700784
20
-4.5222818897637795
11
5.9613575196850395
21
-4.5196291338582677
0
LINE
8
BLACK
6
CONTINUOUS
10
5.9613575196850395
20
-4.5196291338582677
11
5.9618228346456688
21
-4.5172899212598425
0
LINE
8
BLACK
6
CONTINUOUS
10
5.9618228346456688
20
-4.5172899212598425
11
5.9618228346456688
21
-4.4507100787401574
0
LINE
8
BLACK
6
CONTINUOUS
10
5.9618228346456688
20
-4.4507100787401574
11
5.9613575196850395
21
-4.4483708661417323
0
LINE
8
BLACK
6
CONTINUOUS
10
5.9613575196850395
20
-4.4483708661417323
11
5.9595850393700784
21
-4.4457181102362204
0
LINE
8
BLACK
6
CONTINUOUS
10
5.9595850393700784
20
-4.4457181102362204
11
5.9569322834645666
21
-4.4439456299212594
0
LINE
8
BLACK
6
CONTINUOUS
10
5.9569322834645666
20
-4.4439456299212594
11
5.9569322440944878
21
-4.4439455905511807
0
LINE
8
BLACK
6
CONTINUOUS
10
5.9569322440944878
20
-4.4439455905511807
11
5.9550583464566929
21
-4.4435728346456695
0
LINE
8
BLACK
6
CONTINUOUS
10
5.9550583464566929
20
-4.4435728346456695
11
5.9545930708661414
21
-4.4434803149606301
0
LINE
8
BLACK
6
CONTINUOUS
10
5.9545930708661414
20
-4.4434803149606301
11
5.8880132283464564
21
-4.4434803149606301
0
LINE
8
BLACK
6
CONTINUOUS
10
5.8880132283464564
20
-4.4434803149606301
11
5.8876251181102361
21
-4.4435574803149605
0
LINE
8
BLACK
6
CONTINUOUS
10
5.8876251181102361
20
-4.4435574803149605
11
5.8856740157480312
21
-4.4439455905511807
0
LINE
8
BLACK
6
CONTINUOUS
10
5.8856740157480312
20
-4.4439455905511807
11
5.8830212598425193
21
-4.4457181102362204
0
LINE
8
BLACK
6
CONTINUOUS
10
5.8830212598425193
20
-4.4457181102362204
11
5.8812487401574804
21
-4.4483708661417323
0
LINE
8
BLACK
6
CONTINUOUS
10
5.8812487401574804
20
-4.4483708661417323
11
5.880783464566929
21
-4.4507100787401574
0
LINE
8
BLACK
6
CONTINUOUS
10
5.880783464566929
20
-4.4507100787401574
11
5.880783464566929
21
-4.5172898818897638
0
LINE
8
BLACK
6
CONTINUOUS
10
5.880783464566929
20
-4.5172898818897638
11
5.8812487401574804
21
-4.5196290944881889
0
LINE
8
BLACK
6
CONTINUOUS
10
5.420645551181102
20
-4.4082812598425196
11
5.4208543307086616
21
-4.4100005511811027
0
LINE
8
BLACK
6
CONTINUOUS
10
5.4208543307086616
20
-4.4100005511811027
11
5.4232509448818895
21
-4.4163199212598423
0
LINE
8
BLACK
6
CONTINUOUS
10
5.4232509448818895
20
-4.4163199212598423
11
5.4232509448818895
21
-4.416319960629921
0
LINE
8
BLACK
6
CONTINUOUS
10
5.4232509448818895
20
-4.416319960629921
11
5.4236232283464565
21
-4.4168592913385822
0
LINE
8
BLACK
6
CONTINUOUS
10
5.4236232283464565
20
-4.4168592913385822
11
5.4270901968503935
21
-4.4218820472440941
0
LINE
8
BLACK
6
CONTINUOUS
10
5.4270901968503935
20
-4.4218820472440941
11
5.43214905511811
21
-4.4263637795275592
0
LINE
8
BLACK
6
CONTINUOUS
10
5.43214905511811
20
-4.4263637795275592
11
5.4381334251968498
21
-4.429504645669291
0
LINE
8
BLACK
6
CONTINUOUS
10
5.4381334251968498
20
-4.429504645669291
11
5.4446955511811019
21
-4.4311220472440942
0
LINE
8
BLACK
6
CONTINUOUS
10
5.4446955511811019
20
-4.4311220472440942
11
5.4446957086614169
21
-4.4311220472440942
0
LINE
8
BLACK
6
CONTINUOUS
10
5.4446957086614169
20
-4.4311220472440942
11
5.4514538976377951
21
-4.4311220472440942
0
LINE
8
BLACK
6
CONTINUOUS
10
5.4514538976377951
20
-4.4311220472440942
11
5.4514540551181101
21
-4.4311220472440942
0
LINE
8
BLACK
6
CONTINUOUS
10
5.4514540551181101
20
-4.4311220472440942
11
5.4580161811023622
21
-4.429504645669291
0
LINE
8
BLACK
6
CONTINUOUS
10
5.4580161811023622
20
-4.429504645669291
11
5.4640005511811021
21
-4.4263637795275592
0
LINE
8
BLACK
6
CONTINUOUS
10
5.4640005511811021
20
-4.4263637795275592
11
5.4641712204724406
21
-4.426212598425197
0
LINE
8
BLACK
6
CONTINUOUS
10
5.4641712204724406
20
-4.426212598425197
11
5.4664153149606296
21
-4.4252350393700786
0
LINE
8
BLACK
6
CONTINUOUS
10
5.4664153149606296
20
-4.4252350393700786
11
5.4667975984251971
21
-4.425216535433071
0
LINE
8
BLACK
6
CONTINUOUS
10
5.4667975984251971
20
-4.425216535433071
11
5.5569111811023619
21
-4.425216535433071
0
LINE
8
BLACK
6
CONTINUOUS
10
5.5569111811023619
20
-4.425216535433071
11
5.5569112598425194
21
-4.425216535433071
0
LINE
8
BLACK
6
CONTINUOUS
10
5.5569112598425194
20
-4.425216535433071
11
5.5578289370078737
21
-4.4249183464566926
0
LINE
8
BLACK
6
CONTINUOUS
10
5.5578289370078737
20
-4.4249183464566926
11
5.5584327559055113
21
-4.4247733464566927
0
LINE
8
BLACK
6
CONTINUOUS
10
5.5584327559055113
20
-4.4247733464566927
11
5.5593860629921261
21
-4.424622401574803
0
LINE
8
BLACK
6
CONTINUOUS
10
5.5593860629921261
20
-4.424622401574803
11
5.560245826771653
21
-4.4241842519685042
0
LINE
8
BLACK
6
CONTINUOUS
10
5.560245826771653
20
-4.4241842519685042
11
5.5608198818897634
21
-4.4239464960629924
0
LINE
8
BLACK
6
CONTINUOUS
10
5.5608198818897634
20
-4.4239464960629924
11
5.5617374803149602
21
-4.4236484251968502
0
LINE
8
BLACK
6
CONTINUOUS
10
5.5617374803149602
20
-4.4236484251968502
11
5.5625180314960625
21
-4.4230812598425198
0
LINE
8
BLACK
6
CONTINUOUS
10
5.5625180314960625
20
-4.4230812598425198
11
5.5630481102362204
21
-4.4227564566929134
0
LINE
8
BLACK
6
CONTINUOUS
10
5.5630481102362204
20
-4.4227564566929134
11
5.5639074409448819
21
-4.4223186220472437
0
LINE
8
BLACK
6
CONTINUOUS
10
5.5639074409448819
20
-4.4223186220472437
11
5.5639074015748031
21
-4.4223186220472437
0
LINE
8
BLACK
6
CONTINUOUS
10
5.5639074015748031
20
-4.4223186220472437
11
5.5639075196850394
21
-4.4223185826771649
0
LINE
8
BLACK
6
CONTINUOUS
10
5.5639075196850394
20
-4.4223185826771649
11
5.5674957480314955
21
-4.4187303543307088
0
LINE
8
BLACK
6
CONTINUOUS
10
5.5674957480314955
20
-4.4187303543307088
11
5.5674957086614176
21
-4.4187303543307088
0
LINE
8
BLACK
6
CONTINUOUS
10
5.5674957086614176
20
-4.4187303543307088
11
5.6020262204724407
21
-4.3841999212598424
0
LINE
8
BLACK
6
CONTINUOUS
10
5.6020262204724407
20
-4.3841999212598424
11
5.6020262598425195
21
-4.3841998031496061
0
LINE
8
BLACK
6
CONTINUOUS
10
5.6020262598425195
20
-4.3841998031496061
11
5.6022518110236224
21
-4.3839742913385829
0
LINE
8
BLACK
6
CONTINUOUS
10
5.6022518110236224
20
-4.3839742913385829
11
5.6022519291338577
21
-4.3839740944881891
0
LINE
8
BLACK
6
CONTINUOUS
10
5.6022519291338577
20
-4.3839740944881891
11
5.6029288188976381
21
-4.3832972834645672
0
LINE
8
BLACK
6
CONTINUOUS
10
5.6029288188976381
20
-4.3832972834645672
11
5.6033667322834644
21
-4.3824377165354331
0
LINE
8
BLACK
6
CONTINUOUS
10
5.6033667322834644
20
-4.3824377165354331
11
5.6036914566929132
21
-4.3819078740157478
0
LINE
8
BLACK
6
CONTINUOUS
10
5.6036914566929132
20
-4.3819078740157478
11
5.6042586614173224
21
-4.3811272440944879
0
LINE
8
BLACK
6
CONTINUOUS
10
5.6042586614173224
20
-4.3811272440944879
11
5.6045569291338584
21
-4.3802091338582674
0
LINE
8
BLACK
6
CONTINUOUS
10
5.6045569291338584
20
-4.3802091338582674
11
5.6047944488188977
21
-4.3796357480314958
0
LINE
8
BLACK
6
CONTINUOUS
10
5.6047944488188977
20
-4.3796357480314958
11
5.6052326377952753
21
-4.378775826771653
0
LINE
8
BLACK
6
CONTINUOUS
10
5.6052326377952753
20
-4.378775826771653
11
5.605383582677165
21
-4.3778225196850391
0
LINE
8
BLACK
6
CONTINUOUS
10
5.605383582677165
20
-4.3778225196850391
11
5.6055285826771648
21
-4.3772185826771652
0
LINE
8
BLACK
6
CONTINUOUS
10
5.6055285826771648
20
-4.3772185826771652
11
5.6058267716535433
21
-4.376301062992126
0
LINE
8
BLACK
6
CONTINUOUS
10
5.6058267716535433
20
-4.376301062992126
11
5.6058267716535433
21
-4.3712265354330704
0
LINE
8
BLACK
6
CONTINUOUS
10
5.6058267716535433
20
-4.3712265354330704
11
5.6058267716535433
21
-4.3631520866141731
0
LINE
8
BLACK
6
CONTINUOUS
10
5.6058267716535433
20
-4.3631520866141731
11
5.6058267716535433
21
-4.2617780708661419
0
LINE
8
BLACK
6
CONTINUOUS
10
5.6058267716535433
20
-4.2617780708661419
11
5.6058267716535433
21
-4.1894321259842515
0
LINE
8
BLACK
6
CONTINUOUS
10
5.6058267716535433
20
-4.1894321259842515
11
5.6058267716535433
21
-4.1881556692913389
0
LINE
8
BLACK
6
CONTINUOUS
10
5.6058267716535433
20
-4.1881556692913389
11
5.6055284645669294
21
-4.187237598425197
0
LINE
8
BLACK
6
CONTINUOUS
10
5.6055284645669294
20
-4.187237598425197
11
5.6053836220472437
21
-4.1866342125984248
0
LINE
8
BLACK
6
CONTINUOUS
10
5.6053836220472437
20
-4.1866342125984248
11
5.6053039370078741
21
-4.1861312598425195
0
LINE
8
BLACK
6
CONTINUOUS
10
5.6053039370078741
20
-4.1861312598425195
11
5.605284094488189
21
-4.1850346062992125
0
LINE
8
BLACK
6
CONTINUOUS
10
5.605284094488189
20
-4.1850346062992125
11
5.6060311811023622
21
-4.1788818897637796
0
LINE
8
BLACK
6
CONTINUOUS
10
5.6060311811023622
20
-4.1788818897637796
11
5.6052165354330707
21
-4.1721726377952759
0
LINE
8
BLACK
6
CONTINUOUS
10
5.6052165354330707
20
-4.1721726377952759
11
5.602819921259842
21
-4.1658533070866142
0
LINE
8
BLACK
6
CONTINUOUS
10
5.602819921259842
20
-4.1658533070866142
11
5.6009553937007874
21
-4.1631520866141729
0
LINE
8
BLACK
6
CONTINUOUS
10
5.6009553937007874
20
-4.1631520866141729
11
5.5989806692913389
21
-4.1602911811023624
0
LINE
8
BLACK
6
CONTINUOUS
10
5.5989806692913389
20
-4.1602911811023624
11
5.5939218110236215
21
-4.1558094488188972
0
LINE
8
BLACK
6
CONTINUOUS
10
5.5939218110236215
20
-4.1558094488188972
11
5.5879374409448817
21
-4.1526685826771654
0
LINE
8
BLACK
6
CONTINUOUS
10
5.5879374409448817
20
-4.1526685826771654
11
5.5879373228346454
21
-4.1526685433070867
0
LINE
8
BLACK
6
CONTINUOUS
10
5.5879373228346454
20
-4.1526685433070867
11
5.5813753937007871
21
-4.1510511811023623
0
LINE
8
BLACK
6
CONTINUOUS
10
5.5813753937007871
20
-4.1510511811023623
11
5.5813753149606296
21
-4.1510511811023623
0
LINE
8
BLACK
6
CONTINUOUS
10
5.5813753149606296
20
-4.1510511811023623
11
5.5746168110236223
21
-4.1510511811023623
0
LINE
8
BLACK
6
CONTINUOUS
10
5.5746168110236223
20
-4.1510511811023623
11
5.574616692913386
21
-4.1510511811023623
0
LINE
8
BLACK
6
CONTINUOUS
10
5.574616692913386
20
-4.1510511811023623
11
5.5680547637795277
21
-4.1526685433070867
0
LINE
8
BLACK
6
CONTINUOUS
10
5.5680547637795277
20
-4.1526685433070867
11
5.5620703543307082
21
-4.1558094094488185
0
LINE
8
BLACK
6
CONTINUOUS
10
5.5620703543307082
20
-4.1558094094488185
11
5.5570114173228342
21
-4.1602912204724412
0
LINE
8
BLACK
6
CONTINUOUS
10
5.5570114173228342
20
-4.1602912204724412
11
5.553172204724409
21
-4.1658532283464567
0
LINE
8
BLACK
6
CONTINUOUS
10
5.553172204724409
20
-4.1658532283464567
11
5.553172204724409
21
-4.1658532677165354
0
LINE
8
BLACK
6
CONTINUOUS
10
5.553172204724409
20
-4.1658532677165354
11
5.5514296850393698
21
-4.1704479133858268
0
LINE
8
BLACK
6
CONTINUOUS
10
5.5514296850393698
20
-4.1704479133858268
11
5.5507755905511811
21
-4.1721726377952759
0
LINE
8
BLACK
6
CONTINUOUS
10
5.5507755905511811
20
-4.1721726377952759
11
5.5499609448818896
21
-4.1788818897637796
0
LINE
8
BLACK
6
CONTINUOUS
10
5.5499609448818896
20
-4.1788818897637796
11
5.5507755905511811
21
-4.1855911417322833
0
LINE
8
BLACK
6
CONTINUOUS
10
5.5507755905511811
20
-4.1855911417322833
11
5.5522322834645665
21
-4.1894321259842515
0
LINE
8
BLACK
6
CONTINUOUS
10
5.5522322834645665
20
-4.1894321259842515
11
5.553172204724409
21
-4.1919104724409451
0
LINE
8
BLACK
6
CONTINUOUS
10
5.553172204724409
20
-4.1919104724409451
11
5.553172204724409
21
-4.1919105118110238
0
LINE
8
BLACK
6
CONTINUOUS
10
5.553172204724409
20
-4.1919105118110238
11
5.5554416141732279
21
-4.1951982677165356
0
LINE
8
BLACK
6
CONTINUOUS
10
5.5554416141732279
20
-4.1951982677165356
11
5.557011456692913
21
-4.1974725984251968
0
LINE
8
BLACK
6
CONTINUOUS
10
5.557011456692913
20
-4.1974725984251968
11
5.5620703149606294
21
-4.2019543307086611
0
LINE
8
BLACK
6
CONTINUOUS
10
5.5620703149606294
20
-4.2019543307086611
11
5.5680546850393702
21
-4.2050951968503938
0
LINE
8
BLACK
6
CONTINUOUS
10
5.5680546850393702
20
-4.2050951968503938
11
5.5680547637795277
21
-4.2050951968503938
0
LINE
8
BLACK
6
CONTINUOUS
10
5.5680547637795277
20
-4.2050951968503938
11
5.5680548031496064
21
-4.2050952362204725
0
LINE
8
BLACK
6
CONTINUOUS
10
5.5680548031496064
20
-4.2050952362204725
11
5.5694285039370079
21
-4.2054337795275591
0
LINE
8
BLACK
6
CONTINUOUS
10
5.5694285039370079
20
-4.2054337795275591
11
5.5707745275590552
21
-4.2057655511811021
0
LINE
8
BLACK
6
CONTINUOUS
10
5.5707745275590552
20
-4.2057655511811021
11
5.5728538976377955
21
-4.2070570866141734
0
LINE
8
BLACK
6
CONTINUOUS
10
5.5728538976377955
20
-4.2070570866141734
11
5.5737770078740159
21
-4.2093241338582672
0
LINE
8
BLACK
6
CONTINUOUS
10
5.5737770078740159
20
-4.2093241338582672
11
5.573787401574803
21
-4.2096111023622047
0
LINE
8
BLACK
6
CONTINUOUS
10
5.573787401574803
20
-4.2096111023622047
11
5.573787401574803
21
-4.3654876377952752
0
LINE
8
BLACK
6
CONTINUOUS
10
5.573787401574803
20
-4.3654876377952752
11
5.5730309842519681
21
-4.3678156299212594
0
LINE
8
BLACK
6
CONTINUOUS
10
5.5730309842519681
20
-4.3678156299212594
11
5.5726273622047247
21
-4.368288228346457
0
LINE
8
BLACK
6
CONTINUOUS
10
5.5726273622047247
20
-4.368288228346457
11
5.548898503937008
21
-4.3920171259842515
0
LINE
8
BLACK
6
CONTINUOUS
10
5.548898503937008
20
-4.3920171259842515
11
5.5467174803149604
21
-4.3931283858267713
0
LINE
8
BLACK
6
CONTINUOUS
10
5.5467174803149604
20
-4.3931283858267713
11
5.546097913385827
21
-4.3931771653543308
0
LINE
8
BLACK
6
CONTINUOUS
10
5.546097913385827
20
-4.3931771653543308
11
5.4767377952755902
21
-4.3931771653543308
0
LINE
8
BLACK
6
CONTINUOUS
10
5.4767377952755902
20
-4.3931771653543308
11
5.474409803149606
21
-4.3924207480314958
0
LINE
8
BLACK
6
CONTINUOUS
10
5.474409803149606
20
-4.3924207480314958
11
5.473034566929134
21
-4.3906210629921256
0
LINE
8
BLACK
6
CONTINUOUS
10
5.473034566929134
20
-4.3906210629921256
11
5.4728987007874013
21
-4.3902628346456689
0
LINE
8
BLACK
6
CONTINUOUS
10
5.4728987007874013
20
-4.3902628346456689
11
5.4728986220472438
21
-4.3902626771653539
0
LINE
8
BLACK
6
CONTINUOUS
10
5.4728986220472438
20
-4.3902626771653539
11
5.4715342913385827
21
-4.3882861417322836
0
LINE
8
BLACK
6
CONTINUOUS
10
5.4715342913385827
20
-4.3882861417322836
11
5.4690594094488185
21
-4.3847006299212596
0
LINE
8
BLACK
6
CONTINUOUS
10
5.4690594094488185
20
-4.3847006299212596
11
5.4640005511811021
21
-4.3802188976377954
0
LINE
8
BLACK
6
CONTINUOUS
10
5.4640005511811021
20
-4.3802188976377954
11
5.4580161811023622
21
-4.3770780314960627
0
LINE
8
BLACK
6
CONTINUOUS
10
5.4580161811023622
20
-4.3770780314960627
11
5.4580160629921259
21
-4.3770779921259839
0
LINE
8
BLACK
6
CONTINUOUS
10
5.4580160629921259
20
-4.3770779921259839
11
5.4514541338582676
21
-4.3754606299212595
0
LINE
8
BLACK
6
CONTINUOUS
10
5.4514541338582676
20
-4.3754606299212595
11
5.4514540551181101
21
-4.3754606299212595
0
LINE
8
BLACK
6
CONTINUOUS
10
5.4514540551181101
20
-4.3754606299212595
11
5.4446955511811019
21
-4.3754606299212595
0
LINE
8
BLACK
6
CONTINUOUS
10
5.4446955511811019
20
-4.3754606299212595
11
5.4446954330708657
21
-4.3754606299212595
0
LINE
8
BLACK
6
CONTINUOUS
10
5.4446954330708657
20
-4.3754606299212595
11
5.4381335039370073
21
-4.3770779921259839
0
LINE
8
BLACK
6
CONTINUOUS
10
5.4381335039370073
20
-4.3770779921259839
11
5.4321490944881887
21
-4.3802188582677166
0
LINE
8
BLACK
6
CONTINUOUS
10
5.4321490944881887
20
-4.3802188582677166
11
5.4270901574803148
21
-4.3847006692913384
0
LINE
8
BLACK
6
CONTINUOUS
10
5.4270901574803148
20
-4.3847006692913384
11
5.4232509448818895
21
-4.3902626771653539
0
LINE
8
BLACK
6
CONTINUOUS
10
5.4232509448818895
20
-4.3902626771653539
11
5.4232509448818895
21
-4.3902627165354327
0
LINE
8
BLACK
6
CONTINUOUS
10
5.4232509448818895
20
-4.3902627165354327
11
5.4210987795275587
21
-4.3959375590551177
0
LINE
8
BLACK
6
CONTINUOUS
10
5.4210987795275587
20
-4.3959375590551177
11
5.4208543307086616
21
-4.3965820866141732
0
LINE
8
BLACK
6
CONTINUOUS
10
5.4208543307086616
20
-4.3965820866141732
11
5.4200396850393702
21
-4.4032913385826769
0
LINE
8
BLACK
6
CONTINUOUS
10
5.4200396850393702
20
-4.4032913385826769
11
5.420645551181102
21
-4.4082812598425196
0
LINE
8
BLACK
6
CONTINUOUS
10
6.3460314960629916
20
-4.3374724409448815
11
6.3460314960629916
21
-4.3631520866141731
0
LINE
8
BLACK
6
CONTINUOUS
10
6.3460314960629916
20
-4.3631520866141731
11
6.3461453543307087
21
-4.3643664566929132
0
LINE
8
BLACK
6
CONTINUOUS
10
6.3461453543307087
20
-4.3643664566929132
11
6.3479342913385821
21
-4.3694790944881889
0
LINE
8
BLACK
6
CONTINUOUS
10
6.3479342913385821
20
-4.3694790944881889
11
6.3511508267716534
21
-4.3738373228346452
0
LINE
8
BLACK
6
CONTINUOUS
10
6.3511508267716534
20
-4.3738373228346452
11
6.3555090551181097
21
-4.3770538582677165
0
LINE
8
BLACK
6
CONTINUOUS
10
6.3555090551181097
20
-4.3770538582677165
11
6.3606217322834642
21
-4.3788427952755908
0
LINE
8
BLACK
6
CONTINUOUS
10
6.3606217322834642
20
-4.3788427952755908
11
6.3606216929133854
21
-4.3788427952755908
0
LINE
8
BLACK
6
CONTINUOUS
10
6.3606216929133854
20
-4.3788427952755908
11
6.3618361023622043
21
-4.3789566929133859
0
LINE
8
BLACK
6
CONTINUOUS
10
6.3618361023622043
20
-4.3789566929133859
11
6.3875157480314959
21
-4.3789566929133859
0
LINE
8
BLACK
6
CONTINUOUS
10
6.3875157480314959
20
-4.3789566929133859
11
6.3875157480314959
21
-4.3609881889763775
0
LINE
8
BLACK
6
CONTINUOUS
10
6.3875157480314959
20
-4.3609881889763775
11
6.3639999999999999
21
-4.3609881889763775
0
LINE
8
BLACK
6
CONTINUOUS
10
6.3639999999999999
20
-4.3609881889763775
11
6.3639999999999999
21
-4.3374724409448815
0
LINE
8
BLACK
6
CONTINUOUS
10
6.3639999999999999
20
-4.3374724409448815
11
6.3460314960629916
21
-4.3374724409448815
0
LINE
8
BLACK
6
CONTINUOUS
10
6.4290000000000003
20
-4.3374724409448815
11
6.4290000000000003
21
-4.3609881889763775
0
LINE
8
BLACK
6
CONTINUOUS
10
6.4290000000000003
20
-4.3609881889763775
11
6.4054842519685034
21
-4.3609881889763775
0
LINE
8
BLACK
6
CONTINUOUS
10
6.4054842519685034
20
-4.3609881889763775
11
6.4054842519685034
21
-4.3789566929133859
0
LINE
8
BLACK
6
CONTINUOUS
10
6.4054842519685034
20
-4.3789566929133859
11
6.4311638976377949
21
-4.3789566929133859
0
LINE
8
BLACK
6
CONTINUOUS
10
6.4311638976377949
20
-4.3789566929133859
11
6.4323782677165351
21
-4.3788427952755908
0
LINE
8
BLACK
6
CONTINUOUS
10
6.4323782677165351
20
-4.3788427952755908
11
6.4374909055118108
21
-4.3770538582677165
0
LINE
8
BLACK
6
CONTINUOUS
10
6.4374909055118108
20
-4.3770538582677165
11
6.441849133858268
21
-4.373837362204724
0
LINE
8
BLACK
6
CONTINUOUS
10
6.441849133858268
20
-4.373837362204724
11
6.443313267716535
21
-4.3718535433070862
0
LINE
8
BLACK
6
CONTINUOUS
10
6.443313267716535
20
-4.3718535433070862
11
6.4453042913385827
21
-4.3704296062992123
0
LINE
8
BLACK
6
CONTINUOUS
10
6.4453042913385827
20
-4.3704296062992123
11
6.4477520078740156
21
-4.3704479133858269
0
LINE
8
BLACK
6
CONTINUOUS
10
6.4477520078740156
20
-4.3704479133858269
11
6.4496867322834648
21
-4.3718535433070862
0
LINE
8
BLACK
6
CONTINUOUS
10
6.4496867322834648
20
-4.3718535433070862
11
6.4511508267716531
21
-4.373837362204724
0
LINE
8
BLACK
6
CONTINUOUS
10
6.4511508267716531
20
-4.373837362204724
11
6.4555090551181102
21
-4.3770538582677165
0
LINE
8
BLACK
6
CONTINUOUS
10
6.4555090551181102
20
-4.3770538582677165
11
6.4606217322834647
21
-4.3788427952755908
0
LINE
8
BLACK
6
CONTINUOUS
10
6.4606217322834647
20
-4.3788427952755908
11
6.4606216929133859
21
-4.3788427952755908
0
LINE
8
BLACK
6
CONTINUOUS
10
6.4606216929133859
20
-4.3788427952755908
11
6.4618361023622048
21
-4.3789566929133859
0
LINE
8
BLACK
6
CONTINUOUS
10
6.4618361023622048
20
-4.3789566929133859
11
6.4875157480314956
21
-4.3789566929133859
0
LINE
8
BLACK
6
CONTINUOUS
10
6.4875157480314956
20
-4.3789566929133859
11
6.4875157480314956
21
-4.3609881889763775
0
LINE
8
BLACK
6
CONTINUOUS
10
6.4875157480314956
20
-4.3609881889763775
11
6.4639999999999995
21
-4.3609881889763775
0
LINE
8
BLACK
6
CONTINUOUS
10
6.4639999999999995
20
-4.3609881889763775
11
6.4639999999999995
21
-4.3374724409448815
0
LINE
8
BLACK
6
CONTINUOUS
10
6.4639999999999995
20
-4.3374724409448815
11
6.4290000000000003
21
-4.3374724409448815
0
LINE
8
BLACK
6
CONTINUOUS
10
6.5289999999999999
20
-4.3609881889763775
11
6.5054842519685039
21
-4.3609881889763775
0
LINE
8
BLACK
6
CONTINUOUS
10
6.5054842519685039
20
-4.3609881889763775
11
6.5054842519685039
21
-4.3789566929133859
0
LINE
8
BLACK
6
CONTINUOUS
10
6.5054842519685039
20
-4.3789566929133859
11
6.5311638976377955
21
-4.3789566929133859
0
LINE
8
BLACK
6
CONTINUOUS
10
6.5311638976377955
20
-4.3789566929133859
11
6.5323782677165356
21
-4.3788427952755908
0
LINE
8
BLACK
6
CONTINUOUS
10
6.5323782677165356
20
-4.3788427952755908
11
6.5374909055118104
21
-4.3770538582677165
0
LINE
8
BLACK
6
CONTINUOUS
10
6.5374909055118104
20
-4.3770538582677165
11
6.5418491338582676
21
-4.3738373228346452
0
LINE
8
BLACK
6
CONTINUOUS
10
6.5418491338582676
20
-4.3738373228346452
11
6.545065669291338
21
-4.3694790944881889
0
LINE
8
BLACK
6
CONTINUOUS
10
6.545065669291338
20
-4.3694790944881889
11
6.5468546062992123
21
-4.3643664566929132
0
LINE
8
BLACK
6
CONTINUOUS
10
6.5468546062992123
20
-4.3643664566929132
11
6.5469685039370074
21
-4.3631520866141731
0
LINE
8
BLACK
6
CONTINUOUS
10
6.5469685039370074
20
-4.3631520866141731
11
6.5469685039370074
21
-4.3374724409448815
0
LINE
8
BLACK
6
CONTINUOUS
10
6.5469685039370074
20
-4.3374724409448815
11
6.5289999999999999
21
-4.3374724409448815
0
LINE
8
BLACK
6
CONTINUOUS
10
6.5289999999999999
20
-4.3374724409448815
11
6.5289999999999999
21
-4.3609881889763775
0
LINE
8
BLACK
6
CONTINUOUS
10
6.5054842519685039
20
-4.295988188976378
11
6.5289999999999999
21
-4.295988188976378
0
LINE
8
BLACK
6
CONTINUOUS
10
6.5289999999999999
20
-4.295988188976378
11
6.5289999999999999
21
-4.3195039370078741
0
LINE
8
BLACK
6
CONTINUOUS
10
6.5289999999999999
20
-4.3195039370078741
11
6.5469685039370074
21
-4.3195039370078741
0
LINE
8
BLACK
6
CONTINUOUS
10
6.5469685039370074
20
-4.3195039370078741
11
6.5469685039370074
21
-4.2938242519685037
0
LINE
8
BLACK
6
CONTINUOUS
10
6.5469685039370074
20
-4.2938242519685037
11
6.5468546062992123
21
-4.2926098818897636
0
LINE
8
BLACK
6
CONTINUOUS
10
6.5468546062992123
20
-4.2926098818897636
11
6.545065669291338
21
-4.2874972440944878
0
LINE
8
BLACK
6
CONTINUOUS
10
6.545065669291338
20
-4.2874972440944878
11
6.5418491338582676
21
-4.2831390157480316
0
LINE
8
BLACK
6
CONTINUOUS
10
6.5418491338582676
20
-4.2831390157480316
11
6.5374909055118104
21
-4.2799224803149603
0
LINE
8
BLACK
6
CONTINUOUS
10
6.5374909055118104
20
-4.2799224803149603
11
6.5323782283464569
21
-4.2781335433070868
0
LINE
8
BLACK
6
CONTINUOUS
10
6.5323782283464569
20
-4.2781335433070868
11
6.5323782677165356
21
-4.2781335433070868
0
LINE
8
BLACK
6
CONTINUOUS
10
6.5323782677165356
20
-4.2781335433070868
11
6.5311638976377955
21
-4.2780196850393697
0
LINE
8
BLACK
6
CONTINUOUS
10
6.5311638976377955
20
-4.2780196850393697
11
6.5054842519685039
21
-4.2780196850393697
0
LINE
8
BLACK
6
CONTINUOUS
10
6.5054842519685039
20
-4.2780196850393697
11
6.5054842519685039
21
-4.295988188976378
0
LINE
8
BLACK
6
CONTINUOUS
10
6.4054842519685034
20
-4.295988188976378
11
6.4290000000000003
21
-4.295988188976378
0
LINE
8
BLACK
6
CONTINUOUS
10
6.4290000000000003
20
-4.295988188976378
11
6.4290000000000003
21
-4.3195039370078741
0
LINE
8
BLACK
6
CONTINUOUS
10
6.4290000000000003
20
-4.3195039370078741
11
6.4639999999999995
21
-4.3195039370078741
0
LINE
8
BLACK
6
CONTINUOUS
10
6.4639999999999995
20
-4.3195039370078741
11
6.4639999999999995
21
-4.295988188976378
0
LINE
8
BLACK
6
CONTINUOUS
10
6.4639999999999995
20
-4.295988188976378
11
6.4875157480314956
21
-4.295988188976378
0
LINE
8
BLACK
6
CONTINUOUS
10
6.4875157480314956
20
-4.295988188976378
11
6.4875157480314956
21
-4.2780196850393697
0
LINE
8
BLACK
6
CONTINUOUS
10
6.4875157480314956
20
-4.2780196850393697
11
6.4618361023622048
21
-4.2780196850393697
0
LINE
8
BLACK
6
CONTINUOUS
10
6.4618361023622048
20
-4.2780196850393697
11
6.4606216929133859
21
-4.2781335433070868
0
LINE
8
BLACK
6
CONTINUOUS
10
6.4606216929133859
20
-4.2781335433070868
11
6.4555090551181102
21
-4.2799224803149603
0
LINE
8
BLACK
6
CONTINUOUS
10
6.4555090551181102
20
-4.2799224803149603
11
6.4511508267716531
21
-4.2831390157480316
0
LINE
8
BLACK
6
CONTINUOUS
10
6.4511508267716531
20
-4.2831390157480316
11
6.4496867322834648
21
-4.2851227952755906
0
LINE
8
BLACK
6
CONTINUOUS
10
6.4496867322834648
20
-4.2851227952755906
11
6.4476957086614171
21
-4.2865467322834645
0
LINE
8
BLACK
6
CONTINUOUS
10
6.4476957086614171
20
-4.2865467322834645
11
6.4452479527559055
21
-4.2865284251968507
0
LINE
8
BLACK
6
CONTINUOUS
10
6.4452479527559055
20
-4.2865284251968507
11
6.443313267716535
21
-4.2851227952755906
0
LINE
8
BLACK
6
CONTINUOUS
10
6.443313267716535
20
-4.2851227952755906
11
6.441849133858268
21
-4.2831390157480316
0
LINE
8
BLACK
6
CONTINUOUS
10
6.441849133858268
20
-4.2831390157480316
11
6.4374909055118108
21
-4.2799224803149603
0
LINE
8
BLACK
6
CONTINUOUS
10
6.4374909055118108
20
-4.2799224803149603
11
6.4323782283464563
21
-4.2781335433070868
0
LINE
8
BLACK
6
CONTINUOUS
10
6.4323782283464563
20
-4.2781335433070868
11
6.4323782677165351
21
-4.2781335433070868
0
LINE
8
BLACK
6
CONTINUOUS
10
6.4323782677165351
20
-4.2781335433070868
11
6.4311638976377949
21
-4.2780196850393697
0
LINE
8
BLACK
6
CONTINUOUS
10
6.4311638976377949
20
-4.2780196850393697
11
6.4054842519685034
21
-4.2780196850393697
0
LINE
8
BLACK
6
CONTINUOUS
10
6.4054842519685034
20
-4.2780196850393697
11
6.4054842519685034
21
-4.295988188976378
0
LINE
8
BLACK
6
CONTINUOUS
10
6.3606216929133854
20
-4.2781335433070868
11
6.3555090551181097
21
-4.2799224803149603
0
LINE
8
BLACK
6
CONTINUOUS
10
6.3555090551181097
20
-4.2799224803149603
11
6.3511508267716534
21
-4.2831390157480316
0
LINE
8
BLACK
6
CONTINUOUS
10
6.3511508267716534
20
-4.2831390157480316
11
6.3479342913385821
21
-4.2874972440944878
0
LINE
8
BLACK
6
CONTINUOUS
10
6.3479342913385821
20
-4.2874972440944878
11
6.3461453543307087
21
-4.2926098818897636
0
LINE
8
BLACK
6
CONTINUOUS
10
6.3461453543307087
20
-4.2926098818897636
11
6.3460314960629916
21
-4.2938242519685037
0
LINE
8
BLACK
6
CONTINUOUS
10
6.3460314960629916
20
-4.2938242519685037
11
6.3460314960629916
21
-4.3195039370078741
0
LINE
8
BLACK
6
CONTINUOUS
10
6.3460314960629916
20
-4.3195039370078741
11
6.3639999999999999
21
-4.3195039370078741
0
LINE
8
BLACK
6
CONTINUOUS
10
6.3639999999999999
20
-4.3195039370078741
11
6.3639999999999999
21
-4.295988188976378
0
LINE
8
BLACK
6
CONTINUOUS
10
6.3639999999999999
20
-4.295988188976378
11
6.3875157480314959
21
-4.295988188976378
0
LINE
8
BLACK
6
CONTINUOUS
10
6.3875157480314959
20
-4.295988188976378
11
6.3875157480314959
21
-4.2780196850393697
0
LINE
8
BLACK
6
CONTINUOUS
10
6.3875157480314959
20
-4.2780196850393697
11
6.3618361023622043
21
-4.2780196850393697
0
LINE
8
BLACK
6
CONTINUOUS
10
6.3618361023622043
20
-4.2780196850393697
11
6.3606216929133854
21
-4.2781335433070868
0
LINE
8
BLACK
6
CONTINUOUS
10
6.3564455905511812
20
-4.2641172834645671
11
6.3564456299212599
21
-4.2641173228346458
0
LINE
8
BLACK
6
CONTINUOUS
10
6.3564456299212599
20
-4.2641173228346458
11
6.3582181102362201
21
-4.2667700787401577
0
LINE
8
BLACK
6
CONTINUOUS
10
6.3582181102362201
20
-4.2667700787401577
11
6.3608708661417319
21
-4.2685425590551178
0
LINE
8
BLACK
6
CONTINUOUS
10
6.3608708661417319
20
-4.2685425590551178
11
6.3632100787401571
21
-4.269007874015748
0
LINE
8
BLACK
6
CONTINUOUS
10
6.3632100787401571
20
-4.269007874015748
11
6.3632101181102358
21
-4.269007874015748
0
LINE
8
BLACK
6
CONTINUOUS
10
6.3632101181102358
20
-4.269007874015748
11
6.4297898818897634
21
-4.269007874015748
0
LINE
8
BLACK
6
CONTINUOUS
10
6.4297898818897634
20
-4.269007874015748
11
6.4297899212598422
21
-4.269007874015748
0
LINE
8
BLACK
6
CONTINUOUS
10
6.4297899212598422
20
-4.269007874015748
11
6.4321291338582673
21
-4.2685425590551178
0
LINE
8
BLACK
6
CONTINUOUS
10
6.4321291338582673
20
-4.2685425590551178
11
6.4347818897637792
21
-4.2667700787401577
0
LINE
8
BLACK
6
CONTINUOUS
10
6.4347818897637792
20
-4.2667700787401577
11
6.4365543700787402
21
-4.2641173228346458
0
LINE
8
BLACK
6
CONTINUOUS
10
6.4365543700787402
20
-4.2641173228346458
11
6.4370196850393695
21
-4.2617781102362207
0
LINE
8
BLACK
6
CONTINUOUS
10
6.4370196850393695
20
-4.2617781102362207
11
6.4370196850393695
21
-4.2617780708661419
0
LINE
8
BLACK
6
CONTINUOUS
10
6.4370196850393695
20
-4.2617780708661419
11
6.4370196850393695
21
-4.1951982677165356
0
LINE
8
BLACK
6
CONTINUOUS
10
6.4370196850393695
20
-4.1951982677165356
11
6.4365543700787402
21
-4.1928590551181104
0
LINE
8
BLACK
6
CONTINUOUS
10
6.4365543700787402
20
-4.1928590551181104
11
6.4347818897637792
21
-4.1902062992125986
0
LINE
8
BLACK
6
CONTINUOUS
10
6.4347818897637792
20
-4.1902062992125986
11
6.4321291338582673
21
-4.1884338188976376
0
LINE
8
BLACK
6
CONTINUOUS
10
6.4321291338582673
20
-4.1884338188976376
11
6.4321290944881886
21
-4.1884337795275588
0
LINE
8
BLACK
6
CONTINUOUS
10
6.4321290944881886
20
-4.1884337795275588
11
6.4302551968503936
21
-4.1880610236220468
0
LINE
8
BLACK
6
CONTINUOUS
10
6.4302551968503936
20
-4.1880610236220468
11
6.4297899212598422
21
-4.1879685039370074
0
LINE
8
BLACK
6
CONTINUOUS
10
6.4297899212598422
20
-4.1879685039370074
11
6.3632100787401571
21
-4.1879685039370074
0
LINE
8
BLACK
6
CONTINUOUS
10
6.3632100787401571
20
-4.1879685039370074
11
6.3628219685039369
21
-4.1880456692913386
0
LINE
8
BLACK
6
CONTINUOUS
10
6.3628219685039369
20
-4.1880456692913386
11
6.3608708661417319
21
-4.1884337795275588
0
LINE
8
BLACK
6
CONTINUOUS
10
6.3608708661417319
20
-4.1884337795275588
11
6.3582181102362201
21
-4.1902062992125986
0
LINE
8
BLACK
6
CONTINUOUS
10
6.3582181102362201
20
-4.1902062992125986
11
6.3564455905511812
21
-4.1928590551181104
0
LINE
8
BLACK
6
CONTINUOUS
10
6.3564455905511812
20
-4.1928590551181104
11
6.3559803149606298
21
-4.1951982677165356
0
LINE
8
BLACK
6
CONTINUOUS
10
6.3559803149606298
20
-4.1951982677165356
11
6.3559803149606298
21
-4.2617780708661419
0
LINE
8
BLACK
6
CONTINUOUS
10
6.3559803149606298
20
-4.2617780708661419
11
6.3564455905511812
21
-4.2641172834645671
0
LINE
8
BLACK
6
CONTINUOUS
10
6.4564455905511808
20
-4.2641172834645671
11
6.4564456299212596
21
-4.2641173228346458
0
LINE
8
BLACK
6
CONTINUOUS
10
6.4564456299212596
20
-4.2641173228346458
11
6.4582181102362206
21
-4.2667700787401577
0
LINE
8
BLACK
6
CONTINUOUS
10
6.4582181102362206
20
-4.2667700787401577
11
6.4608708661417324
21
-4.2685425590551178
0
LINE
8
BLACK
6
CONTINUOUS
10
6.4608708661417324
20
-4.2685425590551178
11
6.4632100787401576
21
-4.269007874015748
0
LINE
8
BLACK
6
CONTINUOUS
10
6.4632100787401576
20
-4.269007874015748
11
6.4632101181102364
21
-4.269007874015748
0
LINE
8
BLACK
6
CONTINUOUS
10
6.4632101181102364
20
-4.269007874015748
11
6.5297898818897639
21
-4.269007874015748
0
LINE
8
BLACK
6
CONTINUOUS
10
6.5297898818897639
20
-4.269007874015748
11
6.5297899212598427
21
-4.269007874015748
0
LINE
8
BLACK
6
CONTINUOUS
10
6.5297899212598427
20
-4.269007874015748
11
6.5321291338582679
21
-4.2685425590551178
0
LINE
8
BLACK
6
CONTINUOUS
10
6.5321291338582679
20
-4.2685425590551178
11
6.5347818897637797
21
-4.2667700787401577
0
LINE
8
BLACK
6
CONTINUOUS
10
6.5347818897637797
20
-4.2667700787401577
11
6.5365543700787399
21
-4.2641173228346458
0
LINE
8
BLACK
6
CONTINUOUS
10
6.5365543700787399
20
-4.2641173228346458
11
6.53701968503937
21
-4.2617781102362207
0
LINE
8
BLACK
6
CONTINUOUS
10
6.53701968503937
20
-4.2617781102362207
11
6.53701968503937
21
-4.1951982677165356
0
LINE
8
BLACK
6
CONTINUOUS
10
6.53701968503937
20
-4.1951982677165356
11
6.5365543700787399
21
-4.1928590551181104
0
LINE
8
BLACK
6
CONTINUOUS
10
6.5365543700787399
20
-4.1928590551181104
11
6.5347818897637797
21
-4.1902062992125986
0
LINE
8
BLACK
6
CONTINUOUS
10
6.5347818897637797
20
-4.1902062992125986
11
6.5321291338582679
21
-4.1884338188976376
0
LINE
8
BLACK
6
CONTINUOUS
10
6.5321291338582679
20
-4.1884338188976376
11
6.5321290944881891
21
-4.1884337795275588
0
LINE
8
BLACK
6
CONTINUOUS
10
6.5321290944881891
20
-4.1884337795275588
11
6.5302551968503932
21
-4.1880610236220468
0
LINE
8
BLACK
6
CONTINUOUS
10
6.5302551968503932
20
-4.1880610236220468
11
6.5297899212598427
21
-4.1879685039370074
0
LINE
8
BLACK
6
CONTINUOUS
10
6.5297899212598427
20
-4.1879685039370074
11
6.4632100787401576
21
-4.1879685039370074
0
LINE
8
BLACK
6
CONTINUOUS
10
6.4632100787401576
20
-4.1879685039370074
11
6.4628219685039365
21
-4.1880456692913386
0
LINE
8
BLACK
6
CONTINUOUS
10
6.4628219685039365
20
-4.1880456692913386
11
6.4608708661417324
21
-4.1884337795275588
0
LINE
8
BLACK
6
CONTINUOUS
10
6.4608708661417324
20
-4.1884337795275588
11
6.4582181102362206
21
-4.1902062992125986
0
LINE
8
BLACK
6
CONTINUOUS
10
6.4582181102362206
20
-4.1902062992125986
11
6.4564455905511808
21
-4.1928590551181104
0
LINE
8
BLACK
6
CONTINUOUS
10
6.4564455905511808
20
-4.1928590551181104
11
6.4559803149606294
21
-4.1951982677165356
0
LINE
8
BLACK
6
CONTINUOUS
10
6.4559803149606294
20
-4.1951982677165356
11
6.4559803149606294
21
-4.2617780708661419
0
LINE
8
BLACK
6
CONTINUOUS
10
6.4559803149606294
20
-4.2617780708661419
11
6.4564455905511808
21
-4.2641172834645671
0
LINE
8
BLACK
6
CONTINUOUS
10
6.4290000000000003
20
-4.1374724409448822
11
6.4290000000000003
21
-4.1609881889763782
0
LINE
8
BLACK
6
CONTINUOUS
10
6.4290000000000003
20
-4.1609881889763782
11
6.4054842519685034
21
-4.1609881889763782
0
LINE
8
BLACK
6
CONTINUOUS
10
6.4054842519685034
20
-4.1609881889763782
11
6.4054842519685034
21
-4.1789566929133857
0
LINE
8
BLACK
6
CONTINUOUS
10
6.4054842519685034
20
-4.1789566929133857
11
6.4311638976377949
21
-4.1789566929133857
0
LINE
8
BLACK
6
CONTINUOUS
10
6.4311638976377949
20
-4.1789566929133857
11
6.4323782677165351
21
-4.1788427952755907
0
LINE
8
BLACK
6
CONTINUOUS
10
6.4323782677165351
20
-4.1788427952755907
11
6.4374909055118108
21
-4.1770538582677164
0
LINE
8
BLACK
6
CONTINUOUS
10
6.4374909055118108
20
-4.1770538582677164
11
6.441849133858268
21
-4.1738373622047247
0
LINE
8
BLACK
6
CONTINUOUS
10
6.441849133858268
20
-4.1738373622047247
11
6.443313267716535
21
-4.1718535433070869
0
LINE
8
BLACK
6
CONTINUOUS
10
6.443313267716535
20
-4.1718535433070869
11
6.4453042913385827
21
-4.1704296062992121
0
LINE
8
BLACK
6
CONTINUOUS
10
6.4453042913385827
20
-4.1704296062992121
11
6.4477520078740156
21
-4.1704479133858268
0
LINE
8
BLACK
6
CONTINUOUS
10
6.4477520078740156
20
-4.1704479133858268
11
6.4496867322834648
21
-4.1718535433070869
0
LINE
8
BLACK
6
CONTINUOUS
10
6.4496867322834648
20
-4.1718535433070869
11
6.4511508267716531
21
-4.1738373622047247
0
LINE
8
BLACK
6
CONTINUOUS
10
6.4511508267716531
20
-4.1738373622047247
11
6.4555090551181102
21
-4.1770538582677164
0
LINE
8
BLACK
6
CONTINUOUS
10
6.4555090551181102
20
-4.1770538582677164
11
6.4606217322834647
21
-4.1788427952755907
0
LINE
8
BLACK
6
CONTINUOUS
10
6.4606217322834647
20
-4.1788427952755907
11
6.4606216929133859
21
-4.1788427952755907
0
LINE
8
BLACK
6
CONTINUOUS
10
6.4606216929133859
20
-4.1788427952755907
11
6.4618361023622048
21
-4.1789566929133857
0
LINE
8
BLACK
6
CONTINUOUS
10
6.4618361023622048
20
-4.1789566929133857
11
6.4875157480314956
21
-4.1789566929133857
0
LINE
8
BLACK
6
CONTINUOUS
10
6.4875157480314956
20
-4.1789566929133857
11
6.4875157480314956
21
-4.1609881889763782
0
LINE
8
BLACK
6
CONTINUOUS
10
6.4875157480314956
20
-4.1609881889763782
11
6.4639999999999995
21
-4.1609881889763782
0
LINE
8
BLACK
6
CONTINUOUS
10
6.4639999999999995
20
-4.1609881889763782
11
6.4639999999999995
21
-4.1374724409448822
0
LINE
8
BLACK
6
CONTINUOUS
10
6.4639999999999995
20
-4.1374724409448822
11
6.4290000000000003
21
-4.1374724409448822
0
LINE
8
BLACK
6
CONTINUOUS
10
6.5289999999999999
20
-4.1609881889763782
11
6.5054842519685039
21
-4.1609881889763782
0
LINE
8
BLACK
6
CONTINUOUS
10
6.5054842519685039
20
-4.1609881889763782
11
6.5054842519685039
21
-4.1789566929133857
0
LINE
8
BLACK
6
CONTINUOUS
10
6.5054842519685039
20
-4.1789566929133857
11
6.5311638976377955
21
-4.1789566929133857
0
LINE
8
BLACK
6
CONTINUOUS
10
6.5311638976377955
20
-4.1789566929133857
11
6.5323782677165356
21
-4.1788427952755907
0
LINE
8
BLACK
6
CONTINUOUS
10
6.5323782677165356
20
-4.1788427952755907
11
6.5374909055118104
21
-4.1770538582677164
0
LINE
8
BLACK
6
CONTINUOUS
10
6.5374909055118104
20
-4.1770538582677164
11
6.5418491338582676
21
-4.1738373228346459
0
LINE
8
BLACK
6
CONTINUOUS
10
6.5418491338582676
20
-4.1738373228346459
11
6.545065669291338
21
-4.1694790944881888
0
LINE
8
BLACK
6
CONTINUOUS
10
6.545065669291338
20
-4.1694790944881888
11
6.5468546062992123
21
-4.1643664566929131
0
LINE
8
BLACK
6
CONTINUOUS
10
6.5468546062992123
20
-4.1643664566929131
11
6.5469685039370074
21
-4.1631520866141729
0
LINE
8
BLACK
6
CONTINUOUS
10
6.5469685039370074
20
-4.1631520866141729
11
6.5469685039370074
21
-4.1374724409448822
0
LINE
8
BLACK
6
CONTINUOUS
10
6.5469685039370074
20
-4.1374724409448822
11
6.5289999999999999
21
-4.1374724409448822
0
LINE
8
BLACK
6
CONTINUOUS
10
6.5289999999999999
20
-4.1374724409448822
11
6.5289999999999999
21
-4.1609881889763782
0
LINE
8
BLACK
6
CONTINUOUS
10
6.5054842519685039
20
-4.0959881889763778
11
6.5289999999999999
21
-4.0959881889763778
0
LINE
8
BLACK
6
CONTINUOUS
10
6.5289999999999999
20
-4.0959881889763778
11
6.5289999999999999
21
-4.1195039370078739
0
LINE
8
BLACK
6
CONTINUOUS
10
6.5289999999999999
20
-4.1195039370078739
11
6.5469685039370074
21
-4.1195039370078739
0
LINE
8
BLACK
6
CONTINUOUS
10
6.5469685039370074
20
-4.1195039370078739
11
6.5469685039370074
21
-4.0938242519685035
0
LINE
8
BLACK
6
CONTINUOUS
10
6.5469685039370074
20
-4.0938242519685035
11
6.5468546062992123
21
-4.0926098818897634
0
LINE
8
BLACK
6
CONTINUOUS
10
6.5468546062992123
20
-4.0926098818897634
11
6.545065669291338
21
-4.0874972440944877
0
LINE
8
BLACK
6
CONTINUOUS
10
6.545065669291338
20
-4.0874972440944877
11
6.5418491338582676
21
-4.0831390157480314
0
LINE
8
BLACK
6
CONTINUOUS
10
6.5418491338582676
20
-4.0831390157480314
11
6.5374909055118104
21
-4.079922480314961
0
LINE
8
BLACK
6
CONTINUOUS
10
6.5374909055118104
20
-4.079922480314961
11
6.5323782283464569
21
-4.0781335433070867
0
LINE
8
BLACK
6
CONTINUOUS
10
6.5323782283464569
20
-4.0781335433070867
11
6.5323782677165356
21
-4.0781335433070867
0
LINE
8
BLACK
6
CONTINUOUS
10
6.5323782677165356
20
-4.0781335433070867
11
6.5311638976377955
21
-4.0780196850393704
0
LINE
8
BLACK
6
CONTINUOUS
10
6.5311638976377955
20
-4.0780196850393704
11
6.5054842519685039
21
-4.0780196850393704
0
LINE
8
BLACK
6
CONTINUOUS
10
6.5054842519685039
20
-4.0780196850393704
11
6.5054842519685039
21
-4.0959881889763778
0
LINE
8
BLACK
6
CONTINUOUS
10
6.4054842519685034
20
-4.0959881889763778
11
6.4290000000000003
21
-4.0959881889763778
0
LINE
8
BLACK
6
CONTINUOUS
10
6.4290000000000003
20
-4.0959881889763778
11
6.4290000000000003
21
-4.1195039370078739
0
LINE
8
BLACK
6
CONTINUOUS
10
6.4290000000000003
20
-4.1195039370078739
11
6.4639999999999995
21
-4.1195039370078739
0
LINE
8
BLACK
6
CONTINUOUS
10
6.4639999999999995
20
-4.1195039370078739
11
6.4639999999999995
21
-4.0959881889763778
0
LINE
8
BLACK
6
CONTINUOUS
10
6.4639999999999995
20
-4.0959881889763778
11
6.4875157480314956
21
-4.0959881889763778
0
LINE
8
BLACK
6
CONTINUOUS
10
6.4875157480314956
20
-4.0959881889763778
11
6.4875157480314956
21
-4.0780196850393704
0
LINE
8
BLACK
6
CONTINUOUS
10
6.4875157480314956
20
-4.0780196850393704
11
6.4618361023622048
21
-4.0780196850393704
0
LINE
8
BLACK
6
CONTINUOUS
10
6.4618361023622048
20
-4.0780196850393704
11
6.4606216929133859
21
-4.0781335433070867
0
LINE
8
BLACK
6
CONTINUOUS
10
6.4606216929133859
20
-4.0781335433070867
11
6.4555090551181102
21
-4.079922480314961
0
LINE
8
BLACK
6
CONTINUOUS
10
6.4555090551181102
20
-4.079922480314961
11
6.4511508267716531
21
-4.0831390157480314
0
LINE
8
BLACK
6
CONTINUOUS
10
6.4511508267716531
20
-4.0831390157480314
11
6.4496867322834648
21
-4.0851227952755904
0
LINE
8
BLACK
6
CONTINUOUS
10
6.4496867322834648
20
-4.0851227952755904
11
6.4476957086614171
21
-4.0865467322834643
0
LINE
8
BLACK
6
CONTINUOUS
10
6.4476957086614171
20
-4.0865467322834643
11
6.4452479527559055
21
-4.0865284251968506
0
LINE
8
BLACK
6
CONTINUOUS
10
6.4452479527559055
20
-4.0865284251968506
11
6.443313267716535
21
-4.0851227952755904
0
LINE
8
BLACK
6
CONTINUOUS
10
6.443313267716535
20
-4.0851227952755904
11
6.441849133858268
21
-4.0831390157480314
0
LINE
8
BLACK
6
CONTINUOUS
10
6.441849133858268
20
-4.0831390157480314
11
6.4374909055118108
21
-4.079922480314961
0
LINE
8
BLACK
6
CONTINUOUS
10
6.4374909055118108
20
-4.079922480314961
11
6.4323782283464563
21
-4.0781335433070867
0
LINE
8
BLACK
6
CONTINUOUS
10
6.4323782283464563
20
-4.0781335433070867
11
6.4323782677165351
21
-4.0781335433070867
0
LINE
8
BLACK
6
CONTINUOUS
10
6.4323782677165351
20
-4.0781335433070867
11
6.4311638976377949
21
-4.0780196850393704
0
LINE
8
BLACK
6
CONTINUOUS
10
6.4311638976377949
20
-4.0780196850393704
11
6.4054842519685034
21
-4.0780196850393704
0
LINE
8
BLACK
6
CONTINUOUS
10
6.4054842519685034
20
-4.0780196850393704
11
6.4054842519685034
21
-4.0959881889763778
0
LINE
8
BLACK
6
CONTINUOUS
10
6.3606216929133854
20
-4.0781335433070867
11
6.3555090551181097
21
-4.079922480314961
0
LINE
8
BLACK
6
CONTINUOUS
10
6.3555090551181097
20
-4.079922480314961
11
6.3511508267716534
21
-4.0831390157480314
0
LINE
8
BLACK
6
CONTINUOUS
10
6.3511508267716534
20
-4.0831390157480314
11
6.3479342913385821
21
-4.0874972440944877
0
LINE
8
BLACK
6
CONTINUOUS
10
6.3479342913385821
20
-4.0874972440944877
11
6.3461453543307087
21
-4.0926098818897634
0
LINE
8
BLACK
6
CONTINUOUS
10
6.3461453543307087
20
-4.0926098818897634
11
6.3460314960629916
21
-4.0938242519685035
0
LINE
8
BLACK
6
CONTINUOUS
10
6.3460314960629916
20
-4.0938242519685035
11
6.3460314960629916
21
-4.1195039370078739
0
LINE
8
BLACK
6
CONTINUOUS
10
6.3460314960629916
20
-4.1195039370078739
11
6.3639999999999999
21
-4.1195039370078739
0
LINE
8
BLACK
6
CONTINUOUS
10
6.3639999999999999
20
-4.1195039370078739
11
6.3639999999999999
21
-4.0959881889763778
0
LINE
8
BLACK
6
CONTINUOUS
10
6.3639999999999999
20
-4.0959881889763778
11
6.3875157480314959
21
-4.0959881889763778
0
LINE
8
BLACK
6
CONTINUOUS
10
6.3875157480314959
20
-4.0959881889763778
11
6.3875157480314959
21
-4.0780196850393704
0
LINE
8
BLACK
6
CONTINUOUS
10
6.3875157480314959
20
-4.0780196850393704
11
6.3618361023622043
21
-4.0780196850393704
0
LINE
8
BLACK
6
CONTINUOUS
10
6.3618361023622043
20
-4.0780196850393704
11
6.3606216929133854
21
-4.0781335433070867
0
LINE
8
BLACK
6
CONTINUOUS
10
5.1848537401574806
20
-4.0923937007874018
11
5.1856468503937005
21
-4.0929790551181098
0
LINE
8
BLACK
6
CONTINUOUS
10
5.1856468503937005
20
-4.0929790551181098
11
5.190759527559055
21
-4.0947679921259841
0
LINE
8
BLACK
6
CONTINUOUS
10
5.190759527559055
20
-4.0947679921259841
11
5.1907594881889763
21
-4.0947679921259841
0
LINE
8
BLACK
6
CONTINUOUS
10
5.1907594881889763
20
-4.0947679921259841
11
5.1919738976377952
21
-4.0948818897637791
0
LINE
8
BLACK
6
CONTINUOUS
10
5.1919738976377952
20
-4.0948818897637791
11
5.2146811023622046
21
-4.0948818897637791
0
LINE
8
BLACK
6
CONTINUOUS
10
5.2146811023622046
20
-4.0948818897637791
11
5.2146811023622046
21
-4.0923937007874018
0
LINE
8
BLACK
6
CONTINUOUS
10
5.2146811023622046
20
-4.0923937007874018
11
5.1848537401574806
21
-4.0923937007874018
0
LINE
8
BLACK
6
CONTINUOUS
10
5.2326496062992121
20
-4.0923937007874018
11
5.2326496062992121
21
-4.0948818897637791
0
LINE
8
BLACK
6
CONTINUOUS
10
5.2326496062992121
20
-4.0948818897637791
11
5.2553568110236215
21
-4.0948818897637791
0
LINE
8
BLACK
6
CONTINUOUS
10
5.2553568110236215
20
-4.0948818897637791
11
5.2565711811023617
21
-4.0947679921259841
0
LINE
8
BLACK
6
CONTINUOUS
10
5.2565711811023617
20
-4.0947679921259841
11
5.2616838188976374
21
-4.0929790551181098
0
LINE
8
BLACK
6
CONTINUOUS
10
5.2616838188976374
20
-4.0929790551181098
11
5.2624769291338582
21
-4.0923937007874018
0
LINE
8
BLACK
6
CONTINUOUS
10
5.2624769291338582
20
-4.0923937007874018
11
5.2326496062992121
21
-4.0923937007874018
0
LINE
8
BLACK
6
CONTINUOUS
10
6.3628219685039369
20
-3.9415889763779526
11
6.3608708661417319
21
-3.9419770866141732
0
LINE
8
BLACK
6
CONTINUOUS
10
6.3608708661417319
20
-3.9419770866141732
11
6.3582181102362201
21
-3.9437496062992126
0
LINE
8
BLACK
6
CONTINUOUS
10
6.3582181102362201
20
-3.9437496062992126
11
6.3564455905511812
21
-3.9464023622047244
0
LINE
8
BLACK
6
CONTINUOUS
10
6.3564455905511812
20
-3.9464023622047244
11
6.3559803149606298
21
-3.9487415748031496
0
LINE
8
BLACK
6
CONTINUOUS
10
6.3559803149606298
20
-3.9487415748031496
11
6.3559803149606298
21
-4.0153213779527555
0
LINE
8
BLACK
6
CONTINUOUS
10
6.3559803149606298
20
-4.0153213779527555
11
6.3564455905511812
21
-4.0176605905511806
0
LINE
8
BLACK
6
CONTINUOUS
10
6.3564455905511812
20
-4.0176605905511806
11
6.3566295669291337
21
-4.0179359055118109
0
LINE
8
BLACK
6
CONTINUOUS
10
6.3566295669291337
20
-4.0179359055118109
11
6.3582181102362201
21
-4.0203133858267712
0
LINE
8
BLACK
6
CONTINUOUS
10
6.3582181102362201
20
-4.0203133858267712
11
6.3608708661417319
21
-4.0220858661417322
0
LINE
8
BLACK
6
CONTINUOUS
10
6.3608708661417319
20
-4.0220858661417322
11
6.3632100787401571
21
-4.0225511811023624
0
LINE
8
BLACK
6
CONTINUOUS
10
6.3632100787401571
20
-4.0225511811023624
11
6.3632101181102358
21
-4.0225511811023624
0
LINE
8
BLACK
6
CONTINUOUS
10
6.3632101181102358
20
-4.0225511811023624
11
6.4297898818897634
21
-4.0225511811023624
0
LINE
8
BLACK
6
CONTINUOUS
10
6.4297898818897634
20
-4.0225511811023624
11
6.4297899212598422
21
-4.0225511811023624
0
LINE
8
BLACK
6
CONTINUOUS
10
6.4297899212598422
20
-4.0225511811023624
11
6.4321291338582673
21
-4.0220858661417322
0
LINE
8
BLACK
6
CONTINUOUS
10
6.4321291338582673
20
-4.0220858661417322
11
6.4347818897637792
21
-4.0203133858267712
0
LINE
8
BLACK
6
CONTINUOUS
10
6.4347818897637792
20
-4.0203133858267712
11
6.4365543700787402
21
-4.0176606299212594
0
LINE
8
BLACK
6
CONTINUOUS
10
6.4365543700787402
20
-4.0176606299212594
11
6.4370196850393695
21
-4.0153214173228342
0
LINE
8
BLACK
6
CONTINUOUS
10
6.4370196850393695
20
-4.0153214173228342
11
6.4370196850393695
21
-4.0153213779527555
0
LINE
8
BLACK
6
CONTINUOUS
10
6.4370196850393695
20
-4.0153213779527555
11
6.4370196850393695
21
-3.9487415748031496
0
LINE
8
BLACK
6
CONTINUOUS
10
6.4370196850393695
20
-3.9487415748031496
11
6.4365543700787402
21
-3.9464023622047244
0
LINE
8
BLACK
6
CONTINUOUS
10
6.4365543700787402
20
-3.9464023622047244
11
6.4347818897637792
21
-3.9437496062992126
0
LINE
8
BLACK
6
CONTINUOUS
10
6.4347818897637792
20
-3.9437496062992126
11
6.4321291338582673
21
-3.941977125984252
0
LINE
8
BLACK
6
CONTINUOUS
10
6.4321291338582673
20
-3.941977125984252
11
6.4321290944881886
21
-3.9419770866141732
0
LINE
8
BLACK
6
CONTINUOUS
10
6.4321290944881886
20
-3.9419770866141732
11
6.4302551968503936
21
-3.9416043307086612
0
LINE
8
BLACK
6
CONTINUOUS
10
6.4302551968503936
20
-3.9416043307086612
11
6.4297899212598422
21
-3.9415118110236218
0
LINE
8
BLACK
6
CONTINUOUS
10
6.4297899212598422
20
-3.9415118110236218
11
6.3632100787401571
21
-3.9415118110236218
0
LINE
8
BLACK
6
CONTINUOUS
10
6.3632100787401571
20
-3.9415118110236218
11
6.3628219685039369
21
-3.9415889763779526
0
LINE
8
BLACK
6
CONTINUOUS
10
6.4564455905511808
20
-4.0176605905511806
11
6.4566295669291334
21
-4.0179359055118109
0
LINE
8
BLACK
6
CONTINUOUS
10
6.4566295669291334
20
-4.0179359055118109
11
6.4582181102362206
21
-4.0203133858267712
0
LINE
8
BLACK
6
CONTINUOUS
10
6.4582181102362206
20
-4.0203133858267712
11
6.4608708661417324
21
-4.0220858661417322
0
LINE
8
BLACK
6
CONTINUOUS
10
6.4608708661417324
20
-4.0220858661417322
11
6.4632100787401576
21
-4.0225511811023624
0
LINE
8
BLACK
6
CONTINUOUS
10
6.4632100787401576
20
-4.0225511811023624
11
6.4632101181102364
21
-4.0225511811023624
0
LINE
8
BLACK
6
CONTINUOUS
10
6.4632101181102364
20
-4.0225511811023624
11
6.5297898818897639
21
-4.0225511811023624
0
LINE
8
BLACK
6
CONTINUOUS
10
6.5297898818897639
20
-4.0225511811023624
11
6.5297899212598427
21
-4.0225511811023624
0
LINE
8
BLACK
6
CONTINUOUS
10
6.5297899212598427
20
-4.0225511811023624
11
6.5321291338582679
21
-4.0220858661417322
0
LINE
8
BLACK
6
CONTINUOUS
10
6.5321291338582679
20
-4.0220858661417322
11
6.5347818897637797
21
-4.0203133858267712
0
LINE
8
BLACK
6
CONTINUOUS
10
6.5347818897637797
20
-4.0203133858267712
11
6.5365543700787399
21
-4.0176606299212594
0
LINE
8
BLACK
6
CONTINUOUS
10
6.5365543700787399
20
-4.0176606299212594
11
6.53701968503937
21
-4.0153214173228342
0
LINE
8
BLACK
6
CONTINUOUS
10
6.53701968503937
20
-4.0153214173228342
11
6.53701968503937
21
-3.9487415748031496
0
LINE
8
BLACK
6
CONTINUOUS
10
6.53701968503937
20
-3.9487415748031496
11
6.5365543700787399
21
-3.9464023622047244
0
LINE
8
BLACK
6
CONTINUOUS
10
6.5365543700787399
20
-3.9464023622047244
11
6.5347818897637797
21
-3.9437496062992126
0
LINE
8
BLACK
6
CONTINUOUS
10
6.5347818897637797
20
-3.9437496062992126
11
6.5321291338582679
21
-3.941977125984252
0
LINE
8
BLACK
6
CONTINUOUS
10
6.5321291338582679
20
-3.941977125984252
11
6.5321290944881891
21
-3.9419770866141732
0
LINE
8
BLACK
6
CONTINUOUS
10
6.5321290944881891
20
-3.9419770866141732
11
6.5302551968503932
21
-3.9416043307086612
0
LINE
8
BLACK
6
CONTINUOUS
10
6.5302551968503932
20
-3.9416043307086612
11
6.5297899212598427
21
-3.9415118110236218
0
LINE
8
BLACK
6
CONTINUOUS
10
6.5297899212598427
20
-3.9415118110236218
11
6.4632100787401576
21
-3.9415118110236218
0
LINE
8
BLACK
6
CONTINUOUS
10
6.4632100787401576
20
-3.9415118110236218
11
6.4628219685039365
21
-3.9415889763779526
0
LINE
8
BLACK
6
CONTINUOUS
10
6.4628219685039365
20
-3.9415889763779526
11
6.4608708661417324
21
-3.9419770866141732
0
LINE
8
BLACK
6
CONTINUOUS
10
6.4608708661417324
20
-3.9419770866141732
11
6.4582181102362206
21
-3.9437496062992126
0
LINE
8
BLACK
6
CONTINUOUS
10
6.4582181102362206
20
-3.9437496062992126
11
6.4564455905511808
21
-3.9464023622047244
0
LINE
8
BLACK
6
CONTINUOUS
10
6.4564455905511808
20
-3.9464023622047244
11
6.4559803149606294
21
-3.9487415748031496
0
LINE
8
BLACK
6
CONTINUOUS
10
6.4559803149606294
20
-3.9487415748031496
11
6.4559803149606294
21
-4.0153213779527555
0
LINE
8
BLACK
6
CONTINUOUS
10
6.4559803149606294
20
-4.0153213779527555
11
6.4564455905511808
21
-4.0176605905511806
0
LINE
8
BLACK
6
CONTINUOUS
10
5.0842240157480312
20
-4.0067284645669288
11
5.0842240551181099
21
-4.006728582677165
0
LINE
8
BLACK
6
CONTINUOUS
10
5.0842240551181099
20
-4.006728582677165
11
5.0865278346456693
21
-4.0112499999999995
0
LINE
8
BLACK
6
CONTINUOUS
10
5.0865278346456693
20
-4.0112499999999995
11
5.090116102362205
21
-4.0148382677165353
0
LINE
8
BLACK
6
CONTINUOUS
10
5.090116102362205
20
-4.0148382677165353
11
5.094637440944882
21
-4.0171420472440946
0
LINE
8
BLACK
6
CONTINUOUS
10
5.094637440944882
20
-4.0171420472440946
11
5.0946374803149608
21
-4.0171420472440946
0
LINE
8
BLACK
6
CONTINUOUS
10
5.0946374803149608
20
-4.0171420472440946
11
5.0946375590551183
21
-4.0171420866141734
0
LINE
8
BLACK
6
CONTINUOUS
10
5.0946375590551183
20
-4.0171420866141734
11
5.0979115354330711
21
-4.0176606299212594
0
LINE
8
BLACK
6
CONTINUOUS
10
5.0979115354330711
20
-4.0176606299212594
11
5.0983888188976376
21
-4.0177362204724405
0
LINE
8
BLACK
6
CONTINUOUS
10
5.0983888188976376
20
-4.0177362204724405
11
5.0996495275590554
21
-4.0179359055118109
0
LINE
8
BLACK
6
CONTINUOUS
10
5.0996495275590554
20
-4.0179359055118109
11
5.099649606299212
21
-4.0179359055118109
0
LINE
8
BLACK
6
CONTINUOUS
10
5.099649606299212
20
-4.0179359055118109
11
5.0996496456692908
21
-4.0179359055118109
0
LINE
8
BLACK
6
CONTINUOUS
10
5.0996496456692908
20
-4.0179359055118109
11
5.100602401574803
21
-4.0177849999999999
0
LINE
8
BLACK
6
CONTINUOUS
10
5.100602401574803
20
-4.0177849999999999
11
5.101222007874016
21
-4.0177362204724405
0
LINE
8
BLACK
6
CONTINUOUS
10
5.101222007874016
20
-4.0177362204724405
11
5.1723726771653542
21
-4.0177362204724405
0
LINE
8
BLACK
6
CONTINUOUS
10
5.1723726771653542
20
-4.0177362204724405
11
5.1733242913385826
21
-4.0180454330708661
0
LINE
8
BLACK
6
CONTINUOUS
10
5.1733242913385826
20
-4.0180454330708661
11
5.1764212598425194
21
-4.0173385826771657
0
LINE
8
BLACK
6
CONTINUOUS
10
5.1764212598425194
20
-4.0173385826771657
11
5.2886259842519685
21
-4.0173385826771657
0
LINE
8
BLACK
6
CONTINUOUS
10
5.2886259842519685
20
-4.0173385826771657
11
5.2895048425196851
21
-4.0175391732283465
0
LINE
8
BLACK
6
CONTINUOUS
10
5.2895048425196851
20
-4.0175391732283465
11
5.2904061417322836
21
-4.0175391732283465
0
LINE
8
BLACK
6
CONTINUOUS
10
5.2904061417322836
20
-4.0175391732283465
11
5.2908153149606294
21
-4.0177362204724405
0
LINE
8
BLACK
6
CONTINUOUS
10
5.2908153149606294
20
-4.0177362204724405
11
5.3402031889763775
21
-4.0177362204724405
0
LINE
8
BLACK
6
CONTINUOUS
10
5.3402031889763775
20
-4.0177362204724405
11
5.3408227952755905
21
-4.0177849999999999
0
LINE
8
BLACK
6
CONTINUOUS
10
5.3408227952755905
20
-4.0177849999999999
11
5.3417755511811018
21
-4.0179359055118109
0
LINE
8
BLACK
6
CONTINUOUS
10
5.3417755511811018
20
-4.0179359055118109
11
5.3417755905511806
21
-4.0179359055118109
0
LINE
8
BLACK
6
CONTINUOUS
10
5.3417755905511806
20
-4.0179359055118109
11
5.3417756692913381
21
-4.0179359055118109
0
LINE
8
BLACK
6
CONTINUOUS
10
5.3417756692913381
20
-4.0179359055118109
11
5.3430363779527559
21
-4.0177362204724405
0
LINE
8
BLACK
6
CONTINUOUS
10
5.3430363779527559
20
-4.0177362204724405
11
5.3435136614173224
21
-4.0176606299212594
0
LINE
8
BLACK
6
CONTINUOUS
10
5.3435136614173224
20
-4.0176606299212594
11
5.3467876377952752
21
-4.0171420866141734
0
LINE
8
BLACK
6
CONTINUOUS
10
5.3467876377952752
20
-4.0171420866141734
11
5.3503609448818894
21
-4.0153213779527555
0
LINE
8
BLACK
6
CONTINUOUS
10
5.3503609448818894
20
-4.0153213779527555
11
5.3513090944881885
21
-4.0148382677165353
0
LINE
8
BLACK
6
CONTINUOUS
10
5.3513090944881885
20
-4.0148382677165353
11
5.3548973228346455
21
-4.0112500393700783
0
LINE
8
BLACK
6
CONTINUOUS
10
5.3548973228346455
20
-4.0112500393700783
11
5.3572011417322836
21
-4.006728582677165
0
LINE
8
BLACK
6
CONTINUOUS
10
5.3572011417322836
20
-4.006728582677165
11
5.3579949606299211
21
-4.0017165354330704
0
LINE
8
BLACK
6
CONTINUOUS
10
5.3579949606299211
20
-4.0017165354330704
11
5.3578440157480314
21
-4.0007637007874015
0
LINE
8
BLACK
6
CONTINUOUS
10
5.3578440157480314
20
-4.0007637007874015
11
5.3577952755905507
21
-4.0001441338582673
0
LINE
8
BLACK
6
CONTINUOUS
10
5.3577952755905507
20
-4.0001441338582673
11
5.3577952755905507
21
-3.9973833858267716
0
LINE
8
BLACK
6
CONTINUOUS
10
5.3577952755905507
20
-3.9973833858267716
11
5.3578440551181101
21
-3.9967637401574803
0
LINE
8
BLACK
6
CONTINUOUS
10
5.3578440551181101
20
-3.9967637401574803
11
5.3579949606299211
21
-3.9958110236220472
0
LINE
8
BLACK
6
CONTINUOUS
10
5.3579949606299211
20
-3.9958110236220472
11
5.3579949606299211
21
-3.9958109448818897
0
LINE
8
BLACK
6
CONTINUOUS
10
5.3579949606299211
20
-3.9958109448818897
11
5.3578440551181101
21
-3.9948582283464567
0
LINE
8
BLACK
6
CONTINUOUS
10
5.3578440551181101
20
-3.9948582283464567
11
5.3577952755905507
21
-3.9942386220472441
0
LINE
8
BLACK
6
CONTINUOUS
10
5.3577952755905507
20
-3.9942386220472441
11
5.3577952755905507
21
-3.9386790551181101
0
LINE
8
BLACK
6
CONTINUOUS
10
5.3577952755905507
20
-3.9386790551181101
11
5.3578241338582675
21
-3.9382016929133856
0
LINE
8
BLACK
6
CONTINUOUS
10
5.3578241338582675
20
-3.9382016929133856
11
5.3578466141732282
21
-3.9380166535433072
0
LINE
8
BLACK
6
CONTINUOUS
10
5.3578466141732282
20
-3.9380166535433072
11
5.3579996850393696
21
-3.9367559055118111
0
LINE
8
BLACK
6
CONTINUOUS
10
5.3579996850393696
20
-3.9367559055118111
11
5.3578241338582675
21
-3.9353100393700786
0
LINE
8
BLACK
6
CONTINUOUS
10
5.3578241338582675
20
-3.9353100393700786
11
5.3577952755905507
21
-3.9348326771653541
0
LINE
8
BLACK
6
CONTINUOUS
10
5.3577952755905507
20
-3.9348326771653541
11
5.3577952755905507
21
-3.9324227559055118
0
LINE
8
BLACK
6
CONTINUOUS
10
5.3577952755905507
20
-3.9324227559055118
11
5.3578440551181101
21
-3.9318031102362205
0
LINE
8
BLACK
6
CONTINUOUS
10
5.3578440551181101
20
-3.9318031102362205
11
5.3579949606299211
21
-3.9308503937007875
0
LINE
8
BLACK
6
CONTINUOUS
10
5.3579949606299211
20
-3.9308503937007875
11
5.3579949606299211
21
-3.93085031496063
0
LINE
8
BLACK
6
CONTINUOUS
10
5.3579949606299211
20
-3.93085031496063
11
5.3578440551181101
21
-3.9298975984251969
0
LINE
8
BLACK
6
CONTINUOUS
10
5.3578440551181101
20
-3.9298975984251969
11
5.3577952755905507
21
-3.9292779921259839
0
LINE
8
BLACK
6
CONTINUOUS
10
5.3577952755905507
20
-3.9292779921259839
11
5.3577952755905507
21
-3.9206117322834646
0
LINE
8
BLACK
6
CONTINUOUS
10
5.3577952755905507
20
-3.9206117322834646
11
5.3578440551181101
21
-3.9199920866141733
0
LINE
8
BLACK
6
CONTINUOUS
10
5.3578440551181101
20
-3.9199920866141733
11
5.3579949606299211
21
-3.9190393700787403
0
LINE
8
BLACK
6
CONTINUOUS
10
5.3579949606299211
20
-3.9190393700787403
11
5.3579949606299211
21
-3.919039251968504
0
LINE
8
BLACK
6
CONTINUOUS
10
5.3579949606299211
20
-3.919039251968504
11
5.3572011417322836
21
-3.9140274015748031
0
LINE
8
BLACK
6
CONTINUOUS
10
5.3572011417322836
20
-3.9140274015748031
11
5.3572011417322836
21
-3.9140273228346456
0
LINE
8
BLACK
6
CONTINUOUS
10
5.3572011417322836
20
-3.9140273228346456
11
5.3548973228346455
21
-3.9095058661417323
0
LINE
8
BLACK
6
CONTINUOUS
10
5.3548973228346455
20
-3.9095058661417323
11
5.3513090944881885
21
-3.9059176377952753
0
LINE
8
BLACK
6
CONTINUOUS
10
5.3513090944881885
20
-3.9059176377952753
11
5.3513090551181097
21
-3.9059175984251966
0
LINE
8
BLACK
6
CONTINUOUS
10
5.3513090551181097
20
-3.9059175984251966
11
5.3467877165354327
21
-3.9036138188976377
0
LINE
8
BLACK
6
CONTINUOUS
10
5.3467877165354327
20
-3.9036138188976377
11
5.3458852755905513
21
-3.9034708661417321
0
LINE
8
BLACK
6
CONTINUOUS
10
5.3458852755905513
20
-3.9034708661417321
11
5.3430363779527559
21
-3.9030196850393701
0
LINE
8
BLACK
6
CONTINUOUS
10
5.3430363779527559
20
-3.9030196850393701
11
5.3424059842519682
21
-3.9029198425196849
0
LINE
8
BLACK
6
CONTINUOUS
10
5.3424059842519682
20
-3.9029198425196849
11
5.3417756299212593
21
-3.9028199999999997
0
LINE
8
BLACK
6
CONTINUOUS
10
5.3417756299212593
20
-3.9028199999999997
11
5.3417755511811018
21
-3.9028199999999997
0
LINE
8
BLACK
6
CONTINUOUS
10
5.3417755511811018
20
-3.9028199999999997
11
5.3408227952755905
21
-3.9029709055118111
0
LINE
8
BLACK
6
CONTINUOUS
10
5.3408227952755905
20
-3.9029709055118111
11
5.3402031889763775
21
-3.9030196850393701
0
LINE
8
BLACK
6
CONTINUOUS
10
5.3402031889763775
20
-3.9030196850393701
11
5.101222007874016
21
-3.9030196850393701
0
LINE
8
BLACK
6
CONTINUOUS
10
5.101222007874016
20
-3.9030196850393701
11
5.100602401574803
21
-3.9029709055118111
0
LINE
8
BLACK
6
CONTINUOUS
10
5.100602401574803
20
-3.9029709055118111
11
5.0996496456692908
21
-3.9028199999999997
0
LINE
8
BLACK
6
CONTINUOUS
10
5.0996496456692908
20
-3.9028199999999997
11
5.0996495669291342
21
-3.9028199999999997
0
LINE
8
BLACK
6
CONTINUOUS
10
5.0996495669291342
20
-3.9028199999999997
11
5.0990192125984253
21
-3.9029198425196849
0
LINE
8
BLACK
6
CONTINUOUS
10
5.0990192125984253
20
-3.9029198425196849
11
5.0983888188976376
21
-3.9030196850393701
0
LINE
8
BLACK
6
CONTINUOUS
10
5.0983888188976376
20
-3.9030196850393701
11
5.095845748031496
21
-3.9034224409448819
0
LINE
8
BLACK
6
CONTINUOUS
10
5.095845748031496
20
-3.9034224409448819
11
5.094637440944882
21
-3.9036138188976377
0
LINE
8
BLACK
6
CONTINUOUS
10
5.094637440944882
20
-3.9036138188976377
11
5.090116102362205
21
-3.9059175984251966
0
LINE
8
BLACK
6
CONTINUOUS
10
5.090116102362205
20
-3.9059175984251966
11
5.0865278346456693
21
-3.9095058661417323
0
LINE
8
BLACK
6
CONTINUOUS
10
5.0865278346456693
20
-3.9095058661417323
11
5.0842240551181099
21
-3.9140272834645669
0
LINE
8
BLACK
6
CONTINUOUS
10
5.0842240551181099
20
-3.9140272834645669
11
5.0842240157480312
21
-3.9140274015748031
0
LINE
8
BLACK
6
CONTINUOUS
10
5.0842240157480312
20
-3.9140274015748031
11
5.0834302362204724
21
-3.919039251968504
0
LINE
8
BLACK
6
CONTINUOUS
10
5.0834302362204724
20
-3.919039251968504
11
5.0834302362204724
21
-3.9190393700787403
0
LINE
8
BLACK
6
CONTINUOUS
10
5.0834302362204724
20
-3.9190393700787403
11
5.0835811417322834
21
-3.9199920866141733
0
LINE
8
BLACK
6
CONTINUOUS
10
5.0835811417322834
20
-3.9199920866141733
11
5.0836299212598428
21
-3.9206117322834646
0
LINE
8
BLACK
6
CONTINUOUS
10
5.0836299212598428
20
-3.9206117322834646
11
5.0836299212598428
21
-3.935183503937008
0
LINE
8
BLACK
6
CONTINUOUS
10
5.0836299212598428
20
-3.935183503937008
11
5.0835811417322834
21
-3.9358031102362205
0
LINE
8
BLACK
6
CONTINUOUS
10
5.0835811417322834
20
-3.9358031102362205
11
5.0834302362204724
21
-3.9367558267716536
0
LINE
8
BLACK
6
CONTINUOUS
10
5.0834302362204724
20
-3.9367558267716536
11
5.0834302362204724
21
-3.9367559055118111
0
LINE
8
BLACK
6
CONTINUOUS
10
5.0834302362204724
20
-3.9367559055118111
11
5.0835811417322834
21
-3.9377086220472441
0
LINE
8
BLACK
6
CONTINUOUS
10
5.0835811417322834
20
-3.9377086220472441
11
5.0836299212598428
21
-3.9383282677165354
0
LINE
8
BLACK
6
CONTINUOUS
10
5.0836299212598428
20
-3.9383282677165354
11
5.0836299212598428
21
-3.9469945275590552
0
LINE
8
BLACK
6
CONTINUOUS
10
5.0836299212598428
20
-3.9469945275590552
11
5.0835811417322834
21
-3.9476141338582678
0
LINE
8
BLACK
6
CONTINUOUS
10
5.0835811417322834
20
-3.9476141338582678
11
5.0834302362204724
21
-3.9485668503937008
0
LINE
8
BLACK
6
CONTINUOUS
10
5.0834302362204724
20
-3.9485668503937008
11
5.0834302362204724
21
-3.9485669291338583
0
LINE
8
BLACK
6
CONTINUOUS
10
5.0834302362204724
20
-3.9485669291338583
11
5.0835811417322834
21
-3.9495196456692914
0
LINE
8
BLACK
6
CONTINUOUS
10
5.0835811417322834
20
-3.9495196456692914
11
5.0836299212598428
21
-3.9501392913385827
0
LINE
8
BLACK
6
CONTINUOUS
10
5.0836299212598428
20
-3.9501392913385827
11
5.0836299212598428
21
-3.9529000393700788
0
LINE
8
BLACK
6
CONTINUOUS
10
5.0836299212598428
20
-3.9529000393700788
11
5.0835811417322834
21
-3.9535196456692914
0
LINE
8
BLACK
6
CONTINUOUS
10
5.0835811417322834
20
-3.9535196456692914
11
5.0834302362204724
21
-3.9544723622047244
0
LINE
8
BLACK
6
CONTINUOUS
10
5.0834302362204724
20
-3.9544723622047244
11
5.0834302362204724
21
-3.9544724409448819
0
LINE
8
BLACK
6
CONTINUOUS
10
5.0834302362204724
20
-3.9544724409448819
11
5.0835811417322834
21
-3.955425157480315
0
LINE
8
BLACK
6
CONTINUOUS
10
5.0835811417322834
20
-3.955425157480315
11
5.0836299212598428
21
-3.9560448031496063
0
LINE
8
BLACK
6
CONTINUOUS
10
5.0836299212598428
20
-3.9560448031496063
11
5.0836299212598428
21
-3.9647110629921261
0
LINE
8
BLACK
6
CONTINUOUS
10
5.0836299212598428
20
-3.9647110629921261
11
5.0835811417322834
21
-3.9653306692913386
0
LINE
8
BLACK
6
CONTINUOUS
10
5.0835811417322834
20
-3.9653306692913386
11
5.0834302362204724
21
-3.9662833858267716
0
LINE
8
BLACK
6
CONTINUOUS
10
5.0834302362204724
20
-3.9662833858267716
11
5.0834302362204724
21
-3.9662834645669292
0
LINE
8
BLACK
6
CONTINUOUS
10
5.0834302362204724
20
-3.9662834645669292
11
5.0835811417322834
21
-3.9672361811023622
0
LINE
8
BLACK
6
CONTINUOUS
10
5.0835811417322834
20
-3.9672361811023622
11
5.0836299212598428
21
-3.9678558267716535
0
LINE
8
BLACK
6
CONTINUOUS
10
5.0836299212598428
20
-3.9678558267716535
11
5.0836299212598428
21
-3.9942386220472441
0
LINE
8
BLACK
6
CONTINUOUS
10
5.0836299212598428
20
-3.9942386220472441
11
5.0835811417322834
21
-3.9948582283464567
0
LINE
8
BLACK
6
CONTINUOUS
10
5.0835811417322834
20
-3.9948582283464567
11
5.0834302362204724
21
-3.9958109448818897
0
LINE
8
BLACK
6
CONTINUOUS
10
5.0834302362204724
20
-3.9958109448818897
11
5.0834302362204724
21
-3.9958110236220472
0
LINE
8
BLACK
6
CONTINUOUS
10
5.0834302362204724
20
-3.9958110236220472
11
5.0835811417322834
21
-3.9967637401574803
0
LINE
8
BLACK
6
CONTINUOUS
10
5.0835811417322834
20
-3.9967637401574803
11
5.0836299212598428
21
-3.9973833858267716
0
LINE
8
BLACK
6
CONTINUOUS
10
5.0836299212598428
20
-3.9973833858267716
11
5.0836299212598428
21
-4.0001441338582673
0
LINE
8
BLACK
6
CONTINUOUS
10
5.0836299212598428
20
-4.0001441338582673
11
5.0835811417322834
21
-4.0007637401574803
0
LINE
8
BLACK
6
CONTINUOUS
10
5.0835811417322834
20
-4.0007637401574803
11
5.0834302362204724
21
-4.0017164566929129
0
LINE
8
BLACK
6
CONTINUOUS
10
5.0834302362204724
20
-4.0017164566929129
11
5.0834302362204724
21
-4.0017166141732279
0
LINE
8
BLACK
6
CONTINUOUS
10
5.0834302362204724
20
-4.0017166141732279
11
5.0842240157480312
21
-4.0067284645669288
0
LINE
8
BLACK
6
CONTINUOUS
10
5.3729954724409446
20
-3.7429842519685037
11
5.372701456692913
21
-3.7482194881889761
0
LINE
8
BLACK
6
CONTINUOUS
10
5.372701456692913
20
-3.7482194881889761
11
5.3703158267716535
21
-3.7622601574803149
0
LINE
8
BLACK
6
CONTINUOUS
10
5.3703158267716535
20
-3.7622601574803149
11
5.3663731889763779
21
-3.7759454330708659
0
LINE
8
BLACK
6
CONTINUOUS
10
5.3663731889763779
20
-3.7759454330708659
11
5.3609230314960632
21
-3.7891032283464567
0
LINE
8
BLACK
6
CONTINUOUS
10
5.3609230314960632
20
-3.7891032283464567
11
5.354033976377953
21
-3.8015680708661415
0
LINE
8
BLACK
6
CONTINUOUS
10
5.354033976377953
20
-3.8015680708661415
11
5.3457925984251968
21
-3.8131831889763776
0
LINE
8
BLACK
6
CONTINUOUS
10
5.3457925984251968
20
-3.8131831889763776
11
5.3363025590551176
21
-3.8238025590551179
0
LINE
8
BLACK
6
CONTINUOUS
10
5.3363025590551176
20
-3.8238025590551179
11
5.3256831889763783
21
-3.8332925984251967
0
LINE
8
BLACK
6
CONTINUOUS
10
5.3256831889763783
20
-3.8332925984251967
11
5.3140680708661412
21
-3.8415339763779528
0
LINE
8
BLACK
6
CONTINUOUS
10
5.3140680708661412
20
-3.8415339763779528
11
5.3016032283464565
21
-3.848423031496063
0
LINE
8
BLACK
6
CONTINUOUS
10
5.3016032283464565
20
-3.848423031496063
11
5.2884454330708657
21
-3.8538731889763778
0
LINE
8
BLACK
6
CONTINUOUS
10
5.2884454330708657
20
-3.8538731889763778
11
5.2747601574803147
21
-3.8578158267716534
0
LINE
8
BLACK
6
CONTINUOUS
10
5.2747601574803147
20
-3.8578158267716534
11
5.2607194881889763
21
-3.8602014566929133
0
LINE
8
BLACK
6
CONTINUOUS
10
5.2607194881889763
20
-3.8602014566929133
11
5.2554842519685039
21
-3.8604954330708661
0
LINE
8
BLACK
6
CONTINUOUS
10
5.2554842519685039
20
-3.8604954330708661
11
5.2554842519685039
21
-3.8786965354330709
0
LINE
8
BLACK
6
CONTINUOUS
10
5.2554842519685039
20
-3.8786965354330709
11
5.2554842913385826
21
-3.8786965748031497
0
LINE
8
BLACK
6
CONTINUOUS
10
5.2554842913385826
20
-3.8786965748031497
11
5.2616744881889765
21
-3.8783721653543308
0
LINE
8
BLACK
6
CONTINUOUS
10
5.2616744881889765
20
-3.8783721653543308
11
5.2766816141732278
21
-3.8759952362204722
0
LINE
8
BLACK
6
CONTINUOUS
10
5.2766816141732278
20
-3.8759952362204722
11
5.2766824803149603
21
-3.8759950393700788
0
LINE
8
BLACK
6
CONTINUOUS
10
5.2766824803149603
20
-3.8759950393700788
11
5.2913592519685038
21
-3.8720624015748029
0
LINE
8
BLACK
6
CONTINUOUS
10
5.2913592519685038
20
-3.8720624015748029
11
5.3055445669291341
21
-3.8666171653543304
0
LINE
8
BLACK
6
CONTINUOUS
10
5.3055445669291341
20
-3.8666171653543304
11
5.3055453543307083
21
-3.8666168110236221
0
LINE
8
BLACK
6
CONTINUOUS
10
5.3055453543307083
20
-3.8666168110236221
11
5.3190834251968502
21
-3.8597188582677164
0
LINE
8
BLACK
6
CONTINUOUS
10
5.3190834251968502
20
-3.8597188582677164
11
5.3190837007874014
21
-3.8597187007874014
0
LINE
8
BLACK
6
CONTINUOUS
10
5.3190837007874014
20
-3.8597187007874014
11
5.3318271653543308
21
-3.8514429527559053
0
LINE
8
BLACK
6
CONTINUOUS
10
5.3318271653543308
20
-3.8514429527559053
11
5.3318273622047245
21
-3.8514427952755903
0
LINE
8
BLACK
6
CONTINUOUS
10
5.3318273622047245
20
-3.8514427952755903
11
5.3436360236220475
21
-3.8418803543307085
0
LINE
8
BLACK
6
CONTINUOUS
10
5.3436360236220475
20
-3.8418803543307085
11
5.3543803543307087
21
-3.8311360236220473
0
LINE
8
BLACK
6
CONTINUOUS
10
5.3543803543307087
20
-3.8311360236220473
11
5.36394279527559
21
-3.8193273622047244
0
LINE
8
BLACK
6
CONTINUOUS
10
5.36394279527559
20
-3.8193273622047244
11
5.363942952755905
21
-3.8193271653543306
0
LINE
8
BLACK
6
CONTINUOUS
10
5.363942952755905
20
-3.8193271653543306
11
5.3722187007874016
21
-3.8065837007874013
0
LINE
8
BLACK
6
CONTINUOUS
10
5.3722187007874016
20
-3.8065837007874013
11
5.3722188582677166
21
-3.8065834251968504
0
LINE
8
BLACK
6
CONTINUOUS
10
5.3722188582677166
20
-3.8065834251968504
11
5.3791168110236223
21
-3.7930453543307086
0
LINE
8
BLACK
6
CONTINUOUS
10
5.3791168110236223
20
-3.7930453543307086
11
5.3791171653543302
21
-3.7930445669291339
0
LINE
8
BLACK
6
CONTINUOUS
10
5.3791171653543302
20
-3.7930445669291339
11
5.3845624015748026
21
-3.778859251968504
0
LINE
8
BLACK
6
CONTINUOUS
10
5.3845624015748026
20
-3.778859251968504
11
5.3884950393700786
21
-3.7641824803149606
0
LINE
8
BLACK
6
CONTINUOUS
10
5.3884950393700786
20
-3.7641824803149606
11
5.3884952362204723
21
-3.7641816141732281
0
LINE
8
BLACK
6
CONTINUOUS
10
5.3884952362204723
20
-3.7641816141732281
11
5.390872165354331
21
-3.7491745275590551
0
LINE
8
BLACK
6
CONTINUOUS
10
5.390872165354331
20
-3.7491745275590551
11
5.390872165354331
21
-3.7491744488188976
0
LINE
8
BLACK
6
CONTINUOUS
10
5.390872165354331
20
-3.7491744488188976
11
5.3911965748031498
21
-3.7429842519685037
0
LINE
8
BLACK
6
CONTINUOUS
10
5.3911965748031498
20
-3.7429842519685037
11
5.3729954724409446
21
-3.7429842519685037
0
LINE
8
BLACK
6
CONTINUOUS
10
6.3018033858267719
20
-3.7429842519685037
11
6.3021277952755907
21
-3.7491744488188976
0
LINE
8
BLACK
6
CONTINUOUS
10
6.3021277952755907
20
-3.7491744488188976
11
6.3021277952755907
21
-3.7491745275590551
0
LINE
8
BLACK
6
CONTINUOUS
10
6.3021277952755907
20
-3.7491745275590551
11
6.3045047244094485
21
-3.7641816141732281
0
LINE
8
BLACK
6
CONTINUOUS
10
6.3045047244094485
20
-3.7641816141732281
11
6.3045049212598423
21
-3.7641824803149606
0
LINE
8
BLACK
6
CONTINUOUS
10
6.3045049212598423
20
-3.7641824803149606
11
6.3084375590551183
21
-3.778859251968504
0
LINE
8
BLACK
6
CONTINUOUS
10
6.3084375590551183
20
-3.778859251968504
11
6.3138827952755907
21
-3.7930445669291339
0
LINE
8
BLACK
6
CONTINUOUS
10
6.3138827952755907
20
-3.7930445669291339
11
6.3138831496062995
21
-3.7930453543307086
0
LINE
8
BLACK
6
CONTINUOUS
10
6.3138831496062995
20
-3.7930453543307086
11
6.3207811023622043
21
-3.8065834251968504
0
LINE
8
BLACK
6
CONTINUOUS
10
6.3207811023622043
20
-3.8065834251968504
11
6.3207812598425193
21
-3.8065837007874013
0
LINE
8
BLACK
6
CONTINUOUS
10
6.3207812598425193
20
-3.8065837007874013
11
6.3290570078740158
21
-3.8193271653543306
0
LINE
8
BLACK
6
CONTINUOUS
10
6.3290570078740158
20
-3.8193271653543306
11
6.3290571653543308
21
-3.8193273622047244
0
LINE
8
BLACK
6
CONTINUOUS
10
6.3290571653543308
20
-3.8193273622047244
11
6.3386196062992122
21
-3.8311360236220473
0
LINE
8
BLACK
6
CONTINUOUS
10
6.3386196062992122
20
-3.8311360236220473
11
6.3493639370078743
21
-3.8418803543307085
0
LINE
8
BLACK
6
CONTINUOUS
10
6.3493639370078743
20
-3.8418803543307085
11
6.3611725984251963
21
-3.8514427952755903
0
LINE
8
BLACK
6
CONTINUOUS
10
6.3611725984251963
20
-3.8514427952755903
11
6.3611727952755901
21
-3.8514429527559053
0
LINE
8
BLACK
6
CONTINUOUS
10
6.3611727952755901
20
-3.8514429527559053
11
6.3739162598425194
21
-3.8597187007874014
0
LINE
8
BLACK
6
CONTINUOUS
10
6.3739162598425194
20
-3.8597187007874014
11
6.3739165354330707
21
-3.8597188582677164
0
LINE
8
BLACK
6
CONTINUOUS
10
6.3739165354330707
20
-3.8597188582677164
11
6.3874546062992126
21
-3.8666168110236221
0
LINE
8
BLACK
6
CONTINUOUS
10
6.3874546062992126
20
-3.8666168110236221
11
6.3874553937007876
21
-3.8666171653543304
0
LINE
8
BLACK
6
CONTINUOUS
10
6.3874553937007876
20
-3.8666171653543304
11
6.4016407086614171
21
-3.8720624015748029
0
LINE
8
BLACK
6
CONTINUOUS
10
6.4016407086614171
20
-3.8720624015748029
11
6.4163174803149605
21
-3.8759950393700788
0
LINE
8
BLACK
6
CONTINUOUS
10
6.4163174803149605
20
-3.8759950393700788
11
6.4163183464566931
21
-3.8759952362204722
0
LINE
8
BLACK
6
CONTINUOUS
10
6.4163183464566931
20
-3.8759952362204722
11
6.4313255511811018
21
-3.8783721653543308
0
LINE
8
BLACK
6
CONTINUOUS
10
6.4313255511811018
20
-3.8783721653543308
11
6.431325354330709
21
-3.8783721653543308
0
LINE
8
BLACK
6
CONTINUOUS
10
6.431325354330709
20
-3.8783721653543308
11
6.4375156692913382
21
-3.8786965748031497
0
LINE
8
BLACK
6
CONTINUOUS
10
6.4375156692913382
20
-3.8786965748031497
11
6.4375157480314957
21
-3.8786965354330709
0
LINE
8
BLACK
6
CONTINUOUS
10
6.4375157480314957
20
-3.8786965354330709
11
6.4375157480314957
21
-3.8604954330708661
0
LINE
8
BLACK
6
CONTINUOUS
10
6.4375157480314957
20
-3.8604954330708661
11
6.4322805118110233
21
-3.8602014566929133
0
LINE
8
BLACK
6
CONTINUOUS
10
6.4322805118110233
20
-3.8602014566929133
11
6.4182398425196849
21
-3.8578158267716534
0
LINE
8
BLACK
6
CONTINUOUS
10
6.4182398425196849
20
-3.8578158267716534
11
6.4045545669291339
21
-3.8538731889763778
0
LINE
8
BLACK
6
CONTINUOUS
10
6.4045545669291339
20
-3.8538731889763778
11
6.3913967716535431
21
-3.848423031496063
0
LINE
8
BLACK
6
CONTINUOUS
10
6.3913967716535431
20
-3.848423031496063
11
6.3789319291338584
21
-3.8415339763779528
0
LINE
8
BLACK
6
CONTINUOUS
10
6.3789319291338584
20
-3.8415339763779528
11
6.3673168110236222
21
-3.8332925984251967
0
LINE
8
BLACK
6
CONTINUOUS
10
6.3673168110236222
20
-3.8332925984251967
11
6.356697440944882
21
-3.8238025590551179
0
LINE
8
BLACK
6
CONTINUOUS
10
6.356697440944882
20
-3.8238025590551179
11
6.3472074015748028
21
-3.8131831889763776
0
LINE
8
BLACK
6
CONTINUOUS
10
6.3472074015748028
20
-3.8131831889763776
11
6.3389660236220475
21
-3.8015680708661415
0
LINE
8
BLACK
6
CONTINUOUS
10
6.3389660236220475
20
-3.8015680708661415
11
6.3320769685039364
21
-3.7891032283464567
0
LINE
8
BLACK
6
CONTINUOUS
10
6.3320769685039364
20
-3.7891032283464567
11
6.3266268110236217
21
-3.7759454330708659
0
LINE
8
BLACK
6
CONTINUOUS
10
6.3266268110236217
20
-3.7759454330708659
11
6.3226841732283461
21
-3.7622601574803149
0
LINE
8
BLACK
6
CONTINUOUS
10
6.3226841732283461
20
-3.7622601574803149
11
6.3202985433070866
21
-3.7482194881889761
0
LINE
8
BLACK
6
CONTINUOUS
10
6.3202985433070866
20
-3.7482194881889761
11
6.3200045275590551
21
-3.7429842519685037
0
LINE
8
BLACK
6
CONTINUOUS
10
6.3200045275590551
20
-3.7429842519685037
11
6.3018033858267719
21
-3.7429842519685037
0
LINE
8
BLACK
6
CONTINUOUS
10
6.5727014566929132
20
-3.7482194881889761
11
6.5703158267716537
21
-3.7622601574803149
0
LINE
8
BLACK
6
CONTINUOUS
10
6.5703158267716537
20
-3.7622601574803149
11
6.5663731889763781
21
-3.7759454330708659
0
LINE
8
BLACK
6
CONTINUOUS
10
6.5663731889763781
20
-3.7759454330708659
11
6.5609230314960625
21
-3.7891032283464567
0
LINE
8
BLACK
6
CONTINUOUS
10
6.5609230314960625
20
-3.7891032283464567
11
6.5540339763779523
21
-3.8015680708661415
0
LINE
8
BLACK
6
CONTINUOUS
10
6.5540339763779523
20
-3.8015680708661415
11
6.545792598425197
21
-3.8131831889763776
0
LINE
8
BLACK
6
CONTINUOUS
10
6.545792598425197
20
-3.8131831889763776
11
6.5363025590551178
21
-3.8238025590551179
0
LINE
8
BLACK
6
CONTINUOUS
10
6.5363025590551178
20
-3.8238025590551179
11
6.5256831889763776
21
-3.8332925984251967
0
LINE
8
BLACK
6
CONTINUOUS
10
6.5256831889763776
20
-3.8332925984251967
11
6.5140680708661414
21
-3.8415339763779528
0
LINE
8
BLACK
6
CONTINUOUS
10
6.5140680708661414
20
-3.8415339763779528
11
6.5016032283464567
21
-3.848423031496063
0
LINE
8
BLACK
6
CONTINUOUS
10
6.5016032283464567
20
-3.848423031496063
11
6.4884454330708659
21
-3.8538731889763778
0
LINE
8
BLACK
6
CONTINUOUS
10
6.4884454330708659
20
-3.8538731889763778
11
6.4747601574803149
21
-3.8578158267716534
0
LINE
8
BLACK
6
CONTINUOUS
10
6.4747601574803149
20
-3.8578158267716534
11
6.4607194881889765
21
-3.8602014566929133
0
LINE
8
BLACK
6
CONTINUOUS
10
6.4607194881889765
20
-3.8602014566929133
11
6.4554842519685041
21
-3.8604954330708661
0
LINE
8
BLACK
6
CONTINUOUS
10
6.4554842519685041
20
-3.8604954330708661
11
6.4554842519685041
21
-3.8786965354330709
0
LINE
8
BLACK
6
CONTINUOUS
10
6.4554842519685041
20
-3.8786965354330709
11
6.4554842913385828
21
-3.8786965748031497
0
LINE
8
BLACK
6
CONTINUOUS
10
6.4554842913385828
20
-3.8786965748031497
11
6.4616744881889758
21
-3.8783721653543308
0
LINE
8
BLACK
6
CONTINUOUS
10
6.4616744881889758
20
-3.8783721653543308
11
6.476681614173228
21
-3.8759952362204722
0
LINE
8
BLACK
6
CONTINUOUS
10
6.476681614173228
20
-3.8759952362204722
11
6.4766824803149605
21
-3.8759950393700788
0
LINE
8
BLACK
6
CONTINUOUS
10
6.4766824803149605
20
-3.8759950393700788
11
6.4913592519685039
21
-3.8720624015748029
0
LINE
8
BLACK
6
CONTINUOUS
10
6.4913592519685039
20
-3.8720624015748029
11
6.5055445669291334
21
-3.8666171653543304
0
LINE
8
BLACK
6
CONTINUOUS
10
6.5055445669291334
20
-3.8666171653543304
11
6.5055453543307085
21
-3.8666168110236221
0
LINE
8
BLACK
6
CONTINUOUS
10
6.5055453543307085
20
-3.8666168110236221
11
6.5190834251968504
21
-3.8597188582677164
0
LINE
8
BLACK
6
CONTINUOUS
10
6.5190834251968504
20
-3.8597188582677164
11
6.5190837007874016
21
-3.8597187007874014
0
LINE
8
BLACK
6
CONTINUOUS
10
6.5190837007874016
20
-3.8597187007874014
11
6.5318271653543309
21
-3.8514429527559053
0
LINE
8
BLACK
6
CONTINUOUS
10
6.5318271653543309
20
-3.8514429527559053
11
6.5318273622047238
21
-3.8514427952755903
0
LINE
8
BLACK
6
CONTINUOUS
10
6.5318273622047238
20
-3.8514427952755903
11
6.5436360236220468
21
-3.8418803543307085
0
LINE
8
BLACK
6
CONTINUOUS
10
6.5436360236220468
20
-3.8418803543307085
11
6.5543803543307089
21
-3.8311360236220473
0
LINE
8
BLACK
6
CONTINUOUS
10
6.5543803543307089
20
-3.8311360236220473
11
6.5639427952755902
21
-3.8193273622047244
0
LINE
8
BLACK
6
CONTINUOUS
10
6.5639427952755902
20
-3.8193273622047244
11
6.5639429527559052
21
-3.8193271653543306
0
LINE
8
BLACK
6
CONTINUOUS
10
6.5639429527559052
20
-3.8193271653543306
11
6.5722187007874018
21
-3.8065837007874013
0
LINE
8
BLACK
6
CONTINUOUS
10
6.5722187007874018
20
-3.8065837007874013
11
6.5722188582677168
21
-3.8065834251968504
0
LINE
8
BLACK
6
CONTINUOUS
10
6.5722188582677168
20
-3.8065834251968504
11
6.5791168110236216
21
-3.7930453543307086
0
LINE
8
BLACK
6
CONTINUOUS
10
6.5791168110236216
20
-3.7930453543307086
11
6.5791171653543303
21
-3.7930445669291339
0
LINE
8
BLACK
6
CONTINUOUS
10
6.5791171653543303
20
-3.7930445669291339
11
6.5845624015748028
21
-3.778859251968504
0
LINE
8
BLACK
6
CONTINUOUS
10
6.5845624015748028
20
-3.778859251968504
11
6.5884950393700787
21
-3.7641824803149606
0
LINE
8
BLACK
6
CONTINUOUS
10
6.5884950393700787
20
-3.7641824803149606
11
6.5884952362204725
21
-3.7641816141732281
0
LINE
8
BLACK
6
CONTINUOUS
10
6.5884952362204725
20
-3.7641816141732281
11
6.5908721653543303
21
-3.7491745275590551
0
LINE
8
BLACK
6
CONTINUOUS
10
6.5908721653543303
20
-3.7491745275590551
11
6.5908721653543303
21
-3.7491744488188976
0
LINE
8
BLACK
6
CONTINUOUS
10
6.5908721653543303
20
-3.7491744488188976
11
6.5911965748031491
21
-3.7429842519685037
0
LINE
8
BLACK
6
CONTINUOUS
10
6.5911965748031491
20
-3.7429842519685037
11
6.5729954724409447
21
-3.7429842519685037
0
LINE
8
BLACK
6
CONTINUOUS
10
6.5729954724409447
20
-3.7429842519685037
11
6.5727014566929132
21
-3.7482194881889761
0
LINE
8
BLACK
6
CONTINUOUS
10
6.4554842519685041
20
-3.6075045275590552
11
6.4607194881889765
21
-3.6077985433070867
0
LINE
8
BLACK
6
CONTINUOUS
10
6.4607194881889765
20
-3.6077985433070867
11
6.4747601574803149
21
-3.6101841732283462
0
LINE
8
BLACK
6
CONTINUOUS
10
6.4747601574803149
20
-3.6101841732283462
11
6.4884454330708659
21
-3.6141268110236218
0
LINE
8
BLACK
6
CONTINUOUS
10
6.4884454330708659
20
-3.6141268110236218
11
6.5016032283464567
21
-3.619576968503937
0
LINE
8
BLACK
6
CONTINUOUS
10
6.5016032283464567
20
-3.619576968503937
11
6.5140680708661414
21
-3.6264660236220472
0
LINE
8
BLACK
6
CONTINUOUS
10
6.5140680708661414
20
-3.6264660236220472
11
6.5256831889763776
21
-3.6347074015748029
0
LINE
8
BLACK
6
CONTINUOUS
10
6.5256831889763776
20
-3.6347074015748029
11
6.5363025590551178
21
-3.6441974409448816
0
LINE
8
BLACK
6
CONTINUOUS
10
6.5363025590551178
20
-3.6441974409448816
11
6.545792598425197
21
-3.6548168110236219
0
LINE
8
BLACK
6
CONTINUOUS
10
6.545792598425197
20
-3.6548168110236219
11
6.5540339763779523
21
-3.6664319291338581
0
LINE
8
BLACK
6
CONTINUOUS
10
6.5540339763779523
20
-3.6664319291338581
11
6.5609230314960625
21
-3.6788967716535432
0
LINE
8
BLACK
6
CONTINUOUS
10
6.5609230314960625
20
-3.6788967716535432
11
6.5663731889763781
21
-3.6920545669291336
0
LINE
8
BLACK
6
CONTINUOUS
10
6.5663731889763781
20
-3.6920545669291336
11
6.5703158267716537
21
-3.705739842519685
0
LINE
8
BLACK
6
CONTINUOUS
10
6.5703158267716537
20
-3.705739842519685
11
6.5727014566929132
21
-3.7197805118110234
0
LINE
8
BLACK
6
CONTINUOUS
10
6.5727014566929132
20
-3.7197805118110234
11
6.5729954724409447
21
-3.7250157480314958
0
LINE
8
BLACK
6
CONTINUOUS
10
6.5729954724409447
20
-3.7250157480314958
11
6.5911965748031491
21
-3.7250157480314958
0
LINE
8
BLACK
6
CONTINUOUS
10
6.5911965748031491
20
-3.7250157480314958
11
6.5911965748031491
21
-3.7250157086614171
0
LINE
8
BLACK
6
CONTINUOUS
10
6.5911965748031491
20
-3.7250157086614171
11
6.5908721653543303
21
-3.7188255118110236
0
LINE
8
BLACK
6
CONTINUOUS
10
6.5908721653543303
20
-3.7188255118110236
11
6.5908721653543303
21
-3.7188254330708661
0
LINE
8
BLACK
6
CONTINUOUS
10
6.5908721653543303
20
-3.7188254330708661
11
6.5884952362204725
21
-3.7038183464566927
0
LINE
8
BLACK
6
CONTINUOUS
10
6.5884952362204725
20
-3.7038183464566927
11
6.5884950393700787
21
-3.7038174803149606
0
LINE
8
BLACK
6
CONTINUOUS
10
6.5884950393700787
20
-3.7038174803149606
11
6.5845624015748028
21
-3.6891407086614172
0
LINE
8
BLACK
6
CONTINUOUS
10
6.5845624015748028
20
-3.6891407086614172
11
6.5791171653543303
21
-3.6749553937007873
0
LINE
8
BLACK
6
CONTINUOUS
10
6.5791171653543303
20
-3.6749553937007873
11
6.5791168110236216
21
-3.6749546062992127
0
LINE
8
BLACK
6
CONTINUOUS
10
6.5791168110236216
20
-3.6749546062992127
11
6.5722188582677168
21
-3.6614165748031495
0
LINE
8
BLACK
6
CONTINUOUS
10
6.5722188582677168
20
-3.6614165748031495
11
6.5722187007874018
21
-3.6614162992125983
0
LINE
8
BLACK
6
CONTINUOUS
10
6.5722187007874018
20
-3.6614162992125983
11
6.5639430708661415
21
-3.6486729527559056
0
LINE
8
BLACK
6
CONTINUOUS
10
6.5639430708661415
20
-3.6486729527559056
11
6.5543803543307089
21
-3.6368639370078739
0
LINE
8
BLACK
6
CONTINUOUS
10
6.5543803543307089
20
-3.6368639370078739
11
6.5436360236220468
21
-3.6261196062992127
0
LINE
8
BLACK
6
CONTINUOUS
10
6.5436360236220468
20
-3.6261196062992127
11
6.5318273622047238
21
-3.6165571653543305
0
LINE
8
BLACK
6
CONTINUOUS
10
6.5318273622047238
20
-3.6165571653543305
11
6.5318271653543309
21
-3.6165570078740155
0
LINE
8
BLACK
6
CONTINUOUS
10
6.5318271653543309
20
-3.6165570078740155
11
6.5190837007874016
21
-3.6082812598425198
0
LINE
8
BLACK
6
CONTINUOUS
10
6.5190837007874016
20
-3.6082812598425198
11
6.5190834251968504
21
-3.6082811023622048
0
LINE
8
BLACK
6
CONTINUOUS
10
6.5190834251968504
20
-3.6082811023622048
11
6.5055453543307085
21
-3.6013831496062991
0
LINE
8
BLACK
6
CONTINUOUS
10
6.5055453543307085
20
-3.6013831496062991
11
6.5055445669291334
21
-3.6013827952755904
0
LINE
8
BLACK
6
CONTINUOUS
10
6.5055445669291334
20
-3.6013827952755904
11
6.4913592519685039
21
-3.5959375590551179
0
LINE
8
BLACK
6
CONTINUOUS
10
6.4913592519685039
20
-3.5959375590551179
11
6.4766824803149605
21
-3.5920049212598424
0
LINE
8
BLACK
6
CONTINUOUS
10
6.4766824803149605
20
-3.5920049212598424
11
6.476681614173228
21
-3.5920047244094486
0
LINE
8
BLACK
6
CONTINUOUS
10
6.476681614173228
20
-3.5920047244094486
11
6.4616744881889758
21
-3.5896277952755904
0
LINE
8
BLACK
6
CONTINUOUS
10
6.4616744881889758
20
-3.5896277952755904
11
6.4554842519685041
21
-3.5893033858267716
0
LINE
8
BLACK
6
CONTINUOUS
10
6.4554842519685041
20
-3.5893033858267716
11
6.4554842519685041
21
-3.6075045275590552
0
LINE
8
BLACK
6
CONTINUOUS
10
6.4313255118110231
20
-3.5896277952755904
11
6.4313254330708656
21
-3.5896277952755904
0
LINE
8
BLACK
6
CONTINUOUS
10
6.4313254330708656
20
-3.5896277952755904
11
6.4163183464566931
21
-3.5920047244094486
0
LINE
8
BLACK
6
CONTINUOUS
10
6.4163183464566931
20
-3.5920047244094486
11
6.4163174803149605
21
-3.5920049212598424
0
LINE
8
BLACK
6
CONTINUOUS
10
6.4163174803149605
20
-3.5920049212598424
11
6.4016407086614171
21
-3.5959375590551179
0
LINE
8
BLACK
6
CONTINUOUS
10
6.4016407086614171
20
-3.5959375590551179
11
6.3874553937007876
21
-3.6013827952755904
0
LINE
8
BLACK
6
CONTINUOUS
10
6.3874553937007876
20
-3.6013827952755904
11
6.3874546062992126
21
-3.6013831496062991
0
LINE
8
BLACK
6
CONTINUOUS
10
6.3874546062992126
20
-3.6013831496062991
11
6.3739165748031494
21
-3.6082811023622048
0
LINE
8
BLACK
6
CONTINUOUS
10
6.3739165748031494
20
-3.6082811023622048
11
6.3739162992125982
21
-3.6082812598425198
0
LINE
8
BLACK
6
CONTINUOUS
10
6.3739162992125982
20
-3.6082812598425198
11
6.3611729527559051
21
-3.6165568897637796
0
LINE
8
BLACK
6
CONTINUOUS
10
6.3611729527559051
20
-3.6165568897637796
11
6.3493639370078743
21
-3.6261196062992127
0
LINE
8
BLACK
6
CONTINUOUS
10
6.3493639370078743
20
-3.6261196062992127
11
6.3386196062992122
21
-3.6368639370078739
0
LINE
8
BLACK
6
CONTINUOUS
10
6.3386196062992122
20
-3.6368639370078739
11
6.3290568897637796
21
-3.6486729527559056
0
LINE
8
BLACK
6
CONTINUOUS
10
6.3290568897637796
20
-3.6486729527559056
11
6.3207812598425193
21
-3.6614162992125983
0
LINE
8
BLACK
6
CONTINUOUS
10
6.3207812598425193
20
-3.6614162992125983
11
6.3207811023622043
21
-3.6614165748031495
0
LINE
8
BLACK
6
CONTINUOUS
10
6.3207811023622043
20
-3.6614165748031495
11
6.3138831496062995
21
-3.6749546062992127
0
LINE
8
BLACK
6
CONTINUOUS
10
6.3138831496062995
20
-3.6749546062992127
11
6.3138827952755907
21
-3.6749553937007873
0
LINE
8
BLACK
6
CONTINUOUS
10
6.3138827952755907
20
-3.6749553937007873
11
6.3084375590551183
21
-3.6891407086614172
0
LINE
8
BLACK
6
CONTINUOUS
10
6.3084375590551183
20
-3.6891407086614172
11
6.3045049212598423
21
-3.7038174803149606
0
LINE
8
BLACK
6
CONTINUOUS
10
6.3045049212598423
20
-3.7038174803149606
11
6.3045047244094485
21
-3.7038183464566927
0
LINE
8
BLACK
6
CONTINUOUS
10
6.3045047244094485
20
-3.7038183464566927
11
6.3021277952755907
21
-3.7188254330708661
0
LINE
8
BLACK
6
CONTINUOUS
10
6.3021277952755907
20
-3.7188254330708661
11
6.3021277952755907
21
-3.7188255118110236
0
LINE
8
BLACK
6
CONTINUOUS
10
6.3021277952755907
20
-3.7188255118110236
11
6.3018033858267719
21
-3.7250157086614171
0
LINE
8
BLACK
6
CONTINUOUS
10
6.3018033858267719
20
-3.7250157086614171
11
6.3018034251968507
21
-3.7250157480314958
0
LINE
8
BLACK
6
CONTINUOUS
10
6.3018034251968507
20
-3.7250157480314958
11
6.3200045275590551
21
-3.7250157480314958
0
LINE
8
BLACK
6
CONTINUOUS
10
6.3200045275590551
20
-3.7250157480314958
11
6.3202985433070866
21
-3.7197805118110234
0
LINE
8
BLACK
6
CONTINUOUS
10
6.3202985433070866
20
-3.7197805118110234
11
6.3226841732283461
21
-3.705739842519685
0
LINE
8
BLACK
6
CONTINUOUS
10
6.3226841732283461
20
-3.705739842519685
11
6.3266268110236217
21
-3.6920545669291336
0
LINE
8
BLACK
6
CONTINUOUS
10
6.3266268110236217
20
-3.6920545669291336
11
6.3320769685039364
21
-3.6788967716535432
0
LINE
8
BLACK
6
CONTINUOUS
10
6.3320769685039364
20
-3.6788967716535432
11
6.3389660236220475
21
-3.6664319291338581
0
LINE
8
BLACK
6
CONTINUOUS
10
6.3389660236220475
20
-3.6664319291338581
11
6.3472074015748028
21
-3.6548168110236219
0
LINE
8
BLACK
6
CONTINUOUS
10
6.3472074015748028
20
-3.6548168110236219
11
6.356697440944882
21
-3.6441974409448816
0
LINE
8
BLACK
6
CONTINUOUS
10
6.356697440944882
20
-3.6441974409448816
11
6.3673168110236222
21
-3.6347074015748029
0
LINE
8
BLACK
6
CONTINUOUS
10
6.3673168110236222
20
-3.6347074015748029
11
6.3789319291338584
21
-3.6264660236220472
0
LINE
8
BLACK
6
CONTINUOUS
10
6.3789319291338584
20
-3.6264660236220472
11
6.3913967716535431
21
-3.619576968503937
0
LINE
8
BLACK
6
CONTINUOUS
10
6.3913967716535431
20
-3.619576968503937
11
6.4045545669291339
21
-3.6141268110236218
0
LINE
8
BLACK
6
CONTINUOUS
10
6.4045545669291339
20
-3.6141268110236218
11
6.4182398425196849
21
-3.6101841732283462
0
LINE
8
BLACK
6
CONTINUOUS
10
6.4182398425196849
20
-3.6101841732283462
11
6.4322805118110233
21
-3.6077985433070867
0
LINE
8
BLACK
6
CONTINUOUS
10
6.4322805118110233
20
-3.6077985433070867
11
6.4375157480314957
21
-3.6075045275590552
0
LINE
8
BLACK
6
CONTINUOUS
10
6.4375157480314957
20
-3.6075045275590552
11
6.4375157480314957
21
-3.5893033858267716
0
LINE
8
BLACK
6
CONTINUOUS
10
6.4375157480314957
20
-3.5893033858267716
11
6.437515708661417
21
-3.5893033858267716
0
LINE
8
BLACK
6
CONTINUOUS
10
6.437515708661417
20
-3.5893033858267716
11
6.4313255118110231
21
-3.5896277952755904
0
LINE
8
BLACK
6
CONTINUOUS
10
5.2554842519685039
20
-3.6075045275590552
11
5.2607194881889763
21
-3.6077985433070867
0
LINE
8
BLACK
6
CONTINUOUS
10
5.2607194881889763
20
-3.6077985433070867
11
5.2747601574803147
21
-3.6101841732283462
0
LINE
8
BLACK
6
CONTINUOUS
10
5.2747601574803147
20
-3.6101841732283462
11
5.2884454330708657
21
-3.6141268110236218
0
LINE
8
BLACK
6
CONTINUOUS
10
5.2884454330708657
20
-3.6141268110236218
11
5.3016032283464565
21
-3.619576968503937
0
LINE
8
BLACK
6
CONTINUOUS
10
5.3016032283464565
20
-3.619576968503937
11
5.3140680708661412
21
-3.6264660236220472
0
LINE
8
BLACK
6
CONTINUOUS
10
5.3140680708661412
20
-3.6264660236220472
11
5.3256831889763783
21
-3.6347074015748029
0
LINE
8
BLACK
6
CONTINUOUS
10
5.3256831889763783
20
-3.6347074015748029
11
5.3363025590551176
21
-3.6441974409448816
0
LINE
8
BLACK
6
CONTINUOUS
10
5.3363025590551176
20
-3.6441974409448816
11
5.3457925984251968
21
-3.6548168110236219
0
LINE
8
BLACK
6
CONTINUOUS
10
5.3457925984251968
20
-3.6548168110236219
11
5.354033976377953
21
-3.6664319291338581
0
LINE
8
BLACK
6
CONTINUOUS
10
5.354033976377953
20
-3.6664319291338581
11
5.3609230314960632
21
-3.6788967716535432
0
LINE
8
BLACK
6
CONTINUOUS
10
5.3609230314960632
20
-3.6788967716535432
11
5.3663731889763779
21
-3.6920545669291336
0
LINE
8
BLACK
6
CONTINUOUS
10
5.3663731889763779
20
-3.6920545669291336
11
5.3703158267716535
21
-3.705739842519685
0
LINE
8
BLACK
6
CONTINUOUS
10
5.3703158267716535
20
-3.705739842519685
11
5.372701456692913
21
-3.7197805118110234
0
LINE
8
BLACK
6
CONTINUOUS
10
5.372701456692913
20
-3.7197805118110234
11
5.3729954724409446
21
-3.7250157480314958
0
LINE
8
BLACK
6
CONTINUOUS
10
5.3729954724409446
20
-3.7250157480314958
11
5.3911965748031498
21
-3.7250157480314958
0
LINE
8
BLACK
6
CONTINUOUS
10
5.3911965748031498
20
-3.7250157480314958
11
5.3911965748031498
21
-3.7250157086614171
0
LINE
8
BLACK
6
CONTINUOUS
10
5.3911965748031498
20
-3.7250157086614171
11
5.390872165354331
21
-3.7188255118110236
0
LINE
8
BLACK
6
CONTINUOUS
10
5.390872165354331
20
-3.7188255118110236
11
5.390872165354331
21
-3.7188254330708661
0
LINE
8
BLACK
6
CONTINUOUS
10
5.390872165354331
20
-3.7188254330708661
11
5.3884952362204723
21
-3.7038183464566927
0
LINE
8
BLACK
6
CONTINUOUS
10
5.3884952362204723
20
-3.7038183464566927
11
5.3884950393700786
21
-3.7038174803149606
0
LINE
8
BLACK
6
CONTINUOUS
10
5.3884950393700786
20
-3.7038174803149606
11
5.3845624015748026
21
-3.6891407086614172
0
LINE
8
BLACK
6
CONTINUOUS
10
5.3845624015748026
20
-3.6891407086614172
11
5.3791171653543302
21
-3.6749553937007873
0
LINE
8
BLACK
6
CONTINUOUS
10
5.3791171653543302
20
-3.6749553937007873
11
5.3791168110236223
21
-3.6749546062992127
0
LINE
8
BLACK
6
CONTINUOUS
10
5.3791168110236223
20
-3.6749546062992127
11
5.3722188582677166
21
-3.6614165748031495
0
LINE
8
BLACK
6
CONTINUOUS
10
5.3722188582677166
20
-3.6614165748031495
11
5.3722187007874016
21
-3.6614162992125983
0
LINE
8
BLACK
6
CONTINUOUS
10
5.3722187007874016
20
-3.6614162992125983
11
5.3639430708661413
21
-3.6486729527559056
0
LINE
8
BLACK
6
CONTINUOUS
10
5.3639430708661413
20
-3.6486729527559056
11
5.3543803543307087
21
-3.6368639370078739
0
LINE
8
BLACK
6
CONTINUOUS
10
5.3543803543307087
20
-3.6368639370078739
11
5.3436360236220475
21
-3.6261196062992127
0
LINE
8
BLACK
6
CONTINUOUS
10
5.3436360236220475
20
-3.6261196062992127
11
5.3318273622047245
21
-3.6165571653543305
0
LINE
8
BLACK
6
CONTINUOUS
10
5.3318273622047245
20
-3.6165571653543305
11
5.3318271653543308
21
-3.6165570078740155
0
LINE
8
BLACK
6
CONTINUOUS
10
5.3318271653543308
20
-3.6165570078740155
11
5.3190837007874014
21
-3.6082812598425198
0
LINE
8
BLACK
6
CONTINUOUS
10
5.3190837007874014
20
-3.6082812598425198
11
5.3190834251968502
21
-3.6082811023622048
0
LINE
8
BLACK
6
CONTINUOUS
10
5.3190834251968502
20
-3.6082811023622048
11
5.3055453543307083
21
-3.6013831496062991
0
LINE
8
BLACK
6
CONTINUOUS
10
5.3055453543307083
20
-3.6013831496062991
11
5.3055445669291341
21
-3.6013827952755904
0
LINE
8
BLACK
6
CONTINUOUS
10
5.3055445669291341
20
-3.6013827952755904
11
5.2913592519685038
21
-3.5959375590551179
0
LINE
8
BLACK
6
CONTINUOUS
10
5.2913592519685038
20
-3.5959375590551179
11
5.2766824803149603
21
-3.5920049212598424
0
LINE
8
BLACK
6
CONTINUOUS
10
5.2766824803149603
20
-3.5920049212598424
11
5.2766816141732278
21
-3.5920047244094486
0
LINE
8
BLACK
6
CONTINUOUS
10
5.2766816141732278
20
-3.5920047244094486
11
5.2616744881889765
21
-3.5896277952755904
0
LINE
8
BLACK
6
CONTINUOUS
10
5.2616744881889765
20
-3.5896277952755904
11
5.2554842519685039
21
-3.5893033858267716
0
LINE
8
BLACK
6
CONTINUOUS
10
5.2554842519685039
20
-3.5893033858267716
11
5.2554842519685039
21
-3.6075045275590552
0
LINE
8
BLACK
6
CONTINUOUS
10
5.2313255118110238
20
-3.5896277952755904
11
5.2313254330708663
21
-3.5896277952755904
0
LINE
8
BLACK
6
CONTINUOUS
10
5.2313254330708663
20
-3.5896277952755904
11
5.2163183464566929
21
-3.5920047244094486
0
LINE
8
BLACK
6
CONTINUOUS
10
5.2163183464566929
20
-3.5920047244094486
11
5.2163174803149603
21
-3.5920049212598424
0
LINE
8
BLACK
6
CONTINUOUS
10
5.2163174803149603
20
-3.5920049212598424
11
5.2016407086614169
21
-3.5959375590551179
0
LINE
8
BLACK
6
CONTINUOUS
10
5.2016407086614169
20
-3.5959375590551179
11
5.1874553937007875
21
-3.6013827952755904
0
LINE
8
BLACK
6
CONTINUOUS
10
5.1874553937007875
20
-3.6013827952755904
11
5.1874546062992124
21
-3.6013831496062991
0
LINE
8
BLACK
6
CONTINUOUS
10
5.1874546062992124
20
-3.6013831496062991
11
5.1739165748031493
21
-3.6082811023622048
0
LINE
8
BLACK
6
CONTINUOUS
10
5.1739165748031493
20
-3.6082811023622048
11
5.173916299212598
21
-3.6082812598425198
0
LINE
8
BLACK
6
CONTINUOUS
10
5.173916299212598
20
-3.6082812598425198
11
5.1611729527559058
21
-3.6165568897637796
0
LINE
8
BLACK
6
CONTINUOUS
10
5.1611729527559058
20
-3.6165568897637796
11
5.1493639370078741
21
-3.6261196062992127
0
LINE
8
BLACK
6
CONTINUOUS
10
5.1493639370078741
20
-3.6261196062992127
11
5.1386196062992129
21
-3.6368639370078739
0
LINE
8
BLACK
6
CONTINUOUS
10
5.1386196062992129
20
-3.6368639370078739
11
5.1290568897637794
21
-3.6486729527559056
0
LINE
8
BLACK
6
CONTINUOUS
10
5.1290568897637794
20
-3.6486729527559056
11
5.12078125984252
21
-3.6614162992125983
0
LINE
8
BLACK
6
CONTINUOUS
10
5.12078125984252
20
-3.6614162992125983
11
5.120781102362205
21
-3.6614165748031495
0
LINE
8
BLACK
6
CONTINUOUS
10
5.120781102362205
20
-3.6614165748031495
11
5.1138831496062993
21
-3.6749546062992127
0
LINE
8
BLACK
6
CONTINUOUS
10
5.1138831496062993
20
-3.6749546062992127
11
5.1138827952755905
21
-3.6749553937007873
0
LINE
8
BLACK
6
CONTINUOUS
10
5.1138827952755905
20
-3.6749553937007873
11
5.1084375590551181
21
-3.6891407086614172
0
LINE
8
BLACK
6
CONTINUOUS
10
5.1084375590551181
20
-3.6891407086614172
11
5.1045049212598421
21
-3.7038174803149606
0
LINE
8
BLACK
6
CONTINUOUS
10
5.1045049212598421
20
-3.7038174803149606
11
5.1045047244094484
21
-3.7038183464566927
0
LINE
8
BLACK
6
CONTINUOUS
10
5.1045047244094484
20
-3.7038183464566927
11
5.1021277952755906
21
-3.7188254330708661
0
LINE
8
BLACK
6
CONTINUOUS
10
5.1021277952755906
20
-3.7188254330708661
11
5.1021277952755906
21
-3.7188255118110236
0
LINE
8
BLACK
6
CONTINUOUS
10
5.1021277952755906
20
-3.7188255118110236
11
5.1018033858267717
21
-3.7250157086614171
0
LINE
8
BLACK
6
CONTINUOUS
10
5.1018033858267717
20
-3.7250157086614171
11
5.1018034251968505
21
-3.7250157480314958
0
LINE
8
BLACK
6
CONTINUOUS
10
5.1018034251968505
20
-3.7250157480314958
11
5.1200045275590549
21
-3.7250157480314958
0
LINE
8
BLACK
6
CONTINUOUS
10
5.1200045275590549
20
-3.7250157480314958
11
5.1202985433070864
21
-3.7197805118110234
0
LINE
8
BLACK
6
CONTINUOUS
10
5.1202985433070864
20
-3.7197805118110234
11
5.1226841732283459
21
-3.705739842519685
0
LINE
8
BLACK
6
CONTINUOUS
10
5.1226841732283459
20
-3.705739842519685
11
5.1266268110236215
21
-3.6920545669291336
0
LINE
8
BLACK
6
CONTINUOUS
10
5.1266268110236215
20
-3.6920545669291336
11
5.1320769685039371
21
-3.6788967716535432
0
LINE
8
BLACK
6
CONTINUOUS
10
5.1320769685039371
20
-3.6788967716535432
11
5.1389660236220474
21
-3.6664319291338581
0
LINE
8
BLACK
6
CONTINUOUS
10
5.1389660236220474
20
-3.6664319291338581
11
5.1472074015748026
21
-3.6548168110236219
0
LINE
8
BLACK
6
CONTINUOUS
10
5.1472074015748026
20
-3.6548168110236219
11
5.1566974409448818
21
-3.6441974409448816
0
LINE
8
BLACK
6
CONTINUOUS
10
5.1566974409448818
20
-3.6441974409448816
11
5.1673168110236221
21
-3.6347074015748029
0
LINE
8
BLACK
6
CONTINUOUS
10
5.1673168110236221
20
-3.6347074015748029
11
5.1789319291338582
21
-3.6264660236220472
0
LINE
8
BLACK
6
CONTINUOUS
10
5.1789319291338582
20
-3.6264660236220472
11
5.191396771653543
21
-3.619576968503937
0
LINE
8
BLACK
6
CONTINUOUS
10
5.191396771653543
20
-3.619576968503937
11
5.2045545669291338
21
-3.6141268110236218
0
LINE
8
BLACK
6
CONTINUOUS
10
5.2045545669291338
20
-3.6141268110236218
11
5.2182398425196848
21
-3.6101841732283462
0
LINE
8
BLACK
6
CONTINUOUS
10
5.2182398425196848
20
-3.6101841732283462
11
5.2322805118110232
21
-3.6077985433070867
0
LINE
8
BLACK
6
CONTINUOUS
10
5.2322805118110232
20
-3.6077985433070867
11
5.2375157480314956
21
-3.6075045275590552
0
LINE
8
BLACK
6
CONTINUOUS
10
5.2375157480314956
20
-3.6075045275590552
11
5.2375157480314956
21
-3.5893033858267716
0
LINE
8
BLACK
6
CONTINUOUS
10
5.2375157480314956
20
-3.5893033858267716
11
5.2375157086614168
21
-3.5893033858267716
0
LINE
8
BLACK
6
CONTINUOUS
10
5.2375157086614168
20
-3.5893033858267716
11
5.2313255118110238
21
-3.5896277952755904
0
LINE
8
BLACK
6
CONTINUOUS
10
5.1021277952755906
20
-4.5491744488188974
11
5.1021277952755906
21
-4.5491745275590549
0
LINE
8
BLACK
6
CONTINUOUS
10
5.1021277952755906
20
-4.5491745275590549
11
5.1045047244094484
21
-4.5641816141732283
0
LINE
8
BLACK
6
CONTINUOUS
10
5.1045047244094484
20
-4.5641816141732283
11
5.1045049212598421
21
-4.5641824803149609
0
LINE
8
BLACK
6
CONTINUOUS
10
5.1045049212598421
20
-4.5641824803149609
11
5.1084375590551181
21
-4.5788592519685034
0
LINE
8
BLACK
6
CONTINUOUS
10
5.1084375590551181
20
-4.5788592519685034
11
5.1138827952755905
21
-4.5930445669291338
0
LINE
8
BLACK
6
CONTINUOUS
10
5.1138827952755905
20
-4.5930445669291338
11
5.1138831496062993
21
-4.5930453543307088
0
LINE
8
BLACK
6
CONTINUOUS
10
5.1138831496062993
20
-4.5930453543307088
11
5.120781102362205
21
-4.6065834251968507
0
LINE
8
BLACK
6
CONTINUOUS
10
5.120781102362205
20
-4.6065834251968507
11
5.12078125984252
21
-4.6065837007874011
0
LINE
8
BLACK
6
CONTINUOUS
10
5.12078125984252
20
-4.6065837007874011
11
5.1290570078740156
21
-4.6193271653543304
0
LINE
8
BLACK
6
CONTINUOUS
10
5.1290570078740156
20
-4.6193271653543304
11
5.1290571653543306
21
-4.6193273622047242
0
LINE
8
BLACK
6
CONTINUOUS
10
5.1290571653543306
20
-4.6193273622047242
11
5.1386196062992129
21
-4.6311360236220471
0
LINE
8
BLACK
6
CONTINUOUS
10
5.1386196062992129
20
-4.6311360236220471
11
5.1493639370078741
21
-4.6418803543307083
0
LINE
8
BLACK
6
CONTINUOUS
10
5.1493639370078741
20
-4.6418803543307083
11
5.161172598425197
21
-4.6514427952755906
0
LINE
8
BLACK
6
CONTINUOUS
10
5.161172598425197
20
-4.6514427952755906
11
5.1611727952755908
21
-4.6514429527559056
0
LINE
8
BLACK
6
CONTINUOUS
10
5.1611727952755908
20
-4.6514429527559056
11
5.1739162598425192
21
-4.6597187007874012
0
LINE
8
BLACK
6
CONTINUOUS
10
5.1739162598425192
20
-4.6597187007874012
11
5.1739165354330705
21
-4.6597188582677163
0
LINE
8
BLACK
6
CONTINUOUS
10
5.1739165354330705
20
-4.6597188582677163
11
5.1874546062992124
21
-4.6666168110236219
0
LINE
8
BLACK
6
CONTINUOUS
10
5.1874546062992124
20
-4.6666168110236219
11
5.1874553937007875
21
-4.6666171653543307
0
LINE
8
BLACK
6
CONTINUOUS
10
5.1874553937007875
20
-4.6666171653543307
11
5.2016407086614169
21
-4.6720624015748031
0
LINE
8
BLACK
6
CONTINUOUS
10
5.2016407086614169
20
-4.6720624015748031
11
5.2163174803149603
21
-4.6759950393700782
0
LINE
8
BLACK
6
CONTINUOUS
10
5.2163174803149603
20
-4.6759950393700782
11
5.2163183464566929
21
-4.675995236220472
0
LINE
8
BLACK
6
CONTINUOUS
10
5.2163183464566929
20
-4.675995236220472
11
5.2313255511811025
21
-4.6783721653543306
0
LINE
8
BLACK
6
CONTINUOUS
10
5.2313255511811025
20
-4.6783721653543306
11
5.2313253543307088
21
-4.6783721653543306
0
LINE
8
BLACK
6
CONTINUOUS
10
5.2313253543307088
20
-4.6783721653543306
11
5.237515669291338
21
-4.6786965748031495
0
LINE
8
BLACK
6
CONTINUOUS
10
5.237515669291338
20
-4.6786965748031495
11
5.2375157480314956
21
-4.6786965354330707
0
LINE
8
BLACK
6
CONTINUOUS
10
5.2375157480314956
20
-4.6786965354330707
11
5.2375157480314956
21
-4.6604954330708663
0
LINE
8
BLACK
6
CONTINUOUS
10
5.2375157480314956
20
-4.6604954330708663
11
5.2322805118110232
21
-4.6602014566929135
0
LINE
8
BLACK
6
CONTINUOUS
10
5.2322805118110232
20
-4.6602014566929135
11
5.2182398425196848
21
-4.6578158267716532
0
LINE
8
BLACK
6
CONTINUOUS
10
5.2182398425196848
20
-4.6578158267716532
11
5.2045545669291338
21
-4.6538731889763776
0
LINE
8
BLACK
6
CONTINUOUS
10
5.2045545669291338
20
-4.6538731889763776
11
5.191396771653543
21
-4.6484230314960628
0
LINE
8
BLACK
6
CONTINUOUS
10
5.191396771653543
20
-4.6484230314960628
11
5.1789319291338582
21
-4.6415339763779526
0
LINE
8
BLACK
6
CONTINUOUS
10
5.1789319291338582
20
-4.6415339763779526
11
5.1673168110236221
21
-4.6332925984251965
0
LINE
8
BLACK
6
CONTINUOUS
10
5.1673168110236221
20
-4.6332925984251965
11
5.1566974409448818
21
-4.6238025590551182
0
LINE
8
BLACK
6
CONTINUOUS
10
5.1566974409448818
20
-4.6238025590551182
11
5.1472074015748026
21
-4.6131831889763779
0
LINE
8
BLACK
6
CONTINUOUS
10
5.1472074015748026
20
-4.6131831889763779
11
5.1389660236220474
21
-4.6015680708661417
0
LINE
8
BLACK
6
CONTINUOUS
10
5.1389660236220474
20
-4.6015680708661417
11
5.1320769685039371
21
-4.589103228346457
0
LINE
8
BLACK
6
CONTINUOUS
10
5.1320769685039371
20
-4.589103228346457
11
5.1266268110236215
21
-4.5759454330708662
0
LINE
8
BLACK
6
CONTINUOUS
10
5.1266268110236215
20
-4.5759454330708662
11
5.1226841732283459
21
-4.5622601574803152
0
LINE
8
BLACK
6
CONTINUOUS
10
5.1226841732283459
20
-4.5622601574803152
11
5.1202985433070864
21
-4.5482194881889759
0
LINE
8
BLACK
6
CONTINUOUS
10
5.1202985433070864
20
-4.5482194881889759
11
5.1200045275590549
21
-4.5429842519685035
0
LINE
8
BLACK
6
CONTINUOUS
10
5.1200045275590549
20
-4.5429842519685035
11
5.1018033858267717
21
-4.5429842519685035
0
LINE
8
BLACK
6
CONTINUOUS
10
5.1018033858267717
20
-4.5429842519685035
11
5.1021277952755906
21
-4.5491744488188974
0
LINE
8
BLACK
6
CONTINUOUS
10
6.3461453543307087
20
-4.1643664566929131
11
6.3479342913385821
21
-4.1694790944881888
0
LINE
8
BLACK
6
CONTINUOUS
10
6.3479342913385821
20
-4.1694790944881888
11
6.3511508267716534
21
-4.1738373228346459
0
LINE
8
BLACK
6
CONTINUOUS
10
6.3511508267716534
20
-4.1738373228346459
11
6.3555090551181097
21
-4.1770538582677164
0
LINE
8
BLACK
6
CONTINUOUS
10
6.3555090551181097
20
-4.1770538582677164
11
6.3606217322834642
21
-4.1788427952755907
0
LINE
8
BLACK
6
CONTINUOUS
10
6.3606217322834642
20
-4.1788427952755907
11
6.3606216929133854
21
-4.1788427952755907
0
LINE
8
BLACK
6
CONTINUOUS
10
6.3606216929133854
20
-4.1788427952755907
11
6.3618361023622043
21
-4.1789566929133857
0
LINE
8
BLACK
6
CONTINUOUS
10
6.3618361023622043
20
-4.1789566929133857
11
6.3875157480314959
21
-4.1789566929133857
0
LINE
8
BLACK
6
CONTINUOUS
10
6.3875157480314959
20
-4.1789566929133857
11
6.3875157480314959
21
-4.1609881889763782
0
LINE
8
BLACK
6
CONTINUOUS
10
6.3875157480314959
20
-4.1609881889763782
11
6.3639999999999999
21
-4.1609881889763782
0
LINE
8
BLACK
6
CONTINUOUS
10
6.3639999999999999
20
-4.1609881889763782
11
6.3639999999999999
21
-4.1374724409448822
0
LINE
8
BLACK
6
CONTINUOUS
10
6.3639999999999999
20
-4.1374724409448822
11
6.3460314960629916
21
-4.1374724409448822
0
LINE
8
BLACK
6
CONTINUOUS
10
6.3460314960629916
20
-4.1374724409448822
11
6.3460314960629916
21
-4.1631520866141729
0
LINE
8
BLACK
6
CONTINUOUS
10
6.3460314960629916
20
-4.1631520866141729
11
6.3461453543307087
21
-4.1643664566929131
0
LINE
8
BLACK
6
CONTINUOUS
10
5.1021277952755906
20
-3.7491744488188976
11
5.1021277952755906
21
-3.7491745275590551
0
LINE
8
BLACK
6
CONTINUOUS
10
5.1021277952755906
20
-3.7491745275590551
11
5.1045047244094484
21
-3.7641816141732281
0
LINE
8
BLACK
6
CONTINUOUS
10
5.1045047244094484
20
-3.7641816141732281
11
5.1045049212598421
21
-3.7641824803149606
0
LINE
8
BLACK
6
CONTINUOUS
10
5.1045049212598421
20
-3.7641824803149606
11
5.1084375590551181
21
-3.778859251968504
0
LINE
8
BLACK
6
CONTINUOUS
10
5.1084375590551181
20
-3.778859251968504
11
5.1138827952755905
21
-3.7930445669291339
0
LINE
8
BLACK
6
CONTINUOUS
10
5.1138827952755905
20
-3.7930445669291339
11
5.1138831496062993
21
-3.7930453543307086
0
LINE
8
BLACK
6
CONTINUOUS
10
5.1138831496062993
20
-3.7930453543307086
11
5.120781102362205
21
-3.8065834251968504
0
LINE
8
BLACK
6
CONTINUOUS
10
5.120781102362205
20
-3.8065834251968504
11
5.12078125984252
21
-3.8065837007874013
0
LINE
8
BLACK
6
CONTINUOUS
10
5.12078125984252
20
-3.8065837007874013
11
5.1290570078740156
21
-3.8193271653543306
0
LINE
8
BLACK
6
CONTINUOUS
10
5.1290570078740156
20
-3.8193271653543306
11
5.1290571653543306
21
-3.8193273622047244
0
LINE
8
BLACK
6
CONTINUOUS
10
5.1290571653543306
20
-3.8193273622047244
11
5.1386196062992129
21
-3.8311360236220473
0
LINE
8
BLACK
6
CONTINUOUS
10
5.1386196062992129
20
-3.8311360236220473
11
5.1493639370078741
21
-3.8418803543307085
0
LINE
8
BLACK
6
CONTINUOUS
10
5.1493639370078741
20
-3.8418803543307085
11
5.161172598425197
21
-3.8514427952755903
0
LINE
8
BLACK
6
CONTINUOUS
10
5.161172598425197
20
-3.8514427952755903
11
5.1611727952755908
21
-3.8514429527559053
0
LINE
8
BLACK
6
CONTINUOUS
10
5.1611727952755908
20
-3.8514429527559053
11
5.1739162598425192
21
-3.8597187007874014
0
LINE
8
BLACK
6
CONTINUOUS
10
5.1739162598425192
20
-3.8597187007874014
11
5.1739165354330705
21
-3.8597188582677164
0
LINE
8
BLACK
6
CONTINUOUS
10
5.1739165354330705
20
-3.8597188582677164
11
5.1874546062992124
21
-3.8666168110236221
0
LINE
8
BLACK
6
CONTINUOUS
10
5.1874546062992124
20
-3.8666168110236221
11
5.1874553937007875
21
-3.8666171653543304
0
LINE
8
BLACK
6
CONTINUOUS
10
5.1874553937007875
20
-3.8666171653543304
11
5.2016407086614169
21
-3.8720624015748029
0
LINE
8
BLACK
6
CONTINUOUS
10
5.2016407086614169
20
-3.8720624015748029
11
5.2163174803149603
21
-3.8759950393700788
0
LINE
8
BLACK
6
CONTINUOUS
10
5.2163174803149603
20
-3.8759950393700788
11
5.2163183464566929
21
-3.8759952362204722
0
LINE
8
BLACK
6
CONTINUOUS
10
5.2163183464566929
20
-3.8759952362204722
11
5.2313255511811025
21
-3.8783721653543308
0
LINE
8
BLACK
6
CONTINUOUS
10
5.2313255511811025
20
-3.8783721653543308
11
5.2313253543307088
21
-3.8783721653543308
0
LINE
8
BLACK
6
CONTINUOUS
10
5.2313253543307088
20
-3.8783721653543308
11
5.237515669291338
21
-3.8786965748031497
0
LINE
8
BLACK
6
CONTINUOUS
10
5.237515669291338
20
-3.8786965748031497
11
5.2375157480314956
21
-3.8786965354330709
0
LINE
8
BLACK
6
CONTINUOUS
10
5.2375157480314956
20
-3.8786965354330709
11
5.2375157480314956
21
-3.8604954330708661
0
LINE
8
BLACK
6
CONTINUOUS
10
5.2375157480314956
20
-3.8604954330708661
11
5.2322805118110232
21
-3.8602014566929133
0
LINE
8
BLACK
6
CONTINUOUS
10
5.2322805118110232
20
-3.8602014566929133
11
5.2182398425196848
21
-3.8578158267716534
0
LINE
8
BLACK
6
CONTINUOUS
10
5.2182398425196848
20
-3.8578158267716534
11
5.2045545669291338
21
-3.8538731889763778
0
LINE
8
BLACK
6
CONTINUOUS
10
5.2045545669291338
20
-3.8538731889763778
11
5.191396771653543
21
-3.848423031496063
0
LINE
8
BLACK
6
CONTINUOUS
10
5.191396771653543
20
-3.848423031496063
11
5.1789319291338582
21
-3.8415339763779528
0
LINE
8
BLACK
6
CONTINUOUS
10
5.1789319291338582
20
-3.8415339763779528
11
5.1673168110236221
21
-3.8332925984251967
0
LINE
8
BLACK
6
CONTINUOUS
10
5.1673168110236221
20
-3.8332925984251967
11
5.1566974409448818
21
-3.8238025590551179
0
LINE
8
BLACK
6
CONTINUOUS
10
5.1566974409448818
20
-3.8238025590551179
11
5.1472074015748026
21
-3.8131831889763776
0
LINE
8
BLACK
6
CONTINUOUS
10
5.1472074015748026
20
-3.8131831889763776
11
5.1389660236220474
21
-3.8015680708661415
0
LINE
8
BLACK
6
CONTINUOUS
10
5.1389660236220474
20
-3.8015680708661415
11
5.1320769685039371
21
-3.7891032283464567
0
LINE
8
BLACK
6
CONTINUOUS
10
5.1320769685039371
20
-3.7891032283464567
11
5.1266268110236215
21
-3.7759454330708659
0
LINE
8
BLACK
6
CONTINUOUS
10
5.1266268110236215
20
-3.7759454330708659
11
5.1226841732283459
21
-3.7622601574803149
0
LINE
8
BLACK
6
CONTINUOUS
10
5.1226841732283459
20
-3.7622601574803149
11
5.1202985433070864
21
-3.7482194881889761
0
LINE
8
BLACK
6
CONTINUOUS
10
5.1202985433070864
20
-3.7482194881889761
11
5.1200045275590549
21
-3.7429842519685037
0
LINE
8
BLACK
6
CONTINUOUS
10
5.1200045275590549
20
-3.7429842519685037
11
5.1018033858267717
21
-3.7429842519685037
0
LINE
8
BLACK
6
CONTINUOUS
10
5.1018033858267717
20
-3.7429842519685037
11
5.1021277952755906
21
-3.7491744488188976
0
CIRCLE
8
BLACK
10
5.690200787401575
20
-4.484
40
0.0068897637795276
0
CIRCLE
8
BLACK
10
5.690200787401575
20
-4.5839999999999996
40
0.0068897637795276
0
CIRCLE
8
BLACK
10
5.5902007874015744
20
-4.484
40
0.0068897637795276
0
CIRCLE
8
BLACK
10
5.5902007874015744
20
-4.5839999999999996
40
0.0068897637795276
0
CIRCLE
8
BLACK
10
5.9213031496062989
20
-4.484
40
0.0068897637795276
0
CIRCLE
8
BLACK
10
5.9213031496062989
20
-4.5839999999999996
40
0.0068897637795276
0
CIRCLE
8
BLACK
10
6.4965000000000002
20
-4.3284881889763778
40
0.0068897637795276
0
CIRCLE
8
BLACK
10
6.3964999999999996
20
-4.3284881889763778
40
0.0068897637795276
0
CIRCLE
8
BLACK
10
6.4965000000000002
20
-4.2284881889763781
40
0.0068897637795276
0
CIRCLE
8
BLACK
10
6.3964999999999996
20
-4.2284881889763781
40
0.0068897637795276
0
CIRCLE
8
BLACK
10
6.4965000000000002
20
-4.1284881889763776
40
0.0068897637795276
0
CIRCLE
8
BLACK
10
6.3964999999999996
20
-4.1284881889763776
40
0.0068897637795276
0
CIRCLE
8
BLACK
10
6.4464999999999995
20
-4.5339999999999998
40
0.0068897637795276
0
CIRCLE
8
BLACK
10
5.2465000000000002
20
-4.5339999999999998
40
0.0068897637795276
0
CIRCLE
8
BLACK
10
5.2465000000000002
20
-3.734
40
0.0068897637795276
0
CIRCLE
8
BLACK
10
6.4464999999999995
20
-3.734
40
0.0068897637795276
0
CIRCLE
8
BLACK
10
6.4965000000000002
20
-3.9820314960629921
40
0.0068897637795276
0
CIRCLE
8
BLACK
10
6.3964999999999996
20
-3.9820314960629921
40
0.0068897637795276
0
CIRCLE
8
BLACK
10
5.9795708661417324
20
-4.3442362204724407
40
0.0118110236220472
0
CIRCLE
8
BLACK
10
6.1980748031496065
20
-4.3206141732283463
40
0.0118110236220472
0
CIRCLE
8
BLACK
10
6.1980748031496065
20
-4.4977795275590546
40
0.0118110236220472
0
CIRCLE
8
BLACK
10
5.4598858267716537
20
-3.8363622047244093
40
0.0118110236220472
0
CIRCLE
8
BLACK
10
5.6016181102362204
20
-3.6178582677165352
40
0.0118110236220472
0
CIRCLE
8
BLACK
10
5.8378385826771648
20
-4.5568346456692916
40
0.0118110236220472
0
CIRCLE
8
BLACK
10
6.174452755905512
20
-3.6532913385826773
40
0.0118110236220472
0
CIRCLE
8
BLACK
10
5.2413818897637796
20
-4.3501417322834648
40
0.0118110236220472
0
CIRCLE
8
BLACK
10
5.8909881889763778
20
-3.6532913385826773
40
0.0118110236220472
0
CIRCLE
8
BLACK
10
5.8378385826771648
20
-4.6217952755905509
40
0.0118110236220472
0
CIRCLE
8
BLACK
10
5.418547244094488
20
-4.6217952755905509
40
0.0118110236220472
0
CIRCLE
8
BLACK
10
6.1980748031496065
20
-4.4387244094488185
40
0.0118110236220472
0
CIRCLE
8
BLACK
10
5.4835078740157481
20
-4.6217952755905509
40
0.0118110236220472
0
CIRCLE
8
BLACK
10
6.1035866141732278
20
-3.6532913385826773
40
0.0118110236220472
0
CIRCLE
8
BLACK
10
5.1232716535433074
20
-4.3501417322834648
40
0.0118110236220472
0
CIRCLE
8
BLACK
10
6.174452755905512
20
-3.7241574803149606
40
0.0118110236220472
0
CIRCLE
8
BLACK
10
5.418547244094488
20
-4.5627401574803148
40
0.0118110236220472
0
CIRCLE
8
BLACK
10
5.5366574803149602
20
-3.6178582677165352
40
0.0118110236220472
0
CIRCLE
8
BLACK
10
5.7846889763779528
20
-3.9603779527559055
40
0.0118110236220472
0
CIRCLE
8
BLACK
10
5.6783897637795278
20
-3.6532913385826773
40
0.0118110236220472
0
CIRCLE
8
BLACK
10
5.7492559055118111
20
-3.6532913385826773
40
0.0118110236220472
0
CIRCLE
8
BLACK
10
5.7787834645669287
20
-4.5568346456692916
40
0.0118110236220472
0
CIRCLE
8
BLACK
10
5.5602795275590546
20
-4.0784881889763778
40
0.0118110236220472
0
CIRCLE
8
BLACK
10
6.2689409448818898
20
-4.3206141732283463
40
0.0118110236220472
0
CIRCLE
8
BLACK
10
5.4835078740157481
20
-4.5036850393700787
40
0.0118110236220472
0
CIRCLE
8
BLACK
10
5.9795708661417324
20
-4.2910866141732287
40
0.0118110236220472
0
CIRCLE
8
BLACK
10
5.4303582677165352
20
-3.6532913385826773
40
0.0118110236220472
0
CIRCLE
8
BLACK
10
5.1823267716535435
20
-4.3501417322834648
40
0.0118110236220472
0
CIRCLE
8
BLACK
10
5.9618543307086611
20
-3.6532913385826773
40
0.0118110236220472
0
CIRCLE
8
BLACK
10
5.418547244094488
20
-4.5036850393700787
40
0.0118110236220472
0
CIRCLE
8
BLACK
10
5.7846889763779528
20
-4.0194330708661417
40
0.0118110236220472
0
CIRCLE
8
BLACK
10
5.8378385826771648
20
-4.4918740157480315
40
0.0118110236220472
0
CIRCLE
8
BLACK
10
5.4303582677165352
20
-3.7123464566929134
40
0.0118110236220472
0
CIRCLE
8
BLACK
10
6.174452755905512
20
-3.795023622047244
40
0.0118110236220472
0
CIRCLE
8
BLACK
10
5.1232716535433074
20
-4.4032913385826769
40
0.0118110236220472
0
CIRCLE
8
BLACK
10
6.174452755905512
20
-3.8658897637795273
40
0.0118110236220472
0
CIRCLE
8
BLACK
10
6.0031929133858268
20
-4.468251968503937
40
0.0118110236220472
0
CIRCLE
8
BLACK
10
6.1980748031496065
20
-4.3796692913385824
40
0.0118110236220472
0
CIRCLE
8
BLACK
10
5.3890196850393703
20
-3.8363622047244093
40
0.0118110236220472
0
CIRCLE
8
BLACK
10
5.8201220472440944
20
-3.6532913385826773
40
0.0118110236220472
0
CIRCLE
8
BLACK
10
5.7787834645669287
20
-4.4918740157480315
40
0.0118110236220472
0
CIRCLE
8
BLACK
10
6.0031929133858268
20
-4.5214015748031491
40
0.0118110236220472
0
CIRCLE
8
BLACK
10
6.0327204724409444
20
-3.6532913385826773
40
0.0118110236220472
0
CIRCLE
8
BLACK
10
5.7787834645669287
20
-4.6217952755905509
40
0.0118110236220472
0
CIRCLE
8
BLACK
10
5.4835078740157481
20
-4.5627401574803148
40
0.0118110236220472
0
CIRCLE
8
BLACK
10
6.3279960629921259
20
-4.0371496062992129
40
0.0118110236220472
0
CIRCLE
8
BLACK
10
5.2827204724409444
20
-3.9367559055118111
40
0.0118110236220472
0
CIRCLE
8
BLACK
10
5.2354763779527556
20
-3.9367559055118111
40
0.0118110236220472
0
CIRCLE
8
BLACK
10
5.3299645669291333
20
-3.9367559055118111
40
0.0118110236220472
0
CIRCLE
8
BLACK
10
5.5779960629921259
20
-4.1788818897637796
40
0.0118110236220472
0
CIRCLE
8
BLACK
10
5.4480748031496065
20
-4.4032913385826769
40
0.0118110236220472
  0
ENDSEC
  0
EOF
