  0
SECTION
  2
HEADER
  9
$ANGBASE
  50
0.0
  9
$ANGDIR
  70
1
  9
$MEASUREMENT
  70
0
  0
ENDSEC
  0
SECTION
  2
TABLES
  0
TABLE
  2
LTYPE
  70
4
  0
LTYPE
  5
40F
  2
CONTINUOUS
  70
0
  3
Solid line
  72
65
  73
0
  40
0.0
  0
LTYPE
  5
410
  2
DASHDOT
 70
0
  3
Dash Dot ____ _ ____ _
 72
65
 73
4
 40
2.0
 49
1.25
 49
-0.25
 49
0.25
 49
-0.25
  0
LTYPE
  5
411
  2
DASHED
 70
0
  3
Dashed __ __ __ __ __
 72
65
 73
2
 40
0.75
 49
0.5
 49
-0.25
  0
LTYPE
  5
43B
  2
DOTTED
 70
0
  3
Dotted .  .  .  .
 72
65
 73
2
 40
0.2
 49
0.0
 49
-0.2
  0
ENDTAB
  0
TABLE
  2
STYLE
  70
4
  0
STYLE
  2
KICAD
  70
0
  40
0
  41
1
  42
1
  50
0
  71
0
  3
isocp.shx
  0
STYLE
  2
KICADB
  70
0
  40
0
  41
1
  42
1
  50
0
  71
0
  3
isocp.shx
  0
STYLE
  2
KICADI
  70
0
  40
0
  41
1
  42
1
  50
15
  71
0
  3
isocp.shx
  0
STYLE
  2
KICADBI
  70
0
  40
0
  41
1
  42
1
  50
15
  71
0
  3
isocp.shx
  0
ENDTAB
  0
TABLE
  2
LAYER
  70
1
  0
LAYER
  2
BLACK
  70
0
  62
7
  6
CONTINUOUS
  0
ENDTAB
  0
ENDSEC
  0
SECTION
  2
ENTITIES
0
LINE
8
BLACK
6
CONTINUOUS
10
6.1417755905511813
20
-4.4855748031496061
11
6.0417755905511807
21
-4.4855748031496061
0
LINE
8
BLACK
6
CONTINUOUS
10
6.0417755905511807
20
-4.4855748031496061
11
6.0417755905511807
21
-4.4355748031496063
0
LINE
8
BLACK
6
CONTINUOUS
10
6.0417755905511807
20
-4.4355748031496063
11
6.1417755905511813
21
-4.4355748031496063
0
LINE
8
BLACK
6
CONTINUOUS
10
6.1417755905511813
20
-4.4355748031496063
11
6.1417755905511813
21
-4.4855748031496061
0
LINE
8
BLACK
6
CONTINUOUS
10
5.7441377952755905
20
-4.4300629921259844
11
5.6850826771653544
21
-4.4300629921259844
0
LINE
8
BLACK
6
CONTINUOUS
10
5.6850826771653544
20
-4.4300629921259844
11
5.6850826771653544
21
-4.3788818897637798
0
LINE
8
BLACK
6
CONTINUOUS
10
5.6850826771653544
20
-4.3788818897637798
11
5.7441377952755905
21
-4.3788818897637798
0
LINE
8
BLACK
6
CONTINUOUS
10
5.7441377952755905
20
-4.3788818897637798
11
5.7441377952755905
21
-4.4300629921259844
0
LINE
8
BLACK
6
CONTINUOUS
10
5.7441377952755905
20
-4.3552598425196853
11
5.6850826771653544
21
-4.3552598425196853
0
LINE
8
BLACK
6
CONTINUOUS
10
5.6850826771653544
20
-4.3552598425196853
11
5.6850826771653544
21
-4.3040787401574798
0
LINE
8
BLACK
6
CONTINUOUS
10
5.6850826771653544
20
-4.3040787401574798
11
5.7441377952755905
21
-4.3040787401574798
0
LINE
8
BLACK
6
CONTINUOUS
10
5.7441377952755905
20
-4.3040787401574798
11
5.7441377952755905
21
-4.3552598425196853
0
LINE
8
BLACK
6
CONTINUOUS
10
6.1417755905511813
20
-4.3230748031496065
11
6.0417755905511807
21
-4.3230748031496065
0
LINE
8
BLACK
6
CONTINUOUS
10
6.0417755905511807
20
-4.3230748031496065
11
6.0417755905511807
21
-4.2730748031496066
0
LINE
8
BLACK
6
CONTINUOUS
10
6.0417755905511807
20
-4.2730748031496066
11
6.1417755905511813
21
-4.2730748031496066
0
LINE
8
BLACK
6
CONTINUOUS
10
6.1417755905511813
20
-4.2730748031496066
11
6.1417755905511813
21
-4.3230748031496065
0
LINE
8
BLACK
6
CONTINUOUS
10
5.3141062992125985
20
-4.3219448818897641
11
5.2561062992125986
21
-4.3219448818897641
0
LINE
8
BLACK
6
CONTINUOUS
10
5.2561062992125986
20
-4.3219448818897641
11
5.2561062992125986
21
-4.3079448818897639
0
LINE
8
BLACK
6
CONTINUOUS
10
5.2561062992125986
20
-4.3079448818897639
11
5.3141062992125985
21
-4.3079448818897639
0
LINE
8
BLACK
6
CONTINUOUS
10
5.3141062992125985
20
-4.3079448818897639
11
5.3141062992125985
21
-4.3219448818897641
0
LINE
8
BLACK
6
CONTINUOUS
10
5.536106299212598
20
-4.3219448818897641
11
5.4781062992125982
21
-4.3219448818897641
0
LINE
8
BLACK
6
CONTINUOUS
10
5.4781062992125982
20
-4.3219448818897641
11
5.4781062992125982
21
-4.3079448818897639
0
LINE
8
BLACK
6
CONTINUOUS
10
5.4781062992125982
20
-4.3079448818897639
11
5.536106299212598
21
-4.3079448818897639
0
LINE
8
BLACK
6
CONTINUOUS
10
5.536106299212598
20
-4.3079448818897639
11
5.536106299212598
21
-4.3219448818897641
0
LINE
8
BLACK
6
CONTINUOUS
10
5.879767716535433
20
-4.3192362204724413
11
5.7797677165354333
21
-4.3192362204724413
0
LINE
8
BLACK
6
CONTINUOUS
10
5.7797677165354333
20
-4.3192362204724413
11
5.7797677165354333
21
-4.2692362204724406
0
LINE
8
BLACK
6
CONTINUOUS
10
5.7797677165354333
20
-4.2692362204724406
11
5.879767716535433
21
-4.2692362204724406
0
LINE
8
BLACK
6
CONTINUOUS
10
5.879767716535433
20
-4.2692362204724406
11
5.879767716535433
21
-4.3192362204724413
0
LINE
8
BLACK
6
CONTINUOUS
10
5.1966968503937006
20
-4.3030944881889761
11
5.11401968503937
21
-4.3030944881889761
0
LINE
8
BLACK
6
CONTINUOUS
10
5.11401968503937
20
-4.3030944881889761
11
5.11401968503937
21
-4.24403937007874
0
LINE
8
BLACK
6
CONTINUOUS
10
5.11401968503937
20
-4.24403937007874
11
5.1966968503937006
21
-4.24403937007874
0
LINE
8
BLACK
6
CONTINUOUS
10
5.1966968503937006
20
-4.24403937007874
11
5.1966968503937006
21
-4.3030944881889761
0
LINE
8
BLACK
6
CONTINUOUS
10
5.3141062992125985
20
-4.2959448818897634
11
5.2561062992125986
21
-4.2959448818897634
0
LINE
8
BLACK
6
CONTINUOUS
10
5.2561062992125986
20
-4.2959448818897634
11
5.2561062992125986
21
-4.2819448818897641
0
LINE
8
BLACK
6
CONTINUOUS
10
5.2561062992125986
20
-4.2819448818897641
11
5.3141062992125985
21
-4.2819448818897641
0
LINE
8
BLACK
6
CONTINUOUS
10
5.3141062992125985
20
-4.2819448818897641
11
5.3141062992125985
21
-4.2959448818897634
0
LINE
8
BLACK
6
CONTINUOUS
10
5.536106299212598
20
-4.2959448818897634
11
5.4781062992125982
21
-4.2959448818897634
0
LINE
8
BLACK
6
CONTINUOUS
10
5.4781062992125982
20
-4.2959448818897634
11
5.4781062992125982
21
-4.2819448818897641
0
LINE
8
BLACK
6
CONTINUOUS
10
5.4781062992125982
20
-4.2819448818897641
11
5.536106299212598
21
-4.2819448818897641
0
LINE
8
BLACK
6
CONTINUOUS
10
5.536106299212598
20
-4.2819448818897641
11
5.536106299212598
21
-4.2959448818897634
0
LINE
8
BLACK
6
CONTINUOUS
10
5.6683503937007869
20
-4.2938425196850396
11
5.6171692913385822
21
-4.2938425196850396
0
LINE
8
BLACK
6
CONTINUOUS
10
5.6171692913385822
20
-4.2938425196850396
11
5.6171692913385822
21
-4.2347874015748035
0
LINE
8
BLACK
6
CONTINUOUS
10
5.6171692913385822
20
-4.2347874015748035
11
5.6683503937007869
21
-4.2347874015748035
0
LINE
8
BLACK
6
CONTINUOUS
10
5.6683503937007869
20
-4.2347874015748035
11
5.6683503937007869
21
-4.2938425196850396
0
LINE
8
BLACK
6
CONTINUOUS
10
5.7431535433070868
20
-4.2938425196850396
11
5.6919724409448822
21
-4.2938425196850396
0
LINE
8
BLACK
6
CONTINUOUS
10
5.6919724409448822
20
-4.2938425196850396
11
5.6919724409448822
21
-4.2347874015748035
0
LINE
8
BLACK
6
CONTINUOUS
10
5.6919724409448822
20
-4.2347874015748035
11
5.7431535433070868
21
-4.2347874015748035
0
LINE
8
BLACK
6
CONTINUOUS
10
5.7431535433070868
20
-4.2347874015748035
11
5.7431535433070868
21
-4.2938425196850396
0
LINE
8
BLACK
6
CONTINUOUS
10
6.2470905511811026
20
-4.2765196850393696
11
6.1644133858267711
21
-4.2765196850393696
0
LINE
8
BLACK
6
CONTINUOUS
10
6.1644133858267711
20
-4.2765196850393696
11
6.1644133858267711
21
-4.2174645669291335
0
LINE
8
BLACK
6
CONTINUOUS
10
6.1644133858267711
20
-4.2174645669291335
11
6.2470905511811026
21
-4.2174645669291335
0
LINE
8
BLACK
6
CONTINUOUS
10
6.2470905511811026
20
-4.2174645669291335
11
6.2470905511811026
21
-4.2765196850393696
0
LINE
8
BLACK
6
CONTINUOUS
10
5.3141062992125985
20
-4.2699448818897636
11
5.2561062992125986
21
-4.2699448818897636
0
LINE
8
BLACK
6
CONTINUOUS
10
5.2561062992125986
20
-4.2699448818897636
11
5.2561062992125986
21
-4.2559448818897634
0
LINE
8
BLACK
6
CONTINUOUS
10
5.2561062992125986
20
-4.2559448818897634
11
5.3141062992125985
21
-4.2559448818897634
0
LINE
8
BLACK
6
CONTINUOUS
10
5.3141062992125985
20
-4.2559448818897634
11
5.3141062992125985
21
-4.2699448818897636
0
LINE
8
BLACK
6
CONTINUOUS
10
5.536106299212598
20
-4.2699448818897636
11
5.4781062992125982
21
-4.2699448818897636
0
LINE
8
BLACK
6
CONTINUOUS
10
5.4781062992125982
20
-4.2699448818897636
11
5.4781062992125982
21
-4.2559448818897634
0
LINE
8
BLACK
6
CONTINUOUS
10
5.4781062992125982
20
-4.2559448818897634
11
5.536106299212598
21
-4.2559448818897634
0
LINE
8
BLACK
6
CONTINUOUS
10
5.536106299212598
20
-4.2559448818897634
11
5.536106299212598
21
-4.2699448818897636
0
LINE
8
BLACK
6
CONTINUOUS
10
6.065200787401575
20
-4.2532913385826774
11
5.9652007874015744
21
-4.2532913385826774
0
LINE
8
BLACK
6
CONTINUOUS
10
5.9652007874015744
20
-4.2532913385826774
11
5.9652007874015744
21
-4.2032913385826767
0
LINE
8
BLACK
6
CONTINUOUS
10
5.9652007874015744
20
-4.2032913385826767
11
6.065200787401575
21
-4.2032913385826767
0
LINE
8
BLACK
6
CONTINUOUS
10
6.065200787401575
20
-4.2032913385826767
11
6.065200787401575
21
-4.2532913385826774
0
LINE
8
BLACK
6
CONTINUOUS
10
5.3141062992125985
20
-4.2449448818897633
11
5.2561062992125986
21
-4.2449448818897633
0
LINE
8
BLACK
6
CONTINUOUS
10
5.2561062992125986
20
-4.2449448818897633
11
5.2561062992125986
21
-4.2309448818897639
0
LINE
8
BLACK
6
CONTINUOUS
10
5.2561062992125986
20
-4.2309448818897639
11
5.3141062992125985
21
-4.2309448818897639
0
LINE
8
BLACK
6
CONTINUOUS
10
5.3141062992125985
20
-4.2309448818897639
11
5.3141062992125985
21
-4.2449448818897633
0
LINE
8
BLACK
6
CONTINUOUS
10
5.536106299212598
20
-4.2449448818897633
11
5.4781062992125982
21
-4.2449448818897633
0
LINE
8
BLACK
6
CONTINUOUS
10
5.4781062992125982
20
-4.2449448818897633
11
5.4781062992125982
21
-4.2309448818897639
0
LINE
8
BLACK
6
CONTINUOUS
10
5.4781062992125982
20
-4.2309448818897639
11
5.536106299212598
21
-4.2309448818897639
0
LINE
8
BLACK
6
CONTINUOUS
10
5.536106299212598
20
-4.2309448818897639
11
5.536106299212598
21
-4.2449448818897633
0
LINE
8
BLACK
6
CONTINUOUS
10
5.1966968503937006
20
-4.2243543307086613
11
5.11401968503937
21
-4.2243543307086613
0
LINE
8
BLACK
6
CONTINUOUS
10
5.11401968503937
20
-4.2243543307086613
11
5.11401968503937
21
-4.1652992125984252
0
LINE
8
BLACK
6
CONTINUOUS
10
5.11401968503937
20
-4.1652992125984252
11
5.1966968503937006
21
-4.1652992125984252
0
LINE
8
BLACK
6
CONTINUOUS
10
5.1966968503937006
20
-4.1652992125984252
11
5.1966968503937006
21
-4.2243543307086613
0
LINE
8
BLACK
6
CONTINUOUS
10
5.3141062992125985
20
-4.2189448818897635
11
5.2561062992125986
21
-4.2189448818897635
0
LINE
8
BLACK
6
CONTINUOUS
10
5.2561062992125986
20
-4.2189448818897635
11
5.2561062992125986
21
-4.2049448818897641
0
LINE
8
BLACK
6
CONTINUOUS
10
5.2561062992125986
20
-4.2049448818897641
11
5.3141062992125985
21
-4.2049448818897641
0
LINE
8
BLACK
6
CONTINUOUS
10
5.3141062992125985
20
-4.2049448818897641
11
5.3141062992125985
21
-4.2189448818897635
0
LINE
8
BLACK
6
CONTINUOUS
10
5.536106299212598
20
-4.2189448818897635
11
5.4781062992125982
21
-4.2189448818897635
0
LINE
8
BLACK
6
CONTINUOUS
10
5.4781062992125982
20
-4.2189448818897635
11
5.4781062992125982
21
-4.2049448818897641
0
LINE
8
BLACK
6
CONTINUOUS
10
5.4781062992125982
20
-4.2049448818897641
11
5.536106299212598
21
-4.2049448818897641
0
LINE
8
BLACK
6
CONTINUOUS
10
5.536106299212598
20
-4.2049448818897641
11
5.536106299212598
21
-4.2189448818897635
0
LINE
8
BLACK
6
CONTINUOUS
10
6.3339015748031491
20
-4.2064409448818898
11
6.274846456692913
21
-4.2064409448818898
0
LINE
8
BLACK
6
CONTINUOUS
10
6.274846456692913
20
-4.2064409448818898
11
6.274846456692913
21
-4.1552598425196852
0
LINE
8
BLACK
6
CONTINUOUS
10
6.274846456692913
20
-4.1552598425196852
11
6.3339015748031491
21
-4.1552598425196852
0
LINE
8
BLACK
6
CONTINUOUS
10
6.3339015748031491
20
-4.1552598425196852
11
6.3339015748031491
21
-4.2064409448818898
0
LINE
8
BLACK
6
CONTINUOUS
10
6.2470905511811026
20
-4.1977795275590548
11
6.1644133858267711
21
-4.1977795275590548
0
LINE
8
BLACK
6
CONTINUOUS
10
6.1644133858267711
20
-4.1977795275590548
11
6.1644133858267711
21
-4.1387244094488187
0
LINE
8
BLACK
6
CONTINUOUS
10
6.1644133858267711
20
-4.1387244094488187
11
6.2470905511811026
21
-4.1387244094488187
0
LINE
8
BLACK
6
CONTINUOUS
10
6.2470905511811026
20
-4.1387244094488187
11
6.2470905511811026
21
-4.1977795275590548
0
LINE
8
BLACK
6
CONTINUOUS
10
5.3141062992125985
20
-4.193944881889764
11
5.2561062992125986
21
-4.193944881889764
0
LINE
8
BLACK
6
CONTINUOUS
10
5.2561062992125986
20
-4.193944881889764
11
5.2561062992125986
21
-4.1799448818897638
0
LINE
8
BLACK
6
CONTINUOUS
10
5.2561062992125986
20
-4.1799448818897638
11
5.3141062992125985
21
-4.1799448818897638
0
LINE
8
BLACK
6
CONTINUOUS
10
5.3141062992125985
20
-4.1799448818897638
11
5.3141062992125985
21
-4.193944881889764
0
LINE
8
BLACK
6
CONTINUOUS
10
5.536106299212598
20
-4.193944881889764
11
5.4781062992125982
21
-4.193944881889764
0
LINE
8
BLACK
6
CONTINUOUS
10
5.4781062992125982
20
-4.193944881889764
11
5.4781062992125982
21
-4.1799448818897638
0
LINE
8
BLACK
6
CONTINUOUS
10
5.4781062992125982
20
-4.1799448818897638
11
5.536106299212598
21
-4.1799448818897638
0
LINE
8
BLACK
6
CONTINUOUS
10
5.536106299212598
20
-4.1799448818897638
11
5.536106299212598
21
-4.193944881889764
0
LINE
8
BLACK
6
CONTINUOUS
10
5.3141062992125985
20
-4.1679448818897633
11
5.2561062992125986
21
-4.1679448818897633
0
LINE
8
BLACK
6
CONTINUOUS
10
5.2561062992125986
20
-4.1679448818897633
11
5.2561062992125986
21
-4.153944881889764
0
LINE
8
BLACK
6
CONTINUOUS
10
5.2561062992125986
20
-4.153944881889764
11
5.3141062992125985
21
-4.153944881889764
0
LINE
8
BLACK
6
CONTINUOUS
10
5.3141062992125985
20
-4.153944881889764
11
5.3141062992125985
21
-4.1679448818897633
0
LINE
8
BLACK
6
CONTINUOUS
10
5.536106299212598
20
-4.1679448818897633
11
5.4781062992125982
21
-4.1679448818897633
0
LINE
8
BLACK
6
CONTINUOUS
10
5.4781062992125982
20
-4.1679448818897633
11
5.4781062992125982
21
-4.153944881889764
0
LINE
8
BLACK
6
CONTINUOUS
10
5.4781062992125982
20
-4.153944881889764
11
5.536106299212598
21
-4.153944881889764
0
LINE
8
BLACK
6
CONTINUOUS
10
5.536106299212598
20
-4.153944881889764
11
5.536106299212598
21
-4.1679448818897633
0
LINE
8
BLACK
6
CONTINUOUS
10
5.879767716535433
20
-4.1567362204724407
11
5.7797677165354333
21
-4.1567362204724407
0
LINE
8
BLACK
6
CONTINUOUS
10
5.7797677165354333
20
-4.1567362204724407
11
5.7797677165354333
21
-4.1067362204724409
0
LINE
8
BLACK
6
CONTINUOUS
10
5.7797677165354333
20
-4.1067362204724409
11
5.879767716535433
21
-4.1067362204724409
0
LINE
8
BLACK
6
CONTINUOUS
10
5.879767716535433
20
-4.1067362204724409
11
5.879767716535433
21
-4.1567362204724407
0
LINE
8
BLACK
6
CONTINUOUS
10
5.7285866141732278
20
-4.1544724409448817
11
5.6695314960629917
21
-4.1544724409448817
0
LINE
8
BLACK
6
CONTINUOUS
10
5.6695314960629917
20
-4.1544724409448817
11
5.6695314960629917
21
-4.103291338582677
0
LINE
8
BLACK
6
CONTINUOUS
10
5.6695314960629917
20
-4.103291338582677
11
5.7285866141732278
21
-4.103291338582677
0
LINE
8
BLACK
6
CONTINUOUS
10
5.7285866141732278
20
-4.103291338582677
11
5.7285866141732278
21
-4.1544724409448817
0
LINE
8
BLACK
6
CONTINUOUS
10
5.6516181102362202
20
-4.1528976377952755
11
5.5925629921259841
21
-4.1528976377952755
0
LINE
8
BLACK
6
CONTINUOUS
10
5.5925629921259841
20
-4.1528976377952755
11
5.5925629921259841
21
-4.1017165354330709
0
LINE
8
BLACK
6
CONTINUOUS
10
5.5925629921259841
20
-4.1017165354330709
11
5.6516181102362202
21
-4.1017165354330709
0
LINE
8
BLACK
6
CONTINUOUS
10
5.6516181102362202
20
-4.1017165354330709
11
5.6516181102362202
21
-4.1528976377952755
0
LINE
8
BLACK
6
CONTINUOUS
10
5.3141062992125985
20
-4.1419448818897635
11
5.2561062992125986
21
-4.1419448818897635
0
LINE
8
BLACK
6
CONTINUOUS
10
5.2561062992125986
20
-4.1419448818897635
11
5.2561062992125986
21
-4.1279448818897633
0
LINE
8
BLACK
6
CONTINUOUS
10
5.2561062992125986
20
-4.1279448818897633
11
5.3141062992125985
21
-4.1279448818897633
0
LINE
8
BLACK
6
CONTINUOUS
10
5.3141062992125985
20
-4.1279448818897633
11
5.3141062992125985
21
-4.1419448818897635
0
LINE
8
BLACK
6
CONTINUOUS
10
5.536106299212598
20
-4.1419448818897635
11
5.4781062992125982
21
-4.1419448818897635
0
LINE
8
BLACK
6
CONTINUOUS
10
5.4781062992125982
20
-4.1419448818897635
11
5.4781062992125982
21
-4.1279448818897633
0
LINE
8
BLACK
6
CONTINUOUS
10
5.4781062992125982
20
-4.1279448818897633
11
5.536106299212598
21
-4.1279448818897633
0
LINE
8
BLACK
6
CONTINUOUS
10
5.536106299212598
20
-4.1279448818897633
11
5.536106299212598
21
-4.1419448818897635
0
LINE
8
BLACK
6
CONTINUOUS
10
6.3339015748031491
20
-4.1316377952755907
11
6.274846456692913
21
-4.1316377952755907
0
LINE
8
BLACK
6
CONTINUOUS
10
6.274846456692913
20
-4.1316377952755907
11
6.274846456692913
21
-4.0804566929133861
0
LINE
8
BLACK
6
CONTINUOUS
10
6.274846456692913
20
-4.0804566929133861
11
6.3339015748031491
21
-4.0804566929133861
0
LINE
8
BLACK
6
CONTINUOUS
10
6.3339015748031491
20
-4.0804566929133861
11
6.3339015748031491
21
-4.1316377952755907
0
LINE
8
BLACK
6
CONTINUOUS
10
6.1923661417322835
20
-4.1078188976377952
11
6.1569330708661418
21
-4.1078188976377952
0
LINE
8
BLACK
6
CONTINUOUS
10
6.1569330708661418
20
-4.1078188976377952
11
6.1569330708661418
21
-4.0920708661417322
0
LINE
8
BLACK
6
CONTINUOUS
10
6.1569330708661418
20
-4.0920708661417322
11
6.1923661417322835
21
-4.0920708661417322
0
LINE
8
BLACK
6
CONTINUOUS
10
6.1923661417322835
20
-4.0920708661417322
11
6.1923661417322835
21
-4.1078188976377952
0
LINE
8
BLACK
6
CONTINUOUS
10
6.2553582677165354
20
-4.1078188976377952
11
6.2199251968503937
21
-4.1078188976377952
0
LINE
8
BLACK
6
CONTINUOUS
10
6.2199251968503937
20
-4.1078188976377952
11
6.2199251968503937
21
-4.0920708661417322
0
LINE
8
BLACK
6
CONTINUOUS
10
6.2199251968503937
20
-4.0920708661417322
11
6.2553582677165354
21
-4.0920708661417322
0
LINE
8
BLACK
6
CONTINUOUS
10
6.2553582677165354
20
-4.0920708661417322
11
6.2553582677165354
21
-4.1078188976377952
0
LINE
8
BLACK
6
CONTINUOUS
10
5.5002401574803148
20
-4.1041771653543302
11
5.4002401574803152
21
-4.1041771653543302
0
LINE
8
BLACK
6
CONTINUOUS
10
5.4002401574803152
20
-4.1041771653543302
11
5.4002401574803152
21
-4.0541771653543304
0
LINE
8
BLACK
6
CONTINUOUS
10
5.4002401574803152
20
-4.0541771653543304
11
5.5002401574803148
21
-4.0541771653543304
0
LINE
8
BLACK
6
CONTINUOUS
10
5.5002401574803148
20
-4.0541771653543304
11
5.5002401574803148
21
-4.1041771653543302
0
LINE
8
BLACK
6
CONTINUOUS
10
6.065200787401575
20
-4.0907913385826769
11
5.9652007874015744
21
-4.0907913385826769
0
LINE
8
BLACK
6
CONTINUOUS
10
5.9652007874015744
20
-4.0907913385826769
11
5.9652007874015744
21
-4.040791338582677
0
LINE
8
BLACK
6
CONTINUOUS
10
5.9652007874015744
20
-4.040791338582677
11
6.065200787401575
21
-4.040791338582677
0
LINE
8
BLACK
6
CONTINUOUS
10
6.065200787401575
20
-4.040791338582677
11
6.065200787401575
21
-4.0907913385826769
0
LINE
8
BLACK
6
CONTINUOUS
10
5.8697283464566929
20
-4.0867559055118106
11
5.8185472440944883
21
-4.0867559055118106
0
LINE
8
BLACK
6
CONTINUOUS
10
5.8185472440944883
20
-4.0867559055118106
11
5.8185472440944883
21
-4.0277007874015744
0
LINE
8
BLACK
6
CONTINUOUS
10
5.8185472440944883
20
-4.0277007874015744
11
5.8697283464566929
21
-4.0277007874015744
0
LINE
8
BLACK
6
CONTINUOUS
10
5.8697283464566929
20
-4.0277007874015744
11
5.8697283464566929
21
-4.0867559055118106
0
LINE
8
BLACK
6
CONTINUOUS
10
5.944531496062992
20
-4.0867559055118106
11
5.8933503937007874
21
-4.0867559055118106
0
LINE
8
BLACK
6
CONTINUOUS
10
5.8933503937007874
20
-4.0867559055118106
11
5.8933503937007874
21
-4.0277007874015744
0
LINE
8
BLACK
6
CONTINUOUS
10
5.8933503937007874
20
-4.0277007874015744
11
5.944531496062992
21
-4.0277007874015744
0
LINE
8
BLACK
6
CONTINUOUS
10
5.944531496062992
20
-4.0277007874015744
11
5.944531496062992
21
-4.0867559055118106
0
LINE
8
BLACK
6
CONTINUOUS
10
6.1923661417322835
20
-4.0822283464566924
11
6.1569330708661418
21
-4.0822283464566924
0
LINE
8
BLACK
6
CONTINUOUS
10
6.1569330708661418
20
-4.0822283464566924
11
6.1569330708661418
21
-4.0664803149606294
0
LINE
8
BLACK
6
CONTINUOUS
10
6.1569330708661418
20
-4.0664803149606294
11
6.1923661417322835
21
-4.0664803149606294
0
LINE
8
BLACK
6
CONTINUOUS
10
6.1923661417322835
20
-4.0664803149606294
11
6.1923661417322835
21
-4.0822283464566924
0
LINE
8
BLACK
6
CONTINUOUS
10
5.7285866141732278
20
-4.0796692913385826
11
5.6695314960629917
21
-4.0796692913385826
0
LINE
8
BLACK
6
CONTINUOUS
10
5.6695314960629917
20
-4.0796692913385826
11
5.6695314960629917
21
-4.0284881889763779
0
LINE
8
BLACK
6
CONTINUOUS
10
5.6695314960629917
20
-4.0284881889763779
11
5.7285866141732278
21
-4.0284881889763779
0
LINE
8
BLACK
6
CONTINUOUS
10
5.7285866141732278
20
-4.0284881889763779
11
5.7285866141732278
21
-4.0796692913385826
0
LINE
8
BLACK
6
CONTINUOUS
10
5.6516181102362202
20
-4.0780944881889765
11
5.5925629921259841
21
-4.0780944881889765
0
LINE
8
BLACK
6
CONTINUOUS
10
5.5925629921259841
20
-4.0780944881889765
11
5.5925629921259841
21
-4.0269133858267718
0
LINE
8
BLACK
6
CONTINUOUS
10
5.5925629921259841
20
-4.0269133858267718
11
5.6516181102362202
21
-4.0269133858267718
0
LINE
8
BLACK
6
CONTINUOUS
10
5.6516181102362202
20
-4.0269133858267718
11
5.6516181102362202
21
-4.0780944881889765
0
LINE
8
BLACK
6
CONTINUOUS
10
6.1923661417322835
20
-4.0566377952755905
11
6.1569330708661418
21
-4.0566377952755905
0
LINE
8
BLACK
6
CONTINUOUS
10
6.1569330708661418
20
-4.0566377952755905
11
6.1569330708661418
21
-4.0408897637795276
0
LINE
8
BLACK
6
CONTINUOUS
10
6.1569330708661418
20
-4.0408897637795276
11
6.1923661417322835
21
-4.0408897637795276
0
LINE
8
BLACK
6
CONTINUOUS
10
6.1923661417322835
20
-4.0408897637795276
11
6.1923661417322835
21
-4.0566377952755905
0
LINE
8
BLACK
6
CONTINUOUS
10
6.2553582677165354
20
-4.0566377952755905
11
6.2199251968503937
21
-4.0566377952755905
0
LINE
8
BLACK
6
CONTINUOUS
10
6.2199251968503937
20
-4.0566377952755905
11
6.2199251968503937
21
-4.0408897637795276
0
LINE
8
BLACK
6
CONTINUOUS
10
6.2199251968503937
20
-4.0408897637795276
11
6.2553582677165354
21
-4.0408897637795276
0
LINE
8
BLACK
6
CONTINUOUS
10
6.2553582677165354
20
-4.0408897637795276
11
6.2553582677165354
21
-4.0566377952755905
0
LINE
8
BLACK
6
CONTINUOUS
10
6.0354763779527554
20
-4.0221889763779526
11
5.9764212598425193
21
-4.0221889763779526
0
LINE
8
BLACK
6
CONTINUOUS
10
5.9764212598425193
20
-4.0221889763779526
11
5.9764212598425193
21
-3.971007874015748
0
LINE
8
BLACK
6
CONTINUOUS
10
5.9764212598425193
20
-3.971007874015748
11
6.0354763779527554
21
-3.971007874015748
0
LINE
8
BLACK
6
CONTINUOUS
10
6.0354763779527554
20
-3.971007874015748
11
6.0354763779527554
21
-4.0221889763779526
0
LINE
8
BLACK
6
CONTINUOUS
10
6.1295708661417319
20
-4.0221889763779526
11
6.0705157480314957
21
-4.0221889763779526
0
LINE
8
BLACK
6
CONTINUOUS
10
6.0705157480314957
20
-4.0221889763779526
11
6.0705157480314957
21
-3.971007874015748
0
LINE
8
BLACK
6
CONTINUOUS
10
6.0705157480314957
20
-3.971007874015748
11
6.1295708661417319
21
-3.971007874015748
0
LINE
8
BLACK
6
CONTINUOUS
10
6.1295708661417319
20
-3.971007874015748
11
6.1295708661417319
21
-4.0221889763779526
0
LINE
8
BLACK
6
CONTINUOUS
10
5.6059488188976374
20
-4.0182519685039368
11
5.5468937007874013
21
-4.0182519685039368
0
LINE
8
BLACK
6
CONTINUOUS
10
5.5468937007874013
20
-4.0182519685039368
11
5.5468937007874013
21
-3.9670708661417322
0
LINE
8
BLACK
6
CONTINUOUS
10
5.5468937007874013
20
-3.9670708661417322
11
5.6059488188976374
21
-3.9670708661417322
0
LINE
8
BLACK
6
CONTINUOUS
10
5.6059488188976374
20
-3.9670708661417322
11
5.6059488188976374
21
-4.0182519685039368
0
LINE
8
BLACK
6
CONTINUOUS
10
5.7409881889763774
20
-3.9696299212598425
11
5.6543740157480311
21
-3.9696299212598425
0
LINE
8
BLACK
6
CONTINUOUS
10
5.6543740157480311
20
-3.9696299212598425
11
5.6543740157480311
21
-3.946007874015748
0
LINE
8
BLACK
6
CONTINUOUS
10
5.6543740157480311
20
-3.946007874015748
11
5.7409881889763774
21
-3.946007874015748
0
LINE
8
BLACK
6
CONTINUOUS
10
5.7409881889763774
20
-3.946007874015748
11
5.7409881889763774
21
-3.9696299212598425
0
LINE
8
BLACK
6
CONTINUOUS
10
5.9457125984251968
20
-3.9696299212598425
11
5.8590984251968505
21
-3.9696299212598425
0
LINE
8
BLACK
6
CONTINUOUS
10
5.8590984251968505
20
-3.9696299212598425
11
5.8590984251968505
21
-3.946007874015748
0
LINE
8
BLACK
6
CONTINUOUS
10
5.8590984251968505
20
-3.946007874015748
11
5.9457125984251968
21
-3.946007874015748
0
LINE
8
BLACK
6
CONTINUOUS
10
5.9457125984251968
20
-3.946007874015748
11
5.9457125984251968
21
-3.9696299212598425
0
LINE
8
BLACK
6
CONTINUOUS
10
6.0354763779527554
20
-3.9473858267716535
11
5.9764212598425193
21
-3.9473858267716535
0
LINE
8
BLACK
6
CONTINUOUS
10
5.9764212598425193
20
-3.9473858267716535
11
5.9764212598425193
21
-3.8962047244094489
0
LINE
8
BLACK
6
CONTINUOUS
10
5.9764212598425193
20
-3.8962047244094489
11
6.0354763779527554
21
-3.8962047244094489
0
LINE
8
BLACK
6
CONTINUOUS
10
6.0354763779527554
20
-3.8962047244094489
11
6.0354763779527554
21
-3.9473858267716535
0
LINE
8
BLACK
6
CONTINUOUS
10
6.1295708661417319
20
-3.9473858267716535
11
6.0705157480314957
21
-3.9473858267716535
0
LINE
8
BLACK
6
CONTINUOUS
10
6.0705157480314957
20
-3.9473858267716535
11
6.0705157480314957
21
-3.8962047244094489
0
LINE
8
BLACK
6
CONTINUOUS
10
6.0705157480314957
20
-3.8962047244094489
11
6.1295708661417319
21
-3.8962047244094489
0
LINE
8
BLACK
6
CONTINUOUS
10
6.1295708661417319
20
-3.8962047244094489
11
6.1295708661417319
21
-3.9473858267716535
0
LINE
8
BLACK
6
CONTINUOUS
10
5.6059488188976374
20
-3.9434488188976378
11
5.5468937007874013
21
-3.9434488188976378
0
LINE
8
BLACK
6
CONTINUOUS
10
5.5468937007874013
20
-3.9434488188976378
11
5.5468937007874013
21
-3.8922677165354331
0
LINE
8
BLACK
6
CONTINUOUS
10
5.5468937007874013
20
-3.8922677165354331
11
5.6059488188976374
21
-3.8922677165354331
0
LINE
8
BLACK
6
CONTINUOUS
10
5.6059488188976374
20
-3.8922677165354331
11
5.6059488188976374
21
-3.9434488188976378
0
LINE
8
BLACK
6
CONTINUOUS
10
5.5002401574803148
20
-3.9416771653543305
11
5.4002401574803152
21
-3.9416771653543305
0
LINE
8
BLACK
6
CONTINUOUS
10
5.4002401574803152
20
-3.9416771653543305
11
5.4002401574803152
21
-3.8916771653543307
0
LINE
8
BLACK
6
CONTINUOUS
10
5.4002401574803152
20
-3.8916771653543307
11
5.5002401574803148
21
-3.8916771653543307
0
LINE
8
BLACK
6
CONTINUOUS
10
5.5002401574803148
20
-3.8916771653543307
11
5.5002401574803148
21
-3.9416771653543305
0
LINE
8
BLACK
6
CONTINUOUS
10
5.7409881889763774
20
-3.9196299212598422
11
5.6543740157480311
21
-3.9196299212598422
0
LINE
8
BLACK
6
CONTINUOUS
10
5.6543740157480311
20
-3.9196299212598422
11
5.6543740157480311
21
-3.8960078740157478
0
LINE
8
BLACK
6
CONTINUOUS
10
5.6543740157480311
20
-3.8960078740157478
11
5.7409881889763774
21
-3.8960078740157478
0
LINE
8
BLACK
6
CONTINUOUS
10
5.7409881889763774
20
-3.8960078740157478
11
5.7409881889763774
21
-3.9196299212598422
0
LINE
8
BLACK
6
CONTINUOUS
10
5.9457125984251968
20
-3.9196299212598422
11
5.8590984251968505
21
-3.9196299212598422
0
LINE
8
BLACK
6
CONTINUOUS
10
5.8590984251968505
20
-3.9196299212598422
11
5.8590984251968505
21
-3.8960078740157478
0
LINE
8
BLACK
6
CONTINUOUS
10
5.8590984251968505
20
-3.8960078740157478
11
5.9457125984251968
21
-3.8960078740157478
0
LINE
8
BLACK
6
CONTINUOUS
10
5.9457125984251968
20
-3.8960078740157478
11
5.9457125984251968
21
-3.9196299212598422
0
LINE
8
BLACK
6
CONTINUOUS
10
6.0358700787401576
20
-3.8796692913385824
11
5.9768149606299215
21
-3.8796692913385824
0
LINE
8
BLACK
6
CONTINUOUS
10
5.9768149606299215
20
-3.8796692913385824
11
5.9768149606299215
21
-3.8284881889763778
0
LINE
8
BLACK
6
CONTINUOUS
10
5.9768149606299215
20
-3.8284881889763778
11
6.0358700787401576
21
-3.8284881889763778
0
LINE
8
BLACK
6
CONTINUOUS
10
6.0358700787401576
20
-3.8284881889763778
11
6.0358700787401576
21
-3.8796692913385824
0
LINE
8
BLACK
6
CONTINUOUS
10
6.1287834645669292
20
-3.8796692913385824
11
6.0697283464566931
21
-3.8796692913385824
0
LINE
8
BLACK
6
CONTINUOUS
10
6.0697283464566931
20
-3.8796692913385824
11
6.0697283464566931
21
-3.8284881889763778
0
LINE
8
BLACK
6
CONTINUOUS
10
6.0697283464566931
20
-3.8284881889763778
11
6.1287834645669292
21
-3.8284881889763778
0
LINE
8
BLACK
6
CONTINUOUS
10
6.1287834645669292
20
-3.8284881889763778
11
6.1287834645669292
21
-3.8796692913385824
0
LINE
8
BLACK
6
CONTINUOUS
10
5.6197283464566929
20
-3.8795708661417323
11
5.5197283464566924
21
-3.8795708661417323
0
LINE
8
BLACK
6
CONTINUOUS
10
5.5197283464566924
20
-3.8795708661417323
11
5.5197283464566924
21
-3.829570866141732
0
LINE
8
BLACK
6
CONTINUOUS
10
5.5197283464566924
20
-3.829570866141732
11
5.6197283464566929
21
-3.829570866141732
0
LINE
8
BLACK
6
CONTINUOUS
10
5.6197283464566929
20
-3.829570866141732
11
5.6197283464566929
21
-3.8795708661417323
0
LINE
8
BLACK
6
CONTINUOUS
10
5.7409881889763774
20
-3.8696299212598424
11
5.6543740157480311
21
-3.8696299212598424
0
LINE
8
BLACK
6
CONTINUOUS
10
5.6543740157480311
20
-3.8696299212598424
11
5.6543740157480311
21
-3.846007874015748
0
LINE
8
BLACK
6
CONTINUOUS
10
5.6543740157480311
20
-3.846007874015748
11
5.7409881889763774
21
-3.846007874015748
0
LINE
8
BLACK
6
CONTINUOUS
10
5.7409881889763774
20
-3.846007874015748
11
5.7409881889763774
21
-3.8696299212598424
0
LINE
8
BLACK
6
CONTINUOUS
10
5.9457125984251968
20
-3.8696299212598424
11
5.8590984251968505
21
-3.8696299212598424
0
LINE
8
BLACK
6
CONTINUOUS
10
5.8590984251968505
20
-3.8696299212598424
11
5.8590984251968505
21
-3.846007874015748
0
LINE
8
BLACK
6
CONTINUOUS
10
5.8590984251968505
20
-3.846007874015748
11
5.9457125984251968
21
-3.846007874015748
0
LINE
8
BLACK
6
CONTINUOUS
10
5.9457125984251968
20
-3.846007874015748
11
5.9457125984251968
21
-3.8696299212598424
0
LINE
8
BLACK
6
CONTINUOUS
10
5.7409881889763774
20
-3.8196299212598426
11
5.6543740157480311
21
-3.8196299212598426
0
LINE
8
BLACK
6
CONTINUOUS
10
5.6543740157480311
20
-3.8196299212598426
11
5.6543740157480311
21
-3.7960078740157481
0
LINE
8
BLACK
6
CONTINUOUS
10
5.6543740157480311
20
-3.7960078740157481
11
5.7409881889763774
21
-3.7960078740157481
0
LINE
8
BLACK
6
CONTINUOUS
10
5.7409881889763774
20
-3.7960078740157481
11
5.7409881889763774
21
-3.8196299212598426
0
LINE
8
BLACK
6
CONTINUOUS
10
5.9457125984251968
20
-3.8196299212598426
11
5.8590984251968505
21
-3.8196299212598426
0
LINE
8
BLACK
6
CONTINUOUS
10
5.8590984251968505
20
-3.8196299212598426
11
5.8590984251968505
21
-3.7960078740157481
0
LINE
8
BLACK
6
CONTINUOUS
10
5.8590984251968505
20
-3.7960078740157481
11
5.9457125984251968
21
-3.7960078740157481
0
LINE
8
BLACK
6
CONTINUOUS
10
5.9457125984251968
20
-3.7960078740157481
11
5.9457125984251968
21
-3.8196299212598426
0
LINE
8
BLACK
6
CONTINUOUS
10
6.0358700787401576
20
-3.8048661417322833
11
5.9768149606299215
21
-3.8048661417322833
0
LINE
8
BLACK
6
CONTINUOUS
10
5.9768149606299215
20
-3.8048661417322833
11
5.9768149606299215
21
-3.7536850393700787
0
LINE
8
BLACK
6
CONTINUOUS
10
5.9768149606299215
20
-3.7536850393700787
11
6.0358700787401576
21
-3.7536850393700787
0
LINE
8
BLACK
6
CONTINUOUS
10
6.0358700787401576
20
-3.7536850393700787
11
6.0358700787401576
21
-3.8048661417322833
0
LINE
8
BLACK
6
CONTINUOUS
10
6.1287834645669292
20
-3.8048661417322833
11
6.0697283464566931
21
-3.8048661417322833
0
LINE
8
BLACK
6
CONTINUOUS
10
6.0697283464566931
20
-3.8048661417322833
11
6.0697283464566931
21
-3.7536850393700787
0
LINE
8
BLACK
6
CONTINUOUS
10
6.0697283464566931
20
-3.7536850393700787
11
6.1287834645669292
21
-3.7536850393700787
0
LINE
8
BLACK
6
CONTINUOUS
10
6.1287834645669292
20
-3.7536850393700787
11
6.1287834645669292
21
-3.8048661417322833
0
LINE
8
BLACK
6
CONTINUOUS
10
5.6197283464566929
20
-3.7170708661417322
11
5.5197283464566924
21
-3.7170708661417322
0
LINE
8
BLACK
6
CONTINUOUS
10
5.5197283464566924
20
-3.7170708661417322
11
5.5197283464566924
21
-3.6670708661417324
0
LINE
8
BLACK
6
CONTINUOUS
10
5.5197283464566924
20
-3.6670708661417324
11
5.6197283464566929
21
-3.6670708661417324
0
LINE
8
BLACK
6
CONTINUOUS
10
5.6197283464566929
20
-3.6670708661417324
11
5.6197283464566929
21
-3.7170708661417322
  0
ENDSEC
  0
EOF
