  0
SECTION
  2
HEADER
  9
$ANGBASE
  50
0.0
  9
$ANGDIR
  70
1
  9
$MEASUREMENT
  70
0
  0
ENDSEC
  0
SECTION
  2
TABLES
  0
TABLE
  2
LTYPE
  70
4
  0
LTYPE
  5
40F
  2
CONTINUOUS
  70
0
  3
Solid line
  72
65
  73
0
  40
0.0
  0
LTYPE
  5
410
  2
DASHDOT
 70
0
  3
Dash Dot ____ _ ____ _
 72
65
 73
4
 40
2.0
 49
1.25
 49
-0.25
 49
0.25
 49
-0.25
  0
LTYPE
  5
411
  2
DASHED
 70
0
  3
Dashed __ __ __ __ __
 72
65
 73
2
 40
0.75
 49
0.5
 49
-0.25
  0
LTYPE
  5
43B
  2
DOTTED
 70
0
  3
Dotted .  .  .  .
 72
65
 73
2
 40
0.2
 49
0.0
 49
-0.2
  0
ENDTAB
  0
TABLE
  2
STYLE
  70
4
  0
STYLE
  2
KICAD
  70
0
  40
0
  41
1
  42
1
  50
0
  71
0
  3
isocp.shx
  0
STYLE
  2
KICADB
  70
0
  40
0
  41
1
  42
1
  50
0
  71
0
  3
isocp.shx
  0
STYLE
  2
KICADI
  70
0
  40
0
  41
1
  42
1
  50
15
  71
0
  3
isocp.shx
  0
STYLE
  2
KICADBI
  70
0
  40
0
  41
1
  42
1
  50
15
  71
0
  3
isocp.shx
  0
ENDTAB
  0
TABLE
  2
LAYER
  70
1
  0
LAYER
  2
BLACK
  70
0
  62
7
  6
CONTINUOUS
  0
ENDTAB
  0
ENDSEC
  0
SECTION
  2
ENTITIES
0
LINE
8
BLACK
6
CONTINUOUS
10
5.6002007874015742
20
-4.5940000000000003
11
5.5802007874015747
21
-4.5940000000000003
0
LINE
8
BLACK
6
CONTINUOUS
10
5.5802007874015747
20
-4.5940000000000003
11
5.5802007874015747
21
-4.5739999999999998
0
LINE
8
BLACK
6
CONTINUOUS
10
5.5802007874015747
20
-4.5739999999999998
11
5.6002007874015742
21
-4.5739999999999998
0
LINE
8
BLACK
6
CONTINUOUS
10
5.6002007874015742
20
-4.5739999999999998
11
5.6002007874015742
21
-4.5940000000000003
0
LINE
8
BLACK
6
CONTINUOUS
10
5.7002007874015748
20
-4.5940000000000003
11
5.6802007874015743
21
-4.5940000000000003
0
LINE
8
BLACK
6
CONTINUOUS
10
5.6802007874015743
20
-4.5940000000000003
11
5.6802007874015743
21
-4.5739999999999998
0
LINE
8
BLACK
6
CONTINUOUS
10
5.6802007874015743
20
-4.5739999999999998
11
5.7002007874015748
21
-4.5739999999999998
0
LINE
8
BLACK
6
CONTINUOUS
10
5.7002007874015748
20
-4.5739999999999998
11
5.7002007874015748
21
-4.5940000000000003
0
LINE
8
BLACK
6
CONTINUOUS
10
5.6002007874015742
20
-4.4939999999999998
11
5.5802007874015747
21
-4.4939999999999998
0
LINE
8
BLACK
6
CONTINUOUS
10
5.5802007874015747
20
-4.4939999999999998
11
5.5802007874015747
21
-4.4740000000000002
0
LINE
8
BLACK
6
CONTINUOUS
10
5.5802007874015747
20
-4.4740000000000002
11
5.6002007874015742
21
-4.4740000000000002
0
LINE
8
BLACK
6
CONTINUOUS
10
5.6002007874015742
20
-4.4740000000000002
11
5.6002007874015742
21
-4.4939999999999998
0
LINE
8
BLACK
6
CONTINUOUS
10
5.7002007874015748
20
-4.4939999999999998
11
5.6802007874015743
21
-4.4939999999999998
0
LINE
8
BLACK
6
CONTINUOUS
10
5.6802007874015743
20
-4.4939999999999998
11
5.6802007874015743
21
-4.4740000000000002
0
LINE
8
BLACK
6
CONTINUOUS
10
5.6802007874015743
20
-4.4740000000000002
11
5.7002007874015748
21
-4.4740000000000002
0
LINE
8
BLACK
6
CONTINUOUS
10
5.7002007874015748
20
-4.4740000000000002
11
5.7002007874015748
21
-4.4939999999999998
0
LINE
8
BLACK
6
CONTINUOUS
10
5.9313031496062987
20
-4.4939999999999998
11
5.9113031496062991
21
-4.4939999999999998
0
LINE
8
BLACK
6
CONTINUOUS
10
5.9113031496062991
20
-4.4939999999999998
11
5.9113031496062991
21
-4.4740000000000002
0
LINE
8
BLACK
6
CONTINUOUS
10
5.9113031496062991
20
-4.4740000000000002
11
5.9313031496062987
21
-4.4740000000000002
0
LINE
8
BLACK
6
CONTINUOUS
10
5.9313031496062987
20
-4.4740000000000002
11
5.9313031496062987
21
-4.4939999999999998
0
LINE
8
BLACK
6
CONTINUOUS
10
5.4015306299212593
20
-4.368871968503937
11
5.4020250393700788
21
-4.3688937007874014
0
LINE
8
BLACK
6
CONTINUOUS
10
5.4020250393700788
20
-4.3688937007874014
11
5.4022951181102359
21
-4.3691886220472442
0
LINE
8
BLACK
6
CONTINUOUS
10
5.4022951181102359
20
-4.3691886220472442
11
5.4026645275590548
21
-4.3693416535433069
0
LINE
8
BLACK
6
CONTINUOUS
10
5.4026645275590548
20
-4.3693416535433069
11
5.4028538582677168
21
-4.3697987401574805
0
LINE
8
BLACK
6
CONTINUOUS
10
5.4028538582677168
20
-4.3697987401574805
11
5.4031880708661415
21
-4.3701637007874012
0
LINE
8
BLACK
6
CONTINUOUS
10
5.4031880708661415
20
-4.3701637007874012
11
5.4031705118110231
21
-4.3705631889763774
0
LINE
8
BLACK
6
CONTINUOUS
10
5.4031705118110231
20
-4.3705631889763774
11
5.4033235433070868
21
-4.3709326377952751
0
LINE
8
BLACK
6
CONTINUOUS
10
5.4033235433070868
20
-4.3709326377952751
11
5.4033235433070868
21
-4.4164326377952756
0
LINE
8
BLACK
6
CONTINUOUS
10
5.4033235433070868
20
-4.4164326377952756
11
5.4026645275590548
21
-4.4180236220472437
0
LINE
8
BLACK
6
CONTINUOUS
10
5.4026645275590548
20
-4.4180236220472437
11
5.4010735433070867
21
-4.4186826377952757
0
LINE
8
BLACK
6
CONTINUOUS
10
5.4010735433070867
20
-4.4186826377952757
11
5.3994825590551176
21
-4.4180236220472437
0
LINE
8
BLACK
6
CONTINUOUS
10
5.3994825590551176
20
-4.4180236220472437
11
5.3988235433070866
21
-4.4164326377952756
0
LINE
8
BLACK
6
CONTINUOUS
10
5.3988235433070866
20
-4.4164326377952756
11
5.3988235433070866
21
-4.38107468503937
0
LINE
8
BLACK
6
CONTINUOUS
10
5.3988235433070866
20
-4.38107468503937
11
5.3879457874015744
21
-4.4043841338582679
0
LINE
8
BLACK
6
CONTINUOUS
10
5.3879457874015744
20
-4.4043841338582679
11
5.3873780708661414
21
-4.4049040157480315
0
LINE
8
BLACK
6
CONTINUOUS
10
5.3873780708661414
20
-4.4049040157480315
11
5.3868583858267716
21
-4.4054715354330707
0
LINE
8
BLACK
6
CONTINUOUS
10
5.3868583858267716
20
-4.4054715354330707
11
5.3867533464566923
21
-4.405476141732283
0
LINE
8
BLACK
6
CONTINUOUS
10
5.3867533464566923
20
-4.405476141732283
11
5.3866758267716532
21
-4.4055471653543306
0
LINE
8
BLACK
6
CONTINUOUS
10
5.3866758267716532
20
-4.4055471653543306
11
5.3859068897637794
21
-4.4055133464566927
0
LINE
8
BLACK
6
CONTINUOUS
10
5.3859068897637794
20
-4.4055133464566927
11
5.3851379527559056
21
-4.4055471653543306
0
LINE
8
BLACK
6
CONTINUOUS
10
5.3851379527559056
20
-4.4055471653543306
11
5.3850603937007877
21
-4.405476141732283
0
LINE
8
BLACK
6
CONTINUOUS
10
5.3850603937007877
20
-4.405476141732283
11
5.3849553937007872
21
-4.4054715354330707
0
LINE
8
BLACK
6
CONTINUOUS
10
5.3849553937007872
20
-4.4054715354330707
11
5.3844355511811024
21
-4.404903937007874
0
LINE
8
BLACK
6
CONTINUOUS
10
5.3844355511811024
20
-4.404903937007874
11
5.3838679921259844
21
-4.4043841338582679
0
LINE
8
BLACK
6
CONTINUOUS
10
5.3838679921259844
20
-4.4043841338582679
11
5.3729901968503935
21
-4.3810746062992125
0
LINE
8
BLACK
6
CONTINUOUS
10
5.3729901968503935
20
-4.3810746062992125
11
5.3729901968503935
21
-4.4164326377952756
0
LINE
8
BLACK
6
CONTINUOUS
10
5.3729901968503935
20
-4.4164326377952756
11
5.3723311811023624
21
-4.4180236220472437
0
LINE
8
BLACK
6
CONTINUOUS
10
5.3723311811023624
20
-4.4180236220472437
11
5.3707401968503934
21
-4.4186826377952757
0
LINE
8
BLACK
6
CONTINUOUS
10
5.3707401968503934
20
-4.4186826377952757
11
5.3691492125984253
21
-4.4180236220472437
0
LINE
8
BLACK
6
CONTINUOUS
10
5.3691492125984253
20
-4.4180236220472437
11
5.3684901968503933
21
-4.4164326377952756
0
LINE
8
BLACK
6
CONTINUOUS
10
5.3684901968503933
20
-4.4164326377952756
11
5.3684901968503933
21
-4.3709326377952751
0
LINE
8
BLACK
6
CONTINUOUS
10
5.3684901968503933
20
-4.3709326377952751
11
5.3686432283464569
21
-4.3705631496062995
0
LINE
8
BLACK
6
CONTINUOUS
10
5.3686432283464569
20
-4.3705631496062995
11
5.3686256692913386
21
-4.3701637007874012
0
LINE
8
BLACK
6
CONTINUOUS
10
5.3686256692913386
20
-4.3701637007874012
11
5.3689598425196845
21
-4.3697987795275592
0
LINE
8
BLACK
6
CONTINUOUS
10
5.3689598425196845
20
-4.3697987795275592
11
5.3691492125984253
21
-4.3693416535433069
0
LINE
8
BLACK
6
CONTINUOUS
10
5.3691492125984253
20
-4.3693416535433069
11
5.3695186220472442
21
-4.3691886220472442
0
LINE
8
BLACK
6
CONTINUOUS
10
5.3695186220472442
20
-4.3691886220472442
11
5.3697887007874012
21
-4.3688937401574801
0
LINE
8
BLACK
6
CONTINUOUS
10
5.3697887007874012
20
-4.3688937401574801
11
5.3702829921259845
21
-4.3688720078740158
0
LINE
8
BLACK
6
CONTINUOUS
10
5.3702829921259845
20
-4.3688720078740158
11
5.3707401968503934
21
-4.3686826377952759
0
LINE
8
BLACK
6
CONTINUOUS
10
5.3707401968503934
20
-4.3686826377952759
11
5.3711096456692911
21
-4.3688356692913386
0
LINE
8
BLACK
6
CONTINUOUS
10
5.3711096456692911
20
-4.3688356692913386
11
5.3715091338582672
21
-4.3688181102362202
0
LINE
8
BLACK
6
CONTINUOUS
10
5.3715091338582672
20
-4.3688181102362202
11
5.3718740157480314
21
-4.3691522834645671
0
LINE
8
BLACK
6
CONTINUOUS
10
5.3718740157480314
20
-4.3691522834645671
11
5.3723311811023624
21
-4.3693416535433069
0
LINE
8
BLACK
6
CONTINUOUS
10
5.3723311811023624
20
-4.3693416535433069
11
5.3724841732283464
21
-4.3697110629921259
0
LINE
8
BLACK
6
CONTINUOUS
10
5.3724841732283464
20
-4.3697110629921259
11
5.3727790944881892
21
-4.3699811417322838
0
LINE
8
BLACK
6
CONTINUOUS
10
5.3727790944881892
20
-4.3699811417322838
11
5.3859068503937007
21
-4.3981120472440942
0
LINE
8
BLACK
6
CONTINUOUS
10
5.3859068503937007
20
-4.3981120472440942
11
5.3990346456692908
21
-4.3699811417322838
0
LINE
8
BLACK
6
CONTINUOUS
10
5.3990346456692908
20
-4.3699811417322838
11
5.3993295275590549
21
-4.3697110629921259
0
LINE
8
BLACK
6
CONTINUOUS
10
5.3993295275590549
20
-4.3697110629921259
11
5.3994825590551176
21
-4.3693416535433069
0
LINE
8
BLACK
6
CONTINUOUS
10
5.3994825590551176
20
-4.3693416535433069
11
5.3999397244094487
21
-4.3691522440944883
0
LINE
8
BLACK
6
CONTINUOUS
10
5.3999397244094487
20
-4.3691522440944883
11
5.4003046456692916
21
-4.3688181102362202
0
LINE
8
BLACK
6
CONTINUOUS
10
5.4003046456692916
20
-4.3688181102362202
11
5.400704094488189
21
-4.3688356299212598
0
LINE
8
BLACK
6
CONTINUOUS
10
5.400704094488189
20
-4.3688356299212598
11
5.4010735433070867
21
-4.3686826377952759
0
LINE
8
BLACK
6
CONTINUOUS
10
5.4010735433070867
20
-4.3686826377952759
11
5.4015306299212593
21
-4.368871968503937
0
LINE
8
BLACK
6
CONTINUOUS
10
5.4752239763779524
20
-4.3688830314960629
11
5.475746417322835
21
-4.3689201574803151
0
LINE
8
BLACK
6
CONTINUOUS
10
5.475746417322835
20
-4.3689201574803151
11
5.4800797637795275
21
-4.3710868110236216
0
LINE
8
BLACK
6
CONTINUOUS
10
5.4800797637795275
20
-4.3710868110236216
11
5.4803224015748029
21
-4.3713665748031492
0
LINE
8
BLACK
6
CONTINUOUS
10
5.4803224015748029
20
-4.3713665748031492
11
5.4806645669291338
21
-4.3715083070866143
0
LINE
8
BLACK
6
CONTINUOUS
10
5.4806645669291338
20
-4.3715083070866143
11
5.4828311811023625
21
-4.3736749999999995
0
LINE
8
BLACK
6
CONTINUOUS
10
5.4828311811023625
20
-4.3736749999999995
11
5.482972874015748
21
-4.374017086614173
0
LINE
8
BLACK
6
CONTINUOUS
10
5.482972874015748
20
-4.374017086614173
11
5.4832526377952755
21
-4.3742597244094483
0
LINE
8
BLACK
6
CONTINUOUS
10
5.4832526377952755
20
-4.3742597244094483
11
5.4854193307086616
21
-4.378593031496063
0
LINE
8
BLACK
6
CONTINUOUS
10
5.4854193307086616
20
-4.378593031496063
11
5.4854374409448816
21
-4.3788480708661419
0
LINE
8
BLACK
6
CONTINUOUS
10
5.4854374409448816
20
-4.3788480708661419
11
5.4855897244094489
21
-4.379053582677165
0
LINE
8
BLACK
6
CONTINUOUS
10
5.4855897244094489
20
-4.379053582677165
11
5.4877563779527554
21
-4.3877202755905511
0
LINE
8
BLACK
6
CONTINUOUS
10
5.4877563779527554
20
-4.3877202755905511
11
5.4877143700787396
21
-4.3880024409448817
0
LINE
8
BLACK
6
CONTINUOUS
10
5.4877143700787396
20
-4.3880024409448817
11
5.4878235433070861
21
-4.3882659842519685
0
LINE
8
BLACK
6
CONTINUOUS
10
5.4878235433070861
20
-4.3882659842519685
11
5.4878235433070861
21
-4.3990992913385822
0
LINE
8
BLACK
6
CONTINUOUS
10
5.4878235433070861
20
-4.3990992913385822
11
5.4877143700787396
21
-4.3993627952755903
0
LINE
8
BLACK
6
CONTINUOUS
10
5.4877143700787396
20
-4.3993627952755903
11
5.4877563779527554
21
-4.3996449999999996
0
LINE
8
BLACK
6
CONTINUOUS
10
5.4877563779527554
20
-4.3996449999999996
11
5.4855897244094489
21
-4.4083116929133856
0
LINE
8
BLACK
6
CONTINUOUS
10
5.4855897244094489
20
-4.4083116929133856
11
5.4854374409448816
21
-4.4085171653543309
0
LINE
8
BLACK
6
CONTINUOUS
10
5.4854374409448816
20
-4.4085171653543309
11
5.4854193307086616
21
-4.4087722440944876
0
LINE
8
BLACK
6
CONTINUOUS
10
5.4854193307086616
20
-4.4087722440944876
11
5.4832526377952755
21
-4.4131055511811024
0
LINE
8
BLACK
6
CONTINUOUS
10
5.4832526377952755
20
-4.4131055511811024
11
5.482972874015748
21
-4.413348149606299
0
LINE
8
BLACK
6
CONTINUOUS
10
5.482972874015748
20
-4.413348149606299
11
5.4828311811023625
21
-4.4136902755905512
0
LINE
8
BLACK
6
CONTINUOUS
10
5.4828311811023625
20
-4.4136902755905512
11
5.4806645669291338
21
-4.4158569685039373
0
LINE
8
BLACK
6
CONTINUOUS
10
5.4806645669291338
20
-4.4158569685039373
11
5.4803224015748029
21
-4.4159986614173228
0
LINE
8
BLACK
6
CONTINUOUS
10
5.4803224015748029
20
-4.4159986614173228
11
5.4800797637795275
21
-4.4162784645669291
0
LINE
8
BLACK
6
CONTINUOUS
10
5.4800797637795275
20
-4.4162784645669291
11
5.475746417322835
21
-4.4184451181102364
0
LINE
8
BLACK
6
CONTINUOUS
10
5.475746417322835
20
-4.4184451181102364
11
5.4752239763779524
21
-4.418482204724409
0
LINE
8
BLACK
6
CONTINUOUS
10
5.4752239763779524
20
-4.418482204724409
11
5.4747401968503935
21
-4.4186826377952757
0
LINE
8
BLACK
6
CONTINUOUS
10
5.4747401968503935
20
-4.4186826377952757
11
5.4704068897637796
21
-4.4186826377952757
0
LINE
8
BLACK
6
CONTINUOUS
10
5.4704068897637796
20
-4.4186826377952757
11
5.4699229921259844
21
-4.4184821653543302
0
LINE
8
BLACK
6
CONTINUOUS
10
5.4699229921259844
20
-4.4184821653543302
11
5.4694006692913382
21
-4.4184450787401577
0
LINE
8
BLACK
6
CONTINUOUS
10
5.4694006692913382
20
-4.4184450787401577
11
5.4650673228346456
21
-4.4162784645669291
0
LINE
8
BLACK
6
CONTINUOUS
10
5.4650673228346456
20
-4.4162784645669291
11
5.4648246456692915
21
-4.4159986614173228
0
LINE
8
BLACK
6
CONTINUOUS
10
5.4648246456692915
20
-4.4159986614173228
11
5.4644825196850393
21
-4.4158569685039373
0
LINE
8
BLACK
6
CONTINUOUS
10
5.4644825196850393
20
-4.4158569685039373
11
5.4623158661417319
21
-4.4136902755905512
0
LINE
8
BLACK
6
CONTINUOUS
10
5.4623158661417319
20
-4.4136902755905512
11
5.4621741338582677
21
-4.4133481102362202
0
LINE
8
BLACK
6
CONTINUOUS
10
5.4621741338582677
20
-4.4133481102362202
11
5.4618944488188976
21
-4.4131055511811024
0
LINE
8
BLACK
6
CONTINUOUS
10
5.4618944488188976
20
-4.4131055511811024
11
5.4597277559055115
21
-4.4087722440944876
0
LINE
8
BLACK
6
CONTINUOUS
10
5.4597277559055115
20
-4.4087722440944876
11
5.4597096062992128
21
-4.4085171653543309
0
LINE
8
BLACK
6
CONTINUOUS
10
5.4597096062992128
20
-4.4085171653543309
11
5.4595573622047242
21
-4.4083116929133856
0
LINE
8
BLACK
6
CONTINUOUS
10
5.4595573622047242
20
-4.4083116929133856
11
5.4573907086614168
21
-4.3996449999999996
0
LINE
8
BLACK
6
CONTINUOUS
10
5.4573907086614168
20
-4.3996449999999996
11
5.4574326771653539
21
-4.3993627952755903
0
LINE
8
BLACK
6
CONTINUOUS
10
5.4574326771653539
20
-4.3993627952755903
11
5.4573235433070861
21
-4.3990992913385822
0
LINE
8
BLACK
6
CONTINUOUS
10
5.4573235433070861
20
-4.3990992913385822
11
5.4573235433070861
21
-4.3882659842519685
0
LINE
8
BLACK
6
CONTINUOUS
10
5.4573235433070861
20
-4.3882659842519685
11
5.4574326771653539
21
-4.3880024409448817
0
LINE
8
BLACK
6
CONTINUOUS
10
5.4574326771653539
20
-4.3880024409448817
11
5.4573907086614168
21
-4.3877202755905511
0
LINE
8
BLACK
6
CONTINUOUS
10
5.4573907086614168
20
-4.3877202755905511
11
5.4595573622047242
21
-4.379053582677165
0
LINE
8
BLACK
6
CONTINUOUS
10
5.4595573622047242
20
-4.379053582677165
11
5.4597096062992128
21
-4.3788480708661419
0
LINE
8
BLACK
6
CONTINUOUS
10
5.4597096062992128
20
-4.3788480708661419
11
5.4597277559055115
21
-4.378593031496063
0
LINE
8
BLACK
6
CONTINUOUS
10
5.4597277559055115
20
-4.378593031496063
11
5.4618944488188976
21
-4.3742597244094483
0
LINE
8
BLACK
6
CONTINUOUS
10
5.4618944488188976
20
-4.3742597244094483
11
5.4621741338582677
21
-4.3740171259842517
0
LINE
8
BLACK
6
CONTINUOUS
10
5.4621741338582677
20
-4.3740171259842517
11
5.4623158661417319
21
-4.3736749999999995
0
LINE
8
BLACK
6
CONTINUOUS
10
5.4623158661417319
20
-4.3736749999999995
11
5.4644825196850393
21
-4.3715083070866143
0
LINE
8
BLACK
6
CONTINUOUS
10
5.4644825196850393
20
-4.3715083070866143
11
5.4648246456692915
21
-4.3713665748031492
0
LINE
8
BLACK
6
CONTINUOUS
10
5.4648246456692915
20
-4.3713665748031492
11
5.4650673228346456
21
-4.3710868110236216
0
LINE
8
BLACK
6
CONTINUOUS
10
5.4650673228346456
20
-4.3710868110236216
11
5.4694006692913382
21
-4.3689201968503939
0
LINE
8
BLACK
6
CONTINUOUS
10
5.4694006692913382
20
-4.3689201968503939
11
5.4699229921259844
21
-4.3688830708661417
0
LINE
8
BLACK
6
CONTINUOUS
10
5.4699229921259844
20
-4.3688830708661417
11
5.4704068897637796
21
-4.3686826377952759
0
LINE
8
BLACK
6
CONTINUOUS
10
5.4704068897637796
20
-4.3686826377952759
11
5.4747401968503935
21
-4.3686826377952759
0
LINE
8
BLACK
6
CONTINUOUS
10
5.4747401968503935
20
-4.3686826377952759
11
5.4752239763779524
21
-4.3688830314960629
0
LINE
8
BLACK
6
CONTINUOUS
10
5.4674062992125982
20
-4.3749484645669288
11
5.4657560236220473
21
-4.3765988188976381
0
LINE
8
BLACK
6
CONTINUOUS
10
5.4657560236220473
20
-4.3765988188976381
11
5.4638631102362201
21
-4.3803845275590554
0
LINE
8
BLACK
6
CONTINUOUS
10
5.4638631102362201
20
-4.3803845275590554
11
5.4618235433070863
21
-4.3885429921259842
0
LINE
8
BLACK
6
CONTINUOUS
10
5.4618235433070863
20
-4.3885429921259842
11
5.4618235433070863
21
-4.3988222440944877
0
LINE
8
BLACK
6
CONTINUOUS
10
5.4618235433070863
20
-4.3988222440944877
11
5.4638631102362201
21
-4.4069807086614174
0
LINE
8
BLACK
6
CONTINUOUS
10
5.4638631102362201
20
-4.4069807086614174
11
5.4657560236220473
21
-4.4107664173228347
0
LINE
8
BLACK
6
CONTINUOUS
10
5.4657560236220473
20
-4.4107664173228347
11
5.4674062992125982
21
-4.4124167716535432
0
LINE
8
BLACK
6
CONTINUOUS
10
5.4674062992125982
20
-4.4124167716535432
11
5.4709380708661417
21
-4.4141826377952755
0
LINE
8
BLACK
6
CONTINUOUS
10
5.4709380708661417
20
-4.4141826377952755
11
5.4742090157480314
21
-4.4141826377952755
0
LINE
8
BLACK
6
CONTINUOUS
10
5.4742090157480314
20
-4.4141826377952755
11
5.4777405905511811
21
-4.4124168503937007
0
LINE
8
BLACK
6
CONTINUOUS
10
5.4777405905511811
20
-4.4124168503937007
11
5.4793910629921259
21
-4.4107664173228347
0
LINE
8
BLACK
6
CONTINUOUS
10
5.4793910629921259
20
-4.4107664173228347
11
5.4812839370078743
21
-4.4069807086614174
0
LINE
8
BLACK
6
CONTINUOUS
10
5.4812839370078743
20
-4.4069807086614174
11
5.4833235433070868
21
-4.3988222440944877
0
LINE
8
BLACK
6
CONTINUOUS
10
5.4833235433070868
20
-4.3988222440944877
11
5.4833235433070868
21
-4.3885429921259842
0
LINE
8
BLACK
6
CONTINUOUS
10
5.4833235433070868
20
-4.3885429921259842
11
5.4812839370078743
21
-4.3803845275590554
0
LINE
8
BLACK
6
CONTINUOUS
10
5.4812839370078743
20
-4.3803845275590554
11
5.4793910629921259
21
-4.3765988188976381
0
LINE
8
BLACK
6
CONTINUOUS
10
5.4793910629921259
20
-4.3765988188976381
11
5.4777405905511811
21
-4.3749483858267713
0
LINE
8
BLACK
6
CONTINUOUS
10
5.4777405905511811
20
-4.3749483858267713
11
5.4742090157480314
21
-4.3731826377952752
0
LINE
8
BLACK
6
CONTINUOUS
10
5.4742090157480314
20
-4.3731826377952752
11
5.4709380708661417
21
-4.3731826377952752
0
LINE
8
BLACK
6
CONTINUOUS
10
5.4709380708661417
20
-4.3731826377952752
11
5.4674062992125982
21
-4.3749484645669288
0
LINE
8
BLACK
6
CONTINUOUS
10
5.5207240157480317
20
-4.3688830314960629
11
5.5212464566929134
21
-4.3689201574803151
0
LINE
8
BLACK
6
CONTINUOUS
10
5.5212464566929134
20
-4.3689201574803151
11
5.525579803149606
21
-4.3710868503937004
0
LINE
8
BLACK
6
CONTINUOUS
10
5.525579803149606
20
-4.3710868503937004
11
5.5258224015748034
21
-4.3713665748031492
0
LINE
8
BLACK
6
CONTINUOUS
10
5.5258224015748034
20
-4.3713665748031492
11
5.5261645275590547
21
-4.3715083070866143
0
LINE
8
BLACK
6
CONTINUOUS
10
5.5261645275590547
20
-4.3715083070866143
11
5.5283312204724409
21
-4.3736749999999995
0
LINE
8
BLACK
6
CONTINUOUS
10
5.5283312204724409
20
-4.3736749999999995
11
5.5284729133858264
21
-4.374017086614173
0
LINE
8
BLACK
6
CONTINUOUS
10
5.5284729133858264
20
-4.374017086614173
11
5.5287527165354327
21
-4.3742597637795271
0
LINE
8
BLACK
6
CONTINUOUS
10
5.5287527165354327
20
-4.3742597637795271
11
5.53091937007874
21
-4.3785930708661418
0
LINE
8
BLACK
6
CONTINUOUS
10
5.53091937007874
20
-4.3785930708661418
11
5.5309564566929135
21
-4.3791154724409447
0
LINE
8
BLACK
6
CONTINUOUS
10
5.5309564566929135
20
-4.3791154724409447
11
5.5311568897637793
21
-4.3795992913385824
0
LINE
8
BLACK
6
CONTINUOUS
10
5.5311568897637793
20
-4.3795992913385824
11
5.5311568897637793
21
-4.3839326377952759
0
LINE
8
BLACK
6
CONTINUOUS
10
5.5311568897637793
20
-4.3839326377952759
11
5.531015157480315
21
-4.3842747637795272
0
LINE
8
BLACK
6
CONTINUOUS
10
5.531015157480315
20
-4.3842747637795272
11
5.5310414173228342
21
-4.3846441338582673
0
LINE
8
BLACK
6
CONTINUOUS
10
5.5310414173228342
20
-4.3846441338582673
11
5.5288747637795277
21
-4.3911441338582673
0
LINE
8
BLACK
6
CONTINUOUS
10
5.5288747637795277
20
-4.3911441338582673
11
5.5285316141732279
21
-4.3915397244094487
0
LINE
8
BLACK
6
CONTINUOUS
10
5.5285316141732279
20
-4.3915397244094487
11
5.5283312204724409
21
-4.3920236220472439
0
LINE
8
BLACK
6
CONTINUOUS
10
5.5283312204724409
20
-4.3920236220472439
11
5.5061722047244093
21
-4.4141826377952755
0
LINE
8
BLACK
6
CONTINUOUS
10
5.5061722047244093
20
-4.4141826377952755
11
5.5289068897637792
21
-4.4141826377952755
0
LINE
8
BLACK
6
CONTINUOUS
10
5.5289068897637792
20
-4.4141826377952755
11
5.5304978740157482
21
-4.4148416535433066
0
LINE
8
BLACK
6
CONTINUOUS
10
5.5304978740157482
20
-4.4148416535433066
11
5.5311568897637793
21
-4.4164326377952756
0
LINE
8
BLACK
6
CONTINUOUS
10
5.5311568897637793
20
-4.4164326377952756
11
5.5304978740157482
21
-4.4180236220472437
0
LINE
8
BLACK
6
CONTINUOUS
10
5.5304978740157482
20
-4.4180236220472437
11
5.5289068897637792
21
-4.4186826377952757
0
LINE
8
BLACK
6
CONTINUOUS
10
5.5289068897637792
20
-4.4186826377952757
11
5.500740236220472
21
-4.4186826377952757
0
LINE
8
BLACK
6
CONTINUOUS
10
5.500740236220472
20
-4.4186826377952757
11
5.4991492519685039
21
-4.4180236220472437
0
LINE
8
BLACK
6
CONTINUOUS
10
5.4991492519685039
20
-4.4180236220472437
11
5.4984902362204719
21
-4.4164326377952756
0
LINE
8
BLACK
6
CONTINUOUS
10
5.4984902362204719
20
-4.4164326377952756
11
5.4991492519685039
21
-4.4148416535433066
0
LINE
8
BLACK
6
CONTINUOUS
10
5.4991492519685039
20
-4.4148416535433066
11
5.5247736614173224
21
-4.3892172047244093
0
LINE
8
BLACK
6
CONTINUOUS
10
5.5247736614173224
20
-4.3892172047244093
11
5.5266568897637791
21
-4.3835675196850392
0
LINE
8
BLACK
6
CONTINUOUS
10
5.5266568897637791
20
-4.3835675196850392
11
5.5266568897637791
21
-4.3801304330708657
0
LINE
8
BLACK
6
CONTINUOUS
10
5.5266568897637791
20
-4.3801304330708657
11
5.5248910236220468
21
-4.3765987401574806
0
LINE
8
BLACK
6
CONTINUOUS
10
5.5248910236220468
20
-4.3765987401574806
11
5.5232407874015745
21
-4.3749485039370075
0
LINE
8
BLACK
6
CONTINUOUS
10
5.5232407874015745
20
-4.3749485039370075
11
5.5197090551181098
21
-4.3731826377952752
0
LINE
8
BLACK
6
CONTINUOUS
10
5.5197090551181098
20
-4.3731826377952752
11
5.5099380708661414
21
-4.3731826377952752
0
LINE
8
BLACK
6
CONTINUOUS
10
5.5099380708661414
20
-4.3731826377952752
11
5.5064062992125979
21
-4.3749484645669288
0
LINE
8
BLACK
6
CONTINUOUS
10
5.5064062992125979
20
-4.3749484645669288
11
5.5044979133858263
21
-4.3768569685039367
0
LINE
8
BLACK
6
CONTINUOUS
10
5.5044979133858263
20
-4.3768569685039367
11
5.5029069291338581
21
-4.3775159842519686
0
LINE
8
BLACK
6
CONTINUOUS
10
5.5029069291338581
20
-4.3775159842519686
11
5.5013159055118113
21
-4.3768570078740154
0
LINE
8
BLACK
6
CONTINUOUS
10
5.5013159055118113
20
-4.3768570078740154
11
5.5006568897637793
21
-4.3752660236220473
0
LINE
8
BLACK
6
CONTINUOUS
10
5.5006568897637793
20
-4.3752660236220473
11
5.5013158661417325
21
-4.3736749999999995
0
LINE
8
BLACK
6
CONTINUOUS
10
5.5013158661417325
20
-4.3736749999999995
11
5.503482519685039
21
-4.3715083070866143
0
LINE
8
BLACK
6
CONTINUOUS
10
5.503482519685039
20
-4.3715083070866143
11
5.5038246456692912
21
-4.3713665748031492
0
LINE
8
BLACK
6
CONTINUOUS
10
5.5038246456692912
20
-4.3713665748031492
11
5.5040673228346453
21
-4.3710868110236216
0
LINE
8
BLACK
6
CONTINUOUS
10
5.5040673228346453
20
-4.3710868110236216
11
5.5084006692913388
21
-4.3689201968503939
0
LINE
8
BLACK
6
CONTINUOUS
10
5.5084006692913388
20
-4.3689201968503939
11
5.5089229921259841
21
-4.3688830708661417
0
LINE
8
BLACK
6
CONTINUOUS
10
5.5089229921259841
20
-4.3688830708661417
11
5.5094068897637793
21
-4.3686826377952759
0
LINE
8
BLACK
6
CONTINUOUS
10
5.5094068897637793
20
-4.3686826377952759
11
5.5202402362204719
21
-4.3686826377952759
0
LINE
8
BLACK
6
CONTINUOUS
10
5.5202402362204719
20
-4.3686826377952759
11
5.5207240157480317
21
-4.3688830314960629
0
LINE
8
BLACK
6
CONTINUOUS
10
5.6203907086614171
20
-4.3688830314960629
11
5.6209131496062987
21
-4.3689201574803151
0
LINE
8
BLACK
6
CONTINUOUS
10
5.6209131496062987
20
-4.3689201574803151
11
5.6252464960629922
21
-4.3710868503937004
0
LINE
8
BLACK
6
CONTINUOUS
10
5.6252464960629922
20
-4.3710868503937004
11
5.6254890944881888
21
-4.3713665748031492
0
LINE
8
BLACK
6
CONTINUOUS
10
5.6254890944881888
20
-4.3713665748031492
11
5.625831220472441
21
-4.3715083070866143
0
LINE
8
BLACK
6
CONTINUOUS
10
5.625831220472441
20
-4.3715083070866143
11
5.6279979133858262
21
-4.3736749999999995
0
LINE
8
BLACK
6
CONTINUOUS
10
5.6279979133858262
20
-4.3736749999999995
11
5.6281396062992126
21
-4.374017086614173
0
LINE
8
BLACK
6
CONTINUOUS
10
5.6281396062992126
20
-4.374017086614173
11
5.6284194094488189
21
-4.3742597637795271
0
LINE
8
BLACK
6
CONTINUOUS
10
5.6284194094488189
20
-4.3742597637795271
11
5.6305860629921263
21
-4.3785930708661418
0
LINE
8
BLACK
6
CONTINUOUS
10
5.6305860629921263
20
-4.3785930708661418
11
5.6306231496062988
21
-4.3791154724409447
0
LINE
8
BLACK
6
CONTINUOUS
10
5.6306231496062988
20
-4.3791154724409447
11
5.6308235826771655
21
-4.3795992913385824
0
LINE
8
BLACK
6
CONTINUOUS
10
5.6308235826771655
20
-4.3795992913385824
11
5.6308235826771655
21
-4.3839326377952759
0
LINE
8
BLACK
6
CONTINUOUS
10
5.6308235826771655
20
-4.3839326377952759
11
5.6306818503937004
21
-4.3842747637795272
0
LINE
8
BLACK
6
CONTINUOUS
10
5.6306818503937004
20
-4.3842747637795272
11
5.6307081102362204
21
-4.3846441338582673
0
LINE
8
BLACK
6
CONTINUOUS
10
5.6307081102362204
20
-4.3846441338582673
11
5.6285414566929131
21
-4.3911441338582673
0
LINE
8
BLACK
6
CONTINUOUS
10
5.6285414566929131
20
-4.3911441338582673
11
5.6281983070866142
21
-4.3915397244094487
0
LINE
8
BLACK
6
CONTINUOUS
10
5.6281983070866142
20
-4.3915397244094487
11
5.6279979133858262
21
-4.3920236220472439
0
LINE
8
BLACK
6
CONTINUOUS
10
5.6279979133858262
20
-4.3920236220472439
11
5.6058388976377955
21
-4.4141826377952755
0
LINE
8
BLACK
6
CONTINUOUS
10
5.6058388976377955
20
-4.4141826377952755
11
5.6285735826771655
21
-4.4141826377952755
0
LINE
8
BLACK
6
CONTINUOUS
10
5.6285735826771655
20
-4.4141826377952755
11
5.6301645669291336
21
-4.4148416535433066
0
LINE
8
BLACK
6
CONTINUOUS
10
5.6301645669291336
20
-4.4148416535433066
11
5.6308235826771655
21
-4.4164326377952756
0
LINE
8
BLACK
6
CONTINUOUS
10
5.6308235826771655
20
-4.4164326377952756
11
5.6301645669291336
21
-4.4180236220472437
0
LINE
8
BLACK
6
CONTINUOUS
10
5.6301645669291336
20
-4.4180236220472437
11
5.6285735826771655
21
-4.4186826377952757
0
LINE
8
BLACK
6
CONTINUOUS
10
5.6285735826771655
20
-4.4186826377952757
11
5.6004069291338583
21
-4.4186826377952757
0
LINE
8
BLACK
6
CONTINUOUS
10
5.6004069291338583
20
-4.4186826377952757
11
5.5988159448818893
21
-4.4180236220472437
0
LINE
8
BLACK
6
CONTINUOUS
10
5.5988159448818893
20
-4.4180236220472437
11
5.5981569291338582
21
-4.4164326377952756
0
LINE
8
BLACK
6
CONTINUOUS
10
5.5981569291338582
20
-4.4164326377952756
11
5.5988159448818893
21
-4.4148416535433066
0
LINE
8
BLACK
6
CONTINUOUS
10
5.5988159448818893
20
-4.4148416535433066
11
5.6244403543307087
21
-4.3892172047244093
0
LINE
8
BLACK
6
CONTINUOUS
10
5.6244403543307087
20
-4.3892172047244093
11
5.6263235826771654
21
-4.3835675196850392
0
LINE
8
BLACK
6
CONTINUOUS
10
5.6263235826771654
20
-4.3835675196850392
11
5.6263235826771654
21
-4.3801304330708657
0
LINE
8
BLACK
6
CONTINUOUS
10
5.6263235826771654
20
-4.3801304330708657
11
5.624557716535433
21
-4.3765987401574806
0
LINE
8
BLACK
6
CONTINUOUS
10
5.624557716535433
20
-4.3765987401574806
11
5.6229074803149608
21
-4.3749485039370075
0
LINE
8
BLACK
6
CONTINUOUS
10
5.6229074803149608
20
-4.3749485039370075
11
5.6193757480314961
21
-4.3731826377952752
0
LINE
8
BLACK
6
CONTINUOUS
10
5.6193757480314961
20
-4.3731826377952752
11
5.6096047637795277
21
-4.3731826377952752
0
LINE
8
BLACK
6
CONTINUOUS
10
5.6096047637795277
20
-4.3731826377952752
11
5.6060729921259842
21
-4.3749484645669288
0
LINE
8
BLACK
6
CONTINUOUS
10
5.6060729921259842
20
-4.3749484645669288
11
5.6041646062992125
21
-4.3768569685039367
0
LINE
8
BLACK
6
CONTINUOUS
10
5.6041646062992125
20
-4.3768569685039367
11
5.6025736220472444
21
-4.3775159842519686
0
LINE
8
BLACK
6
CONTINUOUS
10
5.6025736220472444
20
-4.3775159842519686
11
5.6009825984251966
21
-4.3768570078740154
0
LINE
8
BLACK
6
CONTINUOUS
10
5.6009825984251966
20
-4.3768570078740154
11
5.6003235826771656
21
-4.3752660236220473
0
LINE
8
BLACK
6
CONTINUOUS
10
5.6003235826771656
20
-4.3752660236220473
11
5.6009825590551179
21
-4.3736749999999995
0
LINE
8
BLACK
6
CONTINUOUS
10
5.6009825590551179
20
-4.3736749999999995
11
5.6031492125984252
21
-4.3715083070866143
0
LINE
8
BLACK
6
CONTINUOUS
10
5.6031492125984252
20
-4.3715083070866143
11
5.6034913385826775
21
-4.3713665748031492
0
LINE
8
BLACK
6
CONTINUOUS
10
5.6034913385826775
20
-4.3713665748031492
11
5.6037340157480315
21
-4.3710868110236216
0
LINE
8
BLACK
6
CONTINUOUS
10
5.6037340157480315
20
-4.3710868110236216
11
5.6080673622047241
21
-4.3689201968503939
0
LINE
8
BLACK
6
CONTINUOUS
10
5.6080673622047241
20
-4.3689201968503939
11
5.6085896850393704
21
-4.3688830708661417
0
LINE
8
BLACK
6
CONTINUOUS
10
5.6085896850393704
20
-4.3688830708661417
11
5.6090735826771656
21
-4.3686826377952759
0
LINE
8
BLACK
6
CONTINUOUS
10
5.6090735826771656
20
-4.3686826377952759
11
5.6199069291338581
21
-4.3686826377952759
0
LINE
8
BLACK
6
CONTINUOUS
10
5.6199069291338581
20
-4.3686826377952759
11
5.6203907086614171
21
-4.3688830314960629
0
LINE
8
BLACK
6
CONTINUOUS
10
5.4322453937007875
20
-4.3689082677165354
11
5.4324131102362205
21
-4.3689201968503939
0
LINE
8
BLACK
6
CONTINUOUS
10
5.4324131102362205
20
-4.3689201968503939
11
5.4328804330708662
21
-4.3694590551181101
0
LINE
8
BLACK
6
CONTINUOUS
10
5.4328804330708662
20
-4.3694590551181101
11
5.4334193307086611
21
-4.3699264173228345
0
LINE
8
BLACK
6
CONTINUOUS
10
5.4334193307086611
20
-4.3699264173228345
11
5.4334312204724409
21
-4.3700940944881888
0
LINE
8
BLACK
6
CONTINUOUS
10
5.4334312204724409
20
-4.3700940944881888
11
5.4335414173228349
21
-4.3702211417322836
0
LINE
8
BLACK
6
CONTINUOUS
10
5.4335414173228349
20
-4.3702211417322836
11
5.4487080708661413
21
-4.4157211417322833
0
LINE
8
BLACK
6
CONTINUOUS
10
5.4487080708661413
20
-4.4157211417322833
11
5.4485859842519684
21
-4.4174388582677162
0
LINE
8
BLACK
6
CONTINUOUS
10
5.4485859842519684
20
-4.4174388582677162
11
5.4472850787401574
21
-4.4185672047244093
0
LINE
8
BLACK
6
CONTINUOUS
10
5.4472850787401574
20
-4.4185672047244093
11
5.4455673228346457
21
-4.4184451181102364
0
LINE
8
BLACK
6
CONTINUOUS
10
5.4455673228346457
20
-4.4184451181102364
11
5.4444390157480314
21
-4.4171441732283467
0
LINE
8
BLACK
6
CONTINUOUS
10
5.4444390157480314
20
-4.4171441732283467
11
5.4406185039370074
21
-4.4056826377952758
0
LINE
8
BLACK
6
CONTINUOUS
10
5.4406185039370074
20
-4.4056826377952758
11
5.4221952362204719
21
-4.4056826377952758
0
LINE
8
BLACK
6
CONTINUOUS
10
5.4221952362204719
20
-4.4056826377952758
11
5.4183747244094489
21
-4.417144133858268
0
LINE
8
BLACK
6
CONTINUOUS
10
5.4183747244094489
20
-4.417144133858268
11
5.4172464173228345
21
-4.4184450787401577
0
LINE
8
BLACK
6
CONTINUOUS
10
5.4172464173228345
20
-4.4184450787401577
11
5.4155287007874016
21
-4.4185671653543306
0
LINE
8
BLACK
6
CONTINUOUS
10
5.4155287007874016
20
-4.4185671653543306
11
5.4142277559055119
21
-4.4174388582677162
0
LINE
8
BLACK
6
CONTINUOUS
10
5.4142277559055119
20
-4.4174388582677162
11
5.4141056692913381
21
-4.4157211417322833
0
LINE
8
BLACK
6
CONTINUOUS
10
5.4141056692913381
20
-4.4157211417322833
11
5.4292723622047241
21
-4.3702211417322836
0
LINE
8
BLACK
6
CONTINUOUS
10
5.4292723622047241
20
-4.3702211417322836
11
5.4293825196850394
21
-4.3700940944881888
0
LINE
8
BLACK
6
CONTINUOUS
10
5.4293825196850394
20
-4.3700940944881888
11
5.4293944488188979
21
-4.3699264173228345
0
LINE
8
BLACK
6
CONTINUOUS
10
5.4293944488188979
20
-4.3699264173228345
11
5.429933307086614
21
-4.3694590551181101
0
LINE
8
BLACK
6
CONTINUOUS
10
5.429933307086614
20
-4.3694590551181101
11
5.4304006692913385
21
-4.3689201968503939
0
LINE
8
BLACK
6
CONTINUOUS
10
5.4304006692913385
20
-4.3689201968503939
11
5.4305683464566927
21
-4.3689082677165354
0
LINE
8
BLACK
6
CONTINUOUS
10
5.4305683464566927
20
-4.3689082677165354
11
5.4306953937007876
21
-4.3687981102362201
0
LINE
8
BLACK
6
CONTINUOUS
10
5.4306953937007876
20
-4.3687981102362201
11
5.4314068897637791
21
-4.3688486614173225
0
LINE
8
BLACK
6
CONTINUOUS
10
5.4314068897637791
20
-4.3688486614173225
11
5.4321183858267714
21
-4.3687981102362201
0
LINE
8
BLACK
6
CONTINUOUS
10
5.4321183858267714
20
-4.3687981102362201
11
5.4322453937007875
21
-4.3689082677165354
0
LINE
8
BLACK
6
CONTINUOUS
10
5.423695236220472
20
-4.4011826377952756
11
5.4391185039370074
21
-4.4011826377952756
0
LINE
8
BLACK
6
CONTINUOUS
10
5.4391185039370074
20
-4.4011826377952756
11
5.4314068503937003
21
-4.3780476771653545
0
LINE
8
BLACK
6
CONTINUOUS
10
5.4314068503937003
20
-4.3780476771653545
11
5.423695236220472
21
-4.4011826377952756
0
LINE
8
BLACK
6
CONTINUOUS
10
5.5846645669291339
20
-4.3975083070866141
11
5.585323582677165
21
-4.3990992913385822
0
LINE
8
BLACK
6
CONTINUOUS
10
5.585323582677165
20
-4.3990992913385822
11
5.5846645669291339
21
-4.4006902755905513
0
LINE
8
BLACK
6
CONTINUOUS
10
5.5846645669291339
20
-4.4006902755905513
11
5.5830735826771649
21
-4.4013492913385823
0
LINE
8
BLACK
6
CONTINUOUS
10
5.5830735826771649
20
-4.4013492913385823
11
5.548406889763779
21
-4.4013492913385823
0
LINE
8
BLACK
6
CONTINUOUS
10
5.548406889763779
20
-4.4013492913385823
11
5.5468159055118109
21
-4.4006902755905513
0
LINE
8
BLACK
6
CONTINUOUS
10
5.5468159055118109
20
-4.4006902755905513
11
5.546156889763779
21
-4.3990992913385822
0
LINE
8
BLACK
6
CONTINUOUS
10
5.546156889763779
20
-4.3990992913385822
11
5.5468159055118109
21
-4.3975083070866141
0
LINE
8
BLACK
6
CONTINUOUS
10
5.5468159055118109
20
-4.3975083070866141
11
5.548406889763779
21
-4.3968492913385822
0
LINE
8
BLACK
6
CONTINUOUS
10
5.548406889763779
20
-4.3968492913385822
11
5.5830735826771649
21
-4.3968492913385822
0
LINE
8
BLACK
6
CONTINUOUS
10
5.5830735826771649
20
-4.3968492913385822
11
5.5846645669291339
21
-4.3975083070866141
0
LINE
8
BLACK
6
CONTINUOUS
10
6.4064999999999994
20
-4.3384881889763776
11
6.3864999999999998
21
-4.3384881889763776
0
LINE
8
BLACK
6
CONTINUOUS
10
6.3864999999999998
20
-4.3384881889763776
11
6.3864999999999998
21
-4.318488188976378
0
LINE
8
BLACK
6
CONTINUOUS
10
6.3864999999999998
20
-4.318488188976378
11
6.4064999999999994
21
-4.318488188976378
0
LINE
8
BLACK
6
CONTINUOUS
10
6.4064999999999994
20
-4.318488188976378
11
6.4064999999999994
21
-4.3384881889763776
0
LINE
8
BLACK
6
CONTINUOUS
10
6.5065
20
-4.3384881889763776
11
6.4864999999999995
21
-4.3384881889763776
0
LINE
8
BLACK
6
CONTINUOUS
10
6.4864999999999995
20
-4.3384881889763776
11
6.4864999999999995
21
-4.318488188976378
0
LINE
8
BLACK
6
CONTINUOUS
10
6.4864999999999995
20
-4.318488188976378
11
6.5065
21
-4.318488188976378
0
LINE
8
BLACK
6
CONTINUOUS
10
6.5065
20
-4.318488188976378
11
6.5065
21
-4.3384881889763776
0
LINE
8
BLACK
6
CONTINUOUS
10
6.6072886220472435
20
-4.2327699999999995
11
6.6079476377952755
21
-4.2343609842519685
0
LINE
8
BLACK
6
CONTINUOUS
10
6.6079476377952755
20
-4.2343609842519685
11
6.6072886220472435
21
-4.2359519685039366
0
LINE
8
BLACK
6
CONTINUOUS
10
6.6072886220472435
20
-4.2359519685039366
11
6.6056976377952754
21
-4.2366109842519686
0
LINE
8
BLACK
6
CONTINUOUS
10
6.6056976377952754
20
-4.2366109842519686
11
6.5703396062992123
21
-4.2366109842519686
0
LINE
8
BLACK
6
CONTINUOUS
10
6.5703396062992123
20
-4.2366109842519686
11
6.5936491338582677
21
-4.2474887795275587
0
LINE
8
BLACK
6
CONTINUOUS
10
6.5936491338582677
20
-4.2474887795275587
11
6.5941688188976375
21
-4.2480562204724412
0
LINE
8
BLACK
6
CONTINUOUS
10
6.5941688188976375
20
-4.2480562204724412
11
6.5947365748031492
21
-4.2485761811023623
0
LINE
8
BLACK
6
CONTINUOUS
10
6.5947365748031492
20
-4.2485761811023623
11
6.5947411811023624
21
-4.2486812204724407
0
LINE
8
BLACK
6
CONTINUOUS
10
6.5947411811023624
20
-4.2486812204724407
11
6.5948121653543303
21
-4.2487587401574798
0
LINE
8
BLACK
6
CONTINUOUS
10
6.5948121653543303
20
-4.2487587401574798
11
6.5947783464566925
21
-4.249527440944882
0
LINE
8
BLACK
6
CONTINUOUS
10
6.5947783464566925
20
-4.249527440944882
11
6.5948121653543303
21
-4.2502965748031496
0
LINE
8
BLACK
6
CONTINUOUS
10
6.5948121653543303
20
-4.2502965748031496
11
6.5947411417322837
21
-4.2503740944881887
0
LINE
8
BLACK
6
CONTINUOUS
10
6.5947411417322837
20
-4.2503740944881887
11
6.5947365354330705
21
-4.2504791732283467
0
LINE
8
BLACK
6
CONTINUOUS
10
6.5947365354330705
20
-4.2504791732283467
11
6.594168897637795
21
-4.250998937007874
0
LINE
8
BLACK
6
CONTINUOUS
10
6.594168897637795
20
-4.250998937007874
11
6.5936491338582677
21
-4.2515665748031495
0
LINE
8
BLACK
6
CONTINUOUS
10
6.5936491338582677
20
-4.2515665748031495
11
6.5703396456692911
21
-4.2624443307086617
0
LINE
8
BLACK
6
CONTINUOUS
10
6.5703396456692911
20
-4.2624443307086617
11
6.6056976377952754
21
-4.2624443307086617
0
LINE
8
BLACK
6
CONTINUOUS
10
6.6056976377952754
20
-4.2624443307086617
11
6.6072886220472435
21
-4.2631033464566928
0
LINE
8
BLACK
6
CONTINUOUS
10
6.6072886220472435
20
-4.2631033464566928
11
6.6079476377952755
21
-4.2646943307086609
0
LINE
8
BLACK
6
CONTINUOUS
10
6.6079476377952755
20
-4.2646943307086609
11
6.6072886220472435
21
-4.2662853149606299
0
LINE
8
BLACK
6
CONTINUOUS
10
6.6072886220472435
20
-4.2662853149606299
11
6.6056976377952754
21
-4.266944330708661
0
LINE
8
BLACK
6
CONTINUOUS
10
6.6056976377952754
20
-4.266944330708661
11
6.5601976377952758
21
-4.266944330708661
0
LINE
8
BLACK
6
CONTINUOUS
10
6.5601976377952758
20
-4.266944330708661
11
6.5598281496062993
21
-4.2667912598425195
0
LINE
8
BLACK
6
CONTINUOUS
10
6.5598281496062993
20
-4.2667912598425195
11
6.559428700787401
21
-4.2668088582677166
0
LINE
8
BLACK
6
CONTINUOUS
10
6.559428700787401
20
-4.2668088582677166
11
6.559063779527559
21
-4.266474645669291
0
LINE
8
BLACK
6
CONTINUOUS
10
6.559063779527559
20
-4.266474645669291
11
6.5586066535433067
21
-4.2662853149606299
0
LINE
8
BLACK
6
CONTINUOUS
10
6.5586066535433067
20
-4.2662853149606299
11
6.558453622047244
21
-4.2659158661417322
0
LINE
8
BLACK
6
CONTINUOUS
10
6.558453622047244
20
-4.2659158661417322
11
6.5581587401574799
21
-4.265645826771653
0
LINE
8
BLACK
6
CONTINUOUS
10
6.5581587401574799
20
-4.265645826771653
11
6.5581370078740155
21
-4.2651514960629919
0
LINE
8
BLACK
6
CONTINUOUS
10
6.5581370078740155
20
-4.2651514960629919
11
6.5579476377952757
21
-4.2646943307086609
0
LINE
8
BLACK
6
CONTINUOUS
10
6.5579476377952757
20
-4.2646943307086609
11
6.5581006692913384
21
-4.2643248425196854
0
LINE
8
BLACK
6
CONTINUOUS
10
6.5581006692913384
20
-4.2643248425196854
11
6.55808311023622
21
-4.263925393700787
0
LINE
8
BLACK
6
CONTINUOUS
10
6.55808311023622
20
-4.263925393700787
11
6.5584172834645669
21
-4.263560472440945
0
LINE
8
BLACK
6
CONTINUOUS
10
6.5584172834645669
20
-4.263560472440945
11
6.5586066535433067
21
-4.2631033464566928
0
LINE
8
BLACK
6
CONTINUOUS
10
6.5586066535433067
20
-4.2631033464566928
11
6.5589760629921257
21
-4.26295031496063
0
LINE
8
BLACK
6
CONTINUOUS
10
6.5589760629921257
20
-4.26295031496063
11
6.5592461417322836
21
-4.2626554330708659
0
LINE
8
BLACK
6
CONTINUOUS
10
6.5592461417322836
20
-4.2626554330708659
11
6.5873770078740153
21
-4.2495276377952758
0
LINE
8
BLACK
6
CONTINUOUS
10
6.5873770078740153
20
-4.2495276377952758
11
6.5592461417322836
21
-4.2363998818897635
0
LINE
8
BLACK
6
CONTINUOUS
10
6.5592461417322836
20
-4.2363998818897635
11
6.5589760629921257
21
-4.2361049606299215
0
LINE
8
BLACK
6
CONTINUOUS
10
6.5589760629921257
20
-4.2361049606299215
11
6.5586066535433067
21
-4.2359519685039366
0
LINE
8
BLACK
6
CONTINUOUS
10
6.5586066535433067
20
-4.2359519685039366
11
6.5584172834645669
21
-4.2354948031496065
0
LINE
8
BLACK
6
CONTINUOUS
10
6.5584172834645669
20
-4.2354948031496065
11
6.55808311023622
21
-4.2351299212598423
0
LINE
8
BLACK
6
CONTINUOUS
10
6.55808311023622
20
-4.2351299212598423
11
6.5581006692913384
21
-4.2347304330708662
0
LINE
8
BLACK
6
CONTINUOUS
10
6.5581006692913384
20
-4.2347304330708662
11
6.5579476377952757
21
-4.2343609842519685
0
LINE
8
BLACK
6
CONTINUOUS
10
6.5579476377952757
20
-4.2343609842519685
11
6.5581370078740155
21
-4.2339037795275587
0
LINE
8
BLACK
6
CONTINUOUS
10
6.5581370078740155
20
-4.2339037795275587
11
6.5581587401574799
21
-4.2334094881889763
0
LINE
8
BLACK
6
CONTINUOUS
10
6.5581587401574799
20
-4.2334094881889763
11
6.558453622047244
21
-4.2331394094488184
0
LINE
8
BLACK
6
CONTINUOUS
10
6.558453622047244
20
-4.2331394094488184
11
6.5586066535433067
21
-4.2327699999999995
0
LINE
8
BLACK
6
CONTINUOUS
10
6.5586066535433067
20
-4.2327699999999995
11
6.559063779527559
21
-4.2325806299212596
0
LINE
8
BLACK
6
CONTINUOUS
10
6.559063779527559
20
-4.2325806299212596
11
6.559428700787401
21
-4.2322464566929137
0
LINE
8
BLACK
6
CONTINUOUS
10
6.559428700787401
20
-4.2322464566929137
11
6.5598281496062993
21
-4.2322640157480311
0
LINE
8
BLACK
6
CONTINUOUS
10
6.5598281496062993
20
-4.2322640157480311
11
6.5601976377952758
21
-4.2321109842519684
0
LINE
8
BLACK
6
CONTINUOUS
10
6.5601976377952758
20
-4.2321109842519684
11
6.6056976377952754
21
-4.2321109842519684
0
LINE
8
BLACK
6
CONTINUOUS
10
6.6056976377952754
20
-4.2321109842519684
11
6.6072886220472435
21
-4.2327699999999995
0
LINE
8
BLACK
6
CONTINUOUS
10
6.4064999999999994
20
-4.2384881889763779
11
6.3864999999999998
21
-4.2384881889763779
0
LINE
8
BLACK
6
CONTINUOUS
10
6.3864999999999998
20
-4.2384881889763779
11
6.3864999999999998
21
-4.2184881889763775
0
LINE
8
BLACK
6
CONTINUOUS
10
6.3864999999999998
20
-4.2184881889763775
11
6.4064999999999994
21
-4.2184881889763775
0
LINE
8
BLACK
6
CONTINUOUS
10
6.4064999999999994
20
-4.2184881889763775
11
6.4064999999999994
21
-4.2384881889763779
0
LINE
8
BLACK
6
CONTINUOUS
10
6.5065
20
-4.2384881889763779
11
6.4864999999999995
21
-4.2384881889763779
0
LINE
8
BLACK
6
CONTINUOUS
10
6.4864999999999995
20
-4.2384881889763779
11
6.4864999999999995
21
-4.2184881889763775
0
LINE
8
BLACK
6
CONTINUOUS
10
6.4864999999999995
20
-4.2184881889763775
11
6.5065
21
-4.2184881889763775
0
LINE
8
BLACK
6
CONTINUOUS
10
6.5065
20
-4.2184881889763775
11
6.5065
21
-4.2384881889763779
0
LINE
8
BLACK
6
CONTINUOUS
10
6.606703858267716
20
-4.1868485433070868
11
6.6078321653543304
21
-4.1881494881889765
0
LINE
8
BLACK
6
CONTINUOUS
10
6.6078321653543304
20
-4.1881494881889765
11
6.6077100787401575
21
-4.1898672047244094
0
LINE
8
BLACK
6
CONTINUOUS
10
6.6077100787401575
20
-4.1898672047244094
11
6.6064091338582678
21
-4.1909955118110238
0
LINE
8
BLACK
6
CONTINUOUS
10
6.6064091338582678
20
-4.1909955118110238
11
6.5949476377952756
21
-4.1948159842519681
0
LINE
8
BLACK
6
CONTINUOUS
10
6.5949476377952756
20
-4.1948159842519681
11
6.5949476377952756
21
-4.2132392913385823
0
LINE
8
BLACK
6
CONTINUOUS
10
6.5949476377952756
20
-4.2132392913385823
11
6.6064091732283465
21
-4.2170598031496063
0
LINE
8
BLACK
6
CONTINUOUS
10
6.6064091732283465
20
-4.2170598031496063
11
6.6077101181102362
21
-4.2181881102362206
0
LINE
8
BLACK
6
CONTINUOUS
10
6.6077101181102362
20
-4.2181881102362206
11
6.6078322047244091
21
-4.2199058661417324
0
LINE
8
BLACK
6
CONTINUOUS
10
6.6078322047244091
20
-4.2199058661417324
11
6.606703858267716
21
-4.2212067716535433
0
LINE
8
BLACK
6
CONTINUOUS
10
6.606703858267716
20
-4.2212067716535433
11
6.604986141732283
21
-4.2213288582677162
0
LINE
8
BLACK
6
CONTINUOUS
10
6.604986141732283
20
-4.2213288582677162
11
6.5594861417322834
21
-4.2061622047244089
0
LINE
8
BLACK
6
CONTINUOUS
10
6.5594861417322834
20
-4.2061622047244089
11
6.5593590944881885
21
-4.2060520078740158
0
LINE
8
BLACK
6
CONTINUOUS
10
6.5593590944881885
20
-4.2060520078740158
11
6.5591914173228343
21
-4.206040118110236
0
LINE
8
BLACK
6
CONTINUOUS
10
6.5591914173228343
20
-4.206040118110236
11
6.5587240551181099
21
-4.2055012204724411
0
LINE
8
BLACK
6
CONTINUOUS
10
6.5587240551181099
20
-4.2055012204724411
11
6.5581851968503937
21
-4.2050338976377954
0
LINE
8
BLACK
6
CONTINUOUS
10
6.5581851968503937
20
-4.2050338976377954
11
6.5581732677165352
21
-4.2048661811023624
0
LINE
8
BLACK
6
CONTINUOUS
10
6.5581732677165352
20
-4.2048661811023624
11
6.5580631102362199
21
-4.2047391732283463
0
LINE
8
BLACK
6
CONTINUOUS
10
6.5580631102362199
20
-4.2047391732283463
11
6.5581136614173223
21
-4.204027677165354
0
LINE
8
BLACK
6
CONTINUOUS
10
6.5581136614173223
20
-4.204027677165354
11
6.5580631102362199
21
-4.2033161811023625
0
LINE
8
BLACK
6
CONTINUOUS
10
6.5580631102362199
20
-4.2033161811023625
11
6.5581732677165352
21
-4.2031891338582676
0
LINE
8
BLACK
6
CONTINUOUS
10
6.5581732677165352
20
-4.2031891338582676
11
6.5581851968503937
21
-4.2030214566929134
0
LINE
8
BLACK
6
CONTINUOUS
10
6.5581851968503937
20
-4.2030214566929134
11
6.5587240551181099
21
-4.202554094488189
0
LINE
8
BLACK
6
CONTINUOUS
10
6.5587240551181099
20
-4.202554094488189
11
6.5591914173228343
21
-4.2020152362204719
0
LINE
8
BLACK
6
CONTINUOUS
10
6.5591914173228343
20
-4.2020152362204719
11
6.5593590944881885
21
-4.2020033070866143
0
LINE
8
BLACK
6
CONTINUOUS
10
6.5593590944881885
20
-4.2020033070866143
11
6.5594861417322834
21
-4.201893149606299
0
LINE
8
BLACK
6
CONTINUOUS
10
6.5594861417322834
20
-4.201893149606299
11
6.604986141732283
21
-4.186726456692913
0
LINE
8
BLACK
6
CONTINUOUS
10
6.604986141732283
20
-4.186726456692913
11
6.606703858267716
21
-4.1868485433070868
0
LINE
8
BLACK
6
CONTINUOUS
10
6.5673126771653543
20
-4.2040276377952752
11
6.5904476377952754
21
-4.2117392913385823
0
LINE
8
BLACK
6
CONTINUOUS
10
6.5904476377952754
20
-4.2117392913385823
11
6.5904476377952754
21
-4.1963159842519682
0
LINE
8
BLACK
6
CONTINUOUS
10
6.5904476377952754
20
-4.1963159842519682
11
6.5673126771653543
21
-4.2040276377952752
0
LINE
8
BLACK
6
CONTINUOUS
10
6.5886277952755901
20
-4.1477201181102359
11
6.5889100000000003
21
-4.1476781496062989
0
LINE
8
BLACK
6
CONTINUOUS
10
6.5889100000000003
20
-4.1476781496062989
11
6.5975766929133854
21
-4.149844842519685
0
LINE
8
BLACK
6
CONTINUOUS
10
6.5975766929133854
20
-4.149844842519685
11
6.597782125984252
21
-4.1499970472440948
0
LINE
8
BLACK
6
CONTINUOUS
10
6.597782125984252
20
-4.1499970472440948
11
6.5980372047244096
21
-4.1500151968503936
0
LINE
8
BLACK
6
CONTINUOUS
10
6.5980372047244096
20
-4.1500151968503936
11
6.6023705511811022
21
-4.1521818897637797
0
LINE
8
BLACK
6
CONTINUOUS
10
6.6023705511811022
20
-4.1521818897637797
11
6.60261311023622
21
-4.1524615748031497
0
LINE
8
BLACK
6
CONTINUOUS
10
6.60261311023622
20
-4.1524615748031497
11
6.602955275590551
21
-4.152603307086614
0
LINE
8
BLACK
6
CONTINUOUS
10
6.602955275590551
20
-4.152603307086614
11
6.6051219685039371
21
-4.1547699606299213
0
LINE
8
BLACK
6
CONTINUOUS
10
6.6051219685039371
20
-4.1547699606299213
11
6.6052636614173226
21
-4.1551120866141735
0
LINE
8
BLACK
6
CONTINUOUS
10
6.6052636614173226
20
-4.1551120866141735
11
6.6055434645669289
21
-4.1553547637795276
0
LINE
8
BLACK
6
CONTINUOUS
10
6.6055434645669289
20
-4.1553547637795276
11
6.6077100787401575
21
-4.1596881102362202
0
LINE
8
BLACK
6
CONTINUOUS
10
6.6077100787401575
20
-4.1596881102362202
11
6.6077471653543309
21
-4.1602104330708665
0
LINE
8
BLACK
6
CONTINUOUS
10
6.6077471653543309
20
-4.1602104330708665
11
6.6079476377952755
21
-4.1606943307086617
0
LINE
8
BLACK
6
CONTINUOUS
10
6.6079476377952755
20
-4.1606943307086617
11
6.6079476377952755
21
-4.1650276771653543
0
LINE
8
BLACK
6
CONTINUOUS
10
6.6079476377952755
20
-4.1650276771653543
11
6.6077472047244097
21
-4.1655114566929132
0
LINE
8
BLACK
6
CONTINUOUS
10
6.6077472047244097
20
-4.1655114566929132
11
6.6077101181102362
21
-4.1660338976377949
0
LINE
8
BLACK
6
CONTINUOUS
10
6.6077101181102362
20
-4.1660338976377949
11
6.6055434645669289
21
-4.1703672047244096
0
LINE
8
BLACK
6
CONTINUOUS
10
6.6055434645669289
20
-4.1703672047244096
11
6.6052636614173226
21
-4.1706098425196849
0
LINE
8
BLACK
6
CONTINUOUS
10
6.6052636614173226
20
-4.1706098425196849
11
6.6051219685039371
21
-4.1709519685039371
0
LINE
8
BLACK
6
CONTINUOUS
10
6.6051219685039371
20
-4.1709519685039371
11
6.602955275590551
21
-4.1731186614173224
0
LINE
8
BLACK
6
CONTINUOUS
10
6.602955275590551
20
-4.1731186614173224
11
6.6026131496062987
21
-4.1732603543307087
0
LINE
8
BLACK
6
CONTINUOUS
10
6.6026131496062987
20
-4.1732603543307087
11
6.6023705511811022
21
-4.1735401181102363
0
LINE
8
BLACK
6
CONTINUOUS
10
6.6023705511811022
20
-4.1735401181102363
11
6.5980372047244096
21
-4.1757068110236215
0
LINE
8
BLACK
6
CONTINUOUS
10
6.5980372047244096
20
-4.1757068110236215
11
6.597782125984252
21
-4.1757249212598424
0
LINE
8
BLACK
6
CONTINUOUS
10
6.597782125984252
20
-4.1757249212598424
11
6.5975766929133854
21
-4.175877165354331
0
LINE
8
BLACK
6
CONTINUOUS
10
6.5975766929133854
20
-4.175877165354331
11
6.5889100000000003
21
-4.1780438188976374
0
LINE
8
BLACK
6
CONTINUOUS
10
6.5889100000000003
20
-4.1780438188976374
11
6.5886277952755901
21
-4.1780018110236217
0
LINE
8
BLACK
6
CONTINUOUS
10
6.5886277952755901
20
-4.1780018110236217
11
6.5883642913385829
21
-4.1781109842519681
0
LINE
8
BLACK
6
CONTINUOUS
10
6.5883642913385829
20
-4.1781109842519681
11
6.5775309842519682
21
-4.1781109842519681
0
LINE
8
BLACK
6
CONTINUOUS
10
6.5775309842519682
20
-4.1781109842519681
11
6.5772674409448815
21
-4.1780018110236217
0
LINE
8
BLACK
6
CONTINUOUS
10
6.5772674409448815
20
-4.1780018110236217
11
6.5769852755905509
21
-4.1780438188976374
0
LINE
8
BLACK
6
CONTINUOUS
10
6.5769852755905509
20
-4.1780438188976374
11
6.5683185826771648
21
-4.175877165354331
0
LINE
8
BLACK
6
CONTINUOUS
10
6.5683185826771648
20
-4.175877165354331
11
6.5681131102362205
21
-4.1757249212598424
0
LINE
8
BLACK
6
CONTINUOUS
10
6.5681131102362205
20
-4.1757249212598424
11
6.5678580708661416
21
-4.1757068110236215
0
LINE
8
BLACK
6
CONTINUOUS
10
6.5678580708661416
20
-4.1757068110236215
11
6.5635247637795278
21
-4.173540157480315
0
LINE
8
BLACK
6
CONTINUOUS
10
6.5635247637795278
20
-4.173540157480315
11
6.5632820866141728
21
-4.1732603543307087
0
LINE
8
BLACK
6
CONTINUOUS
10
6.5632820866141728
20
-4.1732603543307087
11
6.5629400000000002
21
-4.1731186614173224
0
LINE
8
BLACK
6
CONTINUOUS
10
6.5629400000000002
20
-4.1731186614173224
11
6.5607733070866141
21
-4.1709519685039371
0
LINE
8
BLACK
6
CONTINUOUS
10
6.5607733070866141
20
-4.1709519685039371
11
6.5606315748031498
21
-4.1706098425196849
0
LINE
8
BLACK
6
CONTINUOUS
10
6.5606315748031498
20
-4.1706098425196849
11
6.5603518503937011
21
-4.1703672440944883
0
LINE
8
BLACK
6
CONTINUOUS
10
6.5603518503937011
20
-4.1703672440944883
11
6.5581851574803149
21
-4.1660338976377949
0
LINE
8
BLACK
6
CONTINUOUS
10
6.5581851574803149
20
-4.1660338976377949
11
6.5581480314960627
21
-4.1655114566929132
0
LINE
8
BLACK
6
CONTINUOUS
10
6.5581480314960627
20
-4.1655114566929132
11
6.5579476377952757
21
-4.1650276771653543
0
LINE
8
BLACK
6
CONTINUOUS
10
6.5579476377952757
20
-4.1650276771653543
11
6.5579476377952757
21
-4.1606943307086617
0
LINE
8
BLACK
6
CONTINUOUS
10
6.5579476377952757
20
-4.1606943307086617
11
6.5581480314960627
21
-4.160210511811024
0
LINE
8
BLACK
6
CONTINUOUS
10
6.5581480314960627
20
-4.160210511811024
11
6.5581851574803149
21
-4.1596881102362202
0
LINE
8
BLACK
6
CONTINUOUS
10
6.5581851574803149
20
-4.1596881102362202
11
6.5603518110236223
21
-4.1553547637795276
0
LINE
8
BLACK
6
CONTINUOUS
10
6.5603518110236223
20
-4.1553547637795276
11
6.5606315748031498
21
-4.1551120866141735
0
LINE
8
BLACK
6
CONTINUOUS
10
6.5606315748031498
20
-4.1551120866141735
11
6.5607733070866141
21
-4.1547699606299213
0
LINE
8
BLACK
6
CONTINUOUS
10
6.5607733070866141
20
-4.1547699606299213
11
6.5629400000000002
21
-4.1526033464566927
0
LINE
8
BLACK
6
CONTINUOUS
10
6.5629400000000002
20
-4.1526033464566927
11
6.5632820866141728
21
-4.1524616141732285
0
LINE
8
BLACK
6
CONTINUOUS
10
6.5632820866141728
20
-4.1524616141732285
11
6.5635247637795278
21
-4.1521818503937009
0
LINE
8
BLACK
6
CONTINUOUS
10
6.5635247637795278
20
-4.1521818503937009
11
6.5678580708661416
21
-4.1500151968503936
0
LINE
8
BLACK
6
CONTINUOUS
10
6.5678580708661416
20
-4.1500151968503936
11
6.5681131102362205
21
-4.1499970472440948
0
LINE
8
BLACK
6
CONTINUOUS
10
6.5681131102362205
20
-4.1499970472440948
11
6.5683185826771648
21
-4.149844842519685
0
LINE
8
BLACK
6
CONTINUOUS
10
6.5683185826771648
20
-4.149844842519685
11
6.5769852755905509
21
-4.1476781496062989
0
LINE
8
BLACK
6
CONTINUOUS
10
6.5769852755905509
20
-4.1476781496062989
11
6.5772674409448815
21
-4.1477201181102359
0
LINE
8
BLACK
6
CONTINUOUS
10
6.5772674409448815
20
-4.1477201181102359
11
6.5775309842519682
21
-4.1476109842519682
0
LINE
8
BLACK
6
CONTINUOUS
10
6.5775309842519682
20
-4.1476109842519682
11
6.5883642913385829
21
-4.1476109842519682
0
LINE
8
BLACK
6
CONTINUOUS
10
6.5883642913385829
20
-4.1476109842519682
11
6.5886277952755901
21
-4.1477201181102359
0
LINE
8
BLACK
6
CONTINUOUS
10
6.5696495275590552
20
-4.1541505905511809
11
6.5658637795275592
21
-4.1560435039370081
0
LINE
8
BLACK
6
CONTINUOUS
10
6.5658637795275592
20
-4.1560435039370081
11
6.5642133858267719
21
-4.1576938976377953
0
LINE
8
BLACK
6
CONTINUOUS
10
6.5642133858267719
20
-4.1576938976377953
11
6.5624476377952758
21
-4.161225472440945
0
LINE
8
BLACK
6
CONTINUOUS
10
6.5624476377952758
20
-4.161225472440945
11
6.5624476377952758
21
-4.1644964960629922
0
LINE
8
BLACK
6
CONTINUOUS
10
6.5624476377952758
20
-4.1644964960629922
11
6.5642135039370073
21
-4.1680282283464569
0
LINE
8
BLACK
6
CONTINUOUS
10
6.5642135039370073
20
-4.1680282283464569
11
6.5658637401574804
21
-4.1696784645669291
0
LINE
8
BLACK
6
CONTINUOUS
10
6.5658637401574804
20
-4.1696784645669291
11
6.5696495275590552
21
-4.1715713385826767
0
LINE
8
BLACK
6
CONTINUOUS
10
6.5696495275590552
20
-4.1715713385826767
11
6.5778080314960627
21
-4.173610984251968
0
LINE
8
BLACK
6
CONTINUOUS
10
6.5778080314960627
20
-4.173610984251968
11
6.5880872440944884
21
-4.173610984251968
0
LINE
8
BLACK
6
CONTINUOUS
10
6.5880872440944884
20
-4.173610984251968
11
6.5962456692913385
21
-4.1715713779527555
0
LINE
8
BLACK
6
CONTINUOUS
10
6.5962456692913385
20
-4.1715713779527555
11
6.6000315354330708
21
-4.1696784645669291
0
LINE
8
BLACK
6
CONTINUOUS
10
6.6000315354330708
20
-4.1696784645669291
11
6.601681771653543
21
-4.1680281889763782
0
LINE
8
BLACK
6
CONTINUOUS
10
6.601681771653543
20
-4.1680281889763782
11
6.6034476377952753
21
-4.1644964960629922
0
LINE
8
BLACK
6
CONTINUOUS
10
6.6034476377952753
20
-4.1644964960629922
11
6.6034476377952753
21
-4.161225472440945
0
LINE
8
BLACK
6
CONTINUOUS
10
6.6034476377952753
20
-4.161225472440945
11
6.601681771653543
21
-4.1576937401574803
0
LINE
8
BLACK
6
CONTINUOUS
10
6.601681771653543
20
-4.1576937401574803
11
6.6000314566929132
21
-4.1560435039370081
0
LINE
8
BLACK
6
CONTINUOUS
10
6.6000314566929132
20
-4.1560435039370081
11
6.5962456299212597
21
-4.1541505905511809
0
LINE
8
BLACK
6
CONTINUOUS
10
6.5962456299212597
20
-4.1541505905511809
11
6.5880872440944884
21
-4.1521109842519683
0
LINE
8
BLACK
6
CONTINUOUS
10
6.5880872440944884
20
-4.1521109842519683
11
6.5778080314960627
21
-4.1521109842519683
0
LINE
8
BLACK
6
CONTINUOUS
10
6.5778080314960627
20
-4.1521109842519683
11
6.5696495275590552
21
-4.1541505905511809
0
LINE
8
BLACK
6
CONTINUOUS
10
6.4064999999999994
20
-4.1384881889763783
11
6.3864999999999998
21
-4.1384881889763783
0
LINE
8
BLACK
6
CONTINUOUS
10
6.3864999999999998
20
-4.1384881889763783
11
6.3864999999999998
21
-4.1184881889763778
0
LINE
8
BLACK
6
CONTINUOUS
10
6.3864999999999998
20
-4.1184881889763778
11
6.4064999999999994
21
-4.1184881889763778
0
LINE
8
BLACK
6
CONTINUOUS
10
6.4064999999999994
20
-4.1184881889763778
11
6.4064999999999994
21
-4.1384881889763783
0
LINE
8
BLACK
6
CONTINUOUS
10
6.5065
20
-4.1384881889763783
11
6.4864999999999995
21
-4.1384881889763783
0
LINE
8
BLACK
6
CONTINUOUS
10
6.4864999999999995
20
-4.1384881889763783
11
6.4864999999999995
21
-4.1184881889763778
0
LINE
8
BLACK
6
CONTINUOUS
10
6.4864999999999995
20
-4.1184881889763778
11
6.5065
21
-4.1184881889763778
0
LINE
8
BLACK
6
CONTINUOUS
10
6.5065
20
-4.1184881889763778
11
6.5065
21
-4.1384881889763783
0
LINE
8
BLACK
6
CONTINUOUS
10
6.5975148425196846
20
-4.1044780314960629
11
6.5980372440944883
21
-4.1045151968503939
0
LINE
8
BLACK
6
CONTINUOUS
10
6.5980372440944883
20
-4.1045151968503939
11
6.6023705511811022
21
-4.1066818897637791
0
LINE
8
BLACK
6
CONTINUOUS
10
6.6023705511811022
20
-4.1066818897637791
11
6.60261311023622
21
-4.1069615748031492
0
LINE
8
BLACK
6
CONTINUOUS
10
6.60261311023622
20
-4.1069615748031492
11
6.602955275590551
21
-4.1071033070866143
0
LINE
8
BLACK
6
CONTINUOUS
10
6.602955275590551
20
-4.1071033070866143
11
6.6051219685039371
21
-4.1092699606299208
0
LINE
8
BLACK
6
CONTINUOUS
10
6.6051219685039371
20
-4.1092699606299208
11
6.6052636614173226
21
-4.109612086614173
0
LINE
8
BLACK
6
CONTINUOUS
10
6.6052636614173226
20
-4.109612086614173
11
6.6055434645669289
21
-4.1098547637795271
0
LINE
8
BLACK
6
CONTINUOUS
10
6.6055434645669289
20
-4.1098547637795271
11
6.6077100787401575
21
-4.1141881102362206
0
LINE
8
BLACK
6
CONTINUOUS
10
6.6077100787401575
20
-4.1141881102362206
11
6.6077471653543309
21
-4.1147104330708659
0
LINE
8
BLACK
6
CONTINUOUS
10
6.6077471653543309
20
-4.1147104330708659
11
6.6079476377952755
21
-4.1151943307086611
0
LINE
8
BLACK
6
CONTINUOUS
10
6.6079476377952755
20
-4.1151943307086611
11
6.6079476377952755
21
-4.128194330708661
0
LINE
8
BLACK
6
CONTINUOUS
10
6.6079476377952755
20
-4.128194330708661
11
6.6077472047244097
21
-4.12867811023622
0
LINE
8
BLACK
6
CONTINUOUS
10
6.6077472047244097
20
-4.12867811023622
11
6.6077101181102362
21
-4.1292005511811025
0
LINE
8
BLACK
6
CONTINUOUS
10
6.6077101181102362
20
-4.1292005511811025
11
6.6055434645669289
21
-4.1335338582677164
0
LINE
8
BLACK
6
CONTINUOUS
10
6.6055434645669289
20
-4.1335338582677164
11
6.6052636614173226
21
-4.1337764960629917
0
LINE
8
BLACK
6
CONTINUOUS
10
6.6052636614173226
20
-4.1337764960629917
11
6.6051219685039371
21
-4.1341186220472439
0
LINE
8
BLACK
6
CONTINUOUS
10
6.6051219685039371
20
-4.1341186220472439
11
6.602955275590551
21
-4.13628531496063
0
LINE
8
BLACK
6
CONTINUOUS
10
6.602955275590551
20
-4.13628531496063
11
6.6013642913385828
21
-4.1369443307086611
0
LINE
8
BLACK
6
CONTINUOUS
10
6.6013642913385828
20
-4.1369443307086611
11
6.5997733070866138
21
-4.13628531496063
0
LINE
8
BLACK
6
CONTINUOUS
10
6.5997733070866138
20
-4.13628531496063
11
6.5991142913385827
21
-4.134694330708661
0
LINE
8
BLACK
6
CONTINUOUS
10
6.5991142913385827
20
-4.134694330708661
11
6.5997733070866138
21
-4.1331033464566929
0
LINE
8
BLACK
6
CONTINUOUS
10
6.5997733070866138
20
-4.1331033464566929
11
6.601681771653543
21
-4.1311948425196849
0
LINE
8
BLACK
6
CONTINUOUS
10
6.601681771653543
20
-4.1311948425196849
11
6.6034476377952753
21
-4.127663149606299
0
LINE
8
BLACK
6
CONTINUOUS
10
6.6034476377952753
20
-4.127663149606299
11
6.6034476377952753
21
-4.1157254724409444
0
LINE
8
BLACK
6
CONTINUOUS
10
6.6034476377952753
20
-4.1157254724409444
11
6.601681771653543
21
-4.1121937401574806
0
LINE
8
BLACK
6
CONTINUOUS
10
6.601681771653543
20
-4.1121937401574806
11
6.6000314173228345
21
-4.1105434645669288
0
LINE
8
BLACK
6
CONTINUOUS
10
6.6000314173228345
20
-4.1105434645669288
11
6.5964998425196848
21
-4.1087776377952752
0
LINE
8
BLACK
6
CONTINUOUS
10
6.5964998425196848
20
-4.1087776377952752
11
6.5867287795275589
21
-4.1087776377952752
0
LINE
8
BLACK
6
CONTINUOUS
10
6.5867287795275589
20
-4.1087776377952752
11
6.5831971259842517
21
-4.1105434645669288
0
LINE
8
BLACK
6
CONTINUOUS
10
6.5831971259842517
20
-4.1105434645669288
11
6.5815467716535432
21
-4.1121937795275594
0
LINE
8
BLACK
6
CONTINUOUS
10
6.5815467716535432
20
-4.1121937795275594
11
6.5797809842519683
21
-4.1157254724409444
0
LINE
8
BLACK
6
CONTINUOUS
10
6.5797809842519683
20
-4.1157254724409444
11
6.5797809842519683
21
-4.1216943307086611
0
LINE
8
BLACK
6
CONTINUOUS
10
6.5797809842519683
20
-4.1216943307086611
11
6.5794779527559051
21
-4.1224258267716536
0
LINE
8
BLACK
6
CONTINUOUS
10
6.5794779527559051
20
-4.1224258267716536
11
6.5792242913385826
21
-4.1231759842519686
0
LINE
8
BLACK
6
CONTINUOUS
10
6.5792242913385826
20
-4.1231759842519686
11
6.5791525590551183
21
-4.1232114173228345
0
LINE
8
BLACK
6
CONTINUOUS
10
6.5791525590551183
20
-4.1232114173228345
11
6.5791219685039373
21
-4.1232853149606301
0
LINE
8
BLACK
6
CONTINUOUS
10
6.5791219685039373
20
-4.1232853149606301
11
6.5783903937007873
21
-4.1235883070866137
0
LINE
8
BLACK
6
CONTINUOUS
10
6.5783903937007873
20
-4.1235883070866137
11
6.57768062992126
21
-4.1239393307086614
0
LINE
8
BLACK
6
CONTINUOUS
10
6.57768062992126
20
-4.1239393307086614
11
6.5776048818897639
21
-4.1239137007874014
0
LINE
8
BLACK
6
CONTINUOUS
10
6.5776048818897639
20
-4.1239137007874014
11
6.5775309842519682
21
-4.1239443307086612
0
LINE
8
BLACK
6
CONTINUOUS
10
6.5775309842519682
20
-4.1239443307086612
11
6.5767995275590554
21
-4.1236413385826767
0
LINE
8
BLACK
6
CONTINUOUS
10
6.5767995275590554
20
-4.1236413385826767
11
6.5760493307086616
21
-4.1233876377952754
0
LINE
8
BLACK
6
CONTINUOUS
10
6.5760493307086616
20
-4.1233876377952754
11
6.5624476377952758
21
-4.111486141732283
0
LINE
8
BLACK
6
CONTINUOUS
10
6.5624476377952758
20
-4.111486141732283
11
6.5624476377952758
21
-4.134694330708661
0
LINE
8
BLACK
6
CONTINUOUS
10
6.5624476377952758
20
-4.134694330708661
11
6.5617886220472439
21
-4.13628531496063
0
LINE
8
BLACK
6
CONTINUOUS
10
6.5617886220472439
20
-4.13628531496063
11
6.5601976377952758
21
-4.1369443307086611
0
LINE
8
BLACK
6
CONTINUOUS
10
6.5601976377952758
20
-4.1369443307086611
11
6.5586066535433067
21
-4.13628531496063
0
LINE
8
BLACK
6
CONTINUOUS
10
6.5586066535433067
20
-4.13628531496063
11
6.5579476377952757
21
-4.134694330708661
0
LINE
8
BLACK
6
CONTINUOUS
10
6.5579476377952757
20
-4.134694330708661
11
6.5579476377952757
21
-4.1065276377952751
0
LINE
8
BLACK
6
CONTINUOUS
10
6.5579476377952757
20
-4.1065276377952751
11
6.5582506299212593
21
-4.1057961023622047
0
LINE
8
BLACK
6
CONTINUOUS
10
6.5582506299212593
20
-4.1057961023622047
11
6.5585043307086615
21
-4.1050459842519684
0
LINE
8
BLACK
6
CONTINUOUS
10
6.5585043307086615
20
-4.1050459842519684
11
6.5585760236220469
21
-4.1050105118110238
0
LINE
8
BLACK
6
CONTINUOUS
10
6.5585760236220469
20
-4.1050105118110238
11
6.5586066535433067
21
-4.1049366535433069
0
LINE
8
BLACK
6
CONTINUOUS
10
6.5586066535433067
20
-4.1049366535433069
11
6.559338031496063
21
-4.1046336614173224
0
LINE
8
BLACK
6
CONTINUOUS
10
6.559338031496063
20
-4.1046336614173224
11
6.5600479527559052
21
-4.1042826377952757
0
LINE
8
BLACK
6
CONTINUOUS
10
6.5600479527559052
20
-4.1042826377952757
11
6.5601237007874014
21
-4.1043082283464569
0
LINE
8
BLACK
6
CONTINUOUS
10
6.5601237007874014
20
-4.1043082283464569
11
6.5601976377952758
21
-4.1042776377952759
0
LINE
8
BLACK
6
CONTINUOUS
10
6.5601976377952758
20
-4.1042776377952759
11
6.5609291338582674
21
-4.1045806299212595
0
LINE
8
BLACK
6
CONTINUOUS
10
6.5609291338582674
20
-4.1045806299212595
11
6.5616792913385824
21
-4.1048343307086617
0
LINE
8
BLACK
6
CONTINUOUS
10
6.5616792913385824
20
-4.1048343307086617
11
6.5752809842519682
21
-4.1167357874015744
0
LINE
8
BLACK
6
CONTINUOUS
10
6.5752809842519682
20
-4.1167357874015744
11
6.5752809842519682
21
-4.1151943307086611
0
LINE
8
BLACK
6
CONTINUOUS
10
6.5752809842519682
20
-4.1151943307086611
11
6.5754813779527561
21
-4.1147105118110234
0
LINE
8
BLACK
6
CONTINUOUS
10
6.5754813779527561
20
-4.1147105118110234
11
6.5755185039370074
21
-4.1141881102362206
0
LINE
8
BLACK
6
CONTINUOUS
10
6.5755185039370074
20
-4.1141881102362206
11
6.5776851574803148
21
-4.1098547637795271
0
LINE
8
BLACK
6
CONTINUOUS
10
6.5776851574803148
20
-4.1098547637795271
11
6.5779649212598423
21
-4.109612086614173
0
LINE
8
BLACK
6
CONTINUOUS
10
6.5779649212598423
20
-4.109612086614173
11
6.5781066535433066
21
-4.1092699999999995
0
LINE
8
BLACK
6
CONTINUOUS
10
6.5781066535433066
20
-4.1092699999999995
11
6.580273307086614
21
-4.1071033464566931
0
LINE
8
BLACK
6
CONTINUOUS
10
6.580273307086614
20
-4.1071033464566931
11
6.5806154330708662
21
-4.1069616141732279
0
LINE
8
BLACK
6
CONTINUOUS
10
6.5806154330708662
20
-4.1069616141732279
11
6.5808580708661415
21
-4.1066818897637791
0
LINE
8
BLACK
6
CONTINUOUS
10
6.5808580708661415
20
-4.1066818897637791
11
6.5851914173228341
21
-4.1045151968503939
0
LINE
8
BLACK
6
CONTINUOUS
10
6.5851914173228341
20
-4.1045151968503939
11
6.5857137401574803
21
-4.1044780708661417
0
LINE
8
BLACK
6
CONTINUOUS
10
6.5857137401574803
20
-4.1044780708661417
11
6.5861976377952756
21
-4.1042776377952759
0
LINE
8
BLACK
6
CONTINUOUS
10
6.5861976377952756
20
-4.1042776377952759
11
6.5970309842519681
21
-4.1042776377952759
0
LINE
8
BLACK
6
CONTINUOUS
10
6.5970309842519681
20
-4.1042776377952759
11
6.5975148425196846
21
-4.1044780314960629
0
LINE
8
BLACK
6
CONTINUOUS
10
6.5899552755905511
20
-4.05077
11
6.5906142913385821
21
-4.0523609842519681
0
LINE
8
BLACK
6
CONTINUOUS
10
6.5906142913385821
20
-4.0523609842519681
11
6.5906142913385821
21
-4.0870276377952752
0
LINE
8
BLACK
6
CONTINUOUS
10
6.5906142913385821
20
-4.0870276377952752
11
6.5899552755905511
21
-4.0886186220472442
0
LINE
8
BLACK
6
CONTINUOUS
10
6.5899552755905511
20
-4.0886186220472442
11
6.5883642913385829
21
-4.0892776377952753
0
LINE
8
BLACK
6
CONTINUOUS
10
6.5883642913385829
20
-4.0892776377952753
11
6.5867733070866139
21
-4.0886186220472442
0
LINE
8
BLACK
6
CONTINUOUS
10
6.5867733070866139
20
-4.0886186220472442
11
6.5861142913385828
21
-4.0870276377952752
0
LINE
8
BLACK
6
CONTINUOUS
10
6.5861142913385828
20
-4.0870276377952752
11
6.5861142913385828
21
-4.0523609842519681
0
LINE
8
BLACK
6
CONTINUOUS
10
6.5861142913385828
20
-4.0523609842519681
11
6.5867733070866139
21
-4.05077
0
LINE
8
BLACK
6
CONTINUOUS
10
6.5867733070866139
20
-4.05077
11
6.5883642913385829
21
-4.050110984251968
0
LINE
8
BLACK
6
CONTINUOUS
10
6.5883642913385829
20
-4.050110984251968
11
6.5899552755905511
21
-4.05077
0
LINE
8
BLACK
6
CONTINUOUS
10
5.3093781102362207
20
-4.0245326771653547
11
5.3098053149606299
21
-4.0245630314960632
0
LINE
8
BLACK
6
CONTINUOUS
10
5.3098053149606299
20
-4.0245630314960632
11
5.3142167322834641
21
-4.0267687401574799
0
LINE
8
BLACK
6
CONTINUOUS
10
5.3142167322834641
20
-4.0267687401574799
11
5.3144151574803145
21
-4.0269975196850396
0
LINE
8
BLACK
6
CONTINUOUS
10
5.3144151574803145
20
-4.0269975196850396
11
5.314694921259842
21
-4.0271134251968501
0
LINE
8
BLACK
6
CONTINUOUS
10
5.314694921259842
20
-4.0271134251968501
11
5.3169007086614171
21
-4.0293191732283464
0
LINE
8
BLACK
6
CONTINUOUS
10
5.3169007086614171
20
-4.0293191732283464
11
5.3170165748031497
21
-4.029598937007874
0
LINE
8
BLACK
6
CONTINUOUS
10
5.3170165748031497
20
-4.029598937007874
11
5.3172453543307086
21
-4.0297973622047243
0
LINE
8
BLACK
6
CONTINUOUS
10
5.3172453543307086
20
-4.0297973622047243
11
5.3194510629921261
21
-4.0342087795275585
0
LINE
8
BLACK
6
CONTINUOUS
10
5.3194510629921261
20
-4.0342087795275585
11
5.3194813779527559
21
-4.0346359448818898
0
LINE
8
BLACK
6
CONTINUOUS
10
5.3194813779527559
20
-4.0346359448818898
11
5.3196453149606295
21
-4.0350316535433066
0
LINE
8
BLACK
6
CONTINUOUS
10
5.3196453149606295
20
-4.0350316535433066
11
5.3196453149606295
21
-4.0460602362204723
0
LINE
8
BLACK
6
CONTINUOUS
10
5.3196453149606295
20
-4.0460602362204723
11
5.319529409448819
21
-4.0463399606299211
0
LINE
8
BLACK
6
CONTINUOUS
10
5.319529409448819
20
-4.0463399606299211
11
5.3195509055118109
21
-4.046642086614173
0
LINE
8
BLACK
6
CONTINUOUS
10
5.3195509055118109
20
-4.046642086614173
11
5.3173451968503933
21
-4.0532592125984248
0
LINE
8
BLACK
6
CONTINUOUS
10
5.3173451968503933
20
-4.0532592125984248
11
5.3164224803149605
21
-4.0543231102362203
0
LINE
8
BLACK
6
CONTINUOUS
10
5.3164224803149605
20
-4.0543231102362203
11
5.3150177559055116
21
-4.054422952755905
0
LINE
8
BLACK
6
CONTINUOUS
10
5.3150177559055116
20
-4.054422952755905
11
5.3139538582677162
21
-4.0535002362204722
0
LINE
8
BLACK
6
CONTINUOUS
10
5.3139538582677162
20
-4.0535002362204722
11
5.3138540157480314
21
-4.0520955118110233
0
LINE
8
BLACK
6
CONTINUOUS
10
5.3138540157480314
20
-4.0520955118110233
11
5.3159653149606294
21
-4.0457615748031497
0
LINE
8
BLACK
6
CONTINUOUS
10
5.3159653149606294
20
-4.0457615748031497
11
5.3159653149606294
21
-4.035466023622047
0
LINE
8
BLACK
6
CONTINUOUS
10
5.3159653149606294
20
-4.035466023622047
11
5.3140873622047247
21
-4.0317101574803145
0
LINE
8
BLACK
6
CONTINUOUS
10
5.3140873622047247
20
-4.0317101574803145
11
5.312303937007874
21
-4.0299266929133859
0
LINE
8
BLACK
6
CONTINUOUS
10
5.312303937007874
20
-4.0299266929133859
11
5.3085480708661414
21
-4.028048779527559
0
LINE
8
BLACK
6
CONTINUOUS
10
5.3085480708661414
20
-4.028048779527559
11
5.3050053937007871
21
-4.028048779527559
0
LINE
8
BLACK
6
CONTINUOUS
10
5.3050053937007871
20
-4.028048779527559
11
5.3012495275590554
21
-4.0299266929133859
0
LINE
8
BLACK
6
CONTINUOUS
10
5.3012495275590554
20
-4.0299266929133859
11
5.299466062992126
21
-4.0317101181102357
0
LINE
8
BLACK
6
CONTINUOUS
10
5.299466062992126
20
-4.0317101181102357
11
5.2974842519685037
21
-4.0356738188976378
0
LINE
8
BLACK
6
CONTINUOUS
10
5.2974842519685037
20
-4.0356738188976378
11
5.2953275196850393
21
-4.0443007480314961
0
LINE
8
BLACK
6
CONTINUOUS
10
5.2953275196850393
20
-4.0443007480314961
11
5.2952029921259838
21
-4.0444687795275591
0
LINE
8
BLACK
6
CONTINUOUS
10
5.2952029921259838
20
-4.0444687795275591
11
5.2951881889763781
21
-4.0446773228346453
0
LINE
8
BLACK
6
CONTINUOUS
10
5.2951881889763781
20
-4.0446773228346453
11
5.2929824803149605
21
-4.0490888188976379
0
LINE
8
BLACK
6
CONTINUOUS
10
5.2929824803149605
20
-4.0490888188976379
11
5.292753661417323
21
-4.0492872047244095
0
LINE
8
BLACK
6
CONTINUOUS
10
5.292753661417323
20
-4.0492872047244095
11
5.2926377952755903
21
-4.0495670472440946
0
LINE
8
BLACK
6
CONTINUOUS
10
5.2926377952755903
20
-4.0495670472440946
11
5.2904320866141727
21
-4.0517727165354334
0
LINE
8
BLACK
6
CONTINUOUS
10
5.2904320866141727
20
-4.0517727165354334
11
5.2901523228346452
21
-4.0518885826771651
0
LINE
8
BLACK
6
CONTINUOUS
10
5.2901523228346452
20
-4.0518885826771651
11
5.2899538976377949
21
-4.0521174015748027
0
LINE
8
BLACK
6
CONTINUOUS
10
5.2899538976377949
20
-4.0521174015748027
11
5.2855424803149607
21
-4.0543231102362203
0
LINE
8
BLACK
6
CONTINUOUS
10
5.2855424803149607
20
-4.0543231102362203
11
5.2851152755905515
21
-4.05435342519685
0
LINE
8
BLACK
6
CONTINUOUS
10
5.2851152755905515
20
-4.05435342519685
11
5.2847196062992126
21
-4.0545173622047246
0
LINE
8
BLACK
6
CONTINUOUS
10
5.2847196062992126
20
-4.0545173622047246
11
5.2803081496062987
21
-4.0545173622047246
0
LINE
8
BLACK
6
CONTINUOUS
10
5.2803081496062987
20
-4.0545173622047246
11
5.2799124409448819
21
-4.05435342519685
0
LINE
8
BLACK
6
CONTINUOUS
10
5.2799124409448819
20
-4.05435342519685
11
5.2794852755905515
21
-4.0543231102362203
0
LINE
8
BLACK
6
CONTINUOUS
10
5.2794852755905515
20
-4.0543231102362203
11
5.2750738582677164
21
-4.0521174015748027
0
LINE
8
BLACK
6
CONTINUOUS
10
5.2750738582677164
20
-4.0521174015748027
11
5.274875433070866
21
-4.0518885826771651
0
LINE
8
BLACK
6
CONTINUOUS
10
5.274875433070866
20
-4.0518885826771651
11
5.2745956299212597
21
-4.0517727165354334
0
LINE
8
BLACK
6
CONTINUOUS
10
5.2745956299212597
20
-4.0517727165354334
11
5.2723899606299209
21
-4.0495670078740158
0
LINE
8
BLACK
6
CONTINUOUS
10
5.2723899606299209
20
-4.0495670078740158
11
5.2722740551181104
21
-4.0492872440944883
0
LINE
8
BLACK
6
CONTINUOUS
10
5.2722740551181104
20
-4.0492872440944883
11
5.2720452755905507
21
-4.0490888188976379
0
LINE
8
BLACK
6
CONTINUOUS
10
5.2720452755905507
20
-4.0490888188976379
11
5.269839566929134
21
-4.0446773622047241
0
LINE
8
BLACK
6
CONTINUOUS
10
5.269839566929134
20
-4.0446773622047241
11
5.2698092125984255
21
-4.0442501574803149
0
LINE
8
BLACK
6
CONTINUOUS
10
5.2698092125984255
20
-4.0442501574803149
11
5.2696453149606297
21
-4.043854488188976
0
LINE
8
BLACK
6
CONTINUOUS
10
5.2696453149606297
20
-4.043854488188976
11
5.2696453149606297
21
-4.0328259448818899
0
LINE
8
BLACK
6
CONTINUOUS
10
5.2696453149606297
20
-4.0328259448818899
11
5.2697611811023624
21
-4.0325461417322837
0
LINE
8
BLACK
6
CONTINUOUS
10
5.2697611811023624
20
-4.0325461417322837
11
5.2697397244094484
21
-4.0322440944881892
0
LINE
8
BLACK
6
CONTINUOUS
10
5.2697397244094484
20
-4.0322440944881892
11
5.2719454330708659
21
-4.025626889763779
0
LINE
8
BLACK
6
CONTINUOUS
10
5.2719454330708659
20
-4.025626889763779
11
5.2728681496062988
21
-4.0245630314960632
0
LINE
8
BLACK
6
CONTINUOUS
10
5.2728681496062988
20
-4.0245630314960632
11
5.2742728740157476
21
-4.0244631889763776
0
LINE
8
BLACK
6
CONTINUOUS
10
5.2742728740157476
20
-4.0244631889763776
11
5.2753367716535431
21
-4.0253859055118113
0
LINE
8
BLACK
6
CONTINUOUS
10
5.2753367716535431
20
-4.0253859055118113
11
5.2754366141732278
21
-4.0267906299212601
0
LINE
8
BLACK
6
CONTINUOUS
10
5.2754366141732278
20
-4.0267906299212601
11
5.2733253149606298
21
-4.033124527559055
0
LINE
8
BLACK
6
CONTINUOUS
10
5.2733253149606298
20
-4.033124527559055
11
5.2733253149606298
21
-4.0434201181102365
0
LINE
8
BLACK
6
CONTINUOUS
10
5.2733253149606298
20
-4.0434201181102365
11
5.2752032283464567
21
-4.0471759842519681
0
LINE
8
BLACK
6
CONTINUOUS
10
5.2752032283464567
20
-4.0471759842519681
11
5.2769866535433065
21
-4.0489594094488188
0
LINE
8
BLACK
6
CONTINUOUS
10
5.2769866535433065
20
-4.0489594094488188
11
5.280742519685039
21
-4.0508373622047245
0
LINE
8
BLACK
6
CONTINUOUS
10
5.280742519685039
20
-4.0508373622047245
11
5.2842852362204722
21
-4.0508373622047245
0
LINE
8
BLACK
6
CONTINUOUS
10
5.2842852362204722
20
-4.0508373622047245
11
5.2880411023622047
21
-4.0489594094488188
0
LINE
8
BLACK
6
CONTINUOUS
10
5.2880411023622047
20
-4.0489594094488188
11
5.2898244881889767
21
-4.0471759842519681
0
LINE
8
BLACK
6
CONTINUOUS
10
5.2898244881889767
20
-4.0471759842519681
11
5.291806299212598
21
-4.0432123228346457
0
LINE
8
BLACK
6
CONTINUOUS
10
5.291806299212598
20
-4.0432123228346457
11
5.293963070866142
21
-4.0345853937007874
0
LINE
8
BLACK
6
CONTINUOUS
10
5.293963070866142
20
-4.0345853937007874
11
5.294087559055118
21
-4.0344173228346456
0
LINE
8
BLACK
6
CONTINUOUS
10
5.294087559055118
20
-4.0344173228346456
11
5.2941024015748033
21
-4.0342087795275585
0
LINE
8
BLACK
6
CONTINUOUS
10
5.2941024015748033
20
-4.0342087795275585
11
5.2963081102362199
21
-4.0297973622047243
0
LINE
8
BLACK
6
CONTINUOUS
10
5.2963081102362199
20
-4.0297973622047243
11
5.2965368897637797
21
-4.0295988976377952
0
LINE
8
BLACK
6
CONTINUOUS
10
5.2965368897637797
20
-4.0295988976377952
11
5.2966527952755902
21
-4.0293191732283464
0
LINE
8
BLACK
6
CONTINUOUS
10
5.2966527952755902
20
-4.0293191732283464
11
5.2988585433070865
21
-4.0271133858267714
0
LINE
8
BLACK
6
CONTINUOUS
10
5.2988585433070865
20
-4.0271133858267714
11
5.299138307086614
21
-4.0269974803149609
0
LINE
8
BLACK
6
CONTINUOUS
10
5.299138307086614
20
-4.0269974803149609
11
5.2993367322834644
21
-4.0267687401574799
0
LINE
8
BLACK
6
CONTINUOUS
10
5.2993367322834644
20
-4.0267687401574799
11
5.3037481496062995
21
-4.0245630314960632
0
LINE
8
BLACK
6
CONTINUOUS
10
5.3037481496062995
20
-4.0245630314960632
11
5.3041753149606299
21
-4.0245326771653547
0
LINE
8
BLACK
6
CONTINUOUS
10
5.3041753149606299
20
-4.0245326771653547
11
5.3045710236220467
21
-4.0243687795275589
0
LINE
8
BLACK
6
CONTINUOUS
10
5.3045710236220467
20
-4.0243687795275589
11
5.3089824409448818
21
-4.0243687795275589
0
LINE
8
BLACK
6
CONTINUOUS
10
5.3089824409448818
20
-4.0243687795275589
11
5.3093781102362207
21
-4.0245326771653547
0
LINE
8
BLACK
6
CONTINUOUS
10
6.573539763779527
20
-4.0047526377952751
11
6.5739091732283459
21
-4.0047264173228347
0
LINE
8
BLACK
6
CONTINUOUS
10
6.5739091732283459
20
-4.0047264173228347
11
6.5804091732283467
21
-4.00689311023622
0
LINE
8
BLACK
6
CONTINUOUS
10
6.5804091732283467
20
-4.00689311023622
11
6.580804803149606
21
-4.007236220472441
0
LINE
8
BLACK
6
CONTINUOUS
10
6.580804803149606
20
-4.007236220472441
11
6.5812886220472437
21
-4.0074366535433068
0
LINE
8
BLACK
6
CONTINUOUS
10
6.5812886220472437
20
-4.0074366535433068
11
6.6034476377952753
21
-4.0295956692913384
0
LINE
8
BLACK
6
CONTINUOUS
10
6.6034476377952753
20
-4.0295956692913384
11
6.6034476377952753
21
-4.0068609448818897
0
LINE
8
BLACK
6
CONTINUOUS
10
6.6034476377952753
20
-4.0068609448818897
11
6.6041066535433073
21
-4.0052699606299216
0
LINE
8
BLACK
6
CONTINUOUS
10
6.6041066535433073
20
-4.0052699606299216
11
6.6056976377952754
21
-4.0046109448818896
0
LINE
8
BLACK
6
CONTINUOUS
10
6.6056976377952754
20
-4.0046109448818896
11
6.6072886220472435
21
-4.0052699606299216
0
LINE
8
BLACK
6
CONTINUOUS
10
6.6072886220472435
20
-4.0052699606299216
11
6.6079476377952755
21
-4.0068609448818897
0
LINE
8
BLACK
6
CONTINUOUS
10
6.6079476377952755
20
-4.0068609448818897
11
6.6079476377952755
21
-4.0350276377952756
0
LINE
8
BLACK
6
CONTINUOUS
10
6.6079476377952755
20
-4.0350276377952756
11
6.6072886220472435
21
-4.0366186220472438
0
LINE
8
BLACK
6
CONTINUOUS
10
6.6072886220472435
20
-4.0366186220472438
11
6.6056976377952754
21
-4.0372776377952757
0
LINE
8
BLACK
6
CONTINUOUS
10
6.6056976377952754
20
-4.0372776377952757
11
6.6041066535433073
21
-4.0366186220472438
0
LINE
8
BLACK
6
CONTINUOUS
10
6.6041066535433073
20
-4.0366186220472438
11
6.5784822047244091
21
-4.0109941732283465
0
LINE
8
BLACK
6
CONTINUOUS
10
6.5784822047244091
20
-4.0109941732283465
11
6.572832519685039
21
-4.0091109448818898
0
LINE
8
BLACK
6
CONTINUOUS
10
6.572832519685039
20
-4.0091109448818898
11
6.5693954330708664
21
-4.0091109448818898
0
LINE
8
BLACK
6
CONTINUOUS
10
6.5693954330708664
20
-4.0091109448818898
11
6.5658638188976379
21
-4.0108767322834646
0
LINE
8
BLACK
6
CONTINUOUS
10
6.5658638188976379
20
-4.0108767322834646
11
6.5642133858267719
21
-4.0125272047244094
0
LINE
8
BLACK
6
CONTINUOUS
10
6.5642133858267719
20
-4.0125272047244094
11
6.5624476377952758
21
-4.0160587795275591
0
LINE
8
BLACK
6
CONTINUOUS
10
6.5624476377952758
20
-4.0160587795275591
11
6.5624476377952758
21
-4.0258297637795275
0
LINE
8
BLACK
6
CONTINUOUS
10
6.5624476377952758
20
-4.0258297637795275
11
6.5642133858267719
21
-4.0293613385826772
0
LINE
8
BLACK
6
CONTINUOUS
10
6.5642133858267719
20
-4.0293613385826772
11
6.5661219685039365
21
-4.0312699212598426
0
LINE
8
BLACK
6
CONTINUOUS
10
6.5661219685039365
20
-4.0312699212598426
11
6.5667809842519684
21
-4.0328609055118108
0
LINE
8
BLACK
6
CONTINUOUS
10
6.5667809842519684
20
-4.0328609055118108
11
6.5661219685039365
21
-4.0344519291338585
0
LINE
8
BLACK
6
CONTINUOUS
10
6.5661219685039365
20
-4.0344519291338585
11
6.5645309842519683
21
-4.0351109448818896
0
LINE
8
BLACK
6
CONTINUOUS
10
6.5645309842519683
20
-4.0351109448818896
11
6.5629400000000002
21
-4.0344519291338585
0
LINE
8
BLACK
6
CONTINUOUS
10
6.5629400000000002
20
-4.0344519291338585
11
6.5607733070866141
21
-4.0322853149606299
0
LINE
8
BLACK
6
CONTINUOUS
10
6.5607733070866141
20
-4.0322853149606299
11
6.5606315748031498
21
-4.031943149606299
0
LINE
8
BLACK
6
CONTINUOUS
10
6.5606315748031498
20
-4.031943149606299
11
6.5603518110236223
21
-4.0317005118110236
0
LINE
8
BLACK
6
CONTINUOUS
10
6.5603518110236223
20
-4.0317005118110236
11
6.5581851574803149
21
-4.027367165354331
0
LINE
8
BLACK
6
CONTINUOUS
10
6.5581851574803149
20
-4.027367165354331
11
6.5581480314960627
21
-4.0268447244094485
0
LINE
8
BLACK
6
CONTINUOUS
10
6.5581480314960627
20
-4.0268447244094485
11
6.5579476377952757
21
-4.0263609448818896
0
LINE
8
BLACK
6
CONTINUOUS
10
6.5579476377952757
20
-4.0263609448818896
11
6.5579476377952757
21
-4.0155276377952758
0
LINE
8
BLACK
6
CONTINUOUS
10
6.5579476377952757
20
-4.0155276377952758
11
6.5581480314960627
21
-4.0150438188976381
0
LINE
8
BLACK
6
CONTINUOUS
10
6.5581480314960627
20
-4.0150438188976381
11
6.5581851574803149
21
-4.0145214173228343
0
LINE
8
BLACK
6
CONTINUOUS
10
6.5581851574803149
20
-4.0145214173228343
11
6.5603518110236223
21
-4.0101880708661417
0
LINE
8
BLACK
6
CONTINUOUS
10
6.5603518110236223
20
-4.0101880708661417
11
6.5606315748031498
21
-4.0099453937007876
0
LINE
8
BLACK
6
CONTINUOUS
10
6.5606315748031498
20
-4.0099453937007876
11
6.5607733070866141
21
-4.0096032677165354
0
LINE
8
BLACK
6
CONTINUOUS
10
6.5607733070866141
20
-4.0096032677165354
11
6.5629400000000002
21
-4.0074366535433068
0
LINE
8
BLACK
6
CONTINUOUS
10
6.5629400000000002
20
-4.0074366535433068
11
6.5632820866141728
21
-4.0072949212598425
0
LINE
8
BLACK
6
CONTINUOUS
10
6.5632820866141728
20
-4.0072949212598425
11
6.563524724409449
21
-4.0070151968503938
0
LINE
8
BLACK
6
CONTINUOUS
10
6.563524724409449
20
-4.0070151968503938
11
6.5678580314960628
21
-4.0048485039370076
0
LINE
8
BLACK
6
CONTINUOUS
10
6.5678580314960628
20
-4.0048485039370076
11
6.568380393700787
21
-4.0048113385826767
0
LINE
8
BLACK
6
CONTINUOUS
10
6.568380393700787
20
-4.0048113385826767
11
6.5688642913385822
21
-4.0046109448818896
0
LINE
8
BLACK
6
CONTINUOUS
10
6.5688642913385822
20
-4.0046109448818896
11
6.5731976377952757
21
-4.0046109448818896
0
LINE
8
BLACK
6
CONTINUOUS
10
6.5731976377952757
20
-4.0046109448818896
11
6.573539763779527
21
-4.0047526377952751
0
LINE
8
BLACK
6
CONTINUOUS
10
5.2873209842519682
20
-3.9782126771653541
11
5.2877481889763782
21
-3.9782430314960631
0
LINE
8
BLACK
6
CONTINUOUS
10
5.2877481889763782
20
-3.9782430314960631
11
5.2921596062992124
21
-3.9804487401574802
0
LINE
8
BLACK
6
CONTINUOUS
10
5.2921596062992124
20
-3.9804487401574802
11
5.2923580314960628
21
-3.9806775196850395
0
LINE
8
BLACK
6
CONTINUOUS
10
5.2923580314960628
20
-3.9806775196850395
11
5.2926377952755903
21
-3.9807934251968504
0
LINE
8
BLACK
6
CONTINUOUS
10
5.2926377952755903
20
-3.9807934251968504
11
5.2948435039370079
21
-3.9829990944881888
0
LINE
8
BLACK
6
CONTINUOUS
10
5.2948435039370079
20
-3.9829990944881888
11
5.2949593700787396
21
-3.9832788976377951
0
LINE
8
BLACK
6
CONTINUOUS
10
5.2949593700787396
20
-3.9832788976377951
11
5.2951881889763781
21
-3.9834773228346454
0
LINE
8
BLACK
6
CONTINUOUS
10
5.2951881889763781
20
-3.9834773228346454
11
5.2973938976377948
21
-3.9878888188976376
0
LINE
8
BLACK
6
CONTINUOUS
10
5.2973938976377948
20
-3.9878888188976376
11
5.2974242125984254
21
-3.9883159448818897
0
LINE
8
BLACK
6
CONTINUOUS
10
5.2974242125984254
20
-3.9883159448818897
11
5.2975881496062991
21
-3.9887116535433069
0
LINE
8
BLACK
6
CONTINUOUS
10
5.2975881496062991
20
-3.9887116535433069
11
5.2975881496062991
21
-4.0045173622047248
0
LINE
8
BLACK
6
CONTINUOUS
10
5.2975881496062991
20
-4.0045173622047248
11
5.3178053149606299
21
-4.0045173622047248
0
LINE
8
BLACK
6
CONTINUOUS
10
5.3178053149606299
20
-4.0045173622047248
11
5.3191063779527559
21
-4.0050562992125984
0
LINE
8
BLACK
6
CONTINUOUS
10
5.3191063779527559
20
-4.0050562992125984
11
5.3196453149606295
21
-4.0063573622047244
0
LINE
8
BLACK
6
CONTINUOUS
10
5.3196453149606295
20
-4.0063573622047244
11
5.3191063779527559
21
-4.0076584251968503
0
LINE
8
BLACK
6
CONTINUOUS
10
5.3191063779527559
20
-4.0076584251968503
11
5.3178053149606299
21
-4.008197362204724
0
LINE
8
BLACK
6
CONTINUOUS
10
5.3178053149606299
20
-4.008197362204724
11
5.2957481496062995
21
-4.008197362204724
0
LINE
8
BLACK
6
CONTINUOUS
10
5.2957481496062995
20
-4.008197362204724
11
5.2714853149606302
21
-4.008197362204724
0
LINE
8
BLACK
6
CONTINUOUS
10
5.2714853149606302
20
-4.008197362204724
11
5.2701842519685034
21
-4.0076584251968503
0
LINE
8
BLACK
6
CONTINUOUS
10
5.2701842519685034
20
-4.0076584251968503
11
5.2696453149606297
21
-4.0063573622047244
0
LINE
8
BLACK
6
CONTINUOUS
10
5.2696453149606297
20
-4.0063573622047244
11
5.2696453149606297
21
-3.9887116535433069
0
LINE
8
BLACK
6
CONTINUOUS
10
5.2696453149606297
20
-3.9887116535433069
11
5.2698092125984255
21
-3.9883159448818897
0
LINE
8
BLACK
6
CONTINUOUS
10
5.2698092125984255
20
-3.9883159448818897
11
5.269839566929134
21
-3.9878887795275588
0
LINE
8
BLACK
6
CONTINUOUS
10
5.269839566929134
20
-3.9878887795275588
11
5.2720452755905507
21
-3.9834773228346454
0
LINE
8
BLACK
6
CONTINUOUS
10
5.2720452755905507
20
-3.9834773228346454
11
5.2722740551181104
21
-3.9832788582677163
0
LINE
8
BLACK
6
CONTINUOUS
10
5.2722740551181104
20
-3.9832788582677163
11
5.2723899606299209
21
-3.9829991338582675
0
LINE
8
BLACK
6
CONTINUOUS
10
5.2723899606299209
20
-3.9829991338582675
11
5.2745956299212597
21
-3.9807934251968504
0
LINE
8
BLACK
6
CONTINUOUS
10
5.2745956299212597
20
-3.9807934251968504
11
5.274875433070866
21
-3.9806775196850395
0
LINE
8
BLACK
6
CONTINUOUS
10
5.274875433070866
20
-3.9806775196850395
11
5.2750738582677164
21
-3.9804487401574802
0
LINE
8
BLACK
6
CONTINUOUS
10
5.2750738582677164
20
-3.9804487401574802
11
5.2794852755905515
21
-3.9782430314960631
0
LINE
8
BLACK
6
CONTINUOUS
10
5.2794852755905515
20
-3.9782430314960631
11
5.2799124409448819
21
-3.9782126771653541
0
LINE
8
BLACK
6
CONTINUOUS
10
5.2799124409448819
20
-3.9782126771653541
11
5.2803081496062987
21
-3.9780487795275588
0
LINE
8
BLACK
6
CONTINUOUS
10
5.2803081496062987
20
-3.9780487795275588
11
5.2869253149606301
21
-3.9780487795275588
0
LINE
8
BLACK
6
CONTINUOUS
10
5.2869253149606301
20
-3.9780487795275588
11
5.2873209842519682
21
-3.9782126771653541
0
LINE
8
BLACK
6
CONTINUOUS
10
5.2769866535433065
20
-3.9836066929133858
11
5.2752032283464567
21
-3.985390118110236
0
LINE
8
BLACK
6
CONTINUOUS
10
5.2752032283464567
20
-3.985390118110236
11
5.2733253149606298
21
-3.9891459842519685
0
LINE
8
BLACK
6
CONTINUOUS
10
5.2733253149606298
20
-3.9891459842519685
11
5.2733253149606298
21
-4.0045173622047248
0
LINE
8
BLACK
6
CONTINUOUS
10
5.2733253149606298
20
-4.0045173622047248
11
5.293908149606299
21
-4.0045173622047248
0
LINE
8
BLACK
6
CONTINUOUS
10
5.293908149606299
20
-4.0045173622047248
11
5.293908149606299
21
-3.9891459842519685
0
LINE
8
BLACK
6
CONTINUOUS
10
5.293908149606299
20
-3.9891459842519685
11
5.2920301968503933
21
-3.985390118110236
0
LINE
8
BLACK
6
CONTINUOUS
10
5.2920301968503933
20
-3.985390118110236
11
5.2902468110236223
21
-3.9836066929133858
0
LINE
8
BLACK
6
CONTINUOUS
10
5.2902468110236223
20
-3.9836066929133858
11
5.2864909448818898
21
-3.9817287795275589
0
LINE
8
BLACK
6
CONTINUOUS
10
5.2864909448818898
20
-3.9817287795275589
11
5.280742519685039
21
-3.9817287795275589
0
LINE
8
BLACK
6
CONTINUOUS
10
5.280742519685039
20
-3.9817287795275589
11
5.2769866535433065
21
-3.9836066929133858
0
LINE
8
BLACK
6
CONTINUOUS
10
6.5065
20
-3.9920314960629919
11
6.4864999999999995
21
-3.9920314960629919
0
LINE
8
BLACK
6
CONTINUOUS
10
6.4864999999999995
20
-3.9920314960629919
11
6.4864999999999995
21
-3.9720314960629919
0
LINE
8
BLACK
6
CONTINUOUS
10
6.4864999999999995
20
-3.9720314960629919
11
6.5065
21
-3.9720314960629919
0
LINE
8
BLACK
6
CONTINUOUS
10
6.5065
20
-3.9720314960629919
11
6.5065
21
-3.9920314960629919
0
LINE
8
BLACK
6
CONTINUOUS
10
5.3191063779527559
20
-3.9366791338582678
11
5.3196453149606295
21
-3.9379801968503938
0
LINE
8
BLACK
6
CONTINUOUS
10
5.3196453149606295
20
-3.9379801968503938
11
5.3196453149606295
21
-3.9600373622047242
0
LINE
8
BLACK
6
CONTINUOUS
10
5.3196453149606295
20
-3.9600373622047242
11
5.3191063779527559
21
-3.9613384251968502
0
LINE
8
BLACK
6
CONTINUOUS
10
5.3191063779527559
20
-3.9613384251968502
11
5.3178053149606299
21
-3.9618773622047243
0
LINE
8
BLACK
6
CONTINUOUS
10
5.3178053149606299
20
-3.9618773622047243
11
5.2935424409448819
21
-3.9618773622047243
0
LINE
8
BLACK
6
CONTINUOUS
10
5.2935424409448819
20
-3.9618773622047243
11
5.2714853149606302
21
-3.9618773622047243
0
LINE
8
BLACK
6
CONTINUOUS
10
5.2714853149606302
20
-3.9618773622047243
11
5.2701842519685034
21
-3.9613384251968502
0
LINE
8
BLACK
6
CONTINUOUS
10
5.2701842519685034
20
-3.9613384251968502
11
5.2696453149606297
21
-3.9600373622047242
0
LINE
8
BLACK
6
CONTINUOUS
10
5.2696453149606297
20
-3.9600373622047242
11
5.2696453149606297
21
-3.9379801968503938
0
LINE
8
BLACK
6
CONTINUOUS
10
5.2696453149606297
20
-3.9379801968503938
11
5.2701842519685034
21
-3.9366791338582678
0
LINE
8
BLACK
6
CONTINUOUS
10
5.2701842519685034
20
-3.9366791338582678
11
5.2714853149606302
21
-3.9361401968503937
0
LINE
8
BLACK
6
CONTINUOUS
10
5.2714853149606302
20
-3.9361401968503937
11
5.2727863779527562
21
-3.9366791338582678
0
LINE
8
BLACK
6
CONTINUOUS
10
5.2727863779527562
20
-3.9366791338582678
11
5.2733253149606298
21
-3.9379801968503938
0
LINE
8
BLACK
6
CONTINUOUS
10
5.2733253149606298
20
-3.9379801968503938
11
5.2733253149606298
21
-3.9581973622047242
0
LINE
8
BLACK
6
CONTINUOUS
10
5.2733253149606298
20
-3.9581973622047242
11
5.2917024409448814
21
-3.9581973622047242
0
LINE
8
BLACK
6
CONTINUOUS
10
5.2917024409448814
20
-3.9581973622047242
11
5.2917024409448814
21
-3.9445973622047243
0
LINE
8
BLACK
6
CONTINUOUS
10
5.2917024409448814
20
-3.9445973622047243
11
5.292241377952756
21
-3.9432962992125984
0
LINE
8
BLACK
6
CONTINUOUS
10
5.292241377952756
20
-3.9432962992125984
11
5.2935424409448819
21
-3.9427573622047243
0
LINE
8
BLACK
6
CONTINUOUS
10
5.2935424409448819
20
-3.9427573622047243
11
5.2948435039370079
21
-3.9432962992125984
0
LINE
8
BLACK
6
CONTINUOUS
10
5.2948435039370079
20
-3.9432962992125984
11
5.2953824409448815
21
-3.9445973622047243
0
LINE
8
BLACK
6
CONTINUOUS
10
5.2953824409448815
20
-3.9445973622047243
11
5.2953824409448815
21
-3.9581973622047242
0
LINE
8
BLACK
6
CONTINUOUS
10
5.2953824409448815
20
-3.9581973622047242
11
5.3159653149606294
21
-3.9581973622047242
0
LINE
8
BLACK
6
CONTINUOUS
10
5.3159653149606294
20
-3.9581973622047242
11
5.3159653149606294
21
-3.9379801968503938
0
LINE
8
BLACK
6
CONTINUOUS
10
5.3159653149606294
20
-3.9379801968503938
11
5.316504251968504
21
-3.9366791338582678
0
LINE
8
BLACK
6
CONTINUOUS
10
5.316504251968504
20
-3.9366791338582678
11
5.3178053149606299
21
-3.9361401968503937
0
LINE
8
BLACK
6
CONTINUOUS
10
5.3178053149606299
20
-3.9361401968503937
11
5.3191063779527559
21
-3.9366791338582678
0
LINE
8
BLACK
6
CONTINUOUS
10
5.314694921259842
20
-3.890359094488189
11
5.3169006692913383
21
-3.8925648031496061
0
LINE
8
BLACK
6
CONTINUOUS
10
5.3169006692913383
20
-3.8925648031496061
11
5.3170645669291341
21
-3.8929605118110233
0
LINE
8
BLACK
6
CONTINUOUS
10
5.3170645669291341
20
-3.8929605118110233
11
5.3173451968503933
21
-3.89328405511811
0
LINE
8
BLACK
6
CONTINUOUS
10
5.3173451968503933
20
-3.89328405511811
11
5.3195509055118109
21
-3.899901220472441
0
LINE
8
BLACK
6
CONTINUOUS
10
5.3195509055118109
20
-3.899901220472441
11
5.319529409448819
21
-3.9002033070866142
0
LINE
8
BLACK
6
CONTINUOUS
10
5.319529409448819
20
-3.9002033070866142
11
5.3196453149606295
21
-3.9004830708661418
0
LINE
8
BLACK
6
CONTINUOUS
10
5.3196453149606295
20
-3.9004830708661418
11
5.3196453149606295
21
-3.9048944881889764
0
LINE
8
BLACK
6
CONTINUOUS
10
5.3196453149606295
20
-3.9048944881889764
11
5.319529409448819
21
-3.9051742125984252
0
LINE
8
BLACK
6
CONTINUOUS
10
5.319529409448819
20
-3.9051742125984252
11
5.3195509055118109
21
-3.9054763385826772
0
LINE
8
BLACK
6
CONTINUOUS
10
5.3195509055118109
20
-3.9054763385826772
11
5.3173451968503933
21
-3.912093464566929
0
LINE
8
BLACK
6
CONTINUOUS
10
5.3173451968503933
20
-3.912093464566929
11
5.3170644881889766
21
-3.9124170472440944
0
LINE
8
BLACK
6
CONTINUOUS
10
5.3170644881889766
20
-3.9124170472440944
11
5.3169006692913383
21
-3.9128126771653542
0
LINE
8
BLACK
6
CONTINUOUS
10
5.3169006692913383
20
-3.9128126771653542
11
5.3124892125984253
21
-3.9172241338582676
0
LINE
8
BLACK
6
CONTINUOUS
10
5.3124892125984253
20
-3.9172241338582676
11
5.3122094488188978
21
-3.9173399999999998
0
LINE
8
BLACK
6
CONTINUOUS
10
5.3122094488188978
20
-3.9173399999999998
11
5.3120110236220475
21
-3.9175688188976379
0
LINE
8
BLACK
6
CONTINUOUS
10
5.3120110236220475
20
-3.9175688188976379
11
5.3075996062992123
21
-3.919774527559055
0
LINE
8
BLACK
6
CONTINUOUS
10
5.3075996062992123
20
-3.919774527559055
11
5.3073910236220474
21
-3.9197893307086615
0
LINE
8
BLACK
6
CONTINUOUS
10
5.3073910236220474
20
-3.9197893307086615
11
5.3072229921259844
21
-3.9199138582677167
0
LINE
8
BLACK
6
CONTINUOUS
10
5.3072229921259844
20
-3.9199138582677167
11
5.2984001181102363
21
-3.9221195669291338
0
LINE
8
BLACK
6
CONTINUOUS
10
5.2984001181102363
20
-3.9221195669291338
11
5.298169330708661
21
-3.9220851968503938
0
LINE
8
BLACK
6
CONTINUOUS
10
5.298169330708661
20
-3.9220851968503938
11
5.2979538582677161
21
-3.9221744881889764
0
LINE
8
BLACK
6
CONTINUOUS
10
5.2979538582677161
20
-3.9221744881889764
11
5.2913367322834644
21
-3.9221744881889764
0
LINE
8
BLACK
6
CONTINUOUS
10
5.2913367322834644
20
-3.9221744881889764
11
5.2911212204724407
21
-3.9220851968503938
0
LINE
8
BLACK
6
CONTINUOUS
10
5.2911212204724407
20
-3.9220851968503938
11
5.2908904724409451
21
-3.9221195669291338
0
LINE
8
BLACK
6
CONTINUOUS
10
5.2908904724409451
20
-3.9221195669291338
11
5.282067598425197
21
-3.9199138582677167
0
LINE
8
BLACK
6
CONTINUOUS
10
5.282067598425197
20
-3.9199138582677167
11
5.2818995275590552
21
-3.9197893307086615
0
LINE
8
BLACK
6
CONTINUOUS
10
5.2818995275590552
20
-3.9197893307086615
11
5.2816909842519681
21
-3.919774527559055
0
LINE
8
BLACK
6
CONTINUOUS
10
5.2816909842519681
20
-3.919774527559055
11
5.2772795669291339
21
-3.9175688188976379
0
LINE
8
BLACK
6
CONTINUOUS
10
5.2772795669291339
20
-3.9175688188976379
11
5.2770811417322836
21
-3.9173399999999998
0
LINE
8
BLACK
6
CONTINUOUS
10
5.2770811417322836
20
-3.9173399999999998
11
5.2768013385826773
21
-3.9172241338582676
0
LINE
8
BLACK
6
CONTINUOUS
10
5.2768013385826773
20
-3.9172241338582676
11
5.2723899606299209
21
-3.9128126771653542
0
LINE
8
BLACK
6
CONTINUOUS
10
5.2723899606299209
20
-3.9128126771653542
11
5.2722261023622048
21
-3.9124170866141732
0
LINE
8
BLACK
6
CONTINUOUS
10
5.2722261023622048
20
-3.9124170866141732
11
5.2719454330708659
21
-3.9120935039370077
0
LINE
8
BLACK
6
CONTINUOUS
10
5.2719454330708659
20
-3.9120935039370077
11
5.2697397244094484
21
-3.9054763385826772
0
LINE
8
BLACK
6
CONTINUOUS
10
5.2697397244094484
20
-3.9054763385826772
11
5.2697611811023624
21
-3.9051742125984252
0
LINE
8
BLACK
6
CONTINUOUS
10
5.2697611811023624
20
-3.9051742125984252
11
5.2696453149606297
21
-3.9048944881889764
0
LINE
8
BLACK
6
CONTINUOUS
10
5.2696453149606297
20
-3.9048944881889764
11
5.2696453149606297
21
-3.9004830708661418
0
LINE
8
BLACK
6
CONTINUOUS
10
5.2696453149606297
20
-3.9004830708661418
11
5.2697611811023624
21
-3.9002032677165355
0
LINE
8
BLACK
6
CONTINUOUS
10
5.2697611811023624
20
-3.9002032677165355
11
5.2697397244094484
21
-3.899901220472441
0
LINE
8
BLACK
6
CONTINUOUS
10
5.2697397244094484
20
-3.899901220472441
11
5.2719454330708659
21
-3.8932840157480313
0
LINE
8
BLACK
6
CONTINUOUS
10
5.2719454330708659
20
-3.8932840157480313
11
5.2722261023622048
21
-3.8929603937007875
0
LINE
8
BLACK
6
CONTINUOUS
10
5.2722261023622048
20
-3.8929603937007875
11
5.2723899606299209
21
-3.8925648425196848
0
LINE
8
BLACK
6
CONTINUOUS
10
5.2723899606299209
20
-3.8925648425196848
11
5.2745956299212597
21
-3.8903591338582677
0
LINE
8
BLACK
6
CONTINUOUS
10
5.2745956299212597
20
-3.8903591338582677
11
5.2758967322834645
21
-3.8898202362204723
0
LINE
8
BLACK
6
CONTINUOUS
10
5.2758967322834645
20
-3.8898202362204723
11
5.2771977952755904
21
-3.8903591338582677
0
LINE
8
BLACK
6
CONTINUOUS
10
5.2771977952755904
20
-3.8903591338582677
11
5.2777366929133853
21
-3.8916601968503937
0
LINE
8
BLACK
6
CONTINUOUS
10
5.2777366929133853
20
-3.8916601968503937
11
5.2771977952755904
21
-3.8929612992125984
0
LINE
8
BLACK
6
CONTINUOUS
10
5.2771977952755904
20
-3.8929612992125984
11
5.2752992519685042
21
-3.8948597637795275
0
LINE
8
BLACK
6
CONTINUOUS
10
5.2752992519685042
20
-3.8948597637795275
11
5.2733253149606298
21
-3.9007816535433069
0
LINE
8
BLACK
6
CONTINUOUS
10
5.2733253149606298
20
-3.9007816535433069
11
5.2733253149606298
21
-3.9045958661417322
0
LINE
8
BLACK
6
CONTINUOUS
10
5.2733253149606298
20
-3.9045958661417322
11
5.2752992519685042
21
-3.9105177165354328
0
LINE
8
BLACK
6
CONTINUOUS
10
5.2752992519685042
20
-3.9105177165354328
11
5.2791923228346453
21
-3.9144108267716535
0
LINE
8
BLACK
6
CONTINUOUS
10
5.2791923228346453
20
-3.9144108267716535
11
5.2831559842519686
21
-3.9163926377952754
0
LINE
8
BLACK
6
CONTINUOUS
10
5.2831559842519686
20
-3.9163926377952754
11
5.2915633070866139
21
-3.9184944881889763
0
LINE
8
BLACK
6
CONTINUOUS
10
5.2915633070866139
20
-3.9184944881889763
11
5.2977272834645666
21
-3.9184944881889763
0
LINE
8
BLACK
6
CONTINUOUS
10
5.2977272834645666
20
-3.9184944881889763
11
5.306134566929134
21
-3.9163926377952754
0
LINE
8
BLACK
6
CONTINUOUS
10
5.306134566929134
20
-3.9163926377952754
11
5.3100982677165351
21
-3.9144108267716535
0
LINE
8
BLACK
6
CONTINUOUS
10
5.3100982677165351
20
-3.9144108267716535
11
5.3139913385826771
21
-3.9105177165354328
0
LINE
8
BLACK
6
CONTINUOUS
10
5.3139913385826771
20
-3.9105177165354328
11
5.3159653149606294
21
-3.9045958267716534
0
LINE
8
BLACK
6
CONTINUOUS
10
5.3159653149606294
20
-3.9045958267716534
11
5.3159653149606294
21
-3.9007816929133856
0
LINE
8
BLACK
6
CONTINUOUS
10
5.3159653149606294
20
-3.9007816929133856
11
5.3139913779527559
21
-3.894859842519685
0
LINE
8
BLACK
6
CONTINUOUS
10
5.3139913779527559
20
-3.894859842519685
11
5.3120927952755901
21
-3.8929612992125984
0
LINE
8
BLACK
6
CONTINUOUS
10
5.3120927952755901
20
-3.8929612992125984
11
5.3115538582677164
21
-3.8916601968503937
0
LINE
8
BLACK
6
CONTINUOUS
10
5.3115538582677164
20
-3.8916601968503937
11
5.3120927559055113
21
-3.8903591338582677
0
LINE
8
BLACK
6
CONTINUOUS
10
5.3120927559055113
20
-3.8903591338582677
11
5.313393858267716
21
-3.8898201968503936
0
LINE
8
BLACK
6
CONTINUOUS
10
5.313393858267716
20
-3.8898201968503936
11
5.314694921259842
21
-3.890359094488189
0
LINE
8
BLACK
6
CONTINUOUS
10
5.3235177952755901
20
-3.8462448425196851
11
5.3240567322834647
21
-3.8475459055118111
0
LINE
8
BLACK
6
CONTINUOUS
10
5.3240567322834647
20
-3.8475459055118111
11
5.3240567322834647
21
-3.8828373622047243
0
LINE
8
BLACK
6
CONTINUOUS
10
5.3240567322834647
20
-3.8828373622047243
11
5.3235177952755901
21
-3.8841384251968503
0
LINE
8
BLACK
6
CONTINUOUS
10
5.3235177952755901
20
-3.8841384251968503
11
5.3222167322834641
21
-3.8846773622047244
0
LINE
8
BLACK
6
CONTINUOUS
10
5.3222167322834641
20
-3.8846773622047244
11
5.3209156692913382
21
-3.8841384251968503
0
LINE
8
BLACK
6
CONTINUOUS
10
5.3209156692913382
20
-3.8841384251968503
11
5.3203767322834645
21
-3.8828373622047243
0
LINE
8
BLACK
6
CONTINUOUS
10
5.3203767322834645
20
-3.8828373622047243
11
5.3203767322834645
21
-3.8475459055118111
0
LINE
8
BLACK
6
CONTINUOUS
10
5.3203767322834645
20
-3.8475459055118111
11
5.3209156692913382
21
-3.8462448425196851
0
LINE
8
BLACK
6
CONTINUOUS
10
5.3209156692913382
20
-3.8462448425196851
11
5.3222167322834641
21
-3.845705905511811
0
LINE
8
BLACK
6
CONTINUOUS
10
5.3222167322834641
20
-3.845705905511811
11
5.3235177952755901
21
-3.8462448425196851
0
LINE
8
BLACK
6
CONTINUOUS
10
5.2829095275590552
20
-3.8105783858267714
11
5.2833367322834643
21
-3.8106087401574804
0
LINE
8
BLACK
6
CONTINUOUS
10
5.2833367322834643
20
-3.8106087401574804
11
5.2877481889763782
21
-3.8128144488188975
0
LINE
8
BLACK
6
CONTINUOUS
10
5.2877481889763782
20
-3.8128144488188975
11
5.2879466141732285
21
-3.8130432283464568
0
LINE
8
BLACK
6
CONTINUOUS
10
5.2879466141732285
20
-3.8130432283464568
11
5.2882264173228348
21
-3.8131591338582678
0
LINE
8
BLACK
6
CONTINUOUS
10
5.2882264173228348
20
-3.8131591338582678
11
5.2904321259842515
21
-3.8153648818897636
0
LINE
8
BLACK
6
CONTINUOUS
10
5.2904321259842515
20
-3.8153648818897636
11
5.2905479921259841
21
-3.8156446456692912
0
LINE
8
BLACK
6
CONTINUOUS
10
5.2905479921259841
20
-3.8156446456692912
11
5.290776771653543
21
-3.8158430708661415
0
LINE
8
BLACK
6
CONTINUOUS
10
5.290776771653543
20
-3.8158430708661415
11
5.2913367322834644
21
-3.8169629921259842
0
LINE
8
BLACK
6
CONTINUOUS
10
5.2913367322834644
20
-3.8169629921259842
11
5.2918966929133857
21
-3.8158430708661415
0
LINE
8
BLACK
6
CONTINUOUS
10
5.2918966929133857
20
-3.8158430708661415
11
5.2921254330708658
21
-3.8156446456692912
0
LINE
8
BLACK
6
CONTINUOUS
10
5.2921254330708658
20
-3.8156446456692912
11
5.2922413385826772
21
-3.8153648818897636
0
LINE
8
BLACK
6
CONTINUOUS
10
5.2922413385826772
20
-3.8153648818897636
11
5.2944470472440948
21
-3.8131591338582678
0
LINE
8
BLACK
6
CONTINUOUS
10
5.2944470472440948
20
-3.8131591338582678
11
5.2947268503937011
21
-3.8130432283464568
0
LINE
8
BLACK
6
CONTINUOUS
10
5.2947268503937011
20
-3.8130432283464568
11
5.2949252755905514
21
-3.8128144488188975
0
LINE
8
BLACK
6
CONTINUOUS
10
5.2949252755905514
20
-3.8128144488188975
11
5.2993367716535431
21
-3.8106087401574804
0
LINE
8
BLACK
6
CONTINUOUS
10
5.2993367716535431
20
-3.8106087401574804
11
5.2997638976377948
21
-3.8105783858267714
0
LINE
8
BLACK
6
CONTINUOUS
10
5.2997638976377948
20
-3.8105783858267714
11
5.3001596062992125
21
-3.8104144881889761
0
LINE
8
BLACK
6
CONTINUOUS
10
5.3001596062992125
20
-3.8104144881889761
11
5.3089824409448818
21
-3.8104144881889761
0
LINE
8
BLACK
6
CONTINUOUS
10
5.3089824409448818
20
-3.8104144881889761
11
5.3093781102362207
21
-3.8105783858267714
0
LINE
8
BLACK
6
CONTINUOUS
10
5.3093781102362207
20
-3.8105783858267714
11
5.3098053149606299
21
-3.8106087401574804
0
LINE
8
BLACK
6
CONTINUOUS
10
5.3098053149606299
20
-3.8106087401574804
11
5.3142167322834641
21
-3.8128144488188975
0
LINE
8
BLACK
6
CONTINUOUS
10
5.3142167322834641
20
-3.8128144488188975
11
5.3144151574803145
21
-3.8130432283464568
0
LINE
8
BLACK
6
CONTINUOUS
10
5.3144151574803145
20
-3.8130432283464568
11
5.314694921259842
21
-3.8131591338582678
0
LINE
8
BLACK
6
CONTINUOUS
10
5.314694921259842
20
-3.8131591338582678
11
5.3169007086614171
21
-3.8153648818897636
0
LINE
8
BLACK
6
CONTINUOUS
10
5.3169007086614171
20
-3.8153648818897636
11
5.3170165748031497
21
-3.8156446456692912
0
LINE
8
BLACK
6
CONTINUOUS
10
5.3170165748031497
20
-3.8156446456692912
11
5.3172453543307086
21
-3.8158430708661415
0
LINE
8
BLACK
6
CONTINUOUS
10
5.3172453543307086
20
-3.8158430708661415
11
5.3194510629921261
21
-3.8202544881889762
0
LINE
8
BLACK
6
CONTINUOUS
10
5.3194510629921261
20
-3.8202544881889762
11
5.3194813779527559
21
-3.820681653543307
0
LINE
8
BLACK
6
CONTINUOUS
10
5.3194813779527559
20
-3.820681653543307
11
5.3196453149606295
21
-3.8210773622047243
0
LINE
8
BLACK
6
CONTINUOUS
10
5.3196453149606295
20
-3.8210773622047243
11
5.3196453149606295
21
-3.8299001968503936
0
LINE
8
BLACK
6
CONTINUOUS
10
5.3196453149606295
20
-3.8299001968503936
11
5.3194813779527559
21
-3.8302958661417321
0
LINE
8
BLACK
6
CONTINUOUS
10
5.3194813779527559
20
-3.8302958661417321
11
5.3194510629921261
21
-3.830723031496063
0
LINE
8
BLACK
6
CONTINUOUS
10
5.3194510629921261
20
-3.830723031496063
11
5.3172453543307086
21
-3.8351345275590552
0
LINE
8
BLACK
6
CONTINUOUS
10
5.3172453543307086
20
-3.8351345275590552
11
5.317016535433071
21
-3.8353329133858267
0
LINE
8
BLACK
6
CONTINUOUS
10
5.317016535433071
20
-3.8353329133858267
11
5.3169006692913383
21
-3.8356127559055118
0
LINE
8
BLACK
6
CONTINUOUS
10
5.3169006692913383
20
-3.8356127559055118
11
5.314694921259842
21
-3.8378184645669289
0
LINE
8
BLACK
6
CONTINUOUS
10
5.314694921259842
20
-3.8378184645669289
11
5.3144151181102357
21
-3.8379343307086615
0
LINE
8
BLACK
6
CONTINUOUS
10
5.3144151181102357
20
-3.8379343307086615
11
5.3142167322834641
21
-3.8381631102362204
0
LINE
8
BLACK
6
CONTINUOUS
10
5.3142167322834641
20
-3.8381631102362204
11
5.3098053149606299
21
-3.8403688188976379
0
LINE
8
BLACK
6
CONTINUOUS
10
5.3098053149606299
20
-3.8403688188976379
11
5.3093781102362207
21
-3.8403991338582677
0
LINE
8
BLACK
6
CONTINUOUS
10
5.3093781102362207
20
-3.8403991338582677
11
5.3089824409448818
21
-3.8405630708661418
0
LINE
8
BLACK
6
CONTINUOUS
10
5.3089824409448818
20
-3.8405630708661418
11
5.3001596062992125
21
-3.8405630708661418
0
LINE
8
BLACK
6
CONTINUOUS
10
5.3001596062992125
20
-3.8405630708661418
11
5.2997638976377948
21
-3.8403991338582677
0
LINE
8
BLACK
6
CONTINUOUS
10
5.2997638976377948
20
-3.8403991338582677
11
5.2993367716535431
21
-3.8403688188976379
0
LINE
8
BLACK
6
CONTINUOUS
10
5.2993367716535431
20
-3.8403688188976379
11
5.2949252755905514
21
-3.8381631102362204
0
LINE
8
BLACK
6
CONTINUOUS
10
5.2949252755905514
20
-3.8381631102362204
11
5.2947268503937011
21
-3.8379342913385828
0
LINE
8
BLACK
6
CONTINUOUS
10
5.2947268503937011
20
-3.8379342913385828
11
5.2944470472440948
21
-3.8378184251968501
0
LINE
8
BLACK
6
CONTINUOUS
10
5.2944470472440948
20
-3.8378184251968501
11
5.292241377952756
21
-3.835612716535433
0
LINE
8
BLACK
6
CONTINUOUS
10
5.292241377952756
20
-3.835612716535433
11
5.2921254724409446
21
-3.8353329527559055
0
LINE
8
BLACK
6
CONTINUOUS
10
5.2921254724409446
20
-3.8353329527559055
11
5.2918966929133857
21
-3.8351345275590552
0
LINE
8
BLACK
6
CONTINUOUS
10
5.2918966929133857
20
-3.8351345275590552
11
5.2913366929133856
21
-3.8340145669291337
0
LINE
8
BLACK
6
CONTINUOUS
10
5.2913366929133856
20
-3.8340145669291337
11
5.290776771653543
21
-3.8351345275590552
0
LINE
8
BLACK
6
CONTINUOUS
10
5.290776771653543
20
-3.8351345275590552
11
5.2905479527559054
21
-3.8353329133858267
0
LINE
8
BLACK
6
CONTINUOUS
10
5.2905479527559054
20
-3.8353329133858267
11
5.2904320866141727
21
-3.8356127559055118
0
LINE
8
BLACK
6
CONTINUOUS
10
5.2904320866141727
20
-3.8356127559055118
11
5.2882263779527561
21
-3.8378184251968501
0
LINE
8
BLACK
6
CONTINUOUS
10
5.2882263779527561
20
-3.8378184251968501
11
5.2879466141732285
21
-3.8379342913385828
0
LINE
8
BLACK
6
CONTINUOUS
10
5.2879466141732285
20
-3.8379342913385828
11
5.2877481889763782
21
-3.8381631102362204
0
LINE
8
BLACK
6
CONTINUOUS
10
5.2877481889763782
20
-3.8381631102362204
11
5.2833367322834643
21
-3.8403688188976379
0
LINE
8
BLACK
6
CONTINUOUS
10
5.2833367322834643
20
-3.8403688188976379
11
5.2829095275590552
21
-3.8403991338582677
0
LINE
8
BLACK
6
CONTINUOUS
10
5.2829095275590552
20
-3.8403991338582677
11
5.2825138582677162
21
-3.8405630708661418
0
LINE
8
BLACK
6
CONTINUOUS
10
5.2825138582677162
20
-3.8405630708661418
11
5.2803081496062987
21
-3.8405630708661418
0
LINE
8
BLACK
6
CONTINUOUS
10
5.2803081496062987
20
-3.8405630708661418
11
5.2799124409448819
21
-3.8403991338582677
0
LINE
8
BLACK
6
CONTINUOUS
10
5.2799124409448819
20
-3.8403991338582677
11
5.2794852755905515
21
-3.8403688188976379
0
LINE
8
BLACK
6
CONTINUOUS
10
5.2794852755905515
20
-3.8403688188976379
11
5.2750738582677164
21
-3.8381631102362204
0
LINE
8
BLACK
6
CONTINUOUS
10
5.2750738582677164
20
-3.8381631102362204
11
5.274875433070866
21
-3.8379342913385828
0
LINE
8
BLACK
6
CONTINUOUS
10
5.274875433070866
20
-3.8379342913385828
11
5.2745956299212597
21
-3.8378184251968501
0
LINE
8
BLACK
6
CONTINUOUS
10
5.2745956299212597
20
-3.8378184251968501
11
5.2723899606299209
21
-3.835612716535433
0
LINE
8
BLACK
6
CONTINUOUS
10
5.2723899606299209
20
-3.835612716535433
11
5.2722740551181104
21
-3.8353329527559055
0
LINE
8
BLACK
6
CONTINUOUS
10
5.2722740551181104
20
-3.8353329527559055
11
5.2720452755905507
21
-3.8351345275590552
0
LINE
8
BLACK
6
CONTINUOUS
10
5.2720452755905507
20
-3.8351345275590552
11
5.269839566929134
21
-3.8307230708661417
0
LINE
8
BLACK
6
CONTINUOUS
10
5.269839566929134
20
-3.8307230708661417
11
5.2698092125984255
21
-3.8302958661417321
0
LINE
8
BLACK
6
CONTINUOUS
10
5.2698092125984255
20
-3.8302958661417321
11
5.2696453149606297
21
-3.8299001968503936
0
LINE
8
BLACK
6
CONTINUOUS
10
5.2696453149606297
20
-3.8299001968503936
11
5.2696453149606297
21
-3.8210773622047243
0
LINE
8
BLACK
6
CONTINUOUS
10
5.2696453149606297
20
-3.8210773622047243
11
5.2698092125984255
21
-3.820681653543307
0
LINE
8
BLACK
6
CONTINUOUS
10
5.2698092125984255
20
-3.820681653543307
11
5.269839566929134
21
-3.8202544881889762
0
LINE
8
BLACK
6
CONTINUOUS
10
5.269839566929134
20
-3.8202544881889762
11
5.2720452755905507
21
-3.8158430708661415
0
LINE
8
BLACK
6
CONTINUOUS
10
5.2720452755905507
20
-3.8158430708661415
11
5.2722740157480317
21
-3.8156446456692912
0
LINE
8
BLACK
6
CONTINUOUS
10
5.2722740157480317
20
-3.8156446456692912
11
5.2723899212598422
21
-3.8153648818897636
0
LINE
8
BLACK
6
CONTINUOUS
10
5.2723899212598422
20
-3.8153648818897636
11
5.2745956299212597
21
-3.8131591338582678
0
LINE
8
BLACK
6
CONTINUOUS
10
5.2745956299212597
20
-3.8131591338582678
11
5.274875433070866
21
-3.8130432283464568
0
LINE
8
BLACK
6
CONTINUOUS
10
5.274875433070866
20
-3.8130432283464568
11
5.2750738582677164
21
-3.8128144488188975
0
LINE
8
BLACK
6
CONTINUOUS
10
5.2750738582677164
20
-3.8128144488188975
11
5.2794852755905515
21
-3.8106087401574804
0
LINE
8
BLACK
6
CONTINUOUS
10
5.2794852755905515
20
-3.8106087401574804
11
5.2799124409448819
21
-3.8105783858267714
0
LINE
8
BLACK
6
CONTINUOUS
10
5.2799124409448819
20
-3.8105783858267714
11
5.2803081496062987
21
-3.8104144881889761
0
LINE
8
BLACK
6
CONTINUOUS
10
5.2803081496062987
20
-3.8104144881889761
11
5.2825138582677162
21
-3.8104144881889761
0
LINE
8
BLACK
6
CONTINUOUS
10
5.2825138582677162
20
-3.8104144881889761
11
5.2829095275590552
21
-3.8105783858267714
0
LINE
8
BLACK
6
CONTINUOUS
10
5.2769866929133853
20
-3.8159723622047244
11
5.2752032283464567
21
-3.8177558661417321
0
LINE
8
BLACK
6
CONTINUOUS
10
5.2752032283464567
20
-3.8177558661417321
11
5.2733253149606298
21
-3.8215117322834646
0
LINE
8
BLACK
6
CONTINUOUS
10
5.2733253149606298
20
-3.8215117322834646
11
5.2733253149606298
21
-3.8294658267716533
0
LINE
8
BLACK
6
CONTINUOUS
10
5.2733253149606298
20
-3.8294658267716533
11
5.2752032283464567
21
-3.8332216929133858
0
LINE
8
BLACK
6
CONTINUOUS
10
5.2752032283464567
20
-3.8332216929133858
11
5.2769866535433065
21
-3.835005118110236
0
LINE
8
BLACK
6
CONTINUOUS
10
5.2769866535433065
20
-3.835005118110236
11
5.280742519685039
21
-3.8368830708661417
0
LINE
8
BLACK
6
CONTINUOUS
10
5.280742519685039
20
-3.8368830708661417
11
5.2820794881889759
21
-3.8368830708661417
0
LINE
8
BLACK
6
CONTINUOUS
10
5.2820794881889759
20
-3.8368830708661417
11
5.2858353543307084
21
-3.835005118110236
0
LINE
8
BLACK
6
CONTINUOUS
10
5.2858353543307084
20
-3.835005118110236
11
5.2876187795275591
21
-3.8332216929133858
0
LINE
8
BLACK
6
CONTINUOUS
10
5.2876187795275591
20
-3.8332216929133858
11
5.2894967322834647
21
-3.8294658267716533
0
LINE
8
BLACK
6
CONTINUOUS
10
5.2894967322834647
20
-3.8294658267716533
11
5.2894967322834647
21
-3.8215117322834646
0
LINE
8
BLACK
6
CONTINUOUS
10
5.2894967322834647
20
-3.8215117322834646
11
5.2876187795275591
21
-3.8177558661417321
0
LINE
8
BLACK
6
CONTINUOUS
10
5.2876187795275591
20
-3.8177558661417321
11
5.2858352755905509
21
-3.8159723622047244
0
LINE
8
BLACK
6
CONTINUOUS
10
5.2858352755905509
20
-3.8159723622047244
11
5.2820794881889759
21
-3.8140944881889762
0
LINE
8
BLACK
6
CONTINUOUS
10
5.2820794881889759
20
-3.8140944881889762
11
5.280742519685039
21
-3.8140944881889762
0
LINE
8
BLACK
6
CONTINUOUS
10
5.280742519685039
20
-3.8140944881889762
11
5.2769866929133853
21
-3.8159723622047244
0
LINE
8
BLACK
6
CONTINUOUS
10
5.2968381102362203
20
-3.8159723622047244
11
5.2950546456692908
21
-3.8177558661417321
0
LINE
8
BLACK
6
CONTINUOUS
10
5.2950546456692908
20
-3.8177558661417321
11
5.2931767322834649
21
-3.8215117322834646
0
LINE
8
BLACK
6
CONTINUOUS
10
5.2931767322834649
20
-3.8215117322834646
11
5.2931767322834649
21
-3.8294658267716533
0
LINE
8
BLACK
6
CONTINUOUS
10
5.2931767322834649
20
-3.8294658267716533
11
5.2950546456692908
21
-3.8332216929133858
0
LINE
8
BLACK
6
CONTINUOUS
10
5.2950546456692908
20
-3.8332216929133858
11
5.2968380708661416
21
-3.835005118110236
0
LINE
8
BLACK
6
CONTINUOUS
10
5.2968380708661416
20
-3.835005118110236
11
5.3005939763779528
21
-3.8368830708661417
0
LINE
8
BLACK
6
CONTINUOUS
10
5.3005939763779528
20
-3.8368830708661417
11
5.3085480708661414
21
-3.8368830708661417
0
LINE
8
BLACK
6
CONTINUOUS
10
5.3085480708661414
20
-3.8368830708661417
11
5.3123038976377952
21
-3.835005118110236
0
LINE
8
BLACK
6
CONTINUOUS
10
5.3123038976377952
20
-3.835005118110236
11
5.3140874015748034
21
-3.833221653543307
0
LINE
8
BLACK
6
CONTINUOUS
10
5.3140874015748034
20
-3.833221653543307
11
5.3159653149606294
21
-3.8294658267716533
0
LINE
8
BLACK
6
CONTINUOUS
10
5.3159653149606294
20
-3.8294658267716533
11
5.3159653149606294
21
-3.8215117322834646
0
LINE
8
BLACK
6
CONTINUOUS
10
5.3159653149606294
20
-3.8215117322834646
11
5.3140873622047247
21
-3.8177558661417321
0
LINE
8
BLACK
6
CONTINUOUS
10
5.3140873622047247
20
-3.8177558661417321
11
5.312303937007874
21
-3.8159724015748031
0
LINE
8
BLACK
6
CONTINUOUS
10
5.312303937007874
20
-3.8159724015748031
11
5.3085480708661414
21
-3.8140944881889762
0
LINE
8
BLACK
6
CONTINUOUS
10
5.3085480708661414
20
-3.8140944881889762
11
5.3005939763779528
21
-3.8140944881889762
0
LINE
8
BLACK
6
CONTINUOUS
10
5.3005939763779528
20
-3.8140944881889762
11
5.2968381102362203
21
-3.8159723622047244
0
LINE
8
BLACK
6
CONTINUOUS
10
5.3003750787401573
20
-3.7663894488188974
11
5.3006058661417326
21
-3.7663551181102362
0
LINE
8
BLACK
6
CONTINUOUS
10
5.3006058661417326
20
-3.7663551181102362
11
5.309428700787401
21
-3.7685608267716533
0
LINE
8
BLACK
6
CONTINUOUS
10
5.309428700787401
20
-3.7685608267716533
11
5.3095967322834641
21
-3.7686853149606296
0
LINE
8
BLACK
6
CONTINUOUS
10
5.3095967322834641
20
-3.7686853149606296
11
5.3098053149606299
21
-3.7687001574803149
0
LINE
8
BLACK
6
CONTINUOUS
10
5.3098053149606299
20
-3.7687001574803149
11
5.3142167322834641
21
-3.7709059055118108
0
LINE
8
BLACK
6
CONTINUOUS
10
5.3142167322834641
20
-3.7709059055118108
11
5.3144151181102357
21
-3.7711346456692914
0
LINE
8
BLACK
6
CONTINUOUS
10
5.3144151181102357
20
-3.7711346456692914
11
5.314694921259842
21
-3.7712505511811023
0
LINE
8
BLACK
6
CONTINUOUS
10
5.314694921259842
20
-3.7712505511811023
11
5.3169006692913383
21
-3.7734562598425194
0
LINE
8
BLACK
6
CONTINUOUS
10
5.3169006692913383
20
-3.7734562598425194
11
5.317016535433071
21
-3.7737360629921257
0
LINE
8
BLACK
6
CONTINUOUS
10
5.317016535433071
20
-3.7737360629921257
11
5.3172453543307086
21
-3.7739344881889765
0
LINE
8
BLACK
6
CONTINUOUS
10
5.3172453543307086
20
-3.7739344881889765
11
5.3194510629921261
21
-3.7783459055118112
0
LINE
8
BLACK
6
CONTINUOUS
10
5.3194510629921261
20
-3.7783459055118112
11
5.3194813779527559
21
-3.7787730708661416
0
LINE
8
BLACK
6
CONTINUOUS
10
5.3194813779527559
20
-3.7787730708661416
11
5.3196453149606295
21
-3.7791687795275588
0
LINE
8
BLACK
6
CONTINUOUS
10
5.3196453149606295
20
-3.7791687795275588
11
5.3196453149606295
21
-3.7835801968503935
0
LINE
8
BLACK
6
CONTINUOUS
10
5.3196453149606295
20
-3.7835801968503935
11
5.3194813779527559
21
-3.783975866141732
0
LINE
8
BLACK
6
CONTINUOUS
10
5.3194813779527559
20
-3.783975866141732
11
5.3194510629921261
21
-3.7844030314960628
0
LINE
8
BLACK
6
CONTINUOUS
10
5.3194510629921261
20
-3.7844030314960628
11
5.3172453543307086
21
-3.788814527559055
0
LINE
8
BLACK
6
CONTINUOUS
10
5.3172453543307086
20
-3.788814527559055
11
5.317016535433071
21
-3.7890129133858266
0
LINE
8
BLACK
6
CONTINUOUS
10
5.317016535433071
20
-3.7890129133858266
11
5.3169006692913383
21
-3.7892927559055116
0
LINE
8
BLACK
6
CONTINUOUS
10
5.3169006692913383
20
-3.7892927559055116
11
5.314694921259842
21
-3.7914984645669292
0
LINE
8
BLACK
6
CONTINUOUS
10
5.314694921259842
20
-3.7914984645669292
11
5.3144151181102357
21
-3.7916143307086614
0
LINE
8
BLACK
6
CONTINUOUS
10
5.3144151181102357
20
-3.7916143307086614
11
5.3142167322834641
21
-3.7918431102362202
0
LINE
8
BLACK
6
CONTINUOUS
10
5.3142167322834641
20
-3.7918431102362202
11
5.3098053149606299
21
-3.7940488188976378
0
LINE
8
BLACK
6
CONTINUOUS
10
5.3098053149606299
20
-3.7940488188976378
11
5.3095967322834641
21
-3.7940636220472439
0
LINE
8
BLACK
6
CONTINUOUS
10
5.3095967322834641
20
-3.7940636220472439
11
5.309428700787401
21
-3.794188149606299
0
LINE
8
BLACK
6
CONTINUOUS
10
5.309428700787401
20
-3.794188149606299
11
5.3006058661417326
21
-3.7963938582677166
0
LINE
8
BLACK
6
CONTINUOUS
10
5.3006058661417326
20
-3.7963938582677166
11
5.3003750787401573
21
-3.7963594881889762
0
LINE
8
BLACK
6
CONTINUOUS
10
5.3003750787401573
20
-3.7963594881889762
11
5.3001596062992125
21
-3.7964487795275588
0
LINE
8
BLACK
6
CONTINUOUS
10
5.3001596062992125
20
-3.7964487795275588
11
5.2891310236220468
21
-3.7964487795275588
0
LINE
8
BLACK
6
CONTINUOUS
10
5.2891310236220468
20
-3.7964487795275588
11
5.2889155118110232
21
-3.7963594881889762
0
LINE
8
BLACK
6
CONTINUOUS
10
5.2889155118110232
20
-3.7963594881889762
11
5.2886847637795276
21
-3.7963938582677166
0
LINE
8
BLACK
6
CONTINUOUS
10
5.2886847637795276
20
-3.7963938582677166
11
5.2798618897637795
21
-3.794188149606299
0
LINE
8
BLACK
6
CONTINUOUS
10
5.2798618897637795
20
-3.794188149606299
11
5.2796938188976377
21
-3.7940636220472439
0
LINE
8
BLACK
6
CONTINUOUS
10
5.2796938188976377
20
-3.7940636220472439
11
5.2794852755905515
21
-3.7940488188976378
0
LINE
8
BLACK
6
CONTINUOUS
10
5.2794852755905515
20
-3.7940488188976378
11
5.2750738582677164
21
-3.7918431102362202
0
LINE
8
BLACK
6
CONTINUOUS
10
5.2750738582677164
20
-3.7918431102362202
11
5.274875433070866
21
-3.7916142913385826
0
LINE
8
BLACK
6
CONTINUOUS
10
5.274875433070866
20
-3.7916142913385826
11
5.2745956299212597
21
-3.7914984251968504
0
LINE
8
BLACK
6
CONTINUOUS
10
5.2745956299212597
20
-3.7914984251968504
11
5.2723899606299209
21
-3.7892927165354329
0
LINE
8
BLACK
6
CONTINUOUS
10
5.2723899606299209
20
-3.7892927165354329
11
5.2722740551181104
21
-3.7890129527559053
0
LINE
8
BLACK
6
CONTINUOUS
10
5.2722740551181104
20
-3.7890129527559053
11
5.2720452755905507
21
-3.788814527559055
0
LINE
8
BLACK
6
CONTINUOUS
10
5.2720452755905507
20
-3.788814527559055
11
5.269839566929134
21
-3.7844030708661416
0
LINE
8
BLACK
6
CONTINUOUS
10
5.269839566929134
20
-3.7844030708661416
11
5.2698092125984255
21
-3.783975866141732
0
LINE
8
BLACK
6
CONTINUOUS
10
5.2698092125984255
20
-3.783975866141732
11
5.2696453149606297
21
-3.7835801968503935
0
LINE
8
BLACK
6
CONTINUOUS
10
5.2696453149606297
20
-3.7835801968503935
11
5.2696453149606297
21
-3.7791687795275588
0
LINE
8
BLACK
6
CONTINUOUS
10
5.2696453149606297
20
-3.7791687795275588
11
5.2698092125984255
21
-3.7787730708661416
0
LINE
8
BLACK
6
CONTINUOUS
10
5.2698092125984255
20
-3.7787730708661416
11
5.269839566929134
21
-3.7783459055118112
0
LINE
8
BLACK
6
CONTINUOUS
10
5.269839566929134
20
-3.7783459055118112
11
5.2720452755905507
21
-3.7739344881889765
0
LINE
8
BLACK
6
CONTINUOUS
10
5.2720452755905507
20
-3.7739344881889765
11
5.2722740551181104
21
-3.773736023622047
0
LINE
8
BLACK
6
CONTINUOUS
10
5.2722740551181104
20
-3.773736023622047
11
5.2723899606299209
21
-3.7734562992125982
0
LINE
8
BLACK
6
CONTINUOUS
10
5.2723899606299209
20
-3.7734562992125982
11
5.2745956299212597
21
-3.7712505905511811
0
LINE
8
BLACK
6
CONTINUOUS
10
5.2745956299212597
20
-3.7712505905511811
11
5.274875433070866
21
-3.7711346850393701
0
LINE
8
BLACK
6
CONTINUOUS
10
5.274875433070866
20
-3.7711346850393701
11
5.2750738582677164
21
-3.7709059055118108
0
LINE
8
BLACK
6
CONTINUOUS
10
5.2750738582677164
20
-3.7709059055118108
11
5.2794852755905515
21
-3.7687001574803149
0
LINE
8
BLACK
6
CONTINUOUS
10
5.2794852755905515
20
-3.7687001574803149
11
5.2796938188976377
21
-3.7686853149606296
0
LINE
8
BLACK
6
CONTINUOUS
10
5.2796938188976377
20
-3.7686853149606296
11
5.2798618897637795
21
-3.7685608267716533
0
LINE
8
BLACK
6
CONTINUOUS
10
5.2798618897637795
20
-3.7685608267716533
11
5.2886847637795276
21
-3.7663551181102362
0
LINE
8
BLACK
6
CONTINUOUS
10
5.2886847637795276
20
-3.7663551181102362
11
5.2889155118110232
21
-3.7663894488188974
0
LINE
8
BLACK
6
CONTINUOUS
10
5.2889155118110232
20
-3.7663894488188974
11
5.2891310236220468
21
-3.7663001968503935
0
LINE
8
BLACK
6
CONTINUOUS
10
5.2891310236220468
20
-3.7663001968503935
11
5.3001596062992125
21
-3.7663001968503935
0
LINE
8
BLACK
6
CONTINUOUS
10
5.3001596062992125
20
-3.7663001968503935
11
5.3003750787401573
21
-3.7663894488188974
0
LINE
8
BLACK
6
CONTINUOUS
10
5.2809503149606298
20
-3.7720819685039371
11
5.2769866535433065
21
-3.7740638188976376
0
LINE
8
BLACK
6
CONTINUOUS
10
5.2769866535433065
20
-3.7740638188976376
11
5.2752032283464567
21
-3.7758472440944879
0
LINE
8
BLACK
6
CONTINUOUS
10
5.2752032283464567
20
-3.7758472440944879
11
5.2733253149606298
21
-3.7796031496062992
0
LINE
8
BLACK
6
CONTINUOUS
10
5.2733253149606298
20
-3.7796031496062992
11
5.2733253149606298
21
-3.7831458267716536
0
LINE
8
BLACK
6
CONTINUOUS
10
5.2733253149606298
20
-3.7831458267716536
11
5.2752032283464567
21
-3.7869016929133856
0
LINE
8
BLACK
6
CONTINUOUS
10
5.2752032283464567
20
-3.7869016929133856
11
5.2769866535433065
21
-3.7886851181102363
0
LINE
8
BLACK
6
CONTINUOUS
10
5.2769866535433065
20
-3.7886851181102363
11
5.2809502755905511
21
-3.7906669291338582
0
LINE
8
BLACK
6
CONTINUOUS
10
5.2809502755905511
20
-3.7906669291338582
11
5.2893575984251964
21
-3.7927687795275591
0
LINE
8
BLACK
6
CONTINUOUS
10
5.2893575984251964
20
-3.7927687795275591
11
5.2999330314960629
21
-3.7927687795275591
0
LINE
8
BLACK
6
CONTINUOUS
10
5.2999330314960629
20
-3.7927687795275591
11
5.3083402755905507
21
-3.7906669685039369
0
LINE
8
BLACK
6
CONTINUOUS
10
5.3083402755905507
20
-3.7906669685039369
11
5.3123038976377952
21
-3.7886851181102363
0
LINE
8
BLACK
6
CONTINUOUS
10
5.3123038976377952
20
-3.7886851181102363
11
5.3140874015748034
21
-3.7869016535433069
0
LINE
8
BLACK
6
CONTINUOUS
10
5.3140874015748034
20
-3.7869016535433069
11
5.3159653149606294
21
-3.7831458267716536
0
LINE
8
BLACK
6
CONTINUOUS
10
5.3159653149606294
20
-3.7831458267716536
11
5.3159653149606294
21
-3.7796031496062992
0
LINE
8
BLACK
6
CONTINUOUS
10
5.3159653149606294
20
-3.7796031496062992
11
5.3140874015748034
21
-3.7758473228346454
0
LINE
8
BLACK
6
CONTINUOUS
10
5.3140874015748034
20
-3.7758473228346454
11
5.3123038976377952
21
-3.7740638188976376
0
LINE
8
BLACK
6
CONTINUOUS
10
5.3123038976377952
20
-3.7740638188976376
11
5.3083402362204719
21
-3.7720819685039371
0
LINE
8
BLACK
6
CONTINUOUS
10
5.3083402362204719
20
-3.7720819685039371
11
5.2999330314960629
21
-3.7699801968503937
0
LINE
8
BLACK
6
CONTINUOUS
10
5.2999330314960629
20
-3.7699801968503937
11
5.2893575984251964
21
-3.7699801968503937
0
LINE
8
BLACK
6
CONTINUOUS
10
5.2893575984251964
20
-3.7699801968503937
11
5.2809503149606298
21
-3.7720819685039371
0
LINE
8
BLACK
6
CONTINUOUS
10
5.3093781102362207
20
-3.7223498031496063
11
5.3098053149606299
21
-3.7223801574803148
0
LINE
8
BLACK
6
CONTINUOUS
10
5.3098053149606299
20
-3.7223801574803148
11
5.3142167322834641
21
-3.7245858661417324
0
LINE
8
BLACK
6
CONTINUOUS
10
5.3142167322834641
20
-3.7245858661417324
11
5.3144151574803145
21
-3.7248146456692912
0
LINE
8
BLACK
6
CONTINUOUS
10
5.3144151574803145
20
-3.7248146456692912
11
5.314694921259842
21
-3.7249305511811022
0
LINE
8
BLACK
6
CONTINUOUS
10
5.314694921259842
20
-3.7249305511811022
11
5.3169007086614171
21
-3.7271362992125985
0
LINE
8
BLACK
6
CONTINUOUS
10
5.3169007086614171
20
-3.7271362992125985
11
5.3170165748031497
21
-3.727416062992126
0
LINE
8
BLACK
6
CONTINUOUS
10
5.3170165748031497
20
-3.727416062992126
11
5.3172453543307086
21
-3.7276144881889763
0
LINE
8
BLACK
6
CONTINUOUS
10
5.3172453543307086
20
-3.7276144881889763
11
5.3194510629921261
21
-3.732025905511811
0
LINE
8
BLACK
6
CONTINUOUS
10
5.3194510629921261
20
-3.732025905511811
11
5.3194813779527559
21
-3.7324530708661419
0
LINE
8
BLACK
6
CONTINUOUS
10
5.3194813779527559
20
-3.7324530708661419
11
5.3196453149606295
21
-3.7328487795275591
0
LINE
8
BLACK
6
CONTINUOUS
10
5.3196453149606295
20
-3.7328487795275591
11
5.3196453149606295
21
-3.7438773622047243
0
LINE
8
BLACK
6
CONTINUOUS
10
5.3196453149606295
20
-3.7438773622047243
11
5.3194813779527559
21
-3.7442730314960628
0
LINE
8
BLACK
6
CONTINUOUS
10
5.3194813779527559
20
-3.7442730314960628
11
5.3194510629921261
21
-3.7447002362204724
0
LINE
8
BLACK
6
CONTINUOUS
10
5.3194510629921261
20
-3.7447002362204724
11
5.3172453543307086
21
-3.7491116535433071
0
LINE
8
BLACK
6
CONTINUOUS
10
5.3172453543307086
20
-3.7491116535433071
11
5.317016535433071
21
-3.7493100393700787
0
LINE
8
BLACK
6
CONTINUOUS
10
5.317016535433071
20
-3.7493100393700787
11
5.3169006692913383
21
-3.7495898818897637
0
LINE
8
BLACK
6
CONTINUOUS
10
5.3169006692913383
20
-3.7495898818897637
11
5.314694921259842
21
-3.7517955905511808
0
LINE
8
BLACK
6
CONTINUOUS
10
5.314694921259842
20
-3.7517955905511808
11
5.313393858267716
21
-3.7523344881889762
0
LINE
8
BLACK
6
CONTINUOUS
10
5.313393858267716
20
-3.7523344881889762
11
5.3120927559055113
21
-3.7517955511811021
0
LINE
8
BLACK
6
CONTINUOUS
10
5.3120927559055113
20
-3.7517955511811021
11
5.3115538582677164
21
-3.7504944881889761
0
LINE
8
BLACK
6
CONTINUOUS
10
5.3115538582677164
20
-3.7504944881889761
11
5.3120927952755901
21
-3.7491933858267714
0
LINE
8
BLACK
6
CONTINUOUS
10
5.3120927952755901
20
-3.7491933858267714
11
5.3140874015748034
21
-3.747198779527559
0
LINE
8
BLACK
6
CONTINUOUS
10
5.3140874015748034
20
-3.747198779527559
11
5.3159653149606294
21
-3.743442992125984
0
LINE
8
BLACK
6
CONTINUOUS
10
5.3159653149606294
20
-3.743442992125984
11
5.3159653149606294
21
-3.733283149606299
0
LINE
8
BLACK
6
CONTINUOUS
10
5.3159653149606294
20
-3.733283149606299
11
5.3140873622047247
21
-3.729527283464567
0
LINE
8
BLACK
6
CONTINUOUS
10
5.3140873622047247
20
-3.729527283464567
11
5.312303937007874
21
-3.7277438188976375
0
LINE
8
BLACK
6
CONTINUOUS
10
5.312303937007874
20
-3.7277438188976375
11
5.3085480708661414
21
-3.7258659055118111
0
LINE
8
BLACK
6
CONTINUOUS
10
5.3085480708661414
20
-3.7258659055118111
11
5.2983882283464565
21
-3.7258659055118111
0
LINE
8
BLACK
6
CONTINUOUS
10
5.2983882283464565
20
-3.7258659055118111
11
5.2946324015748027
21
-3.7277437795275588
0
LINE
8
BLACK
6
CONTINUOUS
10
5.2946324015748027
20
-3.7277437795275588
11
5.2928489370078742
21
-3.729527283464567
0
LINE
8
BLACK
6
CONTINUOUS
10
5.2928489370078742
20
-3.729527283464567
11
5.2909710236220473
21
-3.733283149606299
0
LINE
8
BLACK
6
CONTINUOUS
10
5.2909710236220473
20
-3.733283149606299
11
5.2909710236220473
21
-3.743442992125984
0
LINE
8
BLACK
6
CONTINUOUS
10
5.2909710236220473
20
-3.743442992125984
11
5.2928489370078742
21
-3.7471988582677165
0
LINE
8
BLACK
6
CONTINUOUS
10
5.2928489370078742
20
-3.7471988582677165
11
5.2948435039370079
21
-3.7491933858267714
0
LINE
8
BLACK
6
CONTINUOUS
10
5.2948435039370079
20
-3.7491933858267714
11
5.2948807480314963
21
-3.7492833070866141
0
LINE
8
BLACK
6
CONTINUOUS
10
5.2948807480314963
20
-3.7492833070866141
11
5.2949664960629921
21
-3.7493293307086613
0
LINE
8
BLACK
6
CONTINUOUS
10
5.2949664960629921
20
-3.7493293307086613
11
5.295145433070866
21
-3.7499223622047242
0
LINE
8
BLACK
6
CONTINUOUS
10
5.295145433070866
20
-3.7499223622047242
11
5.2953824015748028
21
-3.7504944881889761
0
LINE
8
BLACK
6
CONTINUOUS
10
5.2953824015748028
20
-3.7504944881889761
11
5.2953451574803152
21
-3.7505843307086613
0
LINE
8
BLACK
6
CONTINUOUS
10
5.2953451574803152
20
-3.7505843307086613
11
5.2953733070866145
21
-3.7506775590551182
0
LINE
8
BLACK
6
CONTINUOUS
10
5.2953733070866145
20
-3.7506775590551182
11
5.2950804724409446
21
-3.7512233070866139
0
LINE
8
BLACK
6
CONTINUOUS
10
5.2950804724409446
20
-3.7512233070866139
11
5.2948435039370079
21
-3.7517955511811021
0
LINE
8
BLACK
6
CONTINUOUS
10
5.2948435039370079
20
-3.7517955511811021
11
5.2947535433070865
21
-3.7518327952755905
0
LINE
8
BLACK
6
CONTINUOUS
10
5.2947535433070865
20
-3.7518327952755905
11
5.2947075590551176
21
-3.7519185433070867
0
LINE
8
BLACK
6
CONTINUOUS
10
5.2947075590551176
20
-3.7519185433070867
11
5.2941145669291334
21
-3.752097440944882
0
LINE
8
BLACK
6
CONTINUOUS
10
5.2941145669291334
20
-3.752097440944882
11
5.2935424409448819
21
-3.7523344488188974
0
LINE
8
BLACK
6
CONTINUOUS
10
5.2935424409448819
20
-3.7523344488188974
11
5.293452559055118
21
-3.7522972047244094
0
LINE
8
BLACK
6
CONTINUOUS
10
5.293452559055118
20
-3.7522972047244094
11
5.293359330708661
21
-3.7523253543307087
0
LINE
8
BLACK
6
CONTINUOUS
10
5.293359330708661
20
-3.7523253543307087
11
5.2713022440944881
21
-3.7501196456692911
0
LINE
8
BLACK
6
CONTINUOUS
10
5.2713022440944881
20
-3.7501196456692911
11
5.2707564566929133
21
-3.7498268503937009
0
LINE
8
BLACK
6
CONTINUOUS
10
5.2707564566929133
20
-3.7498268503937009
11
5.2701842519685034
21
-3.749589842519685
0
LINE
8
BLACK
6
CONTINUOUS
10
5.2701842519685034
20
-3.749589842519685
11
5.2701470078740158
21
-3.7494999212598423
0
LINE
8
BLACK
6
CONTINUOUS
10
5.2701470078740158
20
-3.7494999212598423
11
5.2700612598425192
21
-3.7494539370078739
0
LINE
8
BLACK
6
CONTINUOUS
10
5.2700612598425192
20
-3.7494539370078739
11
5.2698823228346452
21
-3.7488610236220472
0
LINE
8
BLACK
6
CONTINUOUS
10
5.2698823228346452
20
-3.7488610236220472
11
5.2696453149606297
21
-3.748288779527559
0
LINE
8
BLACK
6
CONTINUOUS
10
5.2696453149606297
20
-3.748288779527559
11
5.2696453149606297
21
-3.7262316141732281
0
LINE
8
BLACK
6
CONTINUOUS
10
5.2696453149606297
20
-3.7262316141732281
11
5.2701842519685034
21
-3.7249305511811022
0
LINE
8
BLACK
6
CONTINUOUS
10
5.2701842519685034
20
-3.7249305511811022
11
5.2714853149606302
21
-3.7243916141732281
0
LINE
8
BLACK
6
CONTINUOUS
10
5.2714853149606302
20
-3.7243916141732281
11
5.2727863779527562
21
-3.7249305511811022
0
LINE
8
BLACK
6
CONTINUOUS
10
5.2727863779527562
20
-3.7249305511811022
11
5.2733253149606298
21
-3.7262316141732281
0
LINE
8
BLACK
6
CONTINUOUS
10
5.2733253149606298
20
-3.7262316141732281
11
5.2733253149606298
21
-3.7466235826771652
0
LINE
8
BLACK
6
CONTINUOUS
10
5.2733253149606298
20
-3.7466235826771652
11
5.2892428346456688
21
-3.7482153543307084
0
LINE
8
BLACK
6
CONTINUOUS
10
5.2892428346456688
20
-3.7482153543307084
11
5.2874852755905515
21
-3.7447002362204724
0
LINE
8
BLACK
6
CONTINUOUS
10
5.2874852755905515
20
-3.7447002362204724
11
5.2874549212598421
21
-3.7442730314960628
0
LINE
8
BLACK
6
CONTINUOUS
10
5.2874549212598421
20
-3.7442730314960628
11
5.2872910236220472
21
-3.7438773622047243
0
LINE
8
BLACK
6
CONTINUOUS
10
5.2872910236220472
20
-3.7438773622047243
11
5.2872910236220472
21
-3.7328487795275591
0
LINE
8
BLACK
6
CONTINUOUS
10
5.2872910236220472
20
-3.7328487795275591
11
5.2874549212598421
21
-3.7324530708661419
0
LINE
8
BLACK
6
CONTINUOUS
10
5.2874549212598421
20
-3.7324530708661419
11
5.2874852755905515
21
-3.732025905511811
0
LINE
8
BLACK
6
CONTINUOUS
10
5.2874852755905515
20
-3.732025905511811
11
5.2896909842519682
21
-3.7276144881889763
0
LINE
8
BLACK
6
CONTINUOUS
10
5.2896909842519682
20
-3.7276144881889763
11
5.2899197244094491
21
-3.727416062992126
0
LINE
8
BLACK
6
CONTINUOUS
10
5.2899197244094491
20
-3.727416062992126
11
5.2900356299212596
21
-3.7271362992125985
0
LINE
8
BLACK
6
CONTINUOUS
10
5.2900356299212596
20
-3.7271362992125985
11
5.2922413385826772
21
-3.7249305511811022
0
LINE
8
BLACK
6
CONTINUOUS
10
5.2922413385826772
20
-3.7249305511811022
11
5.2925211417322835
21
-3.7248146456692912
0
LINE
8
BLACK
6
CONTINUOUS
10
5.2925211417322835
20
-3.7248146456692912
11
5.2927195669291338
21
-3.7245858661417324
0
LINE
8
BLACK
6
CONTINUOUS
10
5.2927195669291338
20
-3.7245858661417324
11
5.297130984251968
21
-3.7223801574803148
0
LINE
8
BLACK
6
CONTINUOUS
10
5.297130984251968
20
-3.7223801574803148
11
5.2975581496062993
21
-3.7223498031496063
0
LINE
8
BLACK
6
CONTINUOUS
10
5.2975581496062993
20
-3.7223498031496063
11
5.2979538582677161
21
-3.7221859055118109
0
LINE
8
BLACK
6
CONTINUOUS
10
5.2979538582677161
20
-3.7221859055118109
11
5.3089824409448818
21
-3.7221859055118109
0
LINE
8
BLACK
6
CONTINUOUS
10
5.3089824409448818
20
-3.7221859055118109
11
5.3093781102362207
21
-3.7223498031496063
  0
ENDSEC
  0
EOF
