  0
SECTION
  2
HEADER
  9
$ANGBASE
  50
0.0
  9
$ANGDIR
  70
1
  9
$MEASUREMENT
  70
0
  0
ENDSEC
  0
SECTION
  2
TABLES
  0
TABLE
  2
LTYPE
  70
4
  0
LTYPE
  5
40F
  2
CONTINUOUS
  70
0
  3
Solid line
  72
65
  73
0
  40
0.0
  0
LTYPE
  5
410
  2
DASHDOT
 70
0
  3
Dash Dot ____ _ ____ _
 72
65
 73
4
 40
2.0
 49
1.25
 49
-0.25
 49
0.25
 49
-0.25
  0
LTYPE
  5
411
  2
DASHED
 70
0
  3
Dashed __ __ __ __ __
 72
65
 73
2
 40
0.75
 49
0.5
 49
-0.25
  0
LTYPE
  5
43B
  2
DOTTED
 70
0
  3
Dotted .  .  .  .
 72
65
 73
2
 40
0.2
 49
0.0
 49
-0.2
  0
ENDTAB
  0
TABLE
  2
STYLE
  70
4
  0
STYLE
  2
KICAD
  70
0
  40
0
  41
1
  42
1
  50
0
  71
0
  3
isocp.shx
  0
STYLE
  2
KICADB
  70
0
  40
0
  41
1
  42
1
  50
0
  71
0
  3
isocp.shx
  0
STYLE
  2
KICADI
  70
0
  40
0
  41
1
  42
1
  50
15
  71
0
  3
isocp.shx
  0
STYLE
  2
KICADBI
  70
0
  40
0
  41
1
  42
1
  50
15
  71
0
  3
isocp.shx
  0
ENDTAB
  0
TABLE
  2
LAYER
  70
1
  0
LAYER
  2
BLACK
  70
0
  62
7
  6
CONTINUOUS
  0
ENDTAB
  0
ENDSEC
  0
SECTION
  2
ENTITIES
0
LINE
8
BLACK
6
CONTINUOUS
10
5.2676934251968506
20
-4.4047257086614175
11
5.2815462204724408
21
-4.4077749606299212
0
LINE
8
BLACK
6
CONTINUOUS
10
5.2815462204724408
20
-4.4077749606299212
11
5.2949881102362202
21
-4.4123040551181099
0
LINE
8
BLACK
6
CONTINUOUS
10
5.2949881102362202
20
-4.4123040551181099
11
5.3078614960629924
21
-4.4182599212598426
0
LINE
8
BLACK
6
CONTINUOUS
10
5.3078614960629924
20
-4.4182599212598426
11
5.3200155118110235
21
-4.4255727559055114
0
LINE
8
BLACK
6
CONTINUOUS
10
5.3200155118110235
20
-4.4255727559055114
11
5.3313075984251963
21
-4.4341567716535435
0
LINE
8
BLACK
6
CONTINUOUS
10
5.3313075984251963
20
-4.4341567716535435
11
5.341605393700787
21
-4.4439113779527561
0
LINE
8
BLACK
6
CONTINUOUS
10
5.341605393700787
20
-4.4439113779527561
11
5.3507881889763782
21
-4.4547221653543305
0
LINE
8
BLACK
6
CONTINUOUS
10
5.3507881889763782
20
-4.4547221653543305
11
5.3587483070866142
21
-4.4664624409448814
0
LINE
8
BLACK
6
CONTINUOUS
10
5.3587483070866142
20
-4.4664624409448814
11
5.3653923622047239
21
-4.4789945275590552
0
LINE
8
BLACK
6
CONTINUOUS
10
5.3653923622047239
20
-4.4789945275590552
11
5.3706425590551179
21
-4.4921714960629924
0
LINE
8
BLACK
6
CONTINUOUS
10
5.3706425590551179
20
-4.4921714960629924
11
5.3744372834645668
21
-4.5058388582677162
0
LINE
8
BLACK
6
CONTINUOUS
10
5.3744372834645668
20
-4.5058388582677162
11
5.3767320866141732
21
-4.5198364173228347
0
LINE
8
BLACK
6
CONTINUOUS
10
5.3767320866141732
20
-4.5198364173228347
11
5.3774999999999995
21
-4.5339999999999998
0
LINE
8
BLACK
6
CONTINUOUS
10
5.3774999999999995
20
-4.5339999999999998
11
5.3767320866141732
21
-4.5481635826771649
0
LINE
8
BLACK
6
CONTINUOUS
10
5.3767320866141732
20
-4.5481635826771649
11
5.3744372834645668
21
-4.5621611417322834
0
LINE
8
BLACK
6
CONTINUOUS
10
5.3744372834645668
20
-4.5621611417322834
11
5.3706425590551179
21
-4.5758285039370081
0
LINE
8
BLACK
6
CONTINUOUS
10
5.3706425590551179
20
-4.5758285039370081
11
5.3653923622047239
21
-4.5890054724409444
0
LINE
8
BLACK
6
CONTINUOUS
10
5.3653923622047239
20
-4.5890054724409444
11
5.3587483070866142
21
-4.6015375590551182
0
LINE
8
BLACK
6
CONTINUOUS
10
5.3587483070866142
20
-4.6015375590551182
11
5.3507881889763782
21
-4.6132778346456691
0
LINE
8
BLACK
6
CONTINUOUS
10
5.3507881889763782
20
-4.6132778346456691
11
5.341605393700787
21
-4.6240886220472444
0
LINE
8
BLACK
6
CONTINUOUS
10
5.341605393700787
20
-4.6240886220472444
11
5.3313075984251963
21
-4.633843228346457
0
LINE
8
BLACK
6
CONTINUOUS
10
5.3313075984251963
20
-4.633843228346457
11
5.3200155118110235
21
-4.6424272440944883
0
LINE
8
BLACK
6
CONTINUOUS
10
5.3200155118110235
20
-4.6424272440944883
11
5.3078614960629924
21
-4.649740078740157
0
LINE
8
BLACK
6
CONTINUOUS
10
5.3078614960629924
20
-4.649740078740157
11
5.2949881102362202
21
-4.6556959448818898
0
LINE
8
BLACK
6
CONTINUOUS
10
5.2949881102362202
20
-4.6556959448818898
11
5.2815462204724408
21
-4.6602250393700784
0
LINE
8
BLACK
6
CONTINUOUS
10
5.2815462204724408
20
-4.6602250393700784
11
5.2676934251968506
21
-4.663274291338583
0
LINE
8
BLACK
6
CONTINUOUS
10
5.2676934251968506
20
-4.663274291338583
11
5.2535922047244092
21
-4.6648078740157484
0
LINE
8
BLACK
6
CONTINUOUS
10
5.2535922047244092
20
-4.6648078740157484
11
5.2394077952755902
21
-4.6648078740157484
0
LINE
8
BLACK
6
CONTINUOUS
10
5.2394077952755902
20
-4.6648078740157484
11
5.2253065748031498
21
-4.663274291338583
0
LINE
8
BLACK
6
CONTINUOUS
10
5.2253065748031498
20
-4.663274291338583
11
5.2114537795275586
21
-4.6602250393700784
0
LINE
8
BLACK
6
CONTINUOUS
10
5.2114537795275586
20
-4.6602250393700784
11
5.1980118897637793
21
-4.6556959448818898
0
LINE
8
BLACK
6
CONTINUOUS
10
5.1980118897637793
20
-4.6556959448818898
11
5.1851385039370079
21
-4.649740078740157
0
LINE
8
BLACK
6
CONTINUOUS
10
5.1851385039370079
20
-4.649740078740157
11
5.1729844881889759
21
-4.6424272440944883
0
LINE
8
BLACK
6
CONTINUOUS
10
5.1729844881889759
20
-4.6424272440944883
11
5.1616924015748031
21
-4.633843228346457
0
LINE
8
BLACK
6
CONTINUOUS
10
5.1616924015748031
20
-4.633843228346457
11
5.1513946062992124
21
-4.6240886220472444
0
LINE
8
BLACK
6
CONTINUOUS
10
5.1513946062992124
20
-4.6240886220472444
11
5.1422118110236221
21
-4.6132778346456691
0
LINE
8
BLACK
6
CONTINUOUS
10
5.1422118110236221
20
-4.6132778346456691
11
5.1342516929133861
21
-4.6015375590551182
0
LINE
8
BLACK
6
CONTINUOUS
10
5.1342516929133861
20
-4.6015375590551182
11
5.1276076377952755
21
-4.5890054724409444
0
LINE
8
BLACK
6
CONTINUOUS
10
5.1276076377952755
20
-4.5890054724409444
11
5.1223574409448815
21
-4.5758285039370081
0
LINE
8
BLACK
6
CONTINUOUS
10
5.1223574409448815
20
-4.5758285039370081
11
5.1185627165354326
21
-4.5621611417322834
0
LINE
8
BLACK
6
CONTINUOUS
10
5.1185627165354326
20
-4.5621611417322834
11
5.1162679133858271
21
-4.5481635826771649
0
LINE
8
BLACK
6
CONTINUOUS
10
5.1162679133858271
20
-4.5481635826771649
11
5.1154999999999999
21
-4.5339999999999998
0
LINE
8
BLACK
6
CONTINUOUS
10
5.1154999999999999
20
-4.5339999999999998
11
5.1162679133858271
21
-4.5198364173228347
0
LINE
8
BLACK
6
CONTINUOUS
10
5.1162679133858271
20
-4.5198364173228347
11
5.1185627165354326
21
-4.5058388582677162
0
LINE
8
BLACK
6
CONTINUOUS
10
5.1185627165354326
20
-4.5058388582677162
11
5.1223574409448815
21
-4.4921714960629924
0
LINE
8
BLACK
6
CONTINUOUS
10
5.1223574409448815
20
-4.4921714960629924
11
5.1276076377952755
21
-4.4789945275590552
0
LINE
8
BLACK
6
CONTINUOUS
10
5.1276076377952755
20
-4.4789945275590552
11
5.1342516929133861
21
-4.4664624409448814
0
LINE
8
BLACK
6
CONTINUOUS
10
5.1342516929133861
20
-4.4664624409448814
11
5.1422118110236221
21
-4.4547221653543305
0
LINE
8
BLACK
6
CONTINUOUS
10
5.1422118110236221
20
-4.4547221653543305
11
5.1513946062992124
21
-4.4439113779527561
0
LINE
8
BLACK
6
CONTINUOUS
10
5.1513946062992124
20
-4.4439113779527561
11
5.1616924015748031
21
-4.4341567716535435
0
LINE
8
BLACK
6
CONTINUOUS
10
5.1616924015748031
20
-4.4341567716535435
11
5.1729844881889759
21
-4.4255727559055114
0
LINE
8
BLACK
6
CONTINUOUS
10
5.1729844881889759
20
-4.4255727559055114
11
5.1851385039370079
21
-4.4182599212598426
0
LINE
8
BLACK
6
CONTINUOUS
10
5.1851385039370079
20
-4.4182599212598426
11
5.1980118897637793
21
-4.4123040551181099
0
LINE
8
BLACK
6
CONTINUOUS
10
5.1980118897637793
20
-4.4123040551181099
11
5.2114537795275586
21
-4.4077749606299212
0
LINE
8
BLACK
6
CONTINUOUS
10
5.2114537795275586
20
-4.4077749606299212
11
5.2253065748031498
21
-4.4047257086614175
0
LINE
8
BLACK
6
CONTINUOUS
10
5.2253065748031498
20
-4.4047257086614175
11
5.2394077952755902
21
-4.4031921259842521
0
LINE
8
BLACK
6
CONTINUOUS
10
5.2394077952755902
20
-4.4031921259842521
11
5.2535922047244092
21
-4.4031921259842521
0
LINE
8
BLACK
6
CONTINUOUS
10
5.2535922047244092
20
-4.4031921259842521
11
5.2676934251968506
21
-4.4047257086614175
0
LINE
8
BLACK
6
CONTINUOUS
10
6.4676934251968499
20
-4.4047257086614175
11
6.481546220472441
21
-4.4077749606299212
0
LINE
8
BLACK
6
CONTINUOUS
10
6.481546220472441
20
-4.4077749606299212
11
6.4949881102362204
21
-4.4123040551181099
0
LINE
8
BLACK
6
CONTINUOUS
10
6.4949881102362204
20
-4.4123040551181099
11
6.5078614960629917
21
-4.4182599212598426
0
LINE
8
BLACK
6
CONTINUOUS
10
6.5078614960629917
20
-4.4182599212598426
11
6.5200155118110237
21
-4.4255727559055114
0
LINE
8
BLACK
6
CONTINUOUS
10
6.5200155118110237
20
-4.4255727559055114
11
6.5313075984251965
21
-4.4341567716535435
0
LINE
8
BLACK
6
CONTINUOUS
10
6.5313075984251965
20
-4.4341567716535435
11
6.5416053937007872
21
-4.4439113779527561
0
LINE
8
BLACK
6
CONTINUOUS
10
6.5416053937007872
20
-4.4439113779527561
11
6.5507881889763775
21
-4.4547221653543305
0
LINE
8
BLACK
6
CONTINUOUS
10
6.5507881889763775
20
-4.4547221653543305
11
6.5587483070866144
21
-4.4664624409448814
0
LINE
8
BLACK
6
CONTINUOUS
10
6.5587483070866144
20
-4.4664624409448814
11
6.5653923622047241
21
-4.4789945275590552
0
LINE
8
BLACK
6
CONTINUOUS
10
6.5653923622047241
20
-4.4789945275590552
11
6.5706425590551181
21
-4.4921714960629924
0
LINE
8
BLACK
6
CONTINUOUS
10
6.5706425590551181
20
-4.4921714960629924
11
6.574437283464567
21
-4.5058388582677162
0
LINE
8
BLACK
6
CONTINUOUS
10
6.574437283464567
20
-4.5058388582677162
11
6.5767320866141734
21
-4.5198364173228347
0
LINE
8
BLACK
6
CONTINUOUS
10
6.5767320866141734
20
-4.5198364173228347
11
6.5774999999999997
21
-4.5339999999999998
0
LINE
8
BLACK
6
CONTINUOUS
10
6.5774999999999997
20
-4.5339999999999998
11
6.5767320866141734
21
-4.5481635826771649
0
LINE
8
BLACK
6
CONTINUOUS
10
6.5767320866141734
20
-4.5481635826771649
11
6.574437283464567
21
-4.5621611417322834
0
LINE
8
BLACK
6
CONTINUOUS
10
6.574437283464567
20
-4.5621611417322834
11
6.5706425590551181
21
-4.5758285039370081
0
LINE
8
BLACK
6
CONTINUOUS
10
6.5706425590551181
20
-4.5758285039370081
11
6.5653923622047241
21
-4.5890054724409444
0
LINE
8
BLACK
6
CONTINUOUS
10
6.5653923622047241
20
-4.5890054724409444
11
6.5587483070866144
21
-4.6015375590551182
0
LINE
8
BLACK
6
CONTINUOUS
10
6.5587483070866144
20
-4.6015375590551182
11
6.5507881889763775
21
-4.6132778346456691
0
LINE
8
BLACK
6
CONTINUOUS
10
6.5507881889763775
20
-4.6132778346456691
11
6.5416053937007872
21
-4.6240886220472444
0
LINE
8
BLACK
6
CONTINUOUS
10
6.5416053937007872
20
-4.6240886220472444
11
6.5313075984251965
21
-4.633843228346457
0
LINE
8
BLACK
6
CONTINUOUS
10
6.5313075984251965
20
-4.633843228346457
11
6.5200155118110237
21
-4.6424272440944883
0
LINE
8
BLACK
6
CONTINUOUS
10
6.5200155118110237
20
-4.6424272440944883
11
6.5078614960629917
21
-4.649740078740157
0
LINE
8
BLACK
6
CONTINUOUS
10
6.5078614960629917
20
-4.649740078740157
11
6.4949881102362204
21
-4.6556959448818898
0
LINE
8
BLACK
6
CONTINUOUS
10
6.4949881102362204
20
-4.6556959448818898
11
6.481546220472441
21
-4.6602250393700784
0
LINE
8
BLACK
6
CONTINUOUS
10
6.481546220472441
20
-4.6602250393700784
11
6.4676934251968499
21
-4.663274291338583
0
LINE
8
BLACK
6
CONTINUOUS
10
6.4676934251968499
20
-4.663274291338583
11
6.4535922047244094
21
-4.6648078740157484
0
LINE
8
BLACK
6
CONTINUOUS
10
6.4535922047244094
20
-4.6648078740157484
11
6.4394077952755904
21
-4.6648078740157484
0
LINE
8
BLACK
6
CONTINUOUS
10
6.4394077952755904
20
-4.6648078740157484
11
6.425306574803149
21
-4.663274291338583
0
LINE
8
BLACK
6
CONTINUOUS
10
6.425306574803149
20
-4.663274291338583
11
6.4114537795275588
21
-4.6602250393700784
0
LINE
8
BLACK
6
CONTINUOUS
10
6.4114537795275588
20
-4.6602250393700784
11
6.3980118897637794
21
-4.6556959448818898
0
LINE
8
BLACK
6
CONTINUOUS
10
6.3980118897637794
20
-4.6556959448818898
11
6.3851385039370081
21
-4.649740078740157
0
LINE
8
BLACK
6
CONTINUOUS
10
6.3851385039370081
20
-4.649740078740157
11
6.3729844881889761
21
-4.6424272440944883
0
LINE
8
BLACK
6
CONTINUOUS
10
6.3729844881889761
20
-4.6424272440944883
11
6.3616924015748033
21
-4.633843228346457
0
LINE
8
BLACK
6
CONTINUOUS
10
6.3616924015748033
20
-4.633843228346457
11
6.3513946062992126
21
-4.6240886220472444
0
LINE
8
BLACK
6
CONTINUOUS
10
6.3513946062992126
20
-4.6240886220472444
11
6.3422118110236223
21
-4.6132778346456691
0
LINE
8
BLACK
6
CONTINUOUS
10
6.3422118110236223
20
-4.6132778346456691
11
6.3342516929133854
21
-4.6015375590551182
0
LINE
8
BLACK
6
CONTINUOUS
10
6.3342516929133854
20
-4.6015375590551182
11
6.3276076377952757
21
-4.5890054724409444
0
LINE
8
BLACK
6
CONTINUOUS
10
6.3276076377952757
20
-4.5890054724409444
11
6.3223574409448817
21
-4.5758285039370081
0
LINE
8
BLACK
6
CONTINUOUS
10
6.3223574409448817
20
-4.5758285039370081
11
6.3185627165354328
21
-4.5621611417322834
0
LINE
8
BLACK
6
CONTINUOUS
10
6.3185627165354328
20
-4.5621611417322834
11
6.3162679133858264
21
-4.5481635826771649
0
LINE
8
BLACK
6
CONTINUOUS
10
6.3162679133858264
20
-4.5481635826771649
11
6.3155000000000001
21
-4.5339999999999998
0
LINE
8
BLACK
6
CONTINUOUS
10
6.3155000000000001
20
-4.5339999999999998
11
6.3162679133858264
21
-4.5198364173228347
0
LINE
8
BLACK
6
CONTINUOUS
10
6.3162679133858264
20
-4.5198364173228347
11
6.3185627165354328
21
-4.5058388582677162
0
LINE
8
BLACK
6
CONTINUOUS
10
6.3185627165354328
20
-4.5058388582677162
11
6.3223574409448817
21
-4.4921714960629924
0
LINE
8
BLACK
6
CONTINUOUS
10
6.3223574409448817
20
-4.4921714960629924
11
6.3276076377952757
21
-4.4789945275590552
0
LINE
8
BLACK
6
CONTINUOUS
10
6.3276076377952757
20
-4.4789945275590552
11
6.3342516929133854
21
-4.4664624409448814
0
LINE
8
BLACK
6
CONTINUOUS
10
6.3342516929133854
20
-4.4664624409448814
11
6.3422118110236223
21
-4.4547221653543305
0
LINE
8
BLACK
6
CONTINUOUS
10
6.3422118110236223
20
-4.4547221653543305
11
6.3513946062992126
21
-4.4439113779527561
0
LINE
8
BLACK
6
CONTINUOUS
10
6.3513946062992126
20
-4.4439113779527561
11
6.3616924015748033
21
-4.4341567716535435
0
LINE
8
BLACK
6
CONTINUOUS
10
6.3616924015748033
20
-4.4341567716535435
11
6.3729844881889761
21
-4.4255727559055114
0
LINE
8
BLACK
6
CONTINUOUS
10
6.3729844881889761
20
-4.4255727559055114
11
6.3851385039370081
21
-4.4182599212598426
0
LINE
8
BLACK
6
CONTINUOUS
10
6.3851385039370081
20
-4.4182599212598426
11
6.3980118897637794
21
-4.4123040551181099
0
LINE
8
BLACK
6
CONTINUOUS
10
6.3980118897637794
20
-4.4123040551181099
11
6.4114537795275588
21
-4.4077749606299212
0
LINE
8
BLACK
6
CONTINUOUS
10
6.4114537795275588
20
-4.4077749606299212
11
6.425306574803149
21
-4.4047257086614175
0
LINE
8
BLACK
6
CONTINUOUS
10
6.425306574803149
20
-4.4047257086614175
11
6.4394077952755904
21
-4.4031921259842521
0
LINE
8
BLACK
6
CONTINUOUS
10
6.4394077952755904
20
-4.4031921259842521
11
6.4535922047244094
21
-4.4031921259842521
0
LINE
8
BLACK
6
CONTINUOUS
10
6.4535922047244094
20
-4.4031921259842521
11
6.4676934251968499
21
-4.4047257086614175
0
LINE
8
BLACK
6
CONTINUOUS
10
5.6242315354330703
20
-4.5478044881889765
11
5.6255292125984253
21
-4.5486715748031497
0
LINE
8
BLACK
6
CONTINUOUS
10
5.6255292125984253
20
-4.5486715748031497
11
5.6263962992125984
21
-4.5499692519685038
0
LINE
8
BLACK
6
CONTINUOUS
10
5.6263962992125984
20
-4.5499692519685038
11
5.6267007874015746
21
-4.5514999999999999
0
LINE
8
BLACK
6
CONTINUOUS
10
5.6267007874015746
20
-4.5514999999999999
11
5.6267007874015746
21
-4.6165000000000003
0
LINE
8
BLACK
6
CONTINUOUS
10
5.6267007874015746
20
-4.6165000000000003
11
5.6263962992125984
21
-4.6180307480314964
0
LINE
8
BLACK
6
CONTINUOUS
10
5.6263962992125984
20
-4.6180307480314964
11
5.6255292125984253
21
-4.6193284251968505
0
LINE
8
BLACK
6
CONTINUOUS
10
5.6255292125984253
20
-4.6193284251968505
11
5.6242315354330703
21
-4.6201955118110236
0
LINE
8
BLACK
6
CONTINUOUS
10
5.6242315354330703
20
-4.6201955118110236
11
5.6227007874015751
21
-4.6204999999999998
0
LINE
8
BLACK
6
CONTINUOUS
10
5.6227007874015751
20
-4.6204999999999998
11
5.5577007874015747
21
-4.6204999999999998
0
LINE
8
BLACK
6
CONTINUOUS
10
5.5577007874015747
20
-4.6204999999999998
11
5.5561700393700786
21
-4.6201955118110236
0
LINE
8
BLACK
6
CONTINUOUS
10
5.5561700393700786
20
-4.6201955118110236
11
5.5548723622047245
21
-4.6193284251968505
0
LINE
8
BLACK
6
CONTINUOUS
10
5.5548723622047245
20
-4.6193284251968505
11
5.5540052755905513
21
-4.6180307480314964
0
LINE
8
BLACK
6
CONTINUOUS
10
5.5540052755905513
20
-4.6180307480314964
11
5.5537007874015742
21
-4.6165000000000003
0
LINE
8
BLACK
6
CONTINUOUS
10
5.5537007874015742
20
-4.6165000000000003
11
5.5537007874015742
21
-4.5514999999999999
0
LINE
8
BLACK
6
CONTINUOUS
10
5.5537007874015742
20
-4.5514999999999999
11
5.5540052755905513
21
-4.5499692519685038
0
LINE
8
BLACK
6
CONTINUOUS
10
5.5540052755905513
20
-4.5499692519685038
11
5.5548723622047245
21
-4.5486715748031497
0
LINE
8
BLACK
6
CONTINUOUS
10
5.5548723622047245
20
-4.5486715748031497
11
5.5561700393700786
21
-4.5478044881889765
0
LINE
8
BLACK
6
CONTINUOUS
10
5.5561700393700786
20
-4.5478044881889765
11
5.5577007874015747
21
-4.5475000000000003
0
LINE
8
BLACK
6
CONTINUOUS
10
5.5577007874015747
20
-4.5475000000000003
11
5.6227007874015751
21
-4.5475000000000003
0
LINE
8
BLACK
6
CONTINUOUS
10
5.6227007874015751
20
-4.5475000000000003
11
5.6242315354330703
21
-4.5478044881889765
0
LINE
8
BLACK
6
CONTINUOUS
10
5.7242315354330708
20
-4.5478044881889765
11
5.725529212598425
21
-4.5486715748031497
0
LINE
8
BLACK
6
CONTINUOUS
10
5.725529212598425
20
-4.5486715748031497
11
5.7263962992125981
21
-4.5499692519685038
0
LINE
8
BLACK
6
CONTINUOUS
10
5.7263962992125981
20
-4.5499692519685038
11
5.7267007874015743
21
-4.5514999999999999
0
LINE
8
BLACK
6
CONTINUOUS
10
5.7267007874015743
20
-4.5514999999999999
11
5.7267007874015743
21
-4.6165000000000003
0
LINE
8
BLACK
6
CONTINUOUS
10
5.7267007874015743
20
-4.6165000000000003
11
5.7263962992125981
21
-4.6180307480314964
0
LINE
8
BLACK
6
CONTINUOUS
10
5.7263962992125981
20
-4.6180307480314964
11
5.725529212598425
21
-4.6193284251968505
0
LINE
8
BLACK
6
CONTINUOUS
10
5.725529212598425
20
-4.6193284251968505
11
5.7242315354330708
21
-4.6201955118110236
0
LINE
8
BLACK
6
CONTINUOUS
10
5.7242315354330708
20
-4.6201955118110236
11
5.7227007874015747
21
-4.6204999999999998
0
LINE
8
BLACK
6
CONTINUOUS
10
5.7227007874015747
20
-4.6204999999999998
11
5.6577007874015743
21
-4.6204999999999998
0
LINE
8
BLACK
6
CONTINUOUS
10
5.6577007874015743
20
-4.6204999999999998
11
5.6561700393700782
21
-4.6201955118110236
0
LINE
8
BLACK
6
CONTINUOUS
10
5.6561700393700782
20
-4.6201955118110236
11
5.6548723622047241
21
-4.6193284251968505
0
LINE
8
BLACK
6
CONTINUOUS
10
5.6548723622047241
20
-4.6193284251968505
11
5.654005275590551
21
-4.6180307480314964
0
LINE
8
BLACK
6
CONTINUOUS
10
5.654005275590551
20
-4.6180307480314964
11
5.6537007874015748
21
-4.6165000000000003
0
LINE
8
BLACK
6
CONTINUOUS
10
5.6537007874015748
20
-4.6165000000000003
11
5.6537007874015748
21
-4.5514999999999999
0
LINE
8
BLACK
6
CONTINUOUS
10
5.6537007874015748
20
-4.5514999999999999
11
5.654005275590551
21
-4.5499692519685038
0
LINE
8
BLACK
6
CONTINUOUS
10
5.654005275590551
20
-4.5499692519685038
11
5.6548723622047241
21
-4.5486715748031497
0
LINE
8
BLACK
6
CONTINUOUS
10
5.6548723622047241
20
-4.5486715748031497
11
5.6561700393700782
21
-4.5478044881889765
0
LINE
8
BLACK
6
CONTINUOUS
10
5.6561700393700782
20
-4.5478044881889765
11
5.6577007874015743
21
-4.5475000000000003
0
LINE
8
BLACK
6
CONTINUOUS
10
5.6577007874015743
20
-4.5475000000000003
11
5.7227007874015747
21
-4.5475000000000003
0
LINE
8
BLACK
6
CONTINUOUS
10
5.7227007874015747
20
-4.5475000000000003
11
5.7242315354330708
21
-4.5478044881889765
0
LINE
8
BLACK
6
CONTINUOUS
10
5.9553338976377947
20
-4.5478044881889765
11
5.9566315748031498
21
-4.5486715748031497
0
LINE
8
BLACK
6
CONTINUOUS
10
5.9566315748031498
20
-4.5486715748031497
11
5.9574986614173229
21
-4.5499692519685038
0
LINE
8
BLACK
6
CONTINUOUS
10
5.9574986614173229
20
-4.5499692519685038
11
5.9578031496062991
21
-4.5514999999999999
0
LINE
8
BLACK
6
CONTINUOUS
10
5.9578031496062991
20
-4.5514999999999999
11
5.9578031496062991
21
-4.6165000000000003
0
LINE
8
BLACK
6
CONTINUOUS
10
5.9578031496062991
20
-4.6165000000000003
11
5.9574986614173229
21
-4.6180307480314964
0
LINE
8
BLACK
6
CONTINUOUS
10
5.9574986614173229
20
-4.6180307480314964
11
5.9566315748031498
21
-4.6193284251968505
0
LINE
8
BLACK
6
CONTINUOUS
10
5.9566315748031498
20
-4.6193284251968505
11
5.9553338976377947
21
-4.6201955118110236
0
LINE
8
BLACK
6
CONTINUOUS
10
5.9553338976377947
20
-4.6201955118110236
11
5.9538031496062986
21
-4.6204999999999998
0
LINE
8
BLACK
6
CONTINUOUS
10
5.9538031496062986
20
-4.6204999999999998
11
5.8888031496062991
21
-4.6204999999999998
0
LINE
8
BLACK
6
CONTINUOUS
10
5.8888031496062991
20
-4.6204999999999998
11
5.887272401574803
21
-4.6201955118110236
0
LINE
8
BLACK
6
CONTINUOUS
10
5.887272401574803
20
-4.6201955118110236
11
5.8859747244094489
21
-4.6193284251968505
0
LINE
8
BLACK
6
CONTINUOUS
10
5.8859747244094489
20
-4.6193284251968505
11
5.8851076377952758
21
-4.6180307480314964
0
LINE
8
BLACK
6
CONTINUOUS
10
5.8851076377952758
20
-4.6180307480314964
11
5.8848031496062987
21
-4.6165000000000003
0
LINE
8
BLACK
6
CONTINUOUS
10
5.8848031496062987
20
-4.6165000000000003
11
5.8848031496062987
21
-4.5514999999999999
0
LINE
8
BLACK
6
CONTINUOUS
10
5.8848031496062987
20
-4.5514999999999999
11
5.8851076377952758
21
-4.5499692519685038
0
LINE
8
BLACK
6
CONTINUOUS
10
5.8851076377952758
20
-4.5499692519685038
11
5.8859747244094489
21
-4.5486715748031497
0
LINE
8
BLACK
6
CONTINUOUS
10
5.8859747244094489
20
-4.5486715748031497
11
5.887272401574803
21
-4.5478044881889765
0
LINE
8
BLACK
6
CONTINUOUS
10
5.887272401574803
20
-4.5478044881889765
11
5.8888031496062991
21
-4.5475000000000003
0
LINE
8
BLACK
6
CONTINUOUS
10
5.8888031496062991
20
-4.5475000000000003
11
5.9538031496062986
21
-4.5475000000000003
0
LINE
8
BLACK
6
CONTINUOUS
10
5.9538031496062986
20
-4.5475000000000003
11
5.9553338976377947
21
-4.5478044881889765
0
LINE
8
BLACK
6
CONTINUOUS
10
5.6242315354330703
20
-4.447804488188976
11
5.6255292125984253
21
-4.4486715748031491
0
LINE
8
BLACK
6
CONTINUOUS
10
5.6255292125984253
20
-4.4486715748031491
11
5.6263962992125984
21
-4.4499692519685041
0
LINE
8
BLACK
6
CONTINUOUS
10
5.6263962992125984
20
-4.4499692519685041
11
5.6267007874015746
21
-4.4515000000000002
0
LINE
8
BLACK
6
CONTINUOUS
10
5.6267007874015746
20
-4.4515000000000002
11
5.6267007874015746
21
-4.5164999999999997
0
LINE
8
BLACK
6
CONTINUOUS
10
5.6267007874015746
20
-4.5164999999999997
11
5.6263962992125984
21
-4.5180307480314958
0
LINE
8
BLACK
6
CONTINUOUS
10
5.6263962992125984
20
-4.5180307480314958
11
5.6255292125984253
21
-4.51932842519685
0
LINE
8
BLACK
6
CONTINUOUS
10
5.6255292125984253
20
-4.51932842519685
11
5.6242315354330703
21
-4.5201955118110231
0
LINE
8
BLACK
6
CONTINUOUS
10
5.6242315354330703
20
-4.5201955118110231
11
5.6227007874015751
21
-4.5205000000000002
0
LINE
8
BLACK
6
CONTINUOUS
10
5.6227007874015751
20
-4.5205000000000002
11
5.5577007874015747
21
-4.5205000000000002
0
LINE
8
BLACK
6
CONTINUOUS
10
5.5577007874015747
20
-4.5205000000000002
11
5.5561700393700786
21
-4.5201955118110231
0
LINE
8
BLACK
6
CONTINUOUS
10
5.5561700393700786
20
-4.5201955118110231
11
5.5548723622047245
21
-4.51932842519685
0
LINE
8
BLACK
6
CONTINUOUS
10
5.5548723622047245
20
-4.51932842519685
11
5.5540052755905513
21
-4.5180307480314958
0
LINE
8
BLACK
6
CONTINUOUS
10
5.5540052755905513
20
-4.5180307480314958
11
5.5537007874015742
21
-4.5164999999999997
0
LINE
8
BLACK
6
CONTINUOUS
10
5.5537007874015742
20
-4.5164999999999997
11
5.5537007874015742
21
-4.4515000000000002
0
LINE
8
BLACK
6
CONTINUOUS
10
5.5537007874015742
20
-4.4515000000000002
11
5.5540052755905513
21
-4.4499692519685041
0
LINE
8
BLACK
6
CONTINUOUS
10
5.5540052755905513
20
-4.4499692519685041
11
5.5548723622047245
21
-4.4486715748031491
0
LINE
8
BLACK
6
CONTINUOUS
10
5.5548723622047245
20
-4.4486715748031491
11
5.5561700393700786
21
-4.447804488188976
0
LINE
8
BLACK
6
CONTINUOUS
10
5.5561700393700786
20
-4.447804488188976
11
5.5577007874015747
21
-4.4474999999999998
0
LINE
8
BLACK
6
CONTINUOUS
10
5.5577007874015747
20
-4.4474999999999998
11
5.6227007874015751
21
-4.4474999999999998
0
LINE
8
BLACK
6
CONTINUOUS
10
5.6227007874015751
20
-4.4474999999999998
11
5.6242315354330703
21
-4.447804488188976
0
LINE
8
BLACK
6
CONTINUOUS
10
5.7242315354330708
20
-4.447804488188976
11
5.725529212598425
21
-4.4486715748031491
0
LINE
8
BLACK
6
CONTINUOUS
10
5.725529212598425
20
-4.4486715748031491
11
5.7263962992125981
21
-4.4499692519685041
0
LINE
8
BLACK
6
CONTINUOUS
10
5.7263962992125981
20
-4.4499692519685041
11
5.7267007874015743
21
-4.4515000000000002
0
LINE
8
BLACK
6
CONTINUOUS
10
5.7267007874015743
20
-4.4515000000000002
11
5.7267007874015743
21
-4.5164999999999997
0
LINE
8
BLACK
6
CONTINUOUS
10
5.7267007874015743
20
-4.5164999999999997
11
5.7263962992125981
21
-4.5180307480314958
0
LINE
8
BLACK
6
CONTINUOUS
10
5.7263962992125981
20
-4.5180307480314958
11
5.725529212598425
21
-4.51932842519685
0
LINE
8
BLACK
6
CONTINUOUS
10
5.725529212598425
20
-4.51932842519685
11
5.7242315354330708
21
-4.5201955118110231
0
LINE
8
BLACK
6
CONTINUOUS
10
5.7242315354330708
20
-4.5201955118110231
11
5.7227007874015747
21
-4.5205000000000002
0
LINE
8
BLACK
6
CONTINUOUS
10
5.7227007874015747
20
-4.5205000000000002
11
5.6577007874015743
21
-4.5205000000000002
0
LINE
8
BLACK
6
CONTINUOUS
10
5.6577007874015743
20
-4.5205000000000002
11
5.6561700393700782
21
-4.5201955118110231
0
LINE
8
BLACK
6
CONTINUOUS
10
5.6561700393700782
20
-4.5201955118110231
11
5.6548723622047241
21
-4.51932842519685
0
LINE
8
BLACK
6
CONTINUOUS
10
5.6548723622047241
20
-4.51932842519685
11
5.654005275590551
21
-4.5180307480314958
0
LINE
8
BLACK
6
CONTINUOUS
10
5.654005275590551
20
-4.5180307480314958
11
5.6537007874015748
21
-4.5164999999999997
0
LINE
8
BLACK
6
CONTINUOUS
10
5.6537007874015748
20
-4.5164999999999997
11
5.6537007874015748
21
-4.4515000000000002
0
LINE
8
BLACK
6
CONTINUOUS
10
5.6537007874015748
20
-4.4515000000000002
11
5.654005275590551
21
-4.4499692519685041
0
LINE
8
BLACK
6
CONTINUOUS
10
5.654005275590551
20
-4.4499692519685041
11
5.6548723622047241
21
-4.4486715748031491
0
LINE
8
BLACK
6
CONTINUOUS
10
5.6548723622047241
20
-4.4486715748031491
11
5.6561700393700782
21
-4.447804488188976
0
LINE
8
BLACK
6
CONTINUOUS
10
5.6561700393700782
20
-4.447804488188976
11
5.6577007874015743
21
-4.4474999999999998
0
LINE
8
BLACK
6
CONTINUOUS
10
5.6577007874015743
20
-4.4474999999999998
11
5.7227007874015747
21
-4.4474999999999998
0
LINE
8
BLACK
6
CONTINUOUS
10
5.7227007874015747
20
-4.4474999999999998
11
5.7242315354330708
21
-4.447804488188976
0
LINE
8
BLACK
6
CONTINUOUS
10
5.9553338976377947
20
-4.447804488188976
11
5.9566315748031498
21
-4.4486715748031491
0
LINE
8
BLACK
6
CONTINUOUS
10
5.9566315748031498
20
-4.4486715748031491
11
5.9574986614173229
21
-4.4499692519685041
0
LINE
8
BLACK
6
CONTINUOUS
10
5.9574986614173229
20
-4.4499692519685041
11
5.9578031496062991
21
-4.4515000000000002
0
LINE
8
BLACK
6
CONTINUOUS
10
5.9578031496062991
20
-4.4515000000000002
11
5.9578031496062991
21
-4.5164999999999997
0
LINE
8
BLACK
6
CONTINUOUS
10
5.9578031496062991
20
-4.5164999999999997
11
5.9574986614173229
21
-4.5180307480314958
0
LINE
8
BLACK
6
CONTINUOUS
10
5.9574986614173229
20
-4.5180307480314958
11
5.9566315748031498
21
-4.51932842519685
0
LINE
8
BLACK
6
CONTINUOUS
10
5.9566315748031498
20
-4.51932842519685
11
5.9553338976377947
21
-4.5201955118110231
0
LINE
8
BLACK
6
CONTINUOUS
10
5.9553338976377947
20
-4.5201955118110231
11
5.9538031496062986
21
-4.5205000000000002
0
LINE
8
BLACK
6
CONTINUOUS
10
5.9538031496062986
20
-4.5205000000000002
11
5.8888031496062991
21
-4.5205000000000002
0
LINE
8
BLACK
6
CONTINUOUS
10
5.8888031496062991
20
-4.5205000000000002
11
5.887272401574803
21
-4.5201955118110231
0
LINE
8
BLACK
6
CONTINUOUS
10
5.887272401574803
20
-4.5201955118110231
11
5.8859747244094489
21
-4.51932842519685
0
LINE
8
BLACK
6
CONTINUOUS
10
5.8859747244094489
20
-4.51932842519685
11
5.8851076377952758
21
-4.5180307480314958
0
LINE
8
BLACK
6
CONTINUOUS
10
5.8851076377952758
20
-4.5180307480314958
11
5.8848031496062987
21
-4.5164999999999997
0
LINE
8
BLACK
6
CONTINUOUS
10
5.8848031496062987
20
-4.5164999999999997
11
5.8848031496062987
21
-4.4515000000000002
0
LINE
8
BLACK
6
CONTINUOUS
10
5.8848031496062987
20
-4.4515000000000002
11
5.8851076377952758
21
-4.4499692519685041
0
LINE
8
BLACK
6
CONTINUOUS
10
5.8851076377952758
20
-4.4499692519685041
11
5.8859747244094489
21
-4.4486715748031491
0
LINE
8
BLACK
6
CONTINUOUS
10
5.8859747244094489
20
-4.4486715748031491
11
5.887272401574803
21
-4.447804488188976
0
LINE
8
BLACK
6
CONTINUOUS
10
5.887272401574803
20
-4.447804488188976
11
5.8888031496062991
21
-4.4474999999999998
0
LINE
8
BLACK
6
CONTINUOUS
10
5.8888031496062991
20
-4.4474999999999998
11
5.9538031496062986
21
-4.4474999999999998
0
LINE
8
BLACK
6
CONTINUOUS
10
5.9538031496062986
20
-4.4474999999999998
11
5.9553338976377947
21
-4.447804488188976
0
LINE
8
BLACK
6
CONTINUOUS
10
6.4305307480314955
20
-4.2922926771653547
11
6.4318284251968505
21
-4.2931597637795278
0
LINE
8
BLACK
6
CONTINUOUS
10
6.4318284251968505
20
-4.2931597637795278
11
6.4326955118110236
21
-4.2944574409448819
0
LINE
8
BLACK
6
CONTINUOUS
10
6.4326955118110236
20
-4.2944574409448819
11
6.4329999999999998
21
-4.295988188976378
0
LINE
8
BLACK
6
CONTINUOUS
10
6.4329999999999998
20
-4.295988188976378
11
6.4329999999999998
21
-4.3609881889763775
0
LINE
8
BLACK
6
CONTINUOUS
10
6.4329999999999998
20
-4.3609881889763775
11
6.4326955118110236
21
-4.3625189370078736
0
LINE
8
BLACK
6
CONTINUOUS
10
6.4326955118110236
20
-4.3625189370078736
11
6.4318284251968505
21
-4.3638166141732286
0
LINE
8
BLACK
6
CONTINUOUS
10
6.4318284251968505
20
-4.3638166141732286
11
6.4305307480314955
21
-4.3646837007874018
0
LINE
8
BLACK
6
CONTINUOUS
10
6.4305307480314955
20
-4.3646837007874018
11
6.4290000000000003
21
-4.364988188976378
0
LINE
8
BLACK
6
CONTINUOUS
10
6.4290000000000003
20
-4.364988188976378
11
6.3639999999999999
21
-4.364988188976378
0
LINE
8
BLACK
6
CONTINUOUS
10
6.3639999999999999
20
-4.364988188976378
11
6.3624692519685038
21
-4.3646837007874018
0
LINE
8
BLACK
6
CONTINUOUS
10
6.3624692519685038
20
-4.3646837007874018
11
6.3611715748031497
21
-4.3638166141732286
0
LINE
8
BLACK
6
CONTINUOUS
10
6.3611715748031497
20
-4.3638166141732286
11
6.3603044881889765
21
-4.3625189370078736
0
LINE
8
BLACK
6
CONTINUOUS
10
6.3603044881889765
20
-4.3625189370078736
11
6.3599999999999994
21
-4.3609881889763775
0
LINE
8
BLACK
6
CONTINUOUS
10
6.3599999999999994
20
-4.3609881889763775
11
6.3599999999999994
21
-4.295988188976378
0
LINE
8
BLACK
6
CONTINUOUS
10
6.3599999999999994
20
-4.295988188976378
11
6.3603044881889765
21
-4.2944574409448819
0
LINE
8
BLACK
6
CONTINUOUS
10
6.3603044881889765
20
-4.2944574409448819
11
6.3611715748031497
21
-4.2931597637795278
0
LINE
8
BLACK
6
CONTINUOUS
10
6.3611715748031497
20
-4.2931597637795278
11
6.3624692519685038
21
-4.2922926771653547
0
LINE
8
BLACK
6
CONTINUOUS
10
6.3624692519685038
20
-4.2922926771653547
11
6.3639999999999999
21
-4.2919881889763776
0
LINE
8
BLACK
6
CONTINUOUS
10
6.3639999999999999
20
-4.2919881889763776
11
6.4290000000000003
21
-4.2919881889763776
0
LINE
8
BLACK
6
CONTINUOUS
10
6.4290000000000003
20
-4.2919881889763776
11
6.4305307480314955
21
-4.2922926771653547
0
LINE
8
BLACK
6
CONTINUOUS
10
6.530530748031496
20
-4.2922926771653547
11
6.5318284251968501
21
-4.2931597637795278
0
LINE
8
BLACK
6
CONTINUOUS
10
6.5318284251968501
20
-4.2931597637795278
11
6.5326955118110233
21
-4.2944574409448819
0
LINE
8
BLACK
6
CONTINUOUS
10
6.5326955118110233
20
-4.2944574409448819
11
6.5329999999999995
21
-4.295988188976378
0
LINE
8
BLACK
6
CONTINUOUS
10
6.5329999999999995
20
-4.295988188976378
11
6.5329999999999995
21
-4.3609881889763775
0
LINE
8
BLACK
6
CONTINUOUS
10
6.5329999999999995
20
-4.3609881889763775
11
6.5326955118110233
21
-4.3625189370078736
0
LINE
8
BLACK
6
CONTINUOUS
10
6.5326955118110233
20
-4.3625189370078736
11
6.5318284251968501
21
-4.3638166141732286
0
LINE
8
BLACK
6
CONTINUOUS
10
6.5318284251968501
20
-4.3638166141732286
11
6.530530748031496
21
-4.3646837007874018
0
LINE
8
BLACK
6
CONTINUOUS
10
6.530530748031496
20
-4.3646837007874018
11
6.5289999999999999
21
-4.364988188976378
0
LINE
8
BLACK
6
CONTINUOUS
10
6.5289999999999999
20
-4.364988188976378
11
6.4639999999999995
21
-4.364988188976378
0
LINE
8
BLACK
6
CONTINUOUS
10
6.4639999999999995
20
-4.364988188976378
11
6.4624692519685034
21
-4.3646837007874018
0
LINE
8
BLACK
6
CONTINUOUS
10
6.4624692519685034
20
-4.3646837007874018
11
6.4611715748031493
21
-4.3638166141732286
0
LINE
8
BLACK
6
CONTINUOUS
10
6.4611715748031493
20
-4.3638166141732286
11
6.4603044881889762
21
-4.3625189370078736
0
LINE
8
BLACK
6
CONTINUOUS
10
6.4603044881889762
20
-4.3625189370078736
11
6.46
21
-4.3609881889763775
0
LINE
8
BLACK
6
CONTINUOUS
10
6.46
20
-4.3609881889763775
11
6.46
21
-4.295988188976378
0
LINE
8
BLACK
6
CONTINUOUS
10
6.46
20
-4.295988188976378
11
6.4603044881889762
21
-4.2944574409448819
0
LINE
8
BLACK
6
CONTINUOUS
10
6.4603044881889762
20
-4.2944574409448819
11
6.4611715748031493
21
-4.2931597637795278
0
LINE
8
BLACK
6
CONTINUOUS
10
6.4611715748031493
20
-4.2931597637795278
11
6.4624692519685034
21
-4.2922926771653547
0
LINE
8
BLACK
6
CONTINUOUS
10
6.4624692519685034
20
-4.2922926771653547
11
6.4639999999999995
21
-4.2919881889763776
0
LINE
8
BLACK
6
CONTINUOUS
10
6.4639999999999995
20
-4.2919881889763776
11
6.5289999999999999
21
-4.2919881889763776
0
LINE
8
BLACK
6
CONTINUOUS
10
6.5289999999999999
20
-4.2919881889763776
11
6.530530748031496
21
-4.2922926771653547
0
LINE
8
BLACK
6
CONTINUOUS
10
6.4305307480314955
20
-4.1922926771653541
11
6.4318284251968505
21
-4.1931597637795273
0
LINE
8
BLACK
6
CONTINUOUS
10
6.4318284251968505
20
-4.1931597637795273
11
6.4326955118110236
21
-4.1944574409448814
0
LINE
8
BLACK
6
CONTINUOUS
10
6.4326955118110236
20
-4.1944574409448814
11
6.4329999999999998
21
-4.1959881889763775
0
LINE
8
BLACK
6
CONTINUOUS
10
6.4329999999999998
20
-4.1959881889763775
11
6.4329999999999998
21
-4.2609881889763779
0
LINE
8
BLACK
6
CONTINUOUS
10
6.4329999999999998
20
-4.2609881889763779
11
6.4326955118110236
21
-4.262518937007874
0
LINE
8
BLACK
6
CONTINUOUS
10
6.4326955118110236
20
-4.262518937007874
11
6.4318284251968505
21
-4.2638166141732281
0
LINE
8
BLACK
6
CONTINUOUS
10
6.4318284251968505
20
-4.2638166141732281
11
6.4305307480314955
21
-4.2646837007874012
0
LINE
8
BLACK
6
CONTINUOUS
10
6.4305307480314955
20
-4.2646837007874012
11
6.4290000000000003
21
-4.2649881889763774
0
LINE
8
BLACK
6
CONTINUOUS
10
6.4290000000000003
20
-4.2649881889763774
11
6.3639999999999999
21
-4.2649881889763774
0
LINE
8
BLACK
6
CONTINUOUS
10
6.3639999999999999
20
-4.2649881889763774
11
6.3624692519685038
21
-4.2646837007874012
0
LINE
8
BLACK
6
CONTINUOUS
10
6.3624692519685038
20
-4.2646837007874012
11
6.3611715748031497
21
-4.2638166141732281
0
LINE
8
BLACK
6
CONTINUOUS
10
6.3611715748031497
20
-4.2638166141732281
11
6.3603044881889765
21
-4.262518937007874
0
LINE
8
BLACK
6
CONTINUOUS
10
6.3603044881889765
20
-4.262518937007874
11
6.3599999999999994
21
-4.2609881889763779
0
LINE
8
BLACK
6
CONTINUOUS
10
6.3599999999999994
20
-4.2609881889763779
11
6.3599999999999994
21
-4.1959881889763775
0
LINE
8
BLACK
6
CONTINUOUS
10
6.3599999999999994
20
-4.1959881889763775
11
6.3603044881889765
21
-4.1944574409448814
0
LINE
8
BLACK
6
CONTINUOUS
10
6.3603044881889765
20
-4.1944574409448814
11
6.3611715748031497
21
-4.1931597637795273
0
LINE
8
BLACK
6
CONTINUOUS
10
6.3611715748031497
20
-4.1931597637795273
11
6.3624692519685038
21
-4.1922926771653541
0
LINE
8
BLACK
6
CONTINUOUS
10
6.3624692519685038
20
-4.1922926771653541
11
6.3639999999999999
21
-4.1919881889763779
0
LINE
8
BLACK
6
CONTINUOUS
10
6.3639999999999999
20
-4.1919881889763779
11
6.4290000000000003
21
-4.1919881889763779
0
LINE
8
BLACK
6
CONTINUOUS
10
6.4290000000000003
20
-4.1919881889763779
11
6.4305307480314955
21
-4.1922926771653541
0
LINE
8
BLACK
6
CONTINUOUS
10
6.530530748031496
20
-4.1922926771653541
11
6.5318284251968501
21
-4.1931597637795273
0
LINE
8
BLACK
6
CONTINUOUS
10
6.5318284251968501
20
-4.1931597637795273
11
6.5326955118110233
21
-4.1944574409448814
0
LINE
8
BLACK
6
CONTINUOUS
10
6.5326955118110233
20
-4.1944574409448814
11
6.5329999999999995
21
-4.1959881889763775
0
LINE
8
BLACK
6
CONTINUOUS
10
6.5329999999999995
20
-4.1959881889763775
11
6.5329999999999995
21
-4.2609881889763779
0
LINE
8
BLACK
6
CONTINUOUS
10
6.5329999999999995
20
-4.2609881889763779
11
6.5326955118110233
21
-4.262518937007874
0
LINE
8
BLACK
6
CONTINUOUS
10
6.5326955118110233
20
-4.262518937007874
11
6.5318284251968501
21
-4.2638166141732281
0
LINE
8
BLACK
6
CONTINUOUS
10
6.5318284251968501
20
-4.2638166141732281
11
6.530530748031496
21
-4.2646837007874012
0
LINE
8
BLACK
6
CONTINUOUS
10
6.530530748031496
20
-4.2646837007874012
11
6.5289999999999999
21
-4.2649881889763774
0
LINE
8
BLACK
6
CONTINUOUS
10
6.5289999999999999
20
-4.2649881889763774
11
6.4639999999999995
21
-4.2649881889763774
0
LINE
8
BLACK
6
CONTINUOUS
10
6.4639999999999995
20
-4.2649881889763774
11
6.4624692519685034
21
-4.2646837007874012
0
LINE
8
BLACK
6
CONTINUOUS
10
6.4624692519685034
20
-4.2646837007874012
11
6.4611715748031493
21
-4.2638166141732281
0
LINE
8
BLACK
6
CONTINUOUS
10
6.4611715748031493
20
-4.2638166141732281
11
6.4603044881889762
21
-4.262518937007874
0
LINE
8
BLACK
6
CONTINUOUS
10
6.4603044881889762
20
-4.262518937007874
11
6.46
21
-4.2609881889763779
0
LINE
8
BLACK
6
CONTINUOUS
10
6.46
20
-4.2609881889763779
11
6.46
21
-4.1959881889763775
0
LINE
8
BLACK
6
CONTINUOUS
10
6.46
20
-4.1959881889763775
11
6.4603044881889762
21
-4.1944574409448814
0
LINE
8
BLACK
6
CONTINUOUS
10
6.4603044881889762
20
-4.1944574409448814
11
6.4611715748031493
21
-4.1931597637795273
0
LINE
8
BLACK
6
CONTINUOUS
10
6.4611715748031493
20
-4.1931597637795273
11
6.4624692519685034
21
-4.1922926771653541
0
LINE
8
BLACK
6
CONTINUOUS
10
6.4624692519685034
20
-4.1922926771653541
11
6.4639999999999995
21
-4.1919881889763779
0
LINE
8
BLACK
6
CONTINUOUS
10
6.4639999999999995
20
-4.1919881889763779
11
6.5289999999999999
21
-4.1919881889763779
0
LINE
8
BLACK
6
CONTINUOUS
10
6.5289999999999999
20
-4.1919881889763779
11
6.530530748031496
21
-4.1922926771653541
0
LINE
8
BLACK
6
CONTINUOUS
10
6.4305307480314955
20
-4.0922926771653545
11
6.4318284251968505
21
-4.0931597637795276
0
LINE
8
BLACK
6
CONTINUOUS
10
6.4318284251968505
20
-4.0931597637795276
11
6.4326955118110236
21
-4.0944574409448817
0
LINE
8
BLACK
6
CONTINUOUS
10
6.4326955118110236
20
-4.0944574409448817
11
6.4329999999999998
21
-4.0959881889763778
0
LINE
8
BLACK
6
CONTINUOUS
10
6.4329999999999998
20
-4.0959881889763778
11
6.4329999999999998
21
-4.1609881889763782
0
LINE
8
BLACK
6
CONTINUOUS
10
6.4329999999999998
20
-4.1609881889763782
11
6.4326955118110236
21
-4.1625189370078743
0
LINE
8
BLACK
6
CONTINUOUS
10
6.4326955118110236
20
-4.1625189370078743
11
6.4318284251968505
21
-4.1638166141732285
0
LINE
8
BLACK
6
CONTINUOUS
10
6.4318284251968505
20
-4.1638166141732285
11
6.4305307480314955
21
-4.1646837007874016
0
LINE
8
BLACK
6
CONTINUOUS
10
6.4305307480314955
20
-4.1646837007874016
11
6.4290000000000003
21
-4.1649881889763778
0
LINE
8
BLACK
6
CONTINUOUS
10
6.4290000000000003
20
-4.1649881889763778
11
6.3639999999999999
21
-4.1649881889763778
0
LINE
8
BLACK
6
CONTINUOUS
10
6.3639999999999999
20
-4.1649881889763778
11
6.3624692519685038
21
-4.1646837007874016
0
LINE
8
BLACK
6
CONTINUOUS
10
6.3624692519685038
20
-4.1646837007874016
11
6.3611715748031497
21
-4.1638166141732285
0
LINE
8
BLACK
6
CONTINUOUS
10
6.3611715748031497
20
-4.1638166141732285
11
6.3603044881889765
21
-4.1625189370078743
0
LINE
8
BLACK
6
CONTINUOUS
10
6.3603044881889765
20
-4.1625189370078743
11
6.3599999999999994
21
-4.1609881889763782
0
LINE
8
BLACK
6
CONTINUOUS
10
6.3599999999999994
20
-4.1609881889763782
11
6.3599999999999994
21
-4.0959881889763778
0
LINE
8
BLACK
6
CONTINUOUS
10
6.3599999999999994
20
-4.0959881889763778
11
6.3603044881889765
21
-4.0944574409448817
0
LINE
8
BLACK
6
CONTINUOUS
10
6.3603044881889765
20
-4.0944574409448817
11
6.3611715748031497
21
-4.0931597637795276
0
LINE
8
BLACK
6
CONTINUOUS
10
6.3611715748031497
20
-4.0931597637795276
11
6.3624692519685038
21
-4.0922926771653545
0
LINE
8
BLACK
6
CONTINUOUS
10
6.3624692519685038
20
-4.0922926771653545
11
6.3639999999999999
21
-4.0919881889763783
0
LINE
8
BLACK
6
CONTINUOUS
10
6.3639999999999999
20
-4.0919881889763783
11
6.4290000000000003
21
-4.0919881889763783
0
LINE
8
BLACK
6
CONTINUOUS
10
6.4290000000000003
20
-4.0919881889763783
11
6.4305307480314955
21
-4.0922926771653545
0
LINE
8
BLACK
6
CONTINUOUS
10
6.530530748031496
20
-4.0922926771653545
11
6.5318284251968501
21
-4.0931597637795276
0
LINE
8
BLACK
6
CONTINUOUS
10
6.5318284251968501
20
-4.0931597637795276
11
6.5326955118110233
21
-4.0944574409448817
0
LINE
8
BLACK
6
CONTINUOUS
10
6.5326955118110233
20
-4.0944574409448817
11
6.5329999999999995
21
-4.0959881889763778
0
LINE
8
BLACK
6
CONTINUOUS
10
6.5329999999999995
20
-4.0959881889763778
11
6.5329999999999995
21
-4.1609881889763782
0
LINE
8
BLACK
6
CONTINUOUS
10
6.5329999999999995
20
-4.1609881889763782
11
6.5326955118110233
21
-4.1625189370078743
0
LINE
8
BLACK
6
CONTINUOUS
10
6.5326955118110233
20
-4.1625189370078743
11
6.5318284251968501
21
-4.1638166141732285
0
LINE
8
BLACK
6
CONTINUOUS
10
6.5318284251968501
20
-4.1638166141732285
11
6.530530748031496
21
-4.1646837007874016
0
LINE
8
BLACK
6
CONTINUOUS
10
6.530530748031496
20
-4.1646837007874016
11
6.5289999999999999
21
-4.1649881889763778
0
LINE
8
BLACK
6
CONTINUOUS
10
6.5289999999999999
20
-4.1649881889763778
11
6.4639999999999995
21
-4.1649881889763778
0
LINE
8
BLACK
6
CONTINUOUS
10
6.4639999999999995
20
-4.1649881889763778
11
6.4624692519685034
21
-4.1646837007874016
0
LINE
8
BLACK
6
CONTINUOUS
10
6.4624692519685034
20
-4.1646837007874016
11
6.4611715748031493
21
-4.1638166141732285
0
LINE
8
BLACK
6
CONTINUOUS
10
6.4611715748031493
20
-4.1638166141732285
11
6.4603044881889762
21
-4.1625189370078743
0
LINE
8
BLACK
6
CONTINUOUS
10
6.4603044881889762
20
-4.1625189370078743
11
6.46
21
-4.1609881889763782
0
LINE
8
BLACK
6
CONTINUOUS
10
6.46
20
-4.1609881889763782
11
6.46
21
-4.0959881889763778
0
LINE
8
BLACK
6
CONTINUOUS
10
6.46
20
-4.0959881889763778
11
6.4603044881889762
21
-4.0944574409448817
0
LINE
8
BLACK
6
CONTINUOUS
10
6.4603044881889762
20
-4.0944574409448817
11
6.4611715748031493
21
-4.0931597637795276
0
LINE
8
BLACK
6
CONTINUOUS
10
6.4611715748031493
20
-4.0931597637795276
11
6.4624692519685034
21
-4.0922926771653545
0
LINE
8
BLACK
6
CONTINUOUS
10
6.4624692519685034
20
-4.0922926771653545
11
6.4639999999999995
21
-4.0919881889763783
0
LINE
8
BLACK
6
CONTINUOUS
10
6.4639999999999995
20
-4.0919881889763783
11
6.5289999999999999
21
-4.0919881889763783
0
LINE
8
BLACK
6
CONTINUOUS
10
6.5289999999999999
20
-4.0919881889763783
11
6.530530748031496
21
-4.0922926771653545
0
LINE
8
BLACK
6
CONTINUOUS
10
5.2547236614173229
20
-4.0220367716535428
11
5.2560213385826771
21
-4.0229038582677168
0
LINE
8
BLACK
6
CONTINUOUS
10
5.2560213385826771
20
-4.0229038582677168
11
5.2568884251968502
21
-4.0242015354330709
0
LINE
8
BLACK
6
CONTINUOUS
10
5.2568884251968502
20
-4.0242015354330709
11
5.2571929133858264
21
-4.025732283464567
0
LINE
8
BLACK
6
CONTINUOUS
10
5.2571929133858264
20
-4.025732283464567
11
5.2571929133858264
21
-4.0769133858267717
0
LINE
8
BLACK
6
CONTINUOUS
10
5.2571929133858264
20
-4.0769133858267717
11
5.2568884251968502
21
-4.0784441338582678
0
LINE
8
BLACK
6
CONTINUOUS
10
5.2568884251968502
20
-4.0784441338582678
11
5.2560213385826771
21
-4.0797418110236219
0
LINE
8
BLACK
6
CONTINUOUS
10
5.2560213385826771
20
-4.0797418110236219
11
5.2547236614173229
21
-4.080608897637795
0
LINE
8
BLACK
6
CONTINUOUS
10
5.2547236614173229
20
-4.080608897637795
11
5.2531929133858268
21
-4.0809133858267712
0
LINE
8
BLACK
6
CONTINUOUS
10
5.2531929133858268
20
-4.0809133858267712
11
5.1941377952755907
21
-4.0809133858267712
0
LINE
8
BLACK
6
CONTINUOUS
10
5.1941377952755907
20
-4.0809133858267712
11
5.1926070472440946
21
-4.080608897637795
0
LINE
8
BLACK
6
CONTINUOUS
10
5.1926070472440946
20
-4.080608897637795
11
5.1913093700787396
21
-4.0797418110236219
0
LINE
8
BLACK
6
CONTINUOUS
10
5.1913093700787396
20
-4.0797418110236219
11
5.1904422834645665
21
-4.0784441338582678
0
LINE
8
BLACK
6
CONTINUOUS
10
5.1904422834645665
20
-4.0784441338582678
11
5.1901377952755903
21
-4.0769133858267717
0
LINE
8
BLACK
6
CONTINUOUS
10
5.1901377952755903
20
-4.0769133858267717
11
5.1901377952755903
21
-4.025732283464567
0
LINE
8
BLACK
6
CONTINUOUS
10
5.1901377952755903
20
-4.025732283464567
11
5.1904422834645665
21
-4.0242015354330709
0
LINE
8
BLACK
6
CONTINUOUS
10
5.1904422834645665
20
-4.0242015354330709
11
5.1913093700787396
21
-4.0229038582677168
0
LINE
8
BLACK
6
CONTINUOUS
10
5.1913093700787396
20
-4.0229038582677168
11
5.1926070472440946
21
-4.0220367716535428
0
LINE
8
BLACK
6
CONTINUOUS
10
5.1926070472440946
20
-4.0220367716535428
11
5.1941377952755907
21
-4.0217322834645666
0
LINE
8
BLACK
6
CONTINUOUS
10
5.1941377952755907
20
-4.0217322834645666
11
5.2531929133858268
21
-4.0217322834645666
0
LINE
8
BLACK
6
CONTINUOUS
10
5.2531929133858268
20
-4.0217322834645666
11
5.2547236614173229
21
-4.0220367716535428
0
LINE
8
BLACK
6
CONTINUOUS
10
6.4305307480314955
20
-3.9458359842519686
11
6.4318284251968505
21
-3.9467030708661417
0
LINE
8
BLACK
6
CONTINUOUS
10
6.4318284251968505
20
-3.9467030708661417
11
6.4326955118110236
21
-3.9480007480314958
0
LINE
8
BLACK
6
CONTINUOUS
10
6.4326955118110236
20
-3.9480007480314958
11
6.4329999999999998
21
-3.9495314960629919
0
LINE
8
BLACK
6
CONTINUOUS
10
6.4329999999999998
20
-3.9495314960629919
11
6.4329999999999998
21
-4.0145314960629923
0
LINE
8
BLACK
6
CONTINUOUS
10
6.4329999999999998
20
-4.0145314960629923
11
6.4326955118110236
21
-4.0160622440944884
0
LINE
8
BLACK
6
CONTINUOUS
10
6.4326955118110236
20
-4.0160622440944884
11
6.4318284251968505
21
-4.0173599212598425
0
LINE
8
BLACK
6
CONTINUOUS
10
6.4318284251968505
20
-4.0173599212598425
11
6.4305307480314955
21
-4.0182270078740157
0
LINE
8
BLACK
6
CONTINUOUS
10
6.4305307480314955
20
-4.0182270078740157
11
6.4290000000000003
21
-4.0185314960629919
0
LINE
8
BLACK
6
CONTINUOUS
10
6.4290000000000003
20
-4.0185314960629919
11
6.3639999999999999
21
-4.0185314960629919
0
LINE
8
BLACK
6
CONTINUOUS
10
6.3639999999999999
20
-4.0185314960629919
11
6.3624692519685038
21
-4.0182270078740157
0
LINE
8
BLACK
6
CONTINUOUS
10
6.3624692519685038
20
-4.0182270078740157
11
6.3611715748031497
21
-4.0173599212598425
0
LINE
8
BLACK
6
CONTINUOUS
10
6.3611715748031497
20
-4.0173599212598425
11
6.3603044881889765
21
-4.0160622440944884
0
LINE
8
BLACK
6
CONTINUOUS
10
6.3603044881889765
20
-4.0160622440944884
11
6.3599999999999994
21
-4.0145314960629923
0
LINE
8
BLACK
6
CONTINUOUS
10
6.3599999999999994
20
-4.0145314960629923
11
6.3599999999999994
21
-3.9495314960629919
0
LINE
8
BLACK
6
CONTINUOUS
10
6.3599999999999994
20
-3.9495314960629919
11
6.3603044881889765
21
-3.9480007480314958
0
LINE
8
BLACK
6
CONTINUOUS
10
6.3603044881889765
20
-3.9480007480314958
11
6.3611715748031497
21
-3.9467030708661417
0
LINE
8
BLACK
6
CONTINUOUS
10
6.3611715748031497
20
-3.9467030708661417
11
6.3624692519685038
21
-3.9458359842519686
0
LINE
8
BLACK
6
CONTINUOUS
10
6.3624692519685038
20
-3.9458359842519686
11
6.3639999999999999
21
-3.9455314960629919
0
LINE
8
BLACK
6
CONTINUOUS
10
6.3639999999999999
20
-3.9455314960629919
11
6.4290000000000003
21
-3.9455314960629919
0
LINE
8
BLACK
6
CONTINUOUS
10
6.4290000000000003
20
-3.9455314960629919
11
6.4305307480314955
21
-3.9458359842519686
0
LINE
8
BLACK
6
CONTINUOUS
10
6.530530748031496
20
-3.9458359842519686
11
6.5318284251968501
21
-3.9467030708661417
0
LINE
8
BLACK
6
CONTINUOUS
10
6.5318284251968501
20
-3.9467030708661417
11
6.5326955118110233
21
-3.9480007480314958
0
LINE
8
BLACK
6
CONTINUOUS
10
6.5326955118110233
20
-3.9480007480314958
11
6.5329999999999995
21
-3.9495314960629919
0
LINE
8
BLACK
6
CONTINUOUS
10
6.5329999999999995
20
-3.9495314960629919
11
6.5329999999999995
21
-4.0145314960629923
0
LINE
8
BLACK
6
CONTINUOUS
10
6.5329999999999995
20
-4.0145314960629923
11
6.5326955118110233
21
-4.0160622440944884
0
LINE
8
BLACK
6
CONTINUOUS
10
6.5326955118110233
20
-4.0160622440944884
11
6.5318284251968501
21
-4.0173599212598425
0
LINE
8
BLACK
6
CONTINUOUS
10
6.5318284251968501
20
-4.0173599212598425
11
6.530530748031496
21
-4.0182270078740157
0
LINE
8
BLACK
6
CONTINUOUS
10
6.530530748031496
20
-4.0182270078740157
11
6.5289999999999999
21
-4.0185314960629919
0
LINE
8
BLACK
6
CONTINUOUS
10
6.5289999999999999
20
-4.0185314960629919
11
6.4639999999999995
21
-4.0185314960629919
0
LINE
8
BLACK
6
CONTINUOUS
10
6.4639999999999995
20
-4.0185314960629919
11
6.4624692519685034
21
-4.0182270078740157
0
LINE
8
BLACK
6
CONTINUOUS
10
6.4624692519685034
20
-4.0182270078740157
11
6.4611715748031493
21
-4.0173599212598425
0
LINE
8
BLACK
6
CONTINUOUS
10
6.4611715748031493
20
-4.0173599212598425
11
6.4603044881889762
21
-4.0160622440944884
0
LINE
8
BLACK
6
CONTINUOUS
10
6.4603044881889762
20
-4.0160622440944884
11
6.46
21
-4.0145314960629923
0
LINE
8
BLACK
6
CONTINUOUS
10
6.46
20
-4.0145314960629923
11
6.46
21
-3.9495314960629919
0
LINE
8
BLACK
6
CONTINUOUS
10
6.46
20
-3.9495314960629919
11
6.4603044881889762
21
-3.9480007480314958
0
LINE
8
BLACK
6
CONTINUOUS
10
6.4603044881889762
20
-3.9480007480314958
11
6.4611715748031493
21
-3.9467030708661417
0
LINE
8
BLACK
6
CONTINUOUS
10
6.4611715748031493
20
-3.9467030708661417
11
6.4624692519685034
21
-3.9458359842519686
0
LINE
8
BLACK
6
CONTINUOUS
10
6.4624692519685034
20
-3.9458359842519686
11
6.4639999999999995
21
-3.9455314960629919
0
LINE
8
BLACK
6
CONTINUOUS
10
6.4639999999999995
20
-3.9455314960629919
11
6.5289999999999999
21
-3.9455314960629919
0
LINE
8
BLACK
6
CONTINUOUS
10
6.5289999999999999
20
-3.9455314960629919
11
6.530530748031496
21
-3.9458359842519686
0
LINE
8
BLACK
6
CONTINUOUS
10
5.2547236614173229
20
-3.9472336220472442
11
5.2560213385826771
21
-3.9481007086614173
0
LINE
8
BLACK
6
CONTINUOUS
10
5.2560213385826771
20
-3.9481007086614173
11
5.2568884251968502
21
-3.9493983858267714
0
LINE
8
BLACK
6
CONTINUOUS
10
5.2568884251968502
20
-3.9493983858267714
11
5.2571929133858264
21
-3.9509291338582675
0
LINE
8
BLACK
6
CONTINUOUS
10
5.2571929133858264
20
-3.9509291338582675
11
5.2571929133858264
21
-4.0021102362204726
0
LINE
8
BLACK
6
CONTINUOUS
10
5.2571929133858264
20
-4.0021102362204726
11
5.2568884251968502
21
-4.0036409842519687
0
LINE
8
BLACK
6
CONTINUOUS
10
5.2568884251968502
20
-4.0036409842519687
11
5.2560213385826771
21
-4.0049386614173228
0
LINE
8
BLACK
6
CONTINUOUS
10
5.2560213385826771
20
-4.0049386614173228
11
5.2547236614173229
21
-4.0058057480314959
0
LINE
8
BLACK
6
CONTINUOUS
10
5.2547236614173229
20
-4.0058057480314959
11
5.2531929133858268
21
-4.0061102362204721
0
LINE
8
BLACK
6
CONTINUOUS
10
5.2531929133858268
20
-4.0061102362204721
11
5.1941377952755907
21
-4.0061102362204721
0
LINE
8
BLACK
6
CONTINUOUS
10
5.1941377952755907
20
-4.0061102362204721
11
5.1926070472440946
21
-4.0058057480314959
0
LINE
8
BLACK
6
CONTINUOUS
10
5.1926070472440946
20
-4.0058057480314959
11
5.1913093700787396
21
-4.0049386614173228
0
LINE
8
BLACK
6
CONTINUOUS
10
5.1913093700787396
20
-4.0049386614173228
11
5.1904422834645665
21
-4.0036409842519687
0
LINE
8
BLACK
6
CONTINUOUS
10
5.1904422834645665
20
-4.0036409842519687
11
5.1901377952755903
21
-4.0021102362204726
0
LINE
8
BLACK
6
CONTINUOUS
10
5.1901377952755903
20
-4.0021102362204726
11
5.1901377952755903
21
-3.9509291338582675
0
LINE
8
BLACK
6
CONTINUOUS
10
5.1901377952755903
20
-3.9509291338582675
11
5.1904422834645665
21
-3.9493983858267714
0
LINE
8
BLACK
6
CONTINUOUS
10
5.1904422834645665
20
-3.9493983858267714
11
5.1913093700787396
21
-3.9481007086614173
0
LINE
8
BLACK
6
CONTINUOUS
10
5.1913093700787396
20
-3.9481007086614173
11
5.1926070472440946
21
-3.9472336220472442
0
LINE
8
BLACK
6
CONTINUOUS
10
5.1926070472440946
20
-3.9472336220472442
11
5.1941377952755907
21
-3.9469291338582675
0
LINE
8
BLACK
6
CONTINUOUS
10
5.1941377952755907
20
-3.9469291338582675
11
5.2531929133858268
21
-3.9469291338582675
0
LINE
8
BLACK
6
CONTINUOUS
10
5.2531929133858268
20
-3.9469291338582675
11
5.2547236614173229
21
-3.9472336220472442
0
LINE
8
BLACK
6
CONTINUOUS
10
5.2676934251968506
20
-3.6047257086614173
11
5.2815462204724408
21
-3.607774960629921
0
LINE
8
BLACK
6
CONTINUOUS
10
5.2815462204724408
20
-3.607774960629921
11
5.2949881102362202
21
-3.61230405511811
0
LINE
8
BLACK
6
CONTINUOUS
10
5.2949881102362202
20
-3.61230405511811
11
5.3078614960629924
21
-3.6182599212598423
0
LINE
8
BLACK
6
CONTINUOUS
10
5.3078614960629924
20
-3.6182599212598423
11
5.3200155118110235
21
-3.6255727559055115
0
LINE
8
BLACK
6
CONTINUOUS
10
5.3200155118110235
20
-3.6255727559055115
11
5.3313075984251963
21
-3.6341567716535432
0
LINE
8
BLACK
6
CONTINUOUS
10
5.3313075984251963
20
-3.6341567716535432
11
5.341605393700787
21
-3.6439113779527559
0
LINE
8
BLACK
6
CONTINUOUS
10
5.341605393700787
20
-3.6439113779527559
11
5.3507881889763782
21
-3.6547221653543307
0
LINE
8
BLACK
6
CONTINUOUS
10
5.3507881889763782
20
-3.6547221653543307
11
5.3587483070866142
21
-3.6664624409448816
0
LINE
8
BLACK
6
CONTINUOUS
10
5.3587483070866142
20
-3.6664624409448816
11
5.3653923622047239
21
-3.678994527559055
0
LINE
8
BLACK
6
CONTINUOUS
10
5.3653923622047239
20
-3.678994527559055
11
5.3706425590551179
21
-3.6921714960629921
0
LINE
8
BLACK
6
CONTINUOUS
10
5.3706425590551179
20
-3.6921714960629921
11
5.3744372834645668
21
-3.7058388582677164
0
LINE
8
BLACK
6
CONTINUOUS
10
5.3744372834645668
20
-3.7058388582677164
11
5.3767320866141732
21
-3.7198364173228344
0
LINE
8
BLACK
6
CONTINUOUS
10
5.3767320866141732
20
-3.7198364173228344
11
5.3774999999999995
21
-3.734
0
LINE
8
BLACK
6
CONTINUOUS
10
5.3774999999999995
20
-3.734
11
5.3767320866141732
21
-3.7481635826771651
0
LINE
8
BLACK
6
CONTINUOUS
10
5.3767320866141732
20
-3.7481635826771651
11
5.3744372834645668
21
-3.7621611417322836
0
LINE
8
BLACK
6
CONTINUOUS
10
5.3744372834645668
20
-3.7621611417322836
11
5.3706425590551179
21
-3.7758285039370079
0
LINE
8
BLACK
6
CONTINUOUS
10
5.3706425590551179
20
-3.7758285039370079
11
5.3653923622047239
21
-3.789005472440945
0
LINE
8
BLACK
6
CONTINUOUS
10
5.3653923622047239
20
-3.789005472440945
11
5.3587483070866142
21
-3.8015375590551179
0
LINE
8
BLACK
6
CONTINUOUS
10
5.3587483070866142
20
-3.8015375590551179
11
5.3507881889763782
21
-3.8132778346456693
0
LINE
8
BLACK
6
CONTINUOUS
10
5.3507881889763782
20
-3.8132778346456693
11
5.341605393700787
21
-3.8240886220472441
0
LINE
8
BLACK
6
CONTINUOUS
10
5.341605393700787
20
-3.8240886220472441
11
5.3313075984251963
21
-3.8338432283464567
0
LINE
8
BLACK
6
CONTINUOUS
10
5.3313075984251963
20
-3.8338432283464567
11
5.3200155118110235
21
-3.842427244094488
0
LINE
8
BLACK
6
CONTINUOUS
10
5.3200155118110235
20
-3.842427244094488
11
5.3078614960629924
21
-3.8497400787401572
0
LINE
8
BLACK
6
CONTINUOUS
10
5.3078614960629924
20
-3.8497400787401572
11
5.2949881102362202
21
-3.8556959448818895
0
LINE
8
BLACK
6
CONTINUOUS
10
5.2949881102362202
20
-3.8556959448818895
11
5.2815462204724408
21
-3.8602250393700785
0
LINE
8
BLACK
6
CONTINUOUS
10
5.2815462204724408
20
-3.8602250393700785
11
5.2676934251968506
21
-3.8632742913385827
0
LINE
8
BLACK
6
CONTINUOUS
10
5.2676934251968506
20
-3.8632742913385827
11
5.2535922047244092
21
-3.8648078740157481
0
LINE
8
BLACK
6
CONTINUOUS
10
5.2535922047244092
20
-3.8648078740157481
11
5.2394077952755902
21
-3.8648078740157481
0
LINE
8
BLACK
6
CONTINUOUS
10
5.2394077952755902
20
-3.8648078740157481
11
5.2253065748031498
21
-3.8632742913385827
0
LINE
8
BLACK
6
CONTINUOUS
10
5.2253065748031498
20
-3.8632742913385827
11
5.2114537795275586
21
-3.8602250393700785
0
LINE
8
BLACK
6
CONTINUOUS
10
5.2114537795275586
20
-3.8602250393700785
11
5.1980118897637793
21
-3.8556959448818895
0
LINE
8
BLACK
6
CONTINUOUS
10
5.1980118897637793
20
-3.8556959448818895
11
5.1851385039370079
21
-3.8497400787401572
0
LINE
8
BLACK
6
CONTINUOUS
10
5.1851385039370079
20
-3.8497400787401572
11
5.1729844881889759
21
-3.842427244094488
0
LINE
8
BLACK
6
CONTINUOUS
10
5.1729844881889759
20
-3.842427244094488
11
5.1616924015748031
21
-3.8338432283464567
0
LINE
8
BLACK
6
CONTINUOUS
10
5.1616924015748031
20
-3.8338432283464567
11
5.1513946062992124
21
-3.8240886220472441
0
LINE
8
BLACK
6
CONTINUOUS
10
5.1513946062992124
20
-3.8240886220472441
11
5.1422118110236221
21
-3.8132778346456693
0
LINE
8
BLACK
6
CONTINUOUS
10
5.1422118110236221
20
-3.8132778346456693
11
5.1342516929133861
21
-3.8015375590551179
0
LINE
8
BLACK
6
CONTINUOUS
10
5.1342516929133861
20
-3.8015375590551179
11
5.1276076377952755
21
-3.789005472440945
0
LINE
8
BLACK
6
CONTINUOUS
10
5.1276076377952755
20
-3.789005472440945
11
5.1223574409448815
21
-3.7758285039370079
0
LINE
8
BLACK
6
CONTINUOUS
10
5.1223574409448815
20
-3.7758285039370079
11
5.1185627165354326
21
-3.7621611417322836
0
LINE
8
BLACK
6
CONTINUOUS
10
5.1185627165354326
20
-3.7621611417322836
11
5.1162679133858271
21
-3.7481635826771651
0
LINE
8
BLACK
6
CONTINUOUS
10
5.1162679133858271
20
-3.7481635826771651
11
5.1154999999999999
21
-3.734
0
LINE
8
BLACK
6
CONTINUOUS
10
5.1154999999999999
20
-3.734
11
5.1162679133858271
21
-3.7198364173228344
0
LINE
8
BLACK
6
CONTINUOUS
10
5.1162679133858271
20
-3.7198364173228344
11
5.1185627165354326
21
-3.7058388582677164
0
LINE
8
BLACK
6
CONTINUOUS
10
5.1185627165354326
20
-3.7058388582677164
11
5.1223574409448815
21
-3.6921714960629921
0
LINE
8
BLACK
6
CONTINUOUS
10
5.1223574409448815
20
-3.6921714960629921
11
5.1276076377952755
21
-3.678994527559055
0
LINE
8
BLACK
6
CONTINUOUS
10
5.1276076377952755
20
-3.678994527559055
11
5.1342516929133861
21
-3.6664624409448816
0
LINE
8
BLACK
6
CONTINUOUS
10
5.1342516929133861
20
-3.6664624409448816
11
5.1422118110236221
21
-3.6547221653543307
0
LINE
8
BLACK
6
CONTINUOUS
10
5.1422118110236221
20
-3.6547221653543307
11
5.1513946062992124
21
-3.6439113779527559
0
LINE
8
BLACK
6
CONTINUOUS
10
5.1513946062992124
20
-3.6439113779527559
11
5.1616924015748031
21
-3.6341567716535432
0
LINE
8
BLACK
6
CONTINUOUS
10
5.1616924015748031
20
-3.6341567716535432
11
5.1729844881889759
21
-3.6255727559055115
0
LINE
8
BLACK
6
CONTINUOUS
10
5.1729844881889759
20
-3.6255727559055115
11
5.1851385039370079
21
-3.6182599212598423
0
LINE
8
BLACK
6
CONTINUOUS
10
5.1851385039370079
20
-3.6182599212598423
11
5.1980118897637793
21
-3.61230405511811
0
LINE
8
BLACK
6
CONTINUOUS
10
5.1980118897637793
20
-3.61230405511811
11
5.2114537795275586
21
-3.607774960629921
0
LINE
8
BLACK
6
CONTINUOUS
10
5.2114537795275586
20
-3.607774960629921
11
5.2253065748031498
21
-3.6047257086614173
0
LINE
8
BLACK
6
CONTINUOUS
10
5.2253065748031498
20
-3.6047257086614173
11
5.2394077952755902
21
-3.6031921259842519
0
LINE
8
BLACK
6
CONTINUOUS
10
5.2394077952755902
20
-3.6031921259842519
11
5.2535922047244092
21
-3.6031921259842519
0
LINE
8
BLACK
6
CONTINUOUS
10
5.2535922047244092
20
-3.6031921259842519
11
5.2676934251968506
21
-3.6047257086614173
0
LINE
8
BLACK
6
CONTINUOUS
10
6.4676934251968499
20
-3.6047257086614173
11
6.481546220472441
21
-3.607774960629921
0
LINE
8
BLACK
6
CONTINUOUS
10
6.481546220472441
20
-3.607774960629921
11
6.4949881102362204
21
-3.61230405511811
0
LINE
8
BLACK
6
CONTINUOUS
10
6.4949881102362204
20
-3.61230405511811
11
6.5078614960629917
21
-3.6182599212598423
0
LINE
8
BLACK
6
CONTINUOUS
10
6.5078614960629917
20
-3.6182599212598423
11
6.5200155118110237
21
-3.6255727559055115
0
LINE
8
BLACK
6
CONTINUOUS
10
6.5200155118110237
20
-3.6255727559055115
11
6.5313075984251965
21
-3.6341567716535432
0
LINE
8
BLACK
6
CONTINUOUS
10
6.5313075984251965
20
-3.6341567716535432
11
6.5416053937007872
21
-3.6439113779527559
0
LINE
8
BLACK
6
CONTINUOUS
10
6.5416053937007872
20
-3.6439113779527559
11
6.5507881889763775
21
-3.6547221653543307
0
LINE
8
BLACK
6
CONTINUOUS
10
6.5507881889763775
20
-3.6547221653543307
11
6.5587483070866144
21
-3.6664624409448816
0
LINE
8
BLACK
6
CONTINUOUS
10
6.5587483070866144
20
-3.6664624409448816
11
6.5653923622047241
21
-3.678994527559055
0
LINE
8
BLACK
6
CONTINUOUS
10
6.5653923622047241
20
-3.678994527559055
11
6.5706425590551181
21
-3.6921714960629921
0
LINE
8
BLACK
6
CONTINUOUS
10
6.5706425590551181
20
-3.6921714960629921
11
6.574437283464567
21
-3.7058388582677164
0
LINE
8
BLACK
6
CONTINUOUS
10
6.574437283464567
20
-3.7058388582677164
11
6.5767320866141734
21
-3.7198364173228344
0
LINE
8
BLACK
6
CONTINUOUS
10
6.5767320866141734
20
-3.7198364173228344
11
6.5774999999999997
21
-3.734
0
LINE
8
BLACK
6
CONTINUOUS
10
6.5774999999999997
20
-3.734
11
6.5767320866141734
21
-3.7481635826771651
0
LINE
8
BLACK
6
CONTINUOUS
10
6.5767320866141734
20
-3.7481635826771651
11
6.574437283464567
21
-3.7621611417322836
0
LINE
8
BLACK
6
CONTINUOUS
10
6.574437283464567
20
-3.7621611417322836
11
6.5706425590551181
21
-3.7758285039370079
0
LINE
8
BLACK
6
CONTINUOUS
10
6.5706425590551181
20
-3.7758285039370079
11
6.5653923622047241
21
-3.789005472440945
0
LINE
8
BLACK
6
CONTINUOUS
10
6.5653923622047241
20
-3.789005472440945
11
6.5587483070866144
21
-3.8015375590551179
0
LINE
8
BLACK
6
CONTINUOUS
10
6.5587483070866144
20
-3.8015375590551179
11
6.5507881889763775
21
-3.8132778346456693
0
LINE
8
BLACK
6
CONTINUOUS
10
6.5507881889763775
20
-3.8132778346456693
11
6.5416053937007872
21
-3.8240886220472441
0
LINE
8
BLACK
6
CONTINUOUS
10
6.5416053937007872
20
-3.8240886220472441
11
6.5313075984251965
21
-3.8338432283464567
0
LINE
8
BLACK
6
CONTINUOUS
10
6.5313075984251965
20
-3.8338432283464567
11
6.5200155118110237
21
-3.842427244094488
0
LINE
8
BLACK
6
CONTINUOUS
10
6.5200155118110237
20
-3.842427244094488
11
6.5078614960629917
21
-3.8497400787401572
0
LINE
8
BLACK
6
CONTINUOUS
10
6.5078614960629917
20
-3.8497400787401572
11
6.4949881102362204
21
-3.8556959448818895
0
LINE
8
BLACK
6
CONTINUOUS
10
6.4949881102362204
20
-3.8556959448818895
11
6.481546220472441
21
-3.8602250393700785
0
LINE
8
BLACK
6
CONTINUOUS
10
6.481546220472441
20
-3.8602250393700785
11
6.4676934251968499
21
-3.8632742913385827
0
LINE
8
BLACK
6
CONTINUOUS
10
6.4676934251968499
20
-3.8632742913385827
11
6.4535922047244094
21
-3.8648078740157481
0
LINE
8
BLACK
6
CONTINUOUS
10
6.4535922047244094
20
-3.8648078740157481
11
6.4394077952755904
21
-3.8648078740157481
0
LINE
8
BLACK
6
CONTINUOUS
10
6.4394077952755904
20
-3.8648078740157481
11
6.425306574803149
21
-3.8632742913385827
0
LINE
8
BLACK
6
CONTINUOUS
10
6.425306574803149
20
-3.8632742913385827
11
6.4114537795275588
21
-3.8602250393700785
0
LINE
8
BLACK
6
CONTINUOUS
10
6.4114537795275588
20
-3.8602250393700785
11
6.3980118897637794
21
-3.8556959448818895
0
LINE
8
BLACK
6
CONTINUOUS
10
6.3980118897637794
20
-3.8556959448818895
11
6.3851385039370081
21
-3.8497400787401572
0
LINE
8
BLACK
6
CONTINUOUS
10
6.3851385039370081
20
-3.8497400787401572
11
6.3729844881889761
21
-3.842427244094488
0
LINE
8
BLACK
6
CONTINUOUS
10
6.3729844881889761
20
-3.842427244094488
11
6.3616924015748033
21
-3.8338432283464567
0
LINE
8
BLACK
6
CONTINUOUS
10
6.3616924015748033
20
-3.8338432283464567
11
6.3513946062992126
21
-3.8240886220472441
0
LINE
8
BLACK
6
CONTINUOUS
10
6.3513946062992126
20
-3.8240886220472441
11
6.3422118110236223
21
-3.8132778346456693
0
LINE
8
BLACK
6
CONTINUOUS
10
6.3422118110236223
20
-3.8132778346456693
11
6.3342516929133854
21
-3.8015375590551179
0
LINE
8
BLACK
6
CONTINUOUS
10
6.3342516929133854
20
-3.8015375590551179
11
6.3276076377952757
21
-3.789005472440945
0
LINE
8
BLACK
6
CONTINUOUS
10
6.3276076377952757
20
-3.789005472440945
11
6.3223574409448817
21
-3.7758285039370079
0
LINE
8
BLACK
6
CONTINUOUS
10
6.3223574409448817
20
-3.7758285039370079
11
6.3185627165354328
21
-3.7621611417322836
0
LINE
8
BLACK
6
CONTINUOUS
10
6.3185627165354328
20
-3.7621611417322836
11
6.3162679133858264
21
-3.7481635826771651
0
LINE
8
BLACK
6
CONTINUOUS
10
6.3162679133858264
20
-3.7481635826771651
11
6.3155000000000001
21
-3.734
0
LINE
8
BLACK
6
CONTINUOUS
10
6.3155000000000001
20
-3.734
11
6.3162679133858264
21
-3.7198364173228344
0
LINE
8
BLACK
6
CONTINUOUS
10
6.3162679133858264
20
-3.7198364173228344
11
6.3185627165354328
21
-3.7058388582677164
0
LINE
8
BLACK
6
CONTINUOUS
10
6.3185627165354328
20
-3.7058388582677164
11
6.3223574409448817
21
-3.6921714960629921
0
LINE
8
BLACK
6
CONTINUOUS
10
6.3223574409448817
20
-3.6921714960629921
11
6.3276076377952757
21
-3.678994527559055
0
LINE
8
BLACK
6
CONTINUOUS
10
6.3276076377952757
20
-3.678994527559055
11
6.3342516929133854
21
-3.6664624409448816
0
LINE
8
BLACK
6
CONTINUOUS
10
6.3342516929133854
20
-3.6664624409448816
11
6.3422118110236223
21
-3.6547221653543307
0
LINE
8
BLACK
6
CONTINUOUS
10
6.3422118110236223
20
-3.6547221653543307
11
6.3513946062992126
21
-3.6439113779527559
0
LINE
8
BLACK
6
CONTINUOUS
10
6.3513946062992126
20
-3.6439113779527559
11
6.3616924015748033
21
-3.6341567716535432
0
LINE
8
BLACK
6
CONTINUOUS
10
6.3616924015748033
20
-3.6341567716535432
11
6.3729844881889761
21
-3.6255727559055115
0
LINE
8
BLACK
6
CONTINUOUS
10
6.3729844881889761
20
-3.6255727559055115
11
6.3851385039370081
21
-3.6182599212598423
0
LINE
8
BLACK
6
CONTINUOUS
10
6.3851385039370081
20
-3.6182599212598423
11
6.3980118897637794
21
-3.61230405511811
0
LINE
8
BLACK
6
CONTINUOUS
10
6.3980118897637794
20
-3.61230405511811
11
6.4114537795275588
21
-3.607774960629921
0
LINE
8
BLACK
6
CONTINUOUS
10
6.4114537795275588
20
-3.607774960629921
11
6.425306574803149
21
-3.6047257086614173
0
LINE
8
BLACK
6
CONTINUOUS
10
6.425306574803149
20
-3.6047257086614173
11
6.4394077952755904
21
-3.6031921259842519
0
LINE
8
BLACK
6
CONTINUOUS
10
6.4394077952755904
20
-3.6031921259842519
11
6.4535922047244094
21
-3.6031921259842519
0
LINE
8
BLACK
6
CONTINUOUS
10
6.4535922047244094
20
-3.6031921259842519
11
6.4676934251968499
21
-3.6047257086614173
  0
ENDSEC
  0
EOF
