%TF.GenerationSoftware,KiCad,Pcbnew,7.0.11+1*%
%TF.CreationDate,2024-07-04T22:58:39+00:00*%
%TF.ProjectId,LCM01,4c434d30-312e-46b6-9963-61645f706362,rev?*%
%TF.SameCoordinates,Original*%
%TF.FileFunction,Copper,L1,Top*%
%TF.FilePolarity,Positive*%
%FSLAX46Y46*%
G04 Gerber Fmt 4.6, Leading zero omitted, Abs format (unit mm)*
G04 Created by KiCad (PCBNEW 7.0.11+1) date 2024-07-04 22:58:39*
%MOMM*%
%LPD*%
G01*
G04 APERTURE LIST*
%TA.AperFunction,ComponentPad*%
%ADD10R,1.651000X1.651000*%
%TD*%
%TA.AperFunction,SMDPad,CuDef*%
%ADD11R,1.500000X1.300000*%
%TD*%
%TA.AperFunction,ComponentPad*%
%ADD12C,6.451600*%
%TD*%
%TA.AperFunction,ViaPad*%
%ADD13C,1.006400*%
%TD*%
%TA.AperFunction,Conductor*%
%ADD14C,0.406400*%
%TD*%
%TA.AperFunction,Conductor*%
%ADD15C,0.254000*%
%TD*%
G04 APERTURE END LIST*
D10*
%TO.P,SV1,1*%
%TO.N,N$8*%
X144531100Y-113893600D03*
%TO.P,SV1,2*%
X144531100Y-116433600D03*
%TO.P,SV1,3*%
%TO.N,N$14*%
X141991100Y-113893600D03*
%TO.P,SV1,4*%
X141991100Y-116433600D03*
%TD*%
D11*
%TO.P,CX-LX0,1*%
%TO.N,GND*%
X132681100Y-102903600D03*
%TO.P,CX-LX0,2*%
%TO.N,C+*%
X132681100Y-101003600D03*
%TD*%
D10*
%TO.P,SV3,1*%
%TO.N,N$9*%
X150401100Y-113893600D03*
%TO.P,SV3,2*%
X150401100Y-116433600D03*
%TD*%
%TO.P,SV2,1*%
%TO.N,GND*%
X165011100Y-109943600D03*
%TO.P,SV2,2*%
X162471100Y-109943600D03*
%TO.P,SV2,3*%
%TO.N,VCC*%
X165011100Y-107403600D03*
%TO.P,SV2,4*%
X162471100Y-107403600D03*
%TO.P,SV2,5*%
%TO.N,GND*%
X165011100Y-104863600D03*
%TO.P,SV2,6*%
X162471100Y-104863600D03*
%TD*%
D12*
%TO.P,X7,P$1*%
%TO.N,GND*%
X163741100Y-115163600D03*
%TD*%
%TO.P,X1,P$1*%
%TO.N,GND*%
X133261100Y-115163600D03*
%TD*%
%TO.P,X2,P$1*%
%TO.N,GND*%
X133261100Y-94843600D03*
%TD*%
%TO.P,X6,P$1*%
%TO.N,GND*%
X163741100Y-94843600D03*
%TD*%
D10*
%TO.P,SV4,1*%
%TO.N,N$17*%
X165011100Y-101143600D03*
%TO.P,SV4,2*%
X162471100Y-101143600D03*
%TD*%
D13*
%TO.N,GND*%
X151881100Y-110343600D03*
X157431100Y-109743600D03*
X157431100Y-114243600D03*
X138681100Y-97443600D03*
X142281100Y-91893600D03*
X148281100Y-115743600D03*
X156831100Y-92793600D03*
X133131100Y-110493600D03*
X149631100Y-92793600D03*
X148281100Y-117393600D03*
X137631100Y-117393600D03*
X157431100Y-112743600D03*
X139281100Y-117393600D03*
X155031100Y-92793600D03*
X130131100Y-110493600D03*
X156831100Y-94593600D03*
X137631100Y-115893600D03*
X140631100Y-91893600D03*
X146931100Y-100593600D03*
X144231100Y-92793600D03*
X146031100Y-92793600D03*
X146781100Y-115743600D03*
X141231100Y-103593600D03*
X159231100Y-109743600D03*
X139281100Y-114393600D03*
X151881100Y-108993600D03*
X137931100Y-92793600D03*
X131631100Y-110493600D03*
X151431100Y-92793600D03*
X137631100Y-114393600D03*
X146931100Y-102093600D03*
X148281100Y-114093600D03*
X137931100Y-94293600D03*
X156831100Y-96393600D03*
X130131100Y-111843600D03*
X156831100Y-98193600D03*
X152481100Y-113493600D03*
X157431100Y-111243600D03*
X136881100Y-97443600D03*
X147831100Y-92793600D03*
X146781100Y-114093600D03*
X152481100Y-114843600D03*
X153231100Y-92793600D03*
X146781100Y-117393600D03*
X139281100Y-115893600D03*
X160731100Y-102543600D03*
%TO.N,C+*%
X134181100Y-99993600D03*
X132981100Y-99993600D03*
X135381100Y-99993600D03*
%TO.N,N$7*%
X141681100Y-106143600D03*
X138381100Y-111843600D03*
%TD*%
D14*
%TO.N,GND*%
X131181100Y-103743600D02*
X133881100Y-103743600D01*
D15*
X135831100Y-107193600D02*
X135681100Y-107043600D01*
D14*
X134331100Y-102243600D02*
X134331100Y-102543600D01*
X131181100Y-103593600D02*
X131181100Y-103743600D01*
D15*
X138231100Y-106893600D02*
X138231100Y-107193600D01*
D14*
X133881100Y-103743600D02*
X133881100Y-103593600D01*
X131481100Y-102543600D02*
X131481100Y-103293600D01*
D15*
X138831100Y-106743600D02*
X138681100Y-106893600D01*
D14*
X134331100Y-102543600D02*
X131481100Y-102543600D01*
D15*
X138081100Y-106743600D02*
X138231100Y-106893600D01*
X135531100Y-106593600D02*
X138681100Y-106593600D01*
D14*
X134031100Y-103593600D02*
X133881100Y-103593600D01*
X134031100Y-103293600D02*
X134031100Y-103593600D01*
X131481100Y-103293600D02*
X134031100Y-103293600D01*
D15*
X135681100Y-107043600D02*
X138231100Y-107043600D01*
X138381100Y-107043600D02*
X138231100Y-107043600D01*
D14*
X131481100Y-102243600D02*
X134331100Y-102243600D01*
D15*
X138681100Y-106593600D02*
X138831100Y-106743600D01*
X138231100Y-107193600D02*
X135831100Y-107193600D01*
D14*
X133881100Y-103593600D02*
X131181100Y-103593600D01*
D15*
X138081100Y-106893600D02*
X135381100Y-106893600D01*
X135531100Y-106743600D02*
X138081100Y-106743600D01*
X138231100Y-107043600D02*
X138081100Y-106893600D01*
D14*
%TO.N,C+*%
X135381100Y-99993600D02*
X134181100Y-99993600D01*
X135531100Y-100443600D02*
X135681100Y-100293600D01*
X134181100Y-99993600D02*
X132981100Y-99993600D01*
X135381100Y-100743600D02*
X129531100Y-100743600D01*
X135681100Y-101493600D02*
X129531100Y-101493600D01*
X135681100Y-100593600D02*
X135681100Y-101493600D01*
X135681100Y-100293600D02*
X135681100Y-99993600D01*
X129531100Y-101493600D02*
X129531100Y-100893600D01*
X132681100Y-100293600D02*
X132981100Y-99993600D01*
X135681100Y-100593600D02*
X135381100Y-100293600D01*
X135531100Y-101343600D02*
X135681100Y-101493600D01*
X129681100Y-101043600D02*
X135531100Y-101043600D01*
X132681100Y-101003600D02*
X132681100Y-100293600D01*
X132981100Y-99993600D02*
X129531100Y-99993600D01*
X129531100Y-100293600D02*
X129531100Y-99993600D01*
X129531100Y-100293600D02*
X129531100Y-100443600D01*
X135681100Y-99993600D02*
X135381100Y-99993600D01*
X129531100Y-100443600D02*
X135531100Y-100443600D01*
X135381100Y-100293600D02*
X129531100Y-100293600D01*
X129681100Y-99843600D02*
X135681100Y-99843600D01*
X135681100Y-101493600D02*
X135681100Y-101643600D01*
X129531100Y-101643600D02*
X129531100Y-101493600D01*
X135681100Y-99843600D02*
X135681100Y-99993600D01*
X135531100Y-101043600D02*
X135531100Y-101343600D01*
X135681100Y-99543600D02*
X135681100Y-99843600D01*
X129531100Y-100743600D02*
X129531100Y-100893600D01*
X129681100Y-101193600D02*
X135381100Y-101193600D01*
X129531100Y-99543600D02*
X135681100Y-99543600D01*
X135381100Y-101193600D02*
X135531100Y-101343600D01*
X129531100Y-100893600D02*
X129681100Y-101043600D01*
X135681100Y-101643600D02*
X129531100Y-101643600D01*
X135681100Y-100293600D02*
X135681100Y-100593600D01*
X129531100Y-99993600D02*
X129531100Y-99543600D01*
X129531100Y-100743600D02*
X129531100Y-100443600D01*
%TO.N,N$7*%
X138531100Y-111993600D02*
X138381100Y-111843600D01*
X141981100Y-106443600D02*
X141681100Y-106143600D01*
X141081100Y-111993600D02*
X138531100Y-111993600D01*
X141981100Y-111093600D02*
X141081100Y-111993600D01*
X141981100Y-111093600D02*
X141981100Y-106443600D01*
%TD*%
%TA.AperFunction,Conductor*%
%TO.N,GND*%
G36*
X164592653Y-109779372D02*
G01*
X164562836Y-109910007D01*
X164572849Y-110043628D01*
X164621803Y-110168360D01*
X164624546Y-110171800D01*
X162852613Y-110171800D01*
X162889547Y-110107828D01*
X162919364Y-109977193D01*
X162909351Y-109843572D01*
X162860397Y-109718840D01*
X162857654Y-109715400D01*
X164629587Y-109715400D01*
X164592653Y-109779372D01*
G37*
%TD.AperFunction*%
%TA.AperFunction,Conductor*%
G36*
X164592653Y-104699372D02*
G01*
X164562836Y-104830007D01*
X164572849Y-104963628D01*
X164621803Y-105088360D01*
X164624546Y-105091800D01*
X162852613Y-105091800D01*
X162889547Y-105027828D01*
X162919364Y-104897193D01*
X162909351Y-104763572D01*
X162860397Y-104638840D01*
X162857654Y-104635400D01*
X164629587Y-104635400D01*
X164592653Y-104699372D01*
G37*
%TD.AperFunction*%
%TA.AperFunction,Conductor*%
G36*
X168654131Y-89908313D02*
G01*
X168690676Y-89958613D01*
X168695600Y-89989700D01*
X168695600Y-120017500D01*
X168676387Y-120076631D01*
X168626087Y-120113176D01*
X168595000Y-120118100D01*
X128407200Y-120118100D01*
X128348069Y-120098887D01*
X128311524Y-120048587D01*
X128306600Y-120017500D01*
X128306600Y-115391800D01*
X129585806Y-115391800D01*
X129594046Y-115549031D01*
X129594046Y-115549033D01*
X129654420Y-115930213D01*
X129654425Y-115930235D01*
X129754314Y-116303025D01*
X129892623Y-116663332D01*
X129892632Y-116663352D01*
X130067840Y-117007219D01*
X130067844Y-117007226D01*
X130278048Y-117330910D01*
X130278052Y-117330915D01*
X130520938Y-117630855D01*
X130793844Y-117903761D01*
X131093784Y-118146647D01*
X131093789Y-118146651D01*
X131417473Y-118356855D01*
X131417480Y-118356859D01*
X131761347Y-118532067D01*
X131761367Y-118532076D01*
X132121674Y-118670385D01*
X132494464Y-118770274D01*
X132494486Y-118770279D01*
X132875669Y-118830653D01*
X132875664Y-118830653D01*
X133032898Y-118838893D01*
X133032900Y-118838892D01*
X133032900Y-116750587D01*
X133198231Y-116763600D01*
X133323969Y-116763600D01*
X133489300Y-116750587D01*
X133489300Y-118838892D01*
X133489301Y-118838893D01*
X133646532Y-118830653D01*
X134027713Y-118770279D01*
X134027735Y-118770274D01*
X134400525Y-118670385D01*
X134760832Y-118532076D01*
X134760852Y-118532067D01*
X135104719Y-118356859D01*
X135104726Y-118356855D01*
X135428410Y-118146651D01*
X135428415Y-118146647D01*
X135728355Y-117903761D01*
X136001261Y-117630855D01*
X136244147Y-117330915D01*
X136244151Y-117330910D01*
X136277756Y-117279163D01*
X140961900Y-117279163D01*
X140973718Y-117338579D01*
X140973719Y-117338580D01*
X141018740Y-117405960D01*
X141086120Y-117450981D01*
X141145536Y-117462800D01*
X141145537Y-117462800D01*
X142836663Y-117462800D01*
X142836664Y-117462800D01*
X142896080Y-117450981D01*
X142963460Y-117405960D01*
X143008481Y-117338580D01*
X143020300Y-117279164D01*
X143020300Y-117279163D01*
X143501900Y-117279163D01*
X143513718Y-117338579D01*
X143513719Y-117338580D01*
X143558740Y-117405960D01*
X143626120Y-117450981D01*
X143685536Y-117462800D01*
X143685537Y-117462800D01*
X145376663Y-117462800D01*
X145376664Y-117462800D01*
X145436080Y-117450981D01*
X145503460Y-117405960D01*
X145548481Y-117338580D01*
X145560300Y-117279164D01*
X145560300Y-117279163D01*
X149371900Y-117279163D01*
X149383718Y-117338579D01*
X149383719Y-117338580D01*
X149428740Y-117405960D01*
X149496120Y-117450981D01*
X149555536Y-117462800D01*
X149555537Y-117462800D01*
X151246663Y-117462800D01*
X151246664Y-117462800D01*
X151306080Y-117450981D01*
X151373460Y-117405960D01*
X151418481Y-117338580D01*
X151430300Y-117279164D01*
X151430300Y-115588036D01*
X151418481Y-115528620D01*
X151373460Y-115461240D01*
X151306080Y-115416219D01*
X151306079Y-115416218D01*
X151258482Y-115406750D01*
X151246664Y-115404400D01*
X149555536Y-115404400D01*
X149545678Y-115406360D01*
X149496120Y-115416218D01*
X149428740Y-115461240D01*
X149383718Y-115528620D01*
X149371900Y-115588036D01*
X149371900Y-117279163D01*
X145560300Y-117279163D01*
X145560300Y-115588036D01*
X145548481Y-115528620D01*
X145503460Y-115461240D01*
X145436080Y-115416219D01*
X145436079Y-115416218D01*
X145388482Y-115406750D01*
X145376664Y-115404400D01*
X143685536Y-115404400D01*
X143675678Y-115406360D01*
X143626120Y-115416218D01*
X143558740Y-115461240D01*
X143513718Y-115528620D01*
X143501900Y-115588036D01*
X143501900Y-117279163D01*
X143020300Y-117279163D01*
X143020300Y-115588036D01*
X143008481Y-115528620D01*
X142963460Y-115461240D01*
X142896080Y-115416219D01*
X142896079Y-115416218D01*
X142848482Y-115406750D01*
X142836664Y-115404400D01*
X141145536Y-115404400D01*
X141135678Y-115406360D01*
X141086120Y-115416218D01*
X141018740Y-115461240D01*
X140973718Y-115528620D01*
X140961900Y-115588036D01*
X140961900Y-117279163D01*
X136277756Y-117279163D01*
X136454355Y-117007226D01*
X136454359Y-117007219D01*
X136629567Y-116663352D01*
X136629576Y-116663332D01*
X136767885Y-116303025D01*
X136867774Y-115930235D01*
X136867779Y-115930213D01*
X136928153Y-115549033D01*
X136928153Y-115549031D01*
X136936393Y-115391800D01*
X160065806Y-115391800D01*
X160074046Y-115549031D01*
X160074046Y-115549033D01*
X160134420Y-115930213D01*
X160134425Y-115930235D01*
X160234314Y-116303025D01*
X160372623Y-116663332D01*
X160372632Y-116663352D01*
X160547840Y-117007219D01*
X160547844Y-117007226D01*
X160758048Y-117330910D01*
X160758052Y-117330915D01*
X161000938Y-117630855D01*
X161273844Y-117903761D01*
X161573784Y-118146647D01*
X161573789Y-118146651D01*
X161897473Y-118356855D01*
X161897480Y-118356859D01*
X162241347Y-118532067D01*
X162241367Y-118532076D01*
X162601674Y-118670385D01*
X162974464Y-118770274D01*
X162974486Y-118770279D01*
X163355669Y-118830653D01*
X163355664Y-118830653D01*
X163512898Y-118838893D01*
X163512900Y-118838892D01*
X163512900Y-116750587D01*
X163678231Y-116763600D01*
X163803969Y-116763600D01*
X163969300Y-116750587D01*
X163969300Y-118838892D01*
X163969301Y-118838893D01*
X164126532Y-118830653D01*
X164507713Y-118770279D01*
X164507735Y-118770274D01*
X164880525Y-118670385D01*
X165240832Y-118532076D01*
X165240852Y-118532067D01*
X165584719Y-118356859D01*
X165584726Y-118356855D01*
X165908410Y-118146651D01*
X165908415Y-118146647D01*
X166208355Y-117903761D01*
X166481261Y-117630855D01*
X166724147Y-117330915D01*
X166724151Y-117330910D01*
X166934355Y-117007226D01*
X166934359Y-117007219D01*
X167109567Y-116663352D01*
X167109576Y-116663332D01*
X167247885Y-116303025D01*
X167347774Y-115930235D01*
X167347779Y-115930213D01*
X167408153Y-115549033D01*
X167408153Y-115549031D01*
X167416393Y-115391800D01*
X165328088Y-115391800D01*
X165346048Y-115163600D01*
X165328088Y-114935400D01*
X167416393Y-114935400D01*
X167416393Y-114935399D01*
X167408153Y-114778168D01*
X167408153Y-114778166D01*
X167347779Y-114396986D01*
X167347774Y-114396964D01*
X167247885Y-114024174D01*
X167109576Y-113663867D01*
X167109567Y-113663847D01*
X166934359Y-113319981D01*
X166934355Y-113319974D01*
X166724154Y-112996293D01*
X166481261Y-112696344D01*
X166208355Y-112423438D01*
X165908415Y-112180552D01*
X165908410Y-112180548D01*
X165584726Y-111970344D01*
X165584719Y-111970340D01*
X165240852Y-111795132D01*
X165240832Y-111795123D01*
X164880525Y-111656814D01*
X164507735Y-111556925D01*
X164507713Y-111556920D01*
X164126532Y-111496546D01*
X163969300Y-111488306D01*
X163969300Y-113576612D01*
X163803969Y-113563600D01*
X163678231Y-113563600D01*
X163512900Y-113576612D01*
X163512900Y-111488306D01*
X163355668Y-111496546D01*
X163355666Y-111496546D01*
X162974486Y-111556920D01*
X162974464Y-111556925D01*
X162601674Y-111656814D01*
X162241367Y-111795123D01*
X162241347Y-111795132D01*
X161897481Y-111970340D01*
X161897474Y-111970344D01*
X161573793Y-112180545D01*
X161273844Y-112423438D01*
X161000938Y-112696344D01*
X160758045Y-112996293D01*
X160547844Y-113319974D01*
X160547840Y-113319981D01*
X160372632Y-113663847D01*
X160372623Y-113663867D01*
X160234314Y-114024174D01*
X160134425Y-114396964D01*
X160134420Y-114396986D01*
X160074046Y-114778166D01*
X160074046Y-114778168D01*
X160065806Y-114935399D01*
X160065807Y-114935400D01*
X162154112Y-114935400D01*
X162136152Y-115163600D01*
X162154112Y-115391800D01*
X160065806Y-115391800D01*
X136936393Y-115391800D01*
X134848088Y-115391800D01*
X134866048Y-115163600D01*
X134848088Y-114935400D01*
X136936393Y-114935400D01*
X136936393Y-114935399D01*
X136928153Y-114778168D01*
X136928153Y-114778166D01*
X136921975Y-114739163D01*
X140961900Y-114739163D01*
X140973718Y-114798579D01*
X140973719Y-114798580D01*
X141018740Y-114865960D01*
X141086120Y-114910981D01*
X141145536Y-114922800D01*
X141145537Y-114922800D01*
X142836663Y-114922800D01*
X142836664Y-114922800D01*
X142896080Y-114910981D01*
X142963460Y-114865960D01*
X143008481Y-114798580D01*
X143020300Y-114739164D01*
X143020300Y-114739163D01*
X143501900Y-114739163D01*
X143513718Y-114798579D01*
X143513719Y-114798580D01*
X143558740Y-114865960D01*
X143626120Y-114910981D01*
X143685536Y-114922800D01*
X143685537Y-114922800D01*
X145376663Y-114922800D01*
X145376664Y-114922800D01*
X145436080Y-114910981D01*
X145503460Y-114865960D01*
X145548481Y-114798580D01*
X145560300Y-114739164D01*
X145560300Y-114739163D01*
X149371900Y-114739163D01*
X149383718Y-114798579D01*
X149383719Y-114798580D01*
X149428740Y-114865960D01*
X149496120Y-114910981D01*
X149555536Y-114922800D01*
X149555537Y-114922800D01*
X151246663Y-114922800D01*
X151246664Y-114922800D01*
X151306080Y-114910981D01*
X151373460Y-114865960D01*
X151418481Y-114798580D01*
X151430300Y-114739164D01*
X151430300Y-113048036D01*
X151418481Y-112988620D01*
X151373460Y-112921240D01*
X151306080Y-112876219D01*
X151306079Y-112876218D01*
X151258482Y-112866750D01*
X151246664Y-112864400D01*
X149555536Y-112864400D01*
X149545678Y-112866360D01*
X149496120Y-112876218D01*
X149428740Y-112921240D01*
X149383718Y-112988620D01*
X149371900Y-113048036D01*
X149371900Y-114739163D01*
X145560300Y-114739163D01*
X145560300Y-113048036D01*
X145548481Y-112988620D01*
X145503460Y-112921240D01*
X145436080Y-112876219D01*
X145436079Y-112876218D01*
X145388482Y-112866750D01*
X145376664Y-112864400D01*
X143685536Y-112864400D01*
X143675678Y-112866360D01*
X143626120Y-112876218D01*
X143558740Y-112921240D01*
X143513718Y-112988620D01*
X143501900Y-113048036D01*
X143501900Y-114739163D01*
X143020300Y-114739163D01*
X143020300Y-113048036D01*
X143008481Y-112988620D01*
X142963460Y-112921240D01*
X142896080Y-112876219D01*
X142896079Y-112876218D01*
X142848482Y-112866750D01*
X142836664Y-112864400D01*
X141145536Y-112864400D01*
X141135678Y-112866360D01*
X141086120Y-112876218D01*
X141018740Y-112921240D01*
X140973718Y-112988620D01*
X140961900Y-113048036D01*
X140961900Y-114739163D01*
X136921975Y-114739163D01*
X136867779Y-114396986D01*
X136867774Y-114396964D01*
X136767885Y-114024174D01*
X136629576Y-113663867D01*
X136629567Y-113663847D01*
X136454359Y-113319981D01*
X136454355Y-113319974D01*
X136244154Y-112996293D01*
X136001261Y-112696344D01*
X135728355Y-112423438D01*
X135428415Y-112180552D01*
X135428410Y-112180548D01*
X135104726Y-111970344D01*
X135104719Y-111970340D01*
X134855976Y-111843600D01*
X137669008Y-111843600D01*
X137684397Y-111970344D01*
X137689700Y-112014014D01*
X137750574Y-112174526D01*
X137750574Y-112174527D01*
X137760030Y-112188226D01*
X137848091Y-112315804D01*
X137976586Y-112429640D01*
X138128589Y-112509418D01*
X138295267Y-112550500D01*
X138295271Y-112550500D01*
X138466929Y-112550500D01*
X138466933Y-112550500D01*
X138633611Y-112509418D01*
X138785614Y-112429640D01*
X138789949Y-112425800D01*
X138846949Y-112400970D01*
X138856659Y-112400500D01*
X141145544Y-112400500D01*
X141145546Y-112400500D01*
X141168855Y-112392926D01*
X141184192Y-112389243D01*
X141208406Y-112385409D01*
X141230244Y-112374280D01*
X141244825Y-112368241D01*
X141268132Y-112360670D01*
X141287958Y-112346264D01*
X141301422Y-112338014D01*
X141323249Y-112326893D01*
X141323248Y-112326893D01*
X141323251Y-112326892D01*
X141414392Y-112235751D01*
X141414391Y-112235751D01*
X142291466Y-111358678D01*
X142291467Y-111358675D01*
X142297196Y-111352947D01*
X142297199Y-111352942D01*
X142314392Y-111335751D01*
X142325515Y-111313918D01*
X142333763Y-111300460D01*
X142348170Y-111280632D01*
X142355746Y-111257312D01*
X142361779Y-111242748D01*
X142372909Y-111220906D01*
X142376743Y-111196692D01*
X142380426Y-111181352D01*
X142388000Y-111158047D01*
X142388000Y-111029154D01*
X142388000Y-110824063D01*
X161189200Y-110824063D01*
X161192092Y-110854908D01*
X161237531Y-110984769D01*
X161319231Y-111095468D01*
X161429930Y-111177168D01*
X161559792Y-111222607D01*
X161559791Y-111222607D01*
X161590637Y-111225500D01*
X162242900Y-111225500D01*
X162242900Y-110325995D01*
X162276060Y-110348604D01*
X162404102Y-110388100D01*
X162504412Y-110388100D01*
X162603599Y-110373150D01*
X162699300Y-110327062D01*
X162699300Y-111225500D01*
X163351563Y-111225500D01*
X163382408Y-111222607D01*
X163512269Y-111177168D01*
X163622968Y-111095469D01*
X163660157Y-111045080D01*
X163710729Y-111008912D01*
X163772901Y-111009377D01*
X163822043Y-111045080D01*
X163859231Y-111095469D01*
X163969930Y-111177168D01*
X164099792Y-111222607D01*
X164099791Y-111222607D01*
X164130637Y-111225500D01*
X164782900Y-111225500D01*
X164782900Y-110325995D01*
X164816060Y-110348604D01*
X164944102Y-110388100D01*
X165044412Y-110388100D01*
X165143599Y-110373150D01*
X165239300Y-110327062D01*
X165239300Y-111225500D01*
X165891563Y-111225500D01*
X165922408Y-111222607D01*
X166052269Y-111177168D01*
X166162968Y-111095468D01*
X166244668Y-110984769D01*
X166290107Y-110854908D01*
X166293000Y-110824063D01*
X166293000Y-110171800D01*
X165392613Y-110171800D01*
X165429547Y-110107828D01*
X165459364Y-109977193D01*
X165449351Y-109843572D01*
X165400397Y-109718840D01*
X165397654Y-109715400D01*
X166293000Y-109715400D01*
X166293000Y-109063136D01*
X166290107Y-109032291D01*
X166244668Y-108902430D01*
X166162968Y-108791731D01*
X166052269Y-108710031D01*
X165922407Y-108664592D01*
X165922408Y-108664592D01*
X165891563Y-108661700D01*
X165239300Y-108661700D01*
X165239300Y-109561204D01*
X165206140Y-109538596D01*
X165078098Y-109499100D01*
X164977788Y-109499100D01*
X164878601Y-109514050D01*
X164782900Y-109560137D01*
X164782900Y-108661700D01*
X164130637Y-108661700D01*
X164099791Y-108664592D01*
X163969930Y-108710031D01*
X163859231Y-108791731D01*
X163822043Y-108842119D01*
X163771471Y-108878287D01*
X163709298Y-108877822D01*
X163660157Y-108842119D01*
X163622968Y-108791731D01*
X163512269Y-108710031D01*
X163382407Y-108664592D01*
X163382408Y-108664592D01*
X163351563Y-108661700D01*
X162699300Y-108661700D01*
X162699300Y-109561204D01*
X162666140Y-109538596D01*
X162538098Y-109499100D01*
X162437788Y-109499100D01*
X162338601Y-109514050D01*
X162242900Y-109560137D01*
X162242900Y-108661700D01*
X161590637Y-108661700D01*
X161559791Y-108664592D01*
X161429930Y-108710031D01*
X161319231Y-108791731D01*
X161237531Y-108902430D01*
X161192092Y-109032291D01*
X161189200Y-109063136D01*
X161189200Y-109715400D01*
X162089587Y-109715400D01*
X162052653Y-109779372D01*
X162022836Y-109910007D01*
X162032849Y-110043628D01*
X162081803Y-110168360D01*
X162084546Y-110171800D01*
X161189200Y-110171800D01*
X161189200Y-110824063D01*
X142388000Y-110824063D01*
X142388000Y-108249163D01*
X161441900Y-108249163D01*
X161453718Y-108308579D01*
X161453719Y-108308580D01*
X161498740Y-108375960D01*
X161566120Y-108420981D01*
X161625536Y-108432800D01*
X161625537Y-108432800D01*
X163316663Y-108432800D01*
X163316664Y-108432800D01*
X163376080Y-108420981D01*
X163443460Y-108375960D01*
X163488481Y-108308580D01*
X163500300Y-108249164D01*
X163500300Y-108249163D01*
X163981900Y-108249163D01*
X163993718Y-108308579D01*
X163993719Y-108308580D01*
X164038740Y-108375960D01*
X164106120Y-108420981D01*
X164165536Y-108432800D01*
X164165537Y-108432800D01*
X165856663Y-108432800D01*
X165856664Y-108432800D01*
X165916080Y-108420981D01*
X165983460Y-108375960D01*
X166028481Y-108308580D01*
X166040300Y-108249164D01*
X166040300Y-106558036D01*
X166028481Y-106498620D01*
X165983460Y-106431240D01*
X165916080Y-106386219D01*
X165916079Y-106386218D01*
X165868482Y-106376750D01*
X165856664Y-106374400D01*
X164165536Y-106374400D01*
X164155678Y-106376360D01*
X164106120Y-106386218D01*
X164038740Y-106431240D01*
X163993718Y-106498620D01*
X163981900Y-106558036D01*
X163981900Y-108249163D01*
X163500300Y-108249163D01*
X163500300Y-106558036D01*
X163488481Y-106498620D01*
X163443460Y-106431240D01*
X163376080Y-106386219D01*
X163376079Y-106386218D01*
X163328482Y-106376750D01*
X163316664Y-106374400D01*
X161625536Y-106374400D01*
X161615678Y-106376360D01*
X161566120Y-106386218D01*
X161498740Y-106431240D01*
X161453718Y-106498620D01*
X161441900Y-106558036D01*
X161441900Y-108249163D01*
X142388000Y-108249163D01*
X142388000Y-106411576D01*
X142388000Y-106379154D01*
X142380423Y-106355835D01*
X142376744Y-106340509D01*
X142374720Y-106327734D01*
X142374216Y-106299879D01*
X142393192Y-106143600D01*
X142372500Y-105973185D01*
X142311626Y-105812674D01*
X142264267Y-105744063D01*
X161189200Y-105744063D01*
X161192092Y-105774908D01*
X161237531Y-105904769D01*
X161319231Y-106015468D01*
X161429930Y-106097168D01*
X161559792Y-106142607D01*
X161559791Y-106142607D01*
X161590637Y-106145500D01*
X162242900Y-106145500D01*
X162242900Y-105245995D01*
X162276060Y-105268604D01*
X162404102Y-105308100D01*
X162504412Y-105308100D01*
X162603599Y-105293150D01*
X162699300Y-105247062D01*
X162699300Y-106145500D01*
X163351563Y-106145500D01*
X163382408Y-106142607D01*
X163512269Y-106097168D01*
X163622968Y-106015469D01*
X163660157Y-105965080D01*
X163710729Y-105928912D01*
X163772901Y-105929377D01*
X163822043Y-105965080D01*
X163859231Y-106015469D01*
X163969930Y-106097168D01*
X164099792Y-106142607D01*
X164099791Y-106142607D01*
X164130637Y-106145500D01*
X164782900Y-106145500D01*
X164782900Y-105245995D01*
X164816060Y-105268604D01*
X164944102Y-105308100D01*
X165044412Y-105308100D01*
X165143599Y-105293150D01*
X165239300Y-105247062D01*
X165239300Y-106145500D01*
X165891563Y-106145500D01*
X165922408Y-106142607D01*
X166052269Y-106097168D01*
X166162968Y-106015468D01*
X166244668Y-105904769D01*
X166290107Y-105774908D01*
X166293000Y-105744063D01*
X166293000Y-105091800D01*
X165392613Y-105091800D01*
X165429547Y-105027828D01*
X165459364Y-104897193D01*
X165449351Y-104763572D01*
X165400397Y-104638840D01*
X165397654Y-104635400D01*
X166293000Y-104635400D01*
X166293000Y-103983136D01*
X166290107Y-103952291D01*
X166244668Y-103822430D01*
X166162968Y-103711731D01*
X166052269Y-103630031D01*
X165922407Y-103584592D01*
X165922408Y-103584592D01*
X165891563Y-103581700D01*
X165239300Y-103581700D01*
X165239300Y-104481204D01*
X165206140Y-104458596D01*
X165078098Y-104419100D01*
X164977788Y-104419100D01*
X164878601Y-104434050D01*
X164782900Y-104480137D01*
X164782900Y-103581700D01*
X164130637Y-103581700D01*
X164099791Y-103584592D01*
X163969930Y-103630031D01*
X163859231Y-103711731D01*
X163822043Y-103762119D01*
X163771471Y-103798287D01*
X163709298Y-103797822D01*
X163660157Y-103762119D01*
X163622968Y-103711731D01*
X163512269Y-103630031D01*
X163382407Y-103584592D01*
X163382408Y-103584592D01*
X163351563Y-103581700D01*
X162699300Y-103581700D01*
X162699300Y-104481204D01*
X162666140Y-104458596D01*
X162538098Y-104419100D01*
X162437788Y-104419100D01*
X162338601Y-104434050D01*
X162242900Y-104480137D01*
X162242900Y-103581700D01*
X161590637Y-103581700D01*
X161559791Y-103584592D01*
X161429930Y-103630031D01*
X161319231Y-103711731D01*
X161237531Y-103822430D01*
X161192092Y-103952291D01*
X161189200Y-103983136D01*
X161189200Y-104635400D01*
X162089587Y-104635400D01*
X162052653Y-104699372D01*
X162022836Y-104830007D01*
X162032849Y-104963628D01*
X162081803Y-105088360D01*
X162084546Y-105091800D01*
X161189200Y-105091800D01*
X161189200Y-105744063D01*
X142264267Y-105744063D01*
X142214109Y-105671396D01*
X142085614Y-105557560D01*
X141933611Y-105477782D01*
X141933608Y-105477781D01*
X141766935Y-105436700D01*
X141766933Y-105436700D01*
X141595267Y-105436700D01*
X141595264Y-105436700D01*
X141428591Y-105477781D01*
X141276587Y-105557559D01*
X141148090Y-105671397D01*
X141050574Y-105812672D01*
X141050574Y-105812673D01*
X141006314Y-105929377D01*
X140989700Y-105973185D01*
X140969008Y-106143600D01*
X140989700Y-106314015D01*
X141026700Y-106411576D01*
X141050574Y-106474526D01*
X141050574Y-106474527D01*
X141108217Y-106558036D01*
X141148091Y-106615804D01*
X141276586Y-106729640D01*
X141428589Y-106809418D01*
X141428591Y-106809418D01*
X141428592Y-106809419D01*
X141463484Y-106818018D01*
X141497673Y-106826445D01*
X141550489Y-106859250D01*
X141573936Y-106916833D01*
X141574200Y-106924122D01*
X141574200Y-110883386D01*
X141554987Y-110942517D01*
X141544735Y-110954521D01*
X140942022Y-111557235D01*
X140886624Y-111585461D01*
X140870887Y-111586700D01*
X139109140Y-111586700D01*
X139050009Y-111567487D01*
X139015078Y-111521775D01*
X139011627Y-111512676D01*
X139011625Y-111512672D01*
X138976971Y-111462468D01*
X138914109Y-111371396D01*
X138785614Y-111257560D01*
X138633611Y-111177782D01*
X138633608Y-111177781D01*
X138466935Y-111136700D01*
X138466933Y-111136700D01*
X138295267Y-111136700D01*
X138295264Y-111136700D01*
X138128591Y-111177781D01*
X137976587Y-111257559D01*
X137848090Y-111371397D01*
X137750574Y-111512672D01*
X137750574Y-111512673D01*
X137695909Y-111656814D01*
X137689700Y-111673185D01*
X137669008Y-111843600D01*
X134855976Y-111843600D01*
X134760852Y-111795132D01*
X134760832Y-111795123D01*
X134400525Y-111656814D01*
X134027735Y-111556925D01*
X134027713Y-111556920D01*
X133646532Y-111496546D01*
X133489300Y-111488306D01*
X133489300Y-113576612D01*
X133323969Y-113563600D01*
X133198231Y-113563600D01*
X133032900Y-113576612D01*
X133032900Y-111488306D01*
X133032899Y-111488306D01*
X132875668Y-111496546D01*
X132875666Y-111496546D01*
X132494486Y-111556920D01*
X132494464Y-111556925D01*
X132121674Y-111656814D01*
X131761367Y-111795123D01*
X131761347Y-111795132D01*
X131417481Y-111970340D01*
X131417474Y-111970344D01*
X131093793Y-112180545D01*
X130793844Y-112423438D01*
X130520938Y-112696344D01*
X130278045Y-112996293D01*
X130067844Y-113319974D01*
X130067840Y-113319981D01*
X129892632Y-113663847D01*
X129892623Y-113663867D01*
X129754314Y-114024174D01*
X129654425Y-114396964D01*
X129654420Y-114396986D01*
X129594046Y-114778166D01*
X129594046Y-114778168D01*
X129585806Y-114935399D01*
X129585807Y-114935400D01*
X131674112Y-114935400D01*
X131656152Y-115163600D01*
X131674112Y-115391800D01*
X129585806Y-115391800D01*
X128306600Y-115391800D01*
X128306600Y-103131800D01*
X131474700Y-103131800D01*
X131474700Y-103608563D01*
X131477592Y-103639408D01*
X131523031Y-103769269D01*
X131604731Y-103879968D01*
X131715430Y-103961668D01*
X131845292Y-104007107D01*
X131845291Y-104007107D01*
X131876137Y-104010000D01*
X132452900Y-104010000D01*
X132452900Y-103131800D01*
X132909300Y-103131800D01*
X132909300Y-104010000D01*
X133486063Y-104010000D01*
X133516908Y-104007107D01*
X133646769Y-103961668D01*
X133757468Y-103879968D01*
X133839168Y-103769269D01*
X133884607Y-103639408D01*
X133887500Y-103608563D01*
X133887500Y-103131800D01*
X132909300Y-103131800D01*
X132452900Y-103131800D01*
X131474700Y-103131800D01*
X128306600Y-103131800D01*
X128306600Y-101643602D01*
X129119128Y-101643602D01*
X129139290Y-101770903D01*
X129139291Y-101770906D01*
X129197807Y-101885750D01*
X129288949Y-101976892D01*
X129403791Y-102035408D01*
X129403792Y-102035408D01*
X129403794Y-102035409D01*
X129486953Y-102048580D01*
X129499076Y-102050500D01*
X129531098Y-102055572D01*
X129531100Y-102055572D01*
X129531101Y-102055572D01*
X129555301Y-102051739D01*
X129571039Y-102050500D01*
X131378266Y-102050500D01*
X131437397Y-102069713D01*
X131473942Y-102120013D01*
X131475999Y-102161494D01*
X131478164Y-102161697D01*
X131474700Y-102198636D01*
X131474700Y-102675400D01*
X133887500Y-102675400D01*
X133887500Y-102198636D01*
X133884036Y-102161697D01*
X133886757Y-102161441D01*
X133891803Y-102110700D01*
X133933145Y-102064262D01*
X133983934Y-102050500D01*
X135641161Y-102050500D01*
X135656899Y-102051739D01*
X135681099Y-102055572D01*
X135681100Y-102055572D01*
X135681102Y-102055572D01*
X135713124Y-102050500D01*
X135725247Y-102048580D01*
X135808406Y-102035409D01*
X135899168Y-101989163D01*
X161441900Y-101989163D01*
X161453718Y-102048579D01*
X161458391Y-102055572D01*
X161498740Y-102115960D01*
X161566120Y-102160981D01*
X161625536Y-102172800D01*
X161625537Y-102172800D01*
X163316663Y-102172800D01*
X163316664Y-102172800D01*
X163376080Y-102160981D01*
X163443460Y-102115960D01*
X163488481Y-102048580D01*
X163500300Y-101989164D01*
X163500300Y-101989163D01*
X163981900Y-101989163D01*
X163993718Y-102048579D01*
X163998391Y-102055572D01*
X164038740Y-102115960D01*
X164106120Y-102160981D01*
X164165536Y-102172800D01*
X164165537Y-102172800D01*
X165856663Y-102172800D01*
X165856664Y-102172800D01*
X165916080Y-102160981D01*
X165983460Y-102115960D01*
X166028481Y-102048580D01*
X166040300Y-101989164D01*
X166040300Y-100298036D01*
X166028481Y-100238620D01*
X165983460Y-100171240D01*
X165916080Y-100126219D01*
X165916079Y-100126218D01*
X165868482Y-100116750D01*
X165856664Y-100114400D01*
X164165536Y-100114400D01*
X164155678Y-100116360D01*
X164106120Y-100126218D01*
X164038740Y-100171240D01*
X163993718Y-100238620D01*
X163981900Y-100298036D01*
X163981900Y-101989163D01*
X163500300Y-101989163D01*
X163500300Y-100298036D01*
X163488481Y-100238620D01*
X163443460Y-100171240D01*
X163376080Y-100126219D01*
X163376079Y-100126218D01*
X163328482Y-100116750D01*
X163316664Y-100114400D01*
X161625536Y-100114400D01*
X161615678Y-100116360D01*
X161566120Y-100126218D01*
X161498740Y-100171240D01*
X161453718Y-100238620D01*
X161441900Y-100298036D01*
X161441900Y-101989163D01*
X135899168Y-101989163D01*
X135923251Y-101976892D01*
X136014392Y-101885751D01*
X136072909Y-101770906D01*
X136093072Y-101643600D01*
X136089238Y-101619398D01*
X136088000Y-101603661D01*
X136088000Y-101533538D01*
X136089239Y-101517799D01*
X136093072Y-101493600D01*
X136093072Y-101493598D01*
X136089239Y-101469399D01*
X136088000Y-101453661D01*
X136088000Y-100042448D01*
X136088733Y-100030323D01*
X136089304Y-100025623D01*
X136093192Y-99993600D01*
X136088733Y-99956875D01*
X136088000Y-99944750D01*
X136088000Y-99883538D01*
X136089239Y-99867799D01*
X136093072Y-99843600D01*
X136093072Y-99843598D01*
X136089239Y-99819399D01*
X136088000Y-99803661D01*
X136088000Y-99583538D01*
X136089239Y-99567799D01*
X136093072Y-99543600D01*
X136093072Y-99543597D01*
X136072909Y-99416296D01*
X136072909Y-99416294D01*
X136014392Y-99301449D01*
X135923251Y-99210308D01*
X135923250Y-99210307D01*
X135808408Y-99151791D01*
X135785486Y-99148160D01*
X135713124Y-99136700D01*
X135697112Y-99134164D01*
X135681101Y-99131628D01*
X135681099Y-99131628D01*
X135656899Y-99135461D01*
X135641161Y-99136700D01*
X129571039Y-99136700D01*
X129555301Y-99135461D01*
X129531101Y-99131628D01*
X129531099Y-99131628D01*
X129515088Y-99134164D01*
X129499076Y-99136700D01*
X129434482Y-99146930D01*
X129403791Y-99151791D01*
X129288949Y-99210307D01*
X129197807Y-99301449D01*
X129139291Y-99416293D01*
X129139290Y-99416296D01*
X129119128Y-99543597D01*
X129119128Y-99543600D01*
X129122961Y-99567799D01*
X129124200Y-99583538D01*
X129124200Y-99953661D01*
X129122961Y-99969399D01*
X129119128Y-99993598D01*
X129119128Y-99993600D01*
X129122961Y-100017799D01*
X129124200Y-100033538D01*
X129124200Y-100253661D01*
X129122961Y-100269399D01*
X129119128Y-100293598D01*
X129119128Y-100293600D01*
X129122961Y-100317799D01*
X129124200Y-100333538D01*
X129124200Y-100403661D01*
X129122961Y-100419399D01*
X129119128Y-100443598D01*
X129119128Y-100443600D01*
X129122961Y-100467799D01*
X129124200Y-100483538D01*
X129124200Y-100703661D01*
X129122961Y-100719399D01*
X129119128Y-100743598D01*
X129119128Y-100743600D01*
X129122961Y-100767799D01*
X129124200Y-100783538D01*
X129124200Y-101453661D01*
X129122961Y-101469399D01*
X129119128Y-101493598D01*
X129119128Y-101493600D01*
X129122961Y-101517799D01*
X129124200Y-101533538D01*
X129124200Y-101603661D01*
X129122961Y-101619399D01*
X129119128Y-101643598D01*
X129119128Y-101643602D01*
X128306600Y-101643602D01*
X128306600Y-95071800D01*
X129585806Y-95071800D01*
X129594046Y-95229031D01*
X129594046Y-95229033D01*
X129654420Y-95610213D01*
X129654425Y-95610235D01*
X129754314Y-95983025D01*
X129892623Y-96343332D01*
X129892632Y-96343352D01*
X130067840Y-96687219D01*
X130067844Y-96687226D01*
X130278048Y-97010910D01*
X130278052Y-97010915D01*
X130520938Y-97310855D01*
X130793844Y-97583761D01*
X131093784Y-97826647D01*
X131093789Y-97826651D01*
X131417473Y-98036855D01*
X131417480Y-98036859D01*
X131761347Y-98212067D01*
X131761367Y-98212076D01*
X132121674Y-98350385D01*
X132494464Y-98450274D01*
X132494486Y-98450279D01*
X132875669Y-98510653D01*
X132875664Y-98510653D01*
X133032898Y-98518893D01*
X133032900Y-98518892D01*
X133032900Y-96430587D01*
X133198231Y-96443600D01*
X133323969Y-96443600D01*
X133489300Y-96430587D01*
X133489300Y-98518892D01*
X133489301Y-98518893D01*
X133646532Y-98510653D01*
X134027713Y-98450279D01*
X134027735Y-98450274D01*
X134400525Y-98350385D01*
X134760832Y-98212076D01*
X134760852Y-98212067D01*
X135104719Y-98036859D01*
X135104726Y-98036855D01*
X135428410Y-97826651D01*
X135428415Y-97826647D01*
X135728355Y-97583761D01*
X136001261Y-97310855D01*
X136244147Y-97010915D01*
X136244151Y-97010910D01*
X136454355Y-96687226D01*
X136454359Y-96687219D01*
X136629567Y-96343352D01*
X136629576Y-96343332D01*
X136767885Y-95983025D01*
X136867774Y-95610235D01*
X136867779Y-95610213D01*
X136928153Y-95229033D01*
X136928153Y-95229031D01*
X136936393Y-95071800D01*
X160065806Y-95071800D01*
X160074046Y-95229031D01*
X160074046Y-95229033D01*
X160134420Y-95610213D01*
X160134425Y-95610235D01*
X160234314Y-95983025D01*
X160372623Y-96343332D01*
X160372632Y-96343352D01*
X160547840Y-96687219D01*
X160547844Y-96687226D01*
X160758048Y-97010910D01*
X160758052Y-97010915D01*
X161000938Y-97310855D01*
X161273844Y-97583761D01*
X161573784Y-97826647D01*
X161573789Y-97826651D01*
X161897473Y-98036855D01*
X161897480Y-98036859D01*
X162241347Y-98212067D01*
X162241367Y-98212076D01*
X162601674Y-98350385D01*
X162974464Y-98450274D01*
X162974486Y-98450279D01*
X163355669Y-98510653D01*
X163355664Y-98510653D01*
X163512898Y-98518893D01*
X163512900Y-98518892D01*
X163512900Y-96430587D01*
X163678231Y-96443600D01*
X163803969Y-96443600D01*
X163969300Y-96430587D01*
X163969300Y-98518892D01*
X163969301Y-98518893D01*
X164126532Y-98510653D01*
X164507713Y-98450279D01*
X164507735Y-98450274D01*
X164880525Y-98350385D01*
X165240832Y-98212076D01*
X165240852Y-98212067D01*
X165584719Y-98036859D01*
X165584726Y-98036855D01*
X165908410Y-97826651D01*
X165908415Y-97826647D01*
X166208355Y-97583761D01*
X166481261Y-97310855D01*
X166724147Y-97010915D01*
X166724151Y-97010910D01*
X166934355Y-96687226D01*
X166934359Y-96687219D01*
X167109567Y-96343352D01*
X167109576Y-96343332D01*
X167247885Y-95983025D01*
X167347774Y-95610235D01*
X167347779Y-95610213D01*
X167408153Y-95229033D01*
X167408153Y-95229031D01*
X167416393Y-95071800D01*
X165328088Y-95071800D01*
X165346048Y-94843600D01*
X165328088Y-94615400D01*
X167416393Y-94615400D01*
X167416393Y-94615399D01*
X167408153Y-94458168D01*
X167408153Y-94458166D01*
X167347779Y-94076986D01*
X167347774Y-94076964D01*
X167247885Y-93704174D01*
X167109576Y-93343867D01*
X167109567Y-93343847D01*
X166934359Y-92999981D01*
X166934355Y-92999974D01*
X166724154Y-92676293D01*
X166481261Y-92376344D01*
X166208355Y-92103438D01*
X165908415Y-91860552D01*
X165908410Y-91860548D01*
X165584726Y-91650344D01*
X165584719Y-91650340D01*
X165240852Y-91475132D01*
X165240832Y-91475123D01*
X164880525Y-91336814D01*
X164507735Y-91236925D01*
X164507713Y-91236920D01*
X164126532Y-91176546D01*
X163969300Y-91168306D01*
X163969300Y-93256612D01*
X163803969Y-93243600D01*
X163678231Y-93243600D01*
X163512900Y-93256612D01*
X163512900Y-91168306D01*
X163512899Y-91168306D01*
X163355668Y-91176546D01*
X163355666Y-91176546D01*
X162974486Y-91236920D01*
X162974464Y-91236925D01*
X162601674Y-91336814D01*
X162241367Y-91475123D01*
X162241347Y-91475132D01*
X161897481Y-91650340D01*
X161897474Y-91650344D01*
X161573793Y-91860545D01*
X161273844Y-92103438D01*
X161000938Y-92376344D01*
X160758045Y-92676293D01*
X160547844Y-92999974D01*
X160547840Y-92999981D01*
X160372632Y-93343847D01*
X160372623Y-93343867D01*
X160234314Y-93704174D01*
X160134425Y-94076964D01*
X160134420Y-94076986D01*
X160074046Y-94458166D01*
X160074046Y-94458168D01*
X160065806Y-94615399D01*
X160065807Y-94615400D01*
X162154112Y-94615400D01*
X162136152Y-94843600D01*
X162154112Y-95071800D01*
X160065806Y-95071800D01*
X136936393Y-95071800D01*
X134848088Y-95071800D01*
X134866048Y-94843600D01*
X134848088Y-94615400D01*
X136936393Y-94615400D01*
X136936393Y-94615399D01*
X136928153Y-94458168D01*
X136928153Y-94458166D01*
X136867779Y-94076986D01*
X136867774Y-94076964D01*
X136767885Y-93704174D01*
X136629576Y-93343867D01*
X136629567Y-93343847D01*
X136454359Y-92999981D01*
X136454355Y-92999974D01*
X136244154Y-92676293D01*
X136001261Y-92376344D01*
X135728355Y-92103438D01*
X135428415Y-91860552D01*
X135428410Y-91860548D01*
X135104726Y-91650344D01*
X135104719Y-91650340D01*
X134760852Y-91475132D01*
X134760832Y-91475123D01*
X134400525Y-91336814D01*
X134027735Y-91236925D01*
X134027713Y-91236920D01*
X133646532Y-91176546D01*
X133489300Y-91168306D01*
X133489300Y-93256612D01*
X133323969Y-93243600D01*
X133198231Y-93243600D01*
X133032900Y-93256612D01*
X133032900Y-91168306D01*
X133032899Y-91168306D01*
X132875668Y-91176546D01*
X132875666Y-91176546D01*
X132494486Y-91236920D01*
X132494464Y-91236925D01*
X132121674Y-91336814D01*
X131761367Y-91475123D01*
X131761347Y-91475132D01*
X131417481Y-91650340D01*
X131417474Y-91650344D01*
X131093793Y-91860545D01*
X130793844Y-92103438D01*
X130520938Y-92376344D01*
X130278045Y-92676293D01*
X130067844Y-92999974D01*
X130067840Y-92999981D01*
X129892632Y-93343847D01*
X129892623Y-93343867D01*
X129754314Y-93704174D01*
X129654425Y-94076964D01*
X129654420Y-94076986D01*
X129594046Y-94458166D01*
X129594046Y-94458168D01*
X129585806Y-94615399D01*
X129585807Y-94615400D01*
X131674112Y-94615400D01*
X131656152Y-94843600D01*
X131674112Y-95071800D01*
X129585806Y-95071800D01*
X128306600Y-95071800D01*
X128306600Y-89989700D01*
X128325813Y-89930569D01*
X128376113Y-89894024D01*
X128407200Y-89889100D01*
X168595000Y-89889100D01*
X168654131Y-89908313D01*
G37*
%TD.AperFunction*%
%TD*%
M02*
