%TF.GenerationSoftware,KiCad,Pcbnew,7.0.11+1*%
%TF.CreationDate,2024-07-04T22:58:39+00:00*%
%TF.ProjectId,LCM01,4c434d30-312e-46b6-9963-61645f706362,rev?*%
%TF.SameCoordinates,Original*%
%TF.FileFunction,Legend,Top*%
%TF.FilePolarity,Positive*%
%FSLAX46Y46*%
G04 Gerber Fmt 4.6, Leading zero omitted, Abs format (unit mm)*
G04 Created by KiCad (PCBNEW 7.0.11+1) date 2024-07-04 22:58:39*
%MOMM*%
%LPD*%
G01*
G04 APERTURE LIST*
%ADD10C,0.113792*%
%ADD11C,0.142240*%
%ADD12C,0.101600*%
%ADD13C,0.152400*%
G04 APERTURE END LIST*
D10*
X144396104Y-107984649D02*
X144396104Y-108607795D01*
X144396104Y-108607795D02*
X143087496Y-108607795D01*
X144396104Y-107673076D02*
X143523699Y-106987614D01*
X143523699Y-107673076D02*
X144396104Y-106987614D01*
X143897587Y-105492062D02*
X143897587Y-104495028D01*
X144271475Y-102127070D02*
X144333790Y-102189385D01*
X144333790Y-102189385D02*
X144396104Y-102376329D01*
X144396104Y-102376329D02*
X144396104Y-102500958D01*
X144396104Y-102500958D02*
X144333790Y-102687902D01*
X144333790Y-102687902D02*
X144209160Y-102812532D01*
X144209160Y-102812532D02*
X144084531Y-102874846D01*
X144084531Y-102874846D02*
X143835272Y-102937161D01*
X143835272Y-102937161D02*
X143648328Y-102937161D01*
X143648328Y-102937161D02*
X143399070Y-102874846D01*
X143399070Y-102874846D02*
X143274440Y-102812532D01*
X143274440Y-102812532D02*
X143149811Y-102687902D01*
X143149811Y-102687902D02*
X143087496Y-102500958D01*
X143087496Y-102500958D02*
X143087496Y-102376329D01*
X143087496Y-102376329D02*
X143149811Y-102189385D01*
X143149811Y-102189385D02*
X143212126Y-102127070D01*
X144396104Y-101690868D02*
X143523699Y-101005406D01*
X143523699Y-101690868D02*
X144396104Y-101005406D01*
D11*
X145164144Y-95886017D02*
X145164144Y-94250257D01*
X145164144Y-94250257D02*
X145709398Y-95418657D01*
X145709398Y-95418657D02*
X146254651Y-94250257D01*
X146254651Y-94250257D02*
X146254651Y-95886017D01*
X147812518Y-95886017D02*
X147033584Y-95886017D01*
X147033584Y-95886017D02*
X147033584Y-94250257D01*
X148279878Y-95418657D02*
X149058811Y-95418657D01*
X148124091Y-95886017D02*
X148669345Y-94250257D01*
X148669345Y-94250257D02*
X149214598Y-95886017D01*
X150305105Y-95029190D02*
X150538785Y-95107084D01*
X150538785Y-95107084D02*
X150616678Y-95184977D01*
X150616678Y-95184977D02*
X150694571Y-95340764D01*
X150694571Y-95340764D02*
X150694571Y-95574444D01*
X150694571Y-95574444D02*
X150616678Y-95730230D01*
X150616678Y-95730230D02*
X150538785Y-95808124D01*
X150538785Y-95808124D02*
X150382998Y-95886017D01*
X150382998Y-95886017D02*
X149759851Y-95886017D01*
X149759851Y-95886017D02*
X149759851Y-94250257D01*
X149759851Y-94250257D02*
X150305105Y-94250257D01*
X150305105Y-94250257D02*
X150460891Y-94328150D01*
X150460891Y-94328150D02*
X150538785Y-94406044D01*
X150538785Y-94406044D02*
X150616678Y-94561830D01*
X150616678Y-94561830D02*
X150616678Y-94717617D01*
X150616678Y-94717617D02*
X150538785Y-94873404D01*
X150538785Y-94873404D02*
X150460891Y-94951297D01*
X150460891Y-94951297D02*
X150305105Y-95029190D01*
X150305105Y-95029190D02*
X149759851Y-95029190D01*
D12*
X145759218Y-110976926D02*
X146426875Y-110976926D01*
X146093046Y-112145326D02*
X146093046Y-110976926D01*
X146816342Y-111533307D02*
X147205809Y-111533307D01*
X147372723Y-112145326D02*
X146816342Y-112145326D01*
X146816342Y-112145326D02*
X146816342Y-110976926D01*
X146816342Y-110976926D02*
X147372723Y-110976926D01*
X147817828Y-112089688D02*
X147984742Y-112145326D01*
X147984742Y-112145326D02*
X148262933Y-112145326D01*
X148262933Y-112145326D02*
X148374209Y-112089688D01*
X148374209Y-112089688D02*
X148429847Y-112034049D01*
X148429847Y-112034049D02*
X148485485Y-111922773D01*
X148485485Y-111922773D02*
X148485485Y-111811497D01*
X148485485Y-111811497D02*
X148429847Y-111700221D01*
X148429847Y-111700221D02*
X148374209Y-111644583D01*
X148374209Y-111644583D02*
X148262933Y-111588945D01*
X148262933Y-111588945D02*
X148040380Y-111533307D01*
X148040380Y-111533307D02*
X147929104Y-111477668D01*
X147929104Y-111477668D02*
X147873466Y-111422030D01*
X147873466Y-111422030D02*
X147817828Y-111310754D01*
X147817828Y-111310754D02*
X147817828Y-111199478D01*
X147817828Y-111199478D02*
X147873466Y-111088202D01*
X147873466Y-111088202D02*
X147929104Y-111032564D01*
X147929104Y-111032564D02*
X148040380Y-110976926D01*
X148040380Y-110976926D02*
X148318571Y-110976926D01*
X148318571Y-110976926D02*
X148485485Y-111032564D01*
X148819314Y-110976926D02*
X149486971Y-110976926D01*
X149153142Y-112145326D02*
X149153142Y-110976926D01*
X150766648Y-112145326D02*
X150766648Y-110976926D01*
X150766648Y-110976926D02*
X151211753Y-110976926D01*
X151211753Y-110976926D02*
X151323029Y-111032564D01*
X151323029Y-111032564D02*
X151378667Y-111088202D01*
X151378667Y-111088202D02*
X151434305Y-111199478D01*
X151434305Y-111199478D02*
X151434305Y-111366392D01*
X151434305Y-111366392D02*
X151378667Y-111477668D01*
X151378667Y-111477668D02*
X151323029Y-111533307D01*
X151323029Y-111533307D02*
X151211753Y-111588945D01*
X151211753Y-111588945D02*
X150766648Y-111588945D01*
X152602705Y-112145326D02*
X152213238Y-111588945D01*
X151935048Y-112145326D02*
X151935048Y-110976926D01*
X151935048Y-110976926D02*
X152380153Y-110976926D01*
X152380153Y-110976926D02*
X152491429Y-111032564D01*
X152491429Y-111032564D02*
X152547067Y-111088202D01*
X152547067Y-111088202D02*
X152602705Y-111199478D01*
X152602705Y-111199478D02*
X152602705Y-111366392D01*
X152602705Y-111366392D02*
X152547067Y-111477668D01*
X152547067Y-111477668D02*
X152491429Y-111533307D01*
X152491429Y-111533307D02*
X152380153Y-111588945D01*
X152380153Y-111588945D02*
X151935048Y-111588945D01*
X153326000Y-110976926D02*
X153548553Y-110976926D01*
X153548553Y-110976926D02*
X153659829Y-111032564D01*
X153659829Y-111032564D02*
X153771105Y-111143840D01*
X153771105Y-111143840D02*
X153826743Y-111366392D01*
X153826743Y-111366392D02*
X153826743Y-111755859D01*
X153826743Y-111755859D02*
X153771105Y-111978411D01*
X153771105Y-111978411D02*
X153659829Y-112089688D01*
X153659829Y-112089688D02*
X153548553Y-112145326D01*
X153548553Y-112145326D02*
X153326000Y-112145326D01*
X153326000Y-112145326D02*
X153214724Y-112089688D01*
X153214724Y-112089688D02*
X153103448Y-111978411D01*
X153103448Y-111978411D02*
X153047810Y-111755859D01*
X153047810Y-111755859D02*
X153047810Y-111366392D01*
X153047810Y-111366392D02*
X153103448Y-111143840D01*
X153103448Y-111143840D02*
X153214724Y-111032564D01*
X153214724Y-111032564D02*
X153326000Y-110976926D01*
X154716953Y-111533307D02*
X154883867Y-111588945D01*
X154883867Y-111588945D02*
X154939505Y-111644583D01*
X154939505Y-111644583D02*
X154995143Y-111755859D01*
X154995143Y-111755859D02*
X154995143Y-111922773D01*
X154995143Y-111922773D02*
X154939505Y-112034049D01*
X154939505Y-112034049D02*
X154883867Y-112089688D01*
X154883867Y-112089688D02*
X154772591Y-112145326D01*
X154772591Y-112145326D02*
X154327486Y-112145326D01*
X154327486Y-112145326D02*
X154327486Y-110976926D01*
X154327486Y-110976926D02*
X154716953Y-110976926D01*
X154716953Y-110976926D02*
X154828229Y-111032564D01*
X154828229Y-111032564D02*
X154883867Y-111088202D01*
X154883867Y-111088202D02*
X154939505Y-111199478D01*
X154939505Y-111199478D02*
X154939505Y-111310754D01*
X154939505Y-111310754D02*
X154883867Y-111422030D01*
X154883867Y-111422030D02*
X154828229Y-111477668D01*
X154828229Y-111477668D02*
X154716953Y-111533307D01*
X154716953Y-111533307D02*
X154327486Y-111533307D01*
X155495886Y-111533307D02*
X155885353Y-111533307D01*
X156052267Y-112145326D02*
X155495886Y-112145326D01*
X155495886Y-112145326D02*
X155495886Y-110976926D01*
X155495886Y-110976926D02*
X156052267Y-110976926D01*
D10*
X156979672Y-107610087D02*
X157976707Y-107610087D01*
X157478189Y-108108604D02*
X157478189Y-107111570D01*
X159223000Y-106799996D02*
X158599853Y-106799996D01*
X158599853Y-106799996D02*
X158537538Y-107423143D01*
X158537538Y-107423143D02*
X158599853Y-107360828D01*
X158599853Y-107360828D02*
X158724482Y-107298514D01*
X158724482Y-107298514D02*
X159036056Y-107298514D01*
X159036056Y-107298514D02*
X159160685Y-107360828D01*
X159160685Y-107360828D02*
X159223000Y-107423143D01*
X159223000Y-107423143D02*
X159285314Y-107547772D01*
X159285314Y-107547772D02*
X159285314Y-107859346D01*
X159285314Y-107859346D02*
X159223000Y-107983975D01*
X159223000Y-107983975D02*
X159160685Y-108046290D01*
X159160685Y-108046290D02*
X159036056Y-108108604D01*
X159036056Y-108108604D02*
X158724482Y-108108604D01*
X158724482Y-108108604D02*
X158599853Y-108046290D01*
X158599853Y-108046290D02*
X158537538Y-107983975D01*
X159659202Y-106799996D02*
X160095405Y-108108604D01*
X160095405Y-108108604D02*
X160531607Y-106799996D01*
D12*
X155620494Y-117088202D02*
X155676132Y-117032564D01*
X155676132Y-117032564D02*
X155787408Y-116976926D01*
X155787408Y-116976926D02*
X156065599Y-116976926D01*
X156065599Y-116976926D02*
X156176875Y-117032564D01*
X156176875Y-117032564D02*
X156232513Y-117088202D01*
X156232513Y-117088202D02*
X156288151Y-117199478D01*
X156288151Y-117199478D02*
X156288151Y-117310754D01*
X156288151Y-117310754D02*
X156232513Y-117477668D01*
X156232513Y-117477668D02*
X155564856Y-118145326D01*
X155564856Y-118145326D02*
X156288151Y-118145326D01*
X157011446Y-116976926D02*
X157122723Y-116976926D01*
X157122723Y-116976926D02*
X157233999Y-117032564D01*
X157233999Y-117032564D02*
X157289637Y-117088202D01*
X157289637Y-117088202D02*
X157345275Y-117199478D01*
X157345275Y-117199478D02*
X157400913Y-117422030D01*
X157400913Y-117422030D02*
X157400913Y-117700221D01*
X157400913Y-117700221D02*
X157345275Y-117922773D01*
X157345275Y-117922773D02*
X157289637Y-118034049D01*
X157289637Y-118034049D02*
X157233999Y-118089688D01*
X157233999Y-118089688D02*
X157122723Y-118145326D01*
X157122723Y-118145326D02*
X157011446Y-118145326D01*
X157011446Y-118145326D02*
X156900170Y-118089688D01*
X156900170Y-118089688D02*
X156844532Y-118034049D01*
X156844532Y-118034049D02*
X156788894Y-117922773D01*
X156788894Y-117922773D02*
X156733256Y-117700221D01*
X156733256Y-117700221D02*
X156733256Y-117422030D01*
X156733256Y-117422030D02*
X156788894Y-117199478D01*
X156788894Y-117199478D02*
X156844532Y-117088202D01*
X156844532Y-117088202D02*
X156900170Y-117032564D01*
X156900170Y-117032564D02*
X157011446Y-116976926D01*
X158513675Y-118145326D02*
X157846018Y-118145326D01*
X158179846Y-118145326D02*
X158179846Y-116976926D01*
X158179846Y-116976926D02*
X158068570Y-117143840D01*
X158068570Y-117143840D02*
X157957294Y-117255116D01*
X157957294Y-117255116D02*
X157846018Y-117310754D01*
X158903142Y-116976926D02*
X159626437Y-116976926D01*
X159626437Y-116976926D02*
X159236970Y-117422030D01*
X159236970Y-117422030D02*
X159403885Y-117422030D01*
X159403885Y-117422030D02*
X159515161Y-117477668D01*
X159515161Y-117477668D02*
X159570799Y-117533307D01*
X159570799Y-117533307D02*
X159626437Y-117644583D01*
X159626437Y-117644583D02*
X159626437Y-117922773D01*
X159626437Y-117922773D02*
X159570799Y-118034049D01*
X159570799Y-118034049D02*
X159515161Y-118089688D01*
X159515161Y-118089688D02*
X159403885Y-118145326D01*
X159403885Y-118145326D02*
X159070056Y-118145326D01*
X159070056Y-118145326D02*
X158958780Y-118089688D01*
X158958780Y-118089688D02*
X158903142Y-118034049D01*
D10*
X142502719Y-111969478D02*
X142565033Y-111782534D01*
X142565033Y-111782534D02*
X142565033Y-111470961D01*
X142565033Y-111470961D02*
X142502719Y-111346331D01*
X142502719Y-111346331D02*
X142440404Y-111284017D01*
X142440404Y-111284017D02*
X142315775Y-111221702D01*
X142315775Y-111221702D02*
X142191145Y-111221702D01*
X142191145Y-111221702D02*
X142066516Y-111284017D01*
X142066516Y-111284017D02*
X142004201Y-111346331D01*
X142004201Y-111346331D02*
X141941887Y-111470961D01*
X141941887Y-111470961D02*
X141879572Y-111720219D01*
X141879572Y-111720219D02*
X141817257Y-111844849D01*
X141817257Y-111844849D02*
X141754943Y-111907163D01*
X141754943Y-111907163D02*
X141630313Y-111969478D01*
X141630313Y-111969478D02*
X141505684Y-111969478D01*
X141505684Y-111969478D02*
X141381055Y-111907163D01*
X141381055Y-111907163D02*
X141318740Y-111844849D01*
X141318740Y-111844849D02*
X141256425Y-111720219D01*
X141256425Y-111720219D02*
X141256425Y-111408646D01*
X141256425Y-111408646D02*
X141318740Y-111221702D01*
X141879572Y-110660870D02*
X141879572Y-110224668D01*
X142565033Y-110037724D02*
X142565033Y-110660870D01*
X142565033Y-110660870D02*
X141256425Y-110660870D01*
X141256425Y-110660870D02*
X141256425Y-110037724D01*
X141256425Y-109663835D02*
X141256425Y-108916059D01*
X142565033Y-109289947D02*
X141256425Y-109289947D01*
X141381055Y-108542171D02*
X141318740Y-108479856D01*
X141318740Y-108479856D02*
X141256425Y-108355227D01*
X141256425Y-108355227D02*
X141256425Y-108043654D01*
X141256425Y-108043654D02*
X141318740Y-107919024D01*
X141318740Y-107919024D02*
X141381055Y-107856710D01*
X141381055Y-107856710D02*
X141505684Y-107794395D01*
X141505684Y-107794395D02*
X141630313Y-107794395D01*
X141630313Y-107794395D02*
X141817257Y-107856710D01*
X141817257Y-107856710D02*
X142565033Y-108604486D01*
X142565033Y-108604486D02*
X142565033Y-107794395D01*
X157166795Y-100318925D02*
X157416053Y-100318925D01*
X157416053Y-100318925D02*
X157540683Y-100381240D01*
X157540683Y-100381240D02*
X157665312Y-100505869D01*
X157665312Y-100505869D02*
X157727627Y-100755128D01*
X157727627Y-100755128D02*
X157727627Y-101191331D01*
X157727627Y-101191331D02*
X157665312Y-101440589D01*
X157665312Y-101440589D02*
X157540683Y-101565219D01*
X157540683Y-101565219D02*
X157416053Y-101627533D01*
X157416053Y-101627533D02*
X157166795Y-101627533D01*
X157166795Y-101627533D02*
X157042165Y-101565219D01*
X157042165Y-101565219D02*
X156917536Y-101440589D01*
X156917536Y-101440589D02*
X156855221Y-101191331D01*
X156855221Y-101191331D02*
X156855221Y-100755128D01*
X156855221Y-100755128D02*
X156917536Y-100505869D01*
X156917536Y-100505869D02*
X157042165Y-100381240D01*
X157042165Y-100381240D02*
X157166795Y-100318925D01*
X158288459Y-100318925D02*
X158288459Y-101378275D01*
X158288459Y-101378275D02*
X158350774Y-101502904D01*
X158350774Y-101502904D02*
X158413088Y-101565219D01*
X158413088Y-101565219D02*
X158537718Y-101627533D01*
X158537718Y-101627533D02*
X158786976Y-101627533D01*
X158786976Y-101627533D02*
X158911606Y-101565219D01*
X158911606Y-101565219D02*
X158973920Y-101502904D01*
X158973920Y-101502904D02*
X159036235Y-101378275D01*
X159036235Y-101378275D02*
X159036235Y-100318925D01*
X159472438Y-100318925D02*
X160220214Y-100318925D01*
X159846326Y-101627533D02*
X159846326Y-100318925D01*
D12*
X154809961Y-115176926D02*
X154809961Y-116011497D01*
X154809961Y-116011497D02*
X154754322Y-116178411D01*
X154754322Y-116178411D02*
X154643046Y-116289688D01*
X154643046Y-116289688D02*
X154476132Y-116345326D01*
X154476132Y-116345326D02*
X154364856Y-116345326D01*
X155310704Y-116011497D02*
X155867085Y-116011497D01*
X155199428Y-116345326D02*
X155588894Y-115176926D01*
X155588894Y-115176926D02*
X155978361Y-116345326D01*
X157035485Y-116234049D02*
X156979847Y-116289688D01*
X156979847Y-116289688D02*
X156812933Y-116345326D01*
X156812933Y-116345326D02*
X156701657Y-116345326D01*
X156701657Y-116345326D02*
X156534742Y-116289688D01*
X156534742Y-116289688D02*
X156423466Y-116178411D01*
X156423466Y-116178411D02*
X156367828Y-116067135D01*
X156367828Y-116067135D02*
X156312190Y-115844583D01*
X156312190Y-115844583D02*
X156312190Y-115677668D01*
X156312190Y-115677668D02*
X156367828Y-115455116D01*
X156367828Y-115455116D02*
X156423466Y-115343840D01*
X156423466Y-115343840D02*
X156534742Y-115232564D01*
X156534742Y-115232564D02*
X156701657Y-115176926D01*
X156701657Y-115176926D02*
X156812933Y-115176926D01*
X156812933Y-115176926D02*
X156979847Y-115232564D01*
X156979847Y-115232564D02*
X157035485Y-115288202D01*
X157536228Y-116345326D02*
X157536228Y-115176926D01*
X157536228Y-115733307D02*
X158203885Y-115733307D01*
X158203885Y-116345326D02*
X158203885Y-115176926D01*
X158982818Y-115176926D02*
X159205371Y-115176926D01*
X159205371Y-115176926D02*
X159316647Y-115232564D01*
X159316647Y-115232564D02*
X159427923Y-115343840D01*
X159427923Y-115343840D02*
X159483561Y-115566392D01*
X159483561Y-115566392D02*
X159483561Y-115955859D01*
X159483561Y-115955859D02*
X159427923Y-116178411D01*
X159427923Y-116178411D02*
X159316647Y-116289688D01*
X159316647Y-116289688D02*
X159205371Y-116345326D01*
X159205371Y-116345326D02*
X158982818Y-116345326D01*
X158982818Y-116345326D02*
X158871542Y-116289688D01*
X158871542Y-116289688D02*
X158760266Y-116178411D01*
X158760266Y-116178411D02*
X158704628Y-115955859D01*
X158704628Y-115955859D02*
X158704628Y-115566392D01*
X158704628Y-115566392D02*
X158760266Y-115343840D01*
X158760266Y-115343840D02*
X158871542Y-115232564D01*
X158871542Y-115232564D02*
X158982818Y-115176926D01*
D11*
X144443078Y-98436017D02*
X143664144Y-98436017D01*
X143664144Y-98436017D02*
X143664144Y-96800257D01*
X145923051Y-98280230D02*
X145845158Y-98358124D01*
X145845158Y-98358124D02*
X145611478Y-98436017D01*
X145611478Y-98436017D02*
X145455691Y-98436017D01*
X145455691Y-98436017D02*
X145222011Y-98358124D01*
X145222011Y-98358124D02*
X145066225Y-98202337D01*
X145066225Y-98202337D02*
X144988331Y-98046550D01*
X144988331Y-98046550D02*
X144910438Y-97734977D01*
X144910438Y-97734977D02*
X144910438Y-97501297D01*
X144910438Y-97501297D02*
X144988331Y-97189724D01*
X144988331Y-97189724D02*
X145066225Y-97033937D01*
X145066225Y-97033937D02*
X145222011Y-96878150D01*
X145222011Y-96878150D02*
X145455691Y-96800257D01*
X145455691Y-96800257D02*
X145611478Y-96800257D01*
X145611478Y-96800257D02*
X145845158Y-96878150D01*
X145845158Y-96878150D02*
X145923051Y-96956044D01*
X146624091Y-98436017D02*
X146624091Y-96800257D01*
X146624091Y-96800257D02*
X147169345Y-97968657D01*
X147169345Y-97968657D02*
X147714598Y-96800257D01*
X147714598Y-96800257D02*
X147714598Y-98436017D01*
X148805105Y-96800257D02*
X148960891Y-96800257D01*
X148960891Y-96800257D02*
X149116678Y-96878150D01*
X149116678Y-96878150D02*
X149194571Y-96956044D01*
X149194571Y-96956044D02*
X149272465Y-97111830D01*
X149272465Y-97111830D02*
X149350358Y-97423404D01*
X149350358Y-97423404D02*
X149350358Y-97812870D01*
X149350358Y-97812870D02*
X149272465Y-98124444D01*
X149272465Y-98124444D02*
X149194571Y-98280230D01*
X149194571Y-98280230D02*
X149116678Y-98358124D01*
X149116678Y-98358124D02*
X148960891Y-98436017D01*
X148960891Y-98436017D02*
X148805105Y-98436017D01*
X148805105Y-98436017D02*
X148649318Y-98358124D01*
X148649318Y-98358124D02*
X148571425Y-98280230D01*
X148571425Y-98280230D02*
X148493531Y-98124444D01*
X148493531Y-98124444D02*
X148415638Y-97812870D01*
X148415638Y-97812870D02*
X148415638Y-97423404D01*
X148415638Y-97423404D02*
X148493531Y-97111830D01*
X148493531Y-97111830D02*
X148571425Y-96956044D01*
X148571425Y-96956044D02*
X148649318Y-96878150D01*
X148649318Y-96878150D02*
X148805105Y-96800257D01*
X150908225Y-98436017D02*
X149973505Y-98436017D01*
X150440865Y-98436017D02*
X150440865Y-96800257D01*
X150440865Y-96800257D02*
X150285078Y-97033937D01*
X150285078Y-97033937D02*
X150129292Y-97189724D01*
X150129292Y-97189724D02*
X149973505Y-97267617D01*
X151531372Y-97968657D02*
X152310305Y-97968657D01*
X151375585Y-98436017D02*
X151920839Y-96800257D01*
X151920839Y-96800257D02*
X152466092Y-98436017D01*
D10*
X145052719Y-111969478D02*
X145115033Y-111782534D01*
X145115033Y-111782534D02*
X145115033Y-111470961D01*
X145115033Y-111470961D02*
X145052719Y-111346331D01*
X145052719Y-111346331D02*
X144990404Y-111284017D01*
X144990404Y-111284017D02*
X144865775Y-111221702D01*
X144865775Y-111221702D02*
X144741145Y-111221702D01*
X144741145Y-111221702D02*
X144616516Y-111284017D01*
X144616516Y-111284017D02*
X144554201Y-111346331D01*
X144554201Y-111346331D02*
X144491887Y-111470961D01*
X144491887Y-111470961D02*
X144429572Y-111720219D01*
X144429572Y-111720219D02*
X144367257Y-111844849D01*
X144367257Y-111844849D02*
X144304943Y-111907163D01*
X144304943Y-111907163D02*
X144180313Y-111969478D01*
X144180313Y-111969478D02*
X144055684Y-111969478D01*
X144055684Y-111969478D02*
X143931055Y-111907163D01*
X143931055Y-111907163D02*
X143868740Y-111844849D01*
X143868740Y-111844849D02*
X143806425Y-111720219D01*
X143806425Y-111720219D02*
X143806425Y-111408646D01*
X143806425Y-111408646D02*
X143868740Y-111221702D01*
X144429572Y-110660870D02*
X144429572Y-110224668D01*
X145115033Y-110037724D02*
X145115033Y-110660870D01*
X145115033Y-110660870D02*
X143806425Y-110660870D01*
X143806425Y-110660870D02*
X143806425Y-110037724D01*
X143806425Y-109663835D02*
X143806425Y-108916059D01*
X145115033Y-109289947D02*
X143806425Y-109289947D01*
X145115033Y-107794395D02*
X145115033Y-108542171D01*
X145115033Y-108168283D02*
X143806425Y-108168283D01*
X143806425Y-108168283D02*
X143993369Y-108292912D01*
X143993369Y-108292912D02*
X144117999Y-108417542D01*
X144117999Y-108417542D02*
X144180313Y-108542171D01*
D13*
%TO.C,SV1*%
X145801100Y-117068600D02*
X145801100Y-113258600D01*
X145801100Y-113258600D02*
X145166100Y-112623600D01*
X145166100Y-117703600D02*
X145801100Y-117068600D01*
X145166100Y-117703600D02*
X143896100Y-117703600D01*
X143896100Y-117703600D02*
X143261100Y-117068600D01*
X143896100Y-112623600D02*
X145166100Y-112623600D01*
X143261100Y-117068600D02*
X142626100Y-117703600D01*
X143261100Y-113258600D02*
X143896100Y-112623600D01*
X142626100Y-117703600D02*
X141356100Y-117703600D01*
X142626100Y-112623600D02*
X143261100Y-113258600D01*
X141356100Y-117703600D02*
X140721100Y-117068600D01*
X141356100Y-112623600D02*
X142626100Y-112623600D01*
X140721100Y-117068600D02*
X140721100Y-113258600D01*
X140721100Y-113258600D02*
X141356100Y-112623600D01*
%TO.C,SV3*%
X151036100Y-112623600D02*
X149766100Y-112623600D01*
X149766100Y-112623600D02*
X149131100Y-113258600D01*
X151671100Y-113258600D02*
X151036100Y-112623600D01*
X151671100Y-113258600D02*
X151671100Y-114528600D01*
X151671100Y-114528600D02*
X151036100Y-115163600D01*
X149131100Y-114528600D02*
X149131100Y-113258600D01*
X151036100Y-115163600D02*
X151671100Y-115798600D01*
X149766100Y-115163600D02*
X149131100Y-114528600D01*
X151671100Y-115798600D02*
X151671100Y-117068600D01*
X149131100Y-115798600D02*
X149766100Y-115163600D01*
X151671100Y-117068600D02*
X151036100Y-117703600D01*
X149131100Y-117068600D02*
X149131100Y-115798600D01*
X151036100Y-117703600D02*
X149766100Y-117703600D01*
X149766100Y-117703600D02*
X149131100Y-117068600D01*
G36*
X150655100Y-116687600D02*
G01*
X150147100Y-116687600D01*
X150147100Y-116179600D01*
X150655100Y-116179600D01*
X150655100Y-116687600D01*
G37*
%TO.C,SV2*%
X161836100Y-111213600D02*
X165646100Y-111213600D01*
X165646100Y-111213600D02*
X166281100Y-110578600D01*
X161201100Y-110578600D02*
X161836100Y-111213600D01*
X161201100Y-110578600D02*
X161201100Y-109308600D01*
X161201100Y-109308600D02*
X161836100Y-108673600D01*
X166281100Y-109308600D02*
X166281100Y-110578600D01*
X161836100Y-108673600D02*
X161201100Y-108038600D01*
X165646100Y-108673600D02*
X166281100Y-109308600D01*
X161201100Y-108038600D02*
X161201100Y-106768600D01*
X166281100Y-108038600D02*
X165646100Y-108673600D01*
X161201100Y-106768600D02*
X161836100Y-106133600D01*
X166281100Y-106768600D02*
X166281100Y-108038600D01*
X161836100Y-106133600D02*
X161201100Y-105498600D01*
X165646100Y-106133600D02*
X166281100Y-106768600D01*
X161201100Y-105498600D02*
X161201100Y-104228600D01*
X166281100Y-105498600D02*
X165646100Y-106133600D01*
X161201100Y-104228600D02*
X161836100Y-103593600D01*
X166281100Y-104228600D02*
X166281100Y-105498600D01*
X161836100Y-103593600D02*
X165646100Y-103593600D01*
X165646100Y-103593600D02*
X166281100Y-104228600D01*
%TO.C,SV4*%
X166281100Y-101778600D02*
X166281100Y-100508600D01*
X166281100Y-100508600D02*
X165646100Y-99873600D01*
X165646100Y-102413600D02*
X166281100Y-101778600D01*
X165646100Y-102413600D02*
X164376100Y-102413600D01*
X164376100Y-102413600D02*
X163741100Y-101778600D01*
X164376100Y-99873600D02*
X165646100Y-99873600D01*
X163741100Y-101778600D02*
X163106100Y-102413600D01*
X163741100Y-100508600D02*
X164376100Y-99873600D01*
X163106100Y-102413600D02*
X161836100Y-102413600D01*
X163106100Y-99873600D02*
X163741100Y-100508600D01*
X161836100Y-102413600D02*
X161201100Y-101778600D01*
X161836100Y-99873600D02*
X163106100Y-99873600D01*
X161201100Y-101778600D02*
X161201100Y-100508600D01*
X161201100Y-100508600D02*
X161836100Y-99873600D01*
G36*
X162725100Y-101397600D02*
G01*
X162217100Y-101397600D01*
X162217100Y-100889600D01*
X162725100Y-100889600D01*
X162725100Y-101397600D01*
G37*
%TD*%
M02*
