M48
; DRILL file {KiCad 7.0.11+1} date Thu Jul  4 22:58:39 2024
; FORMAT={3:3/ absolute / metric / suppress leading zeros}
; #@! TF.CreationDate,2024-07-04T22:58:39+00:00
; #@! TF.GenerationSoftware,Kicad,Pcbnew,7.0.11+1
; #@! TF.FileFunction,Plated,1,2,PTH
FMAT,2
METRIC,TZ
; #@! TA.AperFunction,Plated,PTH,ViaDrill
T1C0.600
; #@! TA.AperFunction,Plated,PTH,ComponentDrill
T2C0.889
; #@! TA.AperFunction,Plated,PTH,ComponentDrill
T3C3.200
%
G90
G05
T1
X130131Y-110494
X130131Y-111844
X131631Y-110494
X132981Y-99994
X133131Y-110494
X134181Y-99994
X135381Y-99994
X136881Y-97444
X137631Y-114394
X137631Y-115894
X137631Y-117394
X137931Y-92794
X137931Y-94294
X138381Y-111844
X138681Y-97444
X139281Y-114394
X139281Y-115894
X139281Y-117394
X140631Y-91894
X141231Y-103594
X141681Y-106144
X142281Y-91894
X144231Y-92794
X146031Y-92794
X146781Y-114094
X146781Y-115744
X146781Y-117394
X146931Y-100594
X146931Y-102094
X147831Y-92794
X148281Y-114094
X148281Y-115744
X148281Y-117394
X149631Y-92794
X151431Y-92794
X151881Y-108994
X151881Y-110344
X152481Y-113494
X152481Y-114844
X153231Y-92794
X155031Y-92794
X156831Y-92794
X156831Y-94594
X156831Y-96394
X156831Y-98194
X157431Y-109744
X157431Y-111244
X157431Y-112744
X157431Y-114244
X159231Y-109744
X160731Y-102544
T2
X141991Y-113894
X141991Y-116434
X144531Y-113894
X144531Y-116434
X150401Y-113894
X150401Y-116434
X162471Y-101144
X162471Y-104864
X162471Y-107404
X162471Y-109944
X165011Y-101144
X165011Y-104864
X165011Y-107404
X165011Y-109944
T3
X133261Y-94844
X133261Y-115164
X163741Y-94844
X163741Y-115164
M30
