%TF.GenerationSoftware,KiCad,Pcbnew,7.0.11+1*%
%TF.CreationDate,2024-07-04T22:58:39+00:00*%
%TF.ProjectId,LCM01,4c434d30-312e-46b6-9963-61645f706362,rev?*%
%TF.SameCoordinates,Original*%
%TF.FileFunction,Legend,Bot*%
%TF.FilePolarity,Positive*%
%FSLAX46Y46*%
G04 Gerber Fmt 4.6, Leading zero omitted, Abs format (unit mm)*
G04 Created by KiCad (PCBNEW 7.0.11+1) date 2024-07-04 22:58:39*
%MOMM*%
%LPD*%
G01*
G04 APERTURE LIST*
%ADD10C,0.101600*%
%ADD11C,0.187452*%
%ADD12C,0.093472*%
%ADD13C,0.152400*%
%ADD14C,0.127000*%
%ADD15C,0.203200*%
G04 APERTURE END LIST*
D10*
X156962345Y-107284480D02*
X156962345Y-107840861D01*
X156962345Y-107840861D02*
X158130745Y-107840861D01*
X158019469Y-106950651D02*
X158075107Y-106895013D01*
X158075107Y-106895013D02*
X158130745Y-106783737D01*
X158130745Y-106783737D02*
X158130745Y-106505546D01*
X158130745Y-106505546D02*
X158075107Y-106394270D01*
X158075107Y-106394270D02*
X158019469Y-106338632D01*
X158019469Y-106338632D02*
X157908193Y-106282994D01*
X157908193Y-106282994D02*
X157796917Y-106282994D01*
X157796917Y-106282994D02*
X157630003Y-106338632D01*
X157630003Y-106338632D02*
X156962345Y-107006289D01*
X156962345Y-107006289D02*
X156962345Y-106282994D01*
D11*
X138140903Y-106201549D02*
X138140903Y-107735879D01*
X138140903Y-107735879D02*
X138050649Y-107916388D01*
X138050649Y-107916388D02*
X137960394Y-108006643D01*
X137960394Y-108006643D02*
X137779885Y-108096897D01*
X137779885Y-108096897D02*
X137418866Y-108096897D01*
X137418866Y-108096897D02*
X137238357Y-108006643D01*
X137238357Y-108006643D02*
X137148102Y-107916388D01*
X137148102Y-107916388D02*
X137057847Y-107735879D01*
X137057847Y-107735879D02*
X137057847Y-106201549D01*
X135162499Y-108096897D02*
X136245555Y-108096897D01*
X135704027Y-108096897D02*
X135704027Y-106201549D01*
X135704027Y-106201549D02*
X135884536Y-106472313D01*
X135884536Y-106472313D02*
X136065046Y-106652823D01*
X136065046Y-106652823D02*
X136245555Y-106743077D01*
D12*
X148574697Y-108359241D02*
X148630722Y-108415267D01*
X148630722Y-108415267D02*
X148798798Y-108471292D01*
X148798798Y-108471292D02*
X148910848Y-108471292D01*
X148910848Y-108471292D02*
X149078923Y-108415267D01*
X149078923Y-108415267D02*
X149190974Y-108303216D01*
X149190974Y-108303216D02*
X149246999Y-108191166D01*
X149246999Y-108191166D02*
X149303024Y-107967065D01*
X149303024Y-107967065D02*
X149303024Y-107798990D01*
X149303024Y-107798990D02*
X149246999Y-107574889D01*
X149246999Y-107574889D02*
X149190974Y-107462839D01*
X149190974Y-107462839D02*
X149078923Y-107350789D01*
X149078923Y-107350789D02*
X148910848Y-107294764D01*
X148910848Y-107294764D02*
X148798798Y-107294764D01*
X148798798Y-107294764D02*
X148630722Y-107350789D01*
X148630722Y-107350789D02*
X148574697Y-107406814D01*
X147566245Y-107686940D02*
X147566245Y-108471292D01*
X147846370Y-107238739D02*
X148126496Y-108079116D01*
X148126496Y-108079116D02*
X147398169Y-108079116D01*
X140360204Y-105867521D02*
X140416230Y-105811496D01*
X140416230Y-105811496D02*
X140472255Y-105643420D01*
X140472255Y-105643420D02*
X140472255Y-105531370D01*
X140472255Y-105531370D02*
X140416230Y-105363295D01*
X140416230Y-105363295D02*
X140304179Y-105251244D01*
X140304179Y-105251244D02*
X140192129Y-105195219D01*
X140192129Y-105195219D02*
X139968028Y-105139194D01*
X139968028Y-105139194D02*
X139799953Y-105139194D01*
X139799953Y-105139194D02*
X139575852Y-105195219D01*
X139575852Y-105195219D02*
X139463802Y-105251244D01*
X139463802Y-105251244D02*
X139351752Y-105363295D01*
X139351752Y-105363295D02*
X139295727Y-105531370D01*
X139295727Y-105531370D02*
X139295727Y-105643420D01*
X139295727Y-105643420D02*
X139351752Y-105811496D01*
X139351752Y-105811496D02*
X139407777Y-105867521D01*
X140472255Y-106988024D02*
X140472255Y-106315722D01*
X140472255Y-106651873D02*
X139295727Y-106651873D01*
X139295727Y-106651873D02*
X139463802Y-106539823D01*
X139463802Y-106539823D02*
X139575852Y-106427772D01*
X139575852Y-106427772D02*
X139631878Y-106315722D01*
X148600524Y-96899764D02*
X147816172Y-98076292D01*
X147816172Y-96899764D02*
X148600524Y-98076292D01*
X147480021Y-96899764D02*
X146751694Y-96899764D01*
X146751694Y-96899764D02*
X147143870Y-97347965D01*
X147143870Y-97347965D02*
X146975795Y-97347965D01*
X146975795Y-97347965D02*
X146863745Y-97403990D01*
X146863745Y-97403990D02*
X146807719Y-97460015D01*
X146807719Y-97460015D02*
X146751694Y-97572065D01*
X146751694Y-97572065D02*
X146751694Y-97852191D01*
X146751694Y-97852191D02*
X146807719Y-97964241D01*
X146807719Y-97964241D02*
X146863745Y-98020267D01*
X146863745Y-98020267D02*
X146975795Y-98076292D01*
X146975795Y-98076292D02*
X147311946Y-98076292D01*
X147311946Y-98076292D02*
X147423996Y-98020267D01*
X147423996Y-98020267D02*
X147480021Y-97964241D01*
X138694697Y-101309241D02*
X138750722Y-101365267D01*
X138750722Y-101365267D02*
X138918798Y-101421292D01*
X138918798Y-101421292D02*
X139030848Y-101421292D01*
X139030848Y-101421292D02*
X139198923Y-101365267D01*
X139198923Y-101365267D02*
X139310974Y-101253216D01*
X139310974Y-101253216D02*
X139366999Y-101141166D01*
X139366999Y-101141166D02*
X139423024Y-100917065D01*
X139423024Y-100917065D02*
X139423024Y-100748990D01*
X139423024Y-100748990D02*
X139366999Y-100524889D01*
X139366999Y-100524889D02*
X139310974Y-100412839D01*
X139310974Y-100412839D02*
X139198923Y-100300789D01*
X139198923Y-100300789D02*
X139030848Y-100244764D01*
X139030848Y-100244764D02*
X138918798Y-100244764D01*
X138918798Y-100244764D02*
X138750722Y-100300789D01*
X138750722Y-100300789D02*
X138694697Y-100356814D01*
X137686245Y-100244764D02*
X137910345Y-100244764D01*
X137910345Y-100244764D02*
X138022395Y-100300789D01*
X138022395Y-100300789D02*
X138078421Y-100356814D01*
X138078421Y-100356814D02*
X138190471Y-100524889D01*
X138190471Y-100524889D02*
X138246496Y-100748990D01*
X138246496Y-100748990D02*
X138246496Y-101197191D01*
X138246496Y-101197191D02*
X138190471Y-101309241D01*
X138190471Y-101309241D02*
X138134446Y-101365267D01*
X138134446Y-101365267D02*
X138022395Y-101421292D01*
X138022395Y-101421292D02*
X137798295Y-101421292D01*
X137798295Y-101421292D02*
X137686245Y-101365267D01*
X137686245Y-101365267D02*
X137630219Y-101309241D01*
X137630219Y-101309241D02*
X137574194Y-101197191D01*
X137574194Y-101197191D02*
X137574194Y-100917065D01*
X137574194Y-100917065D02*
X137630219Y-100805015D01*
X137630219Y-100805015D02*
X137686245Y-100748990D01*
X137686245Y-100748990D02*
X137798295Y-100692965D01*
X137798295Y-100692965D02*
X138022395Y-100692965D01*
X138022395Y-100692965D02*
X138134446Y-100748990D01*
X138134446Y-100748990D02*
X138190471Y-100805015D01*
X138190471Y-100805015D02*
X138246496Y-100917065D01*
X144622197Y-107109241D02*
X144678222Y-107165267D01*
X144678222Y-107165267D02*
X144846298Y-107221292D01*
X144846298Y-107221292D02*
X144958348Y-107221292D01*
X144958348Y-107221292D02*
X145126423Y-107165267D01*
X145126423Y-107165267D02*
X145238474Y-107053216D01*
X145238474Y-107053216D02*
X145294499Y-106941166D01*
X145294499Y-106941166D02*
X145350524Y-106717065D01*
X145350524Y-106717065D02*
X145350524Y-106548990D01*
X145350524Y-106548990D02*
X145294499Y-106324889D01*
X145294499Y-106324889D02*
X145238474Y-106212839D01*
X145238474Y-106212839D02*
X145126423Y-106100789D01*
X145126423Y-106100789D02*
X144958348Y-106044764D01*
X144958348Y-106044764D02*
X144846298Y-106044764D01*
X144846298Y-106044764D02*
X144678222Y-106100789D01*
X144678222Y-106100789D02*
X144622197Y-106156814D01*
X144230021Y-106044764D02*
X143501694Y-106044764D01*
X143501694Y-106044764D02*
X143893870Y-106492965D01*
X143893870Y-106492965D02*
X143725795Y-106492965D01*
X143725795Y-106492965D02*
X143613745Y-106548990D01*
X143613745Y-106548990D02*
X143557719Y-106605015D01*
X143557719Y-106605015D02*
X143501694Y-106717065D01*
X143501694Y-106717065D02*
X143501694Y-106997191D01*
X143501694Y-106997191D02*
X143557719Y-107109241D01*
X143557719Y-107109241D02*
X143613745Y-107165267D01*
X143613745Y-107165267D02*
X143725795Y-107221292D01*
X143725795Y-107221292D02*
X144061946Y-107221292D01*
X144061946Y-107221292D02*
X144173996Y-107165267D01*
X144173996Y-107165267D02*
X144230021Y-107109241D01*
X130134755Y-109305471D02*
X130134755Y-108745219D01*
X130134755Y-108745219D02*
X128958227Y-108745219D01*
X130134755Y-110313923D02*
X130134755Y-109641621D01*
X130134755Y-109977772D02*
X128958227Y-109977772D01*
X128958227Y-109977772D02*
X129126302Y-109865722D01*
X129126302Y-109865722D02*
X129238352Y-109753671D01*
X129238352Y-109753671D02*
X129294378Y-109641621D01*
X159340204Y-109627521D02*
X159396230Y-109571496D01*
X159396230Y-109571496D02*
X159452255Y-109403420D01*
X159452255Y-109403420D02*
X159452255Y-109291370D01*
X159452255Y-109291370D02*
X159396230Y-109123295D01*
X159396230Y-109123295D02*
X159284179Y-109011244D01*
X159284179Y-109011244D02*
X159172129Y-108955219D01*
X159172129Y-108955219D02*
X158948028Y-108899194D01*
X158948028Y-108899194D02*
X158779953Y-108899194D01*
X158779953Y-108899194D02*
X158555852Y-108955219D01*
X158555852Y-108955219D02*
X158443802Y-109011244D01*
X158443802Y-109011244D02*
X158331752Y-109123295D01*
X158331752Y-109123295D02*
X158275727Y-109291370D01*
X158275727Y-109291370D02*
X158275727Y-109403420D01*
X158275727Y-109403420D02*
X158331752Y-109571496D01*
X158331752Y-109571496D02*
X158387777Y-109627521D01*
X159452255Y-110187772D02*
X159452255Y-110411873D01*
X159452255Y-110411873D02*
X159396230Y-110523923D01*
X159396230Y-110523923D02*
X159340204Y-110579948D01*
X159340204Y-110579948D02*
X159172129Y-110691999D01*
X159172129Y-110691999D02*
X158948028Y-110748024D01*
X158948028Y-110748024D02*
X158499827Y-110748024D01*
X158499827Y-110748024D02*
X158387777Y-110691999D01*
X158387777Y-110691999D02*
X158331752Y-110635974D01*
X158331752Y-110635974D02*
X158275727Y-110523923D01*
X158275727Y-110523923D02*
X158275727Y-110299823D01*
X158275727Y-110299823D02*
X158331752Y-110187772D01*
X158331752Y-110187772D02*
X158387777Y-110131747D01*
X158387777Y-110131747D02*
X158499827Y-110075722D01*
X158499827Y-110075722D02*
X158779953Y-110075722D01*
X158779953Y-110075722D02*
X158892003Y-110131747D01*
X158892003Y-110131747D02*
X158948028Y-110187772D01*
X158948028Y-110187772D02*
X159004054Y-110299823D01*
X159004054Y-110299823D02*
X159004054Y-110523923D01*
X159004054Y-110523923D02*
X158948028Y-110635974D01*
X158948028Y-110635974D02*
X158892003Y-110691999D01*
X158892003Y-110691999D02*
X158779953Y-110748024D01*
X153372197Y-103171292D02*
X153764373Y-102611040D01*
X154044499Y-103171292D02*
X154044499Y-101994764D01*
X154044499Y-101994764D02*
X153596298Y-101994764D01*
X153596298Y-101994764D02*
X153484247Y-102050789D01*
X153484247Y-102050789D02*
X153428222Y-102106814D01*
X153428222Y-102106814D02*
X153372197Y-102218864D01*
X153372197Y-102218864D02*
X153372197Y-102386940D01*
X153372197Y-102386940D02*
X153428222Y-102498990D01*
X153428222Y-102498990D02*
X153484247Y-102555015D01*
X153484247Y-102555015D02*
X153596298Y-102611040D01*
X153596298Y-102611040D02*
X154044499Y-102611040D01*
X152307719Y-101994764D02*
X152867971Y-101994764D01*
X152867971Y-101994764D02*
X152923996Y-102555015D01*
X152923996Y-102555015D02*
X152867971Y-102498990D01*
X152867971Y-102498990D02*
X152755921Y-102442965D01*
X152755921Y-102442965D02*
X152475795Y-102442965D01*
X152475795Y-102442965D02*
X152363745Y-102498990D01*
X152363745Y-102498990D02*
X152307719Y-102555015D01*
X152307719Y-102555015D02*
X152251694Y-102667065D01*
X152251694Y-102667065D02*
X152251694Y-102947191D01*
X152251694Y-102947191D02*
X152307719Y-103059241D01*
X152307719Y-103059241D02*
X152363745Y-103115267D01*
X152363745Y-103115267D02*
X152475795Y-103171292D01*
X152475795Y-103171292D02*
X152755921Y-103171292D01*
X152755921Y-103171292D02*
X152867971Y-103115267D01*
X152867971Y-103115267D02*
X152923996Y-103059241D01*
X142462255Y-102412521D02*
X141902003Y-102020345D01*
X142462255Y-101740219D02*
X141285727Y-101740219D01*
X141285727Y-101740219D02*
X141285727Y-102188420D01*
X141285727Y-102188420D02*
X141341752Y-102300471D01*
X141341752Y-102300471D02*
X141397777Y-102356496D01*
X141397777Y-102356496D02*
X141509827Y-102412521D01*
X141509827Y-102412521D02*
X141677903Y-102412521D01*
X141677903Y-102412521D02*
X141789953Y-102356496D01*
X141789953Y-102356496D02*
X141845978Y-102300471D01*
X141845978Y-102300471D02*
X141902003Y-102188420D01*
X141902003Y-102188420D02*
X141902003Y-101740219D01*
X141397777Y-102860722D02*
X141341752Y-102916747D01*
X141341752Y-102916747D02*
X141285727Y-103028798D01*
X141285727Y-103028798D02*
X141285727Y-103308923D01*
X141285727Y-103308923D02*
X141341752Y-103420974D01*
X141341752Y-103420974D02*
X141397777Y-103476999D01*
X141397777Y-103476999D02*
X141509827Y-103533024D01*
X141509827Y-103533024D02*
X141621878Y-103533024D01*
X141621878Y-103533024D02*
X141789953Y-103476999D01*
X141789953Y-103476999D02*
X142462255Y-102804697D01*
X142462255Y-102804697D02*
X142462255Y-103533024D01*
X145615204Y-105907521D02*
X145671230Y-105851496D01*
X145671230Y-105851496D02*
X145727255Y-105683420D01*
X145727255Y-105683420D02*
X145727255Y-105571370D01*
X145727255Y-105571370D02*
X145671230Y-105403295D01*
X145671230Y-105403295D02*
X145559179Y-105291244D01*
X145559179Y-105291244D02*
X145447129Y-105235219D01*
X145447129Y-105235219D02*
X145223028Y-105179194D01*
X145223028Y-105179194D02*
X145054953Y-105179194D01*
X145054953Y-105179194D02*
X144830852Y-105235219D01*
X144830852Y-105235219D02*
X144718802Y-105291244D01*
X144718802Y-105291244D02*
X144606752Y-105403295D01*
X144606752Y-105403295D02*
X144550727Y-105571370D01*
X144550727Y-105571370D02*
X144550727Y-105683420D01*
X144550727Y-105683420D02*
X144606752Y-105851496D01*
X144606752Y-105851496D02*
X144662777Y-105907521D01*
X144550727Y-106299697D02*
X144550727Y-107084049D01*
X144550727Y-107084049D02*
X145727255Y-106579823D01*
X141989697Y-95874241D02*
X142045722Y-95930267D01*
X142045722Y-95930267D02*
X142213798Y-95986292D01*
X142213798Y-95986292D02*
X142325848Y-95986292D01*
X142325848Y-95986292D02*
X142493923Y-95930267D01*
X142493923Y-95930267D02*
X142605974Y-95818216D01*
X142605974Y-95818216D02*
X142661999Y-95706166D01*
X142661999Y-95706166D02*
X142718024Y-95482065D01*
X142718024Y-95482065D02*
X142718024Y-95313990D01*
X142718024Y-95313990D02*
X142661999Y-95089889D01*
X142661999Y-95089889D02*
X142605974Y-94977839D01*
X142605974Y-94977839D02*
X142493923Y-94865789D01*
X142493923Y-94865789D02*
X142325848Y-94809764D01*
X142325848Y-94809764D02*
X142213798Y-94809764D01*
X142213798Y-94809764D02*
X142045722Y-94865789D01*
X142045722Y-94865789D02*
X141989697Y-94921814D01*
X140925219Y-94809764D02*
X141485471Y-94809764D01*
X141485471Y-94809764D02*
X141541496Y-95370015D01*
X141541496Y-95370015D02*
X141485471Y-95313990D01*
X141485471Y-95313990D02*
X141373421Y-95257965D01*
X141373421Y-95257965D02*
X141093295Y-95257965D01*
X141093295Y-95257965D02*
X140981245Y-95313990D01*
X140981245Y-95313990D02*
X140925219Y-95370015D01*
X140925219Y-95370015D02*
X140869194Y-95482065D01*
X140869194Y-95482065D02*
X140869194Y-95762191D01*
X140869194Y-95762191D02*
X140925219Y-95874241D01*
X140925219Y-95874241D02*
X140981245Y-95930267D01*
X140981245Y-95930267D02*
X141093295Y-95986292D01*
X141093295Y-95986292D02*
X141373421Y-95986292D01*
X141373421Y-95986292D02*
X141485471Y-95930267D01*
X141485471Y-95930267D02*
X141541496Y-95874241D01*
X154242255Y-96642521D02*
X153682003Y-96250345D01*
X154242255Y-95970219D02*
X153065727Y-95970219D01*
X153065727Y-95970219D02*
X153065727Y-96418420D01*
X153065727Y-96418420D02*
X153121752Y-96530471D01*
X153121752Y-96530471D02*
X153177777Y-96586496D01*
X153177777Y-96586496D02*
X153289827Y-96642521D01*
X153289827Y-96642521D02*
X153457903Y-96642521D01*
X153457903Y-96642521D02*
X153569953Y-96586496D01*
X153569953Y-96586496D02*
X153625978Y-96530471D01*
X153625978Y-96530471D02*
X153682003Y-96418420D01*
X153682003Y-96418420D02*
X153682003Y-95970219D01*
X154242255Y-97763024D02*
X154242255Y-97090722D01*
X154242255Y-97426873D02*
X153065727Y-97426873D01*
X153065727Y-97426873D02*
X153233802Y-97314823D01*
X153233802Y-97314823D02*
X153345852Y-97202772D01*
X153345852Y-97202772D02*
X153401878Y-97090722D01*
X146010204Y-113057521D02*
X146066230Y-113001496D01*
X146066230Y-113001496D02*
X146122255Y-112833420D01*
X146122255Y-112833420D02*
X146122255Y-112721370D01*
X146122255Y-112721370D02*
X146066230Y-112553295D01*
X146066230Y-112553295D02*
X145954179Y-112441244D01*
X145954179Y-112441244D02*
X145842129Y-112385219D01*
X145842129Y-112385219D02*
X145618028Y-112329194D01*
X145618028Y-112329194D02*
X145449953Y-112329194D01*
X145449953Y-112329194D02*
X145225852Y-112385219D01*
X145225852Y-112385219D02*
X145113802Y-112441244D01*
X145113802Y-112441244D02*
X145001752Y-112553295D01*
X145001752Y-112553295D02*
X144945727Y-112721370D01*
X144945727Y-112721370D02*
X144945727Y-112833420D01*
X144945727Y-112833420D02*
X145001752Y-113001496D01*
X145001752Y-113001496D02*
X145057777Y-113057521D01*
X145057777Y-113505722D02*
X145001752Y-113561747D01*
X145001752Y-113561747D02*
X144945727Y-113673798D01*
X144945727Y-113673798D02*
X144945727Y-113953923D01*
X144945727Y-113953923D02*
X145001752Y-114065974D01*
X145001752Y-114065974D02*
X145057777Y-114121999D01*
X145057777Y-114121999D02*
X145169827Y-114178024D01*
X145169827Y-114178024D02*
X145281878Y-114178024D01*
X145281878Y-114178024D02*
X145449953Y-114121999D01*
X145449953Y-114121999D02*
X146122255Y-113449697D01*
X146122255Y-113449697D02*
X146122255Y-114178024D01*
X151882255Y-96792521D02*
X151322003Y-96400345D01*
X151882255Y-96120219D02*
X150705727Y-96120219D01*
X150705727Y-96120219D02*
X150705727Y-96568420D01*
X150705727Y-96568420D02*
X150761752Y-96680471D01*
X150761752Y-96680471D02*
X150817777Y-96736496D01*
X150817777Y-96736496D02*
X150929827Y-96792521D01*
X150929827Y-96792521D02*
X151097903Y-96792521D01*
X151097903Y-96792521D02*
X151209953Y-96736496D01*
X151209953Y-96736496D02*
X151265978Y-96680471D01*
X151265978Y-96680471D02*
X151322003Y-96568420D01*
X151322003Y-96568420D02*
X151322003Y-96120219D01*
X150705727Y-97184697D02*
X150705727Y-97913024D01*
X150705727Y-97913024D02*
X151153928Y-97520848D01*
X151153928Y-97520848D02*
X151153928Y-97688923D01*
X151153928Y-97688923D02*
X151209953Y-97800974D01*
X151209953Y-97800974D02*
X151265978Y-97856999D01*
X151265978Y-97856999D02*
X151378028Y-97913024D01*
X151378028Y-97913024D02*
X151658154Y-97913024D01*
X151658154Y-97913024D02*
X151770204Y-97856999D01*
X151770204Y-97856999D02*
X151826230Y-97800974D01*
X151826230Y-97800974D02*
X151882255Y-97688923D01*
X151882255Y-97688923D02*
X151882255Y-97352772D01*
X151882255Y-97352772D02*
X151826230Y-97240722D01*
X151826230Y-97240722D02*
X151770204Y-97184697D01*
X155622178Y-102914755D02*
X156014354Y-102354503D01*
X156294480Y-102914755D02*
X156294480Y-101738227D01*
X156294480Y-101738227D02*
X155846279Y-101738227D01*
X155846279Y-101738227D02*
X155734228Y-101794252D01*
X155734228Y-101794252D02*
X155678203Y-101850277D01*
X155678203Y-101850277D02*
X155622178Y-101962327D01*
X155622178Y-101962327D02*
X155622178Y-102130403D01*
X155622178Y-102130403D02*
X155678203Y-102242453D01*
X155678203Y-102242453D02*
X155734228Y-102298478D01*
X155734228Y-102298478D02*
X155846279Y-102354503D01*
X155846279Y-102354503D02*
X156294480Y-102354503D01*
X154613726Y-101738227D02*
X154837826Y-101738227D01*
X154837826Y-101738227D02*
X154949876Y-101794252D01*
X154949876Y-101794252D02*
X155005902Y-101850277D01*
X155005902Y-101850277D02*
X155117952Y-102018352D01*
X155117952Y-102018352D02*
X155173977Y-102242453D01*
X155173977Y-102242453D02*
X155173977Y-102690654D01*
X155173977Y-102690654D02*
X155117952Y-102802704D01*
X155117952Y-102802704D02*
X155061927Y-102858730D01*
X155061927Y-102858730D02*
X154949876Y-102914755D01*
X154949876Y-102914755D02*
X154725776Y-102914755D01*
X154725776Y-102914755D02*
X154613726Y-102858730D01*
X154613726Y-102858730D02*
X154557700Y-102802704D01*
X154557700Y-102802704D02*
X154501675Y-102690654D01*
X154501675Y-102690654D02*
X154501675Y-102410528D01*
X154501675Y-102410528D02*
X154557700Y-102298478D01*
X154557700Y-102298478D02*
X154613726Y-102242453D01*
X154613726Y-102242453D02*
X154725776Y-102186428D01*
X154725776Y-102186428D02*
X154949876Y-102186428D01*
X154949876Y-102186428D02*
X155061927Y-102242453D01*
X155061927Y-102242453D02*
X155117952Y-102298478D01*
X155117952Y-102298478D02*
X155173977Y-102410528D01*
D10*
X156376549Y-113993789D02*
X156432188Y-113938151D01*
X156432188Y-113938151D02*
X156487826Y-113771237D01*
X156487826Y-113771237D02*
X156487826Y-113659961D01*
X156487826Y-113659961D02*
X156432188Y-113493046D01*
X156432188Y-113493046D02*
X156320911Y-113381770D01*
X156320911Y-113381770D02*
X156209635Y-113326132D01*
X156209635Y-113326132D02*
X155987083Y-113270494D01*
X155987083Y-113270494D02*
X155820168Y-113270494D01*
X155820168Y-113270494D02*
X155597616Y-113326132D01*
X155597616Y-113326132D02*
X155486340Y-113381770D01*
X155486340Y-113381770D02*
X155375064Y-113493046D01*
X155375064Y-113493046D02*
X155319426Y-113659961D01*
X155319426Y-113659961D02*
X155319426Y-113771237D01*
X155319426Y-113771237D02*
X155375064Y-113938151D01*
X155375064Y-113938151D02*
X155430702Y-113993789D01*
X156487826Y-115106551D02*
X156487826Y-114438894D01*
X156487826Y-114772722D02*
X155319426Y-114772722D01*
X155319426Y-114772722D02*
X155486340Y-114661446D01*
X155486340Y-114661446D02*
X155597616Y-114550170D01*
X155597616Y-114550170D02*
X155653254Y-114438894D01*
X155319426Y-115829846D02*
X155319426Y-115941123D01*
X155319426Y-115941123D02*
X155375064Y-116052399D01*
X155375064Y-116052399D02*
X155430702Y-116108037D01*
X155430702Y-116108037D02*
X155541978Y-116163675D01*
X155541978Y-116163675D02*
X155764530Y-116219313D01*
X155764530Y-116219313D02*
X156042721Y-116219313D01*
X156042721Y-116219313D02*
X156265273Y-116163675D01*
X156265273Y-116163675D02*
X156376549Y-116108037D01*
X156376549Y-116108037D02*
X156432188Y-116052399D01*
X156432188Y-116052399D02*
X156487826Y-115941123D01*
X156487826Y-115941123D02*
X156487826Y-115829846D01*
X156487826Y-115829846D02*
X156432188Y-115718570D01*
X156432188Y-115718570D02*
X156376549Y-115662932D01*
X156376549Y-115662932D02*
X156265273Y-115607294D01*
X156265273Y-115607294D02*
X156042721Y-115551656D01*
X156042721Y-115551656D02*
X155764530Y-115551656D01*
X155764530Y-115551656D02*
X155541978Y-115607294D01*
X155541978Y-115607294D02*
X155430702Y-115662932D01*
X155430702Y-115662932D02*
X155375064Y-115718570D01*
X155375064Y-115718570D02*
X155319426Y-115829846D01*
D12*
X155810727Y-102218169D02*
X156987255Y-103002521D01*
X155810727Y-103002521D02*
X156987255Y-102218169D01*
X156202903Y-103954949D02*
X156987255Y-103954949D01*
X155754702Y-103674823D02*
X156595079Y-103394697D01*
X156595079Y-103394697D02*
X156595079Y-104123024D01*
X150312197Y-102251292D02*
X150704373Y-101691040D01*
X150984499Y-102251292D02*
X150984499Y-101074764D01*
X150984499Y-101074764D02*
X150536298Y-101074764D01*
X150536298Y-101074764D02*
X150424247Y-101130789D01*
X150424247Y-101130789D02*
X150368222Y-101186814D01*
X150368222Y-101186814D02*
X150312197Y-101298864D01*
X150312197Y-101298864D02*
X150312197Y-101466940D01*
X150312197Y-101466940D02*
X150368222Y-101578990D01*
X150368222Y-101578990D02*
X150424247Y-101635015D01*
X150424247Y-101635015D02*
X150536298Y-101691040D01*
X150536298Y-101691040D02*
X150984499Y-101691040D01*
X149303745Y-101466940D02*
X149303745Y-102251292D01*
X149583870Y-101018739D02*
X149863996Y-101859116D01*
X149863996Y-101859116D02*
X149135669Y-101859116D01*
X153249697Y-106319241D02*
X153305722Y-106375267D01*
X153305722Y-106375267D02*
X153473798Y-106431292D01*
X153473798Y-106431292D02*
X153585848Y-106431292D01*
X153585848Y-106431292D02*
X153753923Y-106375267D01*
X153753923Y-106375267D02*
X153865974Y-106263216D01*
X153865974Y-106263216D02*
X153921999Y-106151166D01*
X153921999Y-106151166D02*
X153978024Y-105927065D01*
X153978024Y-105927065D02*
X153978024Y-105758990D01*
X153978024Y-105758990D02*
X153921999Y-105534889D01*
X153921999Y-105534889D02*
X153865974Y-105422839D01*
X153865974Y-105422839D02*
X153753923Y-105310789D01*
X153753923Y-105310789D02*
X153585848Y-105254764D01*
X153585848Y-105254764D02*
X153473798Y-105254764D01*
X153473798Y-105254764D02*
X153305722Y-105310789D01*
X153305722Y-105310789D02*
X153249697Y-105366814D01*
X152577395Y-105758990D02*
X152689446Y-105702965D01*
X152689446Y-105702965D02*
X152745471Y-105646940D01*
X152745471Y-105646940D02*
X152801496Y-105534889D01*
X152801496Y-105534889D02*
X152801496Y-105478864D01*
X152801496Y-105478864D02*
X152745471Y-105366814D01*
X152745471Y-105366814D02*
X152689446Y-105310789D01*
X152689446Y-105310789D02*
X152577395Y-105254764D01*
X152577395Y-105254764D02*
X152353295Y-105254764D01*
X152353295Y-105254764D02*
X152241245Y-105310789D01*
X152241245Y-105310789D02*
X152185219Y-105366814D01*
X152185219Y-105366814D02*
X152129194Y-105478864D01*
X152129194Y-105478864D02*
X152129194Y-105534889D01*
X152129194Y-105534889D02*
X152185219Y-105646940D01*
X152185219Y-105646940D02*
X152241245Y-105702965D01*
X152241245Y-105702965D02*
X152353295Y-105758990D01*
X152353295Y-105758990D02*
X152577395Y-105758990D01*
X152577395Y-105758990D02*
X152689446Y-105815015D01*
X152689446Y-105815015D02*
X152745471Y-105871040D01*
X152745471Y-105871040D02*
X152801496Y-105983091D01*
X152801496Y-105983091D02*
X152801496Y-106207191D01*
X152801496Y-106207191D02*
X152745471Y-106319241D01*
X152745471Y-106319241D02*
X152689446Y-106375267D01*
X152689446Y-106375267D02*
X152577395Y-106431292D01*
X152577395Y-106431292D02*
X152353295Y-106431292D01*
X152353295Y-106431292D02*
X152241245Y-106375267D01*
X152241245Y-106375267D02*
X152185219Y-106319241D01*
X152185219Y-106319241D02*
X152129194Y-106207191D01*
X152129194Y-106207191D02*
X152129194Y-105983091D01*
X152129194Y-105983091D02*
X152185219Y-105871040D01*
X152185219Y-105871040D02*
X152241245Y-105815015D01*
X152241245Y-105815015D02*
X152353295Y-105758990D01*
D13*
%TO.C,U1*%
X138839100Y-109853600D02*
X135283100Y-109853600D01*
X137365900Y-104773600D02*
X138839100Y-104773600D01*
X136756300Y-104773600D02*
X137365900Y-104773600D01*
X135283100Y-104773600D02*
X136756300Y-104773600D01*
X136756300Y-104773600D02*
G75*
G03*
X137365900Y-104773600I304800J0D01*
G01*
D14*
%TO.C,C4*%
X146647400Y-108756100D02*
X149504800Y-108756100D01*
X149504800Y-108756100D02*
X149504800Y-105263500D01*
X148076100Y-106692400D02*
X148076100Y-106057400D01*
X147758600Y-106374900D02*
X148393600Y-106374900D01*
X146647400Y-105263500D02*
X146647400Y-108756100D01*
X149504800Y-105263500D02*
X146647400Y-105263500D01*
%TO.C,C6*%
X139864800Y-99801100D02*
X137007400Y-99801100D01*
X137007400Y-99801100D02*
X137007400Y-103293700D01*
X138436100Y-101864800D02*
X138436100Y-102499800D01*
X138753600Y-102182300D02*
X138118600Y-102182300D01*
X139864800Y-103293700D02*
X139864800Y-99801100D01*
X137007400Y-103293700D02*
X139864800Y-103293700D01*
%TO.C,L2*%
X158896100Y-104968600D02*
X158896100Y-108778600D01*
X156356100Y-104968600D02*
X158896100Y-104968600D01*
X158896100Y-108778600D02*
X156356100Y-108778600D01*
X156356100Y-108778600D02*
X156356100Y-104968600D01*
%TO.C,L1*%
X129676100Y-109453600D02*
X129676100Y-105643600D01*
X132216100Y-109453600D02*
X129676100Y-109453600D01*
X129676100Y-105643600D02*
X132216100Y-105643600D01*
X132216100Y-105643600D02*
X132216100Y-109453600D01*
%TO.C,C5*%
X142899800Y-94096100D02*
X140042400Y-94096100D01*
X140042400Y-94096100D02*
X140042400Y-97588700D01*
X141471100Y-96159800D02*
X141471100Y-96794800D01*
X141788600Y-96477300D02*
X141153600Y-96477300D01*
X142899800Y-97588700D02*
X142899800Y-94096100D01*
X140042400Y-97588700D02*
X142899800Y-97588700D01*
%TO.C,C10*%
X153302400Y-112981100D02*
X156159800Y-112981100D01*
X156159800Y-112981100D02*
X156159800Y-109488500D01*
X154731100Y-110917400D02*
X154731100Y-110282400D01*
X154413600Y-110599900D02*
X155048600Y-110599900D01*
X153302400Y-109488500D02*
X153302400Y-112981100D01*
X156159800Y-109488500D02*
X153302400Y-109488500D01*
D15*
%TO.C,X4*%
X158186100Y-104488600D02*
X157086100Y-104488600D01*
X157086100Y-102488600D02*
X158186100Y-102488600D01*
D14*
%TO.C,C8*%
X151357400Y-107081100D02*
X154214800Y-107081100D01*
X154214800Y-107081100D02*
X154214800Y-103588500D01*
X152786100Y-105017400D02*
X152786100Y-104382400D01*
X152468600Y-104699900D02*
X153103600Y-104699900D01*
X151357400Y-103588500D02*
X151357400Y-107081100D01*
X154214800Y-103588500D02*
X151357400Y-103588500D01*
%TD*%
M02*
