%TF.GenerationSoftware,KiCad,Pcbnew,7.0.11+1*%
%TF.CreationDate,2024-07-04T22:58:39+00:00*%
%TF.ProjectId,LCM01,4c434d30-312e-46b6-9963-61645f706362,rev?*%
%TF.SameCoordinates,Original*%
%TF.FileFunction,Copper,L2,Bot*%
%TF.FilePolarity,Positive*%
%FSLAX46Y46*%
G04 Gerber Fmt 4.6, Leading zero omitted, Abs format (unit mm)*
G04 Created by KiCad (PCBNEW 7.0.11+1) date 2024-07-04 22:58:39*
%MOMM*%
%LPD*%
G01*
G04 APERTURE LIST*
%TA.AperFunction,ComponentPad*%
%ADD10R,1.651000X1.651000*%
%TD*%
%TA.AperFunction,ComponentPad*%
%ADD11C,6.451600*%
%TD*%
%TA.AperFunction,SMDPad,CuDef*%
%ADD12R,1.473200X0.355600*%
%TD*%
%TA.AperFunction,SMDPad,CuDef*%
%ADD13R,2.540000X1.270000*%
%TD*%
%TA.AperFunction,SMDPad,CuDef*%
%ADD14R,1.500000X1.300000*%
%TD*%
%TA.AperFunction,SMDPad,CuDef*%
%ADD15R,2.200000X0.600000*%
%TD*%
%TA.AperFunction,SMDPad,CuDef*%
%ADD16R,2.100000X1.500000*%
%TD*%
%TA.AperFunction,SMDPad,CuDef*%
%ADD17R,1.300000X1.500000*%
%TD*%
%TA.AperFunction,SMDPad,CuDef*%
%ADD18R,0.900000X0.400000*%
%TD*%
%TA.AperFunction,ViaPad*%
%ADD19C,1.006400*%
%TD*%
%TA.AperFunction,Conductor*%
%ADD20C,0.406400*%
%TD*%
%TA.AperFunction,Conductor*%
%ADD21C,0.609600*%
%TD*%
%TA.AperFunction,Conductor*%
%ADD22C,0.304800*%
%TD*%
G04 APERTURE END LIST*
D10*
%TO.P,SV1,1*%
%TO.N,N$8*%
X144531100Y-113893600D03*
%TO.P,SV1,2*%
X144531100Y-116433600D03*
%TO.P,SV1,3*%
%TO.N,N$14*%
X141991100Y-113893600D03*
%TO.P,SV1,4*%
X141991100Y-116433600D03*
%TD*%
%TO.P,SV3,1*%
%TO.N,N$9*%
X150401100Y-113893600D03*
%TO.P,SV3,2*%
X150401100Y-116433600D03*
%TD*%
%TO.P,SV2,1*%
%TO.N,GND*%
X165011100Y-109943600D03*
%TO.P,SV2,2*%
X162471100Y-109943600D03*
%TO.P,SV2,3*%
%TO.N,VCC*%
X165011100Y-107403600D03*
%TO.P,SV2,4*%
X162471100Y-107403600D03*
%TO.P,SV2,5*%
%TO.N,GND*%
X165011100Y-104863600D03*
%TO.P,SV2,6*%
X162471100Y-104863600D03*
%TD*%
D11*
%TO.P,X7,P$1*%
%TO.N,GND*%
X163741100Y-115163600D03*
%TD*%
%TO.P,X1,P$1*%
%TO.N,GND*%
X133261100Y-115163600D03*
%TD*%
%TO.P,X2,P$1*%
%TO.N,GND*%
X133261100Y-94843600D03*
%TD*%
%TO.P,X6,P$1*%
%TO.N,GND*%
X163741100Y-94843600D03*
%TD*%
D10*
%TO.P,SV4,1*%
%TO.N,N$17*%
X165011100Y-101143600D03*
%TO.P,SV4,2*%
X162471100Y-101143600D03*
%TD*%
D12*
%TO.P,U1,1*%
%TO.N,NAP*%
X139880500Y-105027600D03*
%TO.P,U1,2*%
%TO.N,N$7*%
X139880500Y-105688000D03*
%TO.P,U1,3*%
%TO.N,C+*%
X139880500Y-106348400D03*
%TO.P,U1,4*%
%TO.N,N$9*%
X139880500Y-106983400D03*
%TO.P,U1,5*%
%TO.N,N$6*%
X139880500Y-107643800D03*
%TO.P,U1,6*%
%TO.N,N$3*%
X139880500Y-108278800D03*
%TO.P,U1,7*%
%TO.N,N$5*%
X139880500Y-108939200D03*
%TO.P,U1,8*%
%TO.N,N$8*%
X139880500Y-109599600D03*
%TO.P,U1,9*%
%TO.N,N$14*%
X134241700Y-109599600D03*
%TO.P,U1,10*%
%TO.N,N$7*%
X134241700Y-108939200D03*
%TO.P,U1,11*%
%TO.N,N$3*%
X134241700Y-108278800D03*
%TO.P,U1,12*%
%TO.N,N$11*%
X134241700Y-107643800D03*
%TO.P,U1,13*%
%TO.N,C+*%
X134241700Y-106983400D03*
%TO.P,U1,14*%
%TO.N,N$10*%
X134241700Y-106348400D03*
%TO.P,U1,15*%
%TO.N,GND*%
X134241700Y-105688000D03*
%TO.P,U1,16*%
X134241700Y-105027600D03*
%TD*%
D13*
%TO.P,C4,+*%
%TO.N,N$16*%
X148076100Y-104946100D03*
%TO.P,C4,-*%
%TO.N,N$3*%
X148076100Y-109073600D03*
%TD*%
D14*
%TO.P,C1,1*%
%TO.N,NAP*%
X142801100Y-104833600D03*
%TO.P,C1,2*%
%TO.N,GND*%
X142801100Y-102933600D03*
%TD*%
D15*
%TO.P,X3,1*%
%TO.N,GND*%
X144721100Y-100528600D03*
%TO.P,X3,2*%
%TO.N,N$16*%
X144721100Y-99258600D03*
%TO.P,X3,3*%
%TO.N,N$12*%
X144721100Y-97988600D03*
%TO.P,X3,4*%
%TO.N,GND*%
X144721100Y-96718600D03*
%TO.P,X3,5*%
%TO.N,N$4*%
X149921100Y-96718600D03*
%TO.P,X3,6*%
X149921100Y-97988600D03*
%TO.P,X3,7*%
%TO.N,N$13*%
X149921100Y-99258600D03*
%TO.P,X3,8*%
%TO.N,NAP*%
X149921100Y-100528600D03*
%TD*%
D13*
%TO.P,C6,+*%
%TO.N,NAP*%
X138436100Y-103611100D03*
%TO.P,C6,-*%
%TO.N,GND*%
X138436100Y-99483600D03*
%TD*%
D16*
%TO.P,L2,P$1*%
%TO.N,NAP*%
X157626100Y-105873600D03*
%TO.P,L2,P$2*%
%TO.N,VCC*%
X157626100Y-107873600D03*
%TD*%
D17*
%TO.P,C3,1*%
%TO.N,GND*%
X145226100Y-108313600D03*
%TO.P,C3,2*%
%TO.N,N$6*%
X143326100Y-108313600D03*
%TD*%
D16*
%TO.P,L1,P$1*%
%TO.N,N$3*%
X130946100Y-108548600D03*
%TO.P,L1,P$2*%
%TO.N,N$10*%
X130946100Y-106548600D03*
%TD*%
D14*
%TO.P,C9,1*%
%TO.N,NAP*%
X160131100Y-104293600D03*
%TO.P,C9,2*%
%TO.N,GND*%
X160131100Y-106193600D03*
%TD*%
%TO.P,R5,1*%
%TO.N,N$13*%
X152551100Y-99613600D03*
%TO.P,R5,2*%
%TO.N,N$2*%
X152551100Y-101513600D03*
%TD*%
%TO.P,R2,1*%
%TO.N,GND*%
X141641100Y-101413600D03*
%TO.P,R2,2*%
%TO.N,N$16*%
X141641100Y-99513600D03*
%TD*%
%TO.P,C7,1*%
%TO.N,NAP*%
X144756100Y-104873600D03*
%TO.P,C7,2*%
%TO.N,GND*%
X144756100Y-102973600D03*
%TD*%
D13*
%TO.P,C5,+*%
%TO.N,N$12*%
X141471100Y-97906100D03*
%TO.P,C5,-*%
%TO.N,GND*%
X141471100Y-93778600D03*
%TD*%
D14*
%TO.P,R1,1*%
%TO.N,N$13*%
X154921100Y-97893600D03*
%TO.P,R1,2*%
%TO.N,N$12*%
X154921100Y-95993600D03*
%TD*%
%TO.P,C2,1*%
%TO.N,GND*%
X145151100Y-111873600D03*
%TO.P,C2,2*%
%TO.N,N$3*%
X145151100Y-109973600D03*
%TD*%
%TO.P,R3,1*%
%TO.N,N$13*%
X152561100Y-97893600D03*
%TO.P,R3,2*%
%TO.N,N$16*%
X152561100Y-95993600D03*
%TD*%
%TO.P,R6,1*%
%TO.N,N$15*%
X154941100Y-101513600D03*
%TO.P,R6,2*%
%TO.N,N$13*%
X154941100Y-99613600D03*
%TD*%
D13*
%TO.P,C10,+*%
%TO.N,NAP*%
X154731100Y-109171100D03*
%TO.P,C10,-*%
%TO.N,GND*%
X154731100Y-113298600D03*
%TD*%
D18*
%TO.P,X4,1*%
%TO.N,N/C*%
X156836100Y-104138600D03*
%TO.P,X4,2*%
%TO.N,N$15*%
X156836100Y-103488600D03*
%TO.P,X4,3*%
%TO.N,GND*%
X156836100Y-102838600D03*
%TO.P,X4,4*%
%TO.N,N$17*%
X158436100Y-102838600D03*
%TO.P,X4,5*%
%TO.N,NAP*%
X158436100Y-104138600D03*
%TD*%
D17*
%TO.P,R4,1*%
%TO.N,N$16*%
X148441100Y-103053600D03*
%TO.P,R4,2*%
%TO.N,NAP*%
X150341100Y-103053600D03*
%TD*%
D13*
%TO.P,C8,+*%
%TO.N,NAP*%
X152786100Y-103271100D03*
%TO.P,C8,-*%
%TO.N,GND*%
X152786100Y-107398600D03*
%TD*%
D19*
%TO.N,GND*%
X151881100Y-110343600D03*
X157431100Y-109743600D03*
X157431100Y-114243600D03*
X138681100Y-97443600D03*
X142281100Y-91893600D03*
X148281100Y-115743600D03*
X156831100Y-92793600D03*
X133131100Y-110493600D03*
X149631100Y-92793600D03*
X148281100Y-117393600D03*
X137631100Y-117393600D03*
X157431100Y-112743600D03*
X139281100Y-117393600D03*
X155031100Y-92793600D03*
X130131100Y-110493600D03*
X156831100Y-94593600D03*
X137631100Y-115893600D03*
X140631100Y-91893600D03*
X146931100Y-100593600D03*
X144231100Y-92793600D03*
X146031100Y-92793600D03*
X146781100Y-115743600D03*
X141231100Y-103593600D03*
X159231100Y-109743600D03*
X139281100Y-114393600D03*
X151881100Y-108993600D03*
X137931100Y-92793600D03*
X131631100Y-110493600D03*
X151431100Y-92793600D03*
X137631100Y-114393600D03*
X146931100Y-102093600D03*
X148281100Y-114093600D03*
X137931100Y-94293600D03*
X156831100Y-96393600D03*
X130131100Y-111843600D03*
X156831100Y-98193600D03*
X152481100Y-113493600D03*
X157431100Y-111243600D03*
X136881100Y-97443600D03*
X147831100Y-92793600D03*
X146781100Y-114093600D03*
X152481100Y-114843600D03*
X153231100Y-92793600D03*
X146781100Y-117393600D03*
X139281100Y-115893600D03*
X160731100Y-102543600D03*
%TO.N,C+*%
X134181100Y-99993600D03*
X132981100Y-99993600D03*
X135381100Y-99993600D03*
%TO.N,N$7*%
X141681100Y-106143600D03*
X138381100Y-111843600D03*
%TD*%
D20*
%TO.N,GND*%
X129531100Y-109893600D02*
X130131100Y-110493600D01*
X129531100Y-109893600D02*
X129531100Y-105393600D01*
%TO.N,N$4*%
X149921100Y-97988600D02*
X149821100Y-97503600D01*
X149821100Y-97503600D02*
X149881100Y-97443600D01*
X149846100Y-97443600D02*
X149921100Y-96718600D01*
X149881100Y-97443600D02*
X149846100Y-97443600D01*
%TO.N,N$12*%
X146881100Y-95243600D02*
X146881100Y-97743600D01*
X146581100Y-98043600D02*
X144781100Y-98043600D01*
X141718600Y-97906100D02*
X141881100Y-97743600D01*
X144721100Y-97988600D02*
X141553600Y-97988600D01*
X155071100Y-95133600D02*
X154381100Y-94443600D01*
X144681100Y-97943600D02*
X144681100Y-97948600D01*
X141553600Y-97988600D02*
X141471100Y-97906100D01*
X154381100Y-94443600D02*
X147681100Y-94443600D01*
X154921100Y-95993600D02*
X155071100Y-95133600D01*
X146881100Y-97743600D02*
X146581100Y-98043600D01*
X144781100Y-98043600D02*
X144681100Y-97943600D01*
X141471100Y-97906100D02*
X141718600Y-97906100D01*
X147681100Y-94443600D02*
X146881100Y-95243600D01*
X144681100Y-97948600D02*
X144721100Y-97988600D01*
D21*
%TO.N,N$13*%
X149921100Y-99258600D02*
X152196100Y-99258600D01*
X152561100Y-97893600D02*
X154921100Y-97893600D01*
X152551100Y-99613600D02*
X152551100Y-97903600D01*
X152196100Y-99258600D02*
X152551100Y-99613600D01*
X154941100Y-97913600D02*
X154921100Y-97893600D01*
X154941100Y-99613600D02*
X154941100Y-97913600D01*
X152551100Y-97903600D02*
X152561100Y-97893600D01*
D20*
%TO.N,N$16*%
X151981100Y-95643600D02*
X148481100Y-95643600D01*
X144721100Y-99258600D02*
X141896100Y-99258600D01*
X141896100Y-99258600D02*
X141641100Y-99513600D01*
X152561100Y-95993600D02*
X152561100Y-96223600D01*
X144721100Y-99258600D02*
X147766100Y-99258600D01*
X147981100Y-99043600D02*
X147981100Y-104643600D01*
X148081100Y-104743600D02*
X147981100Y-104743600D01*
X147978600Y-104646100D02*
X147981100Y-104643600D01*
X147981100Y-96143600D02*
X147981100Y-99043600D01*
X147766100Y-99258600D02*
X147981100Y-99043600D01*
X148481100Y-95643600D02*
X147981100Y-96143600D01*
D21*
X148081100Y-103413600D02*
X148441100Y-103053600D01*
X148081100Y-104743600D02*
X148081100Y-103413600D01*
D20*
X148076100Y-104946100D02*
X147978600Y-104646100D01*
X152561100Y-96223600D02*
X151981100Y-95643600D01*
X147981100Y-104643600D02*
X148081100Y-104743600D01*
%TO.N,C+*%
X134241700Y-106983400D02*
X136341300Y-106983400D01*
X130581100Y-99993600D02*
X130581100Y-100143600D01*
X129531100Y-101043600D02*
X129531100Y-101193600D01*
X135681100Y-101643600D02*
X135681100Y-101343600D01*
X129831100Y-100293600D02*
X130131100Y-99993600D01*
X130131100Y-100293600D02*
X129981100Y-100293600D01*
X130431100Y-99543600D02*
X130431100Y-99843600D01*
X129531100Y-101643600D02*
X135531100Y-101643600D01*
X129531100Y-101343600D02*
X129531100Y-101643600D01*
X130731100Y-100293600D02*
X135231100Y-100293600D01*
X129831100Y-100293600D02*
X129831100Y-99843600D01*
X135531100Y-99993600D02*
X135381100Y-99993600D01*
X129831100Y-99543600D02*
X129681100Y-99693600D01*
X129981100Y-100293600D02*
X129831100Y-100443600D01*
X136431100Y-102543600D02*
X135531100Y-101643600D01*
X130431100Y-99543600D02*
X129831100Y-99543600D01*
X135681100Y-101043600D02*
X135681100Y-99843600D01*
X136341300Y-106983400D02*
X137841300Y-106983400D01*
X129831100Y-100443600D02*
X129831100Y-100293600D01*
X135681100Y-99543600D02*
X130431100Y-99543600D01*
X135681100Y-101193600D02*
X135681100Y-101043600D01*
X129531100Y-101343600D02*
X135681100Y-101343600D01*
X136341300Y-106983400D02*
X136431100Y-106893600D01*
X130581100Y-100143600D02*
X130731100Y-100293600D01*
X137841300Y-106983400D02*
X138476300Y-106348400D01*
X135681100Y-99843600D02*
X130431100Y-99843600D01*
X135681100Y-101043600D02*
X129531100Y-101043600D01*
X130131100Y-99993600D02*
X130131100Y-100293600D01*
X129531100Y-101043600D02*
X129531100Y-100743600D01*
X134181100Y-99993600D02*
X132981100Y-99993600D01*
X139880500Y-106348400D02*
X138476300Y-106348400D01*
X135681100Y-101193600D02*
X129531100Y-101193600D01*
X129531100Y-101193600D02*
X129531100Y-101343600D01*
X129531100Y-99543600D02*
X129831100Y-99543600D01*
X135231100Y-100593600D02*
X130581100Y-100593600D01*
X135681100Y-101343600D02*
X135681100Y-101193600D01*
X130431100Y-100743600D02*
X129531100Y-100743600D01*
X135681100Y-99843600D02*
X135681100Y-99543600D01*
X136431100Y-106893600D02*
X136431100Y-102543600D01*
X130281100Y-100143600D02*
X130131100Y-100293600D01*
X130131100Y-100293600D02*
X130281100Y-100443600D01*
X135381100Y-99993600D02*
X134181100Y-99993600D01*
X135381100Y-100743600D02*
X135531100Y-100593600D01*
X135531100Y-101643600D02*
X135681100Y-101643600D01*
X132981100Y-99993600D02*
X130581100Y-99993600D01*
X135381100Y-100443600D02*
X135231100Y-100593600D01*
X129531100Y-100743600D02*
X129531100Y-99543600D01*
X130431100Y-99843600D02*
X130431100Y-100743600D01*
X130431100Y-100743600D02*
X135381100Y-100743600D01*
X129681100Y-99693600D02*
X130131100Y-99693600D01*
X130131100Y-99693600D02*
X130281100Y-99843600D01*
X135531100Y-100593600D02*
X135531100Y-99993600D01*
X130281100Y-99843600D02*
X130281100Y-100143600D01*
X135231100Y-100293600D02*
X135381100Y-100143600D01*
X135381100Y-100143600D02*
X135381100Y-100443600D01*
%TO.N,N$3*%
X145221100Y-110043600D02*
X145151100Y-109973600D01*
X139880500Y-108278800D02*
X141116300Y-108278800D01*
X147081100Y-110043600D02*
X147981100Y-109143600D01*
X148076100Y-109073600D02*
X148211100Y-109073600D01*
X148211100Y-109073600D02*
X148281100Y-109143600D01*
X134241700Y-108278800D02*
X139880500Y-108278800D01*
X145221100Y-110043600D02*
X147081100Y-110043600D01*
X142881100Y-110043600D02*
X145221100Y-110043600D01*
X141116300Y-108278800D02*
X142881100Y-110043600D01*
X134241700Y-108278800D02*
X132015900Y-108278800D01*
X148281100Y-109143600D02*
X147981100Y-109143600D01*
X132015900Y-108278800D02*
X130946100Y-108548600D01*
%TO.N,N$6*%
X143326100Y-108313600D02*
X143326100Y-108098600D01*
X139880500Y-107643800D02*
X142881300Y-107643800D01*
X142881300Y-107643800D02*
X143331100Y-108093600D01*
X143331100Y-108093600D02*
X143481100Y-108243600D01*
X143326100Y-108098600D02*
X143331100Y-108093600D01*
%TO.N,N$7*%
X139880500Y-105688000D02*
X141225500Y-105688000D01*
X135476700Y-108939200D02*
X138381100Y-111843600D01*
X141225500Y-105688000D02*
X141681100Y-106143600D01*
X141681100Y-106143600D02*
X141381100Y-105843600D01*
X134241700Y-108939200D02*
X135476700Y-108939200D01*
D22*
%TO.N,N$9*%
X149870900Y-106983400D02*
X150381100Y-107493600D01*
X150381100Y-107493600D02*
X150381100Y-113943600D01*
X150401100Y-113893600D02*
X150401100Y-116433600D01*
X139880500Y-106983400D02*
X149870900Y-106983400D01*
D20*
%TO.N,N$10*%
X134241700Y-106348400D02*
X131946300Y-106348400D01*
X131946300Y-106348400D02*
X130946100Y-106548600D01*
D21*
%TO.N,VCC*%
X161031100Y-107943600D02*
X157696100Y-107943600D01*
X157626100Y-107873600D02*
X157651100Y-107873600D01*
X162471100Y-107403600D02*
X161571100Y-107403600D01*
X157651100Y-107873600D02*
X157581100Y-107943600D01*
X157581100Y-107943600D02*
X157581100Y-107643600D01*
X165011100Y-107403600D02*
X162471100Y-107403600D01*
X158121100Y-107403600D02*
X157651100Y-107873600D01*
X161571100Y-107403600D02*
X161031100Y-107943600D01*
X157696100Y-107943600D02*
X157626100Y-107873600D01*
D20*
%TO.N,NAP*%
X138418600Y-103593600D02*
X138436100Y-103611100D01*
X139880500Y-105027600D02*
X142607100Y-105027600D01*
D21*
X150681100Y-105693600D02*
X152931100Y-105693600D01*
X152931100Y-105693600D02*
X155631100Y-105693600D01*
X155631100Y-105693600D02*
X157431100Y-105693600D01*
X152786100Y-103271100D02*
X152786100Y-105548600D01*
D20*
X142801100Y-104833600D02*
X144716100Y-104833600D01*
X138231100Y-104493600D02*
X138231100Y-103593600D01*
X157581100Y-105843600D02*
X157281100Y-105843600D01*
X138765100Y-105027600D02*
X138231100Y-104493600D01*
X157281100Y-105843600D02*
X157281100Y-105528600D01*
D21*
X144761100Y-104873600D02*
X146031100Y-106143600D01*
D20*
X157281100Y-105528600D02*
X157626100Y-105873600D01*
D21*
X158436100Y-104138600D02*
X158436100Y-104988600D01*
X144447100Y-105027600D02*
X144531100Y-104943600D01*
D22*
X160036100Y-104138600D02*
X160036100Y-104198600D01*
D20*
X157281100Y-105528600D02*
X157273600Y-105521100D01*
D21*
X138231100Y-103593600D02*
X138381100Y-103593600D01*
X149921100Y-100528600D02*
X149921100Y-102633600D01*
X144756100Y-104873600D02*
X144761100Y-104873600D01*
X150558600Y-103271100D02*
X150341100Y-103053600D01*
D22*
X160131100Y-104293600D02*
X160081100Y-104293600D01*
D21*
X150231100Y-106143600D02*
X150681100Y-105693600D01*
X154731100Y-109171100D02*
X154731100Y-108693600D01*
X154731100Y-108693600D02*
X155631100Y-107793600D01*
D20*
X142607100Y-105027600D02*
X142801100Y-104833600D01*
D21*
X146031100Y-106143600D02*
X150231100Y-106143600D01*
X149921100Y-102633600D02*
X150341100Y-103053600D01*
X158436100Y-104988600D02*
X157581100Y-105843600D01*
X157431100Y-105693600D02*
X157581100Y-105843600D01*
X158436100Y-104138600D02*
X160036100Y-104138600D01*
D20*
X139880500Y-105027600D02*
X138765100Y-105027600D01*
D21*
X152786100Y-103271100D02*
X150558600Y-103271100D01*
D20*
X138381100Y-103593600D02*
X138418600Y-103593600D01*
D22*
X160036100Y-104198600D02*
X160131100Y-104293600D01*
X160081100Y-104293600D02*
X159981100Y-104193600D01*
D21*
X152786100Y-105548600D02*
X152931100Y-105693600D01*
X155631100Y-107793600D02*
X155631100Y-105693600D01*
D20*
X144716100Y-104833600D02*
X144756100Y-104873600D01*
X144686100Y-104943600D02*
X144756100Y-104873600D01*
X144531100Y-104943600D02*
X144686100Y-104943600D01*
D22*
X160036100Y-104138600D02*
X160131100Y-104043600D01*
D20*
%TO.N,N$8*%
X144531100Y-113893600D02*
X144531100Y-113643600D01*
X142431100Y-111543600D02*
X140931100Y-111543600D01*
X140931100Y-111543600D02*
X139881100Y-110493600D01*
X139881100Y-110493600D02*
X139881100Y-109600200D01*
X144531100Y-113643600D02*
X142431100Y-111543600D01*
X144531100Y-116433600D02*
X144531100Y-113893600D01*
X139881100Y-109600200D02*
X139880500Y-109599600D01*
%TO.N,N$14*%
X134241700Y-109599600D02*
X134241700Y-110104200D01*
X134241700Y-110104200D02*
X137181100Y-113043600D01*
X141141100Y-113043600D02*
X141991100Y-113893600D01*
X137181100Y-113043600D02*
X141141100Y-113043600D01*
X141991100Y-116433600D02*
X141991100Y-113893600D01*
%TO.N,N$15*%
X155031100Y-103143600D02*
X155031100Y-101643600D01*
X156836100Y-103488600D02*
X155376100Y-103488600D01*
X154881100Y-101493600D02*
X154921100Y-101493600D01*
X154921100Y-101493600D02*
X154941100Y-101513600D01*
X155376100Y-103488600D02*
X155031100Y-103143600D01*
X155031100Y-101643600D02*
X154881100Y-101493600D01*
%TO.N,N$17*%
X160131100Y-101143600D02*
X158436100Y-102838600D01*
X162471100Y-101143600D02*
X160131100Y-101143600D01*
X165011100Y-101143600D02*
X162471100Y-101143600D01*
%TD*%
%TA.AperFunction,Conductor*%
%TO.N,GND*%
G36*
X164592653Y-104699372D02*
G01*
X164562836Y-104830007D01*
X164572849Y-104963628D01*
X164621803Y-105088360D01*
X164624546Y-105091800D01*
X162852613Y-105091800D01*
X162889547Y-105027828D01*
X162919364Y-104897193D01*
X162909351Y-104763572D01*
X162860397Y-104638840D01*
X162857654Y-104635400D01*
X164629587Y-104635400D01*
X164592653Y-104699372D01*
G37*
%TD.AperFunction*%
%TA.AperFunction,Conductor*%
G36*
X164592653Y-109779372D02*
G01*
X164562836Y-109910007D01*
X164572849Y-110043628D01*
X164621803Y-110168360D01*
X164624546Y-110171800D01*
X162852613Y-110171800D01*
X162889547Y-110107828D01*
X162919364Y-109977193D01*
X162909351Y-109843572D01*
X162860397Y-109718840D01*
X162857654Y-109715400D01*
X164629587Y-109715400D01*
X164592653Y-109779372D01*
G37*
%TD.AperFunction*%
%TA.AperFunction,Conductor*%
G36*
X168654131Y-89908313D02*
G01*
X168690676Y-89958613D01*
X168695600Y-89989700D01*
X168695600Y-120017500D01*
X168676387Y-120076631D01*
X168626087Y-120113176D01*
X168595000Y-120118100D01*
X128407200Y-120118100D01*
X128348069Y-120098887D01*
X128311524Y-120048587D01*
X128306600Y-120017500D01*
X128306600Y-105205400D01*
X133048700Y-105205400D01*
X133048700Y-105260363D01*
X133051592Y-105291210D01*
X133063267Y-105324574D01*
X133064662Y-105386733D01*
X133063267Y-105391026D01*
X133051592Y-105424389D01*
X133048700Y-105455236D01*
X133048700Y-105510200D01*
X134063900Y-105510200D01*
X134063900Y-105205400D01*
X134419500Y-105205400D01*
X134419500Y-105510200D01*
X135434700Y-105510200D01*
X135434700Y-105455236D01*
X135431807Y-105424392D01*
X135420132Y-105391029D01*
X135418735Y-105328870D01*
X135420132Y-105324571D01*
X135431807Y-105291207D01*
X135434700Y-105260363D01*
X135434700Y-105205400D01*
X134419500Y-105205400D01*
X134063900Y-105205400D01*
X133048700Y-105205400D01*
X128306600Y-105205400D01*
X128306600Y-104849800D01*
X133048700Y-104849800D01*
X134063900Y-104849800D01*
X134063900Y-104393400D01*
X134419500Y-104393400D01*
X134419500Y-104849800D01*
X135434700Y-104849800D01*
X135434700Y-104794836D01*
X135431807Y-104763991D01*
X135386368Y-104634130D01*
X135304668Y-104523431D01*
X135193969Y-104441731D01*
X135064107Y-104396292D01*
X135064108Y-104396292D01*
X135033263Y-104393400D01*
X134419500Y-104393400D01*
X134063900Y-104393400D01*
X133450137Y-104393400D01*
X133419291Y-104396292D01*
X133289430Y-104441731D01*
X133178731Y-104523431D01*
X133097031Y-104634130D01*
X133051592Y-104763991D01*
X133048700Y-104794836D01*
X133048700Y-104849800D01*
X128306600Y-104849800D01*
X128306600Y-101643602D01*
X129119128Y-101643602D01*
X129139290Y-101770903D01*
X129139291Y-101770906D01*
X129197807Y-101885750D01*
X129288949Y-101976892D01*
X129403791Y-102035408D01*
X129403792Y-102035408D01*
X129403794Y-102035409D01*
X129486953Y-102048580D01*
X129499076Y-102050500D01*
X129531098Y-102055572D01*
X129531100Y-102055572D01*
X129531101Y-102055572D01*
X129555301Y-102051739D01*
X129571039Y-102050500D01*
X135320887Y-102050500D01*
X135380018Y-102069713D01*
X135392022Y-102079965D01*
X135994735Y-102682678D01*
X136022961Y-102738076D01*
X136024200Y-102753813D01*
X136024200Y-106475900D01*
X136004987Y-106535031D01*
X135954687Y-106571576D01*
X135923600Y-106576500D01*
X135282600Y-106576500D01*
X135223469Y-106557287D01*
X135186924Y-106506987D01*
X135182000Y-106475900D01*
X135182000Y-106333487D01*
X135201213Y-106274356D01*
X135222862Y-106252544D01*
X135304669Y-106192168D01*
X135386368Y-106081469D01*
X135431807Y-105951608D01*
X135434700Y-105920763D01*
X135434700Y-105865800D01*
X133048700Y-105865800D01*
X133036715Y-105877784D01*
X133029487Y-105900031D01*
X132979187Y-105936576D01*
X132948100Y-105941500D01*
X132300400Y-105941500D01*
X132241269Y-105922287D01*
X132204724Y-105871987D01*
X132199800Y-105840900D01*
X132199800Y-105778536D01*
X132187981Y-105719120D01*
X132142960Y-105651740D01*
X132089301Y-105615887D01*
X132075579Y-105606718D01*
X132027982Y-105597250D01*
X132016164Y-105594900D01*
X129876036Y-105594900D01*
X129866178Y-105596860D01*
X129816620Y-105606718D01*
X129749240Y-105651740D01*
X129704218Y-105719120D01*
X129692400Y-105778536D01*
X129692400Y-107318663D01*
X129704218Y-107378079D01*
X129709858Y-107386520D01*
X129749240Y-107445460D01*
X129759725Y-107452465D01*
X129778416Y-107464955D01*
X129816907Y-107513781D01*
X129819348Y-107575908D01*
X129784805Y-107627603D01*
X129778416Y-107632245D01*
X129749242Y-107651738D01*
X129749241Y-107651739D01*
X129704218Y-107719120D01*
X129692400Y-107778536D01*
X129692400Y-109318663D01*
X129704218Y-109378079D01*
X129704219Y-109378080D01*
X129749240Y-109445460D01*
X129816620Y-109490481D01*
X129876036Y-109502300D01*
X129876037Y-109502300D01*
X132016163Y-109502300D01*
X132016164Y-109502300D01*
X132075580Y-109490481D01*
X132142960Y-109445460D01*
X132187981Y-109378080D01*
X132199800Y-109318664D01*
X132199800Y-108786300D01*
X132219013Y-108727169D01*
X132269313Y-108690624D01*
X132300400Y-108685700D01*
X133200800Y-108685700D01*
X133259931Y-108704913D01*
X133296476Y-108755213D01*
X133301400Y-108786300D01*
X133301400Y-109137064D01*
X133309292Y-109176740D01*
X133313219Y-109196480D01*
X133324598Y-109213511D01*
X133341473Y-109273351D01*
X133324598Y-109325289D01*
X133313219Y-109342319D01*
X133301400Y-109401736D01*
X133301400Y-109797463D01*
X133313218Y-109856879D01*
X133313219Y-109856880D01*
X133358240Y-109924260D01*
X133425620Y-109969281D01*
X133485036Y-109981100D01*
X133734200Y-109981100D01*
X133793331Y-110000313D01*
X133829876Y-110050613D01*
X133834800Y-110081700D01*
X133834800Y-110168646D01*
X133835825Y-110171800D01*
X133842373Y-110191955D01*
X133846056Y-110207296D01*
X133849891Y-110231507D01*
X133861016Y-110253341D01*
X133867056Y-110267924D01*
X133874628Y-110291229D01*
X133874631Y-110291236D01*
X133889037Y-110311064D01*
X133897282Y-110324517D01*
X133908408Y-110346351D01*
X133931334Y-110369277D01*
X135722847Y-112160791D01*
X135751073Y-112216189D01*
X135741347Y-112277597D01*
X135697383Y-112321561D01*
X135635975Y-112331287D01*
X135588402Y-112310107D01*
X135428415Y-112180552D01*
X135428410Y-112180548D01*
X135104726Y-111970344D01*
X135104719Y-111970340D01*
X134760852Y-111795132D01*
X134760832Y-111795123D01*
X134400525Y-111656814D01*
X134027735Y-111556925D01*
X134027713Y-111556920D01*
X133646532Y-111496546D01*
X133489300Y-111488306D01*
X133489300Y-113576612D01*
X133323969Y-113563600D01*
X133198231Y-113563600D01*
X133032900Y-113576612D01*
X133032900Y-111488306D01*
X133032899Y-111488306D01*
X132875668Y-111496546D01*
X132875666Y-111496546D01*
X132494486Y-111556920D01*
X132494464Y-111556925D01*
X132121674Y-111656814D01*
X131761367Y-111795123D01*
X131761347Y-111795132D01*
X131417481Y-111970340D01*
X131417474Y-111970344D01*
X131093793Y-112180545D01*
X130793844Y-112423438D01*
X130520938Y-112696344D01*
X130278045Y-112996293D01*
X130067844Y-113319974D01*
X130067840Y-113319981D01*
X129892632Y-113663847D01*
X129892623Y-113663867D01*
X129754314Y-114024174D01*
X129654425Y-114396964D01*
X129654420Y-114396986D01*
X129594046Y-114778166D01*
X129594046Y-114778168D01*
X129585806Y-114935399D01*
X129585807Y-114935400D01*
X131674112Y-114935400D01*
X131656152Y-115163600D01*
X131674112Y-115391800D01*
X129585806Y-115391800D01*
X129594046Y-115549031D01*
X129594046Y-115549033D01*
X129654420Y-115930213D01*
X129654425Y-115930235D01*
X129754314Y-116303025D01*
X129892623Y-116663332D01*
X129892632Y-116663352D01*
X130067840Y-117007219D01*
X130067844Y-117007226D01*
X130278048Y-117330910D01*
X130278052Y-117330915D01*
X130520938Y-117630855D01*
X130793844Y-117903761D01*
X131093784Y-118146647D01*
X131093789Y-118146651D01*
X131417473Y-118356855D01*
X131417480Y-118356859D01*
X131761347Y-118532067D01*
X131761367Y-118532076D01*
X132121674Y-118670385D01*
X132494464Y-118770274D01*
X132494486Y-118770279D01*
X132875669Y-118830653D01*
X132875664Y-118830653D01*
X133032898Y-118838893D01*
X133032900Y-118838892D01*
X133032900Y-116750587D01*
X133198231Y-116763600D01*
X133323969Y-116763600D01*
X133489300Y-116750587D01*
X133489300Y-118838892D01*
X133489301Y-118838893D01*
X133646532Y-118830653D01*
X134027713Y-118770279D01*
X134027735Y-118770274D01*
X134400525Y-118670385D01*
X134760832Y-118532076D01*
X134760852Y-118532067D01*
X135104719Y-118356859D01*
X135104726Y-118356855D01*
X135428410Y-118146651D01*
X135428415Y-118146647D01*
X135728355Y-117903761D01*
X136001261Y-117630855D01*
X136244147Y-117330915D01*
X136244151Y-117330910D01*
X136454355Y-117007226D01*
X136454359Y-117007219D01*
X136629567Y-116663352D01*
X136629576Y-116663332D01*
X136767885Y-116303025D01*
X136867774Y-115930235D01*
X136867779Y-115930213D01*
X136928153Y-115549033D01*
X136928153Y-115549031D01*
X136936393Y-115391800D01*
X134848088Y-115391800D01*
X134866048Y-115163600D01*
X134848088Y-114935400D01*
X136936393Y-114935400D01*
X136936393Y-114935399D01*
X136928153Y-114778168D01*
X136928153Y-114778166D01*
X136867779Y-114396986D01*
X136867774Y-114396964D01*
X136767885Y-114024174D01*
X136629576Y-113663867D01*
X136629567Y-113663847D01*
X136454359Y-113319981D01*
X136454355Y-113319974D01*
X136244154Y-112996293D01*
X136114593Y-112836298D01*
X136092312Y-112778253D01*
X136108404Y-112718197D01*
X136156722Y-112679070D01*
X136218811Y-112675816D01*
X136263909Y-112701853D01*
X136919530Y-113357474D01*
X136919540Y-113357483D01*
X136938949Y-113376892D01*
X136960783Y-113388017D01*
X136974240Y-113396264D01*
X136994063Y-113410666D01*
X136994066Y-113410668D01*
X136994067Y-113410668D01*
X136994068Y-113410669D01*
X137017375Y-113418241D01*
X137031958Y-113424283D01*
X137053789Y-113435407D01*
X137053792Y-113435408D01*
X137053794Y-113435409D01*
X137078005Y-113439243D01*
X137093346Y-113442925D01*
X137116653Y-113450499D01*
X137144908Y-113450499D01*
X137144932Y-113450500D01*
X137149076Y-113450500D01*
X140861300Y-113450500D01*
X140920431Y-113469713D01*
X140956976Y-113520013D01*
X140961900Y-113551100D01*
X140961900Y-114739163D01*
X140973718Y-114798579D01*
X140973719Y-114798580D01*
X141018740Y-114865960D01*
X141086120Y-114910981D01*
X141145536Y-114922800D01*
X141483600Y-114922800D01*
X141542731Y-114942013D01*
X141579276Y-114992313D01*
X141584200Y-115023400D01*
X141584200Y-115303800D01*
X141564987Y-115362931D01*
X141514687Y-115399476D01*
X141483600Y-115404400D01*
X141145536Y-115404400D01*
X141135678Y-115406360D01*
X141086120Y-115416218D01*
X141018740Y-115461240D01*
X140973718Y-115528620D01*
X140961900Y-115588036D01*
X140961900Y-117279163D01*
X140973718Y-117338579D01*
X140973719Y-117338580D01*
X141018740Y-117405960D01*
X141086120Y-117450981D01*
X141145536Y-117462800D01*
X141145537Y-117462800D01*
X142836663Y-117462800D01*
X142836664Y-117462800D01*
X142896080Y-117450981D01*
X142963460Y-117405960D01*
X143008481Y-117338580D01*
X143020300Y-117279164D01*
X143020300Y-115588036D01*
X143008481Y-115528620D01*
X142963460Y-115461240D01*
X142896080Y-115416219D01*
X142896079Y-115416218D01*
X142848482Y-115406750D01*
X142836664Y-115404400D01*
X142836663Y-115404400D01*
X142498600Y-115404400D01*
X142439469Y-115385187D01*
X142402924Y-115334887D01*
X142398000Y-115303800D01*
X142398000Y-115023400D01*
X142417213Y-114964269D01*
X142467513Y-114927724D01*
X142498600Y-114922800D01*
X142836663Y-114922800D01*
X142836664Y-114922800D01*
X142896080Y-114910981D01*
X142963460Y-114865960D01*
X143008481Y-114798580D01*
X143020300Y-114739164D01*
X143020300Y-113048036D01*
X143008481Y-112988620D01*
X142987559Y-112957308D01*
X142974702Y-112911720D01*
X142967543Y-112912854D01*
X142927390Y-112897139D01*
X142896080Y-112876219D01*
X142896081Y-112876219D01*
X142866372Y-112870309D01*
X142836664Y-112864400D01*
X142836663Y-112864400D01*
X141579013Y-112864400D01*
X141519882Y-112845187D01*
X141507878Y-112834935D01*
X141383251Y-112710308D01*
X141361417Y-112699182D01*
X141347964Y-112690937D01*
X141328136Y-112676531D01*
X141328129Y-112676528D01*
X141304824Y-112668956D01*
X141290241Y-112662916D01*
X141268407Y-112651791D01*
X141244196Y-112647956D01*
X141228855Y-112644273D01*
X141205546Y-112636700D01*
X141205544Y-112636700D01*
X138799245Y-112636700D01*
X138740114Y-112617487D01*
X138703569Y-112567187D01*
X138703569Y-112505013D01*
X138740114Y-112454713D01*
X138752493Y-112447024D01*
X138768886Y-112438419D01*
X138785614Y-112429640D01*
X138914109Y-112315804D01*
X139011626Y-112174526D01*
X139072500Y-112014015D01*
X139093192Y-111843600D01*
X139072500Y-111673185D01*
X139011626Y-111512674D01*
X138914109Y-111371396D01*
X138785614Y-111257560D01*
X138633611Y-111177782D01*
X138633608Y-111177781D01*
X138466935Y-111136700D01*
X138466933Y-111136700D01*
X138295267Y-111136700D01*
X138291313Y-111136700D01*
X138232182Y-111117487D01*
X138220178Y-111107235D01*
X135970378Y-108857435D01*
X135942152Y-108802037D01*
X135951878Y-108740629D01*
X135995842Y-108696665D01*
X136041513Y-108685700D01*
X138839600Y-108685700D01*
X138898731Y-108704913D01*
X138935276Y-108755213D01*
X138940200Y-108786300D01*
X138940200Y-109137064D01*
X138948092Y-109176740D01*
X138952019Y-109196480D01*
X138963398Y-109213511D01*
X138980273Y-109273351D01*
X138963398Y-109325289D01*
X138952019Y-109342319D01*
X138940200Y-109401736D01*
X138940200Y-109797463D01*
X138952018Y-109856879D01*
X138952019Y-109856880D01*
X138997040Y-109924260D01*
X139064420Y-109969281D01*
X139123836Y-109981100D01*
X139373600Y-109981100D01*
X139432731Y-110000313D01*
X139469276Y-110050613D01*
X139474200Y-110081700D01*
X139474200Y-110429154D01*
X139474200Y-110558046D01*
X139481773Y-110581355D01*
X139485456Y-110596696D01*
X139489291Y-110620907D01*
X139500416Y-110642741D01*
X139506456Y-110657324D01*
X139514028Y-110680629D01*
X139514031Y-110680636D01*
X139528437Y-110700464D01*
X139536682Y-110713917D01*
X139547808Y-110735751D01*
X139570734Y-110758677D01*
X140669528Y-111857472D01*
X140669540Y-111857483D01*
X140688949Y-111876892D01*
X140710784Y-111888017D01*
X140724231Y-111896258D01*
X140744068Y-111910670D01*
X140767380Y-111918244D01*
X140781962Y-111924285D01*
X140803790Y-111935408D01*
X140803792Y-111935408D01*
X140803794Y-111935409D01*
X140828010Y-111939244D01*
X140843349Y-111942927D01*
X140866653Y-111950499D01*
X140894908Y-111950499D01*
X140894932Y-111950500D01*
X140899076Y-111950500D01*
X142220887Y-111950500D01*
X142280018Y-111969713D01*
X142292022Y-111979965D01*
X143054415Y-112742358D01*
X143082641Y-112797756D01*
X143081324Y-112806066D01*
X143106025Y-112807037D01*
X143142341Y-112830284D01*
X143472435Y-113160378D01*
X143500661Y-113215776D01*
X143501900Y-113231513D01*
X143501900Y-114739163D01*
X143513718Y-114798579D01*
X143513719Y-114798580D01*
X143558740Y-114865960D01*
X143626120Y-114910981D01*
X143685536Y-114922800D01*
X144023600Y-114922800D01*
X144082731Y-114942013D01*
X144119276Y-114992313D01*
X144124200Y-115023400D01*
X144124200Y-115303800D01*
X144104987Y-115362931D01*
X144054687Y-115399476D01*
X144023600Y-115404400D01*
X143685536Y-115404400D01*
X143675678Y-115406360D01*
X143626120Y-115416218D01*
X143558740Y-115461240D01*
X143513718Y-115528620D01*
X143501900Y-115588036D01*
X143501900Y-117279163D01*
X143513718Y-117338579D01*
X143513719Y-117338580D01*
X143558740Y-117405960D01*
X143626120Y-117450981D01*
X143685536Y-117462800D01*
X143685537Y-117462800D01*
X145376663Y-117462800D01*
X145376664Y-117462800D01*
X145436080Y-117450981D01*
X145503460Y-117405960D01*
X145548481Y-117338580D01*
X145560300Y-117279164D01*
X145560300Y-115588036D01*
X145548481Y-115528620D01*
X145503460Y-115461240D01*
X145436080Y-115416219D01*
X145436079Y-115416218D01*
X145388482Y-115406750D01*
X145376664Y-115404400D01*
X145376663Y-115404400D01*
X145038600Y-115404400D01*
X144979469Y-115385187D01*
X144942924Y-115334887D01*
X144938000Y-115303800D01*
X144938000Y-115023400D01*
X144957213Y-114964269D01*
X145007513Y-114927724D01*
X145038600Y-114922800D01*
X145376663Y-114922800D01*
X145376664Y-114922800D01*
X145436080Y-114910981D01*
X145503460Y-114865960D01*
X145548481Y-114798580D01*
X145560300Y-114739164D01*
X145560300Y-113080600D01*
X145579513Y-113021469D01*
X145629813Y-112984924D01*
X145660900Y-112980000D01*
X145956063Y-112980000D01*
X145986908Y-112977107D01*
X146116769Y-112931668D01*
X146227468Y-112849968D01*
X146309168Y-112739269D01*
X146354607Y-112609408D01*
X146357500Y-112578563D01*
X146357500Y-112101800D01*
X143944700Y-112101800D01*
X143944700Y-112238886D01*
X143925487Y-112298017D01*
X143875187Y-112334562D01*
X143813013Y-112334562D01*
X143772965Y-112310021D01*
X142696177Y-111233234D01*
X142673251Y-111210308D01*
X142651417Y-111199182D01*
X142637964Y-111190937D01*
X142618136Y-111176531D01*
X142618129Y-111176528D01*
X142594824Y-111168956D01*
X142580241Y-111162916D01*
X142558407Y-111151791D01*
X142534196Y-111147956D01*
X142518855Y-111144273D01*
X142495546Y-111136700D01*
X142495544Y-111136700D01*
X141141314Y-111136700D01*
X141082183Y-111117487D01*
X141070179Y-111107235D01*
X140317465Y-110354521D01*
X140289239Y-110299123D01*
X140288000Y-110283386D01*
X140288000Y-110081700D01*
X140307213Y-110022569D01*
X140357513Y-109986024D01*
X140388600Y-109981100D01*
X140637163Y-109981100D01*
X140637164Y-109981100D01*
X140696580Y-109969281D01*
X140763960Y-109924260D01*
X140808981Y-109856880D01*
X140820800Y-109797464D01*
X140820800Y-109401736D01*
X140808981Y-109342320D01*
X140797603Y-109325291D01*
X140780726Y-109265452D01*
X140797603Y-109213509D01*
X140808980Y-109196481D01*
X140808979Y-109196481D01*
X140808981Y-109196480D01*
X140820800Y-109137064D01*
X140820800Y-108801613D01*
X140840013Y-108742482D01*
X140890313Y-108705937D01*
X140952487Y-108705937D01*
X140992535Y-108730478D01*
X142547808Y-110285751D01*
X142638949Y-110376892D01*
X142660781Y-110388015D01*
X142674237Y-110396261D01*
X142694068Y-110410670D01*
X142717377Y-110418243D01*
X142731955Y-110424280D01*
X142753794Y-110435409D01*
X142778007Y-110439243D01*
X142793341Y-110442925D01*
X142816654Y-110450500D01*
X142849076Y-110450500D01*
X144096800Y-110450500D01*
X144155931Y-110469713D01*
X144192476Y-110520013D01*
X144197400Y-110551100D01*
X144197400Y-110643663D01*
X144211152Y-110712798D01*
X144209991Y-110713028D01*
X144214085Y-110765030D01*
X144181599Y-110818043D01*
X144176002Y-110822490D01*
X144074731Y-110897231D01*
X143993031Y-111007930D01*
X143947592Y-111137791D01*
X143944700Y-111168636D01*
X143944700Y-111645400D01*
X146357500Y-111645400D01*
X146357500Y-111168636D01*
X146354607Y-111137791D01*
X146309168Y-111007930D01*
X146227469Y-110897231D01*
X146126197Y-110822490D01*
X146090029Y-110771918D01*
X146090494Y-110709746D01*
X146092980Y-110703083D01*
X146097446Y-110680636D01*
X146104800Y-110643664D01*
X146104800Y-110551100D01*
X146124013Y-110491969D01*
X146174313Y-110455424D01*
X146205400Y-110450500D01*
X147145544Y-110450500D01*
X147145546Y-110450500D01*
X147168855Y-110442926D01*
X147184192Y-110439243D01*
X147208406Y-110435409D01*
X147230244Y-110424280D01*
X147244825Y-110418241D01*
X147268132Y-110410670D01*
X147287958Y-110396264D01*
X147301422Y-110388014D01*
X147323249Y-110376893D01*
X147323248Y-110376893D01*
X147323251Y-110376892D01*
X147414392Y-110285751D01*
X147414391Y-110285751D01*
X147758378Y-109941765D01*
X147813776Y-109913538D01*
X147829513Y-109912300D01*
X149366163Y-109912300D01*
X149366164Y-109912300D01*
X149425580Y-109900481D01*
X149492960Y-109855460D01*
X149537981Y-109788080D01*
X149549800Y-109728664D01*
X149549800Y-108418536D01*
X149537981Y-108359120D01*
X149492960Y-108291740D01*
X149432689Y-108251469D01*
X149425579Y-108246718D01*
X149377982Y-108237250D01*
X149366164Y-108234900D01*
X146786036Y-108234900D01*
X146776178Y-108236860D01*
X146726620Y-108246718D01*
X146659240Y-108291740D01*
X146614218Y-108359120D01*
X146602400Y-108418536D01*
X146602400Y-109536100D01*
X146583187Y-109595231D01*
X146532887Y-109631776D01*
X146501800Y-109636700D01*
X146205400Y-109636700D01*
X146146269Y-109617487D01*
X146109724Y-109567187D01*
X146104800Y-109536100D01*
X146104800Y-109512836D01*
X146124013Y-109453705D01*
X146145663Y-109431893D01*
X146202467Y-109389970D01*
X146202468Y-109389969D01*
X146284168Y-109279269D01*
X146329607Y-109149408D01*
X146332500Y-109118563D01*
X146332500Y-108541800D01*
X145098500Y-108541800D01*
X145039369Y-108522587D01*
X145002824Y-108472287D01*
X144997900Y-108441200D01*
X144997900Y-108186000D01*
X145017113Y-108126869D01*
X145067413Y-108090324D01*
X145098500Y-108085400D01*
X146332500Y-108085400D01*
X146332500Y-107508636D01*
X146329607Y-107477791D01*
X146329607Y-107477789D01*
X146328044Y-107473322D01*
X146326652Y-107411163D01*
X146362061Y-107360057D01*
X146420747Y-107339525D01*
X146423000Y-107339500D01*
X149681729Y-107339500D01*
X149740860Y-107358713D01*
X149752864Y-107368965D01*
X149995535Y-107611636D01*
X150023761Y-107667034D01*
X150025000Y-107682771D01*
X150025000Y-112763800D01*
X150005787Y-112822931D01*
X149955487Y-112859476D01*
X149924400Y-112864400D01*
X149555536Y-112864400D01*
X149545678Y-112866360D01*
X149496120Y-112876218D01*
X149428740Y-112921240D01*
X149383718Y-112988620D01*
X149371900Y-113048036D01*
X149371900Y-114739163D01*
X149383718Y-114798579D01*
X149383719Y-114798580D01*
X149428740Y-114865960D01*
X149496120Y-114910981D01*
X149555536Y-114922800D01*
X149944400Y-114922800D01*
X150003531Y-114942013D01*
X150040076Y-114992313D01*
X150045000Y-115023400D01*
X150045000Y-115303800D01*
X150025787Y-115362931D01*
X149975487Y-115399476D01*
X149944400Y-115404400D01*
X149555536Y-115404400D01*
X149545678Y-115406360D01*
X149496120Y-115416218D01*
X149428740Y-115461240D01*
X149383718Y-115528620D01*
X149371900Y-115588036D01*
X149371900Y-117279163D01*
X149383718Y-117338579D01*
X149383719Y-117338580D01*
X149428740Y-117405960D01*
X149496120Y-117450981D01*
X149555536Y-117462800D01*
X149555537Y-117462800D01*
X151246663Y-117462800D01*
X151246664Y-117462800D01*
X151306080Y-117450981D01*
X151373460Y-117405960D01*
X151418481Y-117338580D01*
X151430300Y-117279164D01*
X151430300Y-115588036D01*
X151418481Y-115528620D01*
X151373460Y-115461240D01*
X151306080Y-115416219D01*
X151306079Y-115416218D01*
X151258482Y-115406750D01*
X151246664Y-115404400D01*
X151246663Y-115404400D01*
X150857800Y-115404400D01*
X150819022Y-115391800D01*
X160065806Y-115391800D01*
X160074046Y-115549031D01*
X160074046Y-115549033D01*
X160134420Y-115930213D01*
X160134425Y-115930235D01*
X160234314Y-116303025D01*
X160372623Y-116663332D01*
X160372632Y-116663352D01*
X160547840Y-117007219D01*
X160547844Y-117007226D01*
X160758048Y-117330910D01*
X160758052Y-117330915D01*
X161000938Y-117630855D01*
X161273844Y-117903761D01*
X161573784Y-118146647D01*
X161573789Y-118146651D01*
X161897473Y-118356855D01*
X161897480Y-118356859D01*
X162241347Y-118532067D01*
X162241367Y-118532076D01*
X162601674Y-118670385D01*
X162974464Y-118770274D01*
X162974486Y-118770279D01*
X163355669Y-118830653D01*
X163355664Y-118830653D01*
X163512898Y-118838893D01*
X163512900Y-118838892D01*
X163512900Y-116750587D01*
X163678231Y-116763600D01*
X163803969Y-116763600D01*
X163969300Y-116750587D01*
X163969300Y-118838892D01*
X163969301Y-118838893D01*
X164126532Y-118830653D01*
X164507713Y-118770279D01*
X164507735Y-118770274D01*
X164880525Y-118670385D01*
X165240832Y-118532076D01*
X165240852Y-118532067D01*
X165584719Y-118356859D01*
X165584726Y-118356855D01*
X165908410Y-118146651D01*
X165908415Y-118146647D01*
X166208355Y-117903761D01*
X166481261Y-117630855D01*
X166724147Y-117330915D01*
X166724151Y-117330910D01*
X166934355Y-117007226D01*
X166934359Y-117007219D01*
X167109567Y-116663352D01*
X167109576Y-116663332D01*
X167247885Y-116303025D01*
X167347774Y-115930235D01*
X167347779Y-115930213D01*
X167408153Y-115549033D01*
X167408153Y-115549031D01*
X167416393Y-115391800D01*
X165328088Y-115391800D01*
X165346048Y-115163600D01*
X165328088Y-114935400D01*
X167416393Y-114935400D01*
X167416393Y-114935399D01*
X167408153Y-114778168D01*
X167408153Y-114778166D01*
X167347779Y-114396986D01*
X167347774Y-114396964D01*
X167247885Y-114024174D01*
X167109576Y-113663867D01*
X167109567Y-113663847D01*
X166934359Y-113319981D01*
X166934355Y-113319974D01*
X166724154Y-112996293D01*
X166481261Y-112696344D01*
X166208355Y-112423438D01*
X165908415Y-112180552D01*
X165908410Y-112180548D01*
X165584726Y-111970344D01*
X165584719Y-111970340D01*
X165240852Y-111795132D01*
X165240832Y-111795123D01*
X164880525Y-111656814D01*
X164507735Y-111556925D01*
X164507713Y-111556920D01*
X164126532Y-111496546D01*
X163969300Y-111488306D01*
X163969300Y-113576612D01*
X163803969Y-113563600D01*
X163678231Y-113563600D01*
X163512900Y-113576612D01*
X163512900Y-111488306D01*
X163512899Y-111488306D01*
X163355668Y-111496546D01*
X163355666Y-111496546D01*
X162974486Y-111556920D01*
X162974464Y-111556925D01*
X162601674Y-111656814D01*
X162241367Y-111795123D01*
X162241347Y-111795132D01*
X161897481Y-111970340D01*
X161897474Y-111970344D01*
X161573793Y-112180545D01*
X161273844Y-112423438D01*
X161000938Y-112696344D01*
X160758045Y-112996293D01*
X160547844Y-113319974D01*
X160547840Y-113319981D01*
X160372632Y-113663847D01*
X160372623Y-113663867D01*
X160234314Y-114024174D01*
X160134425Y-114396964D01*
X160134420Y-114396986D01*
X160074046Y-114778166D01*
X160074046Y-114778168D01*
X160065806Y-114935399D01*
X160065807Y-114935400D01*
X162154112Y-114935400D01*
X162136152Y-115163600D01*
X162154112Y-115391800D01*
X160065806Y-115391800D01*
X150819022Y-115391800D01*
X150798669Y-115385187D01*
X150762124Y-115334887D01*
X150757200Y-115303800D01*
X150757200Y-115023400D01*
X150776413Y-114964269D01*
X150826713Y-114927724D01*
X150857800Y-114922800D01*
X151246663Y-114922800D01*
X151246664Y-114922800D01*
X151306080Y-114910981D01*
X151373460Y-114865960D01*
X151418481Y-114798580D01*
X151430300Y-114739164D01*
X151430300Y-113526800D01*
X153004700Y-113526800D01*
X153004700Y-113988563D01*
X153007592Y-114019408D01*
X153053031Y-114149269D01*
X153134731Y-114259968D01*
X153245430Y-114341668D01*
X153375292Y-114387107D01*
X153375291Y-114387107D01*
X153406137Y-114390000D01*
X154502900Y-114390000D01*
X154502900Y-113526800D01*
X154959300Y-113526800D01*
X154959300Y-114390000D01*
X156056063Y-114390000D01*
X156086908Y-114387107D01*
X156216769Y-114341668D01*
X156327468Y-114259968D01*
X156409168Y-114149269D01*
X156454607Y-114019408D01*
X156457500Y-113988563D01*
X156457500Y-113526800D01*
X154959300Y-113526800D01*
X154502900Y-113526800D01*
X153004700Y-113526800D01*
X151430300Y-113526800D01*
X151430300Y-113070400D01*
X153004700Y-113070400D01*
X154502900Y-113070400D01*
X154502900Y-112207200D01*
X154959300Y-112207200D01*
X154959300Y-113070400D01*
X156457500Y-113070400D01*
X156457500Y-112608636D01*
X156454607Y-112577791D01*
X156409168Y-112447930D01*
X156327468Y-112337231D01*
X156216769Y-112255531D01*
X156086907Y-112210092D01*
X156086908Y-112210092D01*
X156056063Y-112207200D01*
X154959300Y-112207200D01*
X154502900Y-112207200D01*
X153406137Y-112207200D01*
X153375291Y-112210092D01*
X153245430Y-112255531D01*
X153134731Y-112337231D01*
X153053031Y-112447930D01*
X153007592Y-112577791D01*
X153004700Y-112608636D01*
X153004700Y-113070400D01*
X151430300Y-113070400D01*
X151430300Y-113048036D01*
X151418481Y-112988620D01*
X151373460Y-112921240D01*
X151306080Y-112876219D01*
X151306079Y-112876218D01*
X151258482Y-112866750D01*
X151246664Y-112864400D01*
X151246663Y-112864400D01*
X150837800Y-112864400D01*
X150778669Y-112845187D01*
X150742124Y-112794887D01*
X150737200Y-112763800D01*
X150737200Y-110824063D01*
X161189200Y-110824063D01*
X161192092Y-110854908D01*
X161237531Y-110984769D01*
X161319231Y-111095468D01*
X161429930Y-111177168D01*
X161559792Y-111222607D01*
X161559791Y-111222607D01*
X161590637Y-111225500D01*
X162242900Y-111225500D01*
X162242900Y-110325995D01*
X162276060Y-110348604D01*
X162404102Y-110388100D01*
X162504412Y-110388100D01*
X162603599Y-110373150D01*
X162699300Y-110327062D01*
X162699300Y-111225500D01*
X163351563Y-111225500D01*
X163382408Y-111222607D01*
X163512269Y-111177168D01*
X163622968Y-111095469D01*
X163660157Y-111045080D01*
X163710729Y-111008912D01*
X163772901Y-111009377D01*
X163822043Y-111045080D01*
X163859231Y-111095469D01*
X163969930Y-111177168D01*
X164099792Y-111222607D01*
X164099791Y-111222607D01*
X164130637Y-111225500D01*
X164782900Y-111225500D01*
X164782900Y-110325995D01*
X164816060Y-110348604D01*
X164944102Y-110388100D01*
X165044412Y-110388100D01*
X165143599Y-110373150D01*
X165239300Y-110327062D01*
X165239300Y-111225500D01*
X165891563Y-111225500D01*
X165922408Y-111222607D01*
X166052269Y-111177168D01*
X166162968Y-111095468D01*
X166244668Y-110984769D01*
X166290107Y-110854908D01*
X166293000Y-110824063D01*
X166293000Y-110171800D01*
X165392613Y-110171800D01*
X165429547Y-110107828D01*
X165459364Y-109977193D01*
X165449351Y-109843572D01*
X165400397Y-109718840D01*
X165397654Y-109715400D01*
X166293000Y-109715400D01*
X166293000Y-109063136D01*
X166290107Y-109032291D01*
X166244668Y-108902430D01*
X166162968Y-108791731D01*
X166052269Y-108710031D01*
X165922407Y-108664592D01*
X165922408Y-108664592D01*
X165891563Y-108661700D01*
X165239300Y-108661700D01*
X165239300Y-109561204D01*
X165206140Y-109538596D01*
X165078098Y-109499100D01*
X164977788Y-109499100D01*
X164878601Y-109514050D01*
X164782900Y-109560137D01*
X164782900Y-108661700D01*
X164130637Y-108661700D01*
X164099791Y-108664592D01*
X163969930Y-108710031D01*
X163859231Y-108791731D01*
X163822043Y-108842119D01*
X163771471Y-108878287D01*
X163709298Y-108877822D01*
X163660157Y-108842119D01*
X163622968Y-108791731D01*
X163512269Y-108710031D01*
X163382407Y-108664592D01*
X163382408Y-108664592D01*
X163351563Y-108661700D01*
X162699300Y-108661700D01*
X162699300Y-109561204D01*
X162666140Y-109538596D01*
X162538098Y-109499100D01*
X162437788Y-109499100D01*
X162338601Y-109514050D01*
X162242900Y-109560137D01*
X162242900Y-108661700D01*
X161590637Y-108661700D01*
X161559791Y-108664592D01*
X161429930Y-108710031D01*
X161319231Y-108791731D01*
X161237531Y-108902430D01*
X161192092Y-109032291D01*
X161189200Y-109063136D01*
X161189200Y-109715400D01*
X162089587Y-109715400D01*
X162052653Y-109779372D01*
X162022836Y-109910007D01*
X162032849Y-110043628D01*
X162081803Y-110168360D01*
X162084546Y-110171800D01*
X161189200Y-110171800D01*
X161189200Y-110824063D01*
X150737200Y-110824063D01*
X150737200Y-107626800D01*
X151059700Y-107626800D01*
X151059700Y-108088563D01*
X151062592Y-108119408D01*
X151108031Y-108249269D01*
X151189731Y-108359968D01*
X151300430Y-108441668D01*
X151430292Y-108487107D01*
X151430291Y-108487107D01*
X151461137Y-108490000D01*
X152557900Y-108490000D01*
X152557900Y-107626800D01*
X151059700Y-107626800D01*
X150737200Y-107626800D01*
X150737200Y-107540967D01*
X150739340Y-107520324D01*
X150741816Y-107508519D01*
X150739567Y-107490481D01*
X150738775Y-107484120D01*
X150737972Y-107477689D01*
X150737200Y-107465245D01*
X150737200Y-107464092D01*
X150737199Y-107464081D01*
X150733897Y-107444297D01*
X150733297Y-107440180D01*
X150730323Y-107416327D01*
X150727115Y-107390587D01*
X150727113Y-107390584D01*
X150724989Y-107383445D01*
X150722563Y-107376379D01*
X150722563Y-107376376D01*
X150698760Y-107332393D01*
X150696863Y-107328706D01*
X150691953Y-107318663D01*
X150674919Y-107283818D01*
X150674917Y-107283816D01*
X150670578Y-107277737D01*
X150665998Y-107271853D01*
X150629220Y-107237997D01*
X150626219Y-107235118D01*
X150213501Y-106822400D01*
X150185275Y-106767002D01*
X150195001Y-106705594D01*
X150238965Y-106661630D01*
X150270316Y-106651690D01*
X150281936Y-106650019D01*
X150289050Y-106649254D01*
X150340301Y-106645589D01*
X150347451Y-106642921D01*
X150368282Y-106637604D01*
X150375834Y-106636519D01*
X150375838Y-106636517D01*
X150375839Y-106636517D01*
X150422546Y-106615186D01*
X150429167Y-106612442D01*
X150477304Y-106594489D01*
X150483405Y-106589921D01*
X150501909Y-106578941D01*
X150508843Y-106575776D01*
X150547660Y-106542139D01*
X150553220Y-106537658D01*
X150564948Y-106528880D01*
X150575299Y-106518527D01*
X150580526Y-106513660D01*
X150619350Y-106480021D01*
X150623472Y-106473605D01*
X150636961Y-106456865D01*
X150862263Y-106231565D01*
X150917661Y-106203338D01*
X150933398Y-106202100D01*
X151202603Y-106202100D01*
X151261734Y-106221313D01*
X151298279Y-106271613D01*
X151298279Y-106333787D01*
X151262341Y-106383643D01*
X151189731Y-106437231D01*
X151108031Y-106547930D01*
X151062592Y-106677791D01*
X151059700Y-106708636D01*
X151059700Y-107170400D01*
X154512500Y-107170400D01*
X154512500Y-106708636D01*
X154509607Y-106677791D01*
X154464168Y-106547930D01*
X154382468Y-106437231D01*
X154309859Y-106383643D01*
X154273691Y-106333071D01*
X154274156Y-106270899D01*
X154311076Y-106220873D01*
X154369597Y-106202100D01*
X155022000Y-106202100D01*
X155081131Y-106221313D01*
X155117676Y-106271613D01*
X155122600Y-106302700D01*
X155122600Y-107541301D01*
X155103387Y-107600432D01*
X155093135Y-107612436D01*
X154684235Y-108021335D01*
X154628837Y-108049561D01*
X154567428Y-108039835D01*
X154523465Y-107995871D01*
X154512500Y-107950200D01*
X154512500Y-107626800D01*
X153014300Y-107626800D01*
X153014300Y-108490000D01*
X153156800Y-108490000D01*
X153215931Y-108509213D01*
X153252476Y-108559513D01*
X153257400Y-108590600D01*
X153257400Y-109826163D01*
X153269218Y-109885579D01*
X153269219Y-109885580D01*
X153314240Y-109952960D01*
X153381620Y-109997981D01*
X153441036Y-110009800D01*
X153441037Y-110009800D01*
X156021163Y-110009800D01*
X156021164Y-110009800D01*
X156080580Y-109997981D01*
X156147960Y-109952960D01*
X156192981Y-109885580D01*
X156204800Y-109826164D01*
X156204800Y-108766194D01*
X156224013Y-108707063D01*
X156274313Y-108670518D01*
X156336487Y-108670518D01*
X156386787Y-108707063D01*
X156389041Y-108710298D01*
X156429240Y-108770460D01*
X156496620Y-108815481D01*
X156556036Y-108827300D01*
X156556037Y-108827300D01*
X158696163Y-108827300D01*
X158696164Y-108827300D01*
X158755580Y-108815481D01*
X158822960Y-108770460D01*
X158867981Y-108703080D01*
X158879800Y-108643664D01*
X158879800Y-108552700D01*
X158899013Y-108493569D01*
X158949313Y-108457024D01*
X158980400Y-108452100D01*
X160965616Y-108452100D01*
X160986998Y-108454399D01*
X160989561Y-108454956D01*
X160994451Y-108456020D01*
X161045683Y-108452355D01*
X161052858Y-108452100D01*
X161067469Y-108452100D01*
X161077009Y-108450727D01*
X161081927Y-108450020D01*
X161089050Y-108449254D01*
X161140301Y-108445589D01*
X161147451Y-108442921D01*
X161168282Y-108437604D01*
X161175834Y-108436519D01*
X161175838Y-108436517D01*
X161175839Y-108436517D01*
X161222546Y-108415186D01*
X161229167Y-108412442D01*
X161277304Y-108394489D01*
X161283405Y-108389921D01*
X161301909Y-108378941D01*
X161308843Y-108375776D01*
X161342853Y-108346304D01*
X161400122Y-108322100D01*
X161460681Y-108336181D01*
X161492377Y-108366437D01*
X161498740Y-108375960D01*
X161566120Y-108420981D01*
X161625536Y-108432800D01*
X161625537Y-108432800D01*
X163316663Y-108432800D01*
X163316664Y-108432800D01*
X163376080Y-108420981D01*
X163443460Y-108375960D01*
X163488481Y-108308580D01*
X163500300Y-108249164D01*
X163500300Y-108012700D01*
X163519513Y-107953569D01*
X163569813Y-107917024D01*
X163600900Y-107912100D01*
X163881300Y-107912100D01*
X163940431Y-107931313D01*
X163976976Y-107981613D01*
X163981900Y-108012700D01*
X163981900Y-108249163D01*
X163993718Y-108308579D01*
X164007283Y-108328880D01*
X164038740Y-108375960D01*
X164106120Y-108420981D01*
X164165536Y-108432800D01*
X164165537Y-108432800D01*
X165856663Y-108432800D01*
X165856664Y-108432800D01*
X165916080Y-108420981D01*
X165983460Y-108375960D01*
X166028481Y-108308580D01*
X166040300Y-108249164D01*
X166040300Y-106558036D01*
X166028481Y-106498620D01*
X165983460Y-106431240D01*
X165916080Y-106386219D01*
X165916079Y-106386218D01*
X165868482Y-106376750D01*
X165856664Y-106374400D01*
X164165536Y-106374400D01*
X164155678Y-106376360D01*
X164106120Y-106386218D01*
X164038740Y-106431240D01*
X163993718Y-106498620D01*
X163981900Y-106558036D01*
X163981900Y-106794500D01*
X163962687Y-106853631D01*
X163912387Y-106890176D01*
X163881300Y-106895100D01*
X163600900Y-106895100D01*
X163541769Y-106875887D01*
X163505224Y-106825587D01*
X163500300Y-106794500D01*
X163500300Y-106558036D01*
X163488481Y-106498620D01*
X163476923Y-106481322D01*
X163443460Y-106431240D01*
X163376080Y-106386219D01*
X163376079Y-106386218D01*
X163328482Y-106376750D01*
X163316664Y-106374400D01*
X161625536Y-106374400D01*
X161615678Y-106376360D01*
X161566120Y-106386218D01*
X161498737Y-106431242D01*
X161493972Y-106436008D01*
X161438573Y-106464232D01*
X161377165Y-106454503D01*
X161351705Y-106436005D01*
X161337500Y-106421800D01*
X160003500Y-106421800D01*
X159944369Y-106402587D01*
X159907824Y-106352287D01*
X159902900Y-106321200D01*
X159902900Y-106066000D01*
X159922113Y-106006869D01*
X159972413Y-105970324D01*
X160003500Y-105965400D01*
X161279900Y-105965400D01*
X161339031Y-105984613D01*
X161375576Y-106034913D01*
X161379273Y-106058257D01*
X161380499Y-106060686D01*
X161429930Y-106097167D01*
X161429935Y-106097170D01*
X161559792Y-106142607D01*
X161559791Y-106142607D01*
X161590637Y-106145500D01*
X162242900Y-106145500D01*
X162242900Y-105245995D01*
X162276060Y-105268604D01*
X162404102Y-105308100D01*
X162504412Y-105308100D01*
X162603599Y-105293150D01*
X162699300Y-105247062D01*
X162699300Y-106145500D01*
X163351563Y-106145500D01*
X163382408Y-106142607D01*
X163512269Y-106097168D01*
X163622968Y-106015469D01*
X163660157Y-105965080D01*
X163710729Y-105928912D01*
X163772901Y-105929377D01*
X163822043Y-105965080D01*
X163859231Y-106015469D01*
X163969930Y-106097168D01*
X164099792Y-106142607D01*
X164099791Y-106142607D01*
X164130637Y-106145500D01*
X164782900Y-106145500D01*
X164782900Y-105245995D01*
X164816060Y-105268604D01*
X164944102Y-105308100D01*
X165044412Y-105308100D01*
X165143599Y-105293150D01*
X165239300Y-105247062D01*
X165239300Y-106145500D01*
X165891563Y-106145500D01*
X165922408Y-106142607D01*
X166052269Y-106097168D01*
X166162968Y-106015468D01*
X166244668Y-105904769D01*
X166290107Y-105774908D01*
X166293000Y-105744063D01*
X166293000Y-105091800D01*
X165392613Y-105091800D01*
X165429547Y-105027828D01*
X165459364Y-104897193D01*
X165449351Y-104763572D01*
X165400397Y-104638840D01*
X165397654Y-104635400D01*
X166293000Y-104635400D01*
X166293000Y-103983136D01*
X166290107Y-103952291D01*
X166244668Y-103822430D01*
X166162968Y-103711731D01*
X166052269Y-103630031D01*
X165922407Y-103584592D01*
X165922408Y-103584592D01*
X165891563Y-103581700D01*
X165239300Y-103581700D01*
X165239300Y-104481204D01*
X165206140Y-104458596D01*
X165078098Y-104419100D01*
X164977788Y-104419100D01*
X164878601Y-104434050D01*
X164782900Y-104480137D01*
X164782900Y-103581700D01*
X164130637Y-103581700D01*
X164099791Y-103584592D01*
X163969930Y-103630031D01*
X163859231Y-103711731D01*
X163822043Y-103762119D01*
X163771471Y-103798287D01*
X163709298Y-103797822D01*
X163660157Y-103762119D01*
X163622968Y-103711731D01*
X163512269Y-103630031D01*
X163382407Y-103584592D01*
X163382408Y-103584592D01*
X163351563Y-103581700D01*
X162699300Y-103581700D01*
X162699300Y-104481204D01*
X162666140Y-104458596D01*
X162538098Y-104419100D01*
X162437788Y-104419100D01*
X162338601Y-104434050D01*
X162242900Y-104480137D01*
X162242900Y-103581700D01*
X161590637Y-103581700D01*
X161559791Y-103584592D01*
X161429930Y-103630031D01*
X161319231Y-103711731D01*
X161266343Y-103783392D01*
X161215771Y-103819560D01*
X161153598Y-103819095D01*
X161103573Y-103782175D01*
X161084800Y-103723654D01*
X161084800Y-103623536D01*
X161072981Y-103564120D01*
X161027960Y-103496740D01*
X160960580Y-103451719D01*
X160960579Y-103451718D01*
X160912982Y-103442250D01*
X160901164Y-103439900D01*
X159361036Y-103439900D01*
X159351178Y-103441860D01*
X159301620Y-103451718D01*
X159234240Y-103496740D01*
X159189216Y-103564123D01*
X159187612Y-103567998D01*
X159147234Y-103615275D01*
X159094670Y-103630100D01*
X158362989Y-103630100D01*
X158334636Y-103638425D01*
X158320613Y-103641475D01*
X158291366Y-103645681D01*
X158291362Y-103645682D01*
X158264484Y-103657956D01*
X158251045Y-103662968D01*
X158222692Y-103671294D01*
X158222685Y-103671298D01*
X158197825Y-103687273D01*
X158185237Y-103694147D01*
X158158357Y-103706424D01*
X158158351Y-103706428D01*
X158153848Y-103710330D01*
X158096578Y-103734531D01*
X158087971Y-103734900D01*
X157966036Y-103734900D01*
X157956178Y-103736860D01*
X157906620Y-103746718D01*
X157839240Y-103791740D01*
X157794218Y-103859120D01*
X157782400Y-103918536D01*
X157782400Y-104358663D01*
X157794218Y-104418079D01*
X157804890Y-104434050D01*
X157839240Y-104485460D01*
X157882890Y-104514625D01*
X157921382Y-104563451D01*
X157927600Y-104598271D01*
X157927600Y-104736302D01*
X157908387Y-104795433D01*
X157898135Y-104807437D01*
X157815138Y-104890435D01*
X157759741Y-104918661D01*
X157744003Y-104919900D01*
X156556036Y-104919900D01*
X156546178Y-104921860D01*
X156496620Y-104931718D01*
X156429240Y-104976740D01*
X156384218Y-105044120D01*
X156380761Y-105061502D01*
X156372473Y-105103172D01*
X156372283Y-105104126D01*
X156341903Y-105158373D01*
X156285440Y-105184403D01*
X156273616Y-105185100D01*
X153395200Y-105185100D01*
X153336069Y-105165887D01*
X153299524Y-105115587D01*
X153294600Y-105084500D01*
X153294600Y-104210400D01*
X153313813Y-104151269D01*
X153364113Y-104114724D01*
X153395200Y-104109800D01*
X154076163Y-104109800D01*
X154076164Y-104109800D01*
X154135580Y-104097981D01*
X154202960Y-104052960D01*
X154247981Y-103985580D01*
X154259800Y-103926164D01*
X154259800Y-102616036D01*
X154247981Y-102556620D01*
X154226044Y-102523788D01*
X154209169Y-102463951D01*
X154230688Y-102405619D01*
X154282384Y-102371077D01*
X154309691Y-102367300D01*
X154523600Y-102367300D01*
X154582731Y-102386513D01*
X154619276Y-102436813D01*
X154624200Y-102467900D01*
X154624200Y-103079154D01*
X154624200Y-103208046D01*
X154631489Y-103230480D01*
X154631773Y-103231355D01*
X154635456Y-103246696D01*
X154639291Y-103270907D01*
X154650416Y-103292741D01*
X154656456Y-103307324D01*
X154664028Y-103330629D01*
X154664031Y-103330636D01*
X154678437Y-103350464D01*
X154686682Y-103363917D01*
X154691425Y-103373224D01*
X154697808Y-103385751D01*
X154720734Y-103408677D01*
X155042808Y-103730751D01*
X155133949Y-103821892D01*
X155155781Y-103833015D01*
X155169237Y-103841261D01*
X155189068Y-103855670D01*
X155212377Y-103863243D01*
X155226955Y-103869280D01*
X155248794Y-103880409D01*
X155273007Y-103884243D01*
X155288341Y-103887925D01*
X155311654Y-103895500D01*
X155344076Y-103895500D01*
X156081800Y-103895500D01*
X156140931Y-103914713D01*
X156177476Y-103965013D01*
X156182400Y-103996100D01*
X156182400Y-104358663D01*
X156194218Y-104418079D01*
X156204890Y-104434050D01*
X156239240Y-104485460D01*
X156306620Y-104530481D01*
X156366036Y-104542300D01*
X156366037Y-104542300D01*
X157306163Y-104542300D01*
X157306164Y-104542300D01*
X157365580Y-104530481D01*
X157432960Y-104485460D01*
X157477981Y-104418080D01*
X157489800Y-104358664D01*
X157489800Y-103918536D01*
X157477981Y-103859120D01*
X157477980Y-103859118D01*
X157475072Y-103852096D01*
X157470195Y-103790114D01*
X157475072Y-103775104D01*
X157477980Y-103768081D01*
X157477979Y-103768081D01*
X157477981Y-103768080D01*
X157489800Y-103708664D01*
X157489800Y-103506287D01*
X157509013Y-103447156D01*
X157530662Y-103425344D01*
X157612469Y-103364968D01*
X157694167Y-103254270D01*
X157698288Y-103242494D01*
X157735950Y-103193025D01*
X157795497Y-103175141D01*
X157849133Y-103192070D01*
X157883470Y-103215013D01*
X157906618Y-103230480D01*
X157906620Y-103230481D01*
X157966036Y-103242300D01*
X158345873Y-103242300D01*
X158363698Y-103245123D01*
X158363835Y-103244262D01*
X158371651Y-103245500D01*
X158371654Y-103245500D01*
X158500549Y-103245500D01*
X158508365Y-103244262D01*
X158508501Y-103245123D01*
X158526327Y-103242300D01*
X158906163Y-103242300D01*
X158906164Y-103242300D01*
X158965580Y-103230481D01*
X159032960Y-103185460D01*
X159077981Y-103118080D01*
X159089800Y-103058664D01*
X159089800Y-102802013D01*
X159109013Y-102742882D01*
X159119265Y-102730878D01*
X160270178Y-101579965D01*
X160325576Y-101551739D01*
X160341313Y-101550500D01*
X161341300Y-101550500D01*
X161400431Y-101569713D01*
X161436976Y-101620013D01*
X161441900Y-101651100D01*
X161441900Y-101989163D01*
X161453718Y-102048579D01*
X161458391Y-102055572D01*
X161498740Y-102115960D01*
X161566120Y-102160981D01*
X161625536Y-102172800D01*
X161625537Y-102172800D01*
X163316663Y-102172800D01*
X163316664Y-102172800D01*
X163376080Y-102160981D01*
X163443460Y-102115960D01*
X163488481Y-102048580D01*
X163500300Y-101989164D01*
X163500300Y-101651100D01*
X163519513Y-101591969D01*
X163569813Y-101555424D01*
X163600900Y-101550500D01*
X163881300Y-101550500D01*
X163940431Y-101569713D01*
X163976976Y-101620013D01*
X163981900Y-101651100D01*
X163981900Y-101989163D01*
X163993718Y-102048579D01*
X163998391Y-102055572D01*
X164038740Y-102115960D01*
X164106120Y-102160981D01*
X164165536Y-102172800D01*
X164165537Y-102172800D01*
X165856663Y-102172800D01*
X165856664Y-102172800D01*
X165916080Y-102160981D01*
X165983460Y-102115960D01*
X166028481Y-102048580D01*
X166040300Y-101989164D01*
X166040300Y-100298036D01*
X166028481Y-100238620D01*
X165983460Y-100171240D01*
X165916080Y-100126219D01*
X165916079Y-100126218D01*
X165868482Y-100116750D01*
X165856664Y-100114400D01*
X164165536Y-100114400D01*
X164155678Y-100116360D01*
X164106120Y-100126218D01*
X164038740Y-100171240D01*
X163993718Y-100238620D01*
X163981900Y-100298036D01*
X163981900Y-100636100D01*
X163962687Y-100695231D01*
X163912387Y-100731776D01*
X163881300Y-100736700D01*
X163600900Y-100736700D01*
X163541769Y-100717487D01*
X163505224Y-100667187D01*
X163500300Y-100636100D01*
X163500300Y-100298036D01*
X163488481Y-100238620D01*
X163443460Y-100171240D01*
X163376080Y-100126219D01*
X163376079Y-100126218D01*
X163328482Y-100116750D01*
X163316664Y-100114400D01*
X161625536Y-100114400D01*
X161615678Y-100116360D01*
X161566120Y-100126218D01*
X161498740Y-100171240D01*
X161453718Y-100238620D01*
X161441900Y-100298036D01*
X161441900Y-100636100D01*
X161422687Y-100695231D01*
X161372387Y-100731776D01*
X161341300Y-100736700D01*
X160195546Y-100736700D01*
X160066654Y-100736700D01*
X160043340Y-100744274D01*
X160028006Y-100747955D01*
X160003794Y-100751791D01*
X160003792Y-100751791D01*
X160003788Y-100751793D01*
X159981957Y-100762916D01*
X159967379Y-100768955D01*
X159944071Y-100776528D01*
X159944064Y-100776532D01*
X159924235Y-100790938D01*
X159910784Y-100799181D01*
X159888949Y-100810307D01*
X158293822Y-102405435D01*
X158238424Y-102433661D01*
X158222687Y-102434900D01*
X157966036Y-102434900D01*
X157950110Y-102438068D01*
X157906618Y-102446719D01*
X157849134Y-102485129D01*
X157789294Y-102502005D01*
X157730963Y-102480486D01*
X157698288Y-102434706D01*
X157694167Y-102422929D01*
X157612468Y-102312231D01*
X157501769Y-102230531D01*
X157371907Y-102185092D01*
X157371908Y-102185092D01*
X157341063Y-102182200D01*
X157036100Y-102182200D01*
X157036100Y-102938000D01*
X157016887Y-102997131D01*
X156966587Y-103033676D01*
X156935500Y-103038600D01*
X155929700Y-103038600D01*
X155916065Y-103052235D01*
X155860667Y-103080461D01*
X155844930Y-103081700D01*
X155586313Y-103081700D01*
X155527182Y-103062487D01*
X155515178Y-103052235D01*
X155467465Y-103004522D01*
X155439239Y-102949124D01*
X155438000Y-102933387D01*
X155438000Y-102638600D01*
X155929700Y-102638600D01*
X156636100Y-102638600D01*
X156636100Y-102182200D01*
X156331137Y-102182200D01*
X156300291Y-102185092D01*
X156170430Y-102230531D01*
X156059728Y-102312233D01*
X156056419Y-102315542D01*
X156001020Y-102343765D01*
X155946237Y-102335085D01*
X155974602Y-102377535D01*
X155972734Y-102438068D01*
X155932592Y-102552791D01*
X155929700Y-102583636D01*
X155929700Y-102638600D01*
X155438000Y-102638600D01*
X155438000Y-102467900D01*
X155457213Y-102408769D01*
X155507513Y-102372224D01*
X155538600Y-102367300D01*
X155711163Y-102367300D01*
X155711164Y-102367300D01*
X155770580Y-102355481D01*
X155821889Y-102321197D01*
X155881727Y-102304321D01*
X155926363Y-102320787D01*
X155895650Y-102290069D01*
X155885927Y-102228660D01*
X155886610Y-102224835D01*
X155894800Y-102183664D01*
X155894800Y-100843536D01*
X155882981Y-100784120D01*
X155837960Y-100716740D01*
X155770580Y-100671719D01*
X155770579Y-100671718D01*
X155734569Y-100664555D01*
X155723061Y-100662266D01*
X155668815Y-100631887D01*
X155642785Y-100575424D01*
X155654915Y-100514445D01*
X155700571Y-100472241D01*
X155723059Y-100464933D01*
X155770580Y-100455481D01*
X155837960Y-100410460D01*
X155882981Y-100343080D01*
X155894800Y-100283664D01*
X155894800Y-98943536D01*
X155882981Y-98884120D01*
X155837960Y-98816740D01*
X155837956Y-98816737D01*
X155833768Y-98812549D01*
X155805542Y-98757151D01*
X155815268Y-98695743D01*
X155821252Y-98685531D01*
X155862981Y-98623080D01*
X155874800Y-98563664D01*
X155874800Y-97223536D01*
X155862981Y-97164120D01*
X155817960Y-97096740D01*
X155750580Y-97051719D01*
X155750579Y-97051718D01*
X155714569Y-97044555D01*
X155703061Y-97042266D01*
X155648815Y-97011887D01*
X155622785Y-96955424D01*
X155634915Y-96894445D01*
X155680571Y-96852241D01*
X155703059Y-96844933D01*
X155750580Y-96835481D01*
X155817960Y-96790460D01*
X155862981Y-96723080D01*
X155874800Y-96663664D01*
X155874800Y-95323536D01*
X155862981Y-95264120D01*
X155817960Y-95196740D01*
X155750580Y-95151719D01*
X155750579Y-95151718D01*
X155694200Y-95140504D01*
X155691164Y-95139900D01*
X155691163Y-95139900D01*
X155574077Y-95139900D01*
X155514946Y-95120687D01*
X155479426Y-95071800D01*
X160065806Y-95071800D01*
X160074046Y-95229031D01*
X160074046Y-95229033D01*
X160134420Y-95610213D01*
X160134425Y-95610235D01*
X160234314Y-95983025D01*
X160372623Y-96343332D01*
X160372632Y-96343352D01*
X160547840Y-96687219D01*
X160547844Y-96687226D01*
X160758048Y-97010910D01*
X160758052Y-97010915D01*
X161000938Y-97310855D01*
X161273844Y-97583761D01*
X161573784Y-97826647D01*
X161573789Y-97826651D01*
X161897473Y-98036855D01*
X161897480Y-98036859D01*
X162241347Y-98212067D01*
X162241367Y-98212076D01*
X162601674Y-98350385D01*
X162974464Y-98450274D01*
X162974486Y-98450279D01*
X163355669Y-98510653D01*
X163355664Y-98510653D01*
X163512898Y-98518893D01*
X163512900Y-98518892D01*
X163512900Y-96430587D01*
X163678231Y-96443600D01*
X163803969Y-96443600D01*
X163969300Y-96430587D01*
X163969300Y-98518892D01*
X163969301Y-98518893D01*
X164126532Y-98510653D01*
X164507713Y-98450279D01*
X164507735Y-98450274D01*
X164880525Y-98350385D01*
X165240832Y-98212076D01*
X165240852Y-98212067D01*
X165584719Y-98036859D01*
X165584726Y-98036855D01*
X165908410Y-97826651D01*
X165908415Y-97826647D01*
X166208355Y-97583761D01*
X166481261Y-97310855D01*
X166724147Y-97010915D01*
X166724151Y-97010910D01*
X166934355Y-96687226D01*
X166934359Y-96687219D01*
X167109567Y-96343352D01*
X167109576Y-96343332D01*
X167247885Y-95983025D01*
X167347774Y-95610235D01*
X167347779Y-95610213D01*
X167408153Y-95229033D01*
X167408153Y-95229031D01*
X167416393Y-95071800D01*
X165328088Y-95071800D01*
X165346048Y-94843600D01*
X165328088Y-94615400D01*
X167416393Y-94615400D01*
X167416393Y-94615399D01*
X167408153Y-94458168D01*
X167408153Y-94458166D01*
X167347779Y-94076986D01*
X167347774Y-94076964D01*
X167247885Y-93704174D01*
X167109576Y-93343867D01*
X167109567Y-93343847D01*
X166934359Y-92999981D01*
X166934355Y-92999974D01*
X166724154Y-92676293D01*
X166481261Y-92376344D01*
X166208355Y-92103438D01*
X165908415Y-91860552D01*
X165908410Y-91860548D01*
X165584726Y-91650344D01*
X165584719Y-91650340D01*
X165240852Y-91475132D01*
X165240832Y-91475123D01*
X164880525Y-91336814D01*
X164507735Y-91236925D01*
X164507713Y-91236920D01*
X164126532Y-91176546D01*
X163969300Y-91168306D01*
X163969300Y-93256612D01*
X163803969Y-93243600D01*
X163678231Y-93243600D01*
X163512900Y-93256612D01*
X163512900Y-91168306D01*
X163512899Y-91168306D01*
X163355668Y-91176546D01*
X163355666Y-91176546D01*
X162974486Y-91236920D01*
X162974464Y-91236925D01*
X162601674Y-91336814D01*
X162241367Y-91475123D01*
X162241347Y-91475132D01*
X161897481Y-91650340D01*
X161897474Y-91650344D01*
X161573793Y-91860545D01*
X161273844Y-92103438D01*
X161000938Y-92376344D01*
X160758045Y-92676293D01*
X160547844Y-92999974D01*
X160547840Y-92999981D01*
X160372632Y-93343847D01*
X160372623Y-93343867D01*
X160234314Y-93704174D01*
X160134425Y-94076964D01*
X160134420Y-94076986D01*
X160074046Y-94458166D01*
X160074046Y-94458168D01*
X160065806Y-94615399D01*
X160065807Y-94615400D01*
X162154112Y-94615400D01*
X162136152Y-94843600D01*
X162154112Y-95071800D01*
X160065806Y-95071800D01*
X155479426Y-95071800D01*
X155478402Y-95070390D01*
X155459320Y-95011668D01*
X155458845Y-95010167D01*
X155456162Y-95001449D01*
X155441043Y-94952319D01*
X155441042Y-94952318D01*
X155440958Y-94952044D01*
X155440957Y-94952042D01*
X155439988Y-94950139D01*
X155439280Y-94948723D01*
X155438337Y-94946799D01*
X155402575Y-94897576D01*
X155401701Y-94896353D01*
X155366917Y-94846873D01*
X155344144Y-94829778D01*
X155333403Y-94820459D01*
X154646177Y-94133234D01*
X154623251Y-94110308D01*
X154601417Y-94099182D01*
X154587964Y-94090937D01*
X154568136Y-94076531D01*
X154568129Y-94076528D01*
X154544824Y-94068956D01*
X154530241Y-94062916D01*
X154508407Y-94051791D01*
X154484196Y-94047956D01*
X154468855Y-94044273D01*
X154445546Y-94036700D01*
X154413124Y-94036700D01*
X147745547Y-94036700D01*
X147616654Y-94036700D01*
X147593340Y-94044274D01*
X147578006Y-94047955D01*
X147553794Y-94051791D01*
X147553792Y-94051791D01*
X147553788Y-94051793D01*
X147531957Y-94062916D01*
X147517379Y-94068955D01*
X147494071Y-94076528D01*
X147494064Y-94076532D01*
X147474235Y-94090938D01*
X147460784Y-94099181D01*
X147438949Y-94110307D01*
X146547807Y-95001449D01*
X146536681Y-95023284D01*
X146528438Y-95036735D01*
X146514032Y-95056564D01*
X146514028Y-95056571D01*
X146506455Y-95079879D01*
X146500416Y-95094457D01*
X146489293Y-95116288D01*
X146489291Y-95116292D01*
X146489291Y-95116294D01*
X146486036Y-95136845D01*
X146485456Y-95140504D01*
X146481773Y-95155845D01*
X146474200Y-95179155D01*
X146474200Y-96314571D01*
X146454987Y-96373702D01*
X146404687Y-96410247D01*
X146342513Y-96410247D01*
X146292213Y-96373702D01*
X146275319Y-96336044D01*
X146274609Y-96332798D01*
X146229168Y-96202930D01*
X146147468Y-96092231D01*
X146036769Y-96010531D01*
X145906907Y-95965092D01*
X145906908Y-95965092D01*
X145876063Y-95962200D01*
X144949300Y-95962200D01*
X144949300Y-96846200D01*
X144930087Y-96905331D01*
X144879787Y-96941876D01*
X144848700Y-96946800D01*
X143164700Y-96946800D01*
X143164700Y-97073563D01*
X143167592Y-97104408D01*
X143213031Y-97234269D01*
X143294731Y-97344968D01*
X143369509Y-97400157D01*
X143405677Y-97450729D01*
X143405212Y-97512901D01*
X143368292Y-97562927D01*
X143309771Y-97581700D01*
X143045400Y-97581700D01*
X142986269Y-97562487D01*
X142949724Y-97512187D01*
X142944800Y-97481100D01*
X142944800Y-97251036D01*
X142932981Y-97191620D01*
X142887960Y-97124240D01*
X142842938Y-97094157D01*
X142820579Y-97079218D01*
X142772982Y-97069750D01*
X142761164Y-97067400D01*
X140181036Y-97067400D01*
X140171178Y-97069360D01*
X140121620Y-97079218D01*
X140054240Y-97124240D01*
X140009218Y-97191620D01*
X139997400Y-97251036D01*
X139997400Y-98325214D01*
X139978187Y-98384345D01*
X139927887Y-98420890D01*
X139865713Y-98420890D01*
X139863575Y-98420169D01*
X139791907Y-98395092D01*
X139791908Y-98395092D01*
X139761063Y-98392200D01*
X138664300Y-98392200D01*
X138664300Y-99255400D01*
X140162500Y-99255400D01*
X140162500Y-98845400D01*
X140181713Y-98786269D01*
X140232013Y-98749724D01*
X140263100Y-98744800D01*
X140586800Y-98744800D01*
X140645931Y-98764013D01*
X140682476Y-98814313D01*
X140687400Y-98845400D01*
X140687400Y-100183663D01*
X140701152Y-100252798D01*
X140699991Y-100253028D01*
X140704085Y-100305030D01*
X140671599Y-100358043D01*
X140666002Y-100362490D01*
X140564731Y-100437231D01*
X140483031Y-100547930D01*
X140437592Y-100677791D01*
X140434700Y-100708636D01*
X140434700Y-101185400D01*
X142847500Y-101185400D01*
X142847500Y-100756800D01*
X143164700Y-100756800D01*
X143164700Y-100883563D01*
X143167592Y-100914408D01*
X143213031Y-101044269D01*
X143294731Y-101154968D01*
X143405430Y-101236668D01*
X143535292Y-101282107D01*
X143535291Y-101282107D01*
X143566137Y-101285000D01*
X144492900Y-101285000D01*
X144492900Y-100756800D01*
X144949300Y-100756800D01*
X144949300Y-101285000D01*
X145876063Y-101285000D01*
X145906908Y-101282107D01*
X146036769Y-101236668D01*
X146147468Y-101154968D01*
X146229168Y-101044269D01*
X146274607Y-100914408D01*
X146277500Y-100883563D01*
X146277500Y-100756800D01*
X144949300Y-100756800D01*
X144492900Y-100756800D01*
X143164700Y-100756800D01*
X142847500Y-100756800D01*
X142847500Y-100708636D01*
X142844607Y-100677791D01*
X142799168Y-100547930D01*
X142717469Y-100437231D01*
X142616197Y-100362490D01*
X142580029Y-100311918D01*
X142580494Y-100249746D01*
X142582980Y-100243083D01*
X142590674Y-100204408D01*
X142594800Y-100183664D01*
X142594800Y-99766100D01*
X142614013Y-99706969D01*
X142664313Y-99670424D01*
X142695400Y-99665500D01*
X143309771Y-99665500D01*
X143368902Y-99684713D01*
X143405447Y-99735013D01*
X143405447Y-99797187D01*
X143369509Y-99847043D01*
X143294731Y-99902231D01*
X143213031Y-100012930D01*
X143167592Y-100142791D01*
X143164700Y-100173636D01*
X143164700Y-100300400D01*
X146277500Y-100300400D01*
X146277500Y-100173636D01*
X146274607Y-100142791D01*
X146229168Y-100012930D01*
X146147468Y-99902231D01*
X146072691Y-99847043D01*
X146036523Y-99796471D01*
X146036988Y-99734299D01*
X146073908Y-99684273D01*
X146132429Y-99665500D01*
X147473600Y-99665500D01*
X147532731Y-99684713D01*
X147569276Y-99735013D01*
X147574200Y-99766100D01*
X147574200Y-103358910D01*
X147573177Y-103373213D01*
X147572600Y-103377232D01*
X147572600Y-103377238D01*
X147572600Y-103391841D01*
X147572344Y-103399017D01*
X147568680Y-103450249D01*
X147570301Y-103457701D01*
X147572600Y-103479084D01*
X147572600Y-104006800D01*
X147553387Y-104065931D01*
X147503087Y-104102476D01*
X147472000Y-104107400D01*
X146786036Y-104107400D01*
X146776178Y-104109360D01*
X146726620Y-104119218D01*
X146659240Y-104164240D01*
X146614218Y-104231620D01*
X146602400Y-104291036D01*
X146602400Y-105534500D01*
X146583187Y-105593631D01*
X146532887Y-105630176D01*
X146501800Y-105635100D01*
X146283398Y-105635100D01*
X146224267Y-105615887D01*
X146212263Y-105605635D01*
X145739265Y-105132637D01*
X145711039Y-105077239D01*
X145709800Y-105061502D01*
X145709800Y-104203536D01*
X145696048Y-104134402D01*
X145697208Y-104134171D01*
X145693116Y-104082165D01*
X145725604Y-104029153D01*
X145731198Y-104024709D01*
X145832469Y-103949968D01*
X145914168Y-103839269D01*
X145959607Y-103709408D01*
X145962500Y-103678563D01*
X145962500Y-103201800D01*
X143588370Y-103201800D01*
X143529239Y-103182587D01*
X143517235Y-103172335D01*
X143506700Y-103161800D01*
X141594700Y-103161800D01*
X141594700Y-103638563D01*
X141597592Y-103669408D01*
X141643031Y-103799269D01*
X141724730Y-103909968D01*
X141826002Y-103984709D01*
X141862170Y-104035281D01*
X141861705Y-104097453D01*
X141859221Y-104104109D01*
X141847400Y-104163536D01*
X141847400Y-104520100D01*
X141828187Y-104579231D01*
X141777887Y-104615776D01*
X141746800Y-104620700D01*
X139843756Y-104620700D01*
X139784625Y-104601487D01*
X139748080Y-104551187D01*
X139748080Y-104489013D01*
X139784625Y-104438713D01*
X139787866Y-104436454D01*
X139813838Y-104419100D01*
X139852960Y-104392960D01*
X139897981Y-104325580D01*
X139909800Y-104266164D01*
X139909800Y-102956036D01*
X139897981Y-102896620D01*
X139852960Y-102829240D01*
X139785580Y-102784219D01*
X139785579Y-102784218D01*
X139737982Y-102774750D01*
X139726164Y-102772400D01*
X137146036Y-102772400D01*
X137136178Y-102774360D01*
X137086620Y-102784218D01*
X137036027Y-102818023D01*
X137020628Y-102828313D01*
X137019239Y-102829241D01*
X137012234Y-102836247D01*
X137010214Y-102834227D01*
X136973419Y-102863234D01*
X136911293Y-102865675D01*
X136859597Y-102831133D01*
X136838078Y-102772801D01*
X136838000Y-102768852D01*
X136838000Y-102479153D01*
X136837999Y-102479150D01*
X136830427Y-102455848D01*
X136826742Y-102440499D01*
X136822909Y-102416294D01*
X136811782Y-102394455D01*
X136805745Y-102379881D01*
X136798170Y-102356568D01*
X136783758Y-102336731D01*
X136775517Y-102323284D01*
X136764392Y-102301449D01*
X136744983Y-102282040D01*
X136744972Y-102282028D01*
X136117465Y-101654521D01*
X136110983Y-101641800D01*
X140434700Y-101641800D01*
X140434700Y-102118563D01*
X140437592Y-102149408D01*
X140483031Y-102279269D01*
X140564731Y-102389968D01*
X140675430Y-102471668D01*
X140805292Y-102517107D01*
X140805291Y-102517107D01*
X140836137Y-102520000D01*
X141494100Y-102520000D01*
X141553231Y-102539213D01*
X141589776Y-102589513D01*
X141594700Y-102620600D01*
X141594700Y-102705400D01*
X143968830Y-102705400D01*
X144027961Y-102724613D01*
X144039965Y-102734865D01*
X144050500Y-102745400D01*
X144527900Y-102745400D01*
X144527900Y-101867200D01*
X144984300Y-101867200D01*
X144984300Y-102745400D01*
X145962500Y-102745400D01*
X145962500Y-102268636D01*
X145959607Y-102237791D01*
X145914167Y-102107928D01*
X145832468Y-101997231D01*
X145721769Y-101915531D01*
X145591907Y-101870092D01*
X145591908Y-101870092D01*
X145561063Y-101867200D01*
X144984300Y-101867200D01*
X144527900Y-101867200D01*
X143951137Y-101867200D01*
X143920287Y-101870092D01*
X143920287Y-101870093D01*
X143861329Y-101890723D01*
X143799171Y-101892118D01*
X143768364Y-101876710D01*
X143766765Y-101875530D01*
X143766764Y-101875529D01*
X143636907Y-101830092D01*
X143636908Y-101830092D01*
X143606063Y-101827200D01*
X142948100Y-101827200D01*
X142888969Y-101807987D01*
X142852424Y-101757687D01*
X142847500Y-101726600D01*
X142847500Y-101641800D01*
X140434700Y-101641800D01*
X136110983Y-101641800D01*
X136089239Y-101599123D01*
X136088000Y-101583386D01*
X136088000Y-101383538D01*
X136089239Y-101367799D01*
X136093072Y-101343600D01*
X136093072Y-101343598D01*
X136089239Y-101319399D01*
X136088000Y-101303661D01*
X136088000Y-101233538D01*
X136089239Y-101217799D01*
X136093072Y-101193600D01*
X136093072Y-101193598D01*
X136089239Y-101169399D01*
X136088000Y-101153661D01*
X136088000Y-101083538D01*
X136089239Y-101067799D01*
X136093072Y-101043600D01*
X136093072Y-101043598D01*
X136089239Y-101019399D01*
X136088000Y-101003661D01*
X136088000Y-100042448D01*
X136088733Y-100030323D01*
X136089974Y-100020100D01*
X136093192Y-99993600D01*
X136088733Y-99956875D01*
X136088000Y-99944750D01*
X136088000Y-99883538D01*
X136089239Y-99867799D01*
X136093072Y-99843600D01*
X136093072Y-99843598D01*
X136089239Y-99819399D01*
X136088000Y-99803661D01*
X136088000Y-99711800D01*
X136709700Y-99711800D01*
X136709700Y-100173563D01*
X136712592Y-100204408D01*
X136758031Y-100334269D01*
X136839731Y-100444968D01*
X136950430Y-100526668D01*
X137080292Y-100572107D01*
X137080291Y-100572107D01*
X137111137Y-100575000D01*
X138207900Y-100575000D01*
X138207900Y-99711800D01*
X138664300Y-99711800D01*
X138664300Y-100575000D01*
X139761063Y-100575000D01*
X139791908Y-100572107D01*
X139921769Y-100526668D01*
X140032468Y-100444968D01*
X140114168Y-100334269D01*
X140159607Y-100204408D01*
X140162500Y-100173563D01*
X140162500Y-99711800D01*
X138664300Y-99711800D01*
X138207900Y-99711800D01*
X136709700Y-99711800D01*
X136088000Y-99711800D01*
X136088000Y-99583537D01*
X136089239Y-99567798D01*
X136093072Y-99543599D01*
X136086285Y-99500753D01*
X136086285Y-99500748D01*
X136072909Y-99416296D01*
X136072909Y-99416294D01*
X136014392Y-99301449D01*
X135968343Y-99255400D01*
X136709700Y-99255400D01*
X138207900Y-99255400D01*
X138207900Y-98392200D01*
X137111137Y-98392200D01*
X137080291Y-98395092D01*
X136950430Y-98440531D01*
X136839731Y-98522231D01*
X136758031Y-98632930D01*
X136712592Y-98762791D01*
X136709700Y-98793636D01*
X136709700Y-99255400D01*
X135968343Y-99255400D01*
X135923251Y-99210308D01*
X135923250Y-99210307D01*
X135808406Y-99151791D01*
X135808403Y-99151790D01*
X135681103Y-99131628D01*
X135681099Y-99131628D01*
X135656899Y-99135461D01*
X135641161Y-99136700D01*
X130471039Y-99136700D01*
X130455301Y-99135461D01*
X130431101Y-99131628D01*
X130431099Y-99131628D01*
X130406899Y-99135461D01*
X130391161Y-99136700D01*
X129571039Y-99136700D01*
X129555301Y-99135461D01*
X129531101Y-99131628D01*
X129531097Y-99131628D01*
X129403796Y-99151790D01*
X129403793Y-99151791D01*
X129288949Y-99210307D01*
X129197807Y-99301449D01*
X129139291Y-99416293D01*
X129139290Y-99416296D01*
X129125914Y-99500751D01*
X129119128Y-99543596D01*
X129119128Y-99543599D01*
X129122961Y-99567798D01*
X129124200Y-99583537D01*
X129124200Y-100703661D01*
X129122961Y-100719398D01*
X129119128Y-100743600D01*
X129122187Y-100762916D01*
X129122961Y-100767799D01*
X129124200Y-100783538D01*
X129124200Y-101003661D01*
X129122961Y-101019399D01*
X129119128Y-101043598D01*
X129119128Y-101043600D01*
X129122961Y-101067799D01*
X129124200Y-101083538D01*
X129124200Y-101153661D01*
X129122961Y-101169399D01*
X129119128Y-101193598D01*
X129119128Y-101193600D01*
X129122961Y-101217799D01*
X129124200Y-101233538D01*
X129124200Y-101303661D01*
X129122961Y-101319399D01*
X129119128Y-101343598D01*
X129119128Y-101343600D01*
X129122961Y-101367799D01*
X129124200Y-101383538D01*
X129124200Y-101603661D01*
X129122961Y-101619399D01*
X129119128Y-101643598D01*
X129119128Y-101643602D01*
X128306600Y-101643602D01*
X128306600Y-95071800D01*
X129585806Y-95071800D01*
X129594046Y-95229031D01*
X129594046Y-95229033D01*
X129654420Y-95610213D01*
X129654425Y-95610235D01*
X129754314Y-95983025D01*
X129892623Y-96343332D01*
X129892632Y-96343352D01*
X130067840Y-96687219D01*
X130067844Y-96687226D01*
X130278048Y-97010910D01*
X130278052Y-97010915D01*
X130520938Y-97310855D01*
X130793844Y-97583761D01*
X131093784Y-97826647D01*
X131093789Y-97826651D01*
X131417473Y-98036855D01*
X131417480Y-98036859D01*
X131761347Y-98212067D01*
X131761367Y-98212076D01*
X132121674Y-98350385D01*
X132494464Y-98450274D01*
X132494486Y-98450279D01*
X132875669Y-98510653D01*
X132875664Y-98510653D01*
X133032898Y-98518893D01*
X133032900Y-98518892D01*
X133032900Y-96430587D01*
X133198231Y-96443600D01*
X133323969Y-96443600D01*
X133489300Y-96430587D01*
X133489300Y-98518892D01*
X133489301Y-98518893D01*
X133646532Y-98510653D01*
X134027713Y-98450279D01*
X134027735Y-98450274D01*
X134400525Y-98350385D01*
X134760832Y-98212076D01*
X134760852Y-98212067D01*
X135104719Y-98036859D01*
X135104726Y-98036855D01*
X135428410Y-97826651D01*
X135428415Y-97826647D01*
X135728355Y-97583761D01*
X136001261Y-97310855D01*
X136244147Y-97010915D01*
X136244151Y-97010910D01*
X136454355Y-96687226D01*
X136454359Y-96687219D01*
X136554643Y-96490400D01*
X143164700Y-96490400D01*
X144492900Y-96490400D01*
X144492900Y-95962200D01*
X143566137Y-95962200D01*
X143535291Y-95965092D01*
X143405430Y-96010531D01*
X143294731Y-96092231D01*
X143213031Y-96202930D01*
X143167592Y-96332791D01*
X143164700Y-96363636D01*
X143164700Y-96490400D01*
X136554643Y-96490400D01*
X136629567Y-96343352D01*
X136629576Y-96343332D01*
X136767885Y-95983025D01*
X136867774Y-95610235D01*
X136867779Y-95610213D01*
X136928153Y-95229033D01*
X136928153Y-95229031D01*
X136936393Y-95071800D01*
X134848088Y-95071800D01*
X134866048Y-94843600D01*
X134848088Y-94615400D01*
X136936393Y-94615400D01*
X136936393Y-94615399D01*
X136928153Y-94458168D01*
X136928153Y-94458166D01*
X136867779Y-94076986D01*
X136867774Y-94076964D01*
X136848974Y-94006800D01*
X139744700Y-94006800D01*
X139744700Y-94468563D01*
X139747592Y-94499408D01*
X139793031Y-94629269D01*
X139874731Y-94739968D01*
X139985430Y-94821668D01*
X140115292Y-94867107D01*
X140115291Y-94867107D01*
X140146137Y-94870000D01*
X141242900Y-94870000D01*
X141242900Y-94006800D01*
X141699300Y-94006800D01*
X141699300Y-94870000D01*
X142796063Y-94870000D01*
X142826908Y-94867107D01*
X142956769Y-94821668D01*
X143067468Y-94739968D01*
X143149168Y-94629269D01*
X143194607Y-94499408D01*
X143197500Y-94468563D01*
X143197500Y-94006800D01*
X141699300Y-94006800D01*
X141242900Y-94006800D01*
X139744700Y-94006800D01*
X136848974Y-94006800D01*
X136767885Y-93704174D01*
X136708857Y-93550400D01*
X139744700Y-93550400D01*
X141242900Y-93550400D01*
X141242900Y-92687200D01*
X141699300Y-92687200D01*
X141699300Y-93550400D01*
X143197500Y-93550400D01*
X143197500Y-93088636D01*
X143194607Y-93057791D01*
X143149168Y-92927930D01*
X143067468Y-92817231D01*
X142956769Y-92735531D01*
X142826907Y-92690092D01*
X142826908Y-92690092D01*
X142796063Y-92687200D01*
X141699300Y-92687200D01*
X141242900Y-92687200D01*
X140146137Y-92687200D01*
X140115291Y-92690092D01*
X139985430Y-92735531D01*
X139874731Y-92817231D01*
X139793031Y-92927930D01*
X139747592Y-93057791D01*
X139744700Y-93088636D01*
X139744700Y-93550400D01*
X136708857Y-93550400D01*
X136629576Y-93343867D01*
X136629567Y-93343847D01*
X136454359Y-92999981D01*
X136454355Y-92999974D01*
X136244154Y-92676293D01*
X136001261Y-92376344D01*
X135728355Y-92103438D01*
X135428415Y-91860552D01*
X135428410Y-91860548D01*
X135104726Y-91650344D01*
X135104719Y-91650340D01*
X134760852Y-91475132D01*
X134760832Y-91475123D01*
X134400525Y-91336814D01*
X134027735Y-91236925D01*
X134027713Y-91236920D01*
X133646532Y-91176546D01*
X133489300Y-91168306D01*
X133489300Y-93256612D01*
X133323969Y-93243600D01*
X133198231Y-93243600D01*
X133032900Y-93256612D01*
X133032900Y-91168306D01*
X133032899Y-91168306D01*
X132875668Y-91176546D01*
X132875666Y-91176546D01*
X132494486Y-91236920D01*
X132494464Y-91236925D01*
X132121674Y-91336814D01*
X131761367Y-91475123D01*
X131761347Y-91475132D01*
X131417481Y-91650340D01*
X131417474Y-91650344D01*
X131093793Y-91860545D01*
X130793844Y-92103438D01*
X130520938Y-92376344D01*
X130278045Y-92676293D01*
X130067844Y-92999974D01*
X130067840Y-92999981D01*
X129892632Y-93343847D01*
X129892623Y-93343867D01*
X129754314Y-93704174D01*
X129654425Y-94076964D01*
X129654420Y-94076986D01*
X129594046Y-94458166D01*
X129594046Y-94458168D01*
X129585806Y-94615399D01*
X129585807Y-94615400D01*
X131674112Y-94615400D01*
X131656152Y-94843600D01*
X131674112Y-95071800D01*
X129585806Y-95071800D01*
X128306600Y-95071800D01*
X128306600Y-89989700D01*
X128325813Y-89930569D01*
X128376113Y-89894024D01*
X128407200Y-89889100D01*
X168595000Y-89889100D01*
X168654131Y-89908313D01*
G37*
%TD.AperFunction*%
%TD*%
M02*
